<?xml version="1.0" encoding="iso-8859-1"?>
<!-- Generator: Adobe Illustrator 15.0.0, SVG Export Plug-In . SVG Version: 6.00 Build 0)  -->
<!DOCTYPE svg PUBLIC "-//W3C//DTD SVG 1.1//EN" "http://www.w3.org/Graphics/SVG/1.1/DTD/svg11.dtd" [
	<!ENTITY ns_extend "http://ns.adobe.com/Extensibility/1.0/">
	<!ENTITY ns_ai "http://ns.adobe.com/AdobeIllustrator/10.0/">
	<!ENTITY ns_graphs "http://ns.adobe.com/Graphs/1.0/">
	<!ENTITY ns_vars "http://ns.adobe.com/Variables/1.0/">
	<!ENTITY ns_imrep "http://ns.adobe.com/ImageReplacement/1.0/">
	<!ENTITY ns_sfw "http://ns.adobe.com/SaveForWeb/1.0/">
	<!ENTITY ns_custom "http://ns.adobe.com/GenericCustomNamespace/1.0/">
	<!ENTITY ns_adobe_xpath "http://ns.adobe.com/XPath/1.0/">
]>
<svg version="1.1"
	 id="&#x424;&#x438;&#x433;&#x443;&#x440;&#x430;_1_1_" xmlns:x="&ns_extend;" xmlns:i="&ns_ai;" xmlns:graph="&ns_graphs;"
	 xmlns="http://www.w3.org/2000/svg" xmlns:xlink="http://www.w3.org/1999/xlink" x="0px" y="0px" width="384.549px"
	 height="384.55px" viewBox="0 0 384.549 384.55" style="enable-background:new 0 0 384.549 384.55;" xml:space="preserve">
<metadata>
	<sfw  xmlns="&ns_sfw;">
		<slices></slices>
		<sliceSourceBounds  x="160.443" y="159.457" width="384.549" height="384.55" bottomLeftOrigin="true"></sliceSourceBounds>
	</sfw>
</metadata>
<g id="&#x424;&#x438;&#x433;&#x443;&#x440;&#x430;_1">
	<path style="fill-rule:evenodd;clip-rule:evenodd;fill:#F2F2F2;" d="M107.674,0H0v107.675h107.674V0z M92.292,92.292h-76.91V15.383
		h76.91V92.292z M153.82,0h-15.382v15.383h15.382V0z M0,123.057v15.382h30.764v-15.382H0z M199.965,61.528V76.91h15.383V61.528
		H199.965z M261.494,107.675V92.292h-15.382v15.383H261.494z M246.112,0H230.73v46.146h15.382V0z M230.73,138.438v-15.382h-30.765
		v15.382H230.73z M199.965,123.057V92.292h-15.381v30.765H199.965z M76.91,30.765H30.764V76.91H76.91V30.765z M0,246.112h15.382
		V230.73H0V246.112z M184.584,76.91h-15.382v15.382h15.382V76.91z M184.584,46.146h15.381V30.765h15.383V15.383h-15.383V0h-15.381
		v15.383h-15.382v15.382h-30.764V15.383h-15.382v30.764h15.382v15.382h46.146V46.146z M169.202,107.675V92.292H153.82v15.383
		H169.202z M353.786,384.55h30.764v-15.382h-30.764V384.55z M292.257,384.55h15.383v-15.382h-15.383V384.55z M215.348,61.528h15.382
		V46.146h-15.382V61.528z M0,384.55h107.674V276.876H0V384.55z M15.382,292.258h76.91v76.91h-76.91V292.258z M215.348,76.91v30.765
		h15.382V92.292h15.382V76.91h15.382V61.528H230.73V76.91H215.348z M323.022,369.168h15.382v-15.382h-15.382V369.168z
		 M123.056,384.55h15.382v-15.382h15.382v-15.382h-30.764V384.55z M369.167,353.786h15.382v-15.382h-15.382V353.786z
		 M30.764,353.786H76.91v-46.146H30.764V353.786z M369.167,323.022h15.382v-61.528h-15.382v15.382h-15.382v15.382h15.382V323.022z
		 M323.022,215.349H307.64v-30.765h-15.383v-15.382h-30.764V153.82h30.764v-15.382h30.765v-15.382h-46.146v15.382h-15.382v-15.382
		h-15.382v61.527H230.73v15.382h15.382v15.383h46.146v15.382h15.383v15.382h-15.383V230.73h-92.292v-30.765h15.383v-30.764h-15.383
		v15.382h-15.381v15.382H153.82v15.383h-30.764v-15.383h-15.382v15.383H76.91v-15.383H61.528v30.765H76.91v15.382h15.382V230.73
		h61.528v15.382h15.382v-30.764h15.382v30.764h46.146v30.764h-15.382v-15.382h-15.383v30.764h15.383v15.383h-30.764v-15.383h-15.382
		v15.383H153.82v15.382h-30.764v15.382h30.764v15.382h15.382v30.764h30.764v-15.382h15.383v-15.382h-15.383v-15.382h15.383v15.382
		h15.382v15.382h-15.382v15.382h61.527v-15.382h-15.382v-46.146h30.764v30.764h30.765v-15.382h15.382v15.382h15.382v-30.764h-15.382
		v-15.382h15.382v-15.383h-15.382v-30.764h15.382v-15.382h-30.764V215.349z M276.875,199.966h-15.382v-15.382h15.382V199.966z
		 M246.112,338.404H230.73v-46.146h15.382V338.404z M307.64,307.641h-46.146v-46.146h46.146V307.641z M123.056,261.494v30.764
		h15.382v15.383h15.382v-46.146H123.056z M292.257,276.876h-15.382v15.382h15.382V276.876z M92.292,246.112v15.382h30.764v-15.382
		H92.292z M353.786,246.112h15.382V230.73h-15.382V246.112z M61.528,230.73H46.146v30.764H76.91v-15.382H61.528V230.73z
		 M184.584,261.494v-15.382h-15.382v15.382H184.584z M353.786,30.765H307.64V76.91h46.146V30.765z M30.764,199.966v15.383H15.382
		v15.382h30.764v-30.765H30.764z M353.786,199.966h15.382v30.765h15.382v-46.146h-30.764V199.966z M276.875,0v107.675h107.674V0
		H276.875z M369.167,92.292h-76.91V15.383h76.91V92.292z M369.167,153.82h-15.382v15.382h30.764v-30.764h-15.382V153.82z
		 M338.404,123.057v15.382h30.764v-15.382H338.404z M46.146,169.202H76.91V153.82h15.382v-15.382H61.528v-15.382H46.146v15.382
		H30.764v15.382h15.382V169.202z M307.64,169.202V153.82h-15.383v15.382H307.64z M107.674,184.584h15.382v-15.382h-15.382V184.584z
		 M92.292,184.584v15.382h15.382v-15.382H92.292z M323.022,184.584v-15.382H307.64v15.382H323.022z M230.73,153.82h-15.382v15.382
		h15.382V153.82z M30.764,199.966v-15.382h15.382v-15.382H30.764V153.82H15.382v30.764H0v30.765h15.382v-15.383H30.764z
		 M338.404,215.349v15.382h15.382v-30.765h-15.382v-15.382h-15.382v30.765H338.404z M107.674,153.82h15.382v-30.764H92.292v15.382
		h15.382V153.82z M92.292,153.82v15.382h15.382V153.82H92.292z M138.438,199.966v-15.382h-15.382v15.382H138.438z M123.056,153.82
		v15.382h46.146V153.82h15.382v-15.382h-15.382v-15.382H153.82v30.764H123.056z M153.82,107.675h-15.382V92.292h15.382V76.91
		h-15.382V61.528h-15.382v61.528h30.764V107.675z"/>
</g>
</svg>
