<?xml version="1.0" encoding="iso-8859-1"?>
<!-- Generator: Adobe Illustrator 15.0.0, SVG Export Plug-In . SVG Version: 6.00 Build 0)  -->
<!DOCTYPE svg PUBLIC "-//W3C//DTD SVG 1.1//EN" "http://www.w3.org/Graphics/SVG/1.1/DTD/svg11.dtd" [
	<!ENTITY ns_extend "http://ns.adobe.com/Extensibility/1.0/">
	<!ENTITY ns_ai "http://ns.adobe.com/AdobeIllustrator/10.0/">
	<!ENTITY ns_graphs "http://ns.adobe.com/Graphs/1.0/">
	<!ENTITY ns_vars "http://ns.adobe.com/Variables/1.0/">
	<!ENTITY ns_imrep "http://ns.adobe.com/ImageReplacement/1.0/">
	<!ENTITY ns_sfw "http://ns.adobe.com/SaveForWeb/1.0/">
	<!ENTITY ns_custom "http://ns.adobe.com/GenericCustomNamespace/1.0/">
	<!ENTITY ns_adobe_xpath "http://ns.adobe.com/XPath/1.0/">
]>
<svg version="1.1" xmlns:x="&ns_extend;" xmlns:i="&ns_ai;" xmlns:graph="&ns_graphs;"
	 xmlns="http://www.w3.org/2000/svg" xmlns:xlink="http://www.w3.org/1999/xlink" x="0px" y="0px" width="512px" height="512px"
	 viewBox="0 0 512 512" style="enable-background:new 0 0 512 512;" xml:space="preserve">
<metadata>
	<sfw  xmlns="&ns_sfw;">
		<slices></slices>
		<sliceSourceBounds  height="512" width="512" x="94" y="94" bottomLeftOrigin="true"></sliceSourceBounds>
	</sfw>
</metadata>
<g id="&#x438;&#x433;&#x440;&#x43E;&#x432;&#x44B;&#x435;_1_">
	<g id="&#x417;&#x430;&#x43B;&#x438;&#x432;&#x43A;&#x430;_&#x446;&#x432;&#x435;&#x442;&#x43E;&#x43C;_1">
		<g>
			<rect x="3.699" y="4.439" style="fill-rule:evenodd;clip-rule:evenodd;fill:#B17D7B;" width="503.121" height="503.121"/>
		</g>
	</g>
	<g id="&#x417;&#x430;&#x43B;&#x438;&#x432;&#x43A;&#x430;_&#x446;&#x432;&#x435;&#x442;&#x43E;&#x43C;_5">
		<g>
			<path style="fill-rule:evenodd;clip-rule:evenodd;fill:#F3D4C3;" d="M484.624,25.156l20.717-20.717H3.699l20.717,20.717H484.624z
				 M24.416,486.844L3.699,507.561h501.642l-20.717-20.717H24.416z"/>
		</g>
	</g>
	
		<g id="&#x417;&#x430;&#x43B;&#x438;&#x432;&#x43A;&#x430;_&#x446;&#x432;&#x435;&#x442;&#x43E;&#x43C;_1_&#x43A;&#x43E;&#x43F;&#x438;&#x44F;_2">
		<g>
			<radialGradient id="SVGID_1_" cx="256.7402" cy="256" r="228.0762" gradientUnits="userSpaceOnUse">
				<stop  offset="0" style="stop-color:#99708E"/>
				<stop  offset="0.2" style="stop-color:#956D8B"/>
				<stop  offset="0.4182" style="stop-color:#886080"/>
				<stop  offset="0.6121" style="stop-color:#734E6D"/>
				<stop  offset="0.7636" style="stop-color:#573A54"/>
				<stop  offset="0.897" style="stop-color:#40293F"/>
				<stop  offset="1" style="stop-color:#331F32"/>
			</radialGradient>
			<polygon style="fill-rule:evenodd;clip-rule:evenodd;fill:url(#SVGID_1_);" points="432.765,27.924 78.856,27.924 28.664,78.116 
				28.664,435.769 76.972,484.076 433.367,484.076 484.816,432.627 484.816,79.976 			"/>
		</g>
	</g>
	
		<g id="&#x417;&#x430;&#x43B;&#x438;&#x432;&#x43A;&#x430;_&#x446;&#x432;&#x435;&#x442;&#x43E;&#x43C;_1_&#x43A;&#x43E;&#x43F;&#x438;&#x44F;">
		<g>
			<path style="fill-rule:evenodd;clip-rule:evenodd;fill:#F2D2C0;" d="M25.109,24.37v463.26h463.26V24.37H25.109z M466.659,418.566
				l-47.353,47.353H91.283l-44.462-44.462V92.277l46.196-46.196h325.734l47.908,47.907V418.566z"/>
		</g>
	</g>
	<g id="&#x424;&#x438;&#x433;&#x443;&#x440;&#x430;_3">
		<g>
			<path style="fill-rule:evenodd;clip-rule:evenodd;fill:#A18180;" d="M429.873,25.156l-344.047-1.48l-62.15,62.891v342.566
				l59.931,59.19l344.046-0.739l59.931-59.191V84.347L429.873,25.156z M477.226,423.954l-56.231,54.751H91.006l-56.231-54.751
				V88.046l54.012-54.012h334.428l54.751,56.231L477.226,423.954z"/>
		</g>
	</g>
	<g id="&#x417;&#x430;&#x43B;&#x438;&#x432;&#x43A;&#x430;_&#x446;&#x432;&#x435;&#x442;&#x43E;&#x43C;_6">
		<g>
			<path style="fill-rule:evenodd;clip-rule:evenodd;fill:#C7907F;" d="M23.676,86.566l62.52-62.752l-62.52-0.139V86.566z
				 M487.584,23.63l-62.521,0.139l62.521,62.752V23.63z M22.196,488.37l62.521-0.139l-62.521-62.752V488.37z M425.803,488.971
				l62.521,0.139v-62.89L425.803,488.971z"/>
		</g>
	</g>
	
		<g id="&#x417;&#x430;&#x43B;&#x438;&#x432;&#x43A;&#x430;_&#x446;&#x432;&#x435;&#x442;&#x43E;&#x43C;_6_&#x43A;&#x43E;&#x43F;&#x438;&#x44F;">
		<g>
			<path style="fill-rule:evenodd;clip-rule:evenodd;fill:#FDECE7;" d="M27.964,485.886l56.753,2.346L55.27,458.579L27.964,485.886z
				 M54.694,55.434l31.502-31.619l-59.314,3.562L54.694,55.434z M485.117,26.582l-60.054-2.813l31.376,31.491L485.117,26.582z
				 M425.803,488.971l59.314-3.113l-28.158-28.158L425.803,488.971z"/>
		</g>
	</g>
	<g id="&#x424;&#x438;&#x433;&#x443;&#x440;&#x430;_1">
		<g>
			<path style="fill-rule:evenodd;clip-rule:evenodd;fill:#C7907F;" d="M34.774,487.769l0.093-9.156h-8.417L34.774,487.769z
				 M477.04,477.873l0.093,9.155l8.323-9.155H477.04z M476.393,25.804l-0.092,9.156h8.416L476.393,25.804z M26.451,34.96h8.417
				l-0.093-9.156L26.451,34.96z"/>
		</g>
	</g>
	<g id="&#x424;&#x438;&#x433;&#x443;&#x440;&#x430;_2">
		<g>
			<path style="fill-rule:evenodd;clip-rule:evenodd;fill:#FDECE7;" d="M22.597,480.813L9.026,497.72l-1.627,10.285l22.418-0.296
				l0.532-18.644l-3.492-6.957L22.597,480.813z M508.448,495.817l-18.855-14.581l-4.261,4.043l-3.068,4.209l2.646,16.529
				l23.688,1.353L508.448,495.817z M21.002,31.648l4.26-1.295l3.492-6.956L28.222,4.754L5.803,4.458l1.628,10.284L21.002,31.648z
				 M487.997,31.226l18.856-14.581l0.147-11.553l-23.687,1.353l-2.646,16.53l3.069,4.208L487.997,31.226z"/>
		</g>
	</g>
	<g id="&#x417;&#x430;&#x43B;&#x438;&#x432;&#x43A;&#x430;_&#x446;&#x432;&#x435;&#x442;&#x43E;&#x43C;_2">
		<g>
			<path style="fill-rule:evenodd;clip-rule:evenodd;fill:#2F181B;" d="M0,0v512h512V0H0z M503.121,503.121H8.878V8.879h494.243
				V503.121z"/>
		</g>
	</g>
	<g id="&#x417;&#x430;&#x43B;&#x438;&#x432;&#x43A;&#x430;_&#x446;&#x432;&#x435;&#x442;&#x43E;&#x43C;_3">
		<g>
			<path style="fill-rule:evenodd;clip-rule:evenodd;fill:#40292E;" d="M482.33,20.67H29.346l-9.369,9.369v397.468
				c-0.119,0.585-0.119,1.188,0,1.771v53.925l9.606,9.605h453.025l9.507-9.507V30.455L482.33,20.67z M28.855,34.183l4.633-4.634
				h40.974L28.855,75.156V34.183z M33.726,483.931l-4.871-4.871v-39.857l44.728,44.729H33.726z M483.237,479.158l-4.772,4.772
				H437.63l45.607-45.607V479.158z M483.237,425.769l-58.162,58.162H86.139l-57.283-57.283V87.711l58.162-58.162h338.058
				l58.162,58.162V425.769z M483.237,75.156L437.63,29.549h40.558l5.05,5.05V75.156z"/>
		</g>
	</g>
	
		<g id="&#x417;&#x430;&#x43B;&#x438;&#x432;&#x43A;&#x430;_&#x446;&#x432;&#x435;&#x442;&#x43E;&#x43C;_4_&#x43A;&#x43E;&#x43F;&#x438;&#x44F;" style="opacity:0.502;">
		<g>
			<path style="fill-rule:evenodd;clip-rule:evenodd;fill:#876867;" d="M465.59,92.913l-47.243-47.244
				c-0.685-0.685-1.612-1.068-2.579-1.068H94.545c-0.968,0-1.896,0.384-2.58,1.068L46.409,91.227
				c-0.684,0.684-1.069,1.611-1.069,2.579v324.619c0,0.968,0.385,1.896,1.069,2.579l43.847,43.847
				c0.684,0.684,1.612,1.068,2.579,1.068h323.479c0.968,0,1.896-0.385,2.579-1.068l46.696-46.696
				c0.685-0.685,1.069-1.612,1.069-2.58V95.493C466.659,94.525,466.274,93.598,465.59,92.913z M459.363,414.063l-44.56,44.56H94.346
				l-41.709-41.709V95.316l43.419-43.419h318.201l45.106,45.106V414.063z"/>
		</g>
	</g>
	<g id="&#x417;&#x430;&#x43B;&#x438;&#x432;&#x43A;&#x430;_&#x446;&#x432;&#x435;&#x442;&#x43E;&#x43C;_4">
		<g>
			<path style="fill-rule:evenodd;clip-rule:evenodd;fill:#40292E;" d="M468.534,90.633l-47.907-47.907
				c-0.693-0.694-1.635-1.084-2.615-1.084H92.277c-0.981,0-1.922,0.39-2.616,1.084L43.465,88.922
				c-0.693,0.693-1.083,1.635-1.083,2.615v329.18c0,0.981,0.39,1.922,1.083,2.615l44.463,44.463
				c0.694,0.693,1.634,1.084,2.615,1.084h328.023c0.981,0,1.922-0.391,2.615-1.084l47.353-47.353
				c0.694-0.694,1.084-1.635,1.084-2.616V93.248C469.618,92.268,469.229,91.326,468.534,90.633z M462.22,416.295l-45.186,45.185
				H92.075L49.78,419.185V93.07l44.029-44.03h322.67l45.74,45.741V416.295z"/>
		</g>
	</g>
</g>
<g id="&#x418;&#x437;&#x43E;&#x431;&#x440;&#x430;&#x436;&#x435;&#x43D;&#x438;&#x435;_xA0_76_1_">
	<g id="&#x424;&#x438;&#x433;&#x443;&#x440;&#x430;_4_&#x43A;&#x43E;&#x43F;&#x438;&#x44F;_4" style="opacity:0.502;">
		<g>
			<path style="fill-rule:evenodd;clip-rule:evenodd;fill:#331F32;" d="M421.13,378.568c3.732-0.988,7.288-2.144,10.645-3.437
				c-3.311-1.008-6.904-2.04-10.696-3.137c0.089,0.084-15.391-4.796-16.237-15.209c-0.417-6.796,0.639-11.195,2.641-18.909
				c0.933-3.555,2.024-7.644,3.375-12.927c1.715-6.674,5.169-22.421,7.54-40.338c1.125-8.891,1.911-18.138,1.098-26.377
				c-0.206-2.061-0.517-4.061-0.956-5.982c-0.219-0.962-0.471-1.903-0.757-2.825s-0.607-1.822-0.966-2.702
				c-1.246-3.059-2.955-5.845-5.21-8.372c9.672-6.821,16.918-13.649,18.948-19.626c0.025-0.09,0.051-0.18,0.077-0.269
				c0.101-0.398,0.142-0.792,0.125-1.171c-0.017-0.38-0.092-0.746-0.221-1.092c-0.26-0.691-0.739-1.3-1.417-1.768
				c-2.036-2.056-6.987-3.245-66.155,13.357c-0.556-0.038-1.109-0.077-1.659-0.116c-5.883-0.361-10.401-0.62-14.614-0.691
				c35.276-61.73,35.719-67.753,33.244-70.516c-0.861-1.621-2.535-2.667-4.476-2.79c-0.11-0.004-0.22-0.008-0.329-0.012
				c-23.182,0.011-61.311,49.092-74.596,69.439c-0.523,0.772-1.031,1.541-1.543,2.311c-1.924-0.53-3.859-1.184-5.831-1.997
				c-1.007-0.415-2.007-0.865-2.975-1.335c-0.499-0.24-0.999-0.482-1.499-0.726c-7.16-3.498-16.644-8.339-23.926-19.476
				c-6.695-10.354-0.541-20.984,2.279-25.199c4.815-7.016,11.406-9.825,11.486-9.879c2.015-0.862,3.669-1.132,4.983-0.778
				c1.665,0.448,2.97,1.868,4.92,4.579c3.032,4.233,4.337,11.472,4.374,11.545c0.335,1.81,0.686,3.628,1.053,5.452
				c0.773-1.367,1.58-2.748,2.42-4.145c0.129-0.218,3.846-6.583,3.919-15.682c0.003-2.581-0.679-4.725-1.565-6.39
				c0.564-0.05,1.161-0.083,1.778-0.089c0.364-0.003,0.765,0.027,1.19,0.09c3.744,0.554,8.157,3.362,8.205,3.394
				c2.09,1.349,4.209,2.683,6.375,3.987c-0.873-2.837-1.691-5.668-2.468-8.477c-0.26-0.855-2.298-8.223-6.296-10.636
				c-0.192-0.119-0.378-0.232-0.555-0.344c0.289-0.17,0.58-0.341,0.872-0.513c6.937-4.103,11.152-6.502,11.154-6.487
				c2.261-1.243,4.577-2.55,6.95-3.921c-1.676-0.63-3.343-1.263-5.006-1.896c-0.126-0.061-3.268-1.182-7.934-1.043
				c-3.105,0.085-6.169,0.669-9.031,1.687c-1.212,0.432-2.354,0.811-3.414,1.144c1.527-1.692,3.061-3.647,4.332-5.757
				c3.391-5.638,5.159-10.485,3.974-12.589c-1.327-2.402-2.697-3.657-2.753-3.715c-1.4-1.302-2.855-2.568-4.384-3.807
				c-0.479,2.318-0.937,4.664-1.372,7.036c-0.162,0.88-0.836,3.656-1.913,5.771c-0.617,1.191-4.629,4.671-9.933,7.524
				c-0.827,0.443-1.645,0.879-2.45,1.306c-12.259,6.512-24.318,12.102-33.423,23.23c-5.614,6.805-9.974,16.321-11.984,26.191
				c-0.24,1.234-0.436,2.474-0.58,3.717c-0.072,0.621-0.131,1.243-0.177,1.866c-0.045,0.622-0.077,1.245-0.093,1.868
				c-0.017,0.624-0.019,1.247-0.005,1.87s0.043,1.246,0.09,1.868c0.093,1.246,0.253,2.49,0.487,3.732
				c0.927,4.968,3.085,9.901,6.712,14.754c8.132,10.715,24.292,20.9,41.213,28.561c0.18,0.076,0.359,0.15,0.539,0.226
				c-1.643,2.83-3.212,5.618-4.692,8.339c-12.978,3.737-22.575,6.549-25.902,7.532l-0.416,0.1c-0.271-0.228-0.443-0.366-0.443-0.366
				c-5.237-1.732-18.492-5.448-27.315-0.193c-16.502,9.874-29.448,13.321-34.239,14.318c-7.398-7.54-36.282-35.376-72.37-27.854
				c-22.362,4.726-40.471,24.912-45.049,48.969c0,0,0,0.002,0,0.004c-0.594,3.175-0.939,6.382-1.035,9.602
				c-0.096,3.219,0.059,6.451,0.464,9.674c0.811,6.444,2.625,12.857,5.463,19.04c7.438,16.265,20.709,28.701,37.604,34.673
				c16.427,5.839,34.567,5.08,48.134-1.605c24.809-12.224,31.573-33.761,33.314-45.596c0.287-1.914,0.486-3.816,0.598-5.674
				c3.534-2.781,13.87-8.257,39.081-8.236c7.917-0.019,15.305-4.791,18.302-6.99c0,0,0.041-0.125,0.106-0.335
				c0.32-0.061,0.642-0.122,0.962-0.184c0.375-0.061,0.835-0.136,1.348-0.222c-0.05,0.136-0.103,0.279-0.145,0.395
				c-0.201,0.169-0.625,4.614-0.626,4.613c1.114-0.242,2.228-0.484,3.342-0.729c-2.673,2.412-7.592,7.537-8.739,13.416
				c-4.558,23.313-13.101,33.936-18.833,37.629c-10.366-1.154-37.637-2.209-58.597,19.718
				c-17.793,18.913-22.527,56.551,4.136,75.442c7.371,5.247,15.858,8.139,24.827,9.229c2.241,0.271,4.511,0.428,6.798,0.476
				c2.287,0.048,4.59-0.013,6.898-0.177c4.615-0.327,9.248-1.068,13.792-2.184c18.199-4.423,34.847-15.044,43.322-28.421
				c21.672-34.312-7.251-65.458-7.073-65.662c-0.014,0.016,5.954-13.969,23.806-32.322c5.417-5.557,5.322-14.828,4.752-19.992
				c0.135,0.113,0.271,0.227,0.406,0.339c-0.008-0.05,1.972-3.253,1.963-3.3c1.583-2.762,6.082-10.674,12.067-21.373
				c9.387-2.992,19.412-6.544,29.781-10.802c7.275-2.892,17.636-7.42,28.674-12.84c4.093,2.556,7.073,5.21,8.745,7.652
				c14.182,16.609,3.659,45.973-0.953,69.152c-1.875,8.017-3.607,15.283-4.801,22.525c-1.599,9.77,0.222,19.436,6.465,29.048
				c7.757,11.961,19.641,18.833,23.609,19.694c2.424,0.595,4.778,1.138,7.048,1.63c-1.296-2.193-2.647-4.393-4.045-6.59
				c-0.021-0.095-6.242-9.832-10.601-18.813c3.529,2.005,7.521,2.441,8.026,2.477c3.024,0.265,5.968,0.446,8.808,0.553
				c-2.321-2.066-4.733-4.137-7.206-6.211c-0.879-0.74-2.368-2.182-3.049-3.173c1.261,0.419,2.677,0.765,4.232,0.957
				C415.441,380.049,420.91,378.641,421.13,378.568z M168.949,313.923c-2.068,13.415-14.005,22.488-28.065,21.507
				c-15.952-1.107-28.615-15.063-28.612-30.926c-0.003-1.681,0.134-3.353,0.409-4.968c2.327-13.554,13.711-22.568,27.417-21.423
				c15.501,1.312,28.729,15.22,29.16,30.89C169.301,310.666,169.198,312.321,168.949,313.923z M257.962,409.803
				c-4.286,15.84-23.086,26.345-40.894,23.674c-17.815-2.618-27.935-17.575-23.599-33.807c4.366-16.226,21.646-26.88,39.447-23.813
				C250.682,378.904,262.272,393.998,257.962,409.803z"/>
		</g>
	</g>
	
		<g id="&#x418;&#x437;&#x43E;&#x431;&#x440;&#x430;&#x436;&#x435;&#x43D;&#x438;&#x435;_xA0_51" style="display:none;opacity:0.502;">
		<g style="display:inline;">
			<path style="fill-rule:evenodd;clip-rule:evenodd;fill:#331F32;" d="M421.13,378.568c3.732-0.988,7.288-2.144,10.645-3.437
				c-3.311-1.008-6.904-2.04-10.696-3.137c0.089,0.084-15.391-4.796-16.237-15.209c-0.417-6.796,0.639-11.195,2.641-18.909
				c0.933-3.555,2.024-7.644,3.375-12.927c1.715-6.674,5.169-22.421,7.54-40.338c1.125-8.891,1.911-18.138,1.098-26.377
				c-0.206-2.061-0.517-4.061-0.956-5.982c-0.219-0.962-0.471-1.903-0.757-2.825s-0.607-1.822-0.966-2.702
				c-1.434-3.52-3.479-6.68-6.265-9.496c-7.974-7.625-30.459-8.223-49.247-9.56c-11.847-0.728-18.163-1.041-27.58-0.242
				c-4.607,0.301-9.786,0.645-15.479,0.394c-3.254-0.146-6.36-0.299-9.508-0.631c-5.246-0.554-10.281-1.591-15.577-3.776
				c-1.007-0.415-2.007-0.865-2.975-1.335c-0.499-0.24-0.999-0.482-1.499-0.726c-7.16-3.498-16.644-8.339-23.926-19.476
				c-6.695-10.354-0.541-20.984,2.279-25.199c4.815-7.016,11.406-9.825,11.486-9.879c2.015-0.862,3.669-1.132,4.983-0.778
				c1.665,0.448,2.97,1.868,4.92,4.579c3.032,4.233,4.337,11.472,4.374,11.545c0.335,1.81,0.686,3.628,1.053,5.452
				c0.773-1.367,1.58-2.748,2.42-4.145c0.129-0.218,3.846-6.583,3.919-15.682c0.003-2.581-0.679-4.725-1.565-6.39
				c0.564-0.05,1.161-0.083,1.778-0.089c0.364-0.003,0.765,0.027,1.19,0.09c3.744,0.554,8.157,3.362,8.205,3.394
				c2.09,1.349,4.209,2.683,6.375,3.987c-0.873-2.837-1.691-5.668-2.468-8.477c-0.26-0.855-2.298-8.223-6.296-10.636
				c-0.192-0.119-0.378-0.232-0.555-0.344c0.289-0.17,0.58-0.341,0.872-0.513c6.937-4.103,11.152-6.502,11.154-6.487
				c2.261-1.243,4.577-2.55,6.95-3.921c-1.676-0.63-3.343-1.263-5.006-1.896c-0.126-0.061-3.268-1.182-7.934-1.043
				c-3.105,0.085-6.169,0.669-9.031,1.687c-1.212,0.432-2.354,0.811-3.414,1.144c1.527-1.692,3.061-3.647,4.332-5.757
				c3.391-5.638,5.159-10.485,3.974-12.589c-1.327-2.402-2.697-3.657-2.753-3.715c-1.4-1.302-2.855-2.568-4.384-3.807
				c-0.479,2.318-0.937,4.664-1.372,7.036c-0.162,0.88-0.836,3.656-1.913,5.771c-0.617,1.191-4.629,4.671-9.933,7.524
				c-0.827,0.443-1.645,0.879-2.45,1.306c-12.259,6.512-24.318,12.102-33.423,23.23c-5.614,6.805-9.974,16.321-11.984,26.191
				c-0.24,1.234-0.436,2.474-0.58,3.717c-0.072,0.621-0.131,1.243-0.177,1.866c-0.045,0.622-0.077,1.245-0.093,1.868
				c-0.017,0.624-0.019,1.247-0.005,1.87s0.043,1.246,0.09,1.868c0.093,1.246,0.253,2.49,0.487,3.732
				c0.927,4.968,3.085,9.901,6.712,14.754c8.132,10.715,24.292,20.9,41.213,28.561c8.216,3.499,16.634,6.22,26.959,6.121
				c3.3-0.041,6.696,0.015,10.102,0.167c29.463,0.553,50.894,11.575,56.688,20.04c14.182,16.609,3.659,45.973-0.953,69.152
				c-1.875,8.017-3.607,15.283-4.801,22.525c-1.599,9.77,0.222,19.436,6.465,29.048c7.757,11.961,19.641,18.833,23.609,19.694
				c2.424,0.595,4.778,1.138,7.048,1.63c-1.296-2.193-2.647-4.393-4.045-6.59c-0.021-0.095-6.242-9.832-10.601-18.813
				c3.529,2.005,7.521,2.441,8.026,2.477c3.024,0.265,5.968,0.446,8.808,0.553c-2.321-2.066-4.733-4.137-7.206-6.211
				c-0.879-0.74-2.368-2.182-3.049-3.173c1.261,0.419,2.677,0.765,4.232,0.957C415.441,380.049,420.91,378.641,421.13,378.568z"/>
		</g>
	</g>
	<g id="&#x424;&#x438;&#x433;&#x443;&#x440;&#x430;_4">
		<g>
			<path style="fill-rule:evenodd;clip-rule:evenodd;fill:#F6B138;" d="M249.377,243.792c0,0-15.199-5.444-24.419,0.599
				c-21.197,13.893-35.963,16.861-35.963,16.861s-27.479-31.258-65.277-20.758c-29.368,8.158-52.856,45.284-35.708,78.503
				c15.685,30.384,52.36,35.912,73.787,23.611c24.983-14.344,29.245-39.39,29.882-48.892c4.592-4.593,16.472-10.52,39.987-11.533
				c8.227-0.354,16.53-7.655,16.53-7.655s34.066-4.906,80.108-25.239c41.267-18.225,76.213-38.917,79.123-51.421
				C410.336,185.364,249.377,243.792,249.377,243.792z M137.729,323.816c-16.611,0-30.078-13.466-30.078-30.077
				s13.466-30.078,30.078-30.078s30.077,13.467,30.077,30.078S154.341,323.816,137.729,323.816z"/>
		</g>
	</g>
	<g id="&#x417;&#x430;&#x43B;&#x438;&#x432;&#x43A;&#x430;_&#x446;&#x432;&#x435;&#x442;&#x43E;&#x43C;_11">
		<g>
			<path style="fill-rule:evenodd;clip-rule:evenodd;fill:#D67B28;" d="M165.412,259.069c-21.461-17.945-44.499-7.881-55.229,3.971
				c-10.73,11.853-10.276,33.556-3.729,28.857c4.547-11.276,5.847-23.873,27.135-27.612c23.361-4.104,31.58,18.367,33.914,25.643
				c2.334,7.274-4.092,20.643-4.092,20.643s11.721,2.744,15.917-15.949C182.242,281.641,177.277,268.99,165.412,259.069z
				 M124.518,321.012c-9.229-5.066-17.002-18.293-17.002-18.293s-9.831-8.048-12.513-0.501c-2.683,7.548,1.963,18.955,8.875,25.646
				c19.854,19.215,40.74-4.774,40.74-4.774S133.84,326.13,124.518,321.012z M191.814,278.166
				c-10.003,8.275-1.364,19.461-1.364,19.461s1.12-6.358,9.165-9.934c11.098-4.933,33.712-6.617,33.712-6.617
				S212.594,270.255,191.814,278.166z M237.025,263.211c-1.576,9.852,9.594,9.59,9.594,9.59l1.243-23.037
				C247.862,249.764,238.601,253.359,237.025,263.211z"/>
		</g>
	</g>
	<g id="&#x417;&#x430;&#x43B;&#x438;&#x432;&#x43A;&#x430;_&#x446;&#x432;&#x435;&#x442;&#x43E;&#x43C;_10">
		<g>
			<path style="fill-rule:evenodd;clip-rule:evenodd;fill:#FFF07F;" d="M225.5,243.244c-20.471,15.4-37.188,18.28-37.188,18.28
				s-27.283-31.3-62.633-21.483c-29.964,8.32-39.171,29.668-42.172,41.581c-2.592,12.73,7.085,13.014,11.276,1.568
				c4.479-12.231,14.168-23.95,26.258-29.146c14.755-6.34,29.841-5.086,41.715,3.209c12.425,8.679,20.31,22.859,30.254,15.721
				c14.975-10.748,27.61-15.247,42.354-19.011c7.002-1.787,12.894,0.396,12.894,0.396l1.663-11.523
				C249.923,242.837,233.458,237.258,225.5,243.244z M169.383,291.716c-4.941,9.336-5.363,26.763-21.151,31.063
				c-18.075,4.923-28.289-5.086-37.928-10.815c-8.336,0.546,8.821,29.828,40.376,20.098
				C183.234,322.023,175.038,281.031,169.383,291.716z"/>
		</g>
	</g>
	<g id="&#x424;&#x438;&#x433;&#x443;&#x440;&#x430;_4_&#x43A;&#x43E;&#x43F;&#x438;&#x44F;_3">
		<g>
			<path style="fill-rule:evenodd;clip-rule:evenodd;fill:#E0E3E6;" d="M249.377,243.792c0,0-0.45-0.157-1.191-0.38l-0.021,1.35
				l-0.485,29.1l-0.307,1.345c0.529-0.42,0.822-0.678,0.822-0.678s34.066-4.906,80.108-25.239
				c41.267-18.225,76.213-38.917,79.123-51.421C410.336,185.364,249.377,243.792,249.377,243.792z"/>
		</g>
	</g>
	<g id="&#x424;&#x438;&#x433;&#x443;&#x440;&#x430;_7">
		<g>
			<path style="fill-rule:evenodd;clip-rule:evenodd;fill:#BCAABB;" d="M257.865,253.007c0.97,7.518-3.395,19.885-3.395,19.885
				l20.855-38.8l-22.795,6.79C252.53,240.882,256.895,245.489,257.865,253.007z M364.469,220.317
				c-21.309,10.532-43.554,19.595-43.554,19.595l10.185-25.22l-7.76,0.484l-24.734,45.59c0,0,51.847-21.499,83.747-40.18
				c16.137-9.45,21.982-18.505,23.922-24.81C400.939,199.172,385.841,209.753,364.469,220.317z"/>
		</g>
	</g>
	<g id="&#x417;&#x430;&#x43B;&#x438;&#x432;&#x43A;&#x430;_&#x446;&#x432;&#x435;&#x442;&#x43E;&#x43C;_15" style="opacity:0.502;">
		<g>
			<path style="fill-rule:evenodd;clip-rule:evenodd;fill:#7B5475;" d="M365.777,230.697c0,0-6.717-8.215-17.107-12.09
				c-11.05-4.12-25.814-3.915-25.814-3.915l-13.823,7.274c0,0,17.56,3.478,26.324,9.255c7.052,4.647,5.687,11.843,5.687,11.843
				L365.777,230.697z"/>
		</g>
	</g>
	
		<g id="&#x417;&#x430;&#x43B;&#x438;&#x432;&#x43A;&#x430;_&#x446;&#x432;&#x435;&#x442;&#x43E;&#x43C;_7_&#x43A;&#x43E;&#x43F;&#x438;&#x44F;_3">
		<g>
			<path style="fill-rule:evenodd;clip-rule:evenodd;fill:#A998A7;" d="M408.303,192.354c-2.582-2.135-6.905-5.71-85.373,20.784
				c-34.057,11.498-67.651,23.838-74.368,26.315l-4.689,1.473l3.698,4.978l-0.468,25.314l-3.471,7.598l6.1-1.471
				c7.146-1.494,41.037-9.071,79.301-25.767c22.863-9.974,76.51-35.252,80.848-54.518l0.057-0.284
				C410.22,195.087,409.609,193.435,408.303,192.354z M326.123,244.913c-33.719,14.71-63.926,22.206-74.828,24.648l2.17-24.164
				c63.137-23.331,132.628-46.427,148.247-47.286C396.272,207.626,371.888,224.946,326.123,244.913z"/>
		</g>
	</g>
	
		<g id="&#x417;&#x430;&#x43B;&#x438;&#x432;&#x43A;&#x430;_&#x446;&#x432;&#x435;&#x442;&#x43E;&#x43C;_7_&#x43A;&#x43E;&#x43F;&#x438;&#x44F;">
		<g>
			<path style="fill-rule:evenodd;clip-rule:evenodd;fill:#A35C1B;" d="M137.085,260.341c-16.412,0.117-30.294,11.933-33.009,28.093
				c0,0.001,0,0,0,0.001c-0.323,1.925-0.479,3.896-0.466,5.861c0.133,18.59,15.366,33.606,33.956,33.474
				c16.412-0.118,30.293-11.933,33.007-28.094c0.323-1.924,0.479-3.896,0.466-5.861c-0.065-9.006-3.632-17.446-10.045-23.769
				C154.582,263.724,146.091,260.277,137.085,260.341z M163.4,298.471c-2.128,12.669-13.015,21.932-25.885,22.024
				c-14.58,0.104-26.524-11.673-26.628-26.251c-0.011-1.546,0.111-3.095,0.364-4.604c2.128-12.669,13.014-21.932,25.886-22.023
				c14.578-0.104,26.523,11.671,26.627,26.25C163.775,295.412,163.653,296.961,163.4,298.471z M253.211,245.391
				c-0.273-2.092-5.443-6.134-5.443-6.134c-4.823-1.329-17.08-3.859-25.585,1.8c-15.904,10.587-28.152,14.775-32.679,16.086
				c-6.589-6.57-32.822-29.65-67.569-19.729c-21.485,6.134-39.161,26.318-42.985,49.082c0,0,0,0.002,0,0.004
				c-2.011,11.98-0.069,24.033,5.618,34.859c7.472,14.223,20.106,24.501,35.577,28.939c15.063,4.322,31.299,2.675,43.431-4.406
				c22.14-12.923,28.634-33.827,30.534-45.139c0.308-1.831,0.537-3.644,0.688-5.407c3.342-2.801,13.082-8.705,36.562-9.885
				c7.37-0.369,14.456-5.296,17.353-7.567c0,0,2.22-6.424,2.583-8.333C251.659,267.651,253.484,247.481,253.211,245.391z
				 M243.722,272.552c-2.505,1.897-7.753,5.396-12.728,5.646c-28.106,1.411-38.954,9.489-42.313,12.896l-0.959,0.973l-0.081,1.364
				c-0.118,1.966-0.356,4.024-0.708,6.118c-1.689,10.056-7.446,28.633-27.027,40.061c-10.45,6.101-24.566,7.481-37.757,3.697
				c-13.543-3.886-24.602-12.882-31.141-25.331c-4.941-9.405-6.63-19.873-4.884-30.271c3.375-20.1,18.923-37.902,37.808-43.295
				c35.121-10.027,61.449,18.921,61.711,19.215l1.399,1.568l2.059-0.429c0.63-0.132,15.678-3.383,37.113-17.65
				c5.639-3.752,15.251-2.104,19.861-0.781L243.722,272.552z"/>
		</g>
	</g>
	<g id="&#x424;&#x438;&#x433;&#x443;&#x440;&#x430;_6">
		<g>
			<path style="fill-rule:evenodd;clip-rule:evenodd;fill:#F45137;" d="M410.836,249.357c-4.498-18.047-21.811-35.595-40.065-43.772
				c-17.884-8.013-25.091-7.989-55.19-6.171c-15.887,0.96-33.18,4.063-52.326,3.323c-14.999-0.58-35.342-0.403-49.91-13.91
				c-11.862-10.999-5.901-27.925,3.169-40.792c7.927-11.245,18.309-18.195,21.012-19.703c6.957-3.88,11.932-6.479,19.053-1.613
				c7.422,5.072,15.314,18.005,15.314,18.005s5.765-8.695,3.014-18.324c-1.901-6.654-11.707-9.192-11.707-9.192
				s4.786-2.057,11.162-2.854c7.158-0.895,15.998-0.541,15.998-0.541s-4.539-5.08-11.095-7.44c-5.47-1.97-9.89-3.372-9.89-3.372
				s2.224,0.306,9.206-4.165c8.643-5.535,13.325-8.029,13.325-8.029s-11.557-2.86-22.162,0.343
				c-12.516,3.781-21.579,10.054-21.579,10.054s6.358-4.942,15.426-20.102c2.933-4.902,0.75-10.703-1.354-12.736
				c-3.302-3.19-6.479-4.977-6.479-4.977s1.984,4.981,1.589,9.104c-0.347,3.603-5.639,9.118-11.535,13.28
				c-15.17,10.709-34.446,23.617-50.259,44.201c-17.844,23.226-24.507,56.479-4.445,76.268
				c16.34,16.117,55.021,21.716,114.226,12.852c58.193-8.713,77.413,25.632,82.738,47.124
				c10.902,43.996-33.147,75.363-56.034,107.191c-22.099,30.733,8.041,53.381,8.041,53.381s-2.967-11.982-3.674-25.642
				c-0.293-5.651,2.938-10.885,2.938-10.885s0.501,6.983,2.96,11.125c2.123,3.577,6.255,4.395,6.255,4.395s-0.931-4.702-1.575-9.206
				c-0.563-3.946,1.211-8.436,1.211-8.436s4.046,7.707,10.379,11.649c9.526,5.929,14.447,5.386,14.447,5.386
				s-18.571-6.761-13.4-27.54c2.567-10.319,11.598-15.035,23.768-28.811C398.545,331.667,422.035,294.288,410.836,249.357z"/>
		</g>
	</g>
	<g id="&#x417;&#x430;&#x43B;&#x438;&#x432;&#x43A;&#x430;_&#x446;&#x432;&#x435;&#x442;&#x43E;&#x43C;_13">
		<g>
			<path style="fill-rule:evenodd;clip-rule:evenodd;fill:#7E2C2C;" d="M389.494,244.979c-6.082-11.072-18.533-14.813-18.533-14.813
				s20.33,24.644,19.588,44.884c-1.029,28.067-17.497,48.918-17.497,48.918s5.317-3.257,10.895-9.921
				c1.913-1.663,3.653-3.122,4.433-3.633c2.861-1.874,9.928-4.058,9.928-4.058l-7.595-2.488c2.145-4.173,3.939-9.001,4.953-14.517
				C399.025,271.071,394.63,254.327,389.494,244.979z M411.774,248.259c-0.441-1.381-0.987-2.888-1.626-4.474
				c0,0,0.006,0.007,0.006,0.007s-0.006-0.013-0.019-0.037c-2.778-6.892-7.307-15.265-12.605-21.235
				c-7.725-8.705-16.566-13.192-16.566-13.192l-0.48,0.069c-11.447-7.384-29.718-14.244-58.367-11.388
				c-46.799,4.666-86.683,8.853-106.248-7.153c-23.725-19.408,7.865-53.642,7.865-53.642s-25.756,12.013-25.714,35.153
				c0.041,22.563,16.984,40.461,44.083,48.235c25.763,2.857,42.468,1.41,67.339-3.318c7.389-1.405,12.836-2.173,22.053-0.636
				c10.172,1.696,22.784,5.157,22.784,5.157s2.191-7.481,14.277-5.793c8.289,4.217,20.974,11.297,26.597,17.695
				c12.927,14.709,11.922,39.17,11.568,47.042c-0.682,15.188-7.082,29.104-9.797,34.37c-20.686,40.127-24.6,44.586-24.6,44.586
				s34.006-33.191,40.289-69.349C414.963,276.835,415.551,260.082,411.774,248.259z M360.976,369.795c0,0-12.458,1.315-18.905,8.737
				c-6.054,6.968-6.121,20.071-6.121,20.071l11.641,4.947l2.328-7.275l12.804,2.037c0,0-3.821-5.804-4.249-12.793
				C358.028,378.255,360.976,369.795,360.976,369.795z M372.451,333.963c-3.767-0.058-7.983,0.476-7.983,0.476l-23.28,28.081
				c0,0,21.351-20.941,26.443-22.997c5.092-2.055,19.28-6.339,19.28-6.339S377.844,334.046,372.451,333.963z M328.597,381.627
				c0,0,17.314-17.615,21.187-18.187c3.871-0.571,14.228-8.445,14.228-8.445s-10.455,0.794-16.73,4.831
				C337.885,365.87,328.597,381.627,328.597,381.627z M323.687,388.044l2.286,14.966c0,0,2.357-10.133,5.385-13.628
				c3.026-3.494,10.205-10.691,10.205-10.691C338.77,378.158,323.687,388.044,323.687,388.044z M186.724,175.904
				c-3.412-0.152-6.458-2.783-6.458-2.783c-1.429,17.031,6.859,24.942,6.859,24.942s-2.349-13.765-1.803-15.843
				c0.545-2.079,8.871-8.477,8.871-8.477S190.273,176.063,186.724,175.904z M189.785,151.105c1.455-3.521,13.344-5.838,13.344-5.838
				s-5.333,0.107-9.291-1.41c-3.383-1.297-5.48-4.254-5.48-4.254l-7.886,22.085C180.473,161.688,188.33,154.626,189.785,151.105z
				 M206.806,129.722c6.015,0.845,14.823-6.486,14.823-6.486s-6.718,2.692-11.849,2.539c-5.26-0.158-8.937-3.163-8.937-3.163
				l-9.25,13.822C191.594,136.434,202.663,129.141,206.806,129.722z M243.87,101.826c0,0-7.258,4.608-15.082,6.873
				c-7.972,2.308-16.512,2.272-16.512,2.272l-4.157,6.859c0,0,7.77-0.19,15.262-3.545
				C233.393,109.804,243.87,101.826,243.87,101.826z M251.976,80.832l-34.296,27.229C242.492,100.826,251.976,80.832,251.976,80.832
				z M270.834,104.741l15.022-14.971c0,0-7.865-1.922-14.511-0.26c-10.078,2.52-27.359,13.271-27.359,13.271
				C258.004,100.015,270.834,104.741,270.834,104.741z M257.368,108.175c-12.839,1.633-22.021,7.785-22.021,7.785
				s9.713-0.659,17.628,0.165c6.993,0.729,12.304,2.953,12.304,2.953l1.039-4.365l18.912-3.653
				C285.23,111.06,268.02,106.819,257.368,108.175z"/>
		</g>
	</g>
	<g id="&#x417;&#x430;&#x43B;&#x438;&#x432;&#x43A;&#x430;_&#x446;&#x432;&#x435;&#x442;&#x43E;&#x43C;_14" style="opacity:0.502;">
		<g>
			<path style="fill-rule:evenodd;clip-rule:evenodd;fill:#FFF07F;" d="M192.827,159.369c0.364-1.382,0.76-2.772,1.19-4.166
				c0.399-1.411,0.91-2.79,1.428-4.185l0.003-0.009c0.028-0.077,0.014-0.166-0.046-0.23c-0.083-0.09-0.225-0.095-0.315-0.011
				c-1.125,1.046-2.059,2.235-3.011,3.436c-0.915,1.223-1.745,2.509-2.486,3.854c-0.743,1.348-1.798,2.634-1.918,4.212
				c-0.089,0.775-0.097,1.568,0.034,2.383c0.118,0.811,0.333,1.636,0.821,2.483c0.008,0.014,0.018,0.028,0.028,0.041
				c0.1,0.118,0.278,0.134,0.396,0.034l0.005-0.005c1.436-1.207,2.236-2.441,2.904-3.712
				C192.567,162.248,192.465,160.747,192.827,159.369z M197.892,193.861c-0.629-1.297-1.894-2.087-2.671-3.223
				c-0.778-1.157-1.47-2.442-2.082-3.798c-0.646-1.351-1.137-2.793-1.588-4.267l-0.003-0.011c-0.025-0.079-0.092-0.142-0.18-0.154
				c-0.122-0.019-0.235,0.064-0.253,0.187c-0.24,1.583-0.197,3.17-0.09,4.788c0.151,1.609,0.486,3.228,1.071,4.815
				c0.601,1.604,1.111,3.333,2.407,4.415c0.62,0.556,1.306,1.035,2.083,1.402c0.768,0.376,1.603,0.667,2.603,0.735
				c0.019,0.001,0.04,0,0.06-0.002c0.151-0.023,0.256-0.164,0.233-0.315l-0.001-0.008
				C199.198,196.526,198.57,195.149,197.892,193.861z M219.657,128.371c-2.044-0.367-3.775-0.115-5.442,0.299
				c-1.672,0.371-3.023,1.591-4.483,2.386c-1.466,0.788-2.96,1.552-4.483,2.284c-1.513,0.767-3.083,1.424-4.676,2.061l-0.008,0.003
				c-0.08,0.032-0.137,0.109-0.139,0.201c-0.003,0.122,0.094,0.224,0.217,0.227c1.765,0.041,3.496-0.182,5.244-0.403
				c1.737-0.266,3.458-0.646,5.152-1.134c1.694-0.498,3.471-0.635,4.925-1.624c0.734-0.464,1.44-0.994,2.092-1.636
				c0.658-0.629,1.279-1.337,1.788-2.27c0.014-0.023,0.024-0.053,0.029-0.081C219.9,128.537,219.803,128.397,219.657,128.371z
				 M262.444,102.927c-1.227-0.299-2.459-0.45-3.688-0.51c-2.47-0.181-4.853,0.615-7.242,1.1c-2.435,0.49-4.826,1.187-7.117,2.12
				c-2.269,0.984-4.499,2.06-6.422,3.623c-0.073,0.061-0.102,0.162-0.064,0.254c0.047,0.112,0.175,0.165,0.286,0.119l0.017-0.008
				c2.185-0.905,4.486-1.511,6.795-1.894c2.305-0.407,4.626-0.642,6.939-0.75c2.361-0.106,4.748,0.25,7.056-0.206
				c3.051-0.545,4.141-0.742,7.038-2.049l0.007-0.003c0.045-0.02,0.083-0.053,0.11-0.099c0.067-0.116,0.028-0.266-0.088-0.333
				C264.892,103.601,263.669,103.212,262.444,102.927z M238.504,99.777c2.368-1.423,4.595-3.041,6.823-4.684
				c2.198-1.677,4.326-3.46,6.346-5.39c2.011-1.894,4.284-3.809,5.628-6.303c0.701-1.231,1.304-2.522,1.755-3.884
				c0.461-1.355,0.813-2.763,0.859-4.282c0.001-0.056-0.018-0.112-0.055-0.158c-0.084-0.102-0.234-0.116-0.336-0.032l-0.005,0.005
				c-2.271,1.872-4.057,3.851-5.797,5.853c-1.778,1.979-2.922,4.331-4.621,6.438c-1.67,2.087-3.438,4.129-5.252,6.146
				c-1.793,2.042-3.698,3.991-5.613,5.945c-0.068,0.07-0.086,0.183-0.034,0.271C238.265,99.806,238.4,99.84,238.504,99.777z
				 M372.753,221.054c0-3.136-4.675-4.203-8.67-4.386c-0.065-0.003-1.333,0-2.152,0.537
				C361.473,217.505,372.753,224.197,372.753,221.054z M381.339,228.141c1.101,1.201,2.167,2.409,3.179,3.631
				c1.009,1.22,1.662,2.766,2.929,3.731c1.243,1.009,2.583,1.919,4.47,2.581l0.01,0.003c0.024,0.008,0.049,0.013,0.074,0.015
				c0.148,0.008,0.274-0.105,0.283-0.254c0.06-1.046-0.135-1.957-0.414-2.813c-0.27-0.864-0.659-1.649-1.116-2.382
				c-0.874-1.513-2.466-2.359-3.821-3.405c-1.353-1.044-2.771-1.977-4.234-2.815c-1.487-0.805-2.955-1.604-4.529-2.223
				c-0.08-0.029-0.178-0.013-0.242,0.052c-0.085,0.088-0.082,0.229,0.006,0.314C379.094,225.76,380.262,226.912,381.339,228.141z
				 M398.018,256.474c0.21,1.772-0.066,3.615,0.45,5.33c0.48,1.741,1.076,3.469,2.257,5.302l0.006,0.007
				c0.017,0.027,0.041,0.053,0.07,0.072c0.118,0.081,0.28,0.052,0.361-0.068c0.64-0.935,0.994-1.902,1.243-2.873
				c0.263-0.973,0.378-1.952,0.4-2.925c0.104-1.969-0.778-3.79-1.387-5.635c-0.603-1.809-1.314-3.58-2.134-5.301
				c-0.865-1.704-1.722-3.396-2.854-4.946c-0.053-0.071-0.145-0.106-0.234-0.082c-0.118,0.031-0.188,0.151-0.157,0.27l0.003,0.012
				c0.475,1.793,0.881,3.598,1.165,5.416C397.521,252.862,397.79,254.67,398.018,256.474z M401.434,276.059
				c-0.021-0.09-0.096-0.165-0.191-0.175c-0.121-0.015-0.23,0.073-0.243,0.194c-0.269,2.055-0.517,4.098-0.896,6.11
				c-0.346,2.01-0.731,3.999-1.211,5.92c-0.244,0.971-0.601,1.882-0.973,2.779c-0.365,0.908-0.64,1.833-0.823,2.801
				c-0.338,1.951-0.61,3.943-0.438,6.286v0.009c0.002,0.04,0.016,0.079,0.038,0.115c0.075,0.118,0.23,0.153,0.348,0.078
				c1.032-0.652,1.813-1.468,2.494-2.339c0.693-0.867,1.249-1.811,1.709-2.795c0.455-0.987,0.749-2.041,0.871-3.132
				c0.116-1.099,0.158-2.208,0.225-3.27c0.146-2.146,0.103-4.261-0.06-6.358C402.078,280.188,401.864,278.113,401.434,276.059z
				 M392.432,309.62c-1.601,1.379-3.087,2.861-4.606,4.326c-1.485,1.489-2.933,3.039-4.304,4.637
				c-1.364,1.569-3.052,2.899-4.026,4.756c-0.513,0.909-0.974,1.859-1.34,2.88c-0.381,1.012-0.695,2.074-0.824,3.279
				c-0.004,0.04,0,0.082,0.016,0.122c0.053,0.131,0.2,0.195,0.331,0.143c1.128-0.451,2.064-1.051,2.933-1.702
				c0.881-0.645,1.664-1.361,2.39-2.122c1.504-1.484,2.278-3.51,3.351-5.31l6.417-10.728c0.047-0.08,0.041-0.185-0.022-0.259
				C392.664,309.55,392.524,309.54,392.432,309.62z M374.806,337.465c-1.554,0.49-3.018,1.168-4.5,1.876
				c-1.458,0.744-2.873,1.601-4.214,2.667c-1.262,1.025-2.716,1.622-3.641,2.902c-0.946,1.243-1.793,2.601-2.268,4.509
				c-0.006,0.021-0.009,0.046-0.009,0.068c0,0.153,0.124,0.277,0.275,0.275c1.015-0.001,1.879-0.218,2.688-0.507
				c0.818-0.28,1.556-0.665,2.243-1.111c1.413-0.834,2.224-2.43,3.168-3.656c0.903-1.146,1.947-2.274,3.039-3.382
				c1.072-1.137,2.252-2.184,3.432-3.261c0.063-0.057,0.094-0.15,0.066-0.235C375.049,337.493,374.924,337.428,374.806,337.465z
				 M357.872,361.636C356.557,362.549,357.671,361.776,357.872,361.636L357.872,361.636z M354.122,362.25
				c-2.402,0.773-4.552,1.588-6.621,3.038c-3.526,2.471-4.808,3.478-8.167,7.686c-0.65,0.814,7.518-3.154,8.224-3.816
				c3.088-2.894,6.868-5.13,10.334-7.535c-0.005,0.003-0.013,0.009-0.02,0.014c0.012-0.008,0.02-0.014,0.032-0.022
				C358.829,360.963,354.089,362.261,354.122,362.25z M332.137,394.995c-0.178-1.774-0.197-3.576-0.184-5.391v-0.009
				c0-0.088-0.051-0.17-0.138-0.205c-0.112-0.048-0.241,0.007-0.288,0.12c-0.708,1.724-1.154,3.519-1.568,5.347
				c-0.371,1.829-0.595,3.715-0.63,5.611c-0.038,1.884-0.361,3.824,0.271,5.606c0.285,0.893,0.65,1.767,1.145,2.604
				c0.48,0.84,1.053,1.654,1.875,2.393c0.024,0.021,0.053,0.04,0.086,0.052c0.137,0.05,0.288-0.021,0.338-0.156
				c0.752-2.021,0.873-3.838,0.861-5.62c0.031-1.777-0.779-3.42-1.093-5.138C332.498,398.504,332.28,396.771,332.137,394.995z"/>
		</g>
	</g>
	<g id="&#x417;&#x430;&#x43B;&#x438;&#x432;&#x43A;&#x430;_&#x446;&#x432;&#x435;&#x442;&#x43E;&#x43C;_9">
		<g>
			<path style="fill-rule:evenodd;clip-rule:evenodd;fill:#5B1F16;" d="M376.574,360.739c2.839-2.958,6.058-6.31,9.894-10.652
				c9.855-11.155,41.02-51.534,28.252-102.755c-4.519-18.126-21.835-37.131-42.108-46.213c-12.792-5.73-20.617-7.479-33.488-7.479
				c-6.404,0-14.063,0.433-23.408,0.997c-5.342,0.322-10.726,0.873-16.428,1.455c-9.498,0.971-19.32,1.974-29.707,1.975
				c-1.975,0-3.937-0.038-5.832-0.111l-2.938-0.105c-14.253-0.494-31.992-1.108-44.64-12.836
				c-11.858-10.996-1.385-28.859,3.669-36.029c8.538-12.112,19.728-18.575,19.84-18.639c3.429-1.954,6.258-2.905,8.651-2.905
				c3.026,0,5.667,1.426,9.776,4.234c6.445,4.403,10.325,13.021,10.361,13.103l2.853,6.477l3.605-6.089
				c0.225-0.378,5.454-9.395,2.31-20.403c-0.899-3.144-2.828-5.617-4.906-7.487c0.896-0.177,1.846-0.334,2.836-0.459
				c0.584-0.072,1.238-0.109,1.944-0.109c6.226,0,14.271,2.764,14.35,2.791l11.427,3.959l-7.344-9.604
				c-0.73-0.954-7.342-9.401-14.693-12.048c-0.353-0.128-0.692-0.251-1.018-0.371l1.064-0.682c8.385-5.37,13.027-7.858,13.074-7.882
				l7.792-4.16l-8.46-2.534c-0.222-0.066-5.501-1.625-12.232-1.625c-4.488,0-8.607,0.688-12.244,2.044
				c-1.539,0.574-3.014,1.102-4.404,1.582c1.35-2.245,2.491-4.765,3.076-7.445c1.561-7.151,0.672-13.181-2.381-16.129
				c-3.455-3.34-6.129-5.257-6.24-5.337l-8.233-5.875l2.605,9.773c0.323,1.213,1.103,4.987,0.831,7.834
				c-0.156,1.614-3.721,6.216-10.012,10.656l-2.937,2.067c-14.686,10.325-32.963,23.175-48.109,42.89
				c-18.489,24.066-25.839,59.643-4.114,81.074c12.172,12.006,34.46,18.095,66.243,18.095c15.117,0,32.301-1.425,51.075-4.237
				c5.97-0.894,11.728-1.347,17.115-1.347c45.325,0,58.146,31.994,61.555,45.75c7.761,31.319-14.299,56.223-35.632,80.309
				c-7.245,8.18-14.088,15.905-19.824,23.884c-7.78,10.818-10.465,22.251-7.983,33.982c3.071,14.511,13.215,24.737,17.371,27.174
				l7.422,4.353l-2.05-8.354c-0.034-0.14-2.999-12.372-3.228-23.242c2.911,3.287,7.209,5.302,7.771,5.558l9.9,4.487l-5.206-9.543
				c-0.618-1.134-1.543-3.235-1.78-4.533c1.196,0.964,2.613,1.933,4.281,2.841c6.362,3.464,13.601,5.258,13.906,5.333l14.858,3.632
				l-11.636-9.936c-0.152-0.129-15.074-13.046-9.822-23.806C366.676,371.053,370.401,367.171,376.574,360.739z M390.531,328.967
				c-2.647,1.071-5.355,2.122-8.025,2.945c-2.59,0.75-5.432,1.118-8.313,1.247c-1.374,0.058-2.766,0.066-4.178,0.036
				c7.241-9.049,13.795-18.609,18.175-28.857c1.036,0.905,2.193,1.683,3.446,2.307c2.077,1.012,4.45,1.617,6.92,1.564
				c1.923-0.069,3.725-0.469,5.38-1.26c-2.896,7.796-6.44,14.702-9.959,20.528C392.825,327.996,391.682,328.491,390.531,328.967z
				 M405.657,301.958c-0.656,0.256-1.306,0.494-1.95,0.712c-1.771,0.55-3.651,1.112-5.399,1.306
				c-1.815,0.19-3.741,0.084-5.734-0.225c-1.247-0.188-2.517-0.448-3.82-0.754c3.646-8.974,5.583-18.476,4.833-28.621
				c1.341,0.457,2.755,0.743,4.194,0.869c2.832,0.233,5.784-0.242,8.524-1.625l0.434-0.229l0.279-0.157l0.263-0.158
				c0.358-0.205,0.673-0.461,0.988-0.705c0.631-0.496,1.169-1.061,1.65-1.648c0.188-0.225,0.356-0.458,0.524-0.691
				C410.665,281.633,408.707,292.38,405.657,301.958z M235.057,202.438c0.309,0.308,0.618,0.615,0.918,0.924
				c1.617,1.688,3.093,3.286,4.422,5.338c1.311,1.981,2.429,4.091,3.263,6.362c0.373,1.031,0.694,2.095,0.955,3.189
				c-20.579-1.026-36.313-5.154-46.228-12.125c0.84,0.231,1.713,0.376,2.608,0.434c1.601,0.09,3.311-0.146,4.922-0.909
				c1.615-0.753,3.034-2.074,3.955-3.669l0.347-0.653l0.243-0.52c0.214-0.468,0.315-0.799,0.461-1.21
				c0.267-0.785,0.466-1.586,0.611-2.392c0.392-2.178,0.399-4.357,0.127-6.47C218.65,197.052,226.832,200.503,235.057,202.438z
				 M205.563,160.46c-1.463,1.873-2.853,3.65-4.321,5.307c-1.945,2.203-4.004,4.203-6.277,5.673
				c-2.488,1.536-5.065,2.675-7.744,2.673c-1.477,0.027-2.979-0.427-4.38-1.243c0.227-9.705,3.172-19.846,7.94-29.154
				c0.938,1.105,2.301,1.865,3.65,2.428c1.732,0.653,3.57,1.001,5.392,1.072c1.801,0.102,3.68-0.072,5.392-0.337
				c1.882-0.309,3.632-0.888,5.291-1.579c1.694-0.715,3.301-1.554,4.839-2.482c-0.492,0.646-0.976,1.305-1.449,1.977
				C210.075,150.212,207.301,155.469,205.563,160.46z M271.369,93.411c2.82-1.052,6.084-1.586,9.701-1.586
				c0.115,0,0.23,0.001,0.344,0.002c-1.34,0.83-2.822,1.762-4.441,2.798l-11.686,7.484c-2.063-1.156-4.367-1.823-6.692-2.306
				c-1.214-0.22-2.442-0.387-3.679-0.49c-0.682-0.042-1.365-0.062-2.049-0.069l1.518-0.381
				C254.68,98.789,261.752,96.999,271.369,93.411z M245.315,89.674l2.949-2.075c2.646-1.869,10.794-8.022,12.692-14.14
				c0.063,1.513-0.07,3.443-0.566,5.722c-1.543,7.072-9.102,13.263-9.172,13.319l-11.033,8.876
				c-1.171,0.413-2.322,0.879-3.448,1.394c-4.298,2.088-8.497,3.925-12.889,5.62c-1.81,0.675-3.637,1.313-5.483,1.915
				C227.641,102.111,237.062,95.477,245.315,89.674z M215.621,112.778c3.081-0.107,6.161-0.609,9.164-1.276
				c4.744-1.045,9.411-2.786,13.729-4.776c4.17-1.834,8.526-3.148,13.032-3.948c4.398-0.723,8.922-1.018,13.604-0.58l-0.551,0.353
				l5.729,2.863c0.098,0.049,2.451,1.217,8.061,3.235c0.658,0.237,1.331,0.563,2.006,0.955c-2.138-0.209-4.305-0.234-6.129-0.006
				c-6.809,0.852-11.932,3.028-12.146,3.121l-6.915,2.981c-1.402-0.661-2.878-1.189-4.391-1.587
				c-2.44-0.632-4.988-0.936-7.545-0.885c-5.125,0.063-10.239,1.549-14.771,3.973c-4.271,2.146-8.548,4.088-12.988,5.493
				c-2.216,0.715-4.472,1.278-6.788,1.63c-1.529,0.199-3.084,0.354-4.673,0.315C207.786,120.346,211.678,116.413,215.621,112.778z
				 M198.792,131.043c1.476-1.92,2.992-3.759,4.529-5.552c1.677,0.825,3.576,1.252,5.437,1.446c2.58,0.273,5.193,0.076,7.719-0.406
				c5.058-1.012,9.771-3.169,13.988-5.873c3.958-2.425,8.349-4.136,13.001-4.797c3.497-0.468,7.136-0.437,10.717,0.278l-0.351,0.151
				l8.453,3.18c1.83,0.688,6.827,3.341,7.956,7.291c0.796,2.784,0.841,5.422,0.563,7.673c-2.127-2.997-5.012-6.318-8.594-8.766
				c-4.242-2.899-8.497-5.502-13.879-5.502c-3.741,0-7.635,1.227-12.255,3.859c-2.829,1.612-8.136,5.362-13.581,10.721
				c-1.59,0.771-3.152,1.555-4.714,2.32c-3.001,1.497-5.972,2.983-8.943,4.209c-1.485,0.606-2.969,1.147-4.431,1.494
				c-1.625,0.407-3.126,0.718-4.728,0.954c-1.575,0.209-3.169,0.383-4.759,0.275c-1.297-0.061-2.607-0.26-3.881-0.774
				C193.27,138.942,195.878,134.836,198.792,131.043z M182.834,175.06c1.126,0.938,2.478,1.656,4.007,1.983
				c3.625,0.784,7.264-0.396,10.167-1.939c2.729-1.423,4.909-3.524,6.542-5.915c-0.651,6.335,0.661,12.046,3.95,16.859
				c0.042,0.745,0.08,1.484,0.107,2.219c0.092,2.831,0.066,5.587-0.355,8.198c-0.233,1.314-0.494,2.582-0.955,3.666
				c-0.45,1.022-1.111,1.953-2.054,2.695c-1.73,1.38-4.269,2.117-6.989,2.474c-1.169-0.889-2.249-1.821-3.237-2.795
				C186.402,194.993,183.036,185.33,182.834,175.06z M246.351,218.327c0.149-1.279,0.142-2.589,0.011-3.875
				c-0.286-2.728-1.179-5.394-2.466-7.817c-0.309-0.591-0.705-1.273-1.036-1.774l-0.574-0.881c-0.05-0.075-0.109-0.143-0.162-0.215
				c6.53,0.942,12.873,1.164,18.435,1.356l2.908,0.105c1.988,0.077,4.045,0.116,6.113,0.116c0.151,0,0.299-0.005,0.449-0.005
				c2.019,0.908,4.026,1.755,5.658,2.749c0.42,0.25,0.802,0.514,1.126,0.779c0.081,0.064,0.163,0.129,0.234,0.194l0.056,0.049
				l0.014,0.013c-0.009-0.013,0.03,0.035-0.019-0.025l0.009,0.01l0.037,0.041l0.151,0.165l0.546,0.6
				c0.684,0.764,1.309,1.616,1.836,2.509c0.81,1.403,1.417,3,1.543,4.816c-9.252,0.834-17.98,1.269-26.069,1.269
				C252.128,218.505,249.197,218.443,246.351,218.327z M305.15,214.348c-7.95,1.191-15.581,2.112-22.898,2.793
				c0.766-1.763,0.837-3.917,0.324-5.846c-0.33-1.319-0.893-2.547-1.613-3.693c-0.191-0.311-0.375-0.585-0.54-0.81l-0.129-0.182
				l-0.192-0.251c-0.121-0.158-0.248-0.305-0.377-0.45c-0.275-0.298-0.563-0.565-0.855-0.813c7.313-0.36,14.321-1.068,21.158-1.767
				c3.047-0.311,5.998-0.609,8.892-0.871c1.896,0.963,3.696,1.959,5.23,3.109c0.79,0.604,1.455,1.179,2.113,1.924
				c0.522,0.585,1.073,1.359,1.449,2.16c0.46,0.97,0.741,2.114,0.884,3.38C314.265,213.222,309.765,213.657,305.15,214.348z
				 M320.655,212.976c0.51-1.297,0.704-2.765,0.481-4.255c-0.214-1.399-0.745-2.677-1.609-3.892
				c-0.737-1.055-1.769-2.028-2.812-2.769c-0.088-0.063-0.18-0.118-0.269-0.179c8.781-0.529,16.554-0.966,22.676-0.966
				c2.706,0,5.145,0.086,7.449,0.273c0.722,0.709,1.419,1.415,2.081,2.136c1.602,1.715,3.012,3.477,4.242,5.394
				c1.023,1.687,1.744,3.913,2.151,6.22c0.238,1.343,0.404,2.736,0.528,4.173c-8.644-3.798-19.231-6.19-32.233-6.19
				C322.46,212.921,321.554,212.954,320.655,212.976z M357.069,219.792c0.61-1.576,0.981-3.257,1.13-4.981
				c0.204-2.721-0.151-5.572-1.612-8.304c-0.912-1.667-2.128-3.167-3.536-4.433c5.12,1.012,10.104,2.78,16.585,5.684
				c1.82,0.815,3.612,1.72,5.37,2.699c0.134,0.761,0.254,1.514,0.336,2.256c0.268,2.253,0.274,4.322-0.124,6.45
				c-0.395,2.053-1.19,4.293-2.064,6.502l-1.523,3.73C367.572,225.768,362.763,222.471,357.069,219.792z M372.898,230.55
				c1.104-1.009,2.115-2.12,3.021-3.321c1.549-2.095,2.836-4.408,3.524-7.193c0.577-2.272,0.49-4.755-0.136-6.988
				c7.359,4.778,13.909,10.855,18.945,17.464c-0.302,1.076-0.632,2.108-1.012,3.108c-0.402,1.084-0.857,2.124-1.365,3.134
				c-0.239,0.485-0.543,1.048-0.774,1.448c-0.361,0.615-0.556,0.932-0.905,1.398c-1.283,1.779-2.969,3.419-4.81,4.995
				c-1.18,1.003-2.436,1.99-3.724,2.983C382.686,241.892,378.564,235.913,372.898,230.55z M386.339,248.919
				c1.641-0.348,3.237-0.915,4.771-1.643c2.417-1.166,4.715-2.798,6.521-5.058c0.432-0.533,0.921-1.288,1.208-1.764
				c0.388-0.706,0.679-1.267,0.95-1.941c0.539-1.303,0.891-2.681,1.058-4.068c0.009-0.087,0.011-0.174,0.019-0.261
				c3.2,4.864,5.555,9.929,6.796,14.908c1.235,4.956,2.021,9.804,2.438,14.527c-0.368,0.553-0.739,1.094-1.118,1.616
				c-0.714,0.978-1.45,1.894-2.222,2.673c-0.392,0.382-0.781,0.747-1.187,1.054c-0.203,0.151-0.409,0.297-0.613,0.427l-0.153,0.101
				l-0.039,0.025l-0.008,0.006c0.017-0.009-0.027,0.017,0.019-0.009l-0.009,0.005l-0.108,0.06l-0.428,0.24
				c-1.905,1.043-4.182,1.761-6.57,2.168c-1.371,0.236-2.792,0.382-4.26,0.472c-0.289-2.709-0.75-5.458-1.444-8.261
				C390.959,260.166,389.23,254.736,386.339,248.919z M354.711,351.079c4.671-5.273,9.477-10.7,14.051-16.322
				c1.671,0.675,3.427,1.163,5.219,1.484c3.123,0.532,6.377,0.555,9.627-0.206c2.27-0.544,4.411-1.354,6.43-2.426
				c-3.582,5.242-6.853,9.205-9.022,11.661c-1.456,1.648-2.822,3.151-4.116,4.548c-1.961,0.98-3.943,1.725-5.956,2.243
				c-1.616,0.424-3.249,0.69-4.895,0.814c-0.821,0.069-1.648,0.087-2.477,0.082l-0.715,0.01l-0.768,0.031
				c-0.494,0.029-0.988,0.067-1.48,0.124c-3.945,0.456-7.729,2.012-10.824,4.321c-0.642,0.487-1.311,0.983-1.98,1.49
				C350.046,356.351,352.354,353.74,354.711,351.079z M343.166,364.384c5.278-4.098,11.913-6.472,17.892-6.966
				c0.41-0.041,0.822-0.064,1.234-0.082l0.594-0.016l0.647,0.003c0.988-0.019,1.98-0.041,2.964-0.184
				c1.551-0.197,3.078-0.585,4.537-1.133c-3.834,3.994-7.008,7.33-9.801,11.249c-2.198,0.711-4.346,1.398-6.5,2.131l-2.745,0.918
				l-2.832,0.979c-1.995,0.72-3.881,1.611-5.697,2.618c-3.623,2.028-6.924,4.505-9.885,7.296c-1.388,1.293-2.705,2.657-3.947,4.082
				c1.25-3.684,3.15-7.32,5.719-10.893C337.744,371.052,340.38,367.73,343.166,364.384z M336.438,387.503
				c-0.224,0.455-2.207,4.641-2.648,11.681c-0.359,5.744,0.25,12.232,1.043,17.688c-2.587-3.757-5.064-8.619-6.257-14.258
				c-1.046-4.944-0.949-9.849,0.266-14.68c2.102-1.63,4.231-3.187,6.386-4.673c1.585-1.062,3.188-2.08,4.813-3.036L336.438,387.503z
				 M352.528,390.157l-3.354-7.524l-3.301,7.549c-0.133,0.305-0.951,2.255-1.355,5.127c-0.75-2.511-1.104-5.274-1.191-6.452
				l-0.72-10.072c0.883-0.471,1.772-0.922,2.673-1.344c1.725-0.818,3.496-1.533,5.265-2.119l2.848-0.885
				c0.968-0.341,1.93-0.703,2.87-1.124c0.568-0.261,1.135-0.541,1.697-0.832c-0.424,0.773-0.842,1.57-1.253,2.412
				c-3.729,7.642-1.33,15.33,2.239,21.315C354.149,393.451,352.575,390.253,352.528,390.157z"/>
		</g>
	</g>
	<g id="&#x424;&#x438;&#x433;&#x443;&#x440;&#x430;_4_&#x43A;&#x43E;&#x43F;&#x438;&#x44F;">
		<g>
			<path style="fill-rule:evenodd;clip-rule:evenodd;fill:#F6B037;" d="M357.949,136.029c-12.818,0.707-37.178,33.015-64.311,69.055
				c-28.234,37.502-38.694,74.546-38.694,74.546s-8.625,6.918-10.395,14.96c-5.059,22.987-12.948,33.665-18.264,37.396
				c-9.47-1.014-34.875-1.142-53.317,20.989c-15.816,18.98-16.705,56.061,10.515,76.756c29.758,22.627,70.382,5.902,83.49-21.615
				c16.869-35.417-9.174-67.882-9.174-67.882s5.475-14.031,22.818-32.511c7.544-8.038,4.807-23.949,4.807-23.949
				S370.768,135.322,357.949,136.029z M246.573,390.313c-2.869,16.361-18.458,27.3-34.819,24.432s-27.3-18.458-24.432-34.819
				c2.869-16.362,18.458-27.301,34.82-24.432C238.503,358.362,249.441,373.951,246.573,390.313z"/>
		</g>
	</g>
	<g id="&#x417;&#x430;&#x43B;&#x438;&#x432;&#x43A;&#x430;_&#x446;&#x432;&#x435;&#x442;&#x43E;&#x43C;_12">
		<g>
			<path style="fill-rule:evenodd;clip-rule:evenodd;fill:#D67B28;" d="M284.328,280.713l-9.125,0.727l-14.853-1.516
				c0,0,0.434,13.317,10.858,12.447C284.533,291.259,284.328,280.713,284.328,280.713z M271.657,316.057
				c0,0-7.564,0.419-14.808,5.605c-7.633,5.467-4.733,14.278-14.141,26.738c-4.55,6.025-8.887-1.128-22.046-0.574
				c-8.244,0.348-10.358,7.697-10.358,7.697s18.925-5.225,29.716,10.053s2.459,39.322-7.104,44.873
				c-13.259,7.697-21.158,6.427-30.828,3.092c-25.146-7.918-22.682,12.784-25.294,10.14c4.759,4.819,14.018,10.746,14.018,10.746
				s-6.91-9.914-0.72-7.693c17.937,6.433,42.782,2.784,56.73-8.406c7.368-5.911,14.248-17.347,14.83-30.945
				c0.289-6.736,0.297-14.219-1.605-21.916c-2.257-9.131-6.896-16.999-5.306-16.884c6.24,0.453,8.922,3.78,8.922,3.78l-6.771-11.086
				v-2.91L271.657,316.057z"/>
		</g>
	</g>
	
		<g id="&#x417;&#x430;&#x43B;&#x438;&#x432;&#x43A;&#x430;_&#x446;&#x432;&#x435;&#x442;&#x43E;&#x43C;_10_&#x43A;&#x43E;&#x43F;&#x438;&#x44F;">
		<g>
			<path style="fill-rule:evenodd;clip-rule:evenodd;fill:#FFF07F;" d="M260.368,279.375c0,0-14.506,1.324-16.152,11.146
				c-4.235,25.265-18.614,41.23-18.614,41.23s-38.438-5.591-56.962,26.077c-14.022,23.973-5.995,47.609,0.035,58.313
				c6.89,11.015,13.13,4.555,8.286-6.629c-5.177-11.953-6.224-27.122-1.037-39.216c6.33-14.76,18.132-24.24,32.454-26.405
				c14.986-2.267,30.469,2.584,32.762-9.439c3.454-18.107,9.515-30.071,17.613-42.955c3.846-6.119,9.621-8.594,9.621-8.594
				L260.368,279.375z M242.675,368.545c-0.56,10.549,6.38,26.539-6.139,37.076c-14.333,12.063-27.807,7.272-38.961,6.125
				c-7.335,3.998,20.557,22.248,45.083,1.269C266.23,392.853,243.315,356.473,242.675,368.545z"/>
		</g>
	</g>
	<g id="&#x424;&#x438;&#x433;&#x443;&#x440;&#x430;_4_&#x43A;&#x43E;&#x43F;&#x438;&#x44F;_2">
		<g>
			<path style="fill-rule:evenodd;clip-rule:evenodd;fill:#E0E3E6;" d="M357.949,136.029c-12.818,0.707-37.178,33.015-64.311,69.055
				c-28.234,37.502-38.694,74.546-38.694,74.546s-0.08,0.066-0.192,0.16l1.021,0.316l29.524,2.273l0.626,0.521
				C292.852,270.811,370.196,135.354,357.949,136.029z"/>
		</g>
	</g>
	<g id="&#x424;&#x438;&#x433;&#x443;&#x440;&#x430;_5">
		<g>
			<circle style="fill-rule:evenodd;clip-rule:evenodd;fill:#DDE0E3;" cx="284.828" cy="248.263" r="10.382"/>
		</g>
	</g>
	<g id="&#x424;&#x438;&#x433;&#x443;&#x440;&#x430;_8">
		<g>
			<path style="fill-rule:evenodd;clip-rule:evenodd;fill:#C8BBC7;" d="M354.38,136.122c-6.79,0.485-22.565,12.814-46.056,45.743
				c-28.006,39.261-56.279,97.816-56.279,97.816l23.766-13.095c0,0,9.568-23.559,30.125-58.167
				C328.23,170.883,361.17,135.638,354.38,136.122z"/>
		</g>
	</g>
	<g id="&#x424;&#x438;&#x433;&#x443;&#x440;&#x430;_9">
		<g>
			<path style="fill-rule:evenodd;clip-rule:evenodd;fill:#FFFFFF;" d="M357.047,137.577c-2.182-5.093-23.782,27.434-44.702,60.529
				c-19.845,31.394-36.534,68.481-36.534,68.481l7.032,20.854c0,0,31.978-56.521,56.637-105.54
				C352.647,155.727,359.229,142.67,357.047,137.577z"/>
		</g>
	</g>
	
		<g id="&#x417;&#x430;&#x43B;&#x438;&#x432;&#x43A;&#x430;_&#x446;&#x432;&#x435;&#x442;&#x43E;&#x43C;_7_&#x43A;&#x43E;&#x43F;&#x438;&#x44F;_2">
		<g>
			<path style="fill-rule:evenodd;clip-rule:evenodd;fill:#A998A7;" d="M361.099,134.736c-0.849-1.467-2.378-2.343-4.091-2.343
				l-0.29,0.009c-19.718,1.087-53.534,49.804-67.157,70.7c-23.301,35.735-36.464,68.561-38.712,74.363
				c-0.196,0.173-0.778,4.531-0.778,4.531l6.404-1.693l22.57,0.979l7.139,6.569c-0.006-0.05,1.988-3.297,1.982-3.345
				c3.51-6.132,21.281-37.28,38.293-69.02C365.585,142.492,362.776,137.638,361.099,134.736z M283.14,278.649l-24.189-1.863
				c4.214-10.347,16.61-38.895,36.703-69.711c27.271-41.825,48.392-63.004,58.676-66.792
				C350.895,155.544,316.606,220.25,283.14,278.649z"/>
		</g>
	</g>
	<g id="&#x417;&#x430;&#x43B;&#x438;&#x432;&#x43A;&#x430;_&#x446;&#x432;&#x435;&#x442;&#x43E;&#x43C;_7">
		<g>
			<path style="fill-rule:evenodd;clip-rule:evenodd;fill:#A35C1B;" d="M221.738,351.915c-1.936-0.338-3.907-0.512-5.858-0.512
				c-16.387,0-30.338,11.732-33.173,27.898c-3.21,18.311,9.075,35.82,27.387,39.031c1.935,0.339,3.906,0.512,5.857,0.512
				c0,0,0,0,0,0c16.386,0,30.338-11.733,33.172-27.899c1.555-8.87-0.437-17.815-5.61-25.187
				C238.341,358.387,230.608,353.471,221.738,351.915z M241.958,389.689c-2.223,12.679-13.161,21.88-26.007,21.88
				c-1.531,0-3.079-0.136-4.602-0.403c-14.36-2.518-23.995-16.248-21.477-30.608c2.223-12.678,13.161-21.879,26.007-21.879
				c1.531,0,3.079,0.136,4.602,0.403C234.842,361.6,244.476,375.33,241.958,389.689z M288.167,284.511l-7.684-6.066l-21.247-2.352
				l-9.867,2.741c-2.978,2.881-7.98,8.509-9.403,14.979c-5.053,22.96-12.488,31.588-15.805,34.42
				c-1.764-0.144-3.59-0.218-5.446-0.218c-11.469,0-33.161,2.941-49.573,22.635c-8.993,10.792-13.308,26.531-11.54,42.101
				c1.814,15.992,9.857,30.154,22.646,39.879c9.734,7.401,21.299,11.313,33.447,11.315c0.001,0,0.003,0,0.003,0
				c23.083,0,45.917-14.089,55.524-34.261c15.54-32.624-2.875-62.318-8.264-69.904c2.043-4.247,8.203-15.633,21.277-29.563
				C289.619,302.352,288.688,288.834,288.167,284.511z M276.934,305.238c-17.622,18.776-23.32,33.077-23.555,33.677l-0.764,1.96
				l1.315,1.64c0.247,0.307,24.433,31.066,8.727,64.041c-8.446,17.731-28.579,30.115-48.96,30.114
				c-10.544-0.001-20.587-3.4-29.044-9.831c-11.193-8.512-18.233-20.907-19.822-34.907c-1.548-13.637,2.153-27.328,9.9-36.624
				c14.514-17.417,33.788-20.017,43.984-20.017c2.124,0,4.193,0.106,6.151,0.314l1.358,0.146l1.119-0.784
				c3.917-2.748,13.68-12.107,19.728-39.592c1.071-4.864,5.389-9.46,7.676-11.616l26.247,2.021
				C281.534,290.547,281.567,300.3,276.934,305.238z"/>
		</g>
	</g>
	<g id="&#x424;&#x438;&#x433;&#x443;&#x440;&#x430;_10">
		<g>
			<circle style="fill-rule:evenodd;clip-rule:evenodd;fill:#F6B037;" cx="285.025" cy="249.248" r="9.821"/>
		</g>
	</g>
	<g id="&#x424;&#x438;&#x433;&#x443;&#x440;&#x430;_11">
		<g>
			<ellipse style="fill-rule:evenodd;clip-rule:evenodd;fill:#FFF07F;" cx="287.207" cy="245.065" rx="6.184" ry="6.366"/>
		</g>
	</g>
	<g id="&#x417;&#x430;&#x43B;&#x438;&#x432;&#x43A;&#x430;_&#x446;&#x432;&#x435;&#x442;&#x43E;&#x43C;_8">
		<g>
			<path style="fill-rule:evenodd;clip-rule:evenodd;fill:#BE7F45;" d="M285.025,234.864c-7.73,0-14.02,6.289-14.02,14.021
				c0,7.73,6.289,14.02,14.02,14.02s14.02-6.289,14.02-14.02C299.045,241.153,292.756,234.864,285.025,234.864z M285.025,255.629
				c-3.719,0-6.744-3.024-6.744-6.744c0-3.721,3.025-6.745,6.744-6.745s6.744,3.024,6.744,6.745
				C291.77,252.604,288.744,255.629,285.025,255.629z"/>
		</g>
	</g>
</g>
</svg>
