<?xml version="1.0" encoding="iso-8859-1"?>
<!-- Generator: Adobe Illustrator 15.0.0, SVG Export Plug-In . SVG Version: 6.00 Build 0)  -->
<!DOCTYPE svg PUBLIC "-//W3C//DTD SVG 1.1//EN" "http://www.w3.org/Graphics/SVG/1.1/DTD/svg11.dtd" [
	<!ENTITY ns_extend "http://ns.adobe.com/Extensibility/1.0/">
	<!ENTITY ns_ai "http://ns.adobe.com/AdobeIllustrator/10.0/">
	<!ENTITY ns_graphs "http://ns.adobe.com/Graphs/1.0/">
	<!ENTITY ns_vars "http://ns.adobe.com/Variables/1.0/">
	<!ENTITY ns_imrep "http://ns.adobe.com/ImageReplacement/1.0/">
	<!ENTITY ns_sfw "http://ns.adobe.com/SaveForWeb/1.0/">
	<!ENTITY ns_custom "http://ns.adobe.com/GenericCustomNamespace/1.0/">
	<!ENTITY ns_adobe_xpath "http://ns.adobe.com/XPath/1.0/">
]>
<svg version="1.1" xmlns:x="&ns_extend;" xmlns:i="&ns_ai;" xmlns:graph="&ns_graphs;"
	 xmlns="http://www.w3.org/2000/svg" xmlns:xlink="http://www.w3.org/1999/xlink" x="0px" y="0px" width="512px" height="512px"
	 viewBox="0 0 512 512" style="enable-background:new 0 0 512 512;" xml:space="preserve">
<metadata>
	<sfw  xmlns="&ns_sfw;">
		<slices></slices>
		<sliceSourceBounds  height="512" width="512" x="94" y="94" bottomLeftOrigin="true"></sliceSourceBounds>
	</sfw>
</metadata>
<g id="&#x438;&#x433;&#x440;&#x43E;&#x432;&#x44B;&#x435;_1_">
	<g id="&#x417;&#x430;&#x43B;&#x438;&#x432;&#x43A;&#x430;_&#x446;&#x432;&#x435;&#x442;&#x43E;&#x43C;_1">
		<g>
			<rect x="3.699" y="4.439" style="fill-rule:evenodd;clip-rule:evenodd;fill:#B17D7B;" width="503.121" height="503.121"/>
		</g>
	</g>
	<g id="&#x417;&#x430;&#x43B;&#x438;&#x432;&#x43A;&#x430;_&#x446;&#x432;&#x435;&#x442;&#x43E;&#x43C;_5">
		<g>
			<path style="fill-rule:evenodd;clip-rule:evenodd;fill:#F3D4C3;" d="M484.624,25.156l20.717-20.717H3.699l20.717,20.717H484.624z
				 M24.416,486.844L3.699,507.561h501.642l-20.717-20.717H24.416z"/>
		</g>
	</g>
	
		<g id="&#x417;&#x430;&#x43B;&#x438;&#x432;&#x43A;&#x430;_&#x446;&#x432;&#x435;&#x442;&#x43E;&#x43C;_1_&#x43A;&#x43E;&#x43F;&#x438;&#x44F;_2">
		<g>
			<radialGradient id="SVGID_1_" cx="256.7402" cy="256" r="228.0762" gradientUnits="userSpaceOnUse">
				<stop  offset="0" style="stop-color:#99708E"/>
				<stop  offset="0.2" style="stop-color:#956D8B"/>
				<stop  offset="0.4182" style="stop-color:#886080"/>
				<stop  offset="0.6121" style="stop-color:#734E6D"/>
				<stop  offset="0.7636" style="stop-color:#573A54"/>
				<stop  offset="0.897" style="stop-color:#40293F"/>
				<stop  offset="1" style="stop-color:#331F32"/>
			</radialGradient>
			<polygon style="fill-rule:evenodd;clip-rule:evenodd;fill:url(#SVGID_1_);" points="432.765,27.924 78.856,27.924 28.664,78.116 
				28.664,435.769 76.972,484.076 433.367,484.076 484.816,432.627 484.816,79.976 			"/>
		</g>
	</g>
	
		<g id="&#x417;&#x430;&#x43B;&#x438;&#x432;&#x43A;&#x430;_&#x446;&#x432;&#x435;&#x442;&#x43E;&#x43C;_1_&#x43A;&#x43E;&#x43F;&#x438;&#x44F;">
		<g>
			<path style="fill-rule:evenodd;clip-rule:evenodd;fill:#F2D2C0;" d="M25.109,24.37v463.26h463.26V24.37H25.109z M466.659,418.566
				l-47.353,47.353H91.283l-44.462-44.462V92.277l46.196-46.196h325.734l47.908,47.907V418.566z"/>
		</g>
	</g>
	<g id="&#x424;&#x438;&#x433;&#x443;&#x440;&#x430;_3">
		<g>
			<path style="fill-rule:evenodd;clip-rule:evenodd;fill:#A18180;" d="M429.873,25.156l-344.047-1.48l-62.15,62.891v342.566
				l59.931,59.19l344.046-0.739l59.931-59.191V84.347L429.873,25.156z M477.226,423.954l-56.231,54.751H91.006l-56.231-54.751
				V88.046l54.012-54.012h334.428l54.751,56.231L477.226,423.954z"/>
		</g>
	</g>
	<g id="&#x417;&#x430;&#x43B;&#x438;&#x432;&#x43A;&#x430;_&#x446;&#x432;&#x435;&#x442;&#x43E;&#x43C;_6">
		<g>
			<path style="fill-rule:evenodd;clip-rule:evenodd;fill:#C7907F;" d="M23.676,86.566l62.52-62.752l-62.52-0.139V86.566z
				 M487.584,23.63l-62.521,0.139l62.521,62.752V23.63z M22.196,488.37l62.521-0.139l-62.521-62.752V488.37z M425.803,488.971
				l62.521,0.139v-62.89L425.803,488.971z"/>
		</g>
	</g>
	
		<g id="&#x417;&#x430;&#x43B;&#x438;&#x432;&#x43A;&#x430;_&#x446;&#x432;&#x435;&#x442;&#x43E;&#x43C;_6_&#x43A;&#x43E;&#x43F;&#x438;&#x44F;">
		<g>
			<path style="fill-rule:evenodd;clip-rule:evenodd;fill:#FDECE7;" d="M27.964,485.886l56.753,2.346L55.27,458.579L27.964,485.886z
				 M54.694,55.434l31.502-31.619l-59.314,3.562L54.694,55.434z M425.803,488.971l59.314-3.113l-28.158-28.158L425.803,488.971z
				 M485.117,26.582l-60.054-2.813l31.376,31.491L485.117,26.582z"/>
		</g>
	</g>
	<g id="&#x424;&#x438;&#x433;&#x443;&#x440;&#x430;_1">
		<g>
			<path style="fill-rule:evenodd;clip-rule:evenodd;fill:#C7907F;" d="M34.774,487.769l0.093-9.156h-8.417L34.774,487.769z
				 M477.04,477.873l0.093,9.155l8.323-9.155H477.04z M476.393,25.804l-0.092,9.156h8.416L476.393,25.804z M26.451,34.96h8.417
				l-0.093-9.156L26.451,34.96z"/>
		</g>
	</g>
	<g id="&#x424;&#x438;&#x433;&#x443;&#x440;&#x430;_2">
		<g>
			<path style="fill-rule:evenodd;clip-rule:evenodd;fill:#FDECE7;" d="M22.597,480.813L9.026,497.72l-1.627,10.285l22.418-0.296
				l0.532-18.644l-3.492-6.957L22.597,480.813z M508.448,495.817l-18.855-14.581l-4.261,4.043l-3.068,4.209l2.646,16.529
				l23.688,1.353L508.448,495.817z M21.002,31.648l4.26-1.295l3.492-6.956L28.222,4.754L5.803,4.458l1.628,10.284L21.002,31.648z
				 M487.997,31.226l18.856-14.581l0.147-11.553l-23.687,1.353l-2.646,16.53l3.069,4.208L487.997,31.226z"/>
		</g>
	</g>
	<g id="&#x417;&#x430;&#x43B;&#x438;&#x432;&#x43A;&#x430;_&#x446;&#x432;&#x435;&#x442;&#x43E;&#x43C;_2">
		<g>
			<path style="fill-rule:evenodd;clip-rule:evenodd;fill:#2F181B;" d="M0,0v512h512V0H0z M503.121,503.121H8.878V8.879h494.243
				V503.121z"/>
		</g>
	</g>
	<g id="&#x417;&#x430;&#x43B;&#x438;&#x432;&#x43A;&#x430;_&#x446;&#x432;&#x435;&#x442;&#x43E;&#x43C;_3">
		<g>
			<path style="fill-rule:evenodd;clip-rule:evenodd;fill:#40292E;" d="M482.33,20.67H29.346l-9.369,9.369v397.468
				c-0.119,0.585-0.119,1.188,0,1.771v53.925l9.606,9.605h453.025l9.507-9.507V30.455L482.33,20.67z M28.855,34.183l4.633-4.634
				h40.974L28.855,75.156V34.183z M33.726,483.931l-4.871-4.871v-39.857l44.728,44.729H33.726z M483.237,479.158l-4.772,4.772
				H437.63l45.607-45.607V479.158z M483.237,425.769l-58.162,58.162H86.139l-57.283-57.283V87.711l58.162-58.162h338.058
				l58.162,58.162V425.769z M483.237,75.156L437.63,29.549h40.558l5.05,5.05V75.156z"/>
		</g>
	</g>
	
		<g id="&#x417;&#x430;&#x43B;&#x438;&#x432;&#x43A;&#x430;_&#x446;&#x432;&#x435;&#x442;&#x43E;&#x43C;_4_&#x43A;&#x43E;&#x43F;&#x438;&#x44F;" style="opacity:0.502;">
		<g>
			<path style="fill-rule:evenodd;clip-rule:evenodd;fill:#876867;" d="M465.59,92.913l-47.243-47.244
				c-0.685-0.685-1.612-1.068-2.579-1.068H94.545c-0.968,0-1.896,0.384-2.58,1.068L46.409,91.227
				c-0.684,0.684-1.069,1.611-1.069,2.579v324.619c0,0.968,0.385,1.896,1.069,2.579l43.847,43.847
				c0.684,0.684,1.612,1.068,2.579,1.068h323.479c0.968,0,1.896-0.385,2.579-1.068l46.696-46.696
				c0.685-0.685,1.069-1.612,1.069-2.58V95.493C466.659,94.525,466.274,93.598,465.59,92.913z M459.363,414.063l-44.56,44.56H94.346
				l-41.709-41.709V95.316l43.419-43.419h318.201l45.106,45.106V414.063z"/>
		</g>
	</g>
	<g id="&#x417;&#x430;&#x43B;&#x438;&#x432;&#x43A;&#x430;_&#x446;&#x432;&#x435;&#x442;&#x43E;&#x43C;_4">
		<g>
			<path style="fill-rule:evenodd;clip-rule:evenodd;fill:#40292E;" d="M468.534,90.633l-47.907-47.907
				c-0.693-0.694-1.635-1.084-2.615-1.084H92.277c-0.981,0-1.922,0.39-2.616,1.084L43.465,88.922
				c-0.693,0.693-1.083,1.635-1.083,2.615v329.18c0,0.981,0.39,1.922,1.083,2.615l44.463,44.463
				c0.694,0.693,1.634,1.084,2.615,1.084h328.023c0.981,0,1.922-0.391,2.615-1.084l47.353-47.353
				c0.694-0.694,1.084-1.635,1.084-2.616V93.248C469.618,92.268,469.229,91.326,468.534,90.633z M462.22,416.295l-45.186,45.185
				H92.075L49.78,419.185V93.07l44.029-44.03h322.67l45.74,45.741V416.295z"/>
		</g>
	</g>
</g>
<g id="&#x413;&#x440;&#x443;&#x43F;&#x43F;&#x430;_13_1_">
	<g id="&#x424;&#x438;&#x433;&#x443;&#x440;&#x430;_16" style="opacity:0.502;">
		<g>
			<path style="fill-rule:evenodd;clip-rule:evenodd;fill:#331F32;" d="M459.363,269.736v-23.533l-24.929-56.259
				c9.539-12.879,16.224-23.699,18.093-30.758c0.044-0.183,0.071-0.364,0.083-0.542c0.013-0.177,0.009-0.352-0.011-0.521
				c-0.038-0.339-0.137-0.659-0.291-0.95c-0.307-0.583-0.835-1.052-1.538-1.326c-1.41-0.546-3.236-0.21-4.604,0.856
				c-2.044,1.81-9.663,8.557-19.01,16.813l-22.544-50.879c0.551-1.214,0.527-2.52-0.16-3.464c-0.41-0.563-1.002-0.936-1.682-1.097
				c-0.059-0.014-0.125-0.002-0.185-0.013l-29.318-66.168h-10.353l30.96,69.927c-18.96,11.342-51.974,39.193-83.982,68.169
				c-3.793-0.028-7.553,0.146-11.252,0.585c-14.121,1.653-26.386,0.983-42.438-1.411c-1.596-0.238-3.217-0.534-4.819-0.875
				c-9.235-1.979-26.436-7.444-34.703-20.103c-2.903-4.479-2.528-9.694-1.733-13.303c1.836-8.242,7.591-16.359,14.737-21.344
				c10.263-7.151,19.888-12.899,30.847-19.938c2.43-1.563,4.914-3.188,7.473-4.903c20.238-13.558,34.404-42.393,35.327-56.662
				c-3.045,0.021-6.3,0.391-9.346,0.417c-2.093,14.595-16.309,29.202-34.911,39.309c-3.525,1.932-7.222,3.794-10.815,5.57
				c-14.244,7.042-29.285,13.953-42.179,26.342c-10.5,9.81-17.581,20.559-20.17,31.359c-0.162,0.675-0.306,1.351-0.433,2.027
				c-0.126,0.676-0.235,1.353-0.326,2.029c-0.181,1.354-0.291,2.708-0.327,4.063c-0.071,2.71,0.152,5.421,0.682,8.134
				c1.06,5.428,3.35,10.86,6.93,16.366c7.575,11.646,23.306,19.871,45.31,24.811c0.003,0.001,0.004,0.001,0.006,0.002
				c12.617,2.725,27.414,4.392,43.824,3.65c-39.491,37.033-70.545,68.83-75.261,73.553c-0.905,0.919-1.145,2.249-0.618,3.45
				c0.048,0.216,7.918,18.048,4.221,31.785c-1.638,6.063-4.387,11.507-7.639,16.41L52.637,122.183v15.646l143.964,211.04
				c-3.691,4.401-7.569,8.283-11.014,11.699c-1.279,1.271-2.45,2.437-3.523,3.538c-1.927,0.115-3.885,0.188-5.821,0.17
				c-6.612-0.061-11.563-1.056-14.236-2.891c-1.673-1.149,0.327-5.964,1.909-9.806c0.322-0.779,0.643-1.563,0.951-2.343
				c2.578-6.549,1.158-12.336,1.102-12.584c-0.277-1.105-1.145-2.026-2.332-2.475c-1.187-0.447-2.551-0.368-3.666,0.217
				c-0.155,0.07-17.814,9.334-36.646,12.245c-2.157,0.329-4.605,0.48-7.281,0.447c-4.494-0.054-9.082-0.621-13.035-1.296
				l-50.372-70.129v14.912l37.743,52.604c-0.839,0.034-1.673,0.245-2.397,0.67c-1.195,0.701-1.94,1.833-1.987,3.027
				c-0.007,0.12-0.512,12.207-3.069,18.815c-1.641,4.237-3.231,9.343-3.889,14.453c-0.083,0.639-0.15,1.277-0.201,1.915
				c-0.051,0.637-0.086,1.272-0.103,1.904c-0.034,1.264,0.004,2.514,0.129,3.736c0.249,2.445,0.842,4.779,1.887,6.891
				c7.553,15.149,29.604,16.262,38.519,16.078c3.099-0.065,5.112-0.288,5.196-0.298c1.741-0.195,3.251-1.258,3.823-2.681
				c0.021-0.058,1.277-3.084,3.715-6.499l32.427,45.194c0.929,3.818,2.547,8.249,5.341,12.238h66.542
				c2.039-0.392,3.376-0.611,3.415-0.618c1.325-0.217,2.501-0.96,3.149-1.988c0.648-1.028,0.688-2.213,0.108-3.178
				c-0.081-0.12-7.94-13.401-7.26-24.169c0.398-6.008,1.873-12.083,3.524-17.283l32.222,47.236h10.915l-39.287-57.53
				c1.038-2.4,1.771-3.859,1.787-3.899c0.508-0.995,0.414-2.13-0.224-3.049c-0.637-0.921-1.771-1.52-3.024-1.607
				c0,0-0.5-0.036-1.377-0.024c-0.752,0.01-1.752,0.063-2.897,0.181l-15.271-22.362c6.875-5.805,15.161-11.444,25.407-14.942
				c4.883-1.673,10.903-2.463,17.904-2.391c9.513,0.104,17.468,1.767,17.55,1.781c1.367,0.285,2.793-0.094,3.682-0.991
				c4.794-4.857,38.41-39.145,77.804-81.929c2.743-2.995,5.515-6.033,8.3-9.101c8.824,24.667-2.605,48.189-15.978,69.743
				c-7.155,11.655-14.974,22.983-19.399,34.734c-5.73,15.117-4.949,36.154,16.626,47.264c7.814,4.07,18.708,5.522,26.552,4.764
				c16.745-0.974,25.349-6.479,32.905-11.048c7.367-4.19,19.082-10.667,25.909-2.004c3.843,5.194,0.624,22.593-0.607,28.469
				l6.106-6.106c0.332-1.674,0.908-4.636,1.235-6.628c0.477-2.911,0.903-6.035,1.179-9.151c1.14-12.657-0.318-24.258-10.466-23.287
				c-14.433,1.369-27.345,11.818-35.442,15.266c-7.971,3.709-28.433,11.112-36.837-0.803c-0.155-0.229-0.311-0.458-0.467-0.688
				c-6.165-9.115-8.68-13.008-5.29-25.841c2.617-10.133,9.94-20.39,19.628-34.112c0.385-0.544,0.769-1.091,1.151-1.639
				c12.994-17.176,38.622-64.01,16.646-105.198c11.538-13.18,22.504-26.172,31.668-37.914L459.363,269.736z M110.43,385.905
				c-2.409-1.865-3.581-3.831-3.484-5.856c0.131-2.745,2.487-5.418,4.745-7.17l5.261,7.332
				C114.285,382.375,112.044,384.383,110.43,385.905z M123.986,374.945c-0.008,0.006-0.016,0.012-0.024,0.018l-4.195-5.841
				c1.906-0.48,3.85-0.736,5.825-0.73c3.018,0.008,6.118,0.564,9.262,1.653C131.426,371.206,127.319,372.671,123.986,374.945z
				 M180.934,421.043c-3.429,6.982-13.809,11.772-15.028,12.314l-27.703-38.568c0.845-0.608,1.736-1.166,2.688-1.634
				c7.119-3.512,15.533-4.276,21.32-4.32c2.643-0.019,4.566,0.124,5.239,0.181c1.293,0.306,5.94,1.337,11.598,1.947
				c1.27,3.604,2.622,6.406,3.17,7.482C182.693,400.189,185.628,411.523,180.934,421.043z M208.913,439.994
				c-1.441,2.465-5.381,6.473-9.758,6.669c-1.988,0.088-4.041-0.584-6.125-2.006c2.754-2.708,7.017-7.198,10.818-12.462
				c2.175-3.011,3.331-6.543,4.224-9.494C211.978,428.449,212.296,434.214,208.913,439.994z M228.093,395.034
				c-0.115,0.049-0.229,0.085-0.344,0.136c-0.834,0.361-1.669,0.736-2.502,1.109c-3.537,1.584-7.226,3.239-9.522,3.276
				c-0.758,0.012-1.051-0.174-1.265-0.349c-3.483-2.844-5.109-9.413-5.664-16.384c0.598-0.583,1.203-1.177,1.847-1.812
				c1.487-1.468,3.066-3.023,4.735-4.618L228.093,395.034z M267.91,305.481c-0.735,0.604-1.129,1.475-1.08,2.396
				c0.244,4.767,0.5,9.529,0.764,14.289c-4.223-1.181-8.445-2.379-12.668-3.594c-1.286-0.37-2.655-0.117-3.599,0.667
				c-3.289,2.733-6.6,5.481-9.935,8.247c20.229-25.308,39.163-49.462,58.824-73.98c0.513-0.639,0.733-1.441,0.619-2.251
				c-0.679-4.82-1.324-9.663-1.932-14.53c3.626,0.576,7.261,1.135,10.905,1.674c1.334,0.2,2.646-0.29,3.416-1.26
				c4.565-5.77,9.211-11.596,13.927-17.481c9.96,3.863,18.563,9.618,25.57,15.872C323.316,259.921,296.055,282.291,267.91,305.481z
				 M381.324,213.607c-0.957,0.824-1.396,1.983-1.166,3.078c0.057,0.27,0.116,0.536,0.173,0.805
				c-9.194-7.776-20.588-14.45-31.657-19.429c-1.023-0.438-2.063-0.847-3.107-1.25c5.37-6.626,10.84-13.353,16.45-20.23
				c0.628-0.772,0.917-1.722,0.805-2.635c-0.326-2.646-0.636-5.307-0.927-7.979c3.787-1.414,7.591-2.858,11.411-4.335
				c0.723-0.279,1.364-0.747,1.843-1.345c1.814-2.216,14.92-18.636,22.959-28.904l21.576,48.732
				C403.01,194.826,384.26,211.305,381.324,213.607z"/>
		</g>
	</g>
	<g id="&#x424;&#x438;&#x433;&#x443;&#x440;&#x430;_16_&#x43A;&#x43E;&#x43F;&#x438;&#x44F;_2">
		<g>
			<path style="fill-rule:evenodd;clip-rule:evenodd;fill:#778BA9;" d="M52.637,224.281L228.86,458.623h9.28L52.637,211.94V224.281z
				 M52.637,95.316v1.473l259.031,361.834h9.122L57.339,90.614L52.637,95.316z M337.436,51.947l-8.295-0.005L459.363,312.21v-16.576
				L337.436,51.947z"/>
		</g>
	</g>
	<g id="&#x424;&#x438;&#x433;&#x443;&#x440;&#x430;_16_&#x43A;&#x43E;&#x43F;&#x438;&#x44F;">
		<g>
			<path style="fill-rule:evenodd;clip-rule:evenodd;fill:#B6CFDD;" d="M52.637,211.884v12.733
				c16.029,21.996,48.854,68.042,54.969,74.175c9.967,12.655,17.794,8.195,7.225-5.896C109.79,285.028,63.31,225.72,52.637,211.884z
				 M107.637,159.132c-4.365-6.221-37.416-52.425-50.249-68.565l-4.751,4.75v1.616c16.209,22.862,44.687,64.233,48.205,68.496
				C109.116,176.16,117.232,170.489,107.637,159.132z M248.25,370.036c4.42,6.488,44.575,62.414,63.38,88.587h9.201
				c-16.408-23.06-58.84-82.636-64.989-90.723C246.665,354.504,241.181,358.679,248.25,370.036z M425.535,227.211
				c-2.461-5.604-16.446-35.463-32.345-66.943c-19.145-37.908-40.617-78.171-42.199-81.272c-4.914-10.871-11.272-7.486-6.799,2.179
				c0.54,1.683,20.482,43.372,40.011,82.735c16.506,33.271,32.857,64.881,35.5,69.266
				C426.796,247.754,432.976,240.886,425.535,227.211z"/>
		</g>
	</g>
	<g id="&#x417;&#x430;&#x43B;&#x438;&#x432;&#x43A;&#x430;_&#x446;&#x432;&#x435;&#x442;&#x43E;&#x43C;_30">
		<g>
			<path style="fill-rule:evenodd;clip-rule:evenodd;fill:#5B5264;" d="M368.442,176.425l2.126,10.423l-22.246,6.558l-94.299,90.152
				l0.532,21.249l-17.41-4.967l-50.636,48.978c0,0-28.488,7.629-39.026-0.372c-4.158-3.157-1.21-10.095,0.882-16.872
				c1.867-6.046,0.542-11.307,0.542-11.307s-16.489,10.663-33.768,14.056c-12.533,2.461-29.221-3.116-29.221-3.116
				s0.338,12.779-1.568,20.021c-2.137,8.115-3.736,19.153-0.307,26.446c8.192,17.423,34.334,14.591,34.334,14.591
				s3.42-11.942,11.959-16.912c11.171-6.502,26.074-4.505,26.074-4.505s22.9,6.721,30.607-1.174
				c7.707-7.896,20.342-26.588,41.804-35.301c15.721-6.383,36.963-1.204,36.963-1.204s154.345-175.399,160.7-212.652
				C421.628,124.332,368.442,176.425,368.442,176.425z M118.836,362.584c-7.594,6.333-12.872,13.353-12.872,13.353
				c-13.921-8.876-5.598-19.424-0.771-22.726c8.852-6.055,18.334-4.298,26.162,0.039
				C136.984,356.369,125.016,357.431,118.836,362.584z"/>
		</g>
	</g>
	<g id="&#x424;&#x438;&#x433;&#x443;&#x440;&#x430;_20">
		<g>
			<path style="fill-rule:evenodd;clip-rule:evenodd;fill:#7E429A;" d="M113.37,387.109c-7.06-2.83-23.334-1.023-25.069-17.389
				c-0.896-8.453,2.934-21.624,2.076-28.517c-0.889-7.15-4.643-8.712-4.643-8.712s1.639,7.933-0.177,16.306
				c-2.044,9.426-5.119,21.477-0.91,29.724c6.615,12.963,32.702,13.177,32.702,13.177S118.241,389.062,113.37,387.109z
				 M152.286,364.685c2.819,0.965,5.115,1.351,5.115,1.351S155.291,365.354,152.286,364.685z M139.16,353.427
				c0,0,0.156,3.613-2.093,6.401c-2.383,2.955-5.255,5.095-5.255,5.095s5.728-1.747,11.722-1.486
				c3.082,0.134,6.23,0.687,8.751,1.248c-2.188-0.749-4.689-1.847-6.68-3.385C142.161,358.638,139.16,353.427,139.16,353.427z"/>
		</g>
	</g>
	<g id="&#x424;&#x438;&#x433;&#x443;&#x440;&#x430;_19">
		<g>
			<path style="fill-rule:evenodd;clip-rule:evenodd;fill:#4D3C5F;" d="M131.967,351.882c8.282-13.32-14.71-13.135-23.457-11.28
				c-8.746,1.854-13.534,6.783-16.5,19.237c-3.363,14.118,8.867,19.485,15.326,15.189c-1.607-1.885-15.379-10.7-4.624-21.394
				C113.467,342.942,121.707,353.828,131.967,351.882z M144.279,346.603c-2.281-6.13,2.244-15.921,2.244-15.921
				c-25.001,29.143,7.912,21.262,7.912,21.262S145.791,350.666,144.279,346.603z M165.313,351.449
				c-23.611,8.591,1.483,22.251,1.483,22.251L165.313,351.449z M121.93,369.33c-12.67,11.125-3.097,22.171-3.097,22.171
				s2.335-10.789,8.811-16.487c5.855-5.153,15.913-5.27,15.913-5.27S133.807,358.902,121.93,369.33z"/>
		</g>
	</g>
	<g id="&#x424;&#x438;&#x433;&#x443;&#x440;&#x430;_17">
		<g>
			<path style="fill-rule:evenodd;clip-rule:evenodd;fill:#B6CFDD;" d="M118.372,344.32c16.375-2.635,26.93-11.337,30.871-24.271
				c-1.252-2.549-16.735,11.568-33.353,14.242c-15.615,2.513-26.03-2.838-31.175-3.858
				C89.721,340.122,102.49,346.876,118.372,344.32z M129.945,349.801c1.159,4.752-0.959,5.77-10.068,12.213
				c-8.488,6.003-15.647,16.515-15.647,16.515s4.574,1.993,8.969-0.053c7.355-3.424,8.716-10.275,19.56-13.961
				C150.168,358.598,135.67,347.622,129.945,349.801z"/>
		</g>
	</g>
	<g id="&#x424;&#x438;&#x433;&#x443;&#x440;&#x430;_21">
		<g>
			<path style="fill-rule:evenodd;clip-rule:evenodd;fill:#81A2C3;" d="M368.044,174.677l0.741,11.867l-23.734,6.676l-90.487,89.004
				l-0.742,22.992l-18.542-5.934l-35.416,35.648c0,0,18.044-11.076,34.672-18.596c12.277-5.552,24.479-8.152,24.479-8.152
				s4.953-13.313,15.055-23.517c19.547-19.746,44.826-45.014,73.796-77.377c5.707-6.375,18.435-12.666,23.733-18.832
				c29.931-34.834,52.073-64.215,52.073-64.215L368.044,174.677z"/>
		</g>
	</g>
	<g id="&#x424;&#x438;&#x433;&#x443;&#x440;&#x430;_24">
		<g>
			<path style="fill-rule:evenodd;clip-rule:evenodd;fill:#7E429A;" d="M366.863,198.819
				c-44.615,54.357-105.779,124.26-105.779,124.26s-11.627-2.108-21.011,1.311c-10.291,3.751-16.413,11.236-16.413,11.236
				s9.609-4.241,19.784-4.847c10.584-0.63,21.751,2.374,21.751,2.374s62.047-69.751,107.363-128.89
				c30.106-39.29,49.876-76.313,49.876-76.313S397.822,161.101,366.863,198.819z"/>
		</g>
	</g>
	<g id="&#x424;&#x438;&#x433;&#x443;&#x440;&#x430;_22">
		<g>
			<path style="fill-rule:evenodd;clip-rule:evenodd;fill:#4D3C5F;" d="M216.737,317.825c0,0-14.499,11.886-22.416,25.43
				c-5.861,10.024-5.769,22.78-5.769,22.78l12.608-14.834c0,0,8.871-13.76,21.658-23.54c14.768-11.295,33.738-18.829,33.738-18.829
				L216.737,317.825z"/>
		</g>
	</g>
	<g id="&#x424;&#x438;&#x433;&#x443;&#x440;&#x430;_23">
		<g>
			<path style="fill-rule:evenodd;clip-rule:evenodd;fill:#B6CFDD;" d="M421.021,128.274c-1.461-2.132-51.989,47.145-51.989,47.145
				l1.483,12.361l-24.723,5.439l-91.477,87.521l0.495,24.724l-17.801-6.429l-4.759,6.243c0,0,26.097,9.346,28.532,8.375
				c1.384-0.552,1.12-26.184,1.12-26.184l90.264-88.137c0,0,23.013-5.958,23.788-7.597c0.53-1.121-0.989-11.867-0.989-11.867
				S422.481,130.407,421.021,128.274z"/>
		</g>
	</g>
	<g id="&#x424;&#x438;&#x433;&#x443;&#x440;&#x430;_33" style="opacity:0.502;">
		<g>
			<path style="fill-rule:evenodd;clip-rule:evenodd;fill:#29213B;" d="M332.177,225.854c-7.157-4.589-19.019-1.482-19.019-1.482
				l-25.219,25.218c0,0,15.354-1.767,23.762,3.392c7.895,4.845,8.873,16.634,8.873,16.634l21.51-26.701
				C342.084,242.913,339.48,230.535,332.177,225.854z"/>
		</g>
	</g>
	<g id="&#x417;&#x430;&#x43B;&#x438;&#x432;&#x43A;&#x430;_&#x446;&#x432;&#x435;&#x442;&#x43E;&#x43C;_32">
		<g>
			<path style="fill-rule:evenodd;clip-rule:evenodd;fill:#29213B;" d="M427.941,117.116c-1.318-0.781-2.982-0.678-4.188,0.271
				c-4.878,3.83-52.892,50.829-58.35,56.176c-0.899,0.881-1.291,2.157-1.039,3.39l1.445,7.09l-18.979,5.594
				c-0.566,0.167-1.087,0.468-1.514,0.876l-94.3,90.153c-0.755,0.722-1.171,1.729-1.144,2.772l0.406,16.208l-12.56-3.584
				c-1.275-0.364-2.645-0.021-3.596,0.9l-49.924,48.289c-2.973,0.726-12.739,2.928-21.802,2.929c-6.08,0-10.615-1.004-13.114-2.901
				c-1.564-1.188,0.075-6.263,1.392-10.339c0.268-0.825,0.536-1.657,0.791-2.485c2.148-6.958,0.659-13.05,0.595-13.305
				c-0.292-1.16-1.125-2.107-2.237-2.545c-1.112-0.437-2.368-0.312-3.373,0.336c-0.158,0.103-16.08,10.313-32.469,13.53
				c-1.884,0.369-4.026,0.558-6.366,0.558c-10.179,0-20.858-3.518-20.966-3.552c-1.146-0.383-2.409-0.182-3.38,0.538
				c-0.971,0.719-1.532,1.868-1.5,3.076c0.003,0.123,0.3,12.342-1.448,18.979c-2.243,8.52-4.076,20.461-0.076,28.969
				c7.169,15.245,25.902,16.893,33.623,16.893c2.665,0,4.394-0.185,4.466-0.193c1.494-0.162,2.744-1.215,3.164-2.658
				c0.031-0.105,3.148-10.595,10.262-14.735c6.093-3.548,13.565-4.292,18.761-4.292c2.372,0,4.11,0.164,4.719,0.229
				c1.748,0.49,10.206,2.729,18.471,2.729c7.085,0,12.306-1.669,15.519-4.96c1.63-1.671,3.396-3.713,5.439-6.079
				c7.931-9.181,18.793-21.752,35.106-28.377c4.762-1.934,10.654-2.914,17.511-2.914c9.322,0,17.103,1.859,17.18,1.879
				c1.334,0.318,2.75-0.121,3.66-1.155c6.33-7.193,155.115-176.623,161.573-214.479
				C429.958,119.416,429.258,117.901,427.941,117.116z M263.99,328.878c-3.193-0.617-9.47-1.613-16.703-1.613
				c-7.818,0-14.648,1.164-20.301,3.459c-17.968,7.297-29.98,21.199-37.929,30.399c-1.964,2.274-3.662,4.238-5.135,5.748
				c-1.739,1.782-5.27,2.724-10.21,2.724c-7.992,0-16.614-2.493-16.7-2.52c-0.179-0.052-0.364-0.091-0.55-0.115
				c-0.098-0.014-2.443-0.323-5.941-0.323c-6.108,0-14.97,0.92-22.492,5.299c-7.218,4.201-11.164,12.398-12.779,16.56
				c-0.415,0.012-0.878,0.021-1.381,0.021c-6.306,0-21.551-1.231-26.911-12.631c-2.347-4.992-2.152-13.713,0.536-23.924
				c1.25-4.747,1.605-11.485,1.691-16.056c4.482,1.133,11.458,2.541,18.431,2.541c2.819,0,5.442-0.234,7.795-0.697
				c11.919-2.341,23.308-7.895,29.728-11.437c-0.104,1.217-0.33,2.563-0.76,3.955c-0.246,0.797-0.505,1.598-0.762,2.393
				c-2.143,6.637-4.573,14.157,1.181,18.526c3.854,2.927,9.776,4.411,17.6,4.411c11.762-0.001,24.108-3.271,24.627-3.41
				c0.609-0.163,1.167-0.478,1.62-0.916l49.097-47.489l15.354,4.381c1.138,0.325,2.356,0.088,3.289-0.635
				c0.932-0.723,1.466-1.846,1.436-3.025l-0.491-19.609l92.463-88.397l21.382-6.302c1.848-0.544,2.97-2.412,2.585-4.298
				l-1.723-8.446c10.669-10.443,31.104-30.374,44.28-43C393.098,177.316,310.771,275.619,263.99,328.878z M132.71,349.795
				c-10.628-5.889-21.272-5.861-30.053,0.144c-3.219,2.2-8.636,7.805-8.522,14.85c0.061,3.723,1.738,9.185,9.392,14.064
				c0.616,0.393,1.306,0.581,1.991,0.581c1.129,0,2.24-0.516,2.966-1.478c0.051-0.066,5.138-6.773,12.285-12.734
				c2.101-1.753,5.354-3.07,7.969-4.128c3.987-1.613,7.137-2.89,7.342-6.249C136.164,353.439,135.648,351.423,132.71,349.795z
				 M116.018,359.525c-4.881,4.07-8.816,8.373-11.145,11.113c-2.174-1.914-3.289-3.915-3.322-5.97
				c-0.059-3.62,3.133-7.131,5.292-8.608c3.162-2.162,6.606-3.259,10.239-3.259c2.646,0,5.401,0.563,8.231,1.677
				C122.341,355.687,118.807,357.199,116.018,359.525z"/>
		</g>
	</g>
	<g id="&#x413;&#x440;&#x443;&#x43F;&#x43F;&#x430;_12_1_">
		<g id="&#x424;&#x438;&#x433;&#x443;&#x440;&#x430;_6_&#x43A;&#x43E;&#x43F;&#x438;&#x44F;_2">
			<g>
				<path style="fill-rule:evenodd;clip-rule:evenodd;fill:#D6E0E6;" d="M315.305,419.406c-4.883-12.957-7.744-18.92-2.49-35.355
					c3.734-11.68,11.918-22.838,24.324-36.883c15.452-17.491,48.72-52.958,31.183-103.123c-6.258-17.9-24.926-35.27-43.536-43.607
					c-18.232-8.169-27.991-7.172-58.68-5.317c-16.196,0.979-34.244,7.434-53.764,6.679c-15.292-0.592-40.006-0.913-54.268-15.294
					c-11.121-11.214-2.36-35.654,10.185-45.668c14.71-11.742,29.643-20.8,47.474-32.511c27.236-17.89,37.038-40.763,33.33-51.008
					c-9.492,11.165-22.887,27.133-44.999,39c-22.112,11.866-47.032,21.714-63.571,40.52c-18.192,23.68-21.484,47.696-1.704,68.532
					c17.493,18.426,56.141,22.743,118.68,8.003c58.392-13.761,85.785,26.827,91.215,48.74
					c11.114,44.854-33.178,73.982-48.135,111.045c-6.581,16.307-8.152,39.624,9.869,54.316c19.711,16.068,32.771,3.352,32.771,3.352
					S319.893,431.578,315.305,419.406z"/>
			</g>
		</g>
		
			<g id="&#x417;&#x430;&#x43B;&#x438;&#x432;&#x43A;&#x430;_&#x446;&#x432;&#x435;&#x442;&#x43E;&#x43C;_13_&#x43A;&#x43E;&#x43F;&#x438;&#x44F;_2">
			<g>
				<path style="fill-rule:evenodd;clip-rule:evenodd;fill:#7593B4;" d="M334.635,316.332c0.057-0.085,15.908-9.93,19.59-31.769
					c2.941-17.14-1.87-33.604-7.32-43.039c-6.412-11.198-19.436-15.787-19.46-15.772c0.119-0.088,21.728,25.199,21.335,44.563
					C348.525,296.86,336.219,315.115,334.635,316.332z M372.067,267.106c-0.233-7.038-1.188-13.993-3.164-19.901
					c-0.461-1.38-1.028-2.895-1.688-4.495c0,0.001,0.006,0.009,0.006,0.009s-0.007-0.013-0.012-0.021
					c-2.871-6.954-7.514-15.526-12.979-21.781c-7.938-9.126-17.188-14.11-17.189-14.11c-0.161,0.009-0.325,0.019-0.486,0.027
					c-12.024-7.98-31.418-15.763-62.441-14.14c-21.827,1.097-41.714,6.056-59.339,6.821c-23.554,1.024-42.724-3.032-53.806-10.667
					c-12.454-8.685-9.924-24.432-4.514-35.642c2.427-5.029,5.44-9.062,7.872-11.83c7.231-5.714,27.616-21.163,60.31-40.828
					c19.549-11.759,24.24-38.363,24.24-38.363s-15.123,23.51-38.186,39.37c-14.036,9.651-30.385,18.674-47.919,32.478
					c-19.287,15.182-19.766,30.243-19.266,35.364c-0.125,1.158-0.199,2.337-0.185,3.549c0.135,21.948,27.873,43.639,48.949,45.091
					c13.689,0.943,39.888-1.594,66.846-5.721c8.015-1.185,15.785-3.581,25.826-1.759c11.102,2,24.67,6.063,24.654,6.074
					c-0.04,0.027,2.149-6.992,14.879-4.451c8.779,4.646,22.089,12.414,27.748,19.188c13.268,15.454,12.796,38.828,12.688,46.267
					c-0.255,14.4-6.285,27.021-8.95,31.879c-17.846,32.507-23.783,41.018-24.861,42.406c2.672-2.756,35.401-32.74,39.748-64.343
					C371.806,281.273,372.3,274.147,372.067,267.106z M331.101,351.92c-0.103,0.105-0.175,0.184-0.186,0.208
					C330.891,352.172,330.945,352.119,331.101,351.92z"/>
			</g>
		</g>
		
			<g id="&#x417;&#x430;&#x43B;&#x438;&#x432;&#x43A;&#x430;_&#x446;&#x432;&#x435;&#x442;&#x43E;&#x43C;_14_&#x43A;&#x43E;&#x43F;&#x438;&#x44F;_2">
			<g>
				<path style="fill-rule:evenodd;clip-rule:evenodd;fill:#FFFFFF;" d="M138.414,159.88c0,0-2.557-2.979-4.703,1.754
					c-4.807,11.442,1.32,19.723,4.78,4.67C139.137,163.511,138.914,161.868,138.414,159.88z M149.747,199.418
					c-12.122-15.286-11.546-11.102-11.384-8.737c0.181,2.646,3.054,6.521,5.071,8.923
					C147.629,204.617,157.401,206.458,149.747,199.418z M325.67,214.439c-6.574-3.686-9.039-1.363-0.911,3.944
					C330.932,222.415,332.244,218.124,325.67,214.439z M343.701,227.105c-5.301-5.404-6.424-0.256-2.24,3.83
					C348.406,237.72,352.509,236.083,343.701,227.105z M358.76,262.582c1.064-0.234,2.278-4.954,0.641-10.934
					c-1.343-4.904-3.79-7.582-4.694-7.657c-1.224-0.101-0.45,3.535,1.146,9.502C357.175,258.432,357.79,262.797,358.76,262.582z
					 M359.515,271.835c-0.963-0.177-1.459,3.598-2.194,9.412c-0.849,6.713-0.587,9.58,0.46,9.802
					c1.266,0.269,2.25-5.021,3.082-8.979C361.81,277.56,360.728,272.059,359.515,271.835z M352.741,300.315
					c-1.21-0.399-3.103,4.142-5.645,8.619c-2.126,3.746-5.231,8.471-4.405,9.272c1.148,1.115,5.395-2.222,7.88-7.094
					C352.708,306.927,353.95,300.715,352.741,300.315z M331.157,332.105c-3.377,3.506-5.372,8.289-4.47,9.061
					c0.961,0.822,4.633-2.675,8.611-6.814c3.307-3.438,4.109-6.242,3.275-6.951C337.558,326.538,334.602,328.529,331.157,332.105z
					 M313.332,356.425c-5.145,5.763-1.678,7.978,5.682-0.355C325.256,349,320.393,348.517,313.332,356.425z M299.223,385.398
					c-1.207,6.305,1.711,16.875,2.954,17.119c1.036,0.204-0.339-8.36,1.082-16.805c1.251-7.429,4.939-13.506,3.835-14.29
					C306.031,370.668,300.926,376.507,299.223,385.398z M143.415,137.565c-5.034,6.063-6.567,12.709-4.652,12.537
					c1.637-0.146,3.927-3.834,8.771-8.948c4.135-4.365,9.014-8.596,7.926-9.161C154.009,131.239,146.897,133.371,143.415,137.565z
					 M197.029,105.063c-4.119-1.166-9.809,0.006-17.382,3.311c-6.694,2.922-13.504,6.98-17.239,12.503
					c-2.194,3.244,8.109-2.268,18.119-7.069C189.895,109.313,199.02,105.627,197.029,105.063z"/>
			</g>
		</g>
		
			<g id="&#x417;&#x430;&#x43B;&#x438;&#x432;&#x43A;&#x430;_&#x446;&#x432;&#x435;&#x442;&#x43E;&#x43C;_9_&#x43A;&#x43E;&#x43F;&#x438;&#x44F;_2">
			<g>
				<path style="fill-rule:evenodd;clip-rule:evenodd;fill:#A5CAE3;" d="M229.435,98.223c-2.338-1.195-4.921-1.833-7.499-2.286
					c-1.295-0.195-2.598-0.338-3.905-0.416c-0.652-0.025-1.304-0.036-1.956-0.032c-0.652,0.003-1.303,0.021-1.953,0.05
					c-5.202,0.258-10.239,1.657-14.788,3.857c-4.314,2.214-8.532,4.195-12.945,6.078c-4.411,1.823-8.893,3.538-13.629,4.814
					c4.886,0.458,9.9-0.443,14.715-1.693c4.822-1.246,9.554-3.152,13.915-5.27c4.218-1.957,8.668-3.374,13.337-4.271
					C219.411,98.214,224.289,97.825,229.435,98.223z M190.405,114.144c-5.36,0.214-10.584,1.87-15.165,4.503
					c-4.324,2.34-8.671,4.52-13.204,6.219c-2.262,0.863-4.568,1.587-6.938,2.112c-2.37,0.474-4.803,0.872-7.323,0.621
					c2.074,1.469,4.788,1.971,7.423,2.054c2.665,0.087,5.366-0.299,7.968-0.95c5.211-1.354,10.031-3.774,14.288-6.669
					c4.004-2.605,8.483-4.47,13.322-5.271c4.824-0.761,9.989-0.631,15.046,0.815c-2.274-1.321-4.834-2.188-7.437-2.761
					C195.772,114.251,193.079,114.018,190.405,114.144z M148.976,149.45c-1.544,0.756-3.09,1.453-4.619,1.959
					c-1.698,0.584-3.269,1.066-4.947,1.492c-1.649,0.395-3.32,0.765-4.986,0.852c-1.672,0.122-3.369,0.067-4.977-0.6
					c0.905,1.562,2.708,2.366,4.484,2.875c1.826,0.45,3.768,0.576,5.691,0.433c1.902-0.112,3.884-0.504,5.686-0.957
					c1.981-0.517,3.816-1.281,5.547-2.14c3.46-1.731,6.548-3.856,9.385-6.175c2.805-2.356,5.421-4.862,7.548-7.78
					c-3.333,1.562-6.434,3.319-9.553,5.035C155.139,146.176,152.065,147.927,148.976,149.45z M152.904,169.11
					c0.458-1.644,0.753-3.32,0.66-5.003c-2.108,2.85-3.999,5.536-6.055,8.048c-2.037,2.496-4.214,4.826-6.647,6.685
					c-2.664,1.962-5.449,3.572-8.367,4.075c-2.899,0.55-5.922-0.396-8.163-2.512c0.816,3.076,3.806,5.483,7.798,5.572
					c3.975,0.097,7.933-1.741,11.052-3.763c3.426-2.188,5.999-5.129,7.731-8.263C151.781,172.383,152.455,170.763,152.904,169.11z
					 M158.78,185.808c0.323,3.052,0.714,5.895,0.958,8.7c0.227,2.799,0.326,5.535-0.018,8.186c-0.196,1.337-0.425,2.631-0.887,3.775
					c-0.452,1.082-1.144,2.106-2.161,2.994c-2.044,1.804-5.217,3.029-8.582,3.906c1.576,0.445,3.324,0.513,5.123,0.336
					c1.797-0.189,3.701-0.706,5.463-1.716c1.768-1,3.282-2.517,4.224-4.225c0.118-0.232,0.235-0.464,0.353-0.696
					c0.081-0.183,0.162-0.365,0.244-0.548c0.214-0.492,0.31-0.834,0.45-1.261c0.256-0.813,0.436-1.632,0.556-2.447
					c0.479-3.268,0.043-6.429-0.959-9.305C162.53,190.638,161.023,187.957,158.78,185.808z M197.111,206.643
					c-0.381-0.557-0.864-1.197-1.264-1.665c-0.231-0.274-0.461-0.549-0.692-0.823c-0.239-0.274-0.503-0.531-0.764-0.79
					c-1.062-1.02-2.278-1.908-3.62-2.587c-2.668-1.345-5.778-2.075-8.888-1.449c2.355,1.724,4.387,3.169,6.293,4.68
					c1.894,1.522,3.628,2.975,5.236,4.884c1.582,1.842,2.966,3.826,4.05,5.988c1.073,2.165,1.933,4.481,2.253,7.035
					c1.118-2.412,1.176-5.176,0.673-7.8C199.873,211.473,198.697,208.927,197.111,206.643z M238.129,206.447
					c-0.229-0.3-0.448-0.566-0.643-0.782c-0.05-0.059-0.101-0.117-0.152-0.176c-0.075-0.081-0.15-0.161-0.226-0.242
					c-0.143-0.153-0.291-0.295-0.44-0.435c-0.604-0.547-1.244-0.993-1.889-1.378c-2.604-1.494-5.293-2.182-7.97-2.538
					c-2.681-0.311-5.375-0.308-8.039,0.377c2.472,1.245,4.88,2.125,7.219,3.013c2.32,0.875,4.628,1.69,6.519,2.668
					c0.47,0.238,0.901,0.49,1.27,0.744c0.093,0.062,0.186,0.124,0.267,0.187c0.021,0.016,0.042,0.031,0.063,0.047
					c0.005,0.004,0.01,0.008,0.015,0.012c-0.01-0.012,0.036,0.034-0.021-0.023c0.003,0.003,0.007,0.006,0.011,0.009
					c0.015,0.014,0.029,0.026,0.043,0.04c0.059,0.053,0.117,0.105,0.175,0.158c0.211,0.192,0.422,0.385,0.633,0.576
					c0.794,0.735,1.533,1.559,2.168,2.42c1.25,1.731,2.185,3.769,2.157,6.17c1.652-1.857,1.799-4.762,0.857-7.271
					C239.688,208.743,238.991,207.556,238.129,206.447z M277.805,201.28c-0.84-1.035-1.98-2-3.117-2.739
					c-2.315-1.509-4.849-2.399-7.362-2.885c-2.522-0.45-5.071-0.559-7.524-0.027c2.343,1.127,4.554,2.074,6.664,3.078
					c2.102,0.986,4.096,2.004,5.811,3.17c0.867,0.6,1.6,1.17,2.338,1.903c0.586,0.576,1.213,1.336,1.662,2.117
					c0.926,1.597,1.41,3.618,1.463,5.971c1.816-1.522,2.639-4.112,2.012-6.794C279.428,203.72,278.787,202.475,277.805,201.28z
					 M311.26,205.007c1.116,1.637,1.958,3.782,2.493,5.994c0.544,2.24,0.894,4.601,1.159,7.103c1.252-2.13,1.869-4.602,1.951-7.187
					c0.052-2.6-0.451-5.335-2.051-7.98c-1.456-2.358-3.537-4.405-5.92-5.894c-2.4-1.443-5.107-2.485-7.897-2.444
					c2.13,1.813,3.997,3.437,5.703,5.144C308.409,201.426,309.923,203.146,311.26,205.007z M332.722,223.501
					c-0.793,2.176-1.583,4.348-2.368,6.516c2.028-1.345,3.689-3.095,5.089-5.063c1.385-1.99,2.513-4.189,3.054-6.833
					c0.547-2.572,0.195-5.429-0.86-7.827c-1.081-2.4-2.717-4.552-5.009-5.92c0.682,2.483,1.283,4.682,1.62,6.827
					c0.354,2.146,0.45,4.111,0.162,6.132C334.12,219.283,333.457,221.409,332.722,223.501z M355.54,239.055
					c0.377-0.514,0.799-1.234,1.046-1.688c0.332-0.672,0.58-1.205,0.808-1.843c0.452-1.233,0.734-2.526,0.848-3.822
					c0.18-2.578-0.233-5.246-1.726-7.331c-0.404,2.512-0.903,4.682-1.596,6.739c-0.337,1.025-0.722,2.012-1.156,2.971
					c-0.204,0.461-0.465,0.996-0.664,1.377c-0.312,0.586-0.479,0.887-0.785,1.334c-1.118,1.703-2.609,3.288-4.248,4.814
					c-1.648,1.525-3.432,2.994-5.321,4.541c2.472-0.182,4.822-0.971,7.006-2.131C351.926,242.841,353.966,241.23,355.54,239.055z
					 M369.938,252.352c-1.29,2.229-2.383,4.33-3.585,6.23c-0.599,0.941-1.22,1.828-1.875,2.592
					c-0.334,0.377-0.666,0.736-1.014,1.045c-0.174,0.151-0.351,0.3-0.527,0.432c-0.044,0.034-0.089,0.069-0.133,0.104
					c-0.011,0.008-0.021,0.017-0.032,0.025c-0.003,0.002-0.005,0.004-0.008,0.006c0.007-0.004,0,0.001-0.004,0.004
					c-0.027,0.018-0.054,0.036-0.081,0.054l-0.369,0.249c-1.649,1.085-3.641,1.895-5.755,2.417c-2.134,0.53-4.407,0.821-6.871,0.977
					c2.104,1.32,4.574,1.928,7.086,1.966c2.526,0.023,5.113-0.624,7.473-2.09c0.124-0.08,0.249-0.161,0.373-0.241
					c0.08-0.055,0.16-0.109,0.24-0.163c0.075-0.056,0.15-0.11,0.226-0.165c0.308-0.214,0.575-0.47,0.844-0.717
					c0.537-0.499,0.991-1.053,1.396-1.624c0.82-1.138,1.394-2.365,1.83-3.598c0.419-1.236,0.712-2.49,0.853-3.746
					c0.07-0.628,0.103-1.257,0.093-1.883C370.086,253.598,370.034,252.973,369.938,252.352z M359.657,294.207
					c-1.582,0.318-3.276,0.375-5.047,0.246c-1.777-0.124-3.612-0.403-5.579-0.783c1.289,1.551,2.988,2.676,4.848,3.444
					c1.868,0.752,3.972,1.104,6.125,0.849c2.203-0.295,4.195-1.089,5.928-2.503c1.674-1.392,3.077-3.369,3.233-5.58
					c-1.766,1.216-3.298,1.997-4.844,2.701C362.801,293.229,361.18,293.892,359.657,294.207z M346.605,320.469
					c-2.269,0.887-4.781,1.447-7.35,1.786c-2.584,0.332-5.253,0.48-8.055,0.475c2.438,1.358,5.174,2.072,7.965,2.329
					c2.803,0.231,5.686-0.022,8.528-0.983c2.75-0.948,5.266-2.319,7.541-4.146c2.218-1.835,4.278-4.064,5.318-6.828
					c-2.4,1.554-4.658,2.835-6.968,4.053C351.297,318.341,348.942,319.511,346.605,320.469z M331.123,342.325
					c-0.729,0.14-1.465,0.23-2.205,0.303c-0.213,0.024-0.426,0.049-0.639,0.074c-0.228,0.032-0.456,0.065-0.684,0.099
					c-0.441,0.07-0.883,0.15-1.322,0.247c-3.519,0.775-6.877,2.547-9.581,4.985c-2.679,2.455-4.875,5.468-6.034,8.873
					c4.736-5.201,10.291-8.828,16.156-9.956c0.365-0.077,0.732-0.138,1.099-0.193c0.176-0.023,0.353-0.048,0.528-0.071
					c0.191-0.02,0.383-0.039,0.575-0.06c0.879-0.111,1.759-0.229,2.627-0.453c1.737-0.418,3.433-1.105,5.001-2.01
					c1.568-0.915,2.996-2.065,4.222-3.381c1.21-1.318,2.278-2.787,2.896-4.437c-2.705,2.145-5.461,3.725-8.314,4.786
					C334.025,341.666,332.584,342.062,331.123,342.325z M318.41,360.536c-0.828,0.407-1.656,0.815-2.486,1.226
					c-1.751,0.893-3.4,1.94-4.984,3.097c-3.155,2.326-6.004,5.07-8.518,8.117c-2.525,3.028-4.769,6.348-6.527,9.961
					c2.621-2.932,5.335-5.639,8.109-8.183c2.803-2.506,5.684-4.825,8.699-6.766c1.5-0.977,3.047-1.854,4.593-2.606
					c0.831-0.387,1.661-0.771,2.49-1.155c0.845-0.429,1.684-0.875,2.501-1.372c3.225-1.997,6.418-4.527,8.369-8.081
					c-3.443,1.649-6.62,3.054-9.837,4.609C320.018,359.767,319.215,360.15,318.41,360.536z"/>
			</g>
		</g>
		<g id="&#x424;&#x438;&#x433;&#x443;&#x440;&#x430;_32" style="opacity:0.502;">
			<g>
				<path style="fill-rule:evenodd;clip-rule:evenodd;fill:#3B5A79;" d="M241.237,195.985c-41.635,8.475-72.463-1.776-72.463-1.776
					s4.229,8.48,17.321,13.312c13.372,4.935,35.814,6.157,55.408-0.194c48.328-15.666,79.567,5.827,93.226,2.952
					C343.629,205.148,306.805,182.64,241.237,195.985z"/>
			</g>
		</g>
		
			<g id="&#x417;&#x430;&#x43B;&#x438;&#x432;&#x43A;&#x430;_&#x446;&#x432;&#x435;&#x442;&#x43E;&#x43C;_20_&#x43A;&#x43E;&#x43F;&#x438;&#x44F;">
			<g>
				<path style="fill-rule:evenodd;clip-rule:evenodd;fill:#81A2C3;" d="M397.437,414.257c-18.909-2.902-33.573,6.167-42.798,9.227
					s-30.4,9.676-36.793-6.557l-0.365-0.924c-4.785-12.14-6.768-17.163-2.043-31.942c3.691-11.543,12.093-22.563,23.572-35.557
					l1.364-1.541c15.675-17.684,48.293-54.479,30.54-105.262c-6.292-17.995-24.586-36.389-45.521-45.768
					c-11.417-5.115-24.817-7.819-38.748-7.819c-7.453,0-14.92,0.759-22.193,2.254c-17.72,3.642-33.136,5.556-53.213,6.607
					c-1.994,0.104-4.023,0.157-6.031,0.157c-11.641,0.001-33.019-1.865-45.409-14.358c-4.371-4.407-4.977-10.224-4.716-14.326
					c0.597-9.382,6.171-19.271,14.549-25.807c12.015-9.377,23.95-17.152,37.77-26.155c3.064-1.997,6.211-4.048,9.459-6.181
					c25.503-16.751,40.54-42.33,38.599-58.408h-13.047c-0.082,16.055-17.566,27.45-41.011,40.033
					c-4.53,2.431-9.289,4.832-13.892,7.154c-18.248,9.207-37.117,18.728-50.667,34.138c-22.245,24.438-22.846,51.257-1.651,73.582
					c11.271,11.871,30.225,17.891,56.335,17.892h0.008c18.31,0,40.47-2.971,65.861-8.83c6.832-1.576,13.557-2.376,19.985-2.376
					c41.407,0,62.882,32.605,66.795,48.396c6.871,27.729-8.661,49.008-25.104,71.536c-8.627,11.818-17.547,24.039-22.869,37.229
					c-6.867,17.015-7.641,41.297,10.783,58.421c6.717,6.243,16.776,9.734,24.688,9.734c16.826,0.834,27.295-5.224,36.288-9.303
					c8.993-4.08,23.012-7.889,34.25,1.568c7.29,6.135,4.458,25.288,4.095,27.552h8.499l1.067-1.067
					C416.646,453.616,422.888,418.163,397.437,414.257z M312.034,423.639c-19.718-18.327-11.84-43.066-8.955-50.213
					c4.978-12.335,13.622-24.179,21.982-35.632c16.724-22.911,34.016-46.603,26.313-77.692
					c-5.559-22.434-32.191-54.028-73.995-54.028c-6.989,0-14.274,0.863-21.654,2.566c-24.845,5.732-46.443,8.64-64.192,8.64h-0.007
					c-23.998-0.001-41.141-5.243-50.957-15.582c-18.446-19.429-17.822-41.974,1.799-63.529
					c12.646-14.38,30.863-23.572,48.481-32.461c4.644-2.344,9.445-4.766,14.058-7.242c18.57-9.966,31.396-23.532,40.182-32.146
					c-3.696,10.896-14.929,26.377-32.302,37.788c-3.239,2.128-6.378,4.173-9.436,6.165c-13.961,9.096-26.019,16.952-38.284,26.521
					c-9.998,7.803-16.661,19.751-17.387,31.184c-0.505,7.946,1.928,15.056,6.851,20.02c13.568,13.682,35.047,16.555,50.675,16.555
					c2.137,0,4.297-0.057,6.42-0.168c20.202-1.058,36.447-3.077,54.316-6.75c6.785-1.395,13.748-2.102,20.701-2.102
					c12.894,0,25.244,2.479,35.714,7.171c18.895,8.464,35.981,25.508,41.553,41.447c16.317,46.673-13.219,79.993-29.087,97.893
					l-1.375,1.551c-12.098,13.695-20.992,25.436-25.076,38.208c-5.53,17.299-2.781,24.269,2.208,36.923l0.364,0.921
					c0.99,2.515,2.365,4.633,3.986,6.415C313.952,425.33,312.986,424.523,312.034,423.639z"/>
			</g>
		</g>
	</g>
	
		<g id="&#x417;&#x430;&#x43B;&#x438;&#x432;&#x43A;&#x430;_&#x446;&#x432;&#x435;&#x442;&#x43E;&#x43C;_30_&#x43A;&#x43E;&#x43F;&#x438;&#x44F;">
		<g>
			<path style="fill-rule:evenodd;clip-rule:evenodd;fill:#5B5264;" d="M378.427,76.772
				c-35.786,12.146-184.683,192.193-184.683,192.193s8.46,20.16,4.633,36.69c-5.224,22.567-21.692,37.989-28.275,46.843
				c-6.583,8.854,3.662,30.41,3.662,30.41s4.32,14.402-0.341,26.458c-3.563,9.216-14.817,14.475-14.817,14.475
				s1.321,26.262,19.817,31.607c7.742,2.237,18.391-1.081,26.068-4.469c6.851-3.023,19.523-4.702,19.523-4.702
				s-8.136-15.601-7.68-28.365c0.628-17.598,8.561-35.561,8.561-35.561s-5.404-0.479-11.081,2.317
				c-6.363,3.134-12.749,7.137-16.522,3.528c-9.562-9.146-6.516-38.48-6.516-38.48l92.336-132.327l-2.665-20.967l15.882,1.782
				l46.342-67.821l-2.256-11.482l13.757-5.562C354.173,113.341,376.969,79.396,378.427,76.772z M195.088,404.882
				c5.517,7.046,8.745,16.134,4.16,25.829c-2.5,5.287-11.605,15.168-22.563,2.819c0,0,6.1-6.317,11.158-14.814
				C191.959,411.801,191.122,399.814,195.088,404.882z"/>
		</g>
	</g>
	<g id="&#x424;&#x438;&#x433;&#x443;&#x440;&#x430;_30">
		<g>
			<path style="fill-rule:evenodd;clip-rule:evenodd;fill:#4D3C5F;" d="M170.01,351.201c0,0,1.018,16.935,7.252,20.434
				c9.436,5.296,11.522-7.546,11.522-7.546S186.188,350.646,170.01,351.201z"/>
		</g>
	</g>
	<g id="&#x424;&#x438;&#x433;&#x443;&#x440;&#x430;_31">
		<g>
			<path style="fill-rule:evenodd;clip-rule:evenodd;fill:#4D3C5F;" d="M201.347,417.073c0,0,2.437,18.329-12.431,21.306
				c-7.509,1.503-16.681-5.591-16.681-5.591s3.233,21.549,24.808,12.765c7.223-2.94,13.006-11.65,11.248-16.318
				C206.594,424.727,201.347,417.073,201.347,417.073z M204.166,388.922c-6.11,0.36-11.163-4.344-11.163-4.344
				c5.748,28.74,25.218-1.483,25.218-1.483S210.653,388.541,204.166,388.922z"/>
		</g>
	</g>
	<g id="&#x424;&#x438;&#x433;&#x443;&#x440;&#x430;_28">
		<g>
			<path style="fill-rule:evenodd;clip-rule:evenodd;fill:#B6CFDD;" d="M177.787,352.418c10.172-10.74,20.931-24.727,24.912-34.676
				c5.592-13.975,5.125-24.694,4.945-25.759l-14.395-22.369c0,0,8.261,20.602,3.137,39.537c-5.011,18.516-23.41,35.375-23.41,35.375
				s-6.399,5.978-5.928,16.351c0.47,10.333,4.896,23.691,7.022,29.578c0.617,5.435,0.788,12.014-0.877,17.186
				c-3.594,11.159-15.05,16.247-15.05,16.247s9.549,7.788,18.774-3.013c7.611-8.754,9.476-29.69,0.667-46.154
				C172.771,365.726,174.095,356.316,177.787,352.418z M192.261,400.896c0,0,8.465,11.062,8.271,20.755
				c-0.176,8.807-9.013,16.33-9.013,16.33s17.745,0.549,17.561-17.118C208.954,408.818,201.8,402.328,192.261,400.896z"/>
		</g>
	</g>
	<g id="&#x424;&#x438;&#x433;&#x443;&#x440;&#x430;_29">
		<g>
			<path style="fill-rule:evenodd;clip-rule:evenodd;fill:#7E429A;" d="M178.195,447.783c-14.211-4.849-7.907-16.71-20.794-23.896
				c-2.503,4.219,3.749,25.653,17.563,30.366c9.232,3.15,21.275-0.089,30.765-3.322c8.304-2.829,10.73-3.727,14.717-5.534
				C211.082,432.14,195.247,453.601,178.195,447.783z M187.115,370.856c0.307,1.613,0.672,3.075,1.074,4.425
				C187.597,372.603,187.115,370.856,187.115,370.856z M198.162,411.165c0.832,1.866,1.516,3.081,1.516,3.081
				S199.063,412.798,198.162,411.165z M190.326,394.168c-0.485,8.473-2.376,17.992-2.376,17.992s2.939-6.098,6.205-5.517
				c1.372,0.244,2.904,2.521,4.007,4.521c-1.527-3.428-3.556-9.063-2.778-13.471c1.006-5.701,7.957-7.971,7.957-7.971
				s-10.457,1.322-15.151-14.442C189.255,380.099,190.682,387.943,190.326,394.168z M215.254,414.987c0,0,0.457-6.81,1.925-14.596
				c1.452-7.696,3.916-16.37,3.916-16.37s-11.076,4.517-11.596,13.244C208.714,410.427,215.254,414.987,215.254,414.987z"/>
		</g>
	</g>
	<g id="&#x424;&#x438;&#x433;&#x443;&#x440;&#x430;_25">
		<g>
			<path style="fill-rule:evenodd;clip-rule:evenodd;fill:#7E429A;" d="M264.984,211.159
				c-37.818,54.274-59.331,101.706-63.364,109.03c-4.033,7.324-10.101,25.82-10.101,25.82l89.004-127.572l-0.742-21.51h15.576
				l45.568-66.335l-2.365-11.543l13.907-5.934c0,0,8.009-24.284,18.636-31.104C352.167,94.166,313.406,141.666,264.984,211.159z"/>
		</g>
	</g>
	<g id="&#x424;&#x438;&#x433;&#x443;&#x440;&#x430;_26">
		<g>
			<path style="fill-rule:evenodd;clip-rule:evenodd;fill:#81A2C3;" d="M373.235,78.998l-23.3,28.384l-16.783,8.304l0.67,13.563
				l-42.734,60.257l-16.99,1.28l0.387,22.185c0,0-59.518,87.396-68.151,100.131c-1.611,2.377-20.748,40.325-20.748,40.325
				l8.158-11.867l87.521-123.122l-1.483-22.993l14.834,2.226l45.985-66.753l-1.483-13.351l14.093-4.45L373.235,78.998z"/>
		</g>
	</g>
	<g id="&#x424;&#x438;&#x433;&#x443;&#x440;&#x430;_27">
		<g>
			<path style="fill-rule:evenodd;clip-rule:evenodd;fill:#B6CFDD;" d="M370.269,79.74c0,0-46.044,38.027-94.861,93.562
				c-40.766,46.375-83.146,93.346-83.146,93.346s5.144,12.523,5.699,24.556c0.557,12.072-4.586,28.986-4.586,28.986
				s13.677-15.451,14.271-28.206c0.548-11.775-1.755-20.7-1.755-20.7s38.487-50.42,78.759-96.888
				C326.311,126.324,370.269,79.74,370.269,79.74z"/>
		</g>
	</g>
	<g id="&#x417;&#x430;&#x43B;&#x438;&#x432;&#x43A;&#x430;_&#x446;&#x432;&#x435;&#x442;&#x43E;&#x43C;_31">
		<g>
			<path style="fill-rule:evenodd;clip-rule:evenodd;fill:#29213B;" d="M379.931,74.569c-0.983-1.177-2.588-1.629-4.04-1.135
				c-36.363,12.341-180.242,185.956-186.349,193.34c-0.878,1.063-1.095,2.526-0.561,3.8c0.08,0.189,7.956,19.23,4.44,34.419
				c-3.971,17.152-14.676,29.859-22.492,39.138c-2.014,2.391-3.753,4.455-5.146,6.329c-7.442,10.01,1.524,30.425,3.151,33.921
				c0.498,1.84,3.512,13.928-0.313,23.821c-2.968,7.678-12.835,12.408-12.928,12.453c-1.366,0.637-2.21,2.039-2.135,3.546
				c0.06,1.179,1.693,28.971,22.491,34.983c2.009,0.58,4.256,0.875,6.677,0.875c7.79,0,16.219-2.999,21.917-5.514
				c6.281-2.771,18.394-4.402,18.516-4.419c1.199-0.159,2.245-0.894,2.802-1.967c0.558-1.073,0.557-2.352-0.002-3.425
				c-0.077-0.146-7.679-14.865-7.263-26.518c0.594-16.646,8.172-34.022,8.248-34.196c0.48-1.088,0.393-2.344-0.208-3.369
				c-0.601-1.027-1.673-1.705-2.857-1.82c0,0-0.472-0.047-1.3-0.047c-2.317,0-6.925,0.354-11.748,2.73
				c-0.777,0.383-1.555,0.778-2.329,1.172c-3.288,1.672-6.686,3.401-8.812,3.401c-0.703,0-0.977-0.205-1.178-0.398
				c-5.825-5.569-6.457-23.681-5.482-34.476l91.779-131.528c0.527-0.755,0.755-1.678,0.639-2.59l-2.071-16.289l11.196,1.256
				c1.366,0.156,2.7-0.461,3.476-1.593l46.342-67.821c0.561-0.821,0.768-1.832,0.576-2.807l-1.666-8.478l10.917-4.413
				c0.688-0.278,1.276-0.756,1.688-1.372c2.343-3.487,22.927-34.15,24.417-36.832C381.069,77.408,380.913,75.748,379.931,74.569z
				 M350.383,110.502l-12.701,5.135c-1.648,0.666-2.594,2.409-2.25,4.153l1.957,9.958l-44.206,64.696l-13.667-1.533
				c-1.128-0.132-2.256,0.271-3.053,1.082c-0.8,0.811-1.183,1.942-1.039,3.071l2.486,19.55l-91.519,131.154
				c-0.359,0.516-0.583,1.114-0.647,1.74c-0.331,3.187-2.928,31.434,7.642,41.542c1.704,1.63,3.824,2.455,6.305,2.455
				c3.904,0,7.922-2.044,12.175-4.208c0.745-0.38,1.495-0.761,2.243-1.129c1.306-0.643,2.602-1.079,3.786-1.371
				c-2.486,6.898-6.177,19.018-6.611,31.157c-0.332,9.321,3.439,19.758,5.953,25.607c-4.5,0.805-11.097,2.218-15.587,4.197
				c-7.134,3.148-13.854,4.883-18.923,4.883c-1.725,0-3.278-0.196-4.617-0.583c-12.778-3.693-16.104-19.916-16.906-25.956
				c3.856-2.253,11.324-7.438,14.335-15.227c5.061-13.09,0.625-28.223,0.434-28.86c-0.054-0.18-0.122-0.356-0.202-0.525
				c-3.585-7.563-7.85-21.476-4.036-26.607c1.258-1.691,2.93-3.676,4.867-5.974c7.833-9.299,19.671-23.352,24.045-42.245
				c3.345-14.45-1.879-31.017-4.004-36.834c45.432-54.838,130.103-152.257,168.533-181.456
				C360.573,95.296,354.951,103.699,350.383,110.502z M172.672,431.129c-1.343,1.394-1.389,3.588-0.105,5.035
				c4.236,4.773,8.769,7.194,13.474,7.194c7.946,0,13.304-6.846,15.216-10.89c4.531-9.583,2.899-20.13-4.592-29.7
				c-0.511-0.651-2.065-2.638-4.548-2.638c-4.062,0-5.039,4.24-5.984,8.341c-0.633,2.75-1.421,6.17-2.82,8.52
				C178.552,424.989,172.729,431.067,172.672,431.129z M189.686,420.785c1.859-3.123,2.795-6.856,3.521-9.985
				c3.732,6.278,4.188,12.487,1.345,18.499c-1.214,2.568-4.599,6.643-8.511,6.643c-1.778,0-3.646-0.806-5.575-2.399
				C182.805,430.81,186.435,426.245,189.686,420.785z"/>
		</g>
	</g>
	<g id="&#x424;&#x438;&#x433;&#x443;&#x440;&#x430;_15">
		<g>
			<circle style="fill-rule:evenodd;clip-rule:evenodd;fill:#5B5264;" cx="182.688" cy="355.999" r="8.553"/>
		</g>
	</g>
	<g id="&#x424;&#x438;&#x433;&#x443;&#x440;&#x430;_34">
		<g>
			<ellipse style="fill-rule:evenodd;clip-rule:evenodd;fill:#887F92;" cx="184.278" cy="352.472" rx="5.757" ry="5.405"/>
		</g>
	</g>
	<g id="&#x417;&#x430;&#x43B;&#x438;&#x432;&#x43A;&#x430;_&#x446;&#x432;&#x435;&#x442;&#x43E;&#x43C;_33">
		<g>
			<path style="fill-rule:evenodd;clip-rule:evenodd;fill:#29213B;" d="M182.619,344.874c-5.943,0-10.777,4.835-10.777,10.777
				s4.834,10.778,10.777,10.778c5.942,0,10.778-4.836,10.778-10.778S188.561,344.874,182.619,344.874z M182.619,361.979
				c-3.489,0-6.328-2.838-6.328-6.328c0-3.489,2.839-6.327,6.328-6.327c3.49,0,6.328,2.838,6.328,6.327
				C188.946,359.142,186.108,361.979,182.619,361.979z"/>
		</g>
	</g>
	<g id="&#x424;&#x438;&#x433;&#x443;&#x440;&#x430;_35_&#x43A;&#x43E;&#x43F;&#x438;&#x44F;">
		<g>
			<path style="fill-rule:evenodd;clip-rule:evenodd;fill:#FFFFFF;" d="M350.113,231.688c-1.643-3.175-3.029-22.793-3.029-22.793
				s-1.871,20.163-3.414,22.936c-1.545,2.772-10.613,3.854-13.688,4.648c2.346,0.648,12.804,2.604,13.87,5.595
				c1.064,2.989,2.727,25.164,2.727,25.164s2.098-22.616,3.598-25.486c1.501-2.87,9.409-4.979,11.706-5.74
				C359.503,234.727,351.755,234.863,350.113,231.688z M145.404,123.4c-1.642-3.175-3.028-22.793-3.028-22.793
				s-1.871,20.163-3.415,22.936c-1.544,2.773-10.613,3.854-13.688,4.648c2.346,0.648,12.804,2.604,13.87,5.595
				c1.066,2.989,2.728,25.164,2.728,25.164s2.097-22.616,3.598-25.486s9.409-4.979,11.706-5.74
				C154.793,126.438,147.046,126.575,145.404,123.4z"/>
		</g>
	</g>
	<g id="&#x424;&#x438;&#x433;&#x443;&#x440;&#x430;_35_&#x43A;&#x43E;&#x43F;&#x438;&#x44F;_2" style="opacity:0.502;">
		<g>
			<path style="fill-rule:evenodd;clip-rule:evenodd;fill:#FFFFFF;" d="M305.956,381.765c-1.194-2.311-2.204-16.589-2.204-16.589
				s-1.361,14.676-2.485,16.693s-7.724,2.804-9.962,3.383c1.707,0.472,9.318,1.896,10.094,4.071
				c0.775,2.177,1.985,18.315,1.985,18.315s1.526-16.46,2.618-18.55c1.092-2.089,6.849-3.623,8.52-4.178
				C312.79,383.976,307.151,384.075,305.956,381.765z M191.735,196.34c-1.195-2.311-2.205-16.589-2.205-16.589
				s-1.362,14.676-2.485,16.693s-7.724,2.804-9.962,3.383c1.707,0.472,9.319,1.896,10.094,4.071
				c0.775,2.177,1.985,18.315,1.985,18.315s1.526-16.46,2.618-18.549c1.092-2.09,6.848-3.624,8.52-4.179
				C198.569,198.551,192.93,198.65,191.735,196.34z M221.403,82.118c-1.195-2.311-2.205-16.589-2.205-16.589
				s-1.362,14.676-2.485,16.693s-7.724,2.805-9.962,3.383c1.708,0.473,9.319,1.896,10.095,4.072
				c0.775,2.176,1.985,18.314,1.985,18.314s1.526-16.46,2.618-18.549c1.092-2.09,6.848-3.624,8.52-4.178
				C228.237,84.33,222.598,84.429,221.403,82.118z"/>
		</g>
	</g>
</g>
</svg>
