<?xml version="1.0" encoding="iso-8859-1"?>
<!-- Generator: Adobe Illustrator 15.0.0, SVG Export Plug-In . SVG Version: 6.00 Build 0)  -->
<!DOCTYPE svg PUBLIC "-//W3C//DTD SVG 1.1//EN" "http://www.w3.org/Graphics/SVG/1.1/DTD/svg11.dtd" [
	<!ENTITY ns_extend "http://ns.adobe.com/Extensibility/1.0/">
	<!ENTITY ns_ai "http://ns.adobe.com/AdobeIllustrator/10.0/">
	<!ENTITY ns_graphs "http://ns.adobe.com/Graphs/1.0/">
	<!ENTITY ns_vars "http://ns.adobe.com/Variables/1.0/">
	<!ENTITY ns_imrep "http://ns.adobe.com/ImageReplacement/1.0/">
	<!ENTITY ns_sfw "http://ns.adobe.com/SaveForWeb/1.0/">
	<!ENTITY ns_custom "http://ns.adobe.com/GenericCustomNamespace/1.0/">
	<!ENTITY ns_adobe_xpath "http://ns.adobe.com/XPath/1.0/">
]>
<svg version="1.1" xmlns:x="&ns_extend;" xmlns:i="&ns_ai;" xmlns:graph="&ns_graphs;"
	 xmlns="http://www.w3.org/2000/svg" xmlns:xlink="http://www.w3.org/1999/xlink" x="0px" y="0px" width="512px" height="512px"
	 viewBox="0 0 512 512" style="enable-background:new 0 0 512 512;" xml:space="preserve">
<metadata>
	<sfw  xmlns="&ns_sfw;">
		<slices></slices>
		<sliceSourceBounds  height="512" width="512" x="94" y="94" bottomLeftOrigin="true"></sliceSourceBounds>
	</sfw>
</metadata>
<g id="&#x438;&#x433;&#x440;&#x43E;&#x432;&#x44B;&#x435;_1_">
	<g id="&#x417;&#x430;&#x43B;&#x438;&#x432;&#x43A;&#x430;_&#x446;&#x432;&#x435;&#x442;&#x43E;&#x43C;_1">
		<g>
			<rect x="3.699" y="4.439" style="fill-rule:evenodd;clip-rule:evenodd;fill:#B17D7B;" width="503.121" height="503.121"/>
		</g>
	</g>
	<g id="&#x417;&#x430;&#x43B;&#x438;&#x432;&#x43A;&#x430;_&#x446;&#x432;&#x435;&#x442;&#x43E;&#x43C;_5">
		<g>
			<path style="fill-rule:evenodd;clip-rule:evenodd;fill:#F3D4C3;" d="M484.624,25.156l20.717-20.717H3.699l20.717,20.717H484.624z
				 M24.416,486.844L3.699,507.561h501.642l-20.717-20.717H24.416z"/>
		</g>
	</g>
	
		<g id="&#x417;&#x430;&#x43B;&#x438;&#x432;&#x43A;&#x430;_&#x446;&#x432;&#x435;&#x442;&#x43E;&#x43C;_1_&#x43A;&#x43E;&#x43F;&#x438;&#x44F;_2">
		<g>
			<radialGradient id="SVGID_1_" cx="256.7402" cy="256" r="228.0762" gradientUnits="userSpaceOnUse">
				<stop  offset="0" style="stop-color:#99708E"/>
				<stop  offset="0.2" style="stop-color:#956D8B"/>
				<stop  offset="0.4182" style="stop-color:#886080"/>
				<stop  offset="0.6121" style="stop-color:#734E6D"/>
				<stop  offset="0.7636" style="stop-color:#573A54"/>
				<stop  offset="0.897" style="stop-color:#40293F"/>
				<stop  offset="1" style="stop-color:#331F32"/>
			</radialGradient>
			<polygon style="fill-rule:evenodd;clip-rule:evenodd;fill:url(#SVGID_1_);" points="432.765,27.924 78.856,27.924 28.664,78.116 
				28.664,435.769 76.972,484.076 433.367,484.076 484.816,432.627 484.816,79.976 			"/>
		</g>
	</g>
	
		<g id="&#x417;&#x430;&#x43B;&#x438;&#x432;&#x43A;&#x430;_&#x446;&#x432;&#x435;&#x442;&#x43E;&#x43C;_1_&#x43A;&#x43E;&#x43F;&#x438;&#x44F;">
		<g>
			<path style="fill-rule:evenodd;clip-rule:evenodd;fill:#F2D2C0;" d="M25.109,24.37v463.26h463.26V24.37H25.109z M466.659,418.566
				l-47.353,47.353H91.283l-44.462-44.462V92.277l46.196-46.196h325.734l47.908,47.907V418.566z"/>
		</g>
	</g>
	<g id="&#x424;&#x438;&#x433;&#x443;&#x440;&#x430;_3">
		<g>
			<path style="fill-rule:evenodd;clip-rule:evenodd;fill:#A18180;" d="M429.873,25.156l-344.047-1.48l-62.15,62.891v342.566
				l59.931,59.19l344.046-0.739l59.931-59.191V84.347L429.873,25.156z M477.226,423.954l-56.231,54.751H91.006l-56.231-54.751
				V88.046l54.012-54.012h334.428l54.751,56.231L477.226,423.954z"/>
		</g>
	</g>
	<g id="&#x417;&#x430;&#x43B;&#x438;&#x432;&#x43A;&#x430;_&#x446;&#x432;&#x435;&#x442;&#x43E;&#x43C;_6">
		<g>
			<path style="fill-rule:evenodd;clip-rule:evenodd;fill:#C7907F;" d="M23.676,86.566l62.52-62.752l-62.52-0.139V86.566z
				 M487.584,23.63l-62.521,0.139l62.521,62.752V23.63z M22.196,488.37l62.521-0.139l-62.521-62.752V488.37z M425.803,488.971
				l62.521,0.139v-62.89L425.803,488.971z"/>
		</g>
	</g>
	
		<g id="&#x417;&#x430;&#x43B;&#x438;&#x432;&#x43A;&#x430;_&#x446;&#x432;&#x435;&#x442;&#x43E;&#x43C;_6_&#x43A;&#x43E;&#x43F;&#x438;&#x44F;">
		<g>
			<path style="fill-rule:evenodd;clip-rule:evenodd;fill:#FDECE7;" d="M27.964,485.886l56.753,2.346L55.27,458.579L27.964,485.886z
				 M54.694,55.434l31.502-31.619l-59.314,3.562L54.694,55.434z M485.117,26.582l-60.054-2.813l31.376,31.491L485.117,26.582z
				 M425.803,488.971l59.314-3.113l-28.158-28.158L425.803,488.971z"/>
		</g>
	</g>
	<g id="&#x424;&#x438;&#x433;&#x443;&#x440;&#x430;_1">
		<g>
			<path style="fill-rule:evenodd;clip-rule:evenodd;fill:#C7907F;" d="M34.774,487.769l0.093-9.156h-8.417L34.774,487.769z
				 M477.04,477.873l0.093,9.155l8.323-9.155H477.04z M476.393,25.804l-0.092,9.156h8.416L476.393,25.804z M26.451,34.96h8.417
				l-0.093-9.156L26.451,34.96z"/>
		</g>
	</g>
	<g id="&#x424;&#x438;&#x433;&#x443;&#x440;&#x430;_2">
		<g>
			<path style="fill-rule:evenodd;clip-rule:evenodd;fill:#FDECE7;" d="M22.597,480.813L9.026,497.72l-1.627,10.285l22.418-0.296
				l0.532-18.644l-3.492-6.957L22.597,480.813z M508.448,495.817l-18.855-14.581l-4.261,4.043l-3.068,4.209l2.646,16.529
				l23.688,1.353L508.448,495.817z M21.002,31.648l4.26-1.295l3.492-6.956L28.222,4.754L5.803,4.458l1.628,10.284L21.002,31.648z
				 M487.997,31.226l18.856-14.581l0.147-11.553l-23.687,1.353l-2.646,16.53l3.069,4.208L487.997,31.226z"/>
		</g>
	</g>
	<g id="&#x417;&#x430;&#x43B;&#x438;&#x432;&#x43A;&#x430;_&#x446;&#x432;&#x435;&#x442;&#x43E;&#x43C;_2">
		<g>
			<path style="fill-rule:evenodd;clip-rule:evenodd;fill:#2F181B;" d="M0,0v512h512V0H0z M503.121,503.121H8.878V8.879h494.243
				V503.121z"/>
		</g>
	</g>
	<g id="&#x417;&#x430;&#x43B;&#x438;&#x432;&#x43A;&#x430;_&#x446;&#x432;&#x435;&#x442;&#x43E;&#x43C;_3">
		<g>
			<path style="fill-rule:evenodd;clip-rule:evenodd;fill:#40292E;" d="M482.33,20.67H29.346l-9.369,9.369v397.468
				c-0.119,0.585-0.119,1.188,0,1.771v53.925l9.606,9.605h453.025l9.507-9.507V30.455L482.33,20.67z M28.855,34.183l4.633-4.634
				h40.974L28.855,75.156V34.183z M33.726,483.931l-4.871-4.871v-39.857l44.728,44.729H33.726z M483.237,479.158l-4.772,4.772
				H437.63l45.607-45.607V479.158z M483.237,425.769l-58.162,58.162H86.139l-57.283-57.283V87.711l58.162-58.162h338.058
				l58.162,58.162V425.769z M483.237,75.156L437.63,29.549h40.558l5.05,5.05V75.156z"/>
		</g>
	</g>
	
		<g id="&#x417;&#x430;&#x43B;&#x438;&#x432;&#x43A;&#x430;_&#x446;&#x432;&#x435;&#x442;&#x43E;&#x43C;_4_&#x43A;&#x43E;&#x43F;&#x438;&#x44F;" style="opacity:0.502;">
		<g>
			<path style="fill-rule:evenodd;clip-rule:evenodd;fill:#876867;" d="M465.59,92.913l-47.243-47.244
				c-0.685-0.685-1.612-1.068-2.579-1.068H94.545c-0.968,0-1.896,0.384-2.58,1.068L46.409,91.227
				c-0.684,0.684-1.069,1.611-1.069,2.579v324.619c0,0.968,0.385,1.896,1.069,2.579l43.847,43.847
				c0.684,0.684,1.612,1.068,2.579,1.068h323.479c0.968,0,1.896-0.385,2.579-1.068l46.696-46.696
				c0.685-0.685,1.069-1.612,1.069-2.58V95.493C466.659,94.525,466.274,93.598,465.59,92.913z M459.363,414.063l-44.56,44.56H94.346
				l-41.709-41.709V95.316l43.419-43.419h318.201l45.106,45.106V414.063z"/>
		</g>
	</g>
	<g id="&#x417;&#x430;&#x43B;&#x438;&#x432;&#x43A;&#x430;_&#x446;&#x432;&#x435;&#x442;&#x43E;&#x43C;_4">
		<g>
			<path style="fill-rule:evenodd;clip-rule:evenodd;fill:#40292E;" d="M468.534,90.633l-47.907-47.907
				c-0.693-0.694-1.635-1.084-2.615-1.084H92.277c-0.981,0-1.922,0.39-2.616,1.084L43.465,88.922
				c-0.693,0.693-1.083,1.635-1.083,2.615v329.18c0,0.981,0.39,1.922,1.083,2.615l44.463,44.463
				c0.694,0.693,1.634,1.084,2.615,1.084h328.023c0.981,0,1.922-0.391,2.615-1.084l47.353-47.353
				c0.694-0.694,1.084-1.635,1.084-2.616V93.248C469.618,92.268,469.229,91.326,468.534,90.633z M462.22,416.295l-45.186,45.185
				H92.075L49.78,419.185V93.07l44.029-44.03h322.67l45.74,45.741V416.295z"/>
		</g>
	</g>
</g>
<g id="&#x418;&#x437;&#x43E;&#x431;&#x440;&#x430;&#x436;&#x435;&#x43D;&#x438;&#x435;_xA0_104_1_">
	
		<g id="&#x417;&#x430;&#x43B;&#x438;&#x432;&#x43A;&#x430;_&#x446;&#x432;&#x435;&#x442;&#x43E;&#x43C;_17_&#x43A;&#x43E;&#x43F;&#x438;&#x44F;_4" style="opacity:0.502;">
		<g>
			<path style="fill-rule:evenodd;clip-rule:evenodd;fill:#331F32;" d="M443.607,164.756c-0.4-1.303-1.61-2.323-3.106-2.608
				c-0.836-0.153-1.584-0.002-2.063,0.142c-0.257,0.077-0.595,0.195-1.017,0.363c-0.648,0.261-1.548,0.656-2.674,1.183
				c-2.079,0.972-4.984,2.407-8.897,4.418c-6.754,3.471-16.485,8.646-29.901,16.056c-9.063,4.997-19.115,10.646-29.696,16.66
				c-2.186,1.242-4.398,2.506-6.605,3.765c-5.512-2.492-10.958-4.67-16.055-6.45c2.449-3.351,4.894-6.676,7.319-9.951
				c7.049-9.52,13.8-18.457,19.891-26.418c9.237-12.055,15.654-20.16,20.183-25.933c2.62-3.339,4.53-5.788,5.831-7.532
				c0.711-0.95,1.252-1.71,1.617-2.27c0.226-0.346,0.39-0.628,0.517-0.872c0.219-0.436,0.456-1.037,0.353-1.858
				c-0.185-1.398-1.269-2.672-2.768-3.249c-0.168-0.061-0.335-0.121-0.503-0.182c-0.139-0.023-0.276-0.046-0.415-0.069
				c-0.446-0.074-0.893-0.085-1.354-0.032c-0.664,0.073-1.422,0.282-2.385,0.66c-1.465,0.574-3.514,1.587-6.09,3.027
				c-5.072,2.839-12.085,7.309-19.757,12.717c-18.778,13.223-38.04,29.428-52.722,44.04c-3.552,3.506-7.008,7.115-10.352,10.766
				c-2.57,0.119-4.945,0.393-7.133,0.831c-9.359,1.89-16.016,2.075-25.361,1.996c-0.93-0.006-1.887-0.042-2.848-0.107
				c-5.434-0.529-16.558-1.689-25.889-9.855c-3.228-2.939-4.186-7.117-4.315-10.082c-0.359-6.799,2.893-13.996,7.678-18.345
				c6.865-6.263,12.722-10.816,19.811-15.834c1.579-1.11,3.223-2.236,4.975-3.4c13.342-9.254,27.386-19.826,32.089-27.144
				c0.724-1.253,1.491-2.482,2.298-3.688c-2.238,0.893-4.377,1.797-6.419,2.716c-9.18,3.999-21.75,10.24-35.851,16.007
				c-2.748,1.094-5.569,2.181-8.318,3.275c-10.685,4.337-23.128,9.51-33.99,21.103c-8.841,9.156-13.82,20.079-12.358,30.138
				c0.083,0.629,0.189,1.253,0.316,1.874c0.127,0.621,0.277,1.237,0.448,1.85c0.342,1.225,0.769,2.43,1.278,3.613
				c1.017,2.366,2.359,4.642,3.971,6.803c3.224,4.329,7.521,8.177,12.378,11.577c10.446,7.225,23.621,8.778,37.42,9.321h0.004
				c6.693,0.153,13.441,0.158,21.146-0.544c-6.702,8.558-12.501,16.644-17.094,23.408c-5.942,8.725-10.525,16.114-13.324,20.769
				c-2.256,3.751-3.63,6.054-4.404,7.571c-22.809,14.586-23.071,19.586-23.118,21.061c-0.02,0.375-0.036,0.891-0.05,1.468
				c-3.453,2.306-7.348,4.083-10.635,5.59c-1.771,0.812-3.446,1.582-4.843,2.344c-0.035,0.019-0.187,0.12-0.39,0.257
				c-0.024,0.002-0.049,0.001-0.073,0.003c-0.431,0.239-0.86,0.479-1.313,0.735c-4.712,2.663-10.585,6.028-18.436,5.869
				c-1.955-0.041-3.987-0.302-6.041-0.776c-6.509-1.504-9.797-3.814-13.609-6.506c-4.587-3.229-9.781-6.919-20.795-9.711
				c-2.357-0.589-4.899-0.906-7.558-0.939c-15.978-0.274-37.625,10.611-46.227,31.251c-3.62,8.702-6.066,17.433-7.508,26.616
				c-0.363,2.309-0.674,4.729-0.926,7.189c-0.249,2.413-0.446,4.946-0.591,7.526c-0.141,2.511-0.234,5.102-0.284,7.81
				c-0.025,1.354-0.039,2.737-0.042,4.154s0.004,2.867,0.021,4.356c0.128,8.441,0.301,20.565,2.15,28.786
				c1.076,4.705,2.694,7.879,4.997,9.726c1.607,1.289,3.587,1.95,5.727,1.918c0.171-0.003,0.343-0.01,0.516-0.021
				c1.905-0.126,3.899-0.785,5.929-1.963c16.644-9.634,38.857-27.905,70.713-55.983c7.464-6.587,13.811-12.633,19.381-17.912
				c10.606-10.062,19.053-17.93,24.948-19.271c0.005-0.048,0.007-0.099,0.012-0.147c0.806-0.044,1.505-0.078,1.703-0.077
				c1.024,0.006,2.198,0.002,3.447-0.009c0.074,2.458,0.159,4.694,0.256,6.51c0.011,0.203,0.104,0.793,0.224,1.49
				c-0.138,0.108-0.283,0.22-0.397,0.323c-1.18,5.813-8.696,14.405-18.157,25.299c-5.004,5.757-10.713,12.34-16.896,20.03
				c-26.188,32.877-44.052,54.574-53.833,69.802c-1.285,2.021-1.908,3.968-1.833,5.787c0.077,1.879,0.919,3.58,2.438,4.917
				c2.171,1.92,5.792,3.183,11.024,3.878c6.679,0.883,16.07,0.915,29.172,0.199c0.605-0.034,1.21-0.068,1.815-0.102
				c6.239-0.368,11.734-0.863,16.826-1.522c2.609-0.337,5.158-0.726,7.579-1.154c2.443-0.434,4.843-0.923,7.133-1.456
				c9.034-2.104,17.35-5.121,25.447-9.218c21.142-10.819,30.407-35.838,25.402-51.49c-3.209-9.848-7.009-14.406-10.37-18.438
				c-2.798-3.358-5.219-6.268-7-12.306c-3.034-10.319,0.904-17.699,4.056-23.559c0.325-0.604,0.637-1.187,0.934-1.757
				c0.71-1.367,1.426-3.008,2.183-4.742c1.845-4.227,4.155-9.477,7.607-13.48c0.923-0.051,1.676-0.1,2.2-0.145
				c2.413-0.176,5.746-1.862,13.719-12.37c1.031-1.358,5.198-6.87,7.175-10.165c1.331-0.669,3.595-1.956,7.817-4.375
				c4.705-2.694,12.211-7.089,21.239-12.69c13.675-8.491,32.911-21.023,51.467-35.388c6.989,6.55,12.283,12.973,14.619,17.923
				c14.083,26.67,4.689,47.908-2.77,67.438c-4.21,10.331-8.815,20.447-10.979,31.975c-2.409,14.613-1.136,38.221,16.921,53.582
				c6.747,5.524,14.462,8.008,23.09,7.95c8.772-0.068,14.694-2.904,14.885-3.028c3.959-1.99,7.799-4.036,11.497-6.178
				c-4.925,0.312-9.794,0.554-14.604,0.736c-0.088,0.002-0.175,0.004-0.263,0.006c-2.124,0.07-19.48,0.058-24.387-9.365
				c-0.147-0.267-0.294-0.533-0.441-0.801c-5.912-10.606-8.181-15.333-6.446-28.208c1.271-10.153,6.166-19.387,12.952-31.334
				c0.271-0.474,0.542-0.949,0.813-1.427c4.727-8.106,11.633-21.717,16.153-39.877c2.222-9.025,3.951-19.017,3.505-29.56
				c-0.061-1.318-0.156-2.646-0.295-3.983c-0.138-1.336-0.317-2.682-0.544-4.036c-0.454-2.709-1.095-5.453-1.968-8.231
				c-1.743-5.558-4.423-11.255-8.338-17.107c-3.942-5.993-10.433-11.92-18.186-17.423c11.27-9.924,22.868-20.786,33.455-31.202
				c6.555-6.455,12.206-12.238,15.943-16.391c1.889-2.099,3.271-3.764,4.105-4.971c0.549-0.79,0.885-1.416,1.063-1.972
				c0.106-0.335,0.162-0.667,0.167-0.994S443.705,165.071,443.607,164.756z M122.697,363.611
				c-2.504-10.467-5.304-32.215,10.261-44.322c3.848-3.032,8.097-4.567,12.628-4.587c9.317-0.03,18.062,6.131,22.401,9.726
				C153.232,337.893,138.456,350.801,122.697,363.611z M231.025,410.413c-6.02,8.685-16.102,13.365-30.18,13.926
				c-4.247,0.168-8.801-0.066-13.232-0.668c11.903-15.499,23.648-30.498,36.09-45.479
				C229.23,383.689,240.426,397.081,231.025,410.413z M324.414,224.992c1.586-2.252,3.184-4.497,4.78-6.742
				c1.229,0.586,2.457,1.209,3.683,1.851C330.056,221.729,327.232,223.36,324.414,224.992z"/>
		</g>
	</g>
	
		<g id="&#x417;&#x430;&#x43B;&#x438;&#x432;&#x43A;&#x430;_&#x446;&#x432;&#x435;&#x442;&#x43E;&#x43C;_17_&#x43A;&#x43E;&#x43F;&#x438;&#x44F;_2">
		<g>
			<path style="fill-rule:evenodd;clip-rule:evenodd;fill:#5B676B;" d="M448.115,122.571c-0.028-0.106-0.1-0.167-0.216-0.18
				c-0.073-0.007-0.215,0.036-0.425,0.129s-0.486,0.235-0.828,0.425c-0.684,0.378-1.627,0.946-2.809,1.688
				c-2.364,1.484-5.684,3.664-9.797,6.42c-8.226,5.512-19.626,13.324-32.873,22.47c-26.518,18.285-60.298,41.928-91.096,62.97
				c-37.426,25.66-75.046,45.798-78.505,52.777c-5.144,10.694-18.91,15.427-25.362,19.139c-6.437,3.724-15.403,10.095-28.67,7.188
				c-14.665-3.218-13.902-10.833-32.336-15.377c-14.835-3.611-38.563,6.851-47.687,26.645c-3.536,7.725-6.013,15.472-7.532,23.993
				c-0.38,2.131-0.702,4.31-0.966,6.55c-0.265,2.239-0.473,4.54-0.627,6.913c-0.31,4.746-0.405,9.784-0.318,15.214
				c0.163,9.521,0.658,19.802,2.387,26.98c0.869,3.587,2.061,6.392,3.707,7.915c0.823,0.762,1.759,1.203,2.82,1.263
				c1.061,0.06,2.248-0.262,3.567-1.025c14.589-8.503,35.726-26.001,65.677-51.717c24.829-21.431,38.747-38.428,49.139-38.6
				c10.348-0.157,34.191-1.602,39.136-2.188c5.022-0.548,20.233-23.61,20.191-23.626c0.124,0.066,50.946-29.937,94.764-69.769
				c19.974-18.077,40.508-39.586,55.604-56.61c7.546-8.513,13.724-15.906,17.779-21.194c2.028-2.646,3.526-4.764,4.4-6.233
				c0.437-0.734,0.718-1.307,0.832-1.701C448.129,122.83,448.144,122.678,448.115,122.571z M114.815,358.484
				c0.033-0.139-11.795-34.804,10.983-51.906c19.793-15.128,40.807,8.223,40.84,8.286
				C150.255,329.622,133.142,344.136,114.815,358.484z"/>
		</g>
	</g>
	<g id="&#x417;&#x430;&#x43B;&#x438;&#x432;&#x43A;&#x430;_&#x446;&#x432;&#x435;&#x442;&#x43E;&#x43C;_27">
		<g>
			<path style="fill-rule:evenodd;clip-rule:evenodd;fill:#889296;" d="M361.333,202.938c-37.87,31.453-78.824,54.943-78.824,54.943
				l-10.688,20.539c0,0,47.406-25.837,91.364-65.693c40.939-37.121,78.522-80.37,79.482-86.226
				C443.628,120.647,403.901,167.583,361.333,202.938z M207.386,294.22c0,0,4.85-1.902,8.496-2.388
				c3.786-0.505,7.365,0.468,7.365,0.468v-12.392l-16.697,6.195L207.386,294.22z"/>
		</g>
	</g>
	<g id="&#x417;&#x430;&#x43B;&#x438;&#x432;&#x43A;&#x430;_&#x446;&#x432;&#x435;&#x442;&#x43E;&#x43C;_28">
		<g>
			<path style="fill-rule:evenodd;clip-rule:evenodd;fill:#CACFD5;" d="M440.097,126.998c-1.858-2.881-128.53,86.012-128.53,86.012
				l-14.219,21.793c0,0,51.9-34.529,91.702-64.588C419.293,147.374,441.955,129.879,440.097,126.998z"/>
		</g>
	</g>
	<g id="&#x417;&#x430;&#x43B;&#x438;&#x432;&#x43A;&#x430;_&#x446;&#x432;&#x435;&#x442;&#x43E;&#x43C;_29" style="opacity:0.502;">
		<g>
			<path style="fill-rule:evenodd;clip-rule:evenodd;fill:#352F3C;" d="M353.109,224.395c0,0-21.746-20.908-42.312-10.44
				c0.482-1.402,0.958-2.647,1.419-3.686l-38.66,66.913l26.021-14.869c0,0,6.048-33.301,11.203-48.31
				c0.755,0.254,10.664,3.711,14.384,11.347c3.111,6.387,1.736,16.935,1.736,16.935L353.109,224.395z"/>
		</g>
	</g>
	
		<g id="&#x417;&#x430;&#x43B;&#x438;&#x432;&#x43A;&#x430;_&#x446;&#x432;&#x435;&#x442;&#x43E;&#x43C;_17_&#x43A;&#x43E;&#x43F;&#x438;&#x44F;_3">
		<g>
			<path style="fill-rule:evenodd;clip-rule:evenodd;fill:#5DA7D9;" d="M208.089,295.835c-1.445-5.374,0.081-8.542,0.081-8.542
				s-17.368,11.21-30.635,8.303c-14.665-3.218-13.902-10.833-32.336-15.377c-14.835-3.611-38.563,6.851-47.687,26.645
				c-3.536,7.725-6.013,15.472-7.532,23.993c-0.38,2.131-0.702,4.31-0.966,6.55c-0.265,2.239-0.473,4.54-0.627,6.913
				c-0.31,4.746-0.405,9.784-0.318,15.214c0.163,9.521,0.658,19.802,2.387,26.98c0.869,3.587,2.061,6.392,3.707,7.915
				c0.823,0.762,1.759,1.203,2.82,1.263c1.061,0.06,2.248-0.262,3.567-1.025c14.589-8.503,35.726-26.001,65.677-51.717
				c18.899-16.313,31.134-28.55,38.674-34.667c6.353-5.153,9.47-5.436,9.47-5.436S209.237,300.104,208.089,295.835z
				 M114.815,358.484c0.033-0.139-11.795-34.804,10.983-51.906c19.793-15.128,40.807,8.223,40.84,8.286
				C150.255,329.622,133.142,344.136,114.815,358.484z"/>
		</g>
	</g>
	<g id="&#x417;&#x430;&#x43B;&#x438;&#x432;&#x43A;&#x430;_&#x446;&#x432;&#x435;&#x442;&#x43E;&#x43C;_21">
		<g>
			<path style="fill-rule:evenodd;clip-rule:evenodd;fill:#2A5879;" d="M120.282,355.828c0,0-8.859-10.568-9.042-21.369
				c-0.188-11.156,5.447-22.245,11.755-27.645c6.083-5.208,17.326-9.684,26.021-5.661c14.954,6.918,19.94,10.879,19.94,10.879
				s-10.2-15.771-23.014-20.034c-8.664-2.883-22.348,1.545-27.213,5.794c-5.615,4.902-13.36,15.014-14.756,25.405
				c-2.891,21.534-0.315,37.391,2.298,39.857C112.894,369.305,120.282,355.828,120.282,355.828z M192.411,307.69
				c-14.354,3.354-33.091,22.803-46.621,33.666c-11.712,9.404-27.719,19.778-37.496,33.426c-5.738,8.01-9.19,14.435-10.953,18.074
				c0.625-5.078,1.914-16.984,1.41-25.106c-0.691-11.142-8.557-36.062-8.557-36.062s-1.168,11.091-1.412,22.436
				c-0.224,10.443,0.467,20.971,0.645,26.193c0.305,8.934,5.211,13.286,6.971,14.565c-0.357,0.806-0.535,1.257-0.535,1.257
				s0.322-0.361,0.901-1.001c0.16,0.104,0.261,0.164,0.261,0.164s0.027-0.192,0.072-0.532c5.38-5.932,27.665-30.08,51.009-49.309
				c27.338-22.518,56.073-38.541,56.073-38.541S201.33,305.605,192.411,307.69z M206.271,288.706c0,0-8.787,5.327-17.673,6.499
				c-7.979,1.053-16.155-2.038-16.155-2.038C190.564,317.679,206.271,288.706,206.271,288.706z"/>
		</g>
	</g>
	<g id="&#x424;&#x438;&#x433;&#x443;&#x440;&#x430;_13">
		<g>
			<path style="fill-rule:evenodd;clip-rule:evenodd;fill:#97D0F9;" d="M137.638,290.239c6.877-1.487,14.685-21.027-21.722-5.751
				c-19.513,10.63-24.375,40.416-24.375,40.416c-0.372,25,10.595,14.451,11.756,4.321c1.162-10.13,3.164-18.392,11.87-28.275
				C123.628,291.345,130.761,291.727,137.638,290.239z M172.48,301.473c-4.875-3.671-9.431-5.051-12.026-4.526
				c-4.388,0.886,12.872,9.604,8.829,17.271c-4.042,7.667-54.832,43.262-54.832,43.262c-10.285,11.214-4.887,10.617-0.255,7.551
				c4.538-2.881,51.595-38.879,62.987-52.509C180.195,308.916,177.634,305.353,172.48,301.473z"/>
		</g>
	</g>
	<g id="&#x417;&#x430;&#x43B;&#x438;&#x432;&#x43A;&#x430;_&#x446;&#x432;&#x435;&#x442;&#x43E;&#x43C;_19">
		<g>
			<path style="fill-rule:evenodd;clip-rule:evenodd;fill:#352F3C;" d="M451.972,120.4c-0.432-1.588-1.771-2.727-3.433-2.902
				c-0.929-0.091-1.762,0.188-2.296,0.427c-0.286,0.126-0.662,0.314-1.133,0.575c-0.724,0.402-1.726,1.003-2.979,1.79
				c-2.315,1.452-5.549,3.572-9.89,6.479c-7.487,5.017-18.255,12.376-32.913,22.497c-9.901,6.826-20.813,14.399-32.202,22.305
				c-19.464,13.508-39.589,27.475-58.888,40.659c-15.24,10.45-30.271,19.829-43.533,28.104
				c-22.751,14.196-33.794,21.236-36.219,26.13c-3.547,7.376-12.465,11.781-18.977,14.997c-1.79,0.885-3.482,1.721-4.896,2.534
				c-0.151,0.088-2.407,1.694-2.407,1.694l5.631,6.278c0,0,1.89-2.144,2.863-2.928c0.973-0.784,1.665-0.696,2.103-0.913
				c7.479-3.695,17.724-8.756,22.364-18.401c1.595-3.192,17.801-13.304,33.474-23.083c13.325-8.315,28.429-17.739,43.797-28.276
				c19.316-13.196,39.452-27.172,58.927-40.687c11.385-7.901,22.29-15.47,32.185-22.294c13.869-9.574,24.239-16.668,31.635-21.637
				c-3.574,4.354-7.893,9.397-12.634,14.747c-17.862,20.14-38.025,40.668-55.325,56.326c-43.106,39.187-92.271,68.243-93.9,69.181
				c-0.551,0.271-1.032,0.676-1.396,1.191c-0.066,0.092-0.128,0.187-0.184,0.284c-3.164,5.075-14.18,20.261-17.589,21.818
				c-5.168,0.58-28.598,1.989-38.581,2.141c-2,0.033-4.441-0.017-4.441-0.017l0.806,3.459l-1.066,4.357c0,0,4.281-0.357,4.819-0.366
				c10.51-0.159,34.486-1.616,39.483-2.208c2.457-0.269,5.919-2.081,14.529-13.431c1.111-1.465,5.615-7.447,7.781-11.029
				c1.393-0.771,3.764-2.235,8.203-5.019c4.946-3.101,12.854-8.175,22.433-14.74c16.638-11.404,41.265-29.357,64.1-50.115
				c17.486-15.826,37.859-36.565,55.894-56.901c7.351-8.293,13.724-15.893,17.945-21.398c2.133-2.78,3.697-4.999,4.646-6.594
				c0.621-1.043,1.004-1.862,1.211-2.578C452.161,121.996,452.181,121.17,451.972,120.4z"/>
		</g>
	</g>
	
		<g id="&#x417;&#x430;&#x43B;&#x438;&#x432;&#x43A;&#x430;_&#x446;&#x432;&#x435;&#x442;&#x43E;&#x43C;_19_&#x43A;&#x43E;&#x43F;&#x438;&#x44F;">
		<g>
			<path style="fill-rule:evenodd;clip-rule:evenodd;fill:#1F203F;" d="M214.198,300.661c-0.115-0.498-0.258-0.959-0.408-1.405
				c-0.352-0.221-0.709-0.438-1.025-0.678c-1.599-1.231-2.483-2.498-2.836-4.193c-0.259-1.245-0.158-2.393,0.386-3.617
				c-0.192-2.344-0.749-5.344-2.341-6.033c-1.226-0.529-2.566-0.607-3.831-0.463c-0.436,0.256-0.872,0.512-1.331,0.784
				c-4.773,2.836-10.714,6.365-18.367,6.365c-1.905,0-3.871-0.219-5.845-0.651c-6.25-1.371-9.307-3.604-12.845-6.188
				c-4.25-3.104-9.069-6.622-19.408-9.17c-2.211-0.538-4.608-0.812-7.125-0.812c-15.131,0-35.982,10.344-44.821,29.52
				c-3.717,8.122-6.273,16.262-7.813,24.888c-0.388,2.168-0.723,4.445-0.996,6.765c-0.27,2.274-0.486,4.666-0.646,7.109
				c-0.311,4.753-0.418,9.828-0.327,15.52c0.138,8.06,0.546,19.709,2.492,27.792c1.119,4.622,2.686,7.818,4.794,9.769
				c1.472,1.362,3.247,2.14,5.138,2.247c0.151,0.009,0.303,0.013,0.456,0.013c1.68,0,3.422-0.517,5.191-1.54
				c14.491-8.445,34.454-24.829,66.234-52.113c7.439-6.422,13.879-12.423,19.562-17.718c10.827-10.089,19.577-18.229,25.49-19.715
				C214.313,304.852,214.556,302.201,214.198,300.661z M183.419,321.411c-5.634,5.249-12.02,11.199-19.345,17.522
				c-30.701,26.359-51.199,43.207-65.116,51.318c-0.832,0.482-1.297,0.535-1.457,0.535l-0.039-0.002
				c-0.071-0.003-0.218-0.012-0.507-0.279c-0.554-0.513-1.631-1.982-2.617-6.058c-1.773-7.364-2.153-18.465-2.284-26.17
				c-0.089-5.483,0.013-10.361,0.312-14.914c0.149-2.313,0.354-4.573,0.608-6.719c0.257-2.176,0.57-4.307,0.933-6.331
				c1.427-8,3.8-15.556,7.25-23.091c7.268-15.766,25.061-25.188,38.064-25.188c1.925,0,3.73,0.202,5.355,0.598
				c8.909,2.196,12.917,5.123,16.792,7.953c3.864,2.822,7.86,5.739,15.638,7.445c2.496,0.548,4.998,0.825,7.438,0.825
				c9.017-0.002,15.857-3.695,21.007-6.728c-0.175,1.124-0.106,2.266,0.183,3.358c0.321,1.323,1.076,2.785,2.089,3.818
				c0.564,0.6,1.204,1.081,1.873,1.479C202.448,303.697,194.381,311.195,183.419,321.411z M140.486,296.567
				c-5.975,0-11.585,1.972-16.65,5.844c-22.595,16.963-14.282,49.361-12.387,55.685l0.034,0.11c0.228,0.897,0.791,1.701,1.609,2.222
				c0.611,0.388,1.303,0.579,1.994,0.579c0.812,0,1.622-0.266,2.292-0.791c17.544-13.736,34.561-28.059,52.02-43.785
				c1.26-1.136,1.593-2.98,0.807-4.483C169.579,310.754,156.363,296.567,140.486,296.567z M117.281,350.827
				c-2.159-10.271-4.176-31.063,11.045-42.49c3.762-2.876,7.854-4.335,12.16-4.335c8.85,0,16.957,6.013,20.973,9.563
				C146.65,326.807,132.126,339.058,117.281,350.827z"/>
		</g>
	</g>
	<g id="&#x424;&#x438;&#x433;&#x443;&#x440;&#x430;_6_&#x43A;&#x43E;&#x43F;&#x438;&#x44F;">
		<g>
			<path style="fill-rule:evenodd;clip-rule:evenodd;fill:#FC2ADC;" d="M346.34,421.387c-4.896-12.989-7.764-18.966-2.496-35.44
				c3.742-11.709,11.945-22.894,24.383-36.972c15.489-17.534,48.836-53.086,31.257-103.372
				c-6.272-17.943-24.985-35.354-43.641-43.713c-18.276-8.188-28.06-7.188-58.821-5.33c-16.234,0.981-34.326,7.452-53.894,6.695
				c-15.329-0.593-40.103-0.915-54.398-15.331c-11.147-11.24-2.366-35.74,10.209-45.777c14.746-11.771,29.714-20.85,47.588-32.59
				c27.303-17.933,39.033-38.119,35.315-48.389c-9.515,11.192-24.848,24.456-47.013,36.353
				c-22.166,11.896-47.146,21.766-63.724,40.617c-18.236,23.736-21.537,47.812-1.708,68.697
				c17.536,18.47,56.276,22.798,118.966,8.022c58.532-13.795,85.992,26.892,91.435,48.857
				c11.141,44.963-33.258,74.16-48.251,111.313c-6.597,16.346-8.172,39.72,9.894,54.446c19.758,16.107,32.849,3.359,32.849,3.359
				S350.938,433.587,346.34,421.387z"/>
		</g>
	</g>
	
		<g id="&#x417;&#x430;&#x43B;&#x438;&#x432;&#x43A;&#x430;_&#x446;&#x432;&#x435;&#x442;&#x43E;&#x43C;_13_&#x43A;&#x43E;&#x43F;&#x438;&#x44F;">
		<g>
			<path style="fill-rule:evenodd;clip-rule:evenodd;fill:#892E7A;" d="M365.716,318.063c0.057-0.084,15.947-9.953,19.637-31.845
				c2.949-17.181-1.874-33.685-7.337-43.143c-6.428-11.225-19.482-15.825-19.507-15.811c0.119-0.088,21.778,25.26,21.385,44.671
				C379.64,298.545,367.304,316.845,365.716,318.063z M362.173,353.736c-0.103,0.106-0.175,0.185-0.186,0.209
				C361.963,353.989,362.019,353.937,362.173,353.736z M403.239,268.721c-0.234-7.056-1.191-14.027-3.172-19.95
				c-0.462-1.383-1.03-2.9-1.691-4.503c0,0,0.004,0.006,0.004,0.006s-0.006-0.011-0.008-0.015
				c-2.878-6.972-7.533-15.568-13.014-21.841c-7.956-9.148-17.228-14.145-17.23-14.145c-0.161,0.009-0.326,0.019-0.488,0.027
				c-12.053-7.999-31.493-15.8-62.591-14.173c-21.879,1.1-41.814,6.069-59.481,6.838c-23.611,1.026-42.828-3.04-53.936-10.693
				c-12.483-8.705-9.948-24.49-4.525-35.728c2.433-5.041,5.453-9.082,7.89-11.857c7.248-5.728,27.682-21.213,60.456-40.926
				c19.596-11.787,24.299-38.456,24.299-38.456s-15.16,23.566-38.278,39.464c-14.069,9.676-30.458,18.72-48.034,32.556
				c-19.334,15.22-19.813,30.319-19.312,35.452c-0.126,1.16-0.2,2.342-0.186,3.556c0.135,22.002,27.939,43.743,49.067,45.199
				c13.723,0.946,39.984-1.598,67.007-5.734c8.034-1.188,15.823-3.59,25.888-1.763c11.129,2.005,24.73,6.078,24.715,6.089
				c-0.04,0.027,2.155-7.01,14.915-4.462c8.801,4.657,22.142,12.443,27.814,19.233c13.3,15.491,12.826,38.922,12.718,46.378
				c-0.256,14.436-6.301,27.085-8.972,31.956c-17.889,32.583-23.84,41.115-24.922,42.507c2.681-2.762,35.486-32.818,39.845-64.497
				C402.977,282.921,403.472,275.777,403.239,268.721z"/>
		</g>
	</g>
	
		<g id="&#x417;&#x430;&#x43B;&#x438;&#x432;&#x43A;&#x430;_&#x446;&#x432;&#x435;&#x442;&#x43E;&#x43C;_14_&#x43A;&#x43E;&#x43F;&#x438;&#x44F;" style="opacity:0.502;">
		<g>
			<path style="fill-rule:evenodd;clip-rule:evenodd;fill:#FFFFFF;" d="M169.022,161.234c0,0-2.563-2.986-4.714,1.759
				c-4.818,11.47,1.323,19.77,4.792,4.681C169.747,164.875,169.523,163.229,169.022,161.234z M180.383,200.868
				c-12.151-15.323-11.574-11.128-11.412-8.758c0.182,2.652,3.062,6.536,5.083,8.944C178.26,206.08,188.055,207.925,180.383,200.868
				z M356.729,215.926c-6.591-3.694-9.06-1.366-0.913,3.954C362.004,223.921,363.32,219.62,356.729,215.926z M374.805,228.622
				c-5.314-5.416-6.44-0.256-2.246,3.84C379.521,239.262,383.634,237.621,374.805,228.622z M389.899,264.185
				c1.067-0.235,2.283-4.967,0.642-10.96c-1.346-4.916-3.799-7.601-4.706-7.675c-1.226-0.102-0.45,3.543,1.15,9.523
				C388.311,260.024,388.928,264.399,389.899,264.185z M390.655,273.46c-0.964-0.178-1.462,3.606-2.199,9.435
				c-0.851,6.729-0.589,9.604,0.461,9.826c1.269,0.268,2.256-5.034,3.089-9.002C392.956,279.198,391.871,273.685,390.655,273.46z
				 M383.866,302.009c-1.213-0.4-3.109,4.151-5.658,8.64c-2.132,3.756-5.244,8.491-4.417,9.295c1.151,1.118,5.409-2.228,7.9-7.11
				C383.832,308.636,385.078,302.409,383.866,302.009z M362.23,333.876c-3.385,3.514-5.386,8.308-4.481,9.082
				c0.964,0.824,4.645-2.682,8.633-6.831c3.314-3.446,4.119-6.258,3.283-6.968C368.646,328.295,365.684,330.291,362.23,333.876z
				 M344.362,358.253c-5.157,5.777-1.683,7.998,5.694-0.356C356.314,350.811,351.439,350.325,344.362,358.253z M330.219,387.297
				c-1.211,6.319,1.715,16.915,2.961,17.16c1.038,0.204-0.34-8.38,1.085-16.845c1.254-7.446,4.951-13.538,3.845-14.325
				C337.043,372.53,331.926,378.384,330.219,387.297z M174.035,138.867c-5.046,6.077-6.583,12.739-4.663,12.567
				c1.641-0.146,3.937-3.844,8.792-8.97c4.145-4.376,9.036-8.617,7.946-9.184C184.655,132.525,177.527,134.662,174.035,138.867z
				 M227.778,106.286c-4.129-1.168-9.833,0.007-17.424,3.319c-6.71,2.929-13.537,6.997-17.281,12.533
				c-2.199,3.252,8.129-2.273,18.163-7.087C220.627,110.547,229.775,106.852,227.778,106.286z"/>
		</g>
	</g>
	
		<g id="&#x417;&#x430;&#x43B;&#x438;&#x432;&#x43A;&#x430;_&#x446;&#x432;&#x435;&#x442;&#x43E;&#x43C;_9_&#x43A;&#x43E;&#x43F;&#x438;&#x44F;">
		<g>
			<path style="fill-rule:evenodd;clip-rule:evenodd;fill:#612557;" d="M260.263,99.43c-2.343-1.198-4.933-1.838-7.517-2.292
				c-1.298-0.195-2.604-0.339-3.914-0.417c-0.653-0.025-1.307-0.036-1.96-0.032c-0.653,0.003-1.306,0.021-1.958,0.05
				c-5.215,0.259-10.263,1.661-14.823,3.867c-4.325,2.219-8.552,4.205-12.976,6.092c-4.421,1.828-8.914,3.547-13.662,4.827
				c4.898,0.458,9.924-0.445,14.75-1.698c4.834-1.249,9.577-3.16,13.949-5.282c4.228-1.962,8.688-3.382,13.369-4.282
				C250.215,99.42,255.104,99.03,260.263,99.43z M221.139,115.389c-5.373,0.215-10.609,1.875-15.202,4.514
				c-4.334,2.346-8.692,4.53-13.235,6.234c-2.268,0.864-4.579,1.59-6.956,2.116c-2.376,0.475-4.814,0.875-7.341,0.623
				c2.079,1.473,4.799,1.976,7.44,2.059c2.672,0.087,5.379-0.3,7.988-0.953c5.223-1.356,10.055-3.782,14.322-6.685
				c4.014-2.611,8.504-4.48,13.354-5.284c4.835-0.763,10.013-0.632,15.083,0.817c-2.28-1.324-4.846-2.192-7.455-2.767
				C226.519,115.496,223.819,115.263,221.139,115.389z M179.61,150.78c-1.548,0.758-3.098,1.456-4.63,1.964
				c-1.703,0.586-3.277,1.068-4.959,1.496c-1.654,0.395-3.328,0.767-4.999,0.853c-1.677,0.123-3.377,0.068-4.988-0.601
				c0.906,1.565,2.715,2.372,4.495,2.882c1.83,0.452,3.777,0.578,5.705,0.434c1.906-0.112,3.893-0.505,5.7-0.959
				c1.986-0.519,3.825-1.285,5.561-2.145c3.468-1.735,6.564-3.866,9.408-6.19c2.812-2.362,5.435-4.873,7.566-7.798
				c-3.34,1.565-6.449,3.326-9.576,5.047C185.788,147.498,182.707,149.253,179.61,150.78z M183.548,170.488
				c0.459-1.648,0.755-3.329,0.662-5.016c-2.114,2.856-4.009,5.55-6.07,8.067c-2.042,2.502-4.225,4.838-6.664,6.701
				c-2.671,1.966-5.462,3.58-8.387,4.084c-2.906,0.552-5.937-0.396-8.183-2.518c0.818,3.084,3.815,5.497,7.817,5.586
				c3.985,0.097,7.952-1.745,11.078-3.771c3.435-2.194,6.013-5.142,7.75-8.282C182.421,173.768,183.097,172.145,183.548,170.488z
				 M189.438,187.226c0.324,3.059,0.716,5.909,0.961,8.721c0.227,2.806,0.327,5.548-0.018,8.205
				c-0.197,1.341-0.427,2.638-0.889,3.785c-0.453,1.085-1.146,2.111-2.166,3.001c-2.049,1.808-5.229,3.036-8.603,3.916
				c1.58,0.445,3.332,0.513,5.135,0.336c1.801-0.189,3.71-0.707,5.477-1.72c1.771-1.002,3.29-2.522,4.234-4.235
				c0.118-0.232,0.236-0.465,0.354-0.697c0.082-0.183,0.163-0.366,0.244-0.549c0.214-0.493,0.31-0.836,0.452-1.264
				c0.257-0.815,0.437-1.637,0.557-2.454c0.48-3.274,0.043-6.443-0.961-9.327C193.197,192.066,191.686,189.38,189.438,187.226z
				 M227.861,208.11c-0.382-0.558-0.867-1.2-1.267-1.669c-0.231-0.275-0.462-0.55-0.693-0.825c-0.24-0.275-0.505-0.532-0.766-0.792
				c-1.064-1.022-2.283-1.913-3.629-2.593c-2.675-1.349-5.792-2.08-8.91-1.453c2.361,1.729,4.397,3.176,6.309,4.691
				c1.898,1.526,3.637,2.981,5.249,4.896c1.586,1.846,2.973,3.835,4.06,6.002c1.075,2.171,1.937,4.492,2.258,7.053
				c1.12-2.418,1.179-5.188,0.675-7.818C230.629,212.952,229.451,210.399,227.861,208.11z M268.978,207.914
				c-0.229-0.301-0.448-0.566-0.644-0.783c-0.051-0.059-0.102-0.118-0.152-0.177c-0.076-0.081-0.15-0.161-0.227-0.242
				c-0.143-0.154-0.291-0.296-0.441-0.437c-0.605-0.547-1.246-0.995-1.893-1.381c-2.609-1.498-5.306-2.187-7.988-2.544
				c-2.688-0.312-5.388-0.308-8.059,0.377c2.478,1.249,4.892,2.131,7.237,3.021c2.325,0.878,4.64,1.694,6.533,2.674
				c0.472,0.239,0.904,0.492,1.273,0.746c0.094,0.063,0.187,0.125,0.268,0.188l0.064,0.047c0.005,0.004,0.01,0.008,0.016,0.012
				c-0.011-0.012,0.035,0.034-0.022-0.023c0.004,0.003,0.007,0.006,0.011,0.009c0.015,0.014,0.029,0.027,0.044,0.04
				c0.059,0.053,0.116,0.105,0.175,0.159c0.212,0.192,0.424,0.385,0.635,0.577c0.796,0.737,1.537,1.563,2.174,2.426
				c1.254,1.735,2.189,3.777,2.162,6.185c1.656-1.861,1.803-4.772,0.858-7.289C270.541,210.216,269.842,209.025,268.978,207.914z
				 M308.75,202.735c-0.842-1.038-1.986-2.005-3.127-2.746c-2.319-1.513-4.859-2.405-7.379-2.892
				c-2.527-0.451-5.083-0.56-7.543-0.027c2.35,1.13,4.565,2.079,6.68,3.086c2.107,0.988,4.106,2.009,5.825,3.177
				c0.869,0.602,1.604,1.173,2.344,1.908c0.587,0.577,1.216,1.339,1.666,2.122c0.928,1.602,1.413,3.627,1.466,5.985
				c1.822-1.526,2.646-4.122,2.018-6.811C310.377,205.181,309.734,203.933,308.75,202.735z M342.285,206.471
				c1.119,1.641,1.963,3.791,2.499,6.009c0.546,2.245,0.896,4.612,1.161,7.12c1.256-2.136,1.875-4.613,1.957-7.205
				c0.051-2.604-0.452-5.348-2.057-7.999c-1.459-2.364-3.545-4.416-5.935-5.907c-2.405-1.447-5.12-2.492-7.916-2.451
				c2.135,1.818,4.007,3.445,5.718,5.156C339.428,202.881,340.945,204.605,342.285,206.471z M363.799,225.009
				c-0.795,2.182-1.587,4.358-2.374,6.531c2.033-1.348,3.698-3.102,5.101-5.074c1.389-1.995,2.519-4.199,3.062-6.85
				c0.548-2.578,0.195-5.441-0.862-7.846c-1.084-2.405-2.724-4.563-5.021-5.935c0.684,2.49,1.287,4.693,1.625,6.844
				c0.355,2.15,0.451,4.122,0.162,6.147C365.2,220.782,364.535,222.912,363.799,225.009z M386.672,240.601
				c0.378-0.515,0.801-1.237,1.048-1.692c0.333-0.674,0.582-1.208,0.81-1.848c0.453-1.235,0.736-2.532,0.851-3.831
				c0.18-2.585-0.234-5.259-1.73-7.349c-0.405,2.518-0.905,4.692-1.6,6.756c-0.337,1.027-0.724,2.017-1.159,2.977
				c-0.204,0.463-0.466,0.999-0.666,1.381c-0.312,0.587-0.48,0.889-0.786,1.337c-1.121,1.707-2.616,3.297-4.259,4.826
				c-1.652,1.529-3.439,3.002-5.334,4.552c2.478-0.182,4.834-0.972,7.022-2.136C383.049,244.396,385.094,242.781,386.672,240.601z
				 M401.104,253.93c-1.293,2.233-2.389,4.34-3.593,6.245c-0.601,0.944-1.223,1.833-1.88,2.599
				c-0.335,0.377-0.668,0.738-1.016,1.047c-0.175,0.152-0.353,0.301-0.529,0.434c-0.045,0.034-0.089,0.068-0.133,0.103
				c-0.011,0.009-0.022,0.018-0.033,0.026c-0.002,0.002-0.005,0.004-0.007,0.006c0.013-0.008-0.002,0.002,0.015-0.01
				c-0.002,0.002-0.004,0.003-0.006,0.005c-0.031,0.021-0.063,0.041-0.094,0.063c-0.124,0.083-0.247,0.166-0.371,0.249
				c-1.652,1.088-3.648,1.899-5.769,2.423c-2.139,0.531-4.418,0.823-6.888,0.979c2.109,1.323,4.585,1.933,7.104,1.97
				c2.532,0.023,5.125-0.625,7.49-2.095c0.125-0.08,0.249-0.161,0.374-0.241c0.08-0.055,0.161-0.109,0.241-0.164
				c0.075-0.055,0.15-0.11,0.226-0.165c0.309-0.215,0.576-0.472,0.846-0.718c0.539-0.501,0.994-1.056,1.399-1.628
				c0.821-1.142,1.396-2.372,1.835-3.607c0.419-1.239,0.713-2.496,0.854-3.755c0.07-0.63,0.103-1.26,0.093-1.888
				C401.252,255.179,401.201,254.552,401.104,253.93z M390.799,295.886c-1.586,0.319-3.284,0.376-5.06,0.246
				c-1.781-0.123-3.62-0.404-5.592-0.784c1.292,1.554,2.995,2.682,4.859,3.452c1.873,0.754,3.98,1.106,6.14,0.851
				c2.208-0.296,4.205-1.091,5.941-2.509c1.679-1.395,3.085-3.377,3.241-5.594c-1.77,1.22-3.306,2.002-4.855,2.708
				C393.949,294.905,392.325,295.569,390.799,295.886z M377.716,322.211c-2.274,0.889-4.792,1.45-7.368,1.79
				c-2.59,0.333-5.265,0.481-8.073,0.476c2.443,1.361,5.187,2.077,7.983,2.335c2.81,0.232,5.699-0.022,8.549-0.986
				c2.758-0.949,5.278-2.324,7.56-4.155c2.224-1.839,4.288-4.074,5.331-6.845c-2.406,1.559-4.67,2.843-6.984,4.063
				C382.418,320.078,380.058,321.25,377.716,322.211z M362.196,344.12c-0.731,0.14-1.47,0.231-2.211,0.303
				c-0.213,0.025-0.426,0.05-0.64,0.074c-0.229,0.033-0.457,0.066-0.687,0.099c-0.442,0.071-0.885,0.151-1.324,0.248
				c-3.527,0.777-6.895,2.553-9.604,4.997c-2.686,2.462-4.887,5.481-6.049,8.896c4.748-5.214,10.315-8.85,16.195-9.979
				c0.366-0.078,0.733-0.14,1.101-0.194c0.177-0.024,0.354-0.048,0.53-0.071c0.192-0.021,0.384-0.04,0.576-0.06
				c0.882-0.112,1.764-0.229,2.634-0.455c1.742-0.419,3.441-1.108,5.013-2.015c1.571-0.917,3.004-2.07,4.232-3.389
				c1.213-1.321,2.283-2.794,2.902-4.447c-2.711,2.149-5.475,3.733-8.335,4.798C365.105,343.459,363.66,343.855,362.196,344.12z
				 M349.453,362.374c-0.83,0.408-1.661,0.818-2.492,1.229c-1.756,0.896-3.41,1.946-4.997,3.104
				c-3.163,2.332-6.019,5.083-8.538,8.137c-2.531,3.035-4.78,6.363-6.544,9.985c2.628-2.938,5.349-5.653,8.13-8.203
				c2.81-2.512,5.697-4.836,8.72-6.782c1.503-0.978,3.054-1.857,4.604-2.612c0.832-0.387,1.664-0.772,2.496-1.157
				c0.847-0.43,1.688-0.878,2.507-1.376c3.231-2.001,6.434-4.538,8.389-8.1c-3.451,1.653-6.636,3.061-9.86,4.62
				C351.063,361.603,350.258,361.988,349.453,362.374z"/>
		</g>
	</g>
	<g id="&#x417;&#x430;&#x43B;&#x438;&#x432;&#x43A;&#x430;_&#x446;&#x432;&#x435;&#x442;&#x43E;&#x43C;_20">
		<g>
			<path style="fill-rule:evenodd;clip-rule:evenodd;fill:#612557;" d="M371.627,430.075c-1.878,0-18.462-0.312-22.74-11.174
				l-0.365-0.927c-4.799-12.169-6.785-17.204-2.049-32.019c3.699-11.571,12.122-22.617,23.628-35.643l1.368-1.545
				c15.713-17.727,48.409-54.61,30.614-105.516c-6.308-18.038-24.646-36.476-45.632-45.878c-11.444-5.127-24.877-7.837-38.842-7.837
				c-7.47,0-14.955,0.76-22.246,2.258c-17.762,3.651-33.216,5.57-53.341,6.624c-1.999,0.104-4.033,0.158-6.046,0.158
				c-11.668,0.001-33.098-1.87-45.518-14.394c-4.381-4.418-4.989-10.248-4.728-14.36c0.598-9.404,6.187-19.317,14.583-25.869
				c12.044-9.399,24.008-17.193,37.861-26.218c3.072-2.002,6.227-4.058,9.481-6.195c25.884-17.002,39.353-35.972,36.951-52.046
				l-1.21-8.093l-5.298,6.234c-7.725,9.085-21.964,22.616-45.939,35.484c-4.541,2.437-9.312,4.844-13.925,7.171
				c-18.292,9.229-37.207,18.773-50.79,34.221c-22.298,24.496-22.9,51.38-1.654,73.759c11.298,11.9,30.297,17.934,56.471,17.936
				h0.008c18.354,0,40.568-2.979,66.02-8.853c6.849-1.579,13.589-2.381,20.033-2.381c41.507,0,63.034,32.685,66.956,48.512
				c6.888,27.797-8.683,49.126-25.165,71.709c-8.647,11.847-17.59,24.097-22.925,37.318c-6.883,17.055-7.658,41.396,10.81,58.561
				c6.733,6.259,14.168,9.434,22.099,9.434c8.037,0,13.605-3.419,13.838-3.563l11.521-7.192l-13.582,0.322L371.627,430.075z
				 M343.061,425.629c-19.765-18.371-11.867-43.17-8.977-50.333c4.989-12.365,13.656-24.237,22.036-35.718
				c16.763-22.967,34.097-46.715,26.376-77.88c-5.571-22.488-32.269-54.159-74.173-54.159c-7.007,0-14.31,0.866-21.706,2.573
				c-24.905,5.746-46.555,8.661-64.347,8.661h-0.007c-24.055-0.002-41.24-5.257-51.08-15.621
				c-18.49-19.475-17.865-42.074,1.804-63.682c12.676-14.414,30.938-23.629,48.598-32.539c4.655-2.349,9.468-4.777,14.091-7.259
				c18.616-9.991,31.657-20.43,40.465-29.064c-3.705,10.922-15.151,23.28-32.566,34.72c-3.247,2.132-6.394,4.183-9.458,6.18
				c-13.995,9.117-26.082,16.992-38.376,26.585c-10.022,7.821-16.701,19.798-17.429,31.259c-0.506,7.965,1.933,15.091,6.868,20.067
				c13.601,13.715,35.131,16.595,50.797,16.595c2.142,0,4.307-0.057,6.435-0.169c20.251-1.06,36.536-3.084,54.448-6.766
				c6.801-1.398,13.781-2.106,20.75-2.106c12.926,0,25.307,2.485,35.801,7.188c18.939,8.485,36.067,25.569,41.652,41.547
				c16.356,46.786-13.25,80.187-29.157,98.129l-1.378,1.555c-12.126,13.729-21.043,25.496-25.136,38.3
				c-5.544,17.341-2.788,24.327,2.213,37.012l0.364,0.923c0.994,2.521,2.371,4.645,3.996,6.431
				C344.983,427.325,344.016,426.517,343.061,425.629z"/>
		</g>
	</g>
	<g id="&#x417;&#x430;&#x43B;&#x438;&#x432;&#x43A;&#x430;_&#x446;&#x432;&#x435;&#x442;&#x43E;&#x43C;_17">
		<g>
			<path style="fill-rule:evenodd;clip-rule:evenodd;fill:#5B676B;" d="M401.205,76.646c-0.106-0.026-0.26-0.008-0.456,0.053
				c-0.392,0.122-0.958,0.416-1.684,0.868c-1.45,0.905-3.536,2.447-6.138,4.531c-5.201,4.167-12.462,10.501-20.813,18.226
				c-16.7,15.454-37.769,36.44-55.418,56.794c-38.893,44.652-67.81,96.101-67.741,96.223c-0.016-0.041-22.751,15.656-23.192,20.688
				c-0.481,4.956-1.418,28.824-1.356,39.173c0.049,10.394-16.649,24.67-37.547,49.947c-25.074,30.49-42.12,51.994-50.311,66.761
				c-0.735,1.334-1.032,2.527-0.95,3.588c0.083,1.06,0.544,1.986,1.323,2.793c1.558,1.613,4.387,2.744,7.992,3.537
				c7.214,1.576,17.502,1.854,27.026,1.813c5.43-0.028,10.464-0.23,15.203-0.641c2.37-0.205,4.665-0.462,6.898-0.773
				c2.234-0.313,4.406-0.68,6.527-1.105c8.487-1.699,16.18-4.34,23.828-8.039c19.596-9.543,29.552-33.486,25.626-48.241
				c-4.934-18.334-12.531-17.41-16.059-32.003c-3.189-13.203,2.991-22.302,6.577-28.816c3.574-6.53,8.013-20.394,18.596-25.763
				c6.904-3.606,26.239-41.646,51.1-79.607c20.383-31.237,43.304-65.513,61.021-92.412c8.862-13.438,16.431-25.002,21.767-33.342
				c2.667-4.171,4.776-7.537,6.21-9.932c0.717-1.197,1.265-2.152,1.628-2.844c0.183-0.346,0.318-0.625,0.407-0.837
				c0.088-0.212,0.128-0.354,0.119-0.427C401.374,76.743,401.313,76.673,401.205,76.646z M224.082,402.796
				c-16.615,23.137-51.523,12.047-51.661,12.083c13.956-18.627,28.103-36.045,42.51-52.737
				C214.995,362.173,238.786,382.686,224.082,402.796z"/>
		</g>
	</g>
	<g id="&#x417;&#x430;&#x43B;&#x438;&#x432;&#x43A;&#x430;_&#x446;&#x432;&#x435;&#x442;&#x43E;&#x43C;_24">
		<g>
			<path style="fill-rule:evenodd;clip-rule:evenodd;fill:#CACFD5;" d="M389.215,86.757c-8.736,4.089-36.902,24.713-71.653,65.639
				c-38.308,45.114-70.771,100.251-70.771,100.251s-16.217,12.175-21.747,18.401c-5.53,6.227-2.788,47.025-2.788,47.025l5.948,1.72
				c0,0,3.689-30.139,6.709-41.105c3.021-10.966,18.894-15.26,23.03-22.323c4.135-7.063,32.723-50.602,66.299-94.323
				C358.32,117.664,397.95,82.668,389.215,86.757z"/>
		</g>
	</g>
	<g id="&#x417;&#x430;&#x43B;&#x438;&#x432;&#x43A;&#x430;_&#x446;&#x432;&#x435;&#x442;&#x43E;&#x43C;_25">
		<g>
			<path style="fill-rule:evenodd;clip-rule:evenodd;fill:#889296;" d="M325.986,174.773c-33.47,48.12-64.604,89.924-65.286,103.431
				s-9.015,8.612-15.645,13.6c-6.629,4.987-12.453,28.438-12.453,28.438l6.01,1.301l12.887-22.305l10.905-4.461
				c0,0,26.017-45.562,56.409-94.729c33.631-54.407,71.966-112.951,71.966-112.951S358.166,128.508,325.986,174.773z"/>
		</g>
	</g>
	
		<g id="&#x417;&#x430;&#x43B;&#x438;&#x432;&#x43A;&#x430;_&#x446;&#x432;&#x435;&#x442;&#x43E;&#x43C;_17_&#x43A;&#x43E;&#x43F;&#x438;&#x44F;">
		<g>
			<path style="fill-rule:evenodd;clip-rule:evenodd;fill:#5DA7D9;" d="M250.023,382.842c-4.934-18.334-12.531-17.41-16.059-32.003
				c-3.189-13.203,2.991-22.302,6.577-28.816c0.391-0.714,0.795-1.528,1.213-2.396c-3.951,1.39-8.452,2.362-11.537,1.143
				c-2.393-0.945-4.434-3.006-6.077-5.254c-2.13,10.198-17.884,24.175-37.279,47.635c-25.074,30.49-42.12,51.994-50.311,66.761
				c-0.735,1.334-1.032,2.527-0.95,3.588c0.083,1.06,0.544,1.986,1.323,2.793c1.558,1.613,4.387,2.744,7.992,3.537
				c7.214,1.576,17.502,1.854,27.026,1.813c5.43-0.028,10.464-0.23,15.203-0.641c2.37-0.205,4.665-0.462,6.898-0.773
				c2.234-0.313,4.406-0.68,6.527-1.105c8.487-1.699,16.18-4.34,23.828-8.039C243.993,421.54,253.949,397.597,250.023,382.842z
				 M224.082,402.796c-16.615,23.137-51.523,12.047-51.661,12.083c13.956-18.627,28.103-36.045,42.51-52.737
				C214.995,362.173,238.786,382.686,224.082,402.796z"/>
		</g>
	</g>
	<g id="&#x417;&#x430;&#x43B;&#x438;&#x432;&#x43A;&#x430;_&#x446;&#x432;&#x435;&#x442;&#x43E;&#x43C;_23">
		<g>
			<path style="fill-rule:evenodd;clip-rule:evenodd;fill:#2A5879;" d="M212.242,358.385c-7.922-0.651-17.425,6.714-29.948,23.954
				c-12.523,17.239-18.285,25.022-15.032,32.202c3.903,1.464,14.589-14.211,26.458-28.947
				C204.048,372.77,215.913,363.264,212.242,358.385z M223.743,318.445l-11.152,15.613
				C212.59,334.059,228.784,334.569,223.743,318.445z M232.897,356.2c0,0-3.334-11.526-1.703-18.956
				c1.713-7.803,6.675-16.196,6.675-16.196C210.058,336.196,232.897,356.2,232.897,356.2z M165.402,424.736
				c-3.448-3.361-0.349-8.205-1.417-12.41c-1.069-4.206-16.796,15.479-14.064,18.27c2.586,2.641,18.448,6.04,26.843,1.479
				C183.042,428.663,169.355,428.59,165.402,424.736z M231.58,370.598c-3.237,1.255,8.462,19.488-2.083,36.135
				c-11.473,18.111-27.179,17.331-34.859,18.388c12.903,5.963,36.406-0.724,45.322-17.132
				C249.6,390.248,234.817,369.343,231.58,370.598z"/>
		</g>
	</g>
	<g id="&#x417;&#x430;&#x43B;&#x438;&#x432;&#x43A;&#x430;_&#x446;&#x432;&#x435;&#x442;&#x43E;&#x43C;_22">
		<g>
			<path style="fill-rule:evenodd;clip-rule:evenodd;fill:#97D0F9;" d="M207.813,350.601c9.442-10.408,2.323-15.39-4.293-7.453
				c-6.617,7.937-14.414,15.001-30.603,35.617c-29.239,37.235-34.564,44.549-37.408,52.114c-2.844,7.564,6.74,0.61,11.897-5.764
				c10.808-13.358,23.146-29.264,34.362-42.915C194.25,367.009,204.605,354.138,207.813,350.601z M235.883,383.159
				c-2.688-12.008-9.097-20.221-13.233-23.683c-4.135-3.462-14.103-2.486-7.597,4.274c6.505,6.762,21.677,23.579,4.577,41.632
				c-12.489,13.185-29.212,13.201-40.132,11.626c-6.214-0.896-10.466-3.912-11.47-1.445c-2.858,7.017,13.446,12.472,28.607,10.854
				c14.53-1.552,28.525-9.809,32.684-14.851C233.478,406.525,238.764,396.028,235.883,383.159z"/>
		</g>
	</g>
	
		<g id="&#x417;&#x430;&#x43B;&#x438;&#x432;&#x43A;&#x430;_&#x446;&#x432;&#x435;&#x442;&#x43E;&#x43C;_18_&#x43A;&#x43E;&#x43F;&#x438;&#x44F;">
		<g>
			<path style="fill-rule:evenodd;clip-rule:evenodd;fill:#352F3C;" d="M403.454,76.594c-0.206-1.648-1.381-2.969-2.992-3.361
				l-0.54-0.117h-0.446c-0.479,0-0.957,0.077-1.452,0.232c-0.71,0.221-1.521,0.623-2.548,1.264
				c-1.565,0.977-3.751,2.586-6.496,4.783c-5.406,4.333-12.868,10.866-21.012,18.398c-19.939,18.453-40.241,39.261-55.694,57.081
				c-20.242,23.239-37.688,48.286-48.76,65.206c-6.334,9.68-11.252,17.714-14.264,22.749c-2.428,4.059-3.908,6.532-4.751,8.156
				c-23.492,16.443-23.919,21.309-24.057,22.883c-0.488,5.031-1.436,29.028-1.374,39.55c0.003,0.663,0.642,5.223,0.642,5.223
				l5.69-2.2c0.054-0.51,1.106-2.559,1.104-3.063c-0.06-9.971,0.849-33.335,1.321-38.609c0.973-2.196,8.756-9.206,21.527-18.104
				c0.691-0.481,1.113-1.031,1.365-1.568c1.422-2.548,29.754-52.39,67.169-95.346c15.29-17.631,35.384-38.225,55.133-56.5
				c5.253-4.858,10.205-9.285,14.479-12.948c-4.807,7.492-11.507,17.747-20.966,32.091c-6.589,10.003-13.898,21.026-21.528,32.534
				c-13.123,19.794-26.692,40.263-39.498,59.887c-10.211,15.592-19.311,30.89-27.34,44.387
				c-9.445,15.879-19.213,32.299-22.332,33.941c-9.584,4.861-14.425,15.21-17.96,22.767c-0.308,0.659-0.587,1.246-0.867,1.834
				c-0.251,0.101-1.497,3.266-1.735,3.357l4.439,4.253c0.141-0.251,2.334-1.102,2.469-1.348c0.781-1.426,1.582-3.135,2.428-4.946
				c3.077-6.576,7.292-15.584,14.629-19.307c4.803-2.509,11.607-13.7,25.319-36.751c7.991-13.433,17.048-28.657,27.173-44.119
				c12.794-19.607,26.356-40.063,39.474-59.847c7.634-11.515,14.946-22.544,21.538-32.551c9.997-15.16,16.923-25.769,21.796-33.387
				c2.82-4.412,4.87-7.691,6.266-10.023c0.763-1.271,1.342-2.286,1.732-3.027c0.241-0.459,0.417-0.83,0.552-1.147
				C403.318,78.334,403.57,77.563,403.454,76.594z"/>
		</g>
	</g>
	<g id="&#x417;&#x430;&#x43B;&#x438;&#x432;&#x43A;&#x430;_&#x446;&#x432;&#x435;&#x442;&#x43E;&#x43C;_18">
		<g>
			<path style="fill-rule:evenodd;clip-rule:evenodd;fill:#1F203F;" d="M251.99,382.073c-2.765-10.273-6.385-15.015-9.578-19.199
				c-2.659-3.483-4.955-6.492-6.459-12.709c-2.562-10.613,1.743-18.219,5.2-24.33c0.356-0.628,0.699-1.235,1.025-1.829
				c0.188-0.344,0.383-0.749,0.574-1.123c-0.026-1.145-0.28-2.57-1.257-3.541c-1.144-1.136-3.428-1.459-4.611-1.553
				c-1.052,0.419-1.996,0.773-2.861,1c-1.298,0.315-2.208,0.37-3.271,0.153c-0.524-0.003-1.534-0.736-2.496-1.812
				c-0.525-0.569-1.071-1.226-1.632-1.896c-1.04-0.662-2.914-1.692-4.429-1.572c-1.484,0.118-2.668,0.955-3.385,1.607
				c-1.446,5.946-9.354,14.817-19.137,25.775c-5.172,5.793-11.036,12.359-17.303,19.941c-26.597,32.34-42.553,52.646-50.696,67.326
				c-1.071,1.939-1.542,3.847-1.401,5.673c0.146,1.886,0.962,3.646,2.355,5.084c1.993,2.065,5.22,3.565,9.872,4.588
				c5.945,1.299,14.266,1.904,26.186,1.904l1.654-0.004c5.692-0.03,10.763-0.245,15.502-0.655c2.43-0.209,4.815-0.478,7.092-0.796
				c2.299-0.321,4.568-0.705,6.745-1.142c8.589-1.72,16.673-4.447,24.725-8.342C245.465,424.366,256.342,398.425,251.99,382.073z
				 M221.155,427.935c-7.47,3.613-14.973,6.145-22.939,7.74c-2.035,0.407-4.159,0.768-6.313,1.068
				c-2.149,0.301-4.404,0.554-6.704,0.752c-4.538,0.394-9.413,0.599-14.899,0.628l-1.618,0.003c-7.156,0-17.492-0.18-24.593-1.731
				c-4.101-0.901-5.591-1.945-6.118-2.491c-0.273-0.282-0.285-0.428-0.291-0.492c-0.009-0.124-0.001-0.6,0.497-1.5
				c7.822-14.102,24.231-34.952,49.925-66.195c6.171-7.466,11.984-13.976,17.113-19.719c10.161-11.38,17.574-19.7,20.214-27.006
				c0.295,0.795,0.695,1.59,1.323,2.339c0.664,0.812,1.708,1.618,3.004,1.928l0.292,0.075l0.455,0.083
				c0.327,0.06,0.569,0.053,0.855,0.072c0.555,0.013,1.108-0.045,1.64-0.164c0.457-0.103,0.88-0.271,1.29-0.455
				c-3.653,6.477-8.702,16.042-5.563,29.041c1.87,7.738,4.872,11.672,7.774,15.475c2.913,3.816,5.925,7.762,8.306,16.611
				C248.341,397.269,238.774,419.355,221.155,427.935z M214.94,359c-1.518-0.741-3.343-0.367-4.446,0.911
				c-15.346,17.779-29.304,35.095-42.67,52.937c-0.844,1.127-0.98,2.634-0.35,3.893c0.501,1.001,1.418,1.71,2.481,1.957l0.119,0.033
				c6.271,1.733,13.255,2.689,19.665,2.689c15.744,0,28.103-5.622,35.721-16.231c5.144-7.033,6.706-14.822,4.646-23.152
				C226.886,369.018,215.775,359.408,214.94,359z M219.44,400.825c-6.271,8.732-16.264,13.16-29.702,13.16
				c-4.054,0-8.368-0.428-12.539-1.225c11.466-15.112,23.413-29.901,36.341-44.991C218.783,373.401,229.27,387.382,219.44,400.825z"
				/>
		</g>
	</g>
	<g id="&#x424;&#x438;&#x433;&#x443;&#x440;&#x430;_12">
		<g>
			<circle style="fill-rule:evenodd;clip-rule:evenodd;fill:#889296;" cx="248.417" cy="278.111" r="7.923"/>
		</g>
	</g>
	<g id="&#x424;&#x438;&#x433;&#x443;&#x440;&#x430;_14">
		<g>
			<ellipse style="fill-rule:evenodd;clip-rule:evenodd;fill:#CACFD5;" cx="249.188" cy="274.775" rx="4.889" ry="4.637"/>
		</g>
	</g>
	<g id="&#x417;&#x430;&#x43B;&#x438;&#x432;&#x43A;&#x430;_&#x446;&#x432;&#x435;&#x442;&#x43E;&#x43C;_26">
		<g>
			<path style="fill-rule:evenodd;clip-rule:evenodd;fill:#352F3C;" d="M247.534,267.028c-5.599,0-10.153,4.555-10.153,10.153
				c0,5.598,4.555,10.153,10.153,10.153c5.598,0,10.153-4.556,10.153-10.153C257.688,271.583,253.132,267.028,247.534,267.028z
				 M247.534,282.874c-3.139,0-5.692-2.553-5.692-5.692c0-3.139,2.554-5.692,5.692-5.692c3.14,0,5.692,2.554,5.692,5.692
				C253.227,280.321,250.674,282.874,247.534,282.874z"/>
		</g>
	</g>
</g>
</svg>
