<?xml version="1.0" encoding="iso-8859-1"?>
<!-- Generator: Adobe Illustrator 15.0.0, SVG Export Plug-In . SVG Version: 6.00 Build 0)  -->
<!DOCTYPE svg PUBLIC "-//W3C//DTD SVG 1.1//EN" "http://www.w3.org/Graphics/SVG/1.1/DTD/svg11.dtd" [
	<!ENTITY ns_extend "http://ns.adobe.com/Extensibility/1.0/">
	<!ENTITY ns_ai "http://ns.adobe.com/AdobeIllustrator/10.0/">
	<!ENTITY ns_graphs "http://ns.adobe.com/Graphs/1.0/">
	<!ENTITY ns_vars "http://ns.adobe.com/Variables/1.0/">
	<!ENTITY ns_imrep "http://ns.adobe.com/ImageReplacement/1.0/">
	<!ENTITY ns_sfw "http://ns.adobe.com/SaveForWeb/1.0/">
	<!ENTITY ns_custom "http://ns.adobe.com/GenericCustomNamespace/1.0/">
	<!ENTITY ns_adobe_xpath "http://ns.adobe.com/XPath/1.0/">
]>
<svg version="1.1" xmlns:x="&ns_extend;" xmlns:i="&ns_ai;" xmlns:graph="&ns_graphs;"
	 xmlns="http://www.w3.org/2000/svg" xmlns:xlink="http://www.w3.org/1999/xlink" x="0px" y="0px" width="512px" height="512px"
	 viewBox="0 0 512 512" style="enable-background:new 0 0 512 512;" xml:space="preserve">
<metadata>
	<sfw  xmlns="&ns_sfw;">
		<slices></slices>
		<sliceSourceBounds  height="512" width="512" x="94" y="94" bottomLeftOrigin="true"></sliceSourceBounds>
	</sfw>
</metadata>
<g id="&#x438;&#x433;&#x440;&#x43E;&#x432;&#x44B;&#x435;_1_">
	<g id="&#x417;&#x430;&#x43B;&#x438;&#x432;&#x43A;&#x430;_&#x446;&#x432;&#x435;&#x442;&#x43E;&#x43C;_1">
		<g>
			<rect x="3.699" y="4.439" style="fill-rule:evenodd;clip-rule:evenodd;fill:#B17D7B;" width="503.121" height="503.121"/>
		</g>
	</g>
	<g id="&#x417;&#x430;&#x43B;&#x438;&#x432;&#x43A;&#x430;_&#x446;&#x432;&#x435;&#x442;&#x43E;&#x43C;_5">
		<g>
			<path style="fill-rule:evenodd;clip-rule:evenodd;fill:#F3D4C3;" d="M484.624,25.156l20.717-20.717H3.699l20.717,20.717H484.624z
				 M24.416,486.844L3.699,507.561h501.642l-20.717-20.717H24.416z"/>
		</g>
	</g>
	
		<g id="&#x417;&#x430;&#x43B;&#x438;&#x432;&#x43A;&#x430;_&#x446;&#x432;&#x435;&#x442;&#x43E;&#x43C;_1_&#x43A;&#x43E;&#x43F;&#x438;&#x44F;_2">
		<g>
			<radialGradient id="SVGID_1_" cx="256.7402" cy="256" r="228.0762" gradientUnits="userSpaceOnUse">
				<stop  offset="0" style="stop-color:#99708E"/>
				<stop  offset="0.2" style="stop-color:#956D8B"/>
				<stop  offset="0.4182" style="stop-color:#886080"/>
				<stop  offset="0.6121" style="stop-color:#734E6D"/>
				<stop  offset="0.7636" style="stop-color:#573A54"/>
				<stop  offset="0.897" style="stop-color:#40293F"/>
				<stop  offset="1" style="stop-color:#331F32"/>
			</radialGradient>
			<polygon style="fill-rule:evenodd;clip-rule:evenodd;fill:url(#SVGID_1_);" points="432.765,27.924 78.856,27.924 28.664,78.116 
				28.664,435.769 76.972,484.076 433.367,484.076 484.816,432.627 484.816,79.976 			"/>
		</g>
	</g>
	
		<g id="&#x417;&#x430;&#x43B;&#x438;&#x432;&#x43A;&#x430;_&#x446;&#x432;&#x435;&#x442;&#x43E;&#x43C;_1_&#x43A;&#x43E;&#x43F;&#x438;&#x44F;">
		<g>
			<path style="fill-rule:evenodd;clip-rule:evenodd;fill:#F2D2C0;" d="M25.109,24.37v463.26h463.26V24.37H25.109z M466.659,418.566
				l-47.353,47.353H91.283l-44.462-44.462V92.277l46.196-46.196h325.734l47.908,47.907V418.566z"/>
		</g>
	</g>
	<g id="&#x424;&#x438;&#x433;&#x443;&#x440;&#x430;_3">
		<g>
			<path style="fill-rule:evenodd;clip-rule:evenodd;fill:#A18180;" d="M429.873,25.156l-344.047-1.48l-62.15,62.891v342.566
				l59.931,59.19l344.046-0.739l59.931-59.191V84.347L429.873,25.156z M477.226,423.954l-56.231,54.751H91.006l-56.231-54.751
				V88.046l54.012-54.012h334.428l54.751,56.231L477.226,423.954z"/>
		</g>
	</g>
	<g id="&#x417;&#x430;&#x43B;&#x438;&#x432;&#x43A;&#x430;_&#x446;&#x432;&#x435;&#x442;&#x43E;&#x43C;_6">
		<g>
			<path style="fill-rule:evenodd;clip-rule:evenodd;fill:#C7907F;" d="M23.676,86.566l62.52-62.752l-62.52-0.139V86.566z
				 M487.584,23.63l-62.521,0.139l62.521,62.752V23.63z M22.196,488.37l62.521-0.139l-62.521-62.752V488.37z M425.803,488.971
				l62.521,0.139v-62.89L425.803,488.971z"/>
		</g>
	</g>
	
		<g id="&#x417;&#x430;&#x43B;&#x438;&#x432;&#x43A;&#x430;_&#x446;&#x432;&#x435;&#x442;&#x43E;&#x43C;_6_&#x43A;&#x43E;&#x43F;&#x438;&#x44F;">
		<g>
			<path style="fill-rule:evenodd;clip-rule:evenodd;fill:#FDECE7;" d="M27.964,485.886l56.753,2.346L55.27,458.579L27.964,485.886z
				 M54.694,55.434l31.502-31.619l-59.314,3.562L54.694,55.434z M425.803,488.971l59.314-3.113l-28.158-28.158L425.803,488.971z
				 M485.117,26.582l-60.054-2.813l31.376,31.491L485.117,26.582z"/>
		</g>
	</g>
	<g id="&#x424;&#x438;&#x433;&#x443;&#x440;&#x430;_1">
		<g>
			<path style="fill-rule:evenodd;clip-rule:evenodd;fill:#C7907F;" d="M34.774,487.769l0.093-9.156h-8.417L34.774,487.769z
				 M477.04,477.873l0.093,9.155l8.323-9.155H477.04z M476.393,25.804l-0.092,9.156h8.416L476.393,25.804z M26.451,34.96h8.417
				l-0.093-9.156L26.451,34.96z"/>
		</g>
	</g>
	<g id="&#x424;&#x438;&#x433;&#x443;&#x440;&#x430;_2">
		<g>
			<path style="fill-rule:evenodd;clip-rule:evenodd;fill:#FDECE7;" d="M22.597,480.813L9.026,497.72l-1.627,10.285l22.418-0.296
				l0.532-18.644l-3.492-6.957L22.597,480.813z M508.448,495.817l-18.855-14.581l-4.261,4.043l-3.068,4.209l2.646,16.529
				l23.688,1.353L508.448,495.817z M21.002,31.648l4.26-1.295l3.492-6.956L28.222,4.754L5.803,4.458l1.628,10.284L21.002,31.648z
				 M487.997,31.226l18.856-14.581l0.147-11.553l-23.687,1.353l-2.646,16.53l3.069,4.208L487.997,31.226z"/>
		</g>
	</g>
	<g id="&#x417;&#x430;&#x43B;&#x438;&#x432;&#x43A;&#x430;_&#x446;&#x432;&#x435;&#x442;&#x43E;&#x43C;_2">
		<g>
			<path style="fill-rule:evenodd;clip-rule:evenodd;fill:#2F181B;" d="M0,0v512h512V0H0z M503.121,503.121H8.878V8.879h494.243
				V503.121z"/>
		</g>
	</g>
	<g id="&#x417;&#x430;&#x43B;&#x438;&#x432;&#x43A;&#x430;_&#x446;&#x432;&#x435;&#x442;&#x43E;&#x43C;_3">
		<g>
			<path style="fill-rule:evenodd;clip-rule:evenodd;fill:#40292E;" d="M482.33,20.67H29.346l-9.369,9.369v397.468
				c-0.119,0.585-0.119,1.188,0,1.771v53.925l9.606,9.605h453.025l9.507-9.507V30.455L482.33,20.67z M28.855,34.183l4.633-4.634
				h40.974L28.855,75.156V34.183z M33.726,483.931l-4.871-4.871v-39.857l44.728,44.729H33.726z M483.237,479.158l-4.772,4.772
				H437.63l45.607-45.607V479.158z M483.237,425.769l-58.162,58.162H86.139l-57.283-57.283V87.711l58.162-58.162h338.058
				l58.162,58.162V425.769z M483.237,75.156L437.63,29.549h40.558l5.05,5.05V75.156z"/>
		</g>
	</g>
	
		<g id="&#x417;&#x430;&#x43B;&#x438;&#x432;&#x43A;&#x430;_&#x446;&#x432;&#x435;&#x442;&#x43E;&#x43C;_4_&#x43A;&#x43E;&#x43F;&#x438;&#x44F;" style="opacity:0.502;">
		<g>
			<path style="fill-rule:evenodd;clip-rule:evenodd;fill:#876867;" d="M465.59,92.913l-47.243-47.244
				c-0.685-0.685-1.612-1.068-2.579-1.068H94.545c-0.968,0-1.896,0.384-2.58,1.068L46.409,91.227
				c-0.684,0.684-1.069,1.611-1.069,2.579v324.619c0,0.968,0.385,1.896,1.069,2.579l43.847,43.847
				c0.684,0.684,1.612,1.068,2.579,1.068h323.479c0.968,0,1.896-0.385,2.579-1.068l46.696-46.696
				c0.685-0.685,1.069-1.612,1.069-2.58V95.493C466.659,94.525,466.274,93.598,465.59,92.913z M459.363,414.063l-44.56,44.56H94.346
				l-41.709-41.709V95.316l43.419-43.419h318.201l45.106,45.106V414.063z"/>
		</g>
	</g>
	<g id="&#x417;&#x430;&#x43B;&#x438;&#x432;&#x43A;&#x430;_&#x446;&#x432;&#x435;&#x442;&#x43E;&#x43C;_4">
		<g>
			<path style="fill-rule:evenodd;clip-rule:evenodd;fill:#40292E;" d="M468.534,90.633l-47.907-47.907
				c-0.693-0.694-1.635-1.084-2.615-1.084H92.277c-0.981,0-1.922,0.39-2.616,1.084L43.465,88.922
				c-0.693,0.693-1.083,1.635-1.083,2.615v329.18c0,0.981,0.39,1.922,1.083,2.615l44.463,44.463
				c0.694,0.693,1.634,1.084,2.615,1.084h328.023c0.981,0,1.922-0.391,2.615-1.084l47.353-47.353
				c0.694-0.694,1.084-1.635,1.084-2.616V93.248C469.618,92.268,469.229,91.326,468.534,90.633z M462.22,416.295l-45.186,45.185
				H92.075L49.78,419.185V93.07l44.029-44.03h322.67l45.74,45.741V416.295z"/>
		</g>
	</g>
</g>
<g id="&#x418;&#x437;&#x43E;&#x431;&#x440;&#x430;&#x436;&#x435;&#x43D;&#x438;&#x435;_xA0_397_1_">
	<g id="&#x424;&#x438;&#x433;&#x443;&#x440;&#x430;_104_1_" style="opacity:0.502;">
		<g>
			<polygon style="fill-rule:evenodd;clip-rule:evenodd;fill:#331F32;" points="418.336,242.351 418.132,199.453 255.957,126.075 
				94.135,199.628 94.371,245.241 102.488,248.834 102.985,337.788 254.816,414.344 407.741,339.505 407.371,248.824 			"/>
		</g>
	</g>
	<g id="&#x413;&#x440;&#x443;&#x43F;&#x43F;&#x430;_20_2_">
		<g id="&#x417;&#x430;&#x43B;&#x438;&#x432;&#x43A;&#x430;_&#x446;&#x432;&#x435;&#x442;&#x43E;&#x43C;_78_1_">
			<g>
				<path style="fill-rule:evenodd;clip-rule:evenodd;fill:#D8795F;" d="M382.784,230.237l-127.818,64.094l-127.818-64.094
					l-0.369,102.181c0,0,121.917,79.933,128.187,79.933c6.271,0,128.188-79.933,128.188-79.933L382.784,230.237z"/>
			</g>
		</g>
		<g id="&#x417;&#x430;&#x43B;&#x438;&#x432;&#x43A;&#x430;_&#x446;&#x432;&#x435;&#x442;&#x43E;&#x43C;_84_1_">
			<g>
				<polygon style="fill-rule:evenodd;clip-rule:evenodd;fill:#FFC288;" points="125.765,229.961 126.042,331.681 255.15,413.572 
					255.15,294.055 				"/>
			</g>
		</g>
		<g id="&#x417;&#x430;&#x43B;&#x438;&#x432;&#x43A;&#x430;_&#x446;&#x432;&#x435;&#x442;&#x43E;&#x43C;_85_1_">
			<g>
				<path style="fill-rule:evenodd;clip-rule:evenodd;fill:#D8795F;" d="M255.889,291.841l-128.326-61.88l-0.092,31.678
					c0,0,26.223,7.772,55.359,22.127c34.64,17.064,73.151,41.183,73.151,41.183L255.889,291.841z"/>
			</g>
		</g>
		
			<g id="&#x417;&#x430;&#x43B;&#x438;&#x432;&#x43A;&#x430;_&#x446;&#x432;&#x435;&#x442;&#x43E;&#x43C;_85_&#x43A;&#x43E;&#x43F;&#x438;&#x44F;_1_">
			<g>
				<path style="fill-rule:evenodd;clip-rule:evenodd;fill:#AA4E46;" d="M383.522,229.961l-128.326,61.88l-0.092,33.107
					c0,0,36.391-25.878,69.326-42.104c31.276-15.408,59.184-21.206,59.184-21.206L383.522,229.961z"/>
			</g>
		</g>
		<g id="&#x417;&#x430;&#x43B;&#x438;&#x432;&#x43A;&#x430;_&#x446;&#x432;&#x435;&#x442;&#x43E;&#x43C;_86_1_">
			<g>
				<path style="fill-rule:evenodd;clip-rule:evenodd;fill:#EE9971;" d="M255.15,374.471c0,0-21.768,17.762-71.198-15.76
					c-18.18-12.329-32.665-20.309-40.917-29.844c-14.185-16.392-17.316-29.142-17.316-29.142l0.23,31.079l129.34,81.2
					L255.15,374.471z"/>
			</g>
		</g>
		
			<g id="&#x417;&#x430;&#x43B;&#x438;&#x432;&#x43A;&#x430;_&#x446;&#x432;&#x435;&#x442;&#x43E;&#x43C;_86_&#x43A;&#x43E;&#x43F;&#x438;&#x44F;_1_">
			<g>
				<path style="fill-rule:evenodd;clip-rule:evenodd;fill:#E98D6E;" d="M367.081,328.867c-8.251,9.535-22.737,17.515-40.917,29.844
					c-49.43,33.521-71.198,15.76-71.198,15.76l-0.138,37.534l129.34-81.2l0.23-31.079
					C384.398,299.726,381.266,312.476,367.081,328.867z"/>
			</g>
		</g>
		<g id="&#x417;&#x430;&#x43B;&#x438;&#x432;&#x43A;&#x430;_&#x446;&#x432;&#x435;&#x442;&#x43E;&#x43C;_81_1_">
			<g>
				<path style="fill-rule:evenodd;clip-rule:evenodd;fill:#AA4E46;" d="M258.803,367.046c-0.273-4.648-0.498-9.297-0.701-13.944
					l-0.498-13.944l-0.608-13.943c-0.497-9.296-0.886-18.592-1.475-27.888c-0.012-0.184-0.157-0.334-0.346-0.346
					c-0.203-0.013-0.379,0.142-0.392,0.346c-0.589,9.296-0.979,18.592-1.476,27.888l-0.609,13.943l-0.498,13.944
					c-0.202,4.647-0.427,9.296-0.701,13.944c-0.235,4.646-0.25,9.296-0.037,13.942c0.209,4.648,0.583,9.297,1.094,13.944
					c0.513,4.648,1.169,9.296,2.226,13.944c0.032,0.137,0.138,0.252,0.285,0.285c0.203,0.046,0.406-0.082,0.453-0.285
					c1.057-4.648,1.712-9.296,2.226-13.944c0.51-4.647,0.885-9.296,1.094-13.944C259.053,376.342,259.039,371.692,258.803,367.046z"
					/>
			</g>
		</g>
		<g id="&#x417;&#x430;&#x43B;&#x438;&#x432;&#x43A;&#x430;_&#x446;&#x432;&#x435;&#x442;&#x43E;&#x43C;_92_1_">
			<g>
				<ellipse style="fill-rule:evenodd;clip-rule:evenodd;fill:#FCB45A;" cx="298.033" cy="334.309" rx="18.352" ry="22.456"/>
			</g>
		</g>
		
			<g id="&#x417;&#x430;&#x43B;&#x438;&#x432;&#x43A;&#x430;_&#x446;&#x432;&#x435;&#x442;&#x43E;&#x43C;_92_&#x43A;&#x43E;&#x43F;&#x438;&#x44F;_1_">
			<g>
				<path style="fill-rule:evenodd;clip-rule:evenodd;fill:#D28A31;" d="M298.033,311.853c-8.275,0-15.778,7.181-14.685,9.64
					c1.667,3.747,11.659-0.878,18.835,8.067c7.174,8.945,3.824,21.001,6.465,21.696c1.682,0.442,7.736-12.121,7.736-16.947
					C316.385,321.906,308.169,311.853,298.033,311.853z"/>
			</g>
		</g>
		<g id="&#x417;&#x430;&#x43B;&#x438;&#x432;&#x43A;&#x430;_&#x446;&#x432;&#x435;&#x442;&#x43E;&#x43C;_94_1_">
			<g>
				<path style="fill-rule:evenodd;clip-rule:evenodd;fill:#98402E;" d="M297.203,309.225c-11.746,0-21.303,11.397-21.303,25.407
					c0,14.009,9.557,25.406,21.303,25.406c11.747,0,21.303-11.397,21.303-25.406C318.506,320.622,308.95,309.225,297.203,309.225z
					 M297.203,354.137c-8.492,0-15.4-8.75-15.4-19.505c0-10.756,6.908-19.505,15.4-19.505s15.401,8.749,15.401,19.505
					C312.604,345.387,305.695,354.137,297.203,354.137z"/>
			</g>
		</g>
		<g id="&#x417;&#x430;&#x43B;&#x438;&#x432;&#x43A;&#x430;_&#x446;&#x432;&#x435;&#x442;&#x43E;&#x43C;_93_1_">
			<g>
				<path style="fill-rule:evenodd;clip-rule:evenodd;fill:#947CC3;" d="M382.138,242.732l-32.847,18.609
					c0,0-1.412,6.114-1.412,9.403c0,16.133,11.942,29.211,26.675,29.211c3.33,0,9.456-1.888,9.456-1.888L382.138,242.732z"/>
			</g>
		</g>
		<g id="&#x417;&#x430;&#x43B;&#x438;&#x432;&#x43A;&#x430;_&#x446;&#x432;&#x435;&#x442;&#x43E;&#x43C;_95_1_">
			<g>
				<path style="fill-rule:evenodd;clip-rule:evenodd;fill:#585189;" d="M381.577,242.715l-34.866,17.521
					c-0.152,0.658-2.687,6.357-2.687,9.883c0,17.733,13.29,32.161,29.626,32.161c6.412,0,9.669-2.821,9.669-2.821L381.577,242.715z
					 M375.863,296.84c-16.254,0.199-25.938-12.241-25.938-26.721c3.671-0.96,24.725-11.757,24.725-11.757
					S377.302,289.518,375.863,296.84z"/>
			</g>
		</g>
		<g id="&#x424;&#x438;&#x433;&#x443;&#x440;&#x430;_98_1_">
			<g>
				<polygon style="fill-rule:evenodd;clip-rule:evenodd;fill:#77B4E1;" points="140.059,286.677 134.157,315.449 160.716,327.254 
					164.405,291.104 				"/>
			</g>
		</g>
		<g id="&#x417;&#x430;&#x43B;&#x438;&#x432;&#x43A;&#x430;_&#x446;&#x432;&#x435;&#x442;&#x43E;&#x43C;_96_1_">
			<g>
				<path style="fill-rule:evenodd;clip-rule:evenodd;fill:#638197;" d="M137.277,283.395l-6.695,32.638l30.978,13.767l4.206-41.225
					L137.277,283.395z M157.776,323.274l-22.142-9.842l5.11-24.908l20.204,3.673L157.776,323.274z"/>
			</g>
		</g>
		<g id="&#x424;&#x438;&#x433;&#x443;&#x440;&#x430;_97_1_">
			<g>
				<polygon style="fill-rule:evenodd;clip-rule:evenodd;fill:#D8795F;" points="125.765,297.467 126.042,331.681 144.485,343.484 
					148.912,310.285 				"/>
			</g>
		</g>
		<g id="&#x417;&#x430;&#x43B;&#x438;&#x432;&#x43A;&#x430;_&#x446;&#x432;&#x435;&#x442;&#x43E;&#x43C;_97_1_">
			<g>
				<path style="fill-rule:evenodd;clip-rule:evenodd;fill:#713228;" d="M125.798,294.698l0.464,36.843l20.52,13.55l4.956-36.593
					L125.798,294.698z M143.183,339.165l-14.506-9.284l-0.236-29.225l18.51,10.252L143.183,339.165z"/>
			</g>
		</g>
		<g id="&#x424;&#x438;&#x433;&#x443;&#x440;&#x430;_99_1_">
			<g>
				<polygon style="fill-rule:evenodd;clip-rule:evenodd;fill:#246063;" points="283.002,329.56 254.966,341.087 220.706,326.516 
					220.153,347.635 255.889,363.404 285.676,349.156 				"/>
			</g>
		</g>
		<g id="&#x424;&#x438;&#x433;&#x443;&#x440;&#x430;_99_&#x43A;&#x43E;&#x43F;&#x438;&#x44F;_1_">
			<g>
				<polygon style="fill-rule:evenodd;clip-rule:evenodd;fill:#3E8C90;" points="254.966,341.087 220.706,326.516 220.153,347.635 
					255.889,363.404 				"/>
			</g>
		</g>
		<g id="&#x417;&#x430;&#x43B;&#x438;&#x432;&#x43A;&#x430;_&#x446;&#x432;&#x435;&#x442;&#x43E;&#x43C;_98_1_">
			<g>
				<path style="fill-rule:evenodd;clip-rule:evenodd;fill:#163F41;" d="M285.488,326.861l-29.827,12.264l-36.402-15.481
					l-0.677,25.854l38.025,16.78l32.16-15.384L285.488,326.861z M256.532,361.406l-33.447-14.76l0.429-16.383l32.118,13.66
					l26.244-10.792l2.069,15.162L256.532,361.406z"/>
			</g>
		</g>
		<g id="&#x417;&#x430;&#x43B;&#x438;&#x432;&#x43A;&#x430;_&#x446;&#x432;&#x435;&#x442;&#x43E;&#x43C;_80_1_">
			<g>
				<path style="fill-rule:evenodd;clip-rule:evenodd;fill:#713228;" d="M386.658,229.544c-0.005-1.277-0.669-2.461-1.757-3.13
					c-1.088-0.668-2.445-0.727-3.587-0.154L255.15,289.523L128.986,226.26c-1.14-0.572-2.499-0.514-3.585,0.154
					c-1.088,0.669-1.753,1.853-1.757,3.13l-0.369,102.181c-0.004,1.248,0.623,2.414,1.667,3.099
					c0.305,0.2,30.854,20.224,61.777,39.989c63.435,40.547,66.442,40.547,68.432,40.547c1.99,0,4.998,0,68.433-40.547
					c30.923-19.766,61.473-39.789,61.777-39.989c1.044-0.685,1.671-1.851,1.666-3.099L386.658,229.544z M255.15,407.859
					c-9.375-3.624-80.006-48.967-124.491-78.11l0.34-94.227l122.497,61.426c1.041,0.521,2.265,0.521,3.308,0l122.497-61.426
					l0.34,94.227C335.156,358.893,264.525,404.235,255.15,407.859z"/>
			</g>
		</g>
		<g id="&#x417;&#x430;&#x43B;&#x438;&#x432;&#x43A;&#x430;_&#x446;&#x432;&#x435;&#x442;&#x43E;&#x43C;_76_1_">
			<g>
				<path style="fill-rule:evenodd;clip-rule:evenodd;fill:#FFC893;" d="M254.667,126.46c-6.271,0-134.512,66.274-134.512,66.274
					v46.726c0,0,128.241,68.729,134.512,68.729s134.512-68.729,134.512-68.729v-46.726
					C389.179,192.734,260.938,126.46,254.667,126.46z"/>
			</g>
		</g>
		
			<g id="&#x417;&#x430;&#x43B;&#x438;&#x432;&#x43A;&#x430;_&#x446;&#x432;&#x435;&#x442;&#x43E;&#x43C;_88_&#x43A;&#x43E;&#x43F;&#x438;&#x44F;_1_">
			<g>
				<path style="fill-rule:evenodd;clip-rule:evenodd;fill:#FFB385;" d="M270.551,257.12l118.92-63.172
					c0,0-35.847-19.318-71.554-37.227c-31.985-16.041-64.242-30.878-64.242-30.878l-83.414,40.945c0,0,61.911-10.301,97.85,24.331
					C307.443,229.022,270.551,257.12,270.551,257.12z"/>
			</g>
		</g>
		<g id="&#x417;&#x430;&#x43B;&#x438;&#x432;&#x43A;&#x430;_&#x446;&#x432;&#x435;&#x442;&#x43E;&#x43C;_88_1_">
			<g>
				<path style="fill-rule:evenodd;clip-rule:evenodd;fill:#EE9971;" d="M300.569,242.779l88.901-48.831
					c0,0-35.847-19.318-71.554-37.227c-31.985-16.041-64.242-30.878-64.242-30.878l-24.9,12.772c0,0,47.728,0.998,78.207,38.117
					C337.461,213.853,300.569,242.779,300.569,242.779z"/>
			</g>
		</g>
		<g id="&#x417;&#x430;&#x43B;&#x438;&#x432;&#x43A;&#x430;_&#x446;&#x432;&#x435;&#x442;&#x43E;&#x43C;_89_1_">
			<g>
				<path style="fill-rule:evenodd;clip-rule:evenodd;fill:#FED7B2;" d="M195.271,227.267
					c-54.503-26.99-50.141-47.339-50.141-47.339l-26.005,13.651l136.625,71.933l28.459-15.087
					C284.209,250.425,249.774,254.257,195.271,227.267z"/>
			</g>
		</g>
		<g id="&#x417;&#x430;&#x43B;&#x438;&#x432;&#x43A;&#x430;_&#x446;&#x432;&#x435;&#x442;&#x43E;&#x43C;_87_1_">
			<g>
				<polygon style="fill-rule:evenodd;clip-rule:evenodd;fill:#EE9971;" points="254.413,266.02 254.413,308.81 389.424,240.197 
					389.424,193.718 				"/>
			</g>
		</g>
		
			<g id="&#x417;&#x430;&#x43B;&#x438;&#x432;&#x43A;&#x430;_&#x446;&#x432;&#x435;&#x442;&#x43E;&#x43C;_87_&#x43A;&#x43E;&#x43F;&#x438;&#x44F;_2_1_">
			<g>
				<path style="fill-rule:evenodd;clip-rule:evenodd;fill:#FFB385;" d="M326.635,264.366
					c-53.395,28.864-72.222,28.213-72.222,28.213v16.23l135.011-68.612v-19.92C389.424,220.277,380.031,235.501,326.635,264.366z"/>
			</g>
		</g>
		
			<g id="&#x417;&#x430;&#x43B;&#x438;&#x432;&#x43A;&#x430;_&#x446;&#x432;&#x435;&#x442;&#x43E;&#x43C;_87_&#x43A;&#x43E;&#x43F;&#x438;&#x44F;_1_">
			<g>
				<polygon style="fill-rule:evenodd;clip-rule:evenodd;fill:#FFB385;" points="120.155,192.734 120.155,239.214 255.166,307.826 
					255.166,265.036 				"/>
			</g>
		</g>
		<g id="&#x424;&#x438;&#x433;&#x443;&#x440;&#x430;_96_1_">
			<g>
				<polygon style="fill-rule:evenodd;clip-rule:evenodd;fill:#FED7B2;" points="254.905,220.277 255.889,263.56 288.842,246.837 
									"/>
			</g>
		</g>
		
			<g id="&#x417;&#x430;&#x43B;&#x438;&#x432;&#x43A;&#x430;_&#x446;&#x432;&#x435;&#x442;&#x43E;&#x43C;_87_&#x43A;&#x43E;&#x43F;&#x438;&#x44F;_3_1_">
			<g>
				<path style="fill-rule:evenodd;clip-rule:evenodd;fill:#E98D6E;" d="M189.79,267.752
					c-55.241-27.896-69.651-48.212-69.651-48.212v20.657L255.15,308.81v-16.969C255.15,291.841,245.03,295.649,189.79,267.752z"/>
			</g>
		</g>
		<g id="&#x417;&#x430;&#x43B;&#x438;&#x432;&#x43A;&#x430;_&#x446;&#x432;&#x435;&#x442;&#x43E;&#x43C;_83_1_">
			<g>
				<path style="fill-rule:evenodd;clip-rule:evenodd;fill:#CE705D;" d="M352.903,211.563
					c-11.264,5.464-21.515,10.955-32.696,16.577c-11.229,5.538-22.324,11.32-33.486,16.979l-31.571,16.455l-31.573-16.445
					c-11.16-5.664-22.262-11.438-33.486-16.979c-11.182-5.623-22.433-11.113-33.698-16.578c-12.134-5.793-23.275-13.113-34.04-17.93
					c10.687,6.56,21.527,14.83,32.359,21.115c10.868,6.216,21.75,12.406,32.702,18.465c10.908,6.142,21.939,12.049,32.913,18.066
					l31.334,16.756l3.491,40.846l3.491-40.846l31.34-16.747c10.97-6.022,22.006-11.921,32.911-18.065
					c10.951-6.06,20.835-12.249,31.702-18.466c10.829-6.289,21.693-13.691,32.379-20.257
					C375.525,199.626,364.208,206.171,352.903,211.563z"/>
			</g>
		</g>
		<g id="&#x417;&#x430;&#x43B;&#x438;&#x432;&#x43A;&#x430;_&#x446;&#x432;&#x435;&#x442;&#x43E;&#x43C;_82_1_">
			<g>
				<path style="fill-rule:evenodd;clip-rule:evenodd;fill:#8B4736;" d="M391.355,189.459
					c-38.798-20.051-129.734-66.686-136.205-66.686c-6.469,0-97.408,46.635-136.206,66.686c-1.226,0.634-1.995,1.897-1.995,3.277
					v46.726c0,1.359,0.748,2.608,1.946,3.251c48.199,25.831,129.993,69.167,136.255,69.167c6.263,0,88.055-43.336,136.253-69.167
					c1.199-0.643,1.947-1.892,1.947-3.251v-46.726C393.352,191.356,392.582,190.093,391.355,189.459z M385.974,237.253
					c-47.282,25.318-122.091,64.605-130.823,67.182c-8.732-2.576-83.541-41.863-130.823-67.182v-42.271
					c47.366-24.457,122.258-62.381,130.823-64.771c8.565,2.391,83.457,40.314,130.823,64.771V237.253z"/>
			</g>
		</g>
		<g id="&#x424;&#x438;&#x433;&#x443;&#x440;&#x430;_95_1_">
			<g>
				<polygon style="fill-rule:evenodd;clip-rule:evenodd;fill:#CE705D;" points="283.14,250.956 258.824,226.902 261.283,259.518 
					284.107,290.995 				"/>
			</g>
		</g>
		<g id="&#x424;&#x438;&#x433;&#x443;&#x440;&#x430;_94_1_">
			<g>
				<polygon style="fill-rule:evenodd;clip-rule:evenodd;fill:#612423;" points="278.805,253.938 259.7,234.464 261.237,259.518 
					280.973,285.938 				"/>
			</g>
		</g>
	</g>
	<g id="&#x413;&#x440;&#x443;&#x43F;&#x43F;&#x430;_21_2_">
		<g id="&#x424;&#x438;&#x433;&#x443;&#x440;&#x430;_93_1_" style="opacity:0.502;">
			<g>
				<path style="fill-rule:evenodd;clip-rule:evenodd;fill:#AA4E46;" d="M346.48,217.449l-48.943-25.923
					c22.223-12.022,39.779-21.441,39.779-21.441l-17.957-10.498l-39.906,22.361l-64.142-33.972l-15.985,1.476l71.668,37.236
					l-81.013,45.394l-2.951,140.176l7.952-0.926l8.072,5.131c0,0,1.892-52.424,2.492-88.313c0.394-23.586,0.259-44.789,1.478-46.215
					c1.791-2.096,45.716-26.135,82.076-45.839l48.436,25.166l0.614,139.961l8.454-8.392L346.48,217.449z M308.132,242.304
					l0.89,133.033l5.229-3.324l-1.984-138.671L308.132,242.304z"/>
			</g>
		</g>
		
			<g id="&#x417;&#x430;&#x43B;&#x438;&#x432;&#x43A;&#x430;_&#x446;&#x432;&#x435;&#x442;&#x43E;&#x43C;_90_&#x43A;&#x43E;&#x43F;&#x438;&#x44F;_2_1_">
			<g>
				<path style="fill-rule:evenodd;clip-rule:evenodd;fill:#EC4B42;" d="M310.875,150.766c0,0-135.173,67.068-138.17,70.987
					c-2.997,3.92-1.291,140.614-1.291,140.614l24.6,15.931c0,0,0.761-135.656,3.113-141.167
					c2.352-5.51,136.694-72.831,136.694-72.831L310.875,150.766z"/>
			</g>
		</g>
		
			<g id="&#x417;&#x430;&#x43B;&#x438;&#x432;&#x43A;&#x430;_&#x446;&#x432;&#x435;&#x442;&#x43E;&#x43C;_90_&#x43A;&#x43E;&#x43F;&#x438;&#x44F;_3_1_">
			<g>
				<path style="fill-rule:evenodd;clip-rule:evenodd;fill:#D03737;" d="M171.755,229.541c-0.596,10.837-0.802,31.511-0.823,53.39
					c3.668-0.24,8.251-0.133,12.839,1.057c4.865,1.261,9.637,5.104,13.183,8.613c0.375-21.769,0.88-41.497,1.539-50.488
					c-4.709,0.081-10.512-0.574-15.845-3.329C178.574,236.677,174.829,233.119,171.755,229.541z M171.217,343.464
					c0.104,11.459,0.197,18.903,0.197,18.903l24.6,15.931c0,0,0.047-8.34,0.153-20.961c-4.572-0.021-9.449-0.815-13.702-3.181
					C178.295,351.836,174.387,347.622,171.217,343.464z M266.738,172.8c-15.477,7.765-32.875,16.536-48.471,24.501
					c4.876,0.93,9.929,2.264,14.171,4.181c5.556,2.512,9.915,5.877,13.174,9.024c15.228-8.016,32.063-16.689,47.034-24.337
					c-5.883-1.558-12.119-3.652-17.346-6.411C271.453,177.727,268.709,175.222,266.738,172.8z M310.875,150.766
					c0,0-3.789,1.88-10.074,5.01c4.22,1.941,8.553,4.219,12.021,6.677c4.036,2.859,7.26,5.898,9.701,8.543
					c8.205-4.144,13.297-6.695,13.297-6.695L310.875,150.766z"/>
			</g>
		</g>
		
			<g id="&#x417;&#x430;&#x43B;&#x438;&#x432;&#x43A;&#x430;_&#x446;&#x432;&#x435;&#x442;&#x43E;&#x43C;_91_&#x43A;&#x43E;&#x43F;&#x438;&#x44F;_1_">
			<g>
				<path style="fill-rule:evenodd;clip-rule:evenodd;fill:#8A1E1E;" d="M337.527,161.718l-24.945-13.534
					c-0.844-0.458-1.855-0.478-2.719-0.049c-40.828,20.257-136.121,67.808-139.203,71.838c-1.047,1.369-2.481,3.245-2.376,73.573
					c0.052,34.283,0.474,68.527,0.479,68.87c0.013,0.987,0.519,1.902,1.347,2.439l24.6,15.932c0.485,0.315,1.044,0.474,1.604,0.474
					c0.481,0,0.964-0.118,1.402-0.354c0.949-0.513,1.543-1.501,1.549-2.58c0.296-52.732,1.365-132.072,2.843-139.796
					c6.757-6.124,86.121-46.919,135.336-71.581c0.982-0.492,1.61-1.49,1.628-2.59S338.494,162.241,337.527,161.718z M267.301,196.04
					c-68.703,35.524-69.837,38.185-70.59,39.944c-2.276,5.336-3.086,100.001-3.316,136.919l-18.75-12.143
					c-0.605-49.749-0.873-128.438,0.891-137.264c7.581-5.305,84.009-43.798,135.579-69.395l18.634,10.108
					C319.089,169.576,293.151,182.672,267.301,196.04z"/>
			</g>
		</g>
		
			<g id="&#x417;&#x430;&#x43B;&#x438;&#x432;&#x43A;&#x430;_&#x446;&#x432;&#x435;&#x442;&#x43E;&#x43C;_90_&#x43A;&#x43E;&#x43F;&#x438;&#x44F;_1_">
			<g>
				<path style="fill-rule:evenodd;clip-rule:evenodd;fill:#9B2A2A;" d="M338.334,221.016c-2.997-3.92-138.17-70.987-138.17-70.987
					l-24.946,13.533c0,0,134.343,67.321,136.694,72.832c2.352,5.51,3.113,141.167,3.113,141.167l24.6-15.932
					C339.625,361.629,341.331,224.935,338.334,221.016z"/>
			</g>
		</g>
		
			<g id="&#x417;&#x430;&#x43B;&#x438;&#x432;&#x43A;&#x430;_&#x446;&#x432;&#x435;&#x442;&#x43E;&#x43C;_90_&#x43A;&#x43E;&#x43F;&#x438;&#x44F;_4_1_">
			<g>
				<path style="fill-rule:evenodd;clip-rule:evenodd;fill:#EC4B42;" d="M200.348,149.29l-24.946,13.534l43.187,22.944
					c3.188-5.603,10.383-12.415,26.513-13.636L200.348,149.29z M286.348,193.185l-36.578-18.67
					c-3.863,1.395-8.712,3.317-12.93,5.518c-5.176,2.701-9.94,5.716-13.607,8.204l36.16,19.212
					c2.576-2.284,6.956-5.745,12.729-8.727C276.563,196.428,282.114,194.496,286.348,193.185z M328.759,332.023
					c-4.253,2.365-9.13,3.158-13.702,3.181c0.105,12.621,0.152,41.618,0.152,41.618l24.601-15.931c0,0,0.093-28.102,0.197-39.561
					C336.836,325.489,332.929,329.703,328.759,332.023z M338.721,219.915l-47.555-24.271c-2.709,5.289-9.693,13.67-26.825,14.434
					l46.389,24.646c0,0,12.155,0.935,19.394-2.896C336.862,228.264,338.721,219.915,338.721,219.915z"/>
			</g>
		</g>
		<g id="&#x417;&#x430;&#x43B;&#x438;&#x432;&#x43A;&#x430;_&#x446;&#x432;&#x435;&#x442;&#x43E;&#x43C;_91_1_">
			<g>
				<path style="fill-rule:evenodd;clip-rule:evenodd;fill:#8A1E1E;" d="M340.379,219.234c-3.082-4.03-98.375-51.581-139.203-71.838
					c-0.863-0.429-1.875-0.408-2.719,0.05l-24.946,13.533c-0.967,0.524-1.561,1.543-1.543,2.643s0.646,2.097,1.628,2.59
					c49.214,24.662,128.579,65.457,135.335,71.581c1.555,8.127,2.549,87.479,2.843,139.795c0.006,1.079,0.599,2.068,1.549,2.581
					c0.438,0.236,0.921,0.354,1.402,0.354c0.56,0,1.118-0.159,1.604-0.475l24.601-15.931c0.828-0.538,1.334-1.452,1.347-2.439
					c0.005-0.343,0.427-34.587,0.479-68.87C342.859,222.479,341.426,220.604,340.379,219.234z M336.395,360.022l-18.75,12.144
					c-0.23-36.919-1.04-131.583-3.316-136.92c-0.752-1.76-1.887-4.419-70.589-39.944c-25.851-13.367-51.788-26.464-62.448-31.828
					l18.634-10.109c51.57,25.597,127.999,64.091,135.579,69.395C337.268,231.586,337,310.274,336.395,360.022z"/>
			</g>
		</g>
		<g id="&#x413;&#x440;&#x443;&#x43F;&#x43F;&#x430;_22_1_">
			<g id="&#x424;&#x438;&#x433;&#x443;&#x440;&#x430;_102_1_" style="opacity:0.702;">
				<g>
					<path style="fill-rule:evenodd;clip-rule:evenodd;fill:#713228;" d="M137.466,206.966c-4.45,7.517-3.784,31.588-3.784,31.588
						l0.887,20.413l8.459-6.629l17.334,19.886c0,0-1.178-58.106,3.804-62.008c4.15-0.173,5.194-5.284,5.194-5.284
						S141.916,199.45,137.466,206.966z M313.143,175.096c0,0-36.24,10.294-65.969,24.459c-19.384,9.236-35.427,22.152-38.828,27.933
						c-9.513,16.17-7.605,40.538-7.605,40.538l-0.477,22.394l7.638-13.813l19.109,14.616c0,0-5.186-45.07-5.325-54.167
						c-0.116-7.598,16.571-24.356,22.078-29.678c10.761,5.271,38.519,17.982,55.132,17.572c25.663-0.633,34.34-19.485,35.172-31.051
						S313.143,175.096,313.143,175.096z"/>
				</g>
			</g>
			<g id="&#x424;&#x438;&#x433;&#x443;&#x440;&#x430;_101_&#x43A;&#x43E;&#x43F;&#x438;&#x44F;_1_">
				<g>
					<path style="fill-rule:evenodd;clip-rule:evenodd;fill:#FF4E44;" d="M322.725,184.858
						c-0.693-2.469-12.609-13.206-25.303-12.605c-10.971,0.519-28.713,11.074-28.713,11.074l-4.422,1.753l9.18-13.979l-0.609-23.298
						c0,0-12.203-11.676-15.365-12.646c-3.162-0.972-12.742,1.596-23.321,5.045c-9.622,3.137-12.873,7.02-16.479,12.594
						c-3.606,5.575-3.3,11.811-0.341,22.634c3.892,14.233,7.563,16.083,7.563,16.083s-21.565-0.03-42.093,0.81
						c-12.318,0.503-28.04,1.441-37.29,4.565c-6.581,2.223-8.462,6.195-9.934,9.005c-6.986,13.335-5.907,44.739-5.907,44.739
						l12.49-7.164l10.561,18.36c0,0-0.112-44.793,7.219-50.042c5.28-3.78,32.708-4.078,50.64-6.437
						c2.901-0.382,6.854-1.853,10.511-3.449c-11.106,6.166-29.996,18.126-31.07,28.665c-1.525,14.978,4.438,49.258,4.438,49.258
						l9.319-14.2l16.863,12.425c0,0-7.312-41.141-2.458-48.74c4.677-7.323,26.928-23.672,28.539-24.851
						c1.036,0.23,4.441,1.108,7.326,3.268c10.63,7.953,27.605,12.542,42.092,13.389c13.43,0.784,20.492-12.625,20.492-12.625
						S323.418,187.327,322.725,184.858z M249.149,182.816l-5.642-1.979c0,0-6.007-28.157-3.112-29.271
						c2.896-1.115,10.151,6.556,12.215,12.348C254.674,169.704,249.149,182.816,249.149,182.816z M273.023,193.29
						c0,0,9.877-2.968,18.451-1.539c7.299,1.217,13.5,6.864,13.5,6.864S288.001,202.83,273.023,193.29z"/>
				</g>
			</g>
			<g id="&#x424;&#x438;&#x433;&#x443;&#x440;&#x430;_101_1_">
				<g>
					<path style="fill-rule:evenodd;clip-rule:evenodd;fill:#D03737;" d="M201.818,242.816c-4.641-2.552-8.901-6.916-11.915-10.497
						c-0.951,15.73,4.574,47.504,4.574,47.504l9.319-14.2l16.863,12.425c0,0-3.207-18.057-3.961-32.455
						C211.549,245.733,206.051,245.145,201.818,242.816z M140.541,220.835c-3.158-1.606-5.718-4.317-7.746-7.221
						c-3.859,14.992-3.105,37.018-3.105,37.018l12.49-7.164l10.561,18.36c0,0-0.056-23.898,2.771-38.827
						C150.694,223.402,145.075,223.141,140.541,220.835z M322.725,184.858c-0.24-0.855-1.851-2.709-4.352-4.735
						c-3.033,1.235-6.336,3.5-7.224,7.631c-1.273,5.928,1.924,14.771,1.924,14.771l-7.655-6.129c0,0-10.704-6.543-23.916-5.579
						c-14.119,1.031-31.523,7.823-35.78,9.559c-0.253,0.417-0.978,0.405-0.978,0.405s0.348-0.148,0.978-0.405
						c0.4-0.661-0.389-2.403-7.159-7.001c-3.296-2.238-10.442,3.076-10.442,3.076s3.748-9.421,7.042-12.626
						c2.844-2.768,5.91-3.404,5.91-3.404s-0.019,5.375,2.854,6.742c3.198,1.522,9.322-0.946,9.322-0.946l13.138-4.334l7.08-10.781
						l-0.609-23.298l-15.365-12.646l-16.575,14.818c3.408,1.52,10.029,9.266,11.693,13.938c2.063,5.791-3.461,18.903-3.461,18.903
						l-5.642-1.979c0,0-3.971-18.615-3.899-26.173c-2.967-0.7-8.354-1.349-13.401,1.326c-4.086,2.165-8.004,6.102-10.933,9.543
						c0.329,2.847,1.033,6.082,2.076,9.896c3.892,14.233,7.563,16.083,7.563,16.083l-28.835-0.189c0,0,7.263,2.384,8.015,5.797
						c0.9,4.087-4.684,9.325-4.684,9.325s7.234-1.325,14.465-3.396c5.948-1.704,12.144-4.228,12.144-4.228l-19.444,10.221
						c0,0,11.398-3.173,17.062-0.8c5.79,2.425,5.846,10.396,5.846,10.396s16.078-13.318,17.257-14.182
						c1.036,0.23,4.441,1.108,7.326,3.268c10.63,7.953,27.605,12.542,42.092,13.389c13.43,0.784,20.492-12.625,20.492-12.625
						S323.418,187.327,322.725,184.858z M273.023,193.29c0,0,9.877-2.968,18.451-1.539c7.299,1.217,13.5,6.864,13.5,6.864
						S288.001,202.83,273.023,193.29z"/>
				</g>
			</g>
			<g id="&#x424;&#x438;&#x433;&#x443;&#x440;&#x430;_103_1_">
				<g>
					<path style="fill-rule:evenodd;clip-rule:evenodd;fill:#FFA170;" d="M146.564,206.352c-4.997-2.542-1.458-9.457-1.458-9.457
						s-5.802,2.756-9.702,7.789c-2.3,2.968-2.192,6.585-2.192,6.585s5.611-4.096,10.857-1.796
						c5.824,2.553,11.345,11.528,11.345,11.528s-0.493-4.564,0.939-7.346c1.338-2.599,6.563-4.924,6.563-4.924
						S152.183,209.21,146.564,206.352z M201.458,229.46c-5.424-2.427-6.686-9.713-6.686-9.713s-3.876,5.105-5.061,9.6
						c-1.128,4.283-0.254,9.276-0.254,9.276s8.023-8.539,14.378-6.444c7.416,2.444,12.144,12.331,12.144,12.331l1.027-14.682
						C217.007,229.828,207.437,232.134,201.458,229.46z M296.123,181.69c2.065-5.077,13.732-7.261,13.732-7.261
						s-4.977-1.968-10.669-2.202c-6.413-0.264-13.626,1.204-13.626,1.204s6.63,4.203,5.354,8.105
						c-1.529,4.68-11.012,9.201-11.012,9.201s6.072-0.55,11.604,0.289c5.45,0.825,10.361,3.039,10.361,3.039
						S294.199,186.42,296.123,181.69z M215.667,154.793c0,0,10.392-7.318,16.415-8.376c6.286-1.104,8.214,4.05,8.214,4.05
						l14.311-14.978l-27.291,4.992L215.667,154.793z"/>
				</g>
			</g>
			<g id="&#x417;&#x430;&#x43B;&#x438;&#x432;&#x43A;&#x430;_&#x446;&#x432;&#x435;&#x442;&#x43E;&#x43C;_103_1_">
				<g>
					<path style="fill-rule:evenodd;clip-rule:evenodd;fill:#8A1E1E;" d="M325.097,183.588
						c-1.046-3.737-14.046-15.207-27.991-14.548c-8.654,0.408-16.516,3.063-23.805,6.341l2.205-3.379
						c0.295-0.452,0.445-0.983,0.431-1.523l-0.608-23.297c-0.018-0.704-0.313-1.369-0.82-1.855
						c-3.807-3.642-13.027-12.225-16.426-13.269c-2.402-0.735-7.233-0.71-24.929,5.06c-10.616,3.462-14.246,8.046-17.888,13.68
						c-4.332,6.696-2.814,14.209-0.715,24.605c1.019,5.046,3.138,9.422,5.352,12.908c-7.487,0.041-22.743,0.197-37.382,0.797
						c-13.565,0.556-28.691,1.549-38.033,4.704c-7.373,2.489-9.731,7.014-11.291,10.007l-0.148,0.284
						c-7.229,13.801-6.254,44.757-6.21,46.067l0.152,4.419l14.017-8.042l14.23,24.738l-0.025-10.018
						c-0.052-20.883,2.269-45.122,6.105-47.87c2.829-2.026,16.977-3.115,28.345-3.991c5.156-0.396,10.422-0.809,15.325-1.311
						c-8.842,6.316-17.018,14.098-17.787,21.646c-1.545,15.168,4.218,48.569,4.463,49.984l1.154,6.634l11.472-17.479l19.965,14.713
						l-1.166-6.563c-2.959-16.661-5.796-42.208-2.836-46.844c3.757-5.883,20.332-18.636,26.401-23.052l0.454-0.33
						c1.332,0.399,3.401,1.173,5.172,2.498c12.157,9.095,30.458,13.15,43.531,13.915c0.435,0.024,0.862,0.038,1.286,0.038
						c14.138,0,21.414-13.504,21.717-14.08c0.073-0.137,0.133-0.28,0.182-0.429C323.648,194.199,325.7,185.732,325.097,183.588z
						 M258.446,138.355c2.747,2.021,7.472,6.17,11.588,10.064l0.558,21.367l-6.063,9.29c-0.145,0.223-0.21,0.467-0.281,0.708
						c-3.123,1.588-6.048,3.095-7.996,4.104l-3.952-1.797c0.981-1.862,4.724-9.612,3.125-16.703
						c-1.646-7.306-7.966-13.004-10.994-15.378C248.215,145.169,255.368,140.225,258.446,138.355z M247.475,179.899l-0.594-0.27
						c-2.515-8.832-4.59-19.264-4.523-24.423c2.71,2.329,6.781,6.505,7.872,11.352c1.335,5.925-2.748,13.254-2.787,13.322
						L247.475,179.899z M219.769,174.35c-2.151-10.661-3.052-15.991-0.031-20.661c3.263-5.049,6.076-8.577,15.067-11.509
						c6.884-2.244,11.591-3.524,14.841-4.251c-4.193,3.146-9.333,7.648-11.627,12.22c-2.73,5.439,1.179,21.605,3.227,29.095
						c-2.303,0.416-5.249,1.424-7.73,3.849c-2.137,2.087-3.79,5.185-4.947,7.857C225.856,187.921,221.296,181.91,219.769,174.35z
						 M189.252,204.098c-16.739,1.288-27.191,2.22-31.035,4.971c-6.171,4.419-7.806,27.532-8.208,42.448l-7.04-12.237l-10.865,6.235
						c0.001-9.007,0.601-29.282,5.661-38.941l0.153-0.293c1.373-2.634,2.929-5.619,8.272-7.425
						c8.754-2.956,24.131-3.92,36.548-4.428c17.337-0.709,35.584-0.796,40.567-0.805l1.688,2.51
						c-1.371,0.694-3.118,1.604-5.123,2.705c-3.271,1.503-6.975,2.945-9.809,3.317C203.859,202.972,196.434,203.544,189.252,204.098
						z M215.766,227.321c-4.195,6.569-1.006,31.359,0.997,44.137l-13.84-10.201l-7.095,10.812
						c-1.625-10.672-4.398-31.309-3.331-41.786c0.905-8.882,18.104-20.222,30.047-26.82c2.479-1.151,4.636-2.286,6.037-3.055
						c0.237,0.197,0.489,0.403,0.754,0.616c0.915,0.837,2.087,1.729,3.514,2.498c0.392,0.229,0.763,0.414,1.108,0.558
						c0.023,0.011,0.043,0.023,0.067,0.034c0.023,0.01,0.047,0.017,0.07,0.026c0.018,0.008,0.039,0.019,0.057,0.025
						c0.045,0.018,0.113,0.04,0.161,0.059c0.647,0.268,1.313,0.495,1.986,0.696c0.948,0.321,2.014,0.674,3.062,1.016
						C232.567,211.099,219.538,221.415,215.766,227.321z M246.842,189.327c-0.651,0.678-1.258,1.423-1.73,2.292
						c-1.581,2.912-1.871,6.51-1.819,9.136c-1.525-0.11-3.376-0.341-5.15-0.833c-0.328-0.111-0.643-0.219-0.932-0.318
						c-0.157-0.054-0.315-0.106-0.469-0.165c-0.233-0.082-0.447-0.159-0.632-0.229c-0.272-0.119-0.515-0.261-0.765-0.396
						c-0.693-0.427-1.662-1.14-2.663-1.94c-0.182-0.175-0.365-0.352-0.508-0.505c0.885-2.646,2.744-7.203,5.063-9.468
						c2.418-2.362,5.697-2.617,6.995-2.617h0.022l5.242,2.382C248.59,187.452,247.664,188.364,246.842,189.327z M314.005,206.869
						c-0.864,1.494-7.106,11.663-17.884,11.031c-15.456-0.902-31.413-5.951-40.65-12.861c-2.13-1.594-4.46-2.555-6.201-3.126
						c-0.059-0.466-0.109-1.02-0.146-1.608c3.543-1.53,7.163-2.863,10.813-3.79c2.157-0.531,4.321-0.873,6.506-1.063
						c1.872-0.159,3.847-0.209,5.618-0.101c8.672,4.876,18.272,5.923,24.866,5.923c4.89,0,8.179-0.565,8.316-0.59l0.688-0.12
						c0.059,0.02,0.119,0.036,0.176,0.057c1.105,0.399,2.18,0.867,3.148,1.441c0.48,0.287,0.932,0.608,1.334,0.949
						c0.517,0.425,0.934,0.774,1.392,1.218c0.767,0.747,1.472,1.585,2.062,2.521C314.029,206.789,314.018,206.83,314.005,206.869z
						 M281.682,193.734c2.967-0.326,6.434-0.365,9.164,0.09c2.177,0.363,4.269,1.189,6.086,2.125h-0.005
						C292.747,195.949,287.244,195.498,281.682,193.734z M314.178,206.324c-0.17-1.011-0.439-2.017-0.819-2.995
						c-0.233-0.606-0.552-1.279-0.824-1.837c-0.37-0.652-0.827-1.212-1.296-1.747c-0.951-1.058-2.002-1.958-3.094-2.783
						c-0.854-0.637-1.715-1.209-2.638-1.768c-2.203-1.763-7.566-5.587-13.786-6.622c-1.693-0.282-3.543-0.427-5.496-0.427
						c-7.091,0-13.508,1.85-14.104,2.025c-2.289,0.299-4.328,0.779-6.426,1.376c-2.278,0.665-4.515,1.502-6.639,2.493
						c-3.531,1.669-6.808,3.652-9.957,5.797c-0.089-2.029,0.052-4.433,0.918-5.893c0.196-0.331,0.455-0.672,0.736-1.014
						c1.582-1.596,4.04-2.588,5.036-2.87c0.181-0.049,0.356-0.118,0.523-0.205c0.065-0.035,6.688-3.487,13.112-6.723
						c8.482-4.272,17.737-8.292,27.932-8.773c10.974-0.504,21.138,8.394,22.561,10.635
						C319.809,187.372,316.959,197.552,314.178,206.324z"/>
				</g>
			</g>
		</g>
	</g>
</g>
</svg>
