<?xml version="1.0" encoding="iso-8859-1"?>
<!-- Generator: Adobe Illustrator 15.0.0, SVG Export Plug-In . SVG Version: 6.00 Build 0)  -->
<!DOCTYPE svg PUBLIC "-//W3C//DTD SVG 1.1//EN" "http://www.w3.org/Graphics/SVG/1.1/DTD/svg11.dtd" [
	<!ENTITY ns_extend "http://ns.adobe.com/Extensibility/1.0/">
	<!ENTITY ns_ai "http://ns.adobe.com/AdobeIllustrator/10.0/">
	<!ENTITY ns_graphs "http://ns.adobe.com/Graphs/1.0/">
	<!ENTITY ns_vars "http://ns.adobe.com/Variables/1.0/">
	<!ENTITY ns_imrep "http://ns.adobe.com/ImageReplacement/1.0/">
	<!ENTITY ns_sfw "http://ns.adobe.com/SaveForWeb/1.0/">
	<!ENTITY ns_custom "http://ns.adobe.com/GenericCustomNamespace/1.0/">
	<!ENTITY ns_adobe_xpath "http://ns.adobe.com/XPath/1.0/">
]>
<svg version="1.1" xmlns:x="&ns_extend;" xmlns:i="&ns_ai;" xmlns:graph="&ns_graphs;"
	 xmlns="http://www.w3.org/2000/svg" xmlns:xlink="http://www.w3.org/1999/xlink" x="0px" y="0px" width="512px" height="512px"
	 viewBox="0 0 512 512" style="enable-background:new 0 0 512 512;" xml:space="preserve">
<metadata>
	<sfw  xmlns="&ns_sfw;">
		<slices></slices>
		<sliceSourceBounds  height="512" width="512" x="94" y="94" bottomLeftOrigin="true"></sliceSourceBounds>
	</sfw>
</metadata>
<g id="&#x438;&#x433;&#x440;&#x43E;&#x432;&#x44B;&#x435;_1_">
	<g id="&#x417;&#x430;&#x43B;&#x438;&#x432;&#x43A;&#x430;_&#x446;&#x432;&#x435;&#x442;&#x43E;&#x43C;_1">
		<g>
			<rect x="3.699" y="4.439" style="fill-rule:evenodd;clip-rule:evenodd;fill:#B17D7B;" width="503.121" height="503.121"/>
		</g>
	</g>
	<g id="&#x417;&#x430;&#x43B;&#x438;&#x432;&#x43A;&#x430;_&#x446;&#x432;&#x435;&#x442;&#x43E;&#x43C;_5">
		<g>
			<path style="fill-rule:evenodd;clip-rule:evenodd;fill:#F3D4C3;" d="M484.624,25.156l20.717-20.717H3.699l20.717,20.717H484.624z
				 M24.416,486.844L3.699,507.561h501.642l-20.717-20.717H24.416z"/>
		</g>
	</g>
	
		<g id="&#x417;&#x430;&#x43B;&#x438;&#x432;&#x43A;&#x430;_&#x446;&#x432;&#x435;&#x442;&#x43E;&#x43C;_1_&#x43A;&#x43E;&#x43F;&#x438;&#x44F;_2">
		<g>
			<radialGradient id="SVGID_1_" cx="256.7402" cy="256" r="228.0762" gradientUnits="userSpaceOnUse">
				<stop  offset="0" style="stop-color:#99708E"/>
				<stop  offset="0.2" style="stop-color:#956D8B"/>
				<stop  offset="0.4182" style="stop-color:#886080"/>
				<stop  offset="0.6121" style="stop-color:#734E6D"/>
				<stop  offset="0.7636" style="stop-color:#573A54"/>
				<stop  offset="0.897" style="stop-color:#40293F"/>
				<stop  offset="1" style="stop-color:#331F32"/>
			</radialGradient>
			<polygon style="fill-rule:evenodd;clip-rule:evenodd;fill:url(#SVGID_1_);" points="432.765,27.924 78.856,27.924 28.664,78.116 
				28.664,435.769 76.972,484.076 433.367,484.076 484.816,432.627 484.816,79.976 			"/>
		</g>
	</g>
	
		<g id="&#x417;&#x430;&#x43B;&#x438;&#x432;&#x43A;&#x430;_&#x446;&#x432;&#x435;&#x442;&#x43E;&#x43C;_1_&#x43A;&#x43E;&#x43F;&#x438;&#x44F;">
		<g>
			<path style="fill-rule:evenodd;clip-rule:evenodd;fill:#F2D2C0;" d="M25.109,24.37v463.26h463.26V24.37H25.109z M466.659,418.566
				l-47.353,47.353H91.283l-44.462-44.462V92.277l46.196-46.196h325.734l47.908,47.907V418.566z"/>
		</g>
	</g>
	<g id="&#x424;&#x438;&#x433;&#x443;&#x440;&#x430;_3">
		<g>
			<path style="fill-rule:evenodd;clip-rule:evenodd;fill:#A18180;" d="M429.873,25.156l-344.047-1.48l-62.15,62.891v342.566
				l59.931,59.19l344.046-0.739l59.931-59.191V84.347L429.873,25.156z M477.226,423.954l-56.231,54.751H91.006l-56.231-54.751
				V88.046l54.012-54.012h334.428l54.751,56.231L477.226,423.954z"/>
		</g>
	</g>
	<g id="&#x417;&#x430;&#x43B;&#x438;&#x432;&#x43A;&#x430;_&#x446;&#x432;&#x435;&#x442;&#x43E;&#x43C;_6">
		<g>
			<path style="fill-rule:evenodd;clip-rule:evenodd;fill:#C7907F;" d="M23.676,86.566l62.52-62.752l-62.52-0.139V86.566z
				 M487.584,23.63l-62.521,0.139l62.521,62.752V23.63z M22.196,488.37l62.521-0.139l-62.521-62.752V488.37z M425.803,488.971
				l62.521,0.139v-62.89L425.803,488.971z"/>
		</g>
	</g>
	
		<g id="&#x417;&#x430;&#x43B;&#x438;&#x432;&#x43A;&#x430;_&#x446;&#x432;&#x435;&#x442;&#x43E;&#x43C;_6_&#x43A;&#x43E;&#x43F;&#x438;&#x44F;">
		<g>
			<path style="fill-rule:evenodd;clip-rule:evenodd;fill:#FDECE7;" d="M27.964,485.886l56.753,2.346L55.27,458.579L27.964,485.886z
				 M54.694,55.434l31.502-31.619l-59.314,3.562L54.694,55.434z M425.803,488.971l59.314-3.113l-28.158-28.158L425.803,488.971z
				 M485.117,26.582l-60.054-2.813l31.376,31.491L485.117,26.582z"/>
		</g>
	</g>
	<g id="&#x424;&#x438;&#x433;&#x443;&#x440;&#x430;_1">
		<g>
			<path style="fill-rule:evenodd;clip-rule:evenodd;fill:#C7907F;" d="M34.774,487.769l0.093-9.156h-8.417L34.774,487.769z
				 M477.04,477.873l0.093,9.155l8.323-9.155H477.04z M476.393,25.804l-0.092,9.156h8.416L476.393,25.804z M26.451,34.96h8.417
				l-0.093-9.156L26.451,34.96z"/>
		</g>
	</g>
	<g id="&#x424;&#x438;&#x433;&#x443;&#x440;&#x430;_2">
		<g>
			<path style="fill-rule:evenodd;clip-rule:evenodd;fill:#FDECE7;" d="M22.597,480.813L9.026,497.72l-1.627,10.285l22.418-0.296
				l0.532-18.644l-3.492-6.957L22.597,480.813z M508.448,495.817l-18.855-14.581l-4.261,4.043l-3.068,4.209l2.646,16.529
				l23.688,1.353L508.448,495.817z M21.002,31.648l4.26-1.295l3.492-6.956L28.222,4.754L5.803,4.458l1.628,10.284L21.002,31.648z
				 M487.997,31.226l18.856-14.581l0.147-11.553l-23.687,1.353l-2.646,16.53l3.069,4.208L487.997,31.226z"/>
		</g>
	</g>
	<g id="&#x417;&#x430;&#x43B;&#x438;&#x432;&#x43A;&#x430;_&#x446;&#x432;&#x435;&#x442;&#x43E;&#x43C;_2">
		<g>
			<path style="fill-rule:evenodd;clip-rule:evenodd;fill:#2F181B;" d="M0,0v512h512V0H0z M503.121,503.121H8.878V8.879h494.243
				V503.121z"/>
		</g>
	</g>
	<g id="&#x417;&#x430;&#x43B;&#x438;&#x432;&#x43A;&#x430;_&#x446;&#x432;&#x435;&#x442;&#x43E;&#x43C;_3">
		<g>
			<path style="fill-rule:evenodd;clip-rule:evenodd;fill:#40292E;" d="M482.33,20.67H29.346l-9.369,9.369v397.468
				c-0.119,0.585-0.119,1.188,0,1.771v53.925l9.606,9.605h453.025l9.507-9.507V30.455L482.33,20.67z M28.855,34.183l4.633-4.634
				h40.974L28.855,75.156V34.183z M33.726,483.931l-4.871-4.871v-39.857l44.728,44.729H33.726z M483.237,479.158l-4.772,4.772
				H437.63l45.607-45.607V479.158z M483.237,425.769l-58.162,58.162H86.139l-57.283-57.283V87.711l58.162-58.162h338.058
				l58.162,58.162V425.769z M483.237,75.156L437.63,29.549h40.558l5.05,5.05V75.156z"/>
		</g>
	</g>
	
		<g id="&#x417;&#x430;&#x43B;&#x438;&#x432;&#x43A;&#x430;_&#x446;&#x432;&#x435;&#x442;&#x43E;&#x43C;_4_&#x43A;&#x43E;&#x43F;&#x438;&#x44F;" style="opacity:0.502;">
		<g>
			<path style="fill-rule:evenodd;clip-rule:evenodd;fill:#876867;" d="M465.59,92.913l-47.243-47.244
				c-0.685-0.685-1.612-1.068-2.579-1.068H94.545c-0.968,0-1.896,0.384-2.58,1.068L46.409,91.227
				c-0.684,0.684-1.069,1.611-1.069,2.579v324.619c0,0.968,0.385,1.896,1.069,2.579l43.847,43.847
				c0.684,0.684,1.612,1.068,2.579,1.068h323.479c0.968,0,1.896-0.385,2.579-1.068l46.696-46.696
				c0.685-0.685,1.069-1.612,1.069-2.58V95.493C466.659,94.525,466.274,93.598,465.59,92.913z M459.363,414.063l-44.56,44.56H94.346
				l-41.709-41.709V95.316l43.419-43.419h318.201l45.106,45.106V414.063z"/>
		</g>
	</g>
	<g id="&#x417;&#x430;&#x43B;&#x438;&#x432;&#x43A;&#x430;_&#x446;&#x432;&#x435;&#x442;&#x43E;&#x43C;_4">
		<g>
			<path style="fill-rule:evenodd;clip-rule:evenodd;fill:#40292E;" d="M468.534,90.633l-47.907-47.907
				c-0.693-0.694-1.635-1.084-2.615-1.084H92.277c-0.981,0-1.922,0.39-2.616,1.084L43.465,88.922
				c-0.693,0.693-1.083,1.635-1.083,2.615v329.18c0,0.981,0.39,1.922,1.083,2.615l44.463,44.463
				c0.694,0.693,1.634,1.084,2.615,1.084h328.023c0.981,0,1.922-0.391,2.615-1.084l47.353-47.353
				c0.694-0.694,1.084-1.635,1.084-2.616V93.248C469.618,92.268,469.229,91.326,468.534,90.633z M462.22,416.295l-45.186,45.185
				H92.075L49.78,419.185V93.07l44.029-44.03h322.67l45.74,45.741V416.295z"/>
		</g>
	</g>
</g>
<g id="&#x418;&#x437;&#x43E;&#x431;&#x440;&#x430;&#x436;&#x435;&#x43D;&#x438;&#x435;_xA0_435_1_">
	<g id="&#x424;&#x438;&#x433;&#x443;&#x440;&#x430;_107_&#x43A;&#x43E;&#x43F;&#x438;&#x44F;_3" style="opacity:0.502;">
		<g>
			<path style="fill-rule:evenodd;clip-rule:evenodd;fill:#331F32;" d="M455.105,239.567c-2.444-1.791-12.773-5.562-25.292-14.258
				c-13.171-9.15-26.248-21.611-28.935-22.456c-3.123-0.981-14.241,1.286-22.813,3.303c-1.076-0.559-2.171-1.127-3.289-1.707
				c7.633-5.718,12.536-9.453,13.207-11.673c1.012-3.349,5.772-15.207,7.31-32.364c1.731-19.327,2.341-34.791-1.442-37.753
				c-3.798-2.973-10.829,22.858-24.775,39.39c-2.836,3.362-5.256,5.763-7.391,7.573c1.097-4.053,2.438-9.861,2.705-14.866
				c1.168-21.911,1.078-22.633-18.699-43.146c-12.614-13.082-23.646-25.828-27.496-26.287c-6.271-0.748,0.781,18.419,0.564,34.384
				c-0.211,15.618-3.695,20.745-4.531,25.092c-0.021,0.109-0.016,0.284-0.011,0.458c-4.999-4.114-10.224-8.093-13.138-9.358
				c-23.894-10.381-58.739-19.101-66.851-21.035c-8.141-1.941,0.945,8.113,8.703,13.737c11.185,8.107,25.358,14.515,40.983,29.12
				c0.294,0.274,0.58,0.553,0.873,0.828c-18.051-8.933-31.396-15.199-33.464-15.291c-1.094-0.048-5.214,1.368-11.427,3.81
				c-7.383-2.108-29.327-8.244-36.595-8.831c-6.935-0.56-19.859,5.987-26.721,11.711c-2.671-3.898-6.495-9.299-9.188-12.324
				c-4.575-5.141-27.241-23.432-31.996-27.552c-4.779-4.142-22.206-12.19-22.206-12.19s8.2,14.813,19.629,30.068
				c10.084,13.461,19.383,25.544,21.432,31.545c0.777,2.276,2.413,6.177,4.135,10.12c-2.599-3.905-5.667-7.581-8.964-9.571
				c-8.708-5.258-36.822-14.862-44.188-14.334c-7.374,0.529-39.994,28.734-39.994,28.734s45.766-0.198,53.528,2.95
				c5.166,2.096,11.863,10.434,15.719,15.705c-22.003,9.934-38.254,17.372-38.254,17.372l6.467,49.277c0,0,2.958,1.39,8.042,3.771
				c-7.174,20.207-19.355,53.829-22.114,56.955c-3.908,4.431-31.295,12.453-31.295,12.453s10.239,3.524,19.901,5.022
				c8.101,1.256,15.943,0.55,15.943,0.55s-1.169,4.131,0.135,10.357c1.297,6.191,10.213,13.437,10.213,13.437
				s4.54-8.072,13.523-14.532c1.436-1.033,8.573-7.765,8.573-7.765l129.418,84.199c0,0,27.442-6.043,44.875-14.953
				c3.729,2.216,5.567,4.782,10.755,7.038c11.334,4.929,17.593,16.268,17.593,16.268s-0.265-19.417-2.412-21.44
				c6.283-1.412,25.545,1.401,25.545,1.401s-0.73-6.092-7.913-12.287c-4.449-3.838-6.848-6.466-10.042-10.561
				c16.431-8.644,36.909-19.404,36.909-19.404s15.87,4.032,22.267,5.748c8.051,2.159,27.257,7.755,27.257,7.755
				s-7.385-19.342-11.322-21.079c4.239-1.423,27.437,2.922,27.437,2.922s-9.537-12.609-16.888-17.02s-19.273-13.628-19.273-13.628
				l-1.063-63.36c4.414-1.982,6.974-3.137,6.974-3.137l1.061-33.857c11.934,3.719,22.485,6.573,35.222,8.36
				C450.851,244.2,457.544,241.354,455.105,239.567z"/>
		</g>
	</g>
	<g id="&#x424;&#x438;&#x433;&#x443;&#x440;&#x430;_107">
		<g>
			<path style="fill-rule:evenodd;clip-rule:evenodd;fill:#C0211A;" d="M101.149,310.289c-3.997,4.686-29.131,13.63-29.131,13.63
				s8.507,3.493,16.828,4.88c7.001,1.167,14.044,0.266,14.044,0.266s-1.563,4.4-1.195,11.011c0.368,6.62,2.666,15.451,2.666,15.451
				s9.867-9.964,18.694-17.068c5.309-4.272,10.524-9.164,11.259-21.798c0.735-12.633-1.287-78.741-1.287-78.741
				S105.146,305.604,101.149,310.289z M246.928,140.678c0,0-24.619-6.554-31.816-6.829c-5.658-0.217-16.685,5.975-22.716,11.239
				c-1.913-3.309-4.649-7.862-6.624-10.38c-3.338-4.258-20.179-18.943-23.64-22.221c-3.461-3.277-16.579-9.266-16.579-9.266
				s5.171,12.032,12.986,24.512c7.009,11.192,13.596,21.379,14.79,26.585c0.455,1.983,1.488,5.383,2.593,8.832
				c-1.831-3.384-4.059-6.53-6.603-8.17c-6.688-4.307-28.667-11.638-34.67-10.902c-6.002,0.734-35.484,26.688-35.484,26.688
				s37.353-1.788,43.417,0.754c6.064,2.542,13.721,17.641,13.721,17.641l24.992-12.74c0,0-0.263-0.918-0.739-2.347l3.219-1.573
				c-0.352,2.822-0.55,4.747-0.55,4.747L246.928,140.678z"/>
		</g>
	</g>
	<g id="&#x424;&#x438;&#x433;&#x443;&#x440;&#x430;_107_&#x43A;&#x43E;&#x43F;&#x438;&#x44F;">
		<g>
			<path style="fill-rule:evenodd;clip-rule:evenodd;fill:#FE4F36;" d="M134.65,144.078c-6.002,0.734-36.072,26.982-36.072,26.982
				s37.94-2.083,44.005,0.459c1.702,0.713,3.526,2.43,5.275,4.51l-12-31.998C135.407,144.022,134.999,144.035,134.65,144.078z
				 M101.149,310.289c-3.997,4.686-29.131,13.63-29.131,13.63s8.507,3.493,16.828,4.88c7.001,1.167,14.044,0.266,14.044,0.266
				s-0.24,0.691-0.509,1.907c3.965-4.538,8.665-10.215,13.214-16.455c6.737-9.239,13.432-19.422,18.646-27.63
				c-0.409-22.61-1.215-48.968-1.215-48.968S105.146,305.604,101.149,310.289z M213.602,133.936
				c-5.664,0.689-14.77,5.813-20.404,10.479l13.07,19.604l14.212-8.158L213.602,133.936z M162.132,112.487
				c-3.461-3.277-15.696-9.56-15.696-9.56s4.289,12.326,12.104,24.806c3.978,6.353,7.817,12.378,10.614,17.355
				c2.78-0.868,6.645-2.435,10.04-5.11c2.215-1.744,4.216-3.983,5.861-6.113C180.528,128.79,165.394,115.576,162.132,112.487z"/>
		</g>
	</g>
	<g id="&#x424;&#x438;&#x433;&#x443;&#x440;&#x430;_107_&#x43A;&#x43E;&#x43F;&#x438;&#x44F;_2">
		<g>
			<path style="fill-rule:evenodd;clip-rule:evenodd;fill:#9C1211;" d="M103.587,305.989c5.663,2.886,11.222,7.511,13.381,14.885
				c2.027,6.922,3.798,13.234,5.194,18.313c0.297-0.243,0.596-0.491,0.891-0.729c5.309-4.272,10.524-9.164,11.259-21.798
				c0.735-12.633-1.287-78.741-1.287-78.741S111.536,290.09,103.587,305.989z M197.631,165.729l-2.983-16.658
				c0,0-1.727-3.151-3.833-6.675l-20.776,4.299c1.666,3.088,2.849,5.698,3.291,7.624c0.455,1.983,1.488,5.383,2.593,8.832
				c-1.831-3.384-4.059-6.53-6.603-8.17c-2.629-1.693-7.624-3.853-13.08-5.807c4.019,4.446,10.164,11.68,9.833,13.999
				c-0.319,2.232-9.761,10.079-16.314,15.284c3.643,4.99,6.544,10.703,6.544,10.703l24.992-12.74c0,0-0.263-0.918-0.739-2.347
				L197.631,165.729z"/>
		</g>
	</g>
	<g id="&#x417;&#x430;&#x43B;&#x438;&#x432;&#x43A;&#x430;_&#x446;&#x432;&#x435;&#x442;&#x43E;&#x43C;_108">
		<g>
			<path style="fill-rule:evenodd;clip-rule:evenodd;fill:#7F110F;" d="M137.277,220.222l-6.547,15.893
				c-10.567,25.654-28.408,67.726-31.277,71.385c-2.073,2.431-15.922,8.407-27.565,12.552l-9.04,3.219l8.876,3.644
				c0.363,0.149,8.99,3.667,17.62,5.105c2.578,0.431,5.419,0.647,8.446,0.647c0.56,0,1.095-0.007,1.604-0.021
				c-0.26,1.978-0.421,4.433-0.266,7.229c0.383,6.907,2.679,15.797,2.776,16.171l1.625,6.248l4.544-4.587
				c0.098-0.098,9.829-9.901,18.388-16.791c5.946-4.786,11.818-10.616,12.624-24.446c0.735-12.65-1.2-76.361-1.282-79.067
				L137.277,220.222z M131.746,316.041c-0.632,10.869-4.674,14.947-9.893,19.148c-5.118,4.119-10.507,9.109-14.236,12.68
				c-0.512-2.658-1.002-5.745-1.15-8.402c-0.317-5.699,0.982-9.558,0.989-9.579l2-5.633l-5.931,0.759
				c-0.024,0.003-2.402,0.302-5.735,0.302c-2.622,0-5.057-0.184-7.237-0.547c-2.19-0.364-4.409-0.89-6.469-1.457
				c8.136-3.236,18.098-7.684,20.963-11.043c3.11-3.646,17.065-36.389,25.892-57.49C131.483,275.24,132.229,307.725,131.746,316.041
				z M248.976,136.721c-2.562-0.681-25.229-6.667-32.622-6.949c-5.859-0.224-15.781,4.734-22.708,10.02
				c-0.811-2.501-2.048-5.42-3.88-7.757c-2.445-3.118-10.373-10.321-18.979-18.06c-2.275-2.047-4.119-3.701-5.026-4.561
				c-3.708-3.512-9.199-5.997-11.972-7.284c0,0-10.871-6.227-12.929-4.757s4.703,13.511,4.703,13.511
				c0.081,0.135,3.219,6.03,10.963,18.395l1.769,2.819c3.915,6.237,7.922,12.619,10.358,17.354
				c-8.848-4.261-25.225-9.506-31.95-9.506c-0.516,0-0.982,0.028-1.398,0.079c-6.341,0.776-21.532,13.047-32.318,21.573
				c0,0-11.023,8.432-10.141,11.372c0.882,2.94,14.486,1.643,14.486,1.643c0.231-0.02,10.961-0.739,25.341-0.739
				c7.761,0,9.431,0.567,9.59,0.63c3.279,1.374,9.017,10.31,11.864,15.916l1.667,3.283L257.6,139.018L248.976,136.721z
				 M158.939,183.848c-2.87-5.09-8.438-13.86-13.834-16.123c-1.418-0.595-4.004-1.202-12.433-1.202
				c-7.945,0-25.549,3.409-26.137,1.058c-0.588-2.353,26.793-19.637,29.662-20.26c0.151-0.019,0.319-0.024,0.506-0.024
				c5.989,0,25.56,6.396,31.729,10.37c2.569,1.654,5.102,5.941,7.114,10.408c0.746,1.839,1.359,3.293,1.668,4.021
				c0.265,0.701,0.519,1.396,0.745,2.058L158.939,183.848z M182.562,154.729l-2.05,5.886c-1.097-2.894-2.089-5.739-2.498-7.523
				c-1.231-5.372-6.643-13.991-13.493-24.902l-1.763-2.813c-3.245-5.18-11.668-15.671-10.492-16.26
				c1.176-0.588,7.434,4.681,8.442,5.635c0.934,0.883,2.826,2.586,5.166,4.689c5.931,5.331,15.856,14.256,18.109,17.129
				c1.862,2.374,3.015,6.338,3.509,8.599L182.562,154.729z M188.842,170.011c1.101-8.146,2.716-17.046,4.184-19.489
				c2.7-4.5,17.068-13.408,22.893-13.408l0.153,0.003c3.878,0.148,14.13,2.475,22.273,4.479L188.842,170.011z"/>
		</g>
	</g>
	<g id="&#x417;&#x430;&#x43B;&#x438;&#x432;&#x43A;&#x430;_&#x446;&#x432;&#x435;&#x442;&#x43E;&#x43C;_78_2_">
		<g>
			<path style="fill-rule:evenodd;clip-rule:evenodd;fill:#C342A0;" d="M382.207,239.756L254.86,303.613l-127.347-63.857
				l-0.368,101.804c0,0,121.467,79.639,127.714,79.639c6.248,0,127.715-79.639,127.715-79.639L382.207,239.756z"/>
		</g>
	</g>
	<g id="&#x417;&#x430;&#x43B;&#x438;&#x432;&#x43A;&#x430;_&#x446;&#x432;&#x435;&#x442;&#x43E;&#x43C;_84_2_">
		<g>
			<polygon style="fill-rule:evenodd;clip-rule:evenodd;fill:#FF8EBB;" points="126.135,239.48 126.411,340.825 255.044,422.415 
				255.044,303.338 			"/>
		</g>
	</g>
	<g id="&#x417;&#x430;&#x43B;&#x438;&#x432;&#x43A;&#x430;_&#x446;&#x432;&#x435;&#x442;&#x43E;&#x43C;_85_2_">
		<g>
			<path style="fill-rule:evenodd;clip-rule:evenodd;fill:#F16CA4;" d="M255.779,301.133L127.927,239.48l-0.092,31.562
				c0,0,26.125,7.743,55.155,22.045c34.512,17.002,72.881,41.031,72.881,41.031L255.779,301.133z"/>
		</g>
	</g>
	
		<g id="&#x417;&#x430;&#x43B;&#x438;&#x432;&#x43A;&#x430;_&#x446;&#x432;&#x435;&#x442;&#x43E;&#x43C;_85_&#x43A;&#x43E;&#x43F;&#x438;&#x44F;_2_">
		<g>
			<path style="fill-rule:evenodd;clip-rule:evenodd;fill:#A63D89;" d="M382.942,239.48L255.09,301.133l-0.091,32.985
				c0,0,36.256-25.782,69.07-41.948c31.162-15.352,58.966-21.128,58.966-21.128L382.942,239.48z"/>
		</g>
	</g>
	<g id="&#x417;&#x430;&#x43B;&#x438;&#x432;&#x43A;&#x430;_&#x446;&#x432;&#x435;&#x442;&#x43E;&#x43C;_86_2_">
		<g>
			<path style="fill-rule:evenodd;clip-rule:evenodd;fill:#EE6DA3;" d="M255.044,383.458c0,0-21.688,17.696-70.936-15.703
				c-18.112-12.283-32.545-20.233-40.766-29.733c-14.133-16.33-17.253-29.033-17.253-29.033l0.229,30.964l128.863,80.901
				L255.044,383.458z"/>
		</g>
	</g>
	
		<g id="&#x417;&#x430;&#x43B;&#x438;&#x432;&#x43A;&#x430;_&#x446;&#x432;&#x435;&#x442;&#x43E;&#x43C;_86_&#x43A;&#x43E;&#x43F;&#x438;&#x44F;_2_">
		<g>
			<path style="fill-rule:evenodd;clip-rule:evenodd;fill:#D255B0;" d="M366.563,338.021c-8.222,9.5-22.654,17.45-40.766,29.733
				c-49.248,33.399-70.937,15.703-70.937,15.703l-0.138,37.396l128.862-80.901l0.23-30.964
				C383.815,308.988,380.694,321.691,366.563,338.021z"/>
		</g>
	</g>
	<g id="&#x424;&#x438;&#x433;&#x443;&#x440;&#x430;_105">
		<g>
			<path style="fill-rule:evenodd;clip-rule:evenodd;fill:#96EDF6;" d="M126.412,340.09l24.991,16.661v-93.105l-25.022-11.73
				L126.412,340.09z M182.765,377.945l32.833,20.458l0.153-100.181l-32.985-16.446V377.945z M254.799,422.905l22.534-14.104
				l0.008-103.014l-22.542,10.29V422.905z M370.937,257.275l-27.441,14.7v94.086l27.473-17.978L370.937,257.275z"/>
		</g>
	</g>
	<g id="&#x424;&#x438;&#x433;&#x443;&#x440;&#x430;_105_&#x43A;&#x43E;&#x43F;&#x438;&#x44F;_4">
		<g>
			<path style="fill-rule:evenodd;clip-rule:evenodd;fill:#2EC2D4;" d="M182.765,324.618l32.882,41.218l0.018-11.63l-32.9-42.3
				V324.618z M126.396,297.935l0.015,42.155l24.991,16.661v-23.833l-0.818,0.558L126.396,297.935z M126.39,277.021l25.013,36.754
				v-50.129l-25.022-11.73L126.39,277.021z M182.765,343.477v34.469l32.833,20.458l0.021-13.919l-0.085,0.068L182.765,343.477z
				 M182.765,302.329l32.915,42.318l0.071-46.425l-32.985-16.446V302.329z M370.937,257.275l-27.441,14.7v94.086l27.473-17.978
				L370.937,257.275z M254.799,422.905l22.534-14.104l0.008-103.014l-22.542,10.29V422.905z"/>
		</g>
	</g>
	<g id="&#x424;&#x438;&#x433;&#x443;&#x440;&#x430;_105_&#x43A;&#x43E;&#x43F;&#x438;&#x44F;_3">
		<g>
			<path style="fill-rule:evenodd;clip-rule:evenodd;fill:#4D97CB;" d="M182.765,366.853v8.536l32.836,20.615l0.018-11.831
				c-8.886-3.053-19.355-8.174-31.51-16.418C183.655,367.447,183.214,367.154,182.765,366.853z M143.343,338.021
				c-11.764-13.593-15.887-24.645-16.942-27.977l0.01,29.965l24.992,15.69v-10.145C148.295,343.08,145.581,340.608,143.343,338.021z
				 M127.835,271.042c0,0,9.577,2.841,23.567,8.25v-15.646l-23.514-11.023L127.835,271.042z M254.999,334.118
				c0,0,0.141-0.101,0.409-0.289c0.293,0.183,0.464,0.289,0.464,0.289l-0.002-0.614c2.455-1.723,9.974-6.944,20.124-13.502v-11.151
				l-21.194,8.78v15.82c0.076,0.047,0.132,0.082,0.201,0.124L254.999,334.118z M369.345,260.705l-28.667,14.701l0.719,8.986
				c11.347-4.631,21.453-7.904,28.872-10.051L369.345,260.705z M370.146,333.645c-1.116,1.429-2.288,2.881-3.583,4.377
				c-5.559,6.424-13.965,12.143-24.42,18.968l0.897,8.418l27.508-17.271L370.146,333.645z M182.765,292.977
				c0.076,0.037,0.15,0.073,0.226,0.11c10.978,5.408,22.342,11.525,32.741,17.356l0.019-12.221l-32.985-16.446V292.977z
				 M276.373,388.014c-13.303,0.91-20.162-3.568-21.329-4.417l0-0.139c0,0-0.037,0.028-0.092,0.07
				c-0.059-0.044-0.091-0.07-0.091-0.07l0,0.138c-0.022,0.017-0.034,0.025-0.061,0.045v16.374l-0.077,20.839l0.229-0.145l0.23,0.145
				l-0.001-0.288l21.902-13.75L276.373,388.014z"/>
		</g>
	</g>
	<g id="&#x417;&#x430;&#x43B;&#x438;&#x432;&#x43A;&#x430;_&#x446;&#x432;&#x435;&#x442;&#x43E;&#x43C;_104">
		<g>
			<path style="fill-rule:evenodd;clip-rule:evenodd;fill:#CE6DB6;" d="M211.688,393.766l5.875,3.725l0.138-94.436l-5.875-3.069
				L211.688,393.766z M147.483,353.202l5.88,3.289v-87.043l-5.88-3.071V353.202z M178.845,372.945l5.88,3.728V285.83l-5.88-3.071
				V372.945z M372.898,259.546l-5.88,3.093l0.028,86.676l5.878-3.742L372.898,259.546z M273.414,410.262l5.881-3.254l0.006-100.387
				l-5.881,2.925L273.414,410.262z M339.574,366.801l5.881-3.742v-89.079l-5.881,3.093V366.801z"/>
		</g>
	</g>
	<g id="&#x417;&#x430;&#x43B;&#x438;&#x432;&#x43A;&#x430;_&#x446;&#x432;&#x435;&#x442;&#x43E;&#x43C;_81_2_">
		<g>
			<path style="fill-rule:evenodd;clip-rule:evenodd;fill:#B04A95;" d="M258.683,376.06c-0.271-4.631-0.495-9.263-0.698-13.893
				l-0.496-13.893l-0.605-13.893c-0.496-9.262-0.884-18.523-1.471-27.784c-0.012-0.183-0.156-0.333-0.345-0.345
				c-0.202-0.013-0.377,0.142-0.39,0.345c-0.587,9.261-0.976,18.522-1.47,27.784l-0.606,13.893l-0.496,13.893
				c-0.202,4.63-0.426,9.262-0.699,13.893c-0.234,4.63-0.249,9.262-0.037,13.892c0.209,4.631,0.582,9.263,1.09,13.893
				c0.511,4.631,1.165,9.261,2.218,13.893c0.031,0.137,0.138,0.251,0.284,0.284c0.202,0.046,0.405-0.082,0.451-0.284
				c1.054-4.632,1.707-9.262,2.219-13.893c0.508-4.63,0.881-9.262,1.089-13.893C258.932,385.321,258.918,380.689,258.683,376.06z"/>
		</g>
	</g>
	<g id="&#x417;&#x430;&#x43B;&#x438;&#x432;&#x43A;&#x430;_&#x446;&#x432;&#x435;&#x442;&#x43E;&#x43C;_80_2_">
		<g>
			<path style="fill-rule:evenodd;clip-rule:evenodd;fill:#94377B;" d="M386.066,239.064c-0.005-1.271-0.666-2.451-1.75-3.117
				s-2.437-0.725-3.573-0.154l-125.699,63.031l-125.699-63.031c-1.136-0.57-2.489-0.512-3.572,0.154
				c-1.084,0.666-1.747,1.846-1.751,3.117l-0.367,101.805c-0.004,1.243,0.62,2.405,1.66,3.087
				c0.304,0.199,30.741,20.149,61.549,39.842c63.201,40.397,66.197,40.397,68.18,40.397c1.983,0,4.979,0,68.181-40.397
				c30.809-19.692,61.245-39.643,61.55-39.842c1.039-0.682,1.663-1.844,1.659-3.087L386.066,239.064z M255.044,416.723
				c-9.34-3.61-79.71-48.786-124.031-77.821l0.339-93.879l122.045,61.198c1.037,0.521,2.256,0.521,3.295,0l122.045-61.198
				l0.339,93.879C334.755,367.937,264.385,413.112,255.044,416.723z"/>
		</g>
	</g>
	<g id="&#x417;&#x430;&#x43B;&#x438;&#x432;&#x43A;&#x430;_&#x446;&#x432;&#x435;&#x442;&#x43E;&#x43C;_76_2_">
		<g>
			<path style="fill-rule:evenodd;clip-rule:evenodd;fill:#FFA1C6;" d="M254.562,136.361c-6.248,0-134.015,66.03-134.015,66.03
				v46.553c0,0,127.768,68.475,134.015,68.475c6.248,0,134.016-68.475,134.016-68.475v-46.553
				C388.577,202.392,260.81,136.361,254.562,136.361z"/>
		</g>
	</g>
	
		<g id="&#x417;&#x430;&#x43B;&#x438;&#x432;&#x43A;&#x430;_&#x446;&#x432;&#x435;&#x442;&#x43E;&#x43C;_88_&#x43A;&#x43E;&#x43F;&#x438;&#x44F;_2_">
		<g>
			<path style="fill-rule:evenodd;clip-rule:evenodd;fill:#F57CC3;" d="M270.389,266.539l118.479-62.938
				c0,0-35.714-19.247-71.289-37.089c-31.868-15.982-64.005-30.765-64.005-30.765l-83.106,40.795c0,0,61.683-10.264,97.489,24.241
				C307.144,238.546,270.389,266.539,270.389,266.539z"/>
		</g>
	</g>
	<g id="&#x417;&#x430;&#x43B;&#x438;&#x432;&#x43A;&#x430;_&#x446;&#x432;&#x435;&#x442;&#x43E;&#x43C;_88_2_">
		<g>
			<path style="fill-rule:evenodd;clip-rule:evenodd;fill:#E464C1;" d="M300.295,252.252l88.573-48.651
				c0,0-35.714-19.247-71.289-37.089c-31.868-15.982-64.005-30.765-64.005-30.765l-24.808,12.726c0,0,47.551,0.995,77.917,37.977
				C337.051,223.432,300.295,252.252,300.295,252.252z"/>
		</g>
	</g>
	<g id="&#x417;&#x430;&#x43B;&#x438;&#x432;&#x43A;&#x430;_&#x446;&#x432;&#x435;&#x442;&#x43E;&#x43C;_89_2_">
		<g>
			<path style="fill-rule:evenodd;clip-rule:evenodd;fill:#FBC6D4;" d="M195.386,236.797
				c-54.301-26.891-49.956-47.165-49.956-47.165l-25.91,13.602L255.641,274.9l28.355-15.031
				C283.996,259.869,249.688,263.687,195.386,236.797z"/>
		</g>
	</g>
	<g id="&#x417;&#x430;&#x43B;&#x438;&#x432;&#x43A;&#x430;_&#x446;&#x432;&#x435;&#x442;&#x43E;&#x43C;_87_2_">
		<g>
			<polygon style="fill-rule:evenodd;clip-rule:evenodd;fill:#D064C0;" points="254.309,275.406 254.309,318.038 388.822,249.68 
				388.822,203.371 			"/>
		</g>
	</g>
	
		<g id="&#x417;&#x430;&#x43B;&#x438;&#x432;&#x43A;&#x430;_&#x446;&#x432;&#x435;&#x442;&#x43E;&#x43C;_87_&#x43A;&#x43E;&#x43F;&#x438;&#x44F;_2_2_">
		<g>
			<path style="fill-rule:evenodd;clip-rule:evenodd;fill:#F57CC3;" d="M326.266,273.759
				c-53.199,28.759-71.957,28.108-71.957,28.108v16.171l134.513-68.358v-19.847C388.822,229.833,379.464,245,326.266,273.759z"/>
		</g>
	</g>
	
		<g id="&#x417;&#x430;&#x43B;&#x438;&#x432;&#x43A;&#x430;_&#x446;&#x432;&#x435;&#x442;&#x43E;&#x43C;_87_&#x43A;&#x43E;&#x43F;&#x438;&#x44F;_2_">
		<g>
			<polygon style="fill-rule:evenodd;clip-rule:evenodd;fill:#FF94BF;" points="120.531,203.371 120.531,249.68 255.044,318.038 
				255.044,275.406 			"/>
		</g>
	</g>
	
		<g id="&#x417;&#x430;&#x43B;&#x438;&#x432;&#x43A;&#x430;_&#x446;&#x432;&#x435;&#x442;&#x43E;&#x43C;_87_&#x43A;&#x43E;&#x43F;&#x438;&#x44F;_3_2_">
		<g>
			<path style="fill-rule:evenodd;clip-rule:evenodd;fill:#EE6DA3;" d="M189.925,277.133
				c-55.037-27.794-69.394-48.035-69.394-48.035v20.582l134.513,68.358v-16.905C255.044,301.133,244.961,304.927,189.925,277.133z"
				/>
		</g>
	</g>
	<g id="&#x417;&#x430;&#x43B;&#x438;&#x432;&#x43A;&#x430;_&#x446;&#x432;&#x435;&#x442;&#x43E;&#x43C;_83_2_">
		<g>
			<path style="fill-rule:evenodd;clip-rule:evenodd;fill:#E27BC6;" d="M353.433,221.622c-11.222,5.443-22.432,10.915-33.572,16.516
				c-11.187,5.518-22.242,11.279-33.362,16.917l-31.455,16.394l-31.457-16.385c-11.118-5.644-22.179-11.396-33.363-16.915
				c-11.141-5.603-22.35-11.072-33.573-16.518c-11.26-5.376-22.511-10.768-33.915-15.871c10.647,6.535,21.448,12.783,32.24,19.045
				c10.828,6.192,21.669,12.36,32.581,18.397c10.868,6.118,21.858,12.004,32.791,17.999l31.218,16.693l3.478,40.695l3.479-40.694
				l31.224-16.686c10.93-6.001,21.926-11.877,32.791-17.999c10.91-6.037,21.754-12.203,32.581-18.397
				c10.789-6.266,21.589-12.513,32.234-19.054C375.946,210.857,364.695,216.25,353.433,221.622z"/>
		</g>
	</g>
	<g id="&#x424;&#x438;&#x433;&#x443;&#x440;&#x430;_105_&#x43A;&#x43E;&#x43F;&#x438;&#x44F;">
		<g>
			<path style="fill-rule:evenodd;clip-rule:evenodd;fill:#2EC2D4;" d="M254.401,136.054l-24.747,11.669l-53.75,86.521v43.123
				l36.262,19.111v-42.143l62.203-110.318L254.401,136.054z M120.041,249.435l23.521,11.271v-43.612l30.627-42.725l-53.168,27.533
				L120.041,249.435z M254.31,273.936l0.49,45.083l27.013-13.629l22.082-55.558l31.943-74.913l-30.045-16.324L254.31,273.936z
				 M366.036,189.65l-11.301,33.904l-3.676,46.002l38.498-19.633v-46.553L366.036,189.65z"/>
		</g>
	</g>
	<g id="&#x424;&#x438;&#x433;&#x443;&#x440;&#x430;_105_&#x43A;&#x43E;&#x43F;&#x438;&#x44F;_2">
		<g>
			<path style="fill-rule:evenodd;clip-rule:evenodd;fill:#4D97CB;" d="M120.531,229.098v20.571l23.032,11.036V249.56
				C126.098,236.939,120.531,229.098,120.531,229.098z M175.905,269.747v7.619l24.109,12.706l12.153,6.176v-8.446
				c-6.446-2.902-13.812-6.412-22.242-10.669C184.918,274.604,180.258,272.141,175.905,269.747z M351.256,259.355l0.809,9.004
				l36.758-18.68v-19.847C388.822,229.833,382.561,239.964,351.256,259.355z M254.309,301.867v16.171l28.492-14.479l3.645-10.718
				C263.297,302.172,254.309,301.867,254.309,301.867z"/>
		</g>
	</g>
	<g id="&#x424;&#x438;&#x433;&#x443;&#x440;&#x430;_109">
		<g>
			<path style="fill-rule:evenodd;clip-rule:evenodd;fill:#96EDF6;" d="M120.531,204.106l22.786,13.231l9.096-13.294l-11.771-11.143
				L120.531,204.106z M175.309,231.14l13.307,7.177l-11.099-10.508L175.309,231.14z M155.775,199.13l15.542-22.715
				c-0.542,0.077-0.85,0.127-0.85,0.127l1.148-0.563l0.369-0.539l-25.958,14.462L155.775,199.13z M180.813,222.833l27.68,26.203
				l3.919,2.113l26.126-44.92l-28.478-27.535L180.813,222.833z M279.092,214.124l-7.307,16.072l13.428,12.982
				C286.998,235.066,286.136,225.193,279.092,214.124z M253.575,270.261l22.143-8.919c2.522-2.896,5.425-6.935,7.505-11.907
				l-14.02-13.556L253.575,270.261z M241.584,200.994l7.808-13.424c-10.529-5.475-21.809-8.643-32.464-10.416L241.584,200.994z"/>
		</g>
	</g>
	<g id="&#x417;&#x430;&#x43B;&#x438;&#x432;&#x43A;&#x430;_&#x446;&#x432;&#x435;&#x442;&#x43E;&#x43C;_105">
		<g>
			<path style="fill-rule:evenodd;clip-rule:evenodd;fill:#D161B3;" d="M166.46,180.016l-27.044,36.152v43.254l5.88,3.605v-44.971
				l32.971-44.418L166.46,180.016z M362.563,188.892l-11.937,34.093l-2.772,46.988l5.482-2.413l3.096-43.394l11.276-32.113
				L362.563,188.892z M226.877,150.294l-53.649,81.158v45.699l5.88,3.204v-47.2l57.76-87.661L226.877,150.294z M303.483,248.768
				l-25.197,54.521l-21.804,11l-0.432-39.721l50.98-114.235l-5.221-2.73l-51.654,115.742l0.417,42.28l5.573,0.944L284.727,303
				l24.488-51.994l28.155-74.805l-5.228-2.734L303.483,248.768z M272.005,143.863l-62.514,107.784v44.036l5.88,3.203v-45.743
				l62.042-106.91L272.005,143.863z"/>
		</g>
	</g>
	
		<g id="&#x417;&#x430;&#x43B;&#x438;&#x432;&#x43A;&#x430;_&#x446;&#x432;&#x435;&#x442;&#x43E;&#x43C;_106" style="opacity:0.702;">
		<g>
			<path style="fill-rule:evenodd;clip-rule:evenodd;fill:#72F5FF;" d="M175.504,346.157l1.375-2.227l-0.693-1.637l-1.405-0.478
				l-2.08,3.378l-4.556-1.566l2.308-3.765l4.089,1.389l0.712-1.157l-0.691-1.631l-2.696-0.908l1.568-2.557l-0.688-1.625
				l-1.396-0.465l-1.562,2.556l-1.317-3.12l-1.384-0.461l-0.702,1.152l1.994,4.733l-2.3,3.762l-2.22-5.29l2.047-3.365l-0.678-1.612
				l-1.376-0.458l-1.344,2.215l-1.489-3.55l-1.366-0.454l-0.692,1.146l1.483,3.544l-2.627-0.885l-0.69,1.142l0.668,1.603
				l3.995,1.356l2.21,5.282l-4.483-1.542l-1.961-4.701l-1.357-0.462l-0.688,1.14l1.285,3.088l-2.991-1.027l-0.686,1.135l0.664,1.601
				l2.992,1.035l-1.328,2.188l0.667,1.607l1.357,0.475l2.025-3.328l4.484,1.553l-2.282,3.733l-3.996-1.4l-0.69,1.135l0.668,1.611
				l2.627,0.928l-1.532,2.507l0.67,1.618l1.367,0.488l1.538-2.509l1.302,3.131l1.377,0.491l0.701-1.138l-1.985-4.76l2.291-3.736
				l2.229,5.326l-2.057,3.34l0.681,1.632l1.385,0.494l1.359-2.2l1.515,3.619l1.396,0.499l0.71-1.144l-1.521-3.626l2.697,0.952
				l0.712-1.147l-0.691-1.642l-4.09-1.434l-2.238-5.335l4.556,1.577l2.019,4.793l1.405,0.492l0.714-1.151l-1.335-3.163l3.114,1.078
				l0.717-1.155l-0.696-1.644L175.504,346.157z M170.514,296.559l-4.244-10.32l-4.352,7.701l-7.618-0.703l4.915,9.292l-1.17,9.796
				l8.036-1.789l8.087,6.994l-1.042-10.642l5.257-5.659L170.514,296.559z M178.535,206.054l0.138-1.677l-1.469-0.468l-1.539,0.396
				l-0.229,2.543l-5.054,1.296l0.291-2.845l4.486-1.155l0.079-0.86l-1.45-0.461l-2.939,0.759l0.192-1.882l-1.425-0.453l-1.51,0.392
				l-0.206,1.875l-2.726-0.882l-1.504,0.39l-0.103,0.848l4.145,1.356l-0.312,2.833l-4.66-1.552l0.306-2.503l-1.398-0.458l-1.5,0.389
				l-0.212,1.639l-3.063-1.021l-1.493,0.388l-0.12,0.849l3.058,1.028l-2.9,0.749l-0.12,0.86l1.389,0.475l4.432-1.141l4.652,1.565
				l-5.011,1.284l-4.114-1.409l-1.511,0.389l-0.122,0.869l2.696,0.934l-3.362,0.861l-0.125,0.88l1.401,0.494l3.382-0.864
				l-0.223,1.713l1.427,0.502l1.546-0.393l0.317-2.606l5.04-1.287l-0.32,2.913l-4.54,1.154l-0.109,0.899l1.446,0.509l3.004-0.762
				l-0.221,2.01l1.473,0.519l1.575-0.397l0.207-2.018l2.86,0.991l1.581-0.399l0.083-0.913l-4.339-1.486l0.299-2.925l4.824,1.624
				l-0.239,2.649l1.502,0.514l1.585-0.4l0.145-1.755l3.349,1.127l1.594-0.402l0.064-0.912l-3.355-1.117l3.046-0.772l0.064-0.899
				l-1.511-0.496l-4.598,1.17l-4.833-1.609l5.083-1.299l4.37,1.43l1.574-0.4l0.063-0.891l-2.891-0.935l3.455-0.883l0.062-0.879
				l-1.497-0.476L178.535,206.054z M196.103,177.445l-9.549,2.615l-10.033-1.668l1.989,4.936l-6.897,4.062l10.817,0.574l6.104,4.499
				l4.663-4.909l10.989-1.438l-8.508-3.527L196.103,177.445z M221.678,336.908c-0.542-0.461-1.077-1.041-1.553-1.573
				c1.238,3.693,3.503,7.248,6.543,9.839c6.312,5.38,13.581,4.574,16.177-1.884c2.608-6.485-0.528-16.093-6.944-21.375
				c-2.387-1.965-4.884-3.046-7.203-3.292c4.927,4.068,7.43,11.71,5.429,16.734C232.133,340.364,226.544,341.037,221.678,336.908z
				 M169.34,253.614c2.608-6.485-0.528-16.093-6.944-21.375c-2.387-1.965-4.885-3.046-7.204-3.292
				c4.928,4.068,7.43,11.71,5.43,16.734c-1.994,5.008-7.583,5.68-12.449,1.551c-0.542-0.46-1.077-1.041-1.553-1.573
				c1.238,3.693,3.503,7.248,6.543,9.839C159.475,260.878,166.744,260.072,169.34,253.614z M300.29,276.245l-1.163,10.294
				l7.33-7.968l7.289,0.403l-0.842-9.382l5.75-10.29l-8.022,2.429l-3.759-6.581l-4.037,10.764L295,271.948L300.29,276.245z
				 M315.26,315.185c-0.489-0.019-0.971-0.158-1.398-0.298c1.09,2.574,3.116,4.216,5.856,4.331
				c5.69,0.24,12.313-6.189,14.739-14.396c2.438-8.241-0.32-15.003-6.105-15.068c-2.152-0.024-4.414,0.884-6.522,2.454
				c4.443,0.062,6.644,5.434,4.774,11.802C324.738,310.358,319.646,315.353,315.26,315.185z M277.25,171.058l6.104,4.5l4.662-4.91
				l10.989-1.438l-8.509-3.527l0.428-5.143l-9.55,2.616l-10.033-1.669l1.989,4.936l-6.898,4.062L277.25,171.058z M237.583,376.122
				l-4.254-10.828l-4.362,7.296l-8.639-1.607l5.929,9.968l-1.174,9.735l8.055-0.961l8.106,7.883l-1.044-10.818l6.272-5.041
				L237.583,376.122z M304.387,321.526l1.274-3.204l-0.614-1.028l-1.273,0.637l-1.927,4.854l-4.13,2.046l2.138-5.402l3.707-1.854
				l0.659-1.662l-0.611-1.024l-2.445,1.229l1.453-3.67l-0.61-1.02l-1.266,0.641l-1.446,3.663l-1.168-1.964l-1.255,0.637l-0.65,1.649
				l1.767,2.983l-2.129,5.393l-1.968-3.34l1.897-4.816l-0.602-1.017l-1.248,0.633l-1.244,3.167l-1.32-2.24l-1.238,0.627
				l-0.642,1.638l1.313,2.24l-2.381,1.196l-0.639,1.632l0.592,1.015l3.621-1.811l1.959,3.338l-4.064,2.014l-1.736-2.978l-1.23,0.615
				l-0.639,1.627l1.139,1.958l-2.712,1.344l-0.636,1.62l0.588,1.017l2.713-1.336l-1.23,3.129l0.59,1.021l1.23-0.603l1.877-4.764
				l4.064-2.003l-2.114,5.353l-3.622,1.769l-0.639,1.624l0.592,1.023l2.381-1.156l-1.419,3.593l0.595,1.028l1.238-0.596l1.424-3.601
				l1.154,1.985l1.248-0.601l0.649-1.636l-1.759-3.014l2.121-5.362l1.977,3.366l-1.906,4.801l0.604,1.032l1.255-0.604l1.259-3.164
				l1.342,2.288l1.266-0.609l0.658-1.648l-1.348-2.289l2.443-1.187l0.66-1.654l-0.613-1.034l-3.707,1.811l-1.982-3.368l4.129-2.035
				l1.789,3.02l1.273-0.622l0.662-1.659l-1.184-1.99l2.823-1.391l0.664-1.665l-0.617-1.032L304.387,321.526z M329.342,340.365
				l-3.764-7.06l-4.042,10.383l-7.845,5.185l5.295,4.933l-1.164,10.238l7.338-7.189l7.299,1.24l-0.842-9.549l5.758-9.711
				L329.342,340.365z M242.915,288.482l1.38-2.098l-0.695-1.721l-1.409-0.627l-2.087,3.182l-4.569-2.053l2.315-3.548l4.101,1.825
				l0.714-1.09l-0.693-1.715l-2.704-1.196l1.573-2.409l-0.69-1.708l-1.4-0.613l-1.566,2.408l-1.321-3.278l-1.389-0.609l-0.704,1.087
				l1.999,4.974l-2.306,3.546l-2.226-5.558l2.054-3.173l-0.681-1.693l-1.38-0.606l-1.348,2.09l-1.494-3.729l-1.369-0.6l-0.695,1.081
				l1.488,3.723l-2.634-1.166l-0.692,1.078l0.67,1.683l4.007,1.783l2.217,5.548l-4.497-2.021l-1.966-4.938l-1.361-0.607l-0.69,1.075
				l1.289,3.243l-3-1.348l-0.688,1.071l0.666,1.68l3,1.355l-1.331,2.063l0.668,1.688l1.361,0.62l2.031-3.139l4.497,2.032
				l-2.289,3.52l-4.007-1.828l-0.692,1.069l0.67,1.693l2.635,1.208l-1.537,2.362l0.672,1.7l1.371,0.634l1.543-2.364l1.306,3.289
				l1.381,0.639l0.703-1.072l-1.991-5l2.297-3.521l2.236,5.595l-2.063,3.146l0.682,1.714l1.389,0.642l1.363-2.071l1.52,3.802
				l1.401,0.648l0.712-1.077l-1.526-3.809l2.705,1.24l0.714-1.081l-0.693-1.725l-4.102-1.871l-2.245-5.604l4.57,2.065l2.024,5.035
				l1.409,0.643l0.716-1.084l-1.338-3.323l3.123,1.411l0.72-1.089l-0.698-1.727L242.915,288.482z M348.255,247.655l-0.617-1.032
				l-2.823,1.398l1.274-3.203l-0.614-1.028l-1.273,0.636l-1.928,4.854l-4.129,2.046l2.138-5.402l3.707-1.853l0.659-1.663
				l-0.612-1.024l-2.444,1.229l1.453-3.669l-0.61-1.021l-1.266,0.642l-1.446,3.662l-1.168-1.963l-1.255,0.636l-0.65,1.65
				l1.767,2.982l-2.13,5.393l-1.967-3.34l1.897-4.816l-0.602-1.016l-1.248,0.632l-1.245,3.168l-1.32-2.241l-1.237,0.628
				l-0.643,1.637l1.314,2.24l-2.381,1.196l-0.639,1.632l0.592,1.015l3.621-1.811l1.959,3.339l-4.064,2.013l-1.737-2.977l-1.23,0.614
				l-0.638,1.627l1.139,1.958l-2.713,1.344l-0.635,1.621l0.588,1.016l2.712-1.336l-1.229,3.129l0.59,1.021l1.23-0.602l1.877-4.765
				l4.064-2.003l-2.115,5.353l-3.621,1.769l-0.639,1.624l0.592,1.023l2.381-1.156l-1.419,3.593l0.595,1.028l1.238-0.596l1.424-3.6
				l1.154,1.985l1.248-0.602l0.648-1.636l-1.758-3.014l2.121-5.362l1.976,3.367l-1.905,4.8l0.604,1.033l1.255-0.604l1.259-3.165
				l1.342,2.288l1.266-0.609l0.658-1.648l-1.349-2.288l2.444-1.188l0.66-1.654l-0.613-1.034l-3.707,1.811l-1.983-3.367l4.13-2.035
				l1.789,3.02l1.273-0.623l0.662-1.658l-1.184-1.99l2.823-1.392L348.255,247.655z M297.479,358.849
				c-2.152-0.024-4.414,0.884-6.521,2.453c4.443,0.063,6.645,5.434,4.773,11.803c-1.863,6.348-6.956,11.342-11.344,11.175
				c-0.488-0.019-0.969-0.158-1.396-0.298c1.09,2.573,3.115,4.215,5.855,4.331c5.689,0.24,12.313-6.189,14.739-14.396
				C306.023,365.675,303.266,358.914,297.479,358.849z M252.317,235.2l-10.183,2.667l-9.901-2.932l1.137,6.561l-7.744,4.752
				l10.904,1.586l5.423,6.349l5.627-6.047l11.475-1.024l-8.072-5.257L252.317,235.2z M282.594,193.699l0.064-0.899l-1.512-0.495
				l-4.598,1.169l-4.832-1.608l5.082-1.299l4.371,1.429l1.573-0.4l0.063-0.89l-2.891-0.936l3.455-0.883l0.061-0.878l-1.496-0.477
				l-3.434,0.881l0.137-1.677l-1.469-0.468l-1.539,0.396l-0.229,2.543l-5.054,1.295l0.291-2.845l4.486-1.155l0.079-0.859
				l-1.45-0.462l-2.938,0.759l0.191-1.881l-1.424-0.453l-1.51,0.392l-0.207,1.874l-2.726-0.882l-1.505,0.391l-0.103,0.848
				l4.146,1.355l-0.313,2.834l-4.66-1.552l0.307-2.503l-1.398-0.458l-1.501,0.389l-0.212,1.638l-3.063-1.02l-1.494,0.388
				l-0.12,0.848l3.058,1.029l-2.899,0.749l-0.121,0.86l1.389,0.474l4.432-1.141l4.652,1.565l-5.011,1.285l-4.114-1.41l-1.51,0.39
				l-0.122,0.868l2.696,0.934l-3.362,0.861l-0.125,0.881l1.401,0.493l3.381-0.863l-0.223,1.713l1.428,0.502l1.545-0.394l0.318-2.605
				l5.039-1.288l-0.32,2.913l-4.539,1.155l-0.109,0.899l1.446,0.509l3.005-0.762l-0.221,2.009l1.473,0.52l1.574-0.397l0.207-2.018
				l2.859,0.99l1.581-0.398l0.083-0.913l-4.338-1.486l0.299-2.925l4.824,1.624l-0.238,2.648l1.502,0.514l1.585-0.4l0.145-1.755
				l3.349,1.128l1.594-0.402l0.064-0.913l-3.355-1.117L282.594,193.699z M268.536,210.085c-1.854-1.458-4.364-2.506-7.134-3.111
				c3.777,2.999,2.357,7.256-3.233,9.273c-5.581,2.014-13.023,1.096-16.556-1.981c-0.391-0.34-0.698-0.735-0.962-1.096
				c-0.723,2.054-0.09,4.28,2.11,6.227c4.633,4.099,14.417,5.386,21.739,2.754C271.838,219.512,273.588,214.057,268.536,210.085z"/>
		</g>
	</g>
	<g id="&#x417;&#x430;&#x43B;&#x438;&#x432;&#x43A;&#x430;_&#x446;&#x432;&#x435;&#x442;&#x43E;&#x43C;_82_2_">
		<g>
			<path style="fill-rule:evenodd;clip-rule:evenodd;fill:#B04A95;" d="M390.747,199.128
				c-38.655-19.977-129.257-66.439-135.703-66.439c-6.445,0-97.048,46.463-135.704,66.439c-1.221,0.632-1.987,1.891-1.987,3.265
				v46.554c0,1.354,0.745,2.6,1.939,3.239c48.021,25.736,129.513,68.911,135.752,68.911c6.239,0,87.731-43.175,135.751-68.911
				c1.194-0.64,1.939-1.885,1.939-3.239v-46.554C392.735,201.019,391.969,199.76,390.747,199.128z M385.385,246.745
				c-47.107,25.226-121.641,64.368-130.34,66.935c-8.7-2.566-83.233-41.709-130.341-66.935v-42.114
				c47.192-24.366,121.808-62.15,130.341-64.532c8.534,2.382,83.149,40.166,130.34,64.532V246.745z"/>
		</g>
	</g>
	<g id="&#x424;&#x438;&#x433;&#x443;&#x440;&#x430;_106">
		<g>
			<path style="fill-rule:evenodd;clip-rule:evenodd;fill:#C0211A;" d="M432.681,218.563c-2.327-1.685-11.927-5.049-23.64-13.104
				c-12.173-8.371-24.193-19.772-26.598-20.476c-3.888-1.136-21.391,4.227-27.424,6.146c9.133-7.806,15.163-12.611,15.825-15.138
				c0.827-3.155,4.761-14.287,5.74-29.968c1.083-17.343,1.273-30.949-2.004-33.369c-3.277-2.419-8.838,20.518-20.618,35.858
				c-2.416,3.146-4.484,5.413-6.316,7.137c0.92-3.716,2.034-9.008,2.227-13.509c0.834-19.44,0.752-20.068-15.967-36.997
				c-10.451-10.582-19.445-20.788-22.6-21.003c-5.13-0.349,0.426,15.43,0.057,29.07c-0.365,13.556-3.365,18.188-4.131,22.046
				c-0.02,0.098-0.018,0.251-0.016,0.404c-4.15-3.426-8.471-6.706-10.891-7.696c-19.665-8.051-48.081-14.116-54.635-15.433
				c-6.554-1.317,0.4,6.891,6.532,11.416c8.919,6.583,20.485,11.627,33.158,23.94c10.729,10.424,20.714,21.558,28.229,30.655
				c4.711,5.702,9.877,12.646,13.19,17.195c-10.663,8.345-31.926,25.694-42.552,39.29c-7.719,9.876-7.319,24.206-7.319,24.206
				s10.72,130.072,11.607,140.179c0.35,3.975,10.528,7.191,17.663,10.896c11.008,5.717,21.447,13.3,21.447,13.3
				s-2.082-16.661-4.165-19.02c6.154-1.735,19.755,3.155,19.755,3.155s-3.131-5.417-10.144-12.586
				c-5.872-6.003-11.571-8.302-14.39-17.674c-2.816-9.372-8.605-124.438-5.268-132.522c2.376-5.754,8.427-20.124,11.729-27.956
				c0.685-0.417,11.908-7.95,11.908-7.95l22.672,17.729c0,0,0.731,13.426,0.352,28.02c-0.354,13.602-0.674,27.453-0.857,33.035
				c-0.184,5.581-0.696,40.569,4.151,62.811c1.912,8.773,12.219,10.112,20.121,12.439c7.901,2.328,26.492,10.138,26.492,10.138
				s-9.679-15.804-13.568-17.702c4.073-1.685,24.502,2.879,24.502,2.879s-7.273-7.081-15.993-12.852
				c-7.9-5.228-15.063-4.392-18.125-8.373s-2.976-42.975-5.967-76.906c-2.02-22.915-2.149-40.058-8.184-44.254
				c-3.745-2.604-11.761-5.917-17.304-8.055c7.453,0.03,15.818,0.705,22.939,2.909c17.61,5.451,30.078,9.543,46.575,11.458
				C429.021,223.278,435.008,220.247,432.681,218.563z"/>
		</g>
	</g>
	<g id="&#x424;&#x438;&#x433;&#x443;&#x440;&#x430;_108">
		<g>
			<path style="fill-rule:evenodd;clip-rule:evenodd;fill:#FE4F36;" d="M351.152,153.939c-4.465,4.465-10.264,7.86-13.26,9.46
				c0.244-5.373,0.33-18.697-3.751-31.353c-7.128-22.106-23.601-46.283-23.601-46.283l1.797,38.485l24.285,39.81
				c-0.451,0.228-0.724,0.355-0.724,0.355l-10.29,33.813c0,0,14.429-6.894,25.684-24.881c9.095-14.535,12.906-38.701,12.906-38.701
				S359.019,146.072,351.152,153.939z M295.924,143.118c1.625-6.682-2.289-15.089-2.289-15.089s-51.086-17.273-52.556-13.23
				c-0.81,2.229,13.6,13.182,26.367,23.554c10.394,8.443,14.429,12.096,14.429,12.096S294.242,150.031,295.924,143.118z
				 M291.15,242.836c-6.998-1.574-4.499-14.473-4.499-14.473s-9.539,10.792-11.522,18.143c-2.371,8.789-0.932,20.276-0.932,20.276
				s1.207-18.164,12.405-16.557c10.59,1.52,13.28,12.317,13.28,12.317l11.393-22.787
				C311.275,239.756,298.822,244.563,291.15,242.836z M384.769,200.101c-5.146-4.043-22.407-1.14-22.407-1.14l9.556,11.394
				c0,0,23.31,9.349,38.125,11.946c13.413,2.352,18.474-2.023,18.474-2.023S389.914,204.144,384.769,200.101z M369.345,217.338
				c0,0-3.309,12.128-16.539,5.88c0,0,2.085,5.627,3.082,14.686c1.024,9.313,0.961,22.066,0.961,22.066s4.644-14.322,10.128-19.29
				c4.024-3.645,9.351,1.649,9.351,1.649s-1.516-9.002-3.545-16.267C371.496,221.462,369.345,217.338,369.345,217.338z"/>
		</g>
	</g>
	<g id="&#x424;&#x438;&#x433;&#x443;&#x440;&#x430;_106_&#x43A;&#x43E;&#x43F;&#x438;&#x44F;">
		<g>
			<path style="fill-rule:evenodd;clip-rule:evenodd;fill:#9C1211;" d="M323.404,217.093l36.262-28.912l-36.752,11.761
				L323.404,217.093z M340.277,160.032l7.977-6.979c0.748-3.364,1.469-7.377,1.619-10.912c0.834-19.44,0.752-20.068-15.967-36.997
				c-9.719-9.84-18.171-19.345-21.846-20.803l27.514,44.791L340.277,160.032z M349.865,198.472c0,0,26.462,1.47,33.813-11.271
				c0,0-13.395-0.436-23.08,2.794C353.973,192.202,349.865,198.472,349.865,198.472z M368.486,179.85c0,0,17.151-30.871,4.41-63.703
				c0,0-9.718,33.715-10.983,51.996C361.451,174.811,368.486,179.85,368.486,179.85z M382.82,337.181
				c-2.221-2.887-2.786-24.173-4.067-48.591c-3.063,1.073-7.688,3.829-11.929,10.966c-4.147,6.979-8.005,17.396-10.735,25.719
				c0.633,8.829,1.659,17.836,3.303,25.377c0.878,4.028,3.535,6.48,6.907,8.189c5.491-1.886,11.813-4.626,16.569-8.353
				c3.546-2.778,6.374-6.017,8.598-9.168C387.664,340.16,384.57,339.456,382.82,337.181z M329.774,182.79
				c0,0-4.994-4.974-10.002-13.402c-5.038-8.478-10.089-20.409-10.089-20.409s2.506,9.505,2.933,19.602
				c0.272,6.461-7.343,5.88-7.343,5.88l20.09,22.051L329.774,182.79z M341.045,209.742l10.291,12.74l12.74-6.86L341.045,209.742z
				 M314.705,377.485c-2.691-8.954-8.096-114.393-5.659-130.816c-4.774,7.098-10.163,15.62-14.309,23.592
				c-9.556,18.376-6.616,46.308-5.88,73.505c0.397,14.737-3.304,22.319-6.779,26.203c1.266,15.267,2.221,26.721,2.46,29.445
				c0.19,2.17,3.317,4.113,7.272,6.033c7.515-1.867,16.421-4.713,23.467-8.83c3.242-1.895,5.969-4.169,8.233-6.515
				C319.82,386.91,316.606,383.807,314.705,377.485z"/>
		</g>
	</g>
	<g id="&#x417;&#x430;&#x43B;&#x438;&#x432;&#x43A;&#x430;_&#x446;&#x432;&#x435;&#x442;&#x43E;&#x43C;_107">
		<g>
			<path style="fill-rule:evenodd;clip-rule:evenodd;fill:#7F110F;" d="M435.338,216.881c-1.029-0.746-2.601-1.493-4.979-2.624
				c-4.409-2.096-11.07-5.263-18.732-10.531c-6.365-4.377-12.632-9.555-17.667-13.714c-6.044-4.994-8.225-6.748-9.982-7.26
				c-2.525-0.739-7.816,0.119-13.421,1.468c2.509-2.423,3.88-4.221,4.347-6.002c0.115-0.436,0.293-1.033,0.516-1.782
				c1.452-4.899,4.476-15.095,5.339-28.888c1.534-24.589,0.688-33.471-3.49-36.556c-0.792-0.585-1.721-0.895-2.683-0.895
				c-3.915,0-5.716,4.049-9.664,12.922c-2.719,6.11-6.304,14.137-10.903,21.066c0.009-0.168,0.025-0.321,0.033-0.492
				c0.889-20.758,0.253-22.244-17.026-39.737c-2.326-2.356-4.58-4.693-6.713-6.904c-10.236-10.613-14.538-14.93-18.252-15.183
				c-1.684-0.119-3.207,0.47-4.304,1.646c-2.602,2.787-1.948,7.528-0.864,15.384c0.676,4.902,1.441,10.459,1.303,15.607
				c-0.236,8.712-1.58,13.397-2.688,16.784c-2.14-2.176-4.667-4.262-7.283-5.333c-21.1-8.638-51.866-14.944-55.304-15.635
				c-4.563-0.911-6.166,1.492-6.644,2.57c-2.487,5.614,8.119,13.819,10.269,15.406c3.027,2.234,6.298,4.268,9.761,6.42
				c6.92,4.303,14.764,9.178,23.019,17.199c12.687,12.326,22.962,24.313,27.958,30.36c5.044,6.106,8.979,11.301,11.046,14.092
				c-6.655,5.055-27.94,21.758-40.47,37.79c-8.438,10.794-8.115,25.932-8.098,26.57l0.011,0.199
				c0.107,1.301,10.73,130.198,11.61,140.199c0.445,5.07,6.619,7.853,13.768,11.073c2.001,0.901,4.07,1.833,5.861,2.764
				c10.624,5.517,20.88,12.938,20.982,13.011l10.148,7.367l-4.565-11.679c-1.956-5.005-4.83-12.187-7.284-17.646
				c8.385,1.891,18.831,4.907,18.971,4.947l13.564,3.928l-9.93-10.042c-0.004-0.004-3.673-3.715-10.672-10.87
				c-1.705-1.745-3.341-3.147-4.923-4.504c-3.966-3.402-6.83-5.86-8.573-11.657c-2.492-8.291-8.375-121.104-5.391-130.063
				c2.25-5.448,7.88-18.824,11.262-26.848c1.975-1.231,6.327-4.016,11.594-7.808c5.082,4.401,13.404,12.456,15.335,16.492
				c1.643,3.769,1.078,30.83-0.417,54.815l-0.008,0.25c0.012,1.86,0.327,45.806,5.201,68.165
				c2.305,10.581,13.437,13.101,21.565,14.941l1.321,0.3c8.895,2.044,25.595,9.807,25.763,9.885l9.146,4.264l-4.26-9.146
				c-0.517-1.11-3.772-8.055-6.906-13.722c5.315,0.648,11.786,1.745,14.765,2.289l16.331,2.986l-13.546-9.602
				c-0.043-0.03-4.349-3.1-11.404-9.639c-4.529-4.197-10.93-5.677-16.072-6.865c-2.344-0.543-5.847-1.353-6.691-2.104
				c-1.267-3.022-2.052-19.294-2.746-33.676c-0.622-12.894-1.328-27.509-2.552-41.393c-0.347-3.947-0.64-7.725-0.915-11.292
				c-1.353-17.511-2.282-29.474-7.604-34.633c0.408,0.116,0.817,0.233,1.224,0.359l3.337,1.035
				c15.715,4.878,28.127,8.732,43.902,10.563c1.098,0.128,2.231,0.192,3.369,0.192c5.659,0,11.35-1.613,12.721-5.139
				C437.828,220.336,437.156,218.195,435.338,216.881z M317.903,217.774c-3.376,8.012-9.085,21.573-11.358,27.08
				c-0.059,0.143-0.115,0.312-0.169,0.506c-0.03,0.047-0.069,0.085-0.099,0.134c-3,5.069-5.623,10.126-8.078,15.366
				c-1.217,2.614-2.369,5.26-3.437,7.944c-0.268,0.683-0.526,1.318-0.785,2.048c-0.268,0.759-0.485,1.503-0.675,2.23
				c-0.38,1.462-0.66,2.907-0.896,4.348c-0.922,5.754-1.262,11.446-1.487,17.142c-0.202,5.69-0.241,11.371-0.12,17.043
				c0.533-5.646,1.225-11.272,2.074-16.859c0.867-5.575,1.865-11.154,3.363-16.472c0.379-1.322,0.795-2.626,1.274-3.861
				c0.241-0.622,0.495-1.213,0.764-1.765l0.929-1.839c1.271-2.474,2.628-4.907,4.043-7.309c0.699-1.181,1.414-2.359,2.143-3.531
				c-0.425,33.955,3.912,111.916,6.301,119.859c2.363,7.858,6.665,11.55,10.826,15.12c1.462,1.253,2.974,2.55,4.454,4.064
				c0.415,0.423,0.818,0.835,1.209,1.234c-5.104-1.288-10.563-2.537-14.104-2.98l-9.709-1.275l6.442,7.291
				c0.771,1.029,2.979,5.962,5.461,11.906c-3.509-2.206-7.634-4.655-11.871-6.856c-1.973-1.024-4.138-1.999-6.229-2.941
				c-3.209-1.445-8.527-3.842-9.484-5.243c-0.993-11.398-11.197-135.208-11.577-139.809c-0.01-1.138,0.046-13.45,6.542-21.762
				c8.486-10.858,21.592-22.348,30.709-29.797l-23.773,36.059l27.492-31.167C317.945,215.536,317.908,216.994,317.903,217.774z
				 M312.193,134.385c1.22-3.672,3.063-9.22,3.348-19.779c0.155-5.752-0.654-11.627-1.369-16.81c-0.32-2.324-0.717-5.2-0.844-7.286
				c2.916,2.447,7.677,7.383,11.691,11.545c2.152,2.231,4.427,4.59,6.773,6.967c15.699,15.894,15.699,15.894,14.912,34.257
				c-0.236,5.498-1.288,9.843-1.782,11.622c-2.505,2.221-4.492,3.305-6.322,4.274c-1.213,0.644-2.468,1.309-3.753,2.227
				c-3.282,2.345-4.447,7.107-6.06,13.698c-0.103,0.417-0.211,0.856-0.317,1.289c-2.239-3.15-4.854-7.193-7.093-11.627
				c-6.12-12.127-9.804-25.296-9.986-27.732C311.559,136.299,311.843,135.441,312.193,134.385z M323.825,191.343
				c-2.198-2.955-6.007-7.948-10.877-13.845c-8.792-10.643-18.914-21.635-28.503-30.95c-8.823-8.573-17.023-13.672-24.26-18.17
				c-3.335-2.073-6.485-4.031-9.276-6.092c-1.637-1.208-3.148-2.548-4.395-3.794c10.142,2.209,32.604,7.488,48.923,14.168
				c3.184,1.305,7.383,6.288,9.522,9.422c1.726,6.982,5.722,17.802,9.856,25.991c3.807,7.543,8.5,13.9,11.181,17.271
				C325.376,187.293,324.658,189.302,323.825,191.343z M325.656,211.364c0.455-4.135,1.422-9.413,3.472-13.785
				c3.614-7.712,5.38-14.932,6.8-20.733c0.949-3.877,2.131-8.704,3.193-9.463c0.887-0.634,1.83-1.134,2.924-1.713
				c3.662-1.942,8.222-4.359,15.335-13.624c6.348-8.264,10.919-18.537,14.256-26.039c0.692-1.556,1.456-3.272,2.174-4.8
				c0.424,4.246,0.477,12.006-0.389,25.882c-0.812,12.962-3.674,22.616-5.051,27.256c-0.25,0.845-0.449,1.519-0.534,1.876
				c-0.673,1.489-5.959,5.979-11.071,10.319c-1.154,0.98-2.384,2.026-3.647,3.107c-0.01,0.008-0.02,0.016-0.029,0.024
				c-2.277,1.947-4.715,4.049-7.352,6.388C338.628,202.364,330.847,207.891,325.656,211.364z M372.774,250.52
				c0.277,3.593,0.571,7.396,0.922,11.373c1.21,13.737,1.912,28.274,2.531,41.101c1.258,26.034,1.859,34.702,4.182,37.723
				c2.187,2.841,6.244,3.778,10.942,4.864c4.517,1.045,9.636,2.228,12.731,5.097c0.57,0.526,1.123,1.033,1.656,1.519
				c-3.865-0.513-7.65-0.882-9.927-0.797l-7.599,0.311l4.964,5.761c1.213,1.408,3.426,5.393,5.609,9.646
				c-5.688-2.381-12.832-5.136-17.95-6.312l-1.345-0.306c-8.605-1.948-14.79-3.757-16.006-9.336
				c-4.587-21.046-5.011-63.898-5.03-66.521c0.755-12.157,2.921-51.593-0.293-58.308c-1.926-4.025-7.097-9.485-11.36-13.584
				c6.773,1.945,16.748,5.132,20.271,7.582C370.633,222.808,371.674,236.269,372.774,250.52z M421.808,219.978
				c-15.096-1.752-26.62-5.33-42.569-10.282l-3.343-1.036c-10.248-3.173-20.82-3.586-28.263-3.316
				c-0.392-0.11-0.76-0.212-1.102-0.307c1.365-1.128,2.734-2.28,4.083-3.478c2.4-2.128,4.638-4.063,6.746-5.868
				c9.884-3.236,21.758-6.297,24.44-5.903c1.112,0.633,4.486,3.42,7.477,5.891c5.146,4.252,11.551,9.544,18.184,14.104
				c7.179,4.937,13.672,8.203,18.081,10.321C424.435,220.161,423.186,220.137,421.808,219.978z"/>
		</g>
	</g>
</g>
</svg>
