<?xml version="1.0" encoding="iso-8859-1"?>
<!-- Generator: Adobe Illustrator 15.0.0, SVG Export Plug-In . SVG Version: 6.00 Build 0)  -->
<!DOCTYPE svg PUBLIC "-//W3C//DTD SVG 1.1//EN" "http://www.w3.org/Graphics/SVG/1.1/DTD/svg11.dtd" [
	<!ENTITY ns_extend "http://ns.adobe.com/Extensibility/1.0/">
	<!ENTITY ns_ai "http://ns.adobe.com/AdobeIllustrator/10.0/">
	<!ENTITY ns_graphs "http://ns.adobe.com/Graphs/1.0/">
	<!ENTITY ns_vars "http://ns.adobe.com/Variables/1.0/">
	<!ENTITY ns_imrep "http://ns.adobe.com/ImageReplacement/1.0/">
	<!ENTITY ns_sfw "http://ns.adobe.com/SaveForWeb/1.0/">
	<!ENTITY ns_custom "http://ns.adobe.com/GenericCustomNamespace/1.0/">
	<!ENTITY ns_adobe_xpath "http://ns.adobe.com/XPath/1.0/">
]>
<svg version="1.1" xmlns:x="&ns_extend;" xmlns:i="&ns_ai;" xmlns:graph="&ns_graphs;"
	 xmlns="http://www.w3.org/2000/svg" xmlns:xlink="http://www.w3.org/1999/xlink" x="0px" y="0px" width="512px" height="512px"
	 viewBox="0 0 512 512" style="enable-background:new 0 0 512 512;" xml:space="preserve">
<metadata>
	<sfw  xmlns="&ns_sfw;">
		<slices></slices>
		<sliceSourceBounds  x="94" y="94" width="512" height="512" bottomLeftOrigin="true"></sliceSourceBounds>
	</sfw>
</metadata>
<g id="&#x418;&#x437;&#x43E;&#x431;&#x440;&#x430;&#x436;&#x435;&#x43D;&#x438;&#x435;_xA0_17_1_">
	<g id="&#x417;&#x430;&#x43B;&#x438;&#x432;&#x43A;&#x430;_&#x446;&#x432;&#x435;&#x442;&#x43E;&#x43C;_1">
		<g>
			<rect x="3.699" y="4.439" style="fill-rule:evenodd;clip-rule:evenodd;fill:#B17D7B;" width="503.121" height="503.121"/>
		</g>
	</g>
	<g id="&#x417;&#x430;&#x43B;&#x438;&#x432;&#x43A;&#x430;_&#x446;&#x432;&#x435;&#x442;&#x43E;&#x43C;_5">
		<g>
			<path style="fill-rule:evenodd;clip-rule:evenodd;fill:#F3D4C3;" d="M484.624,25.156l20.717-20.717H3.699l20.717,20.717H484.624z
				 M24.416,486.844L3.699,507.561h501.642l-20.717-20.717H24.416z"/>
		</g>
	</g>
	
		<g id="&#x417;&#x430;&#x43B;&#x438;&#x432;&#x43A;&#x430;_&#x446;&#x432;&#x435;&#x442;&#x43E;&#x43C;_1_&#x43A;&#x43E;&#x43F;&#x438;&#x44F;_2">
		<g>
			<radialGradient id="SVGID_1_" cx="256.7402" cy="256" r="228.0762" gradientUnits="userSpaceOnUse">
				<stop  offset="0" style="stop-color:#95584F"/>
				<stop  offset="0.2" style="stop-color:#95584F"/>
				<stop  offset="0.4182" style="stop-color:#91524C"/>
				<stop  offset="0.6121" style="stop-color:#7B3F3C"/>
				<stop  offset="0.7636" style="stop-color:#5A292A"/>
				<stop  offset="0.897" style="stop-color:#3D1B1D"/>
				<stop  offset="1" style="stop-color:#2D1316"/>
			</radialGradient>
			<polygon style="fill-rule:evenodd;clip-rule:evenodd;fill:url(#SVGID_1_);" points="432.765,27.924 78.856,27.924 28.664,78.116 
				28.664,435.769 76.972,484.076 433.367,484.076 484.816,432.627 484.816,79.976 			"/>
		</g>
	</g>
	
		<g id="&#x417;&#x430;&#x43B;&#x438;&#x432;&#x43A;&#x430;_&#x446;&#x432;&#x435;&#x442;&#x43E;&#x43C;_1_&#x43A;&#x43E;&#x43F;&#x438;&#x44F;">
		<g>
			<path style="fill-rule:evenodd;clip-rule:evenodd;fill:#F2D2C0;" d="M25.109,24.37v463.26h463.26V24.37H25.109z M466.659,418.566
				l-47.353,47.353H91.283l-44.462-44.462V92.277l46.196-46.196h325.734l47.908,47.907V418.566z"/>
		</g>
	</g>
	<g id="&#x424;&#x438;&#x433;&#x443;&#x440;&#x430;_3">
		<g>
			<path style="fill-rule:evenodd;clip-rule:evenodd;fill:#A18180;" d="M429.873,25.156l-344.047-1.48l-62.15,62.891v342.566
				l59.931,59.19l344.046-0.739l59.931-59.191V84.347L429.873,25.156z M477.226,423.954l-56.231,54.751H91.006l-56.231-54.751
				V88.046l54.012-54.012h334.428l54.751,56.231L477.226,423.954z"/>
		</g>
	</g>
	<g id="&#x417;&#x430;&#x43B;&#x438;&#x432;&#x43A;&#x430;_&#x446;&#x432;&#x435;&#x442;&#x43E;&#x43C;_6">
		<g>
			<path style="fill-rule:evenodd;clip-rule:evenodd;fill:#C7907F;" d="M23.676,86.566l62.52-62.752l-62.52-0.139V86.566z
				 M487.584,23.63l-62.521,0.139l62.521,62.752V23.63z M22.196,488.37l62.521-0.139l-62.521-62.752V488.37z M425.803,488.971
				l62.521,0.139v-62.89L425.803,488.971z"/>
		</g>
	</g>
	
		<g id="&#x417;&#x430;&#x43B;&#x438;&#x432;&#x43A;&#x430;_&#x446;&#x432;&#x435;&#x442;&#x43E;&#x43C;_6_&#x43A;&#x43E;&#x43F;&#x438;&#x44F;">
		<g>
			<path style="fill-rule:evenodd;clip-rule:evenodd;fill:#FDECE7;" d="M27.964,485.886l56.753,2.346L55.27,458.579L27.964,485.886z
				 M54.694,55.434l31.502-31.619l-59.314,3.562L54.694,55.434z M425.803,488.971l59.314-3.113l-28.158-28.158L425.803,488.971z
				 M485.117,26.582l-60.054-2.813l31.376,31.491L485.117,26.582z"/>
		</g>
	</g>
	<g id="&#x424;&#x438;&#x433;&#x443;&#x440;&#x430;_1">
		<g>
			<path style="fill-rule:evenodd;clip-rule:evenodd;fill:#C7907F;" d="M34.774,487.769l0.093-9.156h-8.417L34.774,487.769z
				 M477.04,477.873l0.093,9.155l8.323-9.155H477.04z M476.393,25.804l-0.092,9.156h8.416L476.393,25.804z M26.451,34.96h8.417
				l-0.093-9.156L26.451,34.96z"/>
		</g>
	</g>
	<g id="&#x424;&#x438;&#x433;&#x443;&#x440;&#x430;_2">
		<g>
			<path style="fill-rule:evenodd;clip-rule:evenodd;fill:#FDECE7;" d="M22.597,480.813L9.026,497.72l-1.627,10.285l22.418-0.296
				l0.532-18.644l-3.492-6.957L22.597,480.813z M508.448,495.817l-18.855-14.581l-4.261,4.043l-3.068,4.209l2.646,16.529
				l23.688,1.353L508.448,495.817z M21.002,31.648l4.26-1.295l3.492-6.956L28.222,4.754L5.803,4.458l1.628,10.284L21.002,31.648z
				 M487.997,31.226l18.856-14.581l0.147-11.553l-23.687,1.353l-2.646,16.53l3.069,4.208L487.997,31.226z"/>
		</g>
	</g>
	<g id="&#x417;&#x430;&#x43B;&#x438;&#x432;&#x43A;&#x430;_&#x446;&#x432;&#x435;&#x442;&#x43E;&#x43C;_2">
		<g>
			<path style="fill-rule:evenodd;clip-rule:evenodd;fill:#2F181B;" d="M0,0v512h512V0H0z M503.121,503.121H8.878V8.879h494.243
				V503.121z"/>
		</g>
	</g>
	<g id="&#x417;&#x430;&#x43B;&#x438;&#x432;&#x43A;&#x430;_&#x446;&#x432;&#x435;&#x442;&#x43E;&#x43C;_3">
		<g>
			<path style="fill-rule:evenodd;clip-rule:evenodd;fill:#40292E;" d="M482.33,20.67H29.346l-9.369,9.369v397.468
				c-0.119,0.585-0.119,1.188,0,1.771v53.925l9.606,9.605h453.025l9.507-9.507V30.455L482.33,20.67z M28.855,34.183l4.633-4.634
				h40.974L28.855,75.156V34.183z M33.726,483.931l-4.871-4.871v-39.857l44.728,44.729H33.726z M483.237,479.158l-4.772,4.772
				H437.63l45.607-45.607V479.158z M483.237,425.769l-58.162,58.162H86.139l-57.283-57.283V87.711l58.162-58.162h338.058
				l58.162,58.162V425.769z M483.237,75.156L437.63,29.549h40.558l5.05,5.05V75.156z"/>
		</g>
	</g>
	
		<g id="&#x417;&#x430;&#x43B;&#x438;&#x432;&#x43A;&#x430;_&#x446;&#x432;&#x435;&#x442;&#x43E;&#x43C;_4_&#x43A;&#x43E;&#x43F;&#x438;&#x44F;" style="opacity:0.502;">
		<g>
			<path style="fill-rule:evenodd;clip-rule:evenodd;fill:#876867;" d="M465.59,92.913l-47.243-47.244
				c-0.685-0.685-1.612-1.068-2.579-1.068H94.545c-0.968,0-1.896,0.384-2.58,1.068L46.409,91.227
				c-0.684,0.684-1.069,1.611-1.069,2.579v324.619c0,0.968,0.385,1.896,1.069,2.579l43.847,43.847
				c0.684,0.684,1.612,1.068,2.579,1.068h323.479c0.968,0,1.896-0.385,2.579-1.068l46.696-46.696
				c0.685-0.685,1.069-1.612,1.069-2.58V95.493C466.659,94.525,466.274,93.598,465.59,92.913z M459.363,414.063l-44.56,44.56H94.346
				l-41.709-41.709V95.316l43.419-43.419h318.201l45.106,45.106V414.063z"/>
		</g>
	</g>
	<g id="&#x417;&#x430;&#x43B;&#x438;&#x432;&#x43A;&#x430;_&#x446;&#x432;&#x435;&#x442;&#x43E;&#x43C;_4">
		<g>
			<path style="fill-rule:evenodd;clip-rule:evenodd;fill:#40292E;" d="M468.534,90.633l-47.907-47.907
				c-0.693-0.694-1.635-1.084-2.615-1.084H92.277c-0.981,0-1.922,0.39-2.616,1.084L43.465,88.922
				c-0.693,0.693-1.083,1.635-1.083,2.615v329.18c0,0.981,0.39,1.922,1.083,2.615l44.463,44.463
				c0.694,0.693,1.634,1.084,2.615,1.084h328.023c0.981,0,1.922-0.391,2.615-1.084l47.353-47.353
				c0.694-0.694,1.084-1.635,1.084-2.616V93.248C469.618,92.268,469.229,91.326,468.534,90.633z M462.22,416.295l-45.186,45.185
				H92.075L49.78,419.185V93.07l44.029-44.03h322.67l45.74,45.741V416.295z"/>
		</g>
	</g>
</g>
<g id="&#x413;&#x440;&#x443;&#x43F;&#x43F;&#x430;_43_1_">
	<g id="&#x424;&#x438;&#x433;&#x443;&#x440;&#x430;_187_&#x43A;&#x43E;&#x43F;&#x438;&#x44F;_5" style="opacity:0.502;">
		<g>
			<path style="fill-rule:evenodd;clip-rule:evenodd;fill:#2D1316;" d="M407.905,318.428c7.747,2.079,25.477,6.623,25.447,6.603
				c-0.005-0.005-2.813-8.807-10.305-13.871c-7.009-4.751-28.046-6.136-28.135-6.178c0.05-0.002,13.551-8.141,26.573-2.853
				c11.604,4.704,27.336,13.429,27.348,13.422c-0.482-0.236-1.225-32.644-46.845-33.209c-34.762-0.735-30.612-26.294-30.473-26.206
				c0.823-0.816,1.645-1.633,2.462-2.449c7.629-1.735,16.504-5.674,26.311-12.884c39.904-30.437,34.407-65.887,33.32-68.881
				c-0.399-0.594-3.65,0.009-8.733,1.146c0.396-1.143,0.792-2.283,1.188-3.42c-0.666-0.446,3.271-54.936-44.807-72.653
				c-46.183-18.116-79.466,32.651-82.231,37.532c-7.34,8.783-13.896,26.894-31.961,13.006c-7.848-6.116-10.418-31.086-10.449-31.063
				c-0.035,0.022,12.314-2.265,18.571-17.494c4.989-12.204-0.488-30.728-0.468-30.725c0.092-0.069-4.145,23.676-24.502,24.295
				c-20.278,0.516-25.775-23.456-25.77-23.427c0.062-0.024-3.704,19.114,1.997,31.203c7.193,15.058,19.564,16.495,19.55,16.488
				c0.034-0.023-1.019,25.741-9.215,31.864c-18.221,13.583-21.747,1.82-33.377-7.82c-2.856-4.444-37.603-57.867-82.316-37.759
				c-47.242,19.985-44.562,73.721-44.852,74.435c0.241,1.119,0.482,2.241,0.724,3.365c-4.94-1.296-8.092-2.054-8.488-1.501
				c-0.245,0.345-0.5,1.214-0.687,2.524c-0.047,0.328-0.089,0.684-0.126,1.065c-0.037,0.383-0.068,0.791-0.094,1.225
				c-0.049,0.868-0.073,1.838-0.059,2.899c0.055,4.247,0.685,9.966,2.555,16.605c3.817,13.194,12.248,30.488,32.953,45.589
				c10.927,7.884,20.608,11.598,28.755,12.764c0.308,0.672,0.616,1.344,0.925,2.015c0.129-0.176,10.985,29.452-23.706,30.8
				c-45.704,0.393-41.766,25.725-42.264,26.23c0.011-0.017,7.886-5.412,18.873-9.769c12.368-4.885,26.926-2.816,26.939-2.829
				c-0.026,0.028-11.762,4.996-18.44,9.639c-7.103,4.942-12.037,13.605-12.037,13.612c-0.011,0.003,8.218-4.288,15.516-6.266
				c5.435-1.465,10.271-0.635,10.27-0.634c-0.114,0.128-22.899,6.719-25.729,28.339c-3.66,27.863,3.977,31.988,3.906,31.964
				c0.034,0.017-0.97-10.469,8.526-26.104c6.035-9.893,15.391-12.214,15.395-12.227c-0.061-0.002-11.463,18.609-1.487,27.315
				c20.283,17.387,34.161-2.183,34.185-2.104c-0.02,0.004,6.838-10.62,10.402,0.011c6.797,20.034-8.221,23.486-8.207,23.563
				c0.02-0.011,8.979,0.117,19.982-8.389c9.925-7.597,1.691-23.316,1.69-23.374c0-0.04,9.903-1.162,15.023,14.204
				c5.413,15.692-3.796,14.699-23.038,23.564c-15.173,7.071-8.002,24.844-8.005,24.711c0.001,0.004,1.46-5.849,5.354-11.477
				c3.028-4.379,8.029-5.516,8.027-5.515c-0.025,0.001-3.943,11.492,1.02,19.741c4.976,8.384,18.594,13.419,18.593,13.417
				c0.066-0.004-11.092-9.092-3.766-26.452c5.105-11.931,16.218-12.333,16.202-12.306c-0.038,0.024-8.556,11.833-5.25,20.027
				c5.668,14.221,23.37,17.251,23.371,17.324c-0.007,0.036-1.751-8.928-2.425-14.319c-1.129-8.458,15.382-12.184,15.41-12.183
				c-0.066-0.063-12.42,11.346,15.263,25.554c11.025,5.81,7.675,17.973,7.714,17.867c0.013-0.051,9.537-1.809,18.71-10.21
				c5.844-5.315,2.998-16.009,2.989-16.044c-0.022,0.046,8.854-8.259,17.032-2.01c8.155,6.142,17.811,7.514,23.295-7.262
				c3.166-8.594-5.878-20.545-5.883-20.549c-0.001-0.02,11.465,0.004,17.214,12.274c8.38,17.913-2.786,27.675-2.771,27.646
				c-0.016,0.013,14.328-5.463,19.241-14.371c4.851-8.763,0.177-20.68,0.179-20.671c0.001-0.001,5.373,1.051,8.861,5.562
				c4.481,5.798,6.513,11.916,6.512,11.912c0.025,0.145,6.562-18.712-9.881-25.674c-20.709-8.692-30.063-7.265-24.498-23.667
				c5.352-16.038,16.024-16.333,16.027-16.286c0.017,0.063-5.689,16.896,4.822,24.449c11.706,8.478,20.889,8.21,20.885,8.212
				c-0.023-0.085-17.521-6.083-10.607-27.234c3.579-11.209,15.428,2.691,15.44,2.686c-0.045-0.03,19.389,13.759,25.599-3.267
				c2.896-8.094-8.055-28.087-8.033-28.113c0.057,0.042,22.593,4.492,25.024,15.521c4.376,19.618,3.398,29.475,3.386,29.477
				c0.074,0.049,17.53-6.577,11.278-35.323c-4.72-22.338-27.581-27.23-27.671-27.28
				C397.155,317.795,402.155,316.901,407.905,318.428z"/>
		</g>
	</g>
	<g id="&#x417;&#x430;&#x43B;&#x438;&#x432;&#x43A;&#x430;_&#x446;&#x432;&#x435;&#x442;&#x43E;&#x43C;_135">
		<g>
			<path style="fill-rule:evenodd;clip-rule:evenodd;fill:#8BE4F8;" d="M103.772,394.712l-0.173-0.945l-2.981-16.284l6.125-7.011
				l1.8-2.061l-2.513-1.416l-14.972-8.438l-1.864-9.253l6.876-6.981l17.071-3.518l-2.007-8.362l-17.777,4.88l-1.201,0.329
				l-0.657,0.76l-8.298,9.595l-1.213,1.402l0.427,1.586l3.261,12.091l0.368,1.366l1.108,0.533l14.295,6.88l-4.442,5.802
				l-0.612,0.801l0.214,0.854l4.061,16.188l-10.147,7.72l-13.457-2.042l-0.36-0.056l-0.15,0.299l-6.698,13.309l7.36-12.534
				l13.387,2.928l0.357,0.078l0.355-0.234l11.729-7.781L103.772,394.712z M181.181,432.444l-0.656-0.046l-14.292-0.992l-9.68-2.505
				l-1.317-11.825l4.292-1.404l1.448-0.473l0.104-1.676l1.511-24.342l0.043-0.689l-0.374-0.814l-6.097-13.257l4.599-17.331
				l-8.38-1.934l-3.692,18.772l-0.278,1.415l0.572,1.057l7.305,13.492l0.07,21.969l-13.949,5.594l-14.049,3.289l-0.72,0.17
				l-0.242,0.605l-4.469,11.193l-2.08,5.688l-1.902,5.245l-16.125-2.958l16.366,4.12l0.433,0.109l0.194-0.442l4.841-11.005
				l4.87-10.212l13.783-2.292l0.077-0.014l0.187-0.061l3.731-1.221l3.34,12.282l0.625,2.303l1.893,0.182l12.352,1.191l0.363,0.035
				l0.029-0.003l14.134-1.242l6.674,9.896l-5.321-11.414L181.181,432.444z M71.948,244.311l1.238,0.235l8.465,1.607l11.261,14.229
				l1.812,2.29l2.177-2.216l5.623-5.718l19.183,25.272l6.664-5.438l-23.17-26.454l-2.407-2.749l-2.234,2.615l-5.686,6.656
				L84.282,243.03l-0.55-0.604l-0.671-0.08l-8.231-0.973l-7.496-35.806l-0.031-0.146l-0.101-0.071l-8.094-5.771l7.557,6.228
				l5.129,37.37L71.948,244.311z M398.954,111.816l10.227-2.384l0.294-0.069l0.074-0.032l6.11-2.718l-0.363,0.388l8.791,6.328
				l1.892,1.361l1.375-0.871l13.85-8.785l8.477,3.129l-8.125-5.249l-0.34-0.22l-0.603,0.216l-13.607,4.896l-3.759-4.566l1.039-0.462
				l0.508-0.226l0.142-0.408l6.829-19.779l-8.7,18.417l-1.457,0.466l-0.429-0.521l-0.882,0.939l-11.896,3.805l-12.22,1.478
				l-1.584,0.19l-0.557,1.806l-8.729,28.275l8.342,2.086L398.954,111.816z M417.793,242.651l0.229-0.419l8.638-15.818l24.454-9.32
				l-25.374,7.75l-0.288,0.089l-0.195,0.305l-9.537,14.96l-37.301,12.915l-0.82,0.284l-0.591,0.883l-23.43,35.079l7.31,4.533
				l20.57-35.833l14.55-6.17l14.898,12.695l1.959,1.67l1.869-1.206l13.444-8.679l6.374,4.128l5.099,17.676l0.096,0.328l0.229,0.128
				l11.854,6.546l-10.799-7.59l-3.247-18.606l-0.097-0.555l-0.585-0.476l-7.572-6.16l-1.053-0.855l-1.435,0.72l-13.214,6.631
				l-9.41-9.961l12.84-5.444L417.793,242.651z M79.086,112.502l0.153,1.723l1.949,0.104l14.747,0.788l6.117,1.629l10.98,30.421
				l5.846-0.697l-11.033-33.377l-0.688-2.129l-1.863-0.293l-2.497-0.393l2.008-5.179l9.134-1.865l0.87-0.178l0.416-0.343
				l10.666-8.772l1.2-0.987l-0.439-1.23l-0.526-1.471l6.156-4.119l9.212,4.272l1.287,0.597l0.643-0.789l7.841-9.646l-8.875,6.521
				l-8.712-7.175l-1.043-0.858l-2.029,0.706l-7.318,2.548l-0.052-0.146l-0.099-0.276l-0.072-0.098l-5.972-8.125l-0.465-12.801
				l-1.116,13.055l-0.017,0.195l0.144,0.256l4.895,8.704l1.864,8.271l-9.799,6.236l-10.915,0.874l-1.725,0.138l-1.022,1.909
				l-4.772,8.916l-11.242,0.572l-0.971-4.969l8.541-7.693l0.412-0.371l-0.02-0.443l-0.446-10.14
				c-0.117-3.38-0.343-6.771-0.587-10.139c-0.109,3.389-0.236,6.753-0.472,10.131l-0.579,9.578l-9.793,7.123l-0.711,0.518
				l0.094,1.054L79.086,112.502z M356.023,102.617l-10.077,7.205l5.372,6.716l10.285-9.181l1.33-1.187V95.329l0.4,0.554
				l11.918-10.675l0.831-0.744l0.122-0.553l5.393-24.479l-9.911,21.804l-8.753,5.018l0.001-8.074l0.002-2.596l-2.34,0.37
				l-19.86,3.144l-5.004-16.799l3.333,18.148l0.147,0.803l0.922-0.045l18.307-0.9L356.023,102.617z M314.324,100.82l0.105-0.394
				c-0.102,0.037-0.199,0.081-0.301,0.119l-4.192-5.895l-6.935-9.586l-0.471,0.33c0.59,1.998,1.313,3.898,2.064,5.782
				c0.79,1.854,1.556,3.726,2.451,5.507l1.297,2.704l1.402,2.629c0.04,0.075,0.08,0.149,0.12,0.225
				c-0.565,0.231-1.143,0.438-1.704,0.678c-2.074,0.861-4.115,1.795-6.156,2.73l-1.281,0.587l-0.813,1.217
				c-1.674,2.507-3.287,5.056-4.848,7.638c-1.521,2.609-3.046,5.216-4.403,7.934l-1.532,3.072l1.61,1.715
				c1.154,1.229,2.267,2.487,3.438,3.703l-0.186,1.194c-0.182,1.134-0.269,2.299-0.408,3.447c-0.146,1.146-0.22,2.315-0.295,3.485
				c-0.089,1.164-0.114,2.351-0.109,3.546l0.543,0.182c1.488-4.281,3.02-8.549,4.455-12.848l0.072-0.217l-0.133-0.188l-3.363-4.762
				l9.832-14.595l7.911-3.772c0.046,0.077,0.087,0.156,0.132,0.232l0.09-0.338l3.879-1.85l0.541-0.258l-0.346-0.485L314.324,100.82z
				 M433.064,378.547l13.748,2.659l-13.597-7.119l-0.619-0.323l-1.246,0.507l-11.453,4.655l-1.041-3.876l-0.06-0.229l-0.186-0.253
				l-9.002-12.423l-0.81-1.116l-1.384,0.514l-14.48,5.365l-0.623,0.229l-0.442,0.644l-8.535,12.422l-13.209-3.812l-20.632-38.175
				l-7.457,4.28l23.21,38.129l0.729,1.2l1.209,0.282l1.883,0.44l-1.604,10.803l-9.43,11.832l-0.734,0.922l0.046,0.899l0.61,12.183
				l0.118,2.348l2.126-0.208l14.286-1.4l6.439,8.991l7.121,13.919l-5.731-14.656l-0.007-0.018l-0.048-0.086l-5.947-10.354
				l-0.364-0.634l-0.868-0.002l-12.735-0.031l0.445-8.874l10.731-11l0.545-0.559l0.278-1.102l2.8-11.086l6.633,1.549l1.975,0.462
				l0.989-1.609l8.602-14.008l12.2-5.247l8.557,10.614l6.097,18.794l0.346,13.448l0.005,0.24l0.139,0.157l7.387,8.415l0.094,0.107
				l0.126,0.012l12.936,1.102l-12.722-1.746l-6.719-8.497l0.345-13.406l0.003-0.116l-0.044-0.16l-2.342-8.719l0.727,1.235
				L433.064,378.547z M229.342,140.252c0.279-0.251,0.564-0.494,0.84-0.75l-1.204-0.361l-1.038-3.168l-0.196-0.599l-0.5,0.39
				l-2.652,2.061l-1.162-0.349l0.403,0.938l-6.486,5.041l-8.404-1.339c1.126-2.884,2.201-5.787,3.307-8.679l3.534-9.336l0.104-0.276
				l-0.196-0.216l-24.644-27.104l-0.426,0.384c1.53,2.729,3.144,5.385,4.84,7.965l2.559,3.855l2.664,3.764
				c1.747,2.535,3.625,4.952,5.476,7.393c1.205,1.633,2.467,3.214,3.739,4.785l-0.961,2.166l-1.88,4.625
				c-1.216,3.097-2.56,6.145-3.671,9.282l-2.148,6.063l6.152,0.841l9.34,1.275l2.168,0.297l1.653-1.3
				c0.837-0.657,1.617-1.385,2.426-2.075l2.409-2.099c0.176-0.155,0.355-0.308,0.532-0.463c0.589,1.389,1.215,2.764,1.862,4.133
				l-0.396,3.312l-0.41,4.64c-0.158,1.54-0.21,3.106-0.309,4.662c-0.115,1.552-0.091,3.137-0.143,4.702l0.557,0.135l4.395-17.894
				l0.025-0.105l-0.035-0.106L229.342,140.252z M268.816,151.047c1.615-4.226,3.232-8.45,4.769-12.707l-0.4-0.155
				c-0.892,0.892-1.667,1.827-2.416,2.773c-0.721,0.957-1.448,1.912-2.075,2.905l-0.979,1.477l-0.881,1.513
				c-0.596,1.007-1.179,2.017-1.697,3.053l-0.941,1.876l1.916,2.014c2.504,2.634,5.188,5.057,8.025,7.302l-0.361,1.136
				c-0.329,1.344-0.71,2.666-0.997,4.027c-0.263,1.371-0.554,2.73-0.712,4.147c-0.205,1.397-0.309,2.837-0.313,4.319l0.395,0.17
				c2.274-4.964,4.426-9.979,6.615-14.979l0.113-0.261l-0.22-0.193C275.413,156.615,272.115,153.83,268.816,151.047z
				 M249.179,77.738l9.307-26.49L249,57.652l-7.104,23.24l-1.061,5.101l4.639-1.524l10.411-3.423l-6.15,33.567l10.925-36.187
				l0.992-3.29l-3.596,0.75L249.179,77.738z"/>
		</g>
	</g>
	<g id="&#x424;&#x438;&#x433;&#x443;&#x440;&#x430;_187_&#x43A;&#x43E;&#x43F;&#x438;&#x44F;_2">
		<g>
			<path style="fill-rule:evenodd;clip-rule:evenodd;fill:#F2D3C7;" d="M388.699,296.887c10.006,5.865,23.615,16.158,23.615,16.158
				s1.026-28.66-39.765-36.003c-29.911-5.384-25.182-25.961-25.182-25.961l2.181-1.774c6.572-0.604,14.385-2.846,23.636-7.709
				c38.772-20.385,39.222-53.218,37.5-55.955c-0.356-0.566-3.791-0.293-8.992,0.294l1.488-2.938c0,0,6.263-50.059-36.051-65.742
				c-40.533-15.022-73.745,26.328-75.735,29.64c-6.778,6.853-12.735,20.946-27.448,9.297c-6.442-5.101-8.093-24.979-8.093-24.979
				s10.555-1.437,16.816-13.576c5.019-9.733,1.512-25.017,1.512-25.017s-5.366,19.343-23.202,19.343
				c-17.835,0-22.602-19.343-22.602-19.343s-3.507,15.283,1.512,25.017c6.261,12.14,16.816,13.576,16.816,13.576
				s-1.288,20.374-8.093,24.979c-15.174,10.266-18.086,0.938-28.217-6.93c-1.989-3.312-34.433-47.029-74.967-32.007
				c-42.313,15.684-36.051,65.742-36.051,65.742l0.985,2.882c-4.918-0.547-8.143-0.785-8.488-0.237
				c-1.722,2.737-1.272,35.57,37.5,55.955c10.186,5.355,18.642,7.549,25.6,7.854l0.862,1.629c0,0,10.603,23.651-19.308,29.036
				c-40.792,7.343-38.135,30.621-38.135,30.621s7.582-6.603,17.588-12.468c11.316-6.634,23.988-6.69,23.988-6.69
				s-10.135,5.96-16.118,11.226c-6.309,5.552-10.82,14.206-10.82,14.206s7.571-5.352,14.049-8.246
				c4.843-2.164,9.075-2.087,9.075-2.087s-20.157,9.461-23.072,29.475c-3.73,25.616,2.868,28.368,2.868,28.368
				s-0.396-9.417,8.401-25.077c5.577-9.926,13.74-13.3,13.74-13.3s-10.187,18.43-1.675,25.313
				c17.33,14.016,29.259-5.418,29.259-5.418s5.827-10.578,8.615-0.77c5.314,18.69-7.385,23.372-7.385,23.372
				s7.586-0.528,16.773-9.466c8.262-8.039,1.677-22.484,1.677-22.484s8.021-1.738,11.987,12.8
				c4.113,15.079-3.111,14.471-19.274,24.316c-12.823,7.811-7.965,25.861-7.965,25.861s1.646-6.229,5.186-12.22
				c2.756-4.665,6.93-6.046,6.93-6.046s-3.771,11.953-0.175,20.781c3.631,8.915,14.628,14.705,14.628,14.705
				s-8.454-10.554-1.686-29.071c4.636-12.687,13.494-13.242,13.494-13.242s-7.169,12.358-4.855,21.255
				c4.014,15.428,18.324,19.306,18.324,19.306s-1.052-10.383-1.441-16.277c-0.616-9.335,12.573-13.274,12.573-13.274
				s-10.121,11.809,11.741,28.46c8.747,6.662,5.788,21.787,5.788,21.787s7.867-2.526,15.228-12.62
				c4.682-6.421,2.393-18.469,2.393-18.469s6.903-8.918,13.33-1.876c6.428,7.042,14.003,8.392,18.018-7.036
				c2.314-8.896-4.855-21.255-4.855-21.255s8.858,0.556,13.494,13.242c6.768,18.518-1.686,29.071-1.686,29.071
				s10.997-5.79,14.628-14.705c3.596-8.828-0.176-20.781-0.176-20.781s4.174,1.381,6.931,6.046c3.54,5.991,5.186,12.22,5.186,12.22
				s4.858-18.051-7.965-25.861c-16.164-9.846-23.387-9.237-19.274-24.316c3.966-14.538,12.325-13.691,12.325-13.691
				s-4.31,14.938,3.953,22.976c9.187,8.938,16.342,9.497,16.342,9.497s-13.744-7.449-8.43-26.14
				c2.788-9.809,12.182,3.999,12.182,3.999s15.225,14.423,20.464-0.025c2.489-6.865-6.042-25.775-6.042-25.775
				s18.526,6.91,20.197,16.898c2.965,17.716,1.882,26.338,1.882,26.338s14.317-3.675,10.588-29.291
				c-2.915-20.013-22.272-27.599-22.272-27.599s4.232-0.077,9.075,2.087c6.478,2.895,21.645,9.66,21.645,9.66
				s-1.897-8.009-8.206-13.56c-5.983-5.266-23.99-9.504-23.99-9.504S377.383,290.253,388.699,296.887z"/>
		</g>
	</g>
	<g id="&#x424;&#x438;&#x433;&#x443;&#x440;&#x430;_196">
		<g>
			<path style="fill-rule:evenodd;clip-rule:evenodd;fill:#C0A4A0;" d="M149.956,186.971c-21.639,7.398-54.639-1.082-54.639-1.082
				l6.928,8.123c0,0,19.049,3.431,30,6.611c10.136,2.944,18.635,11.905,27.782,11.441c13.266-0.672,24.718-9.139,25.329-19.533
				C185.561,189.053,178.757,177.123,149.956,186.971z M229.638,289.213c0,0-0.602-25.329-14.09-27.138
				c-31.117-4.173-30.376-10.317-30.376-10.317s-4.907,28.198,1.139,45.753c5.351,15.532,21.924,24.913,21.924,24.913
				s2.297-9.6,7.819-18.168C221.222,296.236,229.638,289.213,229.638,289.213z M225.209,211.72c0,0-2.21-22.928,25.096-23.389
				c27.308-0.462,25.827,23.204,25.827,23.204s9.207-15.047,19.752-20.107c7.291-3.501,18.626,2.579,18.626,2.579
				s-6.961-10.722-23.226-16.585c-15.449-5.568-40.245-6.293-40.245-6.293s-18.436-1.79-31.113,2.619
				c-12.784,4.446-19.811,15.093-19.811,15.093s9.405,3.701,16.069,9.777C222.011,203.93,225.209,211.72,225.209,211.72z
				 M352.125,187.708c-28.802-9.847-35.605,2.083-35.4,5.562c0.611,10.395,12.063,18.861,25.329,19.533
				c9.146,0.463,17.646-8.497,27.781-11.441c10.951-3.182,30.001-6.611,30.001-6.611l6.928-8.123
				C406.764,186.627,373.763,195.106,352.125,187.708z M287.701,262.749c-14.668-0.254-15.857,26.464-15.857,26.464
				s8.415,7.023,13.583,15.043c5.522,8.568,7.819,18.168,7.819,18.168s16.574-9.381,21.924-24.913
				c6.047-17.555,1.139-45.753,1.139-45.753S306.092,263.068,287.701,262.749z M251.571,333.217
				c-19.833,0-36.924-19.659-36.924-3.113s16.077,29.959,35.909,29.959c19.833,0,35.909-13.413,35.909-29.959
				S271.402,333.217,251.571,333.217z"/>
		</g>
	</g>
	<g id="&#x424;&#x438;&#x433;&#x443;&#x440;&#x430;_195">
		<g>
			<path style="fill-rule:evenodd;clip-rule:evenodd;fill:#645B76;" d="M359.748,223.344c-20.706,8.582-32.188,2.859-33.969-4.983
				c0.017-1.279,0.013-2.739-0.029-4.303c0.426-2.078,1.465-4.152,3.152-6.028c0-12.546,17.712-21.402,17.712-21.402
				c-14.53-7.011-30.997,3.69-30.997,3.69s0.594,0.462,1.357,1.371c-0.674-0.153-1.342-0.247-1.973-0.302
				c-2.775-4.897-8.699-12.543-20.283-17.319c-15.48-6.382-45.154-5.891-45.154-5.891s-20.215-1.93-34.036,3.789
				c-12.576,5.204-22.431,14.421-27.138,19.384c-0.889-0.05-2.142-0.053-3.498,0.147c0.686-0.786,1.2-1.18,1.2-1.18
				s-16.467-10.701-30.997-3.69c0,0,17.712,8.856,17.712,21.402c1.031,1.146,1.81,2.368,2.369,3.618
				c-0.184,3.57-0.144,6.81-0.069,8.999c-3.353,6.562-14.519,10.418-33.146,2.697c-24.978-10.353-45.309-33.58-50.706-36.578
				c4.382,18.773,29.542,39.256,42.037,44.524c13.238,5.581,35.045,6.884,35.045,6.884l-9.553,12.661c0,0,12.802-2.506,20.117-8.366
				c-1.304,8.975-4.088,33.767,1.543,52.79c6.645,22.447,25.712,32.516,25.712,32.516s0.27-0.97,0.785-2.576
				c-1.207,8.119-1.193,17.657,3.693,26.354c5.321,9.471,19.715,8.505,21.543,10.954c6.213,8.325,15.524,10.141,19.499,10.104
				c3.694-0.033,12.863-3.722,17.945-10.149c1.456-1.843,17.441-2.588,21.652-10.909c4.062-8.026,4.783-16.408,4.002-23.933
				c2.305-1.301,19.247-11.458,25.434-32.36c5.744-19.403,2.733-44.809,1.467-53.309c7.183,6.233,20.746,8.885,20.746,8.885
				l-9.553-12.661c0,0,21.808-1.303,35.046-6.884c12.495-5.269,37.654-25.751,42.037-44.524
				C405.057,189.764,384.726,212.991,359.748,223.344z M309.378,257.71c-4.508,4.234-10.827,3.043-10.827,3.043
				s17.71,4.099,15.449,22.088c-2.26,17.989-12.959,26.299-12.959,26.299l-28.783-19.927c0,0,7.555,6.515,13.511,16.498
				c-1.304,3.714-3.187,10.063-3.479,16.497c-0.46,10.047,0.888,14.229-1.418,18.195c-2.307,3.967-15.17,13.754-17.322,13.4
				s-12.678-6.889-12.678-6.889s-8.92,7.044-12.508,6.889c-3.89-0.17-15.016-9.434-17.322-13.4
				c-2.307-3.967-0.958-8.148-1.418-18.195c-0.316-6.906-2.464-13.729-3.76-17.282c5.875-9.539,13.036-15.713,13.036-15.713
				l-28.783,19.927c0,0-10.699-8.31-12.959-26.299c-2.26-17.989,15.45-22.088,15.45-22.088s-6.319,1.191-10.827-3.043
				c-5.26-4.941-9.51-12.858-11.346-16.597c2.244-2.23,3.65-4.88,3.421-7.989c-0.311-4.216-1.491-7.986-2.228-9.998
				c-0.028-0.307-0.071-0.786-0.121-1.4c4.067-0.855,9.378-1.355,13.643,0.401c10.449,4.302,17.743,16.9,17.743,16.9
				c-2.398-30.675-11.532-29.798-21.08-28.322c-3.515-5.904-2.906-13.964-2.417-17.473c9.742-3.506,35.635-11.977,60.888-12.957
				c20.319-0.79,49.19,9.068,61.233,13.576c0.463,3.77,0.827,11.271-2.496,16.854c-9.549-1.476-18.682-2.353-21.08,28.322
				c0,0,7.295-12.599,17.743-16.9c4.569-1.882,10.352-1.178,14.505-0.216c-0.043,0.52-0.08,0.942-0.105,1.215
				c-0.736,2.012-1.917,5.782-2.229,9.998c-0.216,2.934,1.03,5.455,3.055,7.604C319.195,244.272,314.833,252.586,309.378,257.71z"/>
		</g>
	</g>
	<g id="&#x424;&#x438;&#x433;&#x443;&#x440;&#x430;_188">
		<g>
			<path style="fill-rule:evenodd;clip-rule:evenodd;fill:#8BE4F8;" d="M250.794,188.503l-16.021,37.762l18.789-6.365l-3.167,24.908
				l17.773-36.624l-18.173,3.044L250.794,188.503z M262.909,156.673c-7.273-6.879-6.333-23.922-6.333-23.922
				s11.188-4.406,14.875-12.7c4.974-11.192,1.638-25.815,1.638-25.815s-7.358,19.433-22.303,19.433
				c-14.945,0-23.04-20.286-23.04-20.286s-3.03,15.162,1.422,25.228c4.012,9.071,15.967,13.035,15.967,13.035
				s-1.749,20.872-9.727,27.024c-7.306,5.634-20.901-3.408-20.901-3.408s0.116,11.578,8.142,16.444s10.705,6.543,16.59,5.089
				c7.594-1.877,11.824-6.403,11.824-6.403l5.881,4.059c0,0,11.821,2.464,18.901-1.706c6.35-3.74,8.037-14.161,8.037-14.161
				S269.222,162.645,262.909,156.673z"/>
		</g>
	</g>
	<g id="&#x424;&#x438;&#x433;&#x443;&#x440;&#x430;_191">
		<g>
			<path style="fill-rule:evenodd;clip-rule:evenodd;fill:#492646;" d="M279.601,318.499c-1.464-15.81-23.456-0.565-29.298-0.504
				c-5.843,0.062-23.898-14.581-28.099-1.482c-4.422,13.787,8.419,19.756,18.299,24.763c5.664,2.871,10.292,7.717,10.292,7.717
				s6.221-5.308,14.739-9.513C274.272,335.164,280.489,328.096,279.601,318.499z"/>
		</g>
	</g>
	<g id="&#x424;&#x438;&#x433;&#x443;&#x440;&#x430;_191_&#x43A;&#x43E;&#x43F;&#x438;&#x44F;">
		<g>
			<path style="fill-rule:evenodd;clip-rule:evenodd;fill:#C1727A;" d="M279.601,318.499c-1.464-15.81-23.456-0.565-29.298-0.504
				c-5.843,0.062-23.898-14.581-28.099-1.482c-0.552,1.721-0.834,3.319-0.888,4.81c3.748-1.542,7.878-2.211,11.474-0.376
				c5.125,2.616,12.02,6.788,18.549,6.527c6.322-0.253,13.101-2.65,19.259-5.675c3.277-1.608,6.307-1.086,8.969,0.493
				C279.699,321.074,279.723,319.813,279.601,318.499z"/>
		</g>
	</g>
	<g id="&#x424;&#x438;&#x433;&#x443;&#x440;&#x430;_192">
		<g>
			<path style="fill-rule:evenodd;clip-rule:evenodd;fill:#3E2225;" d="M235.949,323.287c-4.12-2.367-8.445-2.571-9.661-0.455
				c-1.215,2.115,1.139,5.75,5.259,8.116c4.12,2.367,8.445,2.571,9.661,0.455C242.424,329.288,240.069,325.654,235.949,323.287z
				 M274.852,322.832c-1.217-2.116-5.541-1.912-9.661,0.455s-6.475,6.001-5.259,8.116c1.215,2.116,5.54,1.912,9.66-0.455
				C273.712,328.582,276.066,324.947,274.852,322.832z"/>
		</g>
	</g>
	<g id="&#x424;&#x438;&#x433;&#x443;&#x440;&#x430;_189">
		<g>
			<path style="fill-rule:evenodd;clip-rule:evenodd;fill:#984492;" d="M200.526,224.045c-8.147-5.185-20.336-0.517-20.336-0.517
				s0.375,14.582,7.025,20.511c10.671,9.512,25.448,0.154,25.448,0.154S208.615,229.192,200.526,224.045z M302.168,222.94
				c-9.891,4.908-13.089,22.544-13.089,22.544s13.925,5.188,23.134-0.229c7.295-4.291,9.432-21.234,9.432-21.234
				S312.601,217.762,302.168,222.94z"/>
		</g>
	</g>
	<g id="&#x424;&#x438;&#x433;&#x443;&#x440;&#x430;_189_&#x43A;&#x43E;&#x43F;&#x438;&#x44F;">
		<g>
			<path style="fill-rule:evenodd;clip-rule:evenodd;fill:#592955;" d="M200.526,224.045c-8.147-5.185-20.336-0.517-20.336-0.517
				s1.648,20.625,14.429,14.122c11.572-5.889,18.044,6.543,18.044,6.543S208.615,229.192,200.526,224.045z M302.168,222.94
				c-9.891,4.908-13.089,22.544-13.089,22.544s7.099-14.087,19.306-9.386c11.525,4.438,13.26-12.078,13.26-12.078
				S312.601,217.762,302.168,222.94z"/>
		</g>
	</g>
	<g id="&#x424;&#x438;&#x433;&#x443;&#x440;&#x430;_190">
		<g>
			<path style="fill-rule:evenodd;clip-rule:evenodd;fill:#D7DBFF;" d="M197.872,221.868c-4.5,0-8.149,3.455-8.149,7.718
				s3.648,7.719,8.149,7.719c4.501,0,8.149-3.456,8.149-7.719S202.373,221.868,197.872,221.868z M304.039,222.514
				c-3.744,0-6.78,3.091-6.78,6.903s3.036,6.903,6.78,6.903c3.746,0,6.781-3.091,6.781-6.903S307.785,222.514,304.039,222.514z"/>
		</g>
	</g>
	<g id="&#x424;&#x438;&#x433;&#x443;&#x440;&#x430;_194">
		<g>
			<path style="fill-rule:evenodd;clip-rule:evenodd;fill:#C1727A;" d="M133.092,118.472
				c-37.793,13.796-34.823,66.633-34.823,66.633l26.569,2.999c0,0-1.65-23.159,18.768-31.063
				c20.881-8.082,31.418,7.445,31.418,7.445s18.722,1.973,27.977-0.995c10.252-3.289,11.139-11.552,11.139-11.552
				S176.876,102.489,133.092,118.472z M368.204,118.472c-43.784-15.982-81.047,33.468-81.047,33.468s0.888,8.263,11.14,11.552
				c9.254,2.968,27.976,0.995,27.976,0.995s10.538-15.527,31.419-7.445c20.417,7.903,18.767,31.063,18.767,31.063l26.569-2.999
				C403.027,185.104,405.998,132.268,368.204,118.472z"/>
		</g>
	</g>
	<g id="&#x424;&#x438;&#x433;&#x443;&#x440;&#x430;_194_&#x43A;&#x43E;&#x43F;&#x438;&#x44F;">
		<g>
			<path style="fill-rule:evenodd;clip-rule:evenodd;fill:#67314D;" d="M155.803,134.118c-3.667-6.527-11.775-5.519-16.826,0.132
				c-11.439-4.151-14.207,2.811-17.369,7.171c-13.607-0.6-20.864,12.289-21.717,20.385c-0.854,8.095-0.791,23.299-0.791,23.299
				l26.568,2.999c0,0-1.65-23.159,18.768-31.063c20.881-8.082,31.418,7.445,31.418,7.445l15.36-5.42
				C191.214,159.066,175.222,131.073,155.803,134.118z M402.236,161.806c-0.854-8.096-8.11-20.984-21.718-20.385
				c-3.162-4.36-5.93-11.322-17.369-7.171c-5.051-5.65-13.159-6.659-16.825-0.132c-19.42-3.045-35.412,24.948-35.412,24.948
				l15.36,5.42c0,0,10.538-15.527,31.419-7.445c20.417,7.903,18.767,31.063,18.767,31.063l26.569-2.999
				C403.027,185.104,403.09,169.9,402.236,161.806z"/>
		</g>
	</g>
	<g id="&#x424;&#x438;&#x433;&#x443;&#x440;&#x430;_187_&#x43A;&#x43E;&#x43F;&#x438;&#x44F;_3">
		<g>
			<path style="fill-rule:evenodd;clip-rule:evenodd;fill:#B0ACB1;" d="M275.718,175.096c11.142-5.331,26.154,12.315,35.103,15.222
				s18.174-7.703,23.986-7.427c5.812,0.277,16.113,5.578,29.856,7.003c9.047,0.938,14.793-3.267,14.793-3.267
				s-8.651-24.98-21.059-30.171c-17.009-7.116-28.389,6.555-28.389,6.555s-0.09-12.007-13.329-14.587
				c-11.529-2.248-26.57,4.393-26.57,4.393s0.156,14.192-20.035,19.104c-9.361,2.277-14.448,1.509-14.448,1.509
				S265.039,180.205,275.718,175.096z M388.699,296.887c10.006,5.865,23.615,16.158,23.615,16.158s1.026-28.66-39.765-36.003
				c-24.781-4.461-25.784-19.339-25.399-24.315c-2.607-0.081-5.141-0.393-7.254-1.083c-9.591-3.132-17.268-8.927-17.268-8.927
				s3.523,31.559-3.814,55.037c-5.205,16.658-22.017,27.622-22.017,27.622s-0.257,18.676-6.726,27.243
				c-7.15,9.47-20.582,8.92-20.582,8.92s-2.57,9.29-16.254,10.241c-13.654,0.949-19.909-9.503-19.909-9.503
				s-14.39-0.149-20.097-7.244c-7.656-9.519-7.21-26.705-7.21-26.705s-20.123-12.047-24.987-30.288
				c-6.658-24.967,1.37-58.275,1.37-58.275s-5.839,5.057-14.452,8.22c-3.877,1.425-8.226,2.528-12.014,3.341
				c1.008,2.485,8.738,23.725-19.411,28.792c-40.792,7.343-38.135,30.621-38.135,30.621s7.582-6.603,17.588-12.468
				c11.316-6.634,23.988-6.69,23.988-6.69s-10.135,5.96-16.118,11.226c-6.309,5.552-10.82,14.206-10.82,14.206
				s7.571-5.352,14.049-8.246c4.843-2.164,9.075-2.087,9.075-2.087s-20.157,9.461-23.072,29.475
				c-3.73,25.616,2.868,28.368,2.868,28.368s-0.396-9.417,8.401-25.077c5.577-9.926,13.74-13.3,13.74-13.3
				s-10.187,18.43-1.675,25.313c17.33,14.016,29.259-5.418,29.259-5.418s5.827-10.578,8.615-0.77
				c5.314,18.69-7.385,23.372-7.385,23.372s7.586-0.528,16.773-9.466c8.262-8.039,1.677-22.484,1.677-22.484
				s8.021-1.738,11.987,12.8c4.113,15.079-3.111,14.471-19.274,24.316c-12.823,7.811-7.965,25.861-7.965,25.861
				s1.646-6.229,5.186-12.22c2.756-4.665,6.93-6.046,6.93-6.046s-3.771,11.953-0.175,20.781
				c3.631,8.915,14.628,14.705,14.628,14.705s-8.454-10.554-1.686-29.071c4.636-12.687,13.494-13.242,13.494-13.242
				s-7.169,12.358-4.855,21.255c4.014,15.428,18.324,19.306,18.324,19.306s-1.052-10.383-1.441-16.277
				c-0.616-9.335,12.573-13.274,12.573-13.274s-10.121,11.809,11.741,28.46c8.747,6.662,5.788,21.787,5.788,21.787
				s7.867-2.526,15.228-12.62c4.682-6.421,2.393-18.469,2.393-18.469s6.903-8.918,13.33-1.876
				c6.428,7.042,14.003,8.392,18.018-7.036c2.314-8.896-4.855-21.255-4.855-21.255s8.858,0.556,13.494,13.242
				c6.768,18.518-1.686,29.071-1.686,29.071s10.997-5.79,14.628-14.705c3.596-8.828-0.176-20.781-0.176-20.781
				s4.174,1.381,6.931,6.046c3.54,5.991,5.186,12.22,5.186,12.22s4.858-18.051-7.965-25.861
				c-16.164-9.846-23.387-9.237-19.274-24.316c3.966-14.538,12.325-13.691,12.325-13.691s-4.31,14.938,3.953,22.976
				c9.187,8.938,16.342,9.497,16.342,9.497s-13.744-7.449-8.43-26.14c2.788-9.809,12.182,3.999,12.182,3.999
				s15.225,14.423,20.464-0.025c2.489-6.865-6.042-25.775-6.042-25.775s18.526,6.91,20.197,16.898
				c2.965,17.716,1.882,26.338,1.882,26.338s14.317-3.675,10.588-29.291c-2.915-20.013-22.272-27.599-22.272-27.599
				s4.232-0.077,9.075,2.087c6.478,2.895,21.645,9.66,21.645,9.66s-1.897-8.009-8.206-13.56c-5.983-5.266-23.99-9.504-23.99-9.504
				S377.383,290.253,388.699,296.887z M159.249,184.874c13.1-6.135,22.51,3.967,22.51,3.967s10.875,2.104,19.117-2.173
				c7.588-3.938,13.668-13.655,20.367-11.296c20.799,7.325,25.417-1.951,25.417-1.951s-11.834,0.313-21.613-3.308
				c-9.779-3.621-13.951-16.144-13.951-16.144s-10.124-10.685-28.942-4.404c-13.212,4.409-5.652,11.23-5.652,11.23
				s-16.224-11.759-33.752-5.19c-14.561,5.456-18.694,32.036-18.694,32.036S146.148,191.009,159.249,184.874z"/>
		</g>
	</g>
	<g id="&#x424;&#x438;&#x433;&#x443;&#x440;&#x430;_187_&#x43A;&#x43E;&#x43F;&#x438;&#x44F;_4">
		<g>
			<path style="fill-rule:evenodd;clip-rule:evenodd;fill:#748AB7;" d="M316.279,187.935c7.726-1.442,15.383-5.193,18.527-5.044
				c5.812,0.277,16.113,5.578,29.856,7.003c9.047,0.938,14.793-3.267,14.793-3.267s-8.651-24.98-21.059-30.171
				c-17.009-7.116-28.389,6.555-28.389,6.555l-13.054,5.547c0,0,3.264,4.938,0.312,10.104c-2.952,5.166-14.564,9.441-14.564,9.441
				S309.721,189.16,316.279,187.935z M347.15,252.727c-2.607-0.081-5.141-0.393-7.254-1.083c-9.591-3.132-17.268-8.927-17.268-8.927
				s3.523,31.559-3.814,55.037c-5.205,16.658-22.017,27.622-22.017,27.622s-0.257,18.676-6.726,27.243
				c-7.15,9.47-20.582,8.92-20.582,8.92s-2.57,9.29-16.254,10.241c-13.654,0.949-19.909-9.503-19.909-9.503
				s-14.39-0.149-20.097-7.244c-7.656-9.519-7.21-26.705-7.21-26.705s-20.123-12.047-24.987-30.288
				c-6.658-24.967,1.37-58.275,1.37-58.275s-5.839,5.057-14.452,8.22c-3.877,1.425-8.226,2.528-12.014,3.341
				c0.623,1.534,3.796,10.215-0.481,17.827c2.261,3.035,4.46,7.531,6.336,14.153c5.279,18.634,1.253,17.431-6.695,21.405
				c-10.333,5.166-16.237,20.665-16.237,20.665s22.91-23.397,32.413-19.027c2.216,1.02-3.042,5.538-3.92,11.382
				c-1.259,8.386,4.718,21.668,4.718,21.668s-0.856-14.383,4.94-14.812c3.688-0.273,7.671,5.986,10.706,12.233
				c2.682,0.611,7.022,3.127,9.625,12.672c4.113,15.079-3.111,14.471-19.274,24.316c-12.823,7.811-7.965,25.861-7.965,25.861
				s1.646-6.229,5.186-12.22c2.756-4.665,6.93-6.046,6.93-6.046s-3.771,11.953-0.175,20.781
				c3.631,8.915,14.628,14.705,14.628,14.705s-8.454-10.554-1.686-29.071c4.636-12.687,13.494-13.242,13.494-13.242
				s-7.169,12.358-4.855,21.255c4.014,15.428,18.324,19.306,18.324,19.306s-1.052-10.383-1.441-16.277
				c-0.616-9.335,12.573-13.274,12.573-13.274s-10.121,11.809,11.741,28.46c8.747,6.662,5.788,21.787,5.788,21.787
				s7.867-2.526,15.228-12.62c4.682-6.421,2.393-18.469,2.393-18.469s6.903-8.918,13.33-1.876
				c6.428,7.042,14.003,8.392,18.018-7.036c2.314-8.896-4.855-21.255-4.855-21.255s8.858,0.556,13.494,13.242
				c6.768,18.518-1.686,29.071-1.686,29.071s10.997-5.79,14.628-14.705c3.596-8.828-0.176-20.781-0.176-20.781
				s4.174,1.381,6.931,6.046c3.54,5.991,5.186,12.22,5.186,12.22s4.858-18.051-7.965-25.861
				c-16.164-9.846-23.387-9.237-19.274-24.316c1.958-7.18,4.987-10.6,7.553-12.23c3.061-6.39,7.144-12.954,10.918-12.675
				c5.796,0.429,4.94,14.812,4.94,14.812s5.977-13.282,4.718-21.668c-0.878-5.844-6.136-10.362-3.919-11.382
				c6.738-3.099,20.21,7.76,27.482,14.342c0.791,0.325,2.05,0.868,3.57,1.61c-2.291-4.784-7.424-13.863-14.877-17.59
				c-8.055-4.027-15.082-17.296-10.002-25.629c2.053-3.369,0.658,9.555,10.11,16.272c4.208,2.991,13.059,2.468,18.226,1.483
				c3.197,0-12.783-3.649-15.414-8.202c-2.396-4.146,1.504-13.256,7.654-9.073c5.254,3.572,12.84,4.468,19.388-1.78
				c-1.181-0.266-2.399-0.514-3.658-0.74C347.769,272.581,346.766,257.703,347.15,252.727z M181.758,188.841l19.117-2.173
				c0,0-14.288-0.255-15.588-7.536c-1.015-5.684,2.789-9.02,2.789-9.02l-11.576-9.316c0,0-16.224-11.759-33.752-5.19
				c-14.561,5.456-18.694,32.036-18.694,32.036s22.095,3.367,35.195-2.768C172.348,178.739,181.758,188.841,181.758,188.841z"/>
		</g>
	</g>
	<g id="&#x424;&#x438;&#x433;&#x443;&#x440;&#x430;_193">
		<g>
			<path style="fill-rule:evenodd;clip-rule:evenodd;fill:#4E659F;" d="M299.012,377.775c0,0-0.974-1.366-2.645-2.932
				C297.379,376.83,299.012,377.775,299.012,377.775z M158.418,262.229c0,0,6.71-0.569,11.626,7.397
				c5.223,8.462,8.67,25.491,8.67,25.491l1.476-50.924l-20.665,5.903L158.418,262.229z M149.193,170.391
				c-6.643,6.642-15.499,9.595-21.403,0.738c-2.952,8.856-3.69,14.76-3.69,14.76s8.844,7.579,27.321-0.25
				c12.885-5.459,31.537,2.603,31.537,2.603l-8.395-16.144C174.563,172.098,157.311,181.461,149.193,170.391z M374.844,171.129
				c-5.904,8.856-14.761,5.903-21.402-0.738c-8.119,11.07-25.369,1.707-25.369,1.707l-8.396,16.144c0,0,18.651-8.062,31.536-2.603
				c18.478,7.829,27.321,0.25,27.321,0.25S377.796,179.985,374.844,171.129z M321.152,241.241l1.938,37.178
				c0,0,5.982-7.896,12.646-10.793c6.383-2.774,13.461-0.555,13.461-0.555l-3.689-16.236
				C345.508,250.835,330.84,252.034,321.152,241.241z M315.986,309.14l-21.033,18.404c0,0,3.51,13.731-3.678,23.932
				c-6.154,8.736-22.522,11.539-22.522,11.539s-9.634,10.082-18.515,9.727c-9.545-0.382-18.386-11.202-18.386-11.202
				s-15.363-0.587-20.667-7.764c-7.003-9.475-4.426-26.186-4.426-26.186l-18.451-14.761c9.364,8.303,3.69,23.617,3.69,23.617
				s6.643,18.45,2.952,27.307c8.856-3.69,12.546,13.284,12.546,13.284s14.713-5.867,20.85-3.413c6.75,2.7,0.184,17.066,0.184,17.066
				s31.499-13.338,29.272-3.335c-5.903,26.505,19.807,13.299,19.807,13.299s-3.566-24.534,3.027-28.617
				c6.559-4.061,12.473-0.247,15.73,2.807c-1.069-2.101-1.442-5.367,1.57-9.95c1.963-2.986,12.422,1.488,12.422,1.488
				s-9.272-4.468-6.182-16.18c3.692-13.995,11.348-12.465,11.348-12.465s-5.69-6.148-4.414-12.688
				C312.742,316.687,315.986,309.14,315.986,309.14z"/>
		</g>
	</g>
	
		<g id="&#x417;&#x430;&#x43B;&#x438;&#x432;&#x43A;&#x430;_&#x446;&#x432;&#x435;&#x442;&#x43E;&#x43C;_128_&#x43A;&#x43E;&#x43F;&#x438;&#x44F;">
		<g>
			<path style="fill-rule:evenodd;clip-rule:evenodd;fill:#435788;" d="M262.896,178.86c2.99,1.01,6.475,1.137,9.684,0.133
				c0.797-0.252,1.578-0.562,2.328-0.921c0.378-0.177,0.744-0.374,1.104-0.582l0.945-0.565c0.82-0.447,1.639-0.642,2.623-0.564
				c1.982,0.142,4.428,1.288,6.848,2.545c4.906,2.569,9.971,5.755,15.347,8.243c2.698,1.201,5.603,2.295,8.761,2.245
				c1.567,0.041,3.166-0.395,4.574-0.805c1.445-0.435,2.877-0.985,4.272-1.673c2.778-1.376,5.378-3.461,7.249-6.149
				c1.885-2.679,2.961-5.836,3.518-8.913c0.282-1.523,0.447-3.126,0.585-4.489c0.058-0.448,0.169-0.908,0.306-1.406
				c0.244-0.139,0.486-0.27,0.73-0.412c0.257-0.151,0.523-0.342,0.754-0.551c1.822-1.651,1.959-4.468,0.307-6.29
				c-0.383-0.422-0.832-0.744-1.313-0.984c-0.04-0.103-0.074-0.211-0.117-0.311c-0.863-1.964-2.098-3.294-3.295-4.434
				c-1.215-1.133-2.474-2.064-3.75-2.916c-0.635-0.431-1.277-0.836-1.931-1.214c-0.429-0.255-0.596-0.356-1.041-0.6
				c-0.396-0.222-0.759-0.398-1.133-0.581c-2.999-1.452-6.358-2.042-9.548-1.912c-3.205,0.151-6.249,0.966-9.02,2.201
				c-2.77,1.246-5.32,2.83-7.51,4.86c-0.09,0.083-0.121,0.216-0.07,0.335c0.064,0.151,0.238,0.222,0.391,0.156l0.02-0.009
				c5.26-2.254,10.9-3.626,16.072-3.051c2.578,0.257,4.969,1.086,7.079,2.335c0.962,0.558,2.084,1.484,3.146,2.32
				c1.05,0.855,2.056,1.724,2.921,2.593c0.67,0.677,1.236,1.365,1.604,1.964c-1.945,1.694-4.031,3.364-6.126,4.89
				c-2.562,1.843-5.161,3.542-7.921,4.689c-2.701,1.153-5.732,1.801-8.746,1.38c-2.998-0.408-6.027-1.896-8.199-4.384
				c1.521,2.939,4.266,5.351,7.578,6.662c3.338,1.325,7.083,1.474,10.674,0.879c3.564-0.628,6.846-1.951,9.982-3.32
				c0.791-0.355,1.57-0.717,2.344-1.086c-0.033,0.638-0.077,1.259-0.145,1.89c-0.277,2.622-0.893,5.107-2.007,7.377
				c-1.097,2.271-2.774,4.312-4.948,5.895c-1.077,0.802-2.271,1.481-3.531,2.044c-1.288,0.604-2.502,0.979-3.834,1.085
				c-2.651,0.187-5.388-0.684-7.828-2.03c-4.97-2.715-8.783-7.077-13.663-10.619c-1.234-0.882-2.55-1.714-4.036-2.403
				c-1.482-0.679-3.154-1.244-5.065-1.335c-1.897-0.102-4.013,0.415-5.632,1.522l-0.875,0.604c-0.254,0.173-0.514,0.336-0.773,0.495
				c-0.523,0.318-1.064,0.6-1.622,0.841c-4.423,2.079-10.113,1.275-15.336-1.104l-0.023-0.011c-0.104-0.047-0.23-0.031-0.321,0.05
				c-0.124,0.109-0.134,0.298-0.024,0.421C257.262,176.151,259.887,177.87,262.896,178.86z M336.753,161.815
				c2.507,0.457,9.526,2.511,11.868,6.474c3.638,6.151,1.541,16.437,1.52,16.539c-0.25,1.196,0.515,2.37,1.711,2.622
				c0.155,0.032,0.308,0.047,0.459,0.047c1.023,0,1.942-0.713,2.163-1.755c0.103-0.489,2.479-12.063-2.041-19.706
				c-3.84-6.497-14.438-8.495-14.888-8.576c-1.195-0.22-2.354,0.577-2.574,1.78C334.752,160.443,335.549,161.597,336.753,161.815z
				 M209.473,154.501c0.107,0.604,0.208,0.909,0.327,1.33c0.118,0.391,0.246,0.769,0.38,1.141c0.272,0.743,0.577,1.462,0.913,2.161
				c0.672,1.398,1.477,2.721,2.398,3.947c0.927,1.225,1.976,2.348,3.126,3.332c0.584,0.492,1.164,0.936,1.828,1.388
				c0.569,0.362,1.247,0.796,1.885,1.127c2.605,1.375,5.313,2.148,8.013,2.681c2.701,0.517,6.149,1.245,8.848,1.272
				c-2.626-0.598-5.916-1.887-8.345-2.922c-2.417-1.04-4.728-2.313-6.603-3.902c-0.484-0.401-0.867-0.791-1.327-1.285
				c-0.359-0.415-0.75-0.899-1.091-1.378c-0.683-0.97-1.248-2.006-1.701-3.08c-0.447-1.078-0.787-2.193-1.014-3.321
				c-0.112-0.563-0.197-1.129-0.252-1.686c-0.026-0.278-0.046-0.555-0.056-0.822c-0.006-0.237-0.016-0.593,0.019-0.656
				c0.433-0.793,0.611-1.737,0.441-2.697c-0.398-2.245-2.54-3.744-4.786-3.346c-2.246,0.396-3.744,2.54-3.346,4.785L209.473,154.501
				z M281.939,168.914c2.594-1.359,4.992-3.38,6.828-5.835c0.922-1.227,1.728-2.549,2.4-3.946c0.336-0.7,0.641-1.419,0.912-2.161
				c0.273-0.777,0.508-1.434,0.707-2.447l0.115-0.586c0.08-0.416,0.091-0.854,0.023-1.296c-0.322-2.066-2.256-3.481-4.323-3.161
				c-2.065,0.32-3.481,2.256-3.161,4.322c0.049,0.318,0.01,0.978-0.039,1.501c-0.055,0.557-0.139,1.123-0.251,1.687
				c-0.225,1.128-0.565,2.243-1.012,3.321c-0.909,2.148-2.247,4.154-4.133,5.755c-1.849,1.571-4.179,2.856-6.592,3.892
				c-2.429,1.034-4.879,2.239-7.505,2.836c2.698-0.028,5.306-0.672,8.008-1.189C276.623,171.069,279.313,170.306,281.939,168.914z
				 M371.405,272.871c-9.317-1.677-15.54-4.962-18.497-9.761c-3.037-4.929-1.598-9.95-1.548-10.122
				c0.742-2.33-0.545-4.821-2.876-5.563c-2.329-0.745-4.82,0.546-5.563,2.876c-0.113,0.357-2.732,8.86,2.332,17.269
				c4.302,7.139,12.573,11.855,24.583,14.018c18.573,3.344,27.751,10.897,32.283,17.597c-4.293-2.819-9.429-5.644-14.864-7.458
				c-14.047-4.692-23.541,0.06-23.938,0.264l-11.618,5.985l12.864,2.309c3.226,0.58,12.854,2.876,17.469,6.138
				c-4.297-1.452-8.175-1.988-8.377-2.016l-14.646-1.976l11.151,9.708c0.133,0.115,13.22,11.643,15.358,25.266
				c0.75,4.769,0.281,8.675-0.717,11.793c-0.235-3.581-0.738-7.352-1.718-10.663c-4.282-14.508-23.348-21.286-24.157-21.568
				l-9.783-3.4l4.302,9.423c4.485,9.829,7.388,21.263,5.975,23.519c-1.688,2.388-3.144,2.739-4.091,2.795
				c-3.569,0.212-7.863-3.586-9.313-5.128c-2.941-4.069-8.526-10.415-13.996-9.159c-1.712,0.394-4.718,1.842-5.618,7.126
				c-0.982,5.769-0.495,10.919,0.562,15.188c-0.6-0.702-1.2-1.489-1.795-2.371c-5.212-7.745-3.259-16.597-3.244-16.662l1.063-4.406
				l-4.43-0.96c-0.498-0.106-12.182-2.42-17.196,15.963c-4.192,15.37,2.859,19.156,12.618,24.397
				c2.299,1.235,4.877,2.619,7.752,4.338l-7.765-2.562l2.564,8.228c0.031,0.105,3.235,10.577,0.3,17.786
				c-0.472,1.157-1.109,2.26-1.85,3.298c0.283-4.851-0.352-10.728-2.832-17.514c-5.564-15.231-16.898-16.111-17.377-16.142
				l-8.26-0.516l4.152,7.158c1.623,2.797,5.915,12.093,4.4,17.916c-2.211,8.497-4.277,9.526-4.254,9.53
				c-0.027-0.001-1.27-0.115-4.023-3.133c-3.836-4.205-8.747-5.691-13.468-4.09c-4.307,1.463-7.669,5.309-7.993,9.145
				c-0.082,0.969-0.094,2.011-0.104,3.115c-0.042,3.742-0.093,8.397-2.995,12.378c-1.848,2.532-3.77,4.649-5.578,6.388
				c-0.028-6.511-2.37-13.624-9.889-18.375c-7.206-4.553-11.226-9.169-11.629-13.35c-0.349-3.627,2.205-6.078,2.271-6.144
				l8.724-7.783l-11.691,0.052c-0.499,0.003-12.287,0.187-16.467,11.782c-1.664,4.615-1.816,9.185-1.391,13.026
				c-3.558-2.534-7.325-6.52-8.892-12.542c-1.512-5.813,2.666-14.907,4.4-17.916l4.153-7.158l-8.259,0.516
				c-0.48,0.03-11.812,0.91-17.378,16.142c-2.48,6.786-3.113,12.665-2.832,17.514c-0.74-1.038-1.378-2.141-1.85-3.299
				c-2.935-7.208,0.268-17.68,0.297-17.778l2.605-8.255l-7.801,2.582c2.875-1.719,5.452-3.104,7.751-4.338
				c9.759-5.241,16.811-9.027,12.618-24.397c-4.655-17.07-17.022-19.357-17.546-19.447l-8.533-1.448l3.818,7.768
				c2.111,4.296,5.573,14.527,2.798,18.734c-0.813,1.233-1.814,2.318-2.9,3.269c1.568-4.952,2.483-10.561,0.915-15.078
				c-1.783-5.133-4.806-6.459-7.027-6.668c-5.57-0.555-9.752,5.683-11.352,8.466c-0.038,0.067-3.819,6.826-9.833,8.007
				c-3.44,0.671-7.241-0.643-11.292-3.921c-5.714-4.621-1.081-16.373-1.037-16.479l5.888-14.069l-12.507,8.729
				c-0.459,0.32-11.292,7.973-15.06,18.761c-0.273,0.781-0.535,1.53-0.788,2.251c-0.38-3.274-0.419-6.807,0.265-10.163
				c3.513-17.265,23.446-26.213,23.641-26.298l19.002-8.274l-20.725-0.215c-0.625,0.003-4.799-0.012-9.171,0.932
				c4.464-3.832,8.118-6.806,8.163-6.843l11.995-9.751l-15.338,1.921c-1.448,0.181-14.318,1.856-20.45,4.84
				c-1.233,0.602-2.42,1.216-3.556,1.835c5.075-5.27,13.501-10.406,27.444-12.156c11.085-1.39,18.508-5.508,22.062-12.236
				c5.233-9.907-0.47-21.253-0.715-21.731c-1.113-2.169-3.766-3.023-5.94-1.918c-2.174,1.104-3.042,3.766-1.948,5.945
				c0.039,0.077,3.85,7.8,0.753,13.603c-2.136,4.004-7.289,6.544-15.315,7.551c-38.647,4.849-42.524,32.682-42.67,33.864
				l-1.443,11.683l8.785-7.834c0.066-0.06,6.655-5.889,16.419-10.641c0.292-0.143,0.614-0.282,0.962-0.42
				c-5.875,5.55-10.273,11.823-10.473,12.109l-9.636,13.821l15.187-7.297c0.028-0.014,1.025-0.493,2.583-1.231
				c-3.757,4.6-6.925,10.244-8.295,16.975c-2.757,13.549,3.402,28.139,3.665,28.753l4.368,10.186l3.854-10.392
				c0.074-0.202,1.874-5.06,5.677-15.947c0.649-1.854,1.619-3.618,2.729-5.233c0.343,4.384,1.919,8.914,6.057,12.261
				c6.213,5.023,12.487,6.94,18.647,5.708c10.109-2.031,15.605-12.039,15.769-12.348c0.647-1.112,1.557-2.309,2.327-3.119
				c1.439,4.469-2.365,14.121-5.554,19.594l-5.413,9.257l10.367-2.74c0.5-0.132,12.312-3.34,18.31-12.438
				c2.204-3.342,2.695-7.502,2.365-11.574c0.427,1.029,0.818,2.165,1.161,3.421c2.338,8.572,1.335,9.111-8.265,14.267
				c-2.628,1.41-5.608,3.011-9.042,5.103c-15.48,9.43-10.171,29.927-9.938,30.795l4.295,15.949l4.26-15.964
				c0.01-0.034,0.595-2.196,1.777-5.101c0.191,2.731,0.717,5.533,1.782,8.149c4.192,10.292,16.16,16.687,16.667,16.953l17.737,9.314
				l-12.188-15.961c-0.272-0.357-6.478-8.739-1.369-23.814c-0.142,2.223-0.006,4.463,0.55,6.599
				c4.614,17.734,22.245,22.555,22.993,22.751l9.181,2.411l-4.052-8.584c-0.039-0.082-3.78-8.397-0.936-16.288
				c0.006-0.018,0.012-0.033,0.018-0.049c0.688,7.101,5.973,13.819,15.713,19.974c9.766,6.172,4.235,18.914,4.002,19.438
				l-5.084,11.178l11.047-5.36c0.383-0.187,9.468-4.675,17.388-15.536c4.572-6.269,4.646-13.026,4.695-17.498
				c0.01-0.902,0.02-1.689,0.063-2.312c0.202-0.44,1.12-1.496,2.39-1.759c1.168-0.236,2.422,0.354,3.717,1.772
				c1.641,1.797,6.625,7.258,12.648,5.767c6.256-1.549,9.026-9.313,10.74-15.904c0.557-2.136,0.691-4.377,0.551-6.6
				c5.109,15.076-1.098,23.456-1.339,23.774l-13.286,16.589l18.805-9.901c0.508-0.267,12.477-6.661,16.666-16.953
				c1.066-2.614,1.592-5.418,1.783-8.149c1.184,2.904,1.768,5.064,1.776,5.097l4.242,16.055l4.313-16.036
				c0.234-0.868,5.543-21.365-9.937-30.795c-3.434-2.092-6.413-3.69-9.041-5.103c-9.599-5.155-10.603-5.694-8.264-14.267
				c0.83-3.047,1.839-5.192,2.85-6.67c0.267,4.411,1.468,10.006,5.063,15.351c8.021,11.921,18.189,12.058,18.617,12.058h9.258
				l-5.811-7.207c-0.067-0.082-6.384-8.081-4.947-19.793c1.268,1.159,2.834,2.912,4.035,4.587l0.3,0.376
				c0.796,0.891,8.017,8.69,16.544,8.224c2.956-0.167,7.235-1.436,10.835-6.524c3.325-4.7,1.724-13.445-0.742-21.078
				c3.825,2.695,7.433,6.265,8.684,10.5c2.454,8.316,1.219,21.23,1.206,21.36l-0.887,8.981l7.646-4.792
				c0.614-0.385,14.994-9.665,11.712-30.563c-1.055-6.715-4.07-12.842-7.36-17.822c4.979,2.377,9.661,4.759,9.725,4.791
				l15.112,7.692l-9.422-14.1c-0.236-0.354-5.066-7.549-10.614-13.299c9.042,4.798,16.104,11.518,16.188,11.6l7.333,7.059
				l0.167-10.177C415.419,310.513,415.396,280.79,371.405,272.871z M149.952,187.497c0.151,0,0.305-0.015,0.458-0.047
				c1.195-0.252,1.962-1.426,1.711-2.622c-0.021-0.103-2.118-10.388,1.52-16.539c2.332-3.943,9.36-6.01,11.872-6.474
				c1.201-0.222,1.998-1.376,1.777-2.577s-1.37-1.996-2.574-1.778c-0.449,0.081-11.047,2.079-14.887,8.576
				c-4.52,7.644-2.144,19.217-2.041,19.706C148.009,186.784,148.928,187.497,149.952,187.497z M170.487,165.542
				c0.448,0.248,0.892,0.479,1.337,0.715c0.127,0.356,0.245,0.704,0.339,1.05c0.211,1.395,0.449,2.94,0.799,4.421
				c0.685,2.988,1.859,5.932,3.607,8.472c1.74,2.544,4.042,4.655,6.632,6.183c1.287,0.782,2.638,1.445,4.021,2.021
				c0.667,0.282,1.423,0.575,2.125,0.773c0.816,0.229,1.57,0.346,2.373,0.411c3.202,0.271,6.283-0.679,9.061-1.849
				c5.575-2.418,10.339-5.995,15.114-8.739c2.342-1.358,4.803-2.523,6.788-2.631c0.984-0.042,1.786,0.148,2.589,0.626
				c0.447,0.273,1.312,0.832,2.033,1.172c0.752,0.368,1.534,0.687,2.335,0.947c1.609,0.508,3.301,0.753,4.961,0.727
				c1.662-0.051,3.282-0.338,4.797-0.835c3.018-1.046,5.655-2.771,7.609-5.115c0.069-0.084,0.091-0.203,0.046-0.31
				c-0.065-0.152-0.241-0.225-0.394-0.159l-0.024,0.01c-5.321,2.258-10.905,2.957-15.291,0.983
				c-0.554-0.233-1.093-0.505-1.615-0.813c-0.562-0.325-0.899-0.569-1.667-1.075c-1.633-1.079-3.769-1.599-5.665-1.463
				c-1.914,0.103-3.576,0.685-5.065,1.344c-1.493,0.673-2.825,1.477-4.095,2.311c-5.013,3.365-9.127,7.336-13.897,10.122
				c-2.361,1.376-4.92,2.393-7.528,2.428c-0.639,0.003-1.323-0.057-1.91-0.172c-0.699-0.15-1.31-0.323-1.999-0.534
				c-1.325-0.421-2.598-0.99-3.785-1.697c-1.171-0.729-2.261-1.576-3.213-2.554c-0.922-1.006-1.742-2.099-2.351-3.309
				c-1.252-2.407-1.77-5.105-1.916-7.816c-0.047-0.848-0.048-1.692-0.038-2.555c1.054,0.487,2.115,0.963,3.2,1.422
				c3.173,1.313,6.457,2.502,10.009,3.107c3.468,0.636,7.175,0.569,10.475-0.676c3.284-1.227,6.053-3.552,7.635-6.449
				c-2.112,2.53-5.115,4.103-8.141,4.596c-3.053,0.502-6.122-0.063-8.947-1.176c-2.771-1.17-5.369-3.003-7.895-4.901
				c-2.088-1.602-4.17-3.352-6.091-5.115c0.422-0.582,1.028-1.239,1.701-1.925c0.872-0.859,1.847-1.762,2.869-2.657
				c0.521-0.474,0.985-0.896,1.56-1.373c0.496-0.39,1.013-0.725,1.544-1.051c2.112-1.322,4.558-2.075,7.153-2.37
				c5.216-0.524,10.879,0.871,16.078,3.237l0.017,0.008c0.116,0.052,0.256,0.027,0.345-0.073c0.109-0.122,0.099-0.31-0.024-0.419
				c-2.218-1.981-4.786-3.513-7.545-4.747c-2.773-1.186-5.796-2.009-8.977-2.129c-3.174-0.167-6.479,0.5-9.474,1.877
				c-0.745,0.349-1.461,0.767-2.164,1.181c-0.624,0.326-1.339,0.734-1.985,1.112c-1.305,0.81-2.593,1.707-3.8,2.852
				c-1.205,1.136-2.381,2.532-3.162,4.503c-0.007,0.019-0.013,0.04-0.02,0.059c-0.909,0.372-1.708,1.026-2.22,1.952
				C167.546,161.632,168.328,164.349,170.487,165.542z"/>
		</g>
	</g>
	
		<g id="&#x417;&#x430;&#x43B;&#x438;&#x432;&#x43A;&#x430;_&#x446;&#x432;&#x435;&#x442;&#x43E;&#x43C;_128_&#x43A;&#x43E;&#x43F;&#x438;&#x44F;_2">
		<g>
			<path style="fill-rule:evenodd;clip-rule:evenodd;fill:#7593D0;" d="M253.019,175.387l-22.69,57.563l21.43-10.261l-8.958,44.147
				l30.917-62.754l-21.384,4.727L253.019,175.387z M265.672,210.397l-11.732,23.81l3.927-19.353l-19.285,9.235l9.503-24.111
				l-0.295,14.371L265.672,210.397z M288.525,152.598c-1.168-1.133-3.039-1.107-4.174,0.064c-0.375,0.385-9.253,9.338-18.798,1.778
				c-3.533-2.796-5.849-13.135-6.729-20.439c3.983-1.311,11.329-4.92,16.242-14.446c5.452-10.572,1.92-26.364,1.767-27.03
				c-0.302-1.314-1.456-2.254-2.806-2.288c-1.342-0.023-2.547,0.854-2.914,2.152c-0.199,0.701-5.032,17.187-20.359,17.187
				c-15.259,0-19.562-16.405-19.735-17.097c-0.327-1.327-1.555-2.268-2.89-2.246c-1.368,0.011-2.548,0.959-2.854,2.292
				c-0.153,0.666-3.688,16.458,1.764,27.03c4.914,9.527,12.26,13.137,16.244,14.446c-0.879,7.302-3.191,17.638-6.73,20.44
				c-9.523,7.538-19.439-1.973-19.852-2.375c-1.156-1.146-3.027-1.138-4.174,0.021s-1.139,3.026,0.02,4.174
				c4.794,4.751,16.75,11.456,27.67,2.809c7.236-5.728,9.024-24.883,9.204-27.048c0.13-1.564-0.988-2.958-2.544-3.17
				c-0.089-0.012-9.095-1.352-14.59-12.004c-1.949-3.779-2.439-8.626-2.371-12.896c4.1,5.98,10.848,11.528,20.839,11.528
				c10.197,0,17.187-5.8,21.43-11.92c0.104,4.362-0.355,9.393-2.365,13.288c-5.424,10.518-14.237,11.951-14.59,12.004
				c-1.557,0.212-2.674,1.605-2.544,3.17c0.18,2.165,1.968,21.32,9.206,27.048c3.952,3.13,7.949,4.299,11.655,4.299
				c6.561,0,12.203-3.665,15.045-6.596C289.725,155.602,289.696,153.732,288.525,152.598z"/>
		</g>
	</g>
	<g id="&#x417;&#x430;&#x43B;&#x438;&#x432;&#x43A;&#x430;_&#x446;&#x432;&#x435;&#x442;&#x43E;&#x43C;_129">
		<g>
			<path style="fill-rule:evenodd;clip-rule:evenodd;fill:#767FD7;" d="M205.842,229.673c-1.437-0.774-3.224-0.235-3.999,1.199
				c-0.082,0.153-2.053,3.738-4.906,2.543c-4.243-1.769-3.073-8.566-3.061-8.635c0.295-1.599-0.759-3.136-2.357-3.436
				c-1.6-0.309-3.146,0.752-3.447,2.355c-0.804,4.276-0.32,12.283,6.594,15.165c1.228,0.512,2.393,0.73,3.485,0.73
				c4.413,0,7.628-3.58,8.89-5.925C207.814,232.236,207.278,230.445,205.842,229.673z M313.681,223.7
				c-0.302-1.6-1.844-2.646-3.435-2.352c-1.599,0.294-2.658,1.832-2.37,3.432c0.012,0.069,1.184,6.866-3.06,8.635
				c-2.739,1.146-4.695-2.164-4.916-2.559c-0.775-1.424-2.563-1.953-3.99-1.184c-1.436,0.773-1.972,2.563-1.199,3.999
				c1.263,2.344,4.479,5.924,8.891,5.924c1.094,0,2.258-0.22,3.486-0.73C314.002,235.983,314.485,227.977,313.681,223.7z"/>
		</g>
	</g>
	<g id="&#x417;&#x430;&#x43B;&#x438;&#x432;&#x43A;&#x430;_&#x446;&#x432;&#x435;&#x442;&#x43E;&#x43C;_130">
		<g>
			<path style="fill-rule:evenodd;clip-rule:evenodd;fill:#6A375C;" d="M281.904,319.62c-0.057-0.893-0.162-1.783-0.35-2.696
				c-0.096-0.458-0.21-0.918-0.373-1.411l-0.135-0.379l-0.171-0.399c-0.082-0.186-0.144-0.346-0.304-0.636
				c-0.998-1.963-2.805-3.504-4.779-4.273c-1.967-0.792-3.94-0.971-5.788-0.948c-3.712,0.085-7.095,0.951-10.351,1.994
				c-2.998,0.996-5.796,2.138-8.672,3.556c-2.502-1.187-4.976-2.19-7.588-3.094c-3.269-1.098-6.649-2.021-10.332-2.276
				c-1.841-0.105-3.781-0.057-5.786,0.526c-1.981,0.546-4.06,1.856-5.266,3.729c-0.275,0.391-0.658,1.11-0.766,1.396
				c-0.25,0.535-0.402,1.039-0.527,1.51c-0.246,0.946-0.379,1.849-0.464,2.756c-0.164,1.808-0.108,3.61,0.195,5.399
				c0.307,1.784,0.872,3.561,1.794,5.182c0.233,0.405,0.486,0.796,0.76,1.18l0.45,0.579l0.437,0.5
				c0.605,0.659,1.249,1.258,1.91,1.815c2.662,2.216,5.575,3.846,8.476,5.401c2.913,1.551,5.835,2.959,8.637,4.619
				c2.804,1.649,5.551,3.417,8.141,5.41c-0.002,0.002-0.004,0.004-0.006,0.006l0.007-0.006c0.002,0.002,0.005,0.004,0.007,0.006
				c-0.002-0.002-0.004-0.004-0.006-0.006c2.556-1.967,5.265-3.714,8.03-5.344c2.762-1.643,5.644-3.041,8.518-4.563
				c2.864-1.528,5.739-3.125,8.391-5.26c1.325-1.105,2.567-2.229,3.604-3.892c0.978-1.565,1.601-3.306,1.958-5.06
				C281.908,323.18,282.008,321.399,281.904,319.62z M277.957,324.368c-0.244,5.884-6.074,9.684-11.283,13.216
				c-2.678,1.759-5.467,3.454-8.088,5.368c-2.624,1.901-5.171,3.905-7.533,6.105c-2.394-2.229-4.978-4.259-7.639-6.183
				c-2.659-1.935-5.492-3.646-8.197-5.434c-2.704-1.788-5.367-3.652-7.543-5.851c-0.541-0.549-1.045-1.12-1.493-1.709l-0.329-0.459
				l-0.259-0.419c-0.173-0.301-0.337-0.614-0.481-0.935c-0.578-1.287-0.894-2.71-1.003-4.163c-0.031-0.419-0.009-0.844-0.007-1.268
				c1.302-0.774,2.833-1.194,4.337-1.158c1.808,0.014,3.556,0.643,5.113,1.596c1.574,0.948,3.063,2.065,4.445,3.281
				c1.346,1.222,2.728,2.566,3.429,4.131c0.349,0.8,0.264,1.494-0.497,1.82c-0.725,0.342-1.662,0.414-2.559,0.42
				c-0.464,0.003-0.966,0.013-1.462,0.095c-0.481,0.097-1.052,0.186-1.493,0.738c-0.21,0.284-0.254,0.67-0.193,0.96
				c0.058,0.297,0.176,0.543,0.304,0.767c0.261,0.448,0.577,0.821,0.906,1.177c2.708,2.724,5.918,4.683,9.136,6.608
				c0.067,0.041,0.157,0.041,0.228-0.007c0.095-0.066,0.12-0.197,0.055-0.293l-0.055-0.08c-1.147-1.681-2.418-3.106-3.589-4.578
				c-0.388-0.45-0.748-0.896-1.116-1.343c0.507-0.092,1.066-0.235,1.742-0.537c0.52-0.244,1.119-0.603,1.715-1.218
				c0.594-0.602,1.11-1.502,1.318-2.38c0.406-1.811-0.038-3.006-0.349-3.839c-0.737-1.638-1.527-2.519-2.312-3.398
				c-0.813-0.829-1.6-1.562-2.457-2.19c-1.729-1.227-3.403-2.371-5.417-3.165c-0.982-0.399-2.153-0.859-3.328-1.005
				c-1.185-0.16-2.402-0.171-3.562,0.052c-1.683,0.367-3.201,1.149-4.302,2.269c0.05-0.615,0.114-1.23,0.228-1.832
				c0.134-0.712,0.316-1.418,0.543-2.036c0.115-0.311,0.233-0.581,0.356-0.772c0.246-0.453,0.279-0.441,0.485-0.71
				c0.682-0.821,1.593-1.284,2.775-1.509c1.172-0.225,2.557-0.161,3.958,0.061c2.826,0.462,5.74,1.525,8.555,2.785
				c2.795,1.263,5.649,2.801,8.156,4.396l0.068,0.045c0.097,0.061,0.196,0.118,0.3,0.17c1.512,0.771,3.295,0.39,4.39-0.801
				c2.441-1.56,5.241-3.058,7.978-4.264c2.77-1.209,5.648-2.204,8.391-2.531c1.359-0.158,2.675-0.128,3.752,0.185
				c1.072,0.294,1.927,0.907,2.517,1.764c0.648,0.892,0.999,2.306,1.238,3.731c0.067,0.431,0.087,0.869,0.122,1.306
				c-1.1-1.112-2.61-1.891-4.287-2.256c-1.16-0.223-2.375-0.212-3.562-0.052c-1.173,0.146-2.344,0.604-3.328,1.005
				c-2.013,0.794-3.688,1.938-5.415,3.165c-0.857,0.629-1.644,1.361-2.455,2.188c-0.787,0.882-1.576,1.763-2.313,3.398
				c-0.312,0.832-0.754,2.025-0.351,3.836c0.207,0.878,0.723,1.779,1.316,2.382c0.595,0.615,1.196,0.976,1.715,1.22
				c0.678,0.303,1.238,0.446,1.746,0.538c-0.368,0.446-0.727,0.893-1.115,1.343c-1.172,1.472-2.441,2.897-3.589,4.578l-0.054,0.08
				c-0.045,0.065-0.051,0.154-0.008,0.227c0.061,0.101,0.189,0.133,0.289,0.073c3.217-1.926,6.427-3.885,9.135-6.608
				c0.329-0.355,0.645-0.729,0.905-1.177c0.128-0.225,0.247-0.47,0.303-0.767c0.061-0.291,0.018-0.678-0.192-0.962
				c-0.441-0.552-1.013-0.64-1.494-0.736c-0.496-0.082-0.998-0.092-1.461-0.095c-0.896-0.006-1.832-0.078-2.558-0.42
				c-0.761-0.326-0.847-1.021-0.497-1.82c0.701-1.564,2.082-2.91,3.43-4.131c1.382-1.217,2.871-2.333,4.445-3.281
				c1.557-0.953,3.305-1.582,5.111-1.596c1.509-0.036,3.044,0.387,4.35,1.167C278.02,323.224,278.017,323.8,277.957,324.368z
				 M239.052,334.115c-0.007-0.013-0.02-0.026-0.027-0.039c-0.167-0.282-0.288-0.58-0.228-0.633c0.023-0.016,0.104,0.03,0.209,0.399
				C239.03,333.904,239.042,334.01,239.052,334.115z M263.054,334.114c0.011-0.104,0.021-0.208,0.045-0.271
				c0.105-0.369,0.187-0.415,0.21-0.4c0.06,0.053-0.061,0.351-0.229,0.633C263.073,334.088,263.061,334.102,263.054,334.114z"/>
		</g>
	</g>
	<g id="&#x424;&#x438;&#x433;&#x443;&#x440;&#x430;_197" style="opacity:0.702;">
		<g>
			<path style="fill-rule:evenodd;clip-rule:evenodd;fill:#7074C7;" d="M124.105,155.297
				c-15.017,12.005-16.288,30.454-16.288,30.454l16.283,0.876c2.122-30.997,26.569-33.211,26.569-33.211
				S133.104,148.104,124.105,155.297z M391.588,185.936c0,0-0.249-14.383-9.928-24.89c-6.969-7.566-20.426-13.944-34.677-7.63
				c0,0,15.665,2.443,23.127,10.997c7.665,8.787,7.132,23.69,7.132,23.69L391.588,185.936z"/>
		</g>
	</g>
	
		<g id="&#x417;&#x430;&#x43B;&#x438;&#x432;&#x43A;&#x430;_&#x446;&#x432;&#x435;&#x442;&#x43E;&#x43C;_128_&#x43A;&#x43E;&#x43F;&#x438;&#x44F;_3">
		<g>
			<path style="fill-rule:evenodd;clip-rule:evenodd;fill:#3E2225;" d="M414.206,183.849c-1.266-2.013-2.768-2.588-7.396-2.305
				c0.593-10.665,0.341-52.743-38.624-67.185c-44.438-16.469-81.703,34.234-83.267,36.401c-1.154,1.597-5.596,15.957-5.596,15.957
				s10.271-9.827,11.577-11.635c0.231-0.32,15.617-21.274,37.332-31.307c2.145,0.239,4.226,0.78,6.114,1.643
				c3.25,1.435,5.92,3.706,7.946,6.51c0.994,1.374,1.755,2.944,2.287,4.499c0.55,1.558,1.036,3.072,1.497,4.646
				c0.834,2.803,1.283,5.842,1.528,9.289c-13.228,0.295-23.14,9.693-24.572,11.788c-1.287,1.884-0.945,4.465,0.806,5.927
				c1.538,1.283,4.125,1.569,6.089-0.369c0.182-0.179,0.345-0.37,0.489-0.57c1.943-1.929,13.977-12.899,27.998-5.177
				c13.028,7.178,14.215,19.016,14.228,22.976c-2.692,0.157-5.374,0.264-7.981,0.29c-7.896,0.096-14.688-2.063-20.168-3.787
				c-5.289-1.662-9.469-2.979-13.299-2.062c-6.385,1.53-16.813,7.744-17.981,8.447c-0.058,0.034-0.103,0.081-0.157,0.118
				c-0.657-0.188-1.313-0.383-1.982-0.528c-1.904-0.413-3.865-0.662-5.878-0.65c-2.029,0.02-4.022,0.281-6.103,1.034
				c-1.875,0.722-3.438,1.661-4.965,2.673c-3.014,2.042-5.611,4.426-8.006,6.94c-2.385,2.524-4.576,5.184-6.54,7.983
				c2.515-2.309,5.196-4.407,7.975-6.297c2.778-1.88,5.687-3.545,8.66-4.723c1.47-0.571,3.013-1.069,4.411-1.26
				c1.205-0.134,2.656-0.044,4.006,0.267c1.373,0.303,2.746,0.795,4.077,1.413c0.666,0.308,1.321,0.652,1.954,1.02
				c0.598,0.349,1.326,0.803,1.695,1.114c0.011,0.009,0.023,0.016,0.034,0.024c0.029,0.11,0.058,0.22,0.089,0.336
				c0.154,0.56,0.327,1.102,0.515,1.636c0.376,1.066,0.814,2.1,1.314,3.101c0.827,1.656,1.837,3.221,3.005,4.657
				c0.377,2.003,0.605,4.184,0.742,6.16c-2.195-2.072-4.959-3.976-8.229-4.838c-4.336-1.144-8.727-0.283-13.061,2.56
				c-13.084,8.584-9.941,31.855-9.801,32.842c0.044,0.309,0.154,0.59,0.309,0.841c-0.018,1.586,0.094,3.187,0.383,4.803l0.035,0.196
				c0.025,0.142,0.124,0.266,0.27,0.319c0.217,0.081,0.46-0.03,0.541-0.248c0.211-0.572,0.456-1.133,0.689-1.698
				c0.057,0.026,0.109,0.06,0.17,0.082c0.423,0.151,6.767,2.381,13.529,2.381c4.177,0,8.514-0.851,11.714-3.569
				c0.228-0.194,0.432-0.425,0.649-0.635c-0.085,0.446-0.177,0.893-0.283,1.334c-0.487,1.998-1.218,3.945-2.269,5.696
				c-1.03,1.731-2.527,3.293-4.224,4.644c-1.703,1.347-3.602,2.521-5.639,3.44c2.195-0.447,4.354-1.178,6.432-2.169
				c2.07-1.001,4.08-2.289,5.791-4.071c1.258-1.321,2.318-2.804,3.221-4.373c1.461,11.809,2.866,31.544-1.299,46.563
				c-3.629,13.086-13.826,21.649-19.297,25.442c-1.075-4.532-2.785-8.865-5.024-12.824c-2.467-4.354-5.499-8.301-8.941-11.763
				c-3.485-3.412-7.242-6.532-11.524-8.761c6.02,7.4,10.943,15.267,14.209,23.527c3.271,8.249,4.553,16.909,3.379,25.355
				c-0.133,1.069-0.304,2.097-0.518,3.139c-0.199,0.979-0.474,1.98-0.775,2.93c-0.586,1.917-1.409,3.694-2.43,5.307
				c-2.027,3.238-5.064,5.717-8.846,7.384c-3.775,1.676-8.166,2.514-12.686,2.879c-4.26,0.37-8.638,0.236-13.104-0.102
				c0.04-0.021,0.081-0.039,0.12-0.061c-0.168,0.014-0.333,0.021-0.5,0.034c-0.167-0.013-0.333-0.021-0.5-0.034
				c0.039,0.021,0.08,0.04,0.12,0.061c-4.467,0.338-8.845,0.472-13.104,0.102c-4.519-0.365-8.91-1.203-12.685-2.879
				c-3.782-1.667-6.819-4.147-8.846-7.384c-1.021-1.612-1.843-3.39-2.429-5.309c-0.303-0.947-0.575-1.948-0.776-2.928
				c-0.213-1.043-0.383-2.071-0.517-3.139c-1.173-8.447,0.109-17.107,3.378-25.357c3.268-8.261,8.192-16.125,14.211-23.525
				c-4.284,2.229-8.039,5.348-11.524,8.761c-3.442,3.461-6.477,7.406-8.942,11.761c-2.241,3.965-3.952,8.301-5.027,12.838
				c-5.468-3.774-15.648-12.306-19.295-25.455c-4.223-15.226-2.708-34.7-1.227-46.008c0.831,1.342,1.773,2.614,2.875,3.764
				c1.682,1.771,3.681,3.075,5.737,4.085c2.065,1.002,4.215,1.748,6.406,2.21c-2.042-0.904-3.949-2.063-5.665-3.4
				c-1.709-1.341-3.217-2.887-4.276-4.63c-1.043-1.758-1.764-3.729-2.236-5.732c-0.103-0.441-0.193-0.895-0.275-1.352
				c0.225,0.219,0.452,0.434,0.688,0.635c3.199,2.719,7.536,3.569,11.714,3.569c6.761,0,13.104-2.229,13.528-2.381
				c0.053-0.02,0.099-0.049,0.15-0.072c0.241,0.563,0.497,1.12,0.71,1.689c0.039,0.1,0.117,0.186,0.223,0.227
				c0.204,0.081,0.431-0.019,0.512-0.22l0.109-0.276c1.051-2.652,1.281-5.198,1.218-7.693c-0.024-0.693-0.086-1.381-0.17-2.063
				c0.354-7.282-0.239-22.221-10.157-28.728c-4.333-2.841-8.725-3.704-13.061-2.56c-3.269,0.863-6.031,2.767-8.227,4.84
				c0.211-3.065,0.638-6.645,1.506-9.237c0.958-2.862,2.315-4.791,3.534-6.061c0.353-0.161,0.696-0.354,1.008-0.618
				c0.37-0.312,1.099-0.766,1.697-1.114c0.633-0.367,1.288-0.712,1.954-1.02c1.33-0.618,2.705-1.11,4.078-1.413
				c1.349-0.311,2.802-0.4,4.006-0.268c1.398,0.191,2.941,0.688,4.413,1.261c2.974,1.177,5.88,2.843,8.66,4.722
				c2.779,1.891,5.461,3.989,7.975,6.298c-1.964-2.8-4.157-5.459-6.54-7.983c-2.396-2.515-4.993-4.898-8.007-6.939
				c-1.529-1.012-3.091-1.951-4.966-2.674c-2.08-0.752-4.073-1.015-6.103-1.034c-2.012-0.012-3.974,0.238-5.878,0.651
				c-0.669,0.145-1.324,0.339-1.981,0.527c-0.055-0.037-0.1-0.083-0.158-0.118c-1.168-0.703-11.596-6.917-17.982-8.447
				c-3.828-0.917-8.007,0.396-13.299,2.063c-5.48,1.723-12.281,3.863-20.166,3.786c-2.557-0.026-5.187-0.131-7.826-0.282
				c0.011-3.952,1.19-15.8,14.228-22.983c14.025-7.727,26.055,3.246,27.999,5.177c0.144,0.2,0.291,0.41,0.489,0.57
				c4.304,3.477,9.666-2.042,6.893-5.558c-1.571-1.993-11.344-11.491-24.572-11.787c0.245-3.447,0.694-6.487,1.529-9.29
				c0.459-1.573,0.947-3.088,1.496-4.646c0.537-1.561,1.282-3.113,2.298-4.512c2.005-2.779,4.69-5.068,7.937-6.497
				c1.875-0.856,3.939-1.396,6.067-1.637c21.723,10.03,37.146,30.982,37.378,31.302c1.389,1.921,9.414,9.644,9.414,9.644
				s-2.362-12.485-3.433-13.967c-1.563-2.166-38.837-52.872-83.266-36.401c-38.977,14.445-39.217,56.545-38.625,67.194
				c-4.751-0.306-6.272,0.259-7.552,2.295c-2.08,3.306-1.251,11.908,0.643,18.697c2.932,10.508,11.847,30.14,38.62,43.573
				c12.081,6.062,22.06,8.207,30.138,8.207c8.47,0,14.831-2.358,19.338-5.037c-1.604,11.775-3.325,32.712,1.367,49.626
				c5.097,18.377,20.545,28.728,25.235,31.507c-0.162,2.893-0.082,5.803,0.3,8.675c0.167,1.266,0.408,2.558,0.684,3.815
				c0.296,1.322,0.652,2.592,1.098,3.875c0.92,2.539,2.149,5.049,3.818,7.304c3.299,4.566,8.33,7.8,13.447,9.163
				c2.425,0.671,4.854,1.012,7.256,1.115c0.108,0.179,0.234,0.35,0.384,0.507c0.214,0.226,5.32,5.549,11.075,8.282
				c3.412,1.62,7.058,1.96,9.175,2.005c0.119,0.003,0.254,0.005,0.402,0.007c0.042,0,0.096,0.002,0.137,0.002h0.077
				c0.041,0,0.094-0.002,0.137-0.002c0.149-0.002,0.284-0.004,0.404-0.008c2.118-0.045,5.762-0.385,9.172-2.004
				c5.754-2.733,10.859-8.057,11.074-8.282c0.15-0.157,0.275-0.328,0.384-0.507c2.401-0.104,4.831-0.444,7.256-1.115
				c5.117-1.363,10.147-4.597,13.446-9.163c1.67-2.255,2.899-4.765,3.82-7.303c0.445-1.282,0.802-2.553,1.099-3.874
				c0.275-1.259,0.517-2.552,0.684-3.816c0.382-2.872,0.462-5.783,0.301-8.676c4.689-2.779,20.138-13.13,25.234-31.507
				c4.351-15.688,3.185-35.416,1.716-47.933c4.138,2.426,9.805,4.407,17.305,4.407c8.279,0,18.783-2.415,31.897-9.31
				c27.036-14.215,35.851-34.105,38.697-44.696C415.38,195.205,416.242,187.083,414.206,183.849z M299.201,214.269
				c3.277-2.151,6.383-2.799,9.484-1.985c3.902,1.023,7.018,4.183,8.996,6.748c-0.963-0.473-1.978-0.871-3.057-1.16
				c-2.797-0.749-5.984-0.862-9.045-0.057c-1.541,0.353-3.01,0.989-4.393,1.719c-0.694,0.361-1.334,0.816-1.957,1.264l-0.817,0.602
				c-0.271,0.211-0.662,0.487-0.902,0.704c-2.568,2.172-4.54,4.646-6.058,7.254C292.26,223.596,294.326,217.467,299.201,214.269z
				 M311.742,243.139c-5.162,4.386-16.118,1.992-20.444,0.539c0.062-0.225,0.079-0.464,0.065-0.707
				c0.869-1.667,1.802-3.301,2.796-4.882c2.267-3.505,4.984-6.763,8.325-9.16c3.309-2.4,7.354-3.544,11.443-3.222
				c1.707,0.127,3.402,0.486,5.057,1.003C317.986,232.027,315.772,239.715,311.742,243.139z M210.455,243.678
				c-4.325,1.453-15.279,3.851-20.444-0.539c-4.283-3.639-6.347-11.619-7.243-16.484c1.658-0.501,3.353-0.852,5.052-1.008
				c4.094-0.363,8.208,0.781,11.43,3.307c3.242,2.5,6.04,5.645,8.297,9.165c1.039,1.597,1.973,3.265,2.838,4.97
				C210.385,243.29,210.404,243.489,210.455,243.678z M183.12,220.326c0.005-0.007,0.01-0.015,0.015-0.022
				c1.83-2.661,5.309-6.801,9.915-8.017c3.11-0.819,6.219-0.173,9.503,1.981c4.199,2.755,6.313,7.687,7.334,12.682
				c-1.505-1.879-3.321-3.598-5.516-5.024c-2.36-1.518-5.393-2.902-8.41-3.34c-3.033-0.489-6.061-0.248-8.719,0.575
				c-1.679,0.508-3.21,1.231-4.614,2.096c-0.006-0.048-0.026-0.094-0.034-0.142C182.749,220.874,182.928,220.605,183.12,220.326z
				 M137.354,194.083c9.277,0.078,17.157-2.384,22.913-4.194c3.507-1.103,7.132-2.249,8.579-1.897
				c2.638,0.632,6.806,2.645,10.289,4.5c0.025,0.165,0.035,0.33,0.079,0.495c0.035,0.132,0.013,0.615-0.01,0.956
				c-0.025,0.377-0.067,0.765-0.121,1.153c-0.11,0.777-0.27,1.56-0.479,2.33c-0.418,1.54-1.03,3.028-1.841,4.404
				c-1.61,2.778-4.101,4.958-7.303,6.587c-3.161,1.637-6.75,2.729-10.429,3.463c-3.689,0.721-7.492,1.126-11.321,1.142
				c3.769,0.72,7.631,1.062,11.536,1.062c3.904-0.02,7.879-0.398,11.833-1.545c1.975-0.587,3.935-1.342,5.844-2.473
				c0.981-0.579,1.919-1.248,2.807-1.987c-0.595,4.313-0.668,8.676-0.67,10.349c-0.094,0.145-0.19,0.29-0.275,0.423
				c-0.252,0.083-0.5,0.188-0.73,0.344c-0.556,0.374-13.877,9.088-36.418,0.372c-16.488-6.377-31.505-20.57-38.915-28.367
				c0.72,0.084,1.441,0.169,2.148,0.253C113.842,192.513,126.132,193.968,137.354,194.083z M146.518,118.878
				c8.272-1.017,16.238,0.432,23.583,3.261c-1.038,0.091-2.078,0.249-3.112,0.478c-1.986,0.485-3.933,1.267-5.739,2.323
				c-1.791,1.078-3.431,2.418-4.878,3.93c-1.436,1.504-2.816,3.138-3.943,4.997c-1.119,1.857-1.836,3.984-2.052,6.153
				c-0.214,2.168-0.028,4.354,0.584,6.389c0.417,1.413,1.015,2.763,1.843,3.974c-2.341,0.101-4.777,0.508-7.275,1.283
				c-0.958-2.968-1.757-5.683-2.302-8.366l-0.996-4.779c-0.338-1.603-0.535-3.276-0.427-4.959c0.087-1.629,0.405-3.434,0.792-5.134
				c0.37-1.721,0.862-3.414,1.525-5.039C144.733,121.822,145.523,120.271,146.518,118.878z M136.641,121.279
				c2.305-0.854,4.594-1.485,6.865-1.93c-0.727,0.846-1.397,1.741-2.005,2.676c-1.046,1.658-1.914,3.42-2.653,5.228
				c-0.699,1.834-1.303,3.626-1.724,5.662c-0.404,1.98-0.696,4.027-0.717,6.111c-0.008,2.08,0.404,4.163,1.197,6.076
				c0.799,1.911,1.888,3.681,3.252,5.196c0.713,0.8,1.494,1.539,2.351,2.184c-1.2,0.481-2.411,1.048-3.634,1.722
				c-2.118,1.167-3.99,2.432-5.662,3.76c-1.442-1.961-2.726-3.768-3.88-5.607c-0.797-1.249-1.596-2.447-2.442-3.666
				c-0.851-1.214-1.627-2.529-2.161-3.959c-0.535-1.394-0.948-2.958-1.253-4.49c-0.33-1.536-0.537-3.094-0.545-4.649
				c-0.088-3.074,0.661-6.379,2.924-8.669l0.035-0.035c0.087-0.089,0.112-0.227,0.05-0.344c-0.047-0.09-0.135-0.128-0.229-0.139
				C129.434,124.441,132.813,122.698,136.641,121.279z M124.658,127.573c-0.836,0.763-1.54,1.671-2.114,2.658
				c-0.902,1.563-1.488,3.302-1.852,5.068c-0.669,3.586-0.513,7.127,0.191,10.72c0.374,1.789,0.833,3.6,1.515,5.357
				c0.694,1.75,1.737,3.365,3.054,4.707c1.318,1.341,2.834,2.474,4.508,3.289c0.508,0.252,1.032,0.469,1.564,0.665
				c-2.829,2.679-4.92,5.541-6.468,8.365c-1.54-0.286-2.979-0.552-4.354-0.87c-1.247-0.28-2.435-0.505-3.663-0.701
				c-1.207-0.197-2.497-0.537-3.56-1.101c-1.195-0.634-2.331-1.394-3.38-2.238c-1.07-0.826-2.055-1.764-2.911-2.819
				c-0.821-0.965-1.523-2.063-2.069-3.246C107.83,147.03,113.409,135.608,124.658,127.573z M104.244,161.209
				c0.139,0.349,0.286,0.694,0.444,1.035c1.423,2.908,3.617,5.399,6.13,7.391c1.389,1.081,2.802,1.994,4.387,2.747
				c1.58,0.716,3.305,1.073,5.001,1.035c0.925-0.017,1.836-0.128,2.728-0.314c-1.649,4.515-2.085,8.583-2.153,11.172
				c-5.386-0.496-10.527-1.104-14.87-1.618c-1.083-0.128-2.072-0.245-3.019-0.355C102.677,179.75,102.204,171.259,104.244,161.209z
				 M177.974,236.705c-0.127,0.186-13.146,18.403-46.841,1.498c-28.812-14.457-34.879-36.506-35.57-46.03
				c6.085,6.823,23.635,25.044,43.944,32.898c8.173,3.162,15.326,4.248,21.303,4.248c7.392,0,12.967-1.662,16.446-3.12
				c-0.617,0.828-1.176,1.705-1.608,2.698l-0.087,0.201c-0.051,0.119-0.045,0.262,0.028,0.382c0.12,0.197,0.377,0.258,0.573,0.138
				c0.777-0.477,1.584-0.911,2.407-1.313c0.392,1.968,0.956,4.307,1.747,6.696C179.398,235.285,178.56,235.852,177.974,236.705z
				 M258.272,367.825c-2.245,1.065-4.744,1.356-6.336,1.424c-0.042,0.002-0.084-0.006-0.127-0.002
				c-0.01,0.001-0.263,0.018-0.679,0.02c-0.51,0.001-0.821-0.02-0.83-0.02c-0.042-0.004-0.083,0.004-0.125,0.002
				c-1.595-0.068-4.101-0.36-6.342-1.424c-2.167-1.029-4.284-2.568-5.956-3.945c4.627-0.809,9.094-2.117,13.175-4.23
				c4.081,2.113,8.548,3.422,13.175,4.23C262.555,365.257,260.438,366.796,258.272,367.825z M398.119,160.941
				c2.045,10.082,1.512,18.647,1.261,21.341c-0.996,0.115-2.037,0.238-3.185,0.374c-4.301,0.509-9.386,1.109-14.715,1.603
				c-0.069-2.59-0.507-6.65-2.152-11.156c0.891,0.187,1.803,0.298,2.729,0.314c1.694,0.038,3.42-0.319,5-1.035
				c1.571-0.743,3.027-1.686,4.357-2.728c2.571-2.031,4.723-4.494,6.159-7.41C397.771,161.816,397.951,161.381,398.119,160.941z
				 M356.734,151.664c-2.498-0.774-4.933-1.183-7.274-1.283c0.828-1.21,1.427-2.561,1.843-3.973
				c0.612-2.035,0.797-4.221,0.584-6.389c-0.217-2.169-0.933-4.296-2.051-6.153c-1.132-1.864-2.498-3.48-3.955-5.01
				c-1.426-1.486-3.081-2.845-4.869-3.917c-1.806-1.057-3.752-1.838-5.738-2.323c-1.052-0.232-2.109-0.391-3.166-0.48
				c7.356-2.836,15.338-4.286,23.634-3.262c0.996,1.396,1.787,2.946,2.401,4.514c0.663,1.625,1.154,3.318,1.524,5.039
				c0.39,1.716,0.698,3.472,0.792,5.134c0.108,1.683-0.088,3.356-0.427,4.959l-0.996,4.779
				C358.491,145.982,357.692,148.696,356.734,151.664z M362.688,154.204c-1.223-0.674-2.434-1.24-3.633-1.722
				c0.857-0.645,1.638-1.384,2.351-2.184c1.364-1.516,2.454-3.285,3.252-5.196c0.794-1.913,1.206-3.996,1.197-6.076
				c-0.021-2.084-0.314-4.131-0.718-6.111c-0.865-3.954-2.283-7.531-4.376-10.89c-0.608-0.936-1.28-1.831-2.008-2.678
				c2.271,0.445,4.562,1.078,6.867,1.932c3.844,1.425,7.235,3.164,10.27,5.118c-0.078-0.003-0.156,0.013-0.217,0.072
				c-0.115,0.114-0.117,0.299-0.003,0.414l0.041,0.041c2.256,2.286,3.011,5.595,2.92,8.667c-0.008,1.556-0.214,3.113-0.546,4.649
				c-0.146,0.771-0.322,1.47-0.543,2.318c-0.196,0.713-0.439,1.467-0.708,2.172c-0.534,1.43-1.31,2.745-2.162,3.959
				c-0.846,1.219-1.645,2.417-2.441,3.666c-1.155,1.84-2.438,3.646-3.88,5.607C366.68,156.637,364.807,155.371,362.688,154.204z
				 M370.737,160.038c0.533-0.196,1.058-0.413,1.564-0.665c1.674-0.815,3.19-1.948,4.509-3.289c1.316-1.342,2.358-2.957,3.053-4.707
				c0.684-1.758,1.142-3.568,1.516-5.357c0.186-0.904,0.322-1.779,0.424-2.713c0.077-0.797,0.162-1.751,0.188-2.643
				c0.031-1.788-0.081-3.59-0.421-5.364c-0.363-1.767-0.95-3.505-1.851-5.068c-0.62-1.063-1.379-2.039-2.306-2.833
				c11.468,8.01,17.119,19.399,19.839,29.801c-0.559,1.272-1.306,2.447-2.18,3.475c-0.854,1.056-1.839,1.993-2.91,2.819
				c-1.049,0.846-2.192,1.608-3.35,2.219c-1.123,0.603-2.37,0.914-3.59,1.12c-1.229,0.196-2.417,0.421-3.662,0.701
				c-1.375,0.318-2.814,0.584-4.354,0.87C375.658,165.579,373.566,162.717,370.737,160.038z M320.908,195.665
				c-0.021-0.342-0.045-0.824-0.01-0.956c0.096-0.369,0.131-0.764,0.133-1.164c3.738-2.072,9.07-4.797,12.229-5.554
				c1.438-0.353,5.072,0.795,8.578,1.897c5.756,1.81,13.691,4.274,22.913,4.194c11.224-0.115,23.512-1.57,32.485-2.632
				c0.709-0.084,1.432-0.169,2.154-0.254c-7.402,7.795-22.409,21.982-38.922,28.368c-22.537,8.716-35.857,0.003-36.404-0.363
				c-0.363-0.251-0.765-0.401-1.174-0.473c-0.061-0.095-0.131-0.199-0.196-0.299c-0.002-1.255-0.042-4.027-0.313-7.163
				c0.268,0.175,0.531,0.357,0.807,0.52c1.908,1.131,3.869,1.886,5.844,2.473c3.953,1.147,7.93,1.525,11.832,1.546
				c3.905,0,7.769-0.343,11.536-1.062c-3.828-0.017-7.631-0.422-11.319-1.143c-3.679-0.733-7.268-1.826-10.429-3.463
				c-3.203-1.63-5.692-3.809-7.303-6.587c-0.812-1.375-1.423-2.864-1.841-4.404c-0.209-0.77-0.369-1.552-0.479-2.33
				C320.975,196.429,320.934,196.042,320.908,195.665z M370.898,238.241c-35.299,18.56-46.043,0.626-46.531-0.236
				c-0.682-1.249-1.885-2.024-3.192-2.234c0.927-2.641,1.569-5.259,2.002-7.433c0.831,0.386,1.646,0.803,2.415,1.281
				c0.086,0.053,0.194,0.073,0.299,0.047c0.211-0.052,0.338-0.263,0.286-0.473l-0.071-0.297c-0.23-0.929-0.57-1.768-0.957-2.57
				c3.496,1.426,8.973,2.993,16.148,2.993c5.976,0,13.131-1.087,21.303-4.248c20.224-7.821,37.714-25.925,43.87-32.814
				C405.613,201.715,399.278,223.32,370.898,238.241z"/>
		</g>
	</g>
	<g id="&#x417;&#x430;&#x43B;&#x438;&#x432;&#x43A;&#x430;_&#x446;&#x432;&#x435;&#x442;&#x43E;&#x43C;_133">
		<g>
			<path style="fill-rule:evenodd;clip-rule:evenodd;fill:#F5ADD6;" d="M145.65,122.253c-2.213,4.442,7.891,6.448,11.956,1.015
				C160.922,118.836,148.078,117.38,145.65,122.253z M169.221,127.363c-0.952,5.005,17.559,19.251,20.194,14.613
				C194.248,133.475,169.952,123.521,169.221,127.363z M125.502,130.039c-0.834,2.453,9.17,1.494,11.439-5.683
				C137.939,121.201,127.605,123.858,125.502,130.039z M343.57,123.268c4.064,5.434,14.169,3.428,11.956-1.015
				C353.099,117.38,340.254,118.836,343.57,123.268z M311.762,141.977c2.636,4.638,21.146-9.608,20.193-14.613
				C331.225,123.521,306.929,133.475,311.762,141.977z M375.674,130.039c-2.103-6.181-12.437-8.838-11.438-5.683
				C366.504,131.533,376.509,132.492,375.674,130.039z"/>
		</g>
	</g>
	<g id="&#x417;&#x430;&#x43B;&#x438;&#x432;&#x43A;&#x430;_&#x446;&#x432;&#x435;&#x442;&#x43E;&#x43C;_132">
		<g>
			<path style="fill-rule:evenodd;clip-rule:evenodd;fill:#86D4EE;" d="M210,350.815c-1.763-3.188-2.775-6.704-3.217-10.416
				c-0.448-3.705-0.431-7.506,0.095-11.21c1.011-7.444,3.974-14.646,8.068-21.358c4.105-6.726,9.196-13.026,14.947-19.033
				c-3.838,1.702-7.316,4.1-10.638,6.703c-3.294,2.646-6.327,5.656-9.032,8.99c-4.037,4.984-7.329,10.823-9.234,17.176
				c-0.036-0.021-0.075-0.042-0.11-0.063c-0.797-0.462-1.588-0.954-2.364-1.475c-1.554-1.038-3.053-2.179-4.482-3.402
				c-2.858-2.449-5.431-5.245-7.605-8.333c-2.169-3.083-3.942-6.486-5.207-10.05c-1.27-3.637-2.185-7.474-2.889-11.353
				c-1.391-7.775-1.944-15.769-2.06-23.764c-0.092-8.002,0.222-16.035,1.036-24.031c-1.43,7.914-2.37,15.926-2.901,23.983
				c-0.506,8.06-0.583,16.184,0.229,24.329c0.421,4.073,1.051,8.146,2.125,12.194c1.117,4.112,2.802,8.04,4.987,11.709
				c2.185,3.661,4.85,7.038,7.875,10.058c1.515,1.509,3.118,2.932,4.81,4.259c0.846,0.663,1.715,1.303,2.615,1.917
				c0.791,0.534,1.515,1.011,2.424,1.527c-0.463,4.105-0.362,8.259,0.398,12.337c0.814,4.385,2.505,8.824,5.282,12.497
				c2.747,3.693,6.494,6.534,10.545,8.22c4.065,1.64,8.378,2.452,12.564,2.002C220.297,361.907,213.477,357.217,210,350.815z
				 M327.712,263.787c-0.521-8.262-1.474-16.477-2.937-24.59c0.835,8.196,1.147,16.432,1.031,24.632
				c-0.143,8.193-0.746,16.385-2.266,24.331c-0.77,3.941-1.766,7.911-3.16,11.511c-1.434,3.624-3.373,7.034-5.692,10.168
				s-5.008,6.003-7.942,8.581c-1.468,1.29-2.998,2.508-4.578,3.644c-0.394,0.283-0.8,0.566-1.211,0.847
				c-1.834-6.83-5.258-13.114-9.555-18.417c-2.706-3.336-5.739-6.347-9.033-8.992c-3.32-2.604-6.799-5.001-10.638-6.703
				c5.751,6.007,10.843,12.308,14.948,19.033c4.092,6.712,7.056,13.916,8.066,21.358c0.525,3.706,0.543,7.504,0.095,11.21
				c-0.442,3.713-1.454,7.228-3.218,10.416c-3.477,6.401-10.297,11.094-18.263,13.414c4.187,0.45,8.499-0.362,12.563-2.002
				c4.053-1.686,7.799-4.525,10.546-8.22c2.776-3.673,4.468-8.11,5.281-12.497c0.667-3.576,0.823-7.21,0.546-10.82
				c1.49-1.021,2.788-2.041,4.133-3.147c1.67-1.393,3.266-2.86,4.787-4.402c3.042-3.083,5.788-6.465,8.115-10.132
				c2.327-3.661,4.22-7.62,5.524-11.764c1.293-4.191,1.948-8.326,2.452-12.512C328.244,280.383,328.202,272.05,327.712,263.787z
				 M261.566,361.125c-1.632-1.035-3.406-1.683-5.215-2.182c-1.816-0.476-3.688-0.76-5.606-0.779
				c-1.925-0.021-3.83,0.249-5.655,0.76c-1.817,0.534-3.59,1.255-5.14,2.417c3.81,0.003,7.292-0.278,10.764-0.227
				C254.204,361.145,257.758,361.428,261.566,361.125z M250.695,370.262c-3.465,0.019-7.044-0.755-10.759-1.86
				c-3.722-1.136-7.497-2.615-11.672-4.172c0.971,2.048,2.362,3.809,3.899,5.417c1.551,1.6,3.306,3.022,5.246,4.21
				c3.843,2.396,8.534,3.91,13.452,3.734c4.775-0.195,9.313-1.696,13.159-4.044c3.829-2.365,7.158-5.45,9.342-9.317
				c-4.038,1.711-7.841,3.168-11.612,4.261C257.987,369.573,254.284,370.237,250.695,370.262z"/>
		</g>
	</g>
</g>
</svg>
