<?xml version="1.0" encoding="iso-8859-1"?>
<!-- Generator: Adobe Illustrator 15.0.0, SVG Export Plug-In . SVG Version: 6.00 Build 0)  -->
<!DOCTYPE svg PUBLIC "-//W3C//DTD SVG 1.1//EN" "http://www.w3.org/Graphics/SVG/1.1/DTD/svg11.dtd" [
	<!ENTITY ns_extend "http://ns.adobe.com/Extensibility/1.0/">
	<!ENTITY ns_ai "http://ns.adobe.com/AdobeIllustrator/10.0/">
	<!ENTITY ns_graphs "http://ns.adobe.com/Graphs/1.0/">
	<!ENTITY ns_vars "http://ns.adobe.com/Variables/1.0/">
	<!ENTITY ns_imrep "http://ns.adobe.com/ImageReplacement/1.0/">
	<!ENTITY ns_sfw "http://ns.adobe.com/SaveForWeb/1.0/">
	<!ENTITY ns_custom "http://ns.adobe.com/GenericCustomNamespace/1.0/">
	<!ENTITY ns_adobe_xpath "http://ns.adobe.com/XPath/1.0/">
]>
<svg version="1.1" xmlns:x="&ns_extend;" xmlns:i="&ns_ai;" xmlns:graph="&ns_graphs;"
	 xmlns="http://www.w3.org/2000/svg" xmlns:xlink="http://www.w3.org/1999/xlink" x="0px" y="0px" width="512px" height="512px"
	 viewBox="0 0 512 512" style="enable-background:new 0 0 512 512;" xml:space="preserve">
<metadata>
	<sfw  xmlns="&ns_sfw;">
		<slices></slices>
		<sliceSourceBounds  x="94" y="94" width="512" height="512" bottomLeftOrigin="true"></sliceSourceBounds>
	</sfw>
</metadata>
<g id="&#x418;&#x437;&#x43E;&#x431;&#x440;&#x430;&#x436;&#x435;&#x43D;&#x438;&#x435;_xA0_17_1_">
	<g id="&#x417;&#x430;&#x43B;&#x438;&#x432;&#x43A;&#x430;_&#x446;&#x432;&#x435;&#x442;&#x43E;&#x43C;_1">
		<g>
			<rect x="3.699" y="4.439" style="fill-rule:evenodd;clip-rule:evenodd;fill:#B17D7B;" width="503.121" height="503.121"/>
		</g>
	</g>
	<g id="&#x417;&#x430;&#x43B;&#x438;&#x432;&#x43A;&#x430;_&#x446;&#x432;&#x435;&#x442;&#x43E;&#x43C;_5">
		<g>
			<path style="fill-rule:evenodd;clip-rule:evenodd;fill:#F3D4C3;" d="M484.624,25.156l20.717-20.717H3.699l20.717,20.717H484.624z
				 M24.416,486.844L3.699,507.561h501.642l-20.717-20.717H24.416z"/>
		</g>
	</g>
	
		<g id="&#x417;&#x430;&#x43B;&#x438;&#x432;&#x43A;&#x430;_&#x446;&#x432;&#x435;&#x442;&#x43E;&#x43C;_1_&#x43A;&#x43E;&#x43F;&#x438;&#x44F;_2">
		<g>
			<radialGradient id="SVGID_1_" cx="256.7402" cy="256" r="228.0762" gradientUnits="userSpaceOnUse">
				<stop  offset="0" style="stop-color:#95584F"/>
				<stop  offset="0.2" style="stop-color:#95584F"/>
				<stop  offset="0.4182" style="stop-color:#91524C"/>
				<stop  offset="0.6121" style="stop-color:#7B3F3C"/>
				<stop  offset="0.7636" style="stop-color:#5A292A"/>
				<stop  offset="0.897" style="stop-color:#3D1B1D"/>
				<stop  offset="1" style="stop-color:#2D1316"/>
			</radialGradient>
			<polygon style="fill-rule:evenodd;clip-rule:evenodd;fill:url(#SVGID_1_);" points="432.765,27.924 78.856,27.924 28.664,78.116 
				28.664,435.769 76.972,484.076 433.367,484.076 484.816,432.627 484.816,79.976 			"/>
		</g>
	</g>
	
		<g id="&#x417;&#x430;&#x43B;&#x438;&#x432;&#x43A;&#x430;_&#x446;&#x432;&#x435;&#x442;&#x43E;&#x43C;_1_&#x43A;&#x43E;&#x43F;&#x438;&#x44F;">
		<g>
			<path style="fill-rule:evenodd;clip-rule:evenodd;fill:#F2D2C0;" d="M25.109,24.37v463.26h463.26V24.37H25.109z M466.659,418.566
				l-47.353,47.353H91.283l-44.462-44.462V92.277l46.196-46.196h325.734l47.908,47.907V418.566z"/>
		</g>
	</g>
	<g id="&#x424;&#x438;&#x433;&#x443;&#x440;&#x430;_3">
		<g>
			<path style="fill-rule:evenodd;clip-rule:evenodd;fill:#A18180;" d="M429.873,25.156l-344.047-1.48l-62.15,62.891v342.566
				l59.931,59.19l344.046-0.739l59.931-59.191V84.347L429.873,25.156z M477.226,423.954l-56.231,54.751H91.006l-56.231-54.751
				V88.046l54.012-54.012h334.428l54.751,56.231L477.226,423.954z"/>
		</g>
	</g>
	<g id="&#x417;&#x430;&#x43B;&#x438;&#x432;&#x43A;&#x430;_&#x446;&#x432;&#x435;&#x442;&#x43E;&#x43C;_6">
		<g>
			<path style="fill-rule:evenodd;clip-rule:evenodd;fill:#C7907F;" d="M23.676,86.566l62.52-62.752l-62.52-0.139V86.566z
				 M487.584,23.63l-62.521,0.139l62.521,62.752V23.63z M22.196,488.37l62.521-0.139l-62.521-62.752V488.37z M425.803,488.971
				l62.521,0.139v-62.89L425.803,488.971z"/>
		</g>
	</g>
	
		<g id="&#x417;&#x430;&#x43B;&#x438;&#x432;&#x43A;&#x430;_&#x446;&#x432;&#x435;&#x442;&#x43E;&#x43C;_6_&#x43A;&#x43E;&#x43F;&#x438;&#x44F;">
		<g>
			<path style="fill-rule:evenodd;clip-rule:evenodd;fill:#FDECE7;" d="M27.964,485.886l56.753,2.346L55.27,458.579L27.964,485.886z
				 M54.694,55.434l31.502-31.619l-59.314,3.562L54.694,55.434z M425.803,488.971l59.314-3.113l-28.158-28.158L425.803,488.971z
				 M485.117,26.582l-60.054-2.813l31.376,31.491L485.117,26.582z"/>
		</g>
	</g>
	<g id="&#x424;&#x438;&#x433;&#x443;&#x440;&#x430;_1">
		<g>
			<path style="fill-rule:evenodd;clip-rule:evenodd;fill:#C7907F;" d="M34.774,487.769l0.093-9.156h-8.417L34.774,487.769z
				 M477.04,477.873l0.093,9.155l8.323-9.155H477.04z M476.393,25.804l-0.092,9.156h8.416L476.393,25.804z M26.451,34.96h8.417
				l-0.093-9.156L26.451,34.96z"/>
		</g>
	</g>
	<g id="&#x424;&#x438;&#x433;&#x443;&#x440;&#x430;_2">
		<g>
			<path style="fill-rule:evenodd;clip-rule:evenodd;fill:#FDECE7;" d="M22.597,480.813L9.026,497.72l-1.627,10.285l22.418-0.296
				l0.532-18.644l-3.492-6.957L22.597,480.813z M508.448,495.817l-18.855-14.581l-4.261,4.043l-3.068,4.209l2.646,16.529
				l23.688,1.353L508.448,495.817z M21.002,31.648l4.26-1.295l3.492-6.956L28.222,4.754L5.803,4.458l1.628,10.284L21.002,31.648z
				 M487.997,31.226l18.856-14.581l0.147-11.553l-23.687,1.353l-2.646,16.53l3.069,4.208L487.997,31.226z"/>
		</g>
	</g>
	<g id="&#x417;&#x430;&#x43B;&#x438;&#x432;&#x43A;&#x430;_&#x446;&#x432;&#x435;&#x442;&#x43E;&#x43C;_2">
		<g>
			<path style="fill-rule:evenodd;clip-rule:evenodd;fill:#2F181B;" d="M0,0v512h512V0H0z M503.121,503.121H8.878V8.879h494.243
				V503.121z"/>
		</g>
	</g>
	<g id="&#x417;&#x430;&#x43B;&#x438;&#x432;&#x43A;&#x430;_&#x446;&#x432;&#x435;&#x442;&#x43E;&#x43C;_3">
		<g>
			<path style="fill-rule:evenodd;clip-rule:evenodd;fill:#40292E;" d="M482.33,20.67H29.346l-9.369,9.369v397.468
				c-0.119,0.585-0.119,1.188,0,1.771v53.925l9.606,9.605h453.025l9.507-9.507V30.455L482.33,20.67z M28.855,34.183l4.633-4.634
				h40.974L28.855,75.156V34.183z M33.726,483.931l-4.871-4.871v-39.857l44.728,44.729H33.726z M483.237,479.158l-4.772,4.772
				H437.63l45.607-45.607V479.158z M483.237,425.769l-58.162,58.162H86.139l-57.283-57.283V87.711l58.162-58.162h338.058
				l58.162,58.162V425.769z M483.237,75.156L437.63,29.549h40.558l5.05,5.05V75.156z"/>
		</g>
	</g>
	
		<g id="&#x417;&#x430;&#x43B;&#x438;&#x432;&#x43A;&#x430;_&#x446;&#x432;&#x435;&#x442;&#x43E;&#x43C;_4_&#x43A;&#x43E;&#x43F;&#x438;&#x44F;" style="opacity:0.502;">
		<g>
			<path style="fill-rule:evenodd;clip-rule:evenodd;fill:#876867;" d="M465.59,92.913l-47.243-47.244
				c-0.685-0.685-1.612-1.068-2.579-1.068H94.545c-0.968,0-1.896,0.384-2.58,1.068L46.409,91.227
				c-0.684,0.684-1.069,1.611-1.069,2.579v324.619c0,0.968,0.385,1.896,1.069,2.579l43.847,43.847
				c0.684,0.684,1.612,1.068,2.579,1.068h323.479c0.968,0,1.896-0.385,2.579-1.068l46.696-46.696
				c0.685-0.685,1.069-1.612,1.069-2.58V95.493C466.659,94.525,466.274,93.598,465.59,92.913z M459.363,414.063l-44.56,44.56H94.346
				l-41.709-41.709V95.316l43.419-43.419h318.201l45.106,45.106V414.063z"/>
		</g>
	</g>
	<g id="&#x417;&#x430;&#x43B;&#x438;&#x432;&#x43A;&#x430;_&#x446;&#x432;&#x435;&#x442;&#x43E;&#x43C;_4">
		<g>
			<path style="fill-rule:evenodd;clip-rule:evenodd;fill:#40292E;" d="M468.534,90.633l-47.907-47.907
				c-0.693-0.694-1.635-1.084-2.615-1.084H92.277c-0.981,0-1.922,0.39-2.616,1.084L43.465,88.922
				c-0.693,0.693-1.083,1.635-1.083,2.615v329.18c0,0.981,0.39,1.922,1.083,2.615l44.463,44.463
				c0.694,0.693,1.634,1.084,2.615,1.084h328.023c0.981,0,1.922-0.391,2.615-1.084l47.353-47.353
				c0.694-0.694,1.084-1.635,1.084-2.616V93.248C469.618,92.268,469.229,91.326,468.534,90.633z M462.22,416.295l-45.186,45.185
				H92.075L49.78,419.185V93.07l44.029-44.03h322.67l45.74,45.741V416.295z"/>
		</g>
	</g>
</g>
<g id="&#x418;&#x437;&#x43E;&#x431;&#x440;&#x430;&#x436;&#x435;&#x43D;&#x438;&#x435;_xA0_691_1_">
	<g id="&#x417;&#x430;&#x43B;&#x438;&#x432;&#x43A;&#x430;_&#x446;&#x432;&#x435;&#x442;&#x43E;&#x43C;_138">
		<g>
			<path style="fill-rule:evenodd;clip-rule:evenodd;fill:#BF7956;" d="M411.97,168.174c-13.591-29.633-35.093-52.739-62.183-66.821
				c-25.641-13.329-55.795-18.443-87.204-14.787c-60.793,7.073-140.179,46.171-167.558,104.696
				c-28.184,60.245,28.635,125.517,31.068,128.267l11.137-9.847c-0.53-0.602-52.771-60.75-28.741-112.121
				c24.188-51.701,98.216-89.528,155.814-96.229c59.839-6.96,109.987,20.344,134.154,73.04
				c23.374,50.967-28.427,127.548-28.95,128.313l12.255,8.414C384.105,307.684,438.86,226.81,411.97,168.174z"/>
		</g>
	</g>
	
		<g id="&#x417;&#x430;&#x43B;&#x438;&#x432;&#x43A;&#x430;_&#x446;&#x432;&#x435;&#x442;&#x43E;&#x43C;_138_&#x43A;&#x43E;&#x43F;&#x438;&#x44F;">
		<g>
			<path style="fill-rule:evenodd;clip-rule:evenodd;fill:#EDB784;" d="M367.64,200.298c-18.067-24.604-50.605-39.88-96.71-45.398
				c-36.691-4.394-64.391,3.248-82.349,22.708c-31.542,34.177-20.381,91.627-19.89,94.058l14.572-2.936
				c-0.104-0.522-10.124-52.533,16.279-81.082c14.543-15.726,37.969-21.779,69.618-17.989c41.683,4.99,70.719,18.172,86.306,39.18
				c15.381,20.729,11.896,41.676,11.747,42.521l14.612,2.733C382.034,252.972,386.745,226.318,367.64,200.298z"/>
		</g>
	</g>
	
		<g id="&#x417;&#x430;&#x43B;&#x438;&#x432;&#x43A;&#x430;_&#x446;&#x432;&#x435;&#x442;&#x43E;&#x43C;_140" style="opacity:0.502;">
		<g>
			<path style="fill-rule:evenodd;clip-rule:evenodd;fill:#2D1316;" d="M256.937,356.327c-89.679,0-162.378,16.306-162.378,36.42
				c0,13.296,31.778,24.923,79.215,31.28c7.412,9.979,41.815,17.527,83.163,17.527c41.349,0,75.752-7.549,83.164-17.527
				c47.437-6.357,79.215-17.984,79.215-31.28C419.315,372.633,346.616,356.327,256.937,356.327z"/>
		</g>
	</g>
	<g id="&#x424;&#x438;&#x433;&#x443;&#x440;&#x430;_199">
		<g>
			<path style="fill-rule:evenodd;clip-rule:evenodd;fill:#AEAECE;" d="M260.537,287.39c-95.747,0-173.365,22.92-173.365,51.192
				c0,9.983,9.712,19.292,26.449,27.167c8.5,11.726,32.694,21.729,65.762,28.011c-0.012,0.189-0.043,0.377-0.043,0.566
				c0,14.797,36.353,26.793,81.197,26.793c44.844,0,81.197-11.996,81.197-26.793c0-0.189-0.031-0.377-0.043-0.566
				c33.067-6.282,57.263-16.285,65.762-28.011c16.736-7.875,26.449-17.184,26.449-27.167
				C433.902,310.31,356.284,287.39,260.537,287.39z"/>
		</g>
	</g>
	<g id="&#x424;&#x438;&#x433;&#x443;&#x440;&#x430;_199_&#x43A;&#x43E;&#x43F;&#x438;&#x44F;">
		<g>
			<path style="fill-rule:evenodd;clip-rule:evenodd;fill:#7879A1;" d="M260.723,403.513c-40.508-0.883-81.34-9.753-81.34-9.753
				s6.364,27.359,81.154,27.359c74.79,0,81.197-26.793,81.197-26.793S301.23,404.395,260.723,403.513z M258.191,337.188
				c-53.531,0-96.926,7.445-96.926,16.63c0,9.186,43.395,16.631,96.926,16.631c53.53,0,96.925-7.445,96.925-16.631
				C355.116,344.634,311.722,337.188,258.191,337.188z"/>
		</g>
	</g>
	<g id="&#x424;&#x438;&#x433;&#x443;&#x440;&#x430;_205">
		<g>
			<path style="fill-rule:evenodd;clip-rule:evenodd;fill:#626488;" d="M238.75,402.595c0,0-17.023-1.018-32.386-3.193
				c-14.105-1.998-26.657-5.168-26.657-5.168s4.453,11.574,19.2,18.049c15.697,6.891,35.477,7.083,35.477,7.083
				s-5.053-4.277-5.254-9.509C228.962,405.508,238.75,402.595,238.75,402.595z M313.92,399.401
				c-15.363,2.176-32.386,3.193-32.386,3.193s9.788,2.913,9.62,7.262c-0.201,5.231-5.254,9.509-5.254,9.509
				s19.779-0.192,35.477-7.083c14.747-6.475,19.199-18.049,19.199-18.049S328.025,397.403,313.92,399.401z M195.305,379.145
				c22.739-1.108,37.871-7.58,37.871-7.58s-57.12-1.673-70.838-15.691c-7.925-8.099,9.194-12.181,9.194-12.181
				s-6.808-6.386-17.089-9.681c-8.896-2.851-19.145-3.28-19.145-3.28s-18.918,8.208-23.958,18.959
				c-3.308,7.056,0.122,15.495,14.727,20.359C144.031,376.032,173.325,380.216,195.305,379.145z"/>
		</g>
	</g>
	<g id="&#x424;&#x438;&#x433;&#x443;&#x440;&#x430;_206">
		<g>
			<path style="fill-rule:evenodd;clip-rule:evenodd;fill:#E1E2F9;" d="M366.684,297.981c-29.033-7.711-94.051-16.304-179.859-6.958
				c-61.483,6.695-94.078,31.857-94.078,31.857s13.703-7.493,24.012-0.11c8.616,6.171,9.212,9.194,15.106,10.987
				c6.75,2.054,16.687,0.17,21.866,3.137c10.952,6.274,13.528,8.655,13.528,8.655s13.348-11.337,92.551-11.569
				c79.204-0.232,74.869,6.506,74.869,6.506s25.128-3.408,42.304-1.932c24.282,2.088,38.235,9.719,21.523,15.775
				c-35.301,12.793-71.957,15.19-105.079,18.349c-31.305,2.986-32.378,16.259-7.107,15.516
				c13.177-0.388,66.145-5.248,102.874-16.521c27.397-8.408,42.696-14.324,43.595-34.438
				C433.749,315.698,395.718,305.693,366.684,297.981z"/>
		</g>
	</g>
	<g id="&#x417;&#x430;&#x43B;&#x438;&#x432;&#x43A;&#x430;_&#x446;&#x432;&#x435;&#x442;&#x43E;&#x43C;_139">
		<g>
			<path style="fill-rule:evenodd;clip-rule:evenodd;fill:#5A5778;" d="M337.46,394.272c-0.212,9.318-29.366,22.229-76.737,22.229
				c-47.376,0-76.531-12.914-76.736-22.232l-10.625,1.094c5.942,22.679,48.778,30.059,87.362,30.059
				c36.441,0,77.394-5.021,88.492-31.655C349.215,393.767,339.465,394.21,337.46,394.272z"/>
		</g>
	</g>
	
		<g id="&#x417;&#x430;&#x43B;&#x438;&#x432;&#x43A;&#x430;_&#x446;&#x432;&#x435;&#x442;&#x43E;&#x43C;_139_&#x43A;&#x43E;&#x43F;&#x438;&#x44F;_2">
		<g>
			<path style="fill-rule:evenodd;clip-rule:evenodd;fill:#7879A1;" d="M257.634,331.318c-34.81,0-100.642,4.538-100.642,21.717
				c0,17.178,65.832,21.717,100.642,21.717c34.81,0,100.642-4.539,100.642-21.717C358.275,335.856,292.443,331.318,257.634,331.318z
				 M326.135,363.369c-18.268,3.506-42.594,5.437-68.501,5.437c-25.906,0-50.234-1.931-68.502-5.437
				c-21.488-4.124-26.194-8.857-26.194-10.334s4.706-6.211,26.194-10.335c18.268-3.506,42.596-5.437,68.502-5.437
				c25.907,0,50.233,1.931,68.501,5.437c21.488,4.124,26.195,8.858,26.195,10.335S347.623,359.245,326.135,363.369z M384.572,297.95
				c-33.142-9.787-77.125-15.177-123.85-15.177c-46.723,0-90.708,5.39-123.851,15.177c-35.31,10.426-53.974,24.422-53.974,40.475
				c0,11.445,9.423,21.78,28.014,30.728c9.288,11.723,56.051,26.032,64.524,28.188s43.016,8.659,85.529,8.659
				c42.773,0,76.35-6.15,85.045-8.659c8.696-2.508,55.236-16.465,64.523-28.188c18.591-8.946,28.014-19.281,28.014-30.728
				C438.547,322.372,419.883,308.376,384.572,297.95z M261.068,398.634c-53.95,0.944-117.063-17.303-132.297-26.215
				c29.947,10.419,76.824,20.171,131.951,20.171c46.855,0,93.172-6.545,127.023-17.554
				C372.863,382.367,320.32,397.669,261.068,398.634z M405.847,361.504c-0.037,0.018-0.07,0.035-0.107,0.053l-1.037,0.489
				l-0.127,0.174c-33.271,15.084-88.083,24.425-143.853,24.425c-66.112,0-119.996-14.142-146.443-26.392
				c-0.886-1.247-0.884-1.434-0.864-2.899l0.009-1.09c0-19.993,59.188-41.399,147.298-41.399
				c88.109,0,147.298,21.406,147.298,41.399C408.021,358.194,407.508,359.175,405.847,361.504z M413.917,357.232
				c0.021-0.317,0.049-0.628,0.049-0.969c0-29.637-77.915-47.346-153.243-47.346c-75.329,0-153.244,17.709-153.244,47.346
				l-0.008,0.933c-10.158-6.085-15.653-12.604-15.653-18.771c0-22.104,69.367-46.732,168.906-46.732
				c99.539,0,168.905,24.629,168.905,46.732C429.628,344.604,424.113,351.137,413.917,357.232z"/>
		</g>
	</g>
	<g id="&#x424;&#x438;&#x433;&#x443;&#x440;&#x430;_200">
		<g>
			<path style="fill-rule:evenodd;clip-rule:evenodd;fill:#352849;" d="M262.535,217.198c-123.242,0-141.963,21.369-141.963,32.61
				c0,11.242,7.689,27.731,24.805,48.956c16.08,19.94,32.288,28.146,40.832,32.511c-1.469,1.739-11.336,14.095-10.218,30.998
				c0.279,0.097,0.58,0.196,0.901,0.301l-0.157,0.194l0.787,0.003c10.494,3.268,40.121,9.629,79.531,9.629
				c0.734,0,1.461-0.006,2.189-0.009l0.676,0.969l0.685-0.975c36.911-0.275,67.165-4.796,78.795-9.127l1.845,0.006l-0.436-0.565
				c0.33-0.143,0.643-0.284,0.932-0.426c2.229-17.374-10.406-31.96-10.406-31.96l-1.264,0.006
				c8.813-3.971,25.642-17.774,40.084-37.438c15.834-21.557,18.597-37.916,18.597-44.279
				C388.749,242.237,385.776,217.198,262.535,217.198z"/>
		</g>
	</g>
	<g id="&#x424;&#x438;&#x433;&#x443;&#x440;&#x430;_209">
		<g>
			<path style="fill-rule:evenodd;clip-rule:evenodd;fill:#4C4261;" d="M371.781,263.425c-8.246,3.453-26.326,8.636-26.326,8.636
				l-20.858,59.925c0,0,23.41-12.273,40.656-32.377c16.822-19.608,20.105-44.271,20.105-44.271S379.371,260.247,371.781,263.425z
				 M159.872,269.366c0,0-11.059-4.346-21.372-8.283c-10.125-3.866-17.743-8.812-17.743-8.812s3.907,19.835,18.895,38.972
				c16.249,20.748,44.375,40.511,44.375,40.511s-11.813-18.291-19.836-35.971C157.946,282.021,159.872,269.366,159.872,269.366z"/>
		</g>
	</g>
	<g id="&#x424;&#x438;&#x433;&#x443;&#x440;&#x430;_208">
		<g>
			<path style="fill-rule:evenodd;clip-rule:evenodd;fill:#4C4261;" d="M343.104,287.994c-21.363,5.088-49.51,7.25-80.854,8.17
				c-33.449,0.982-66.934-1.723-93.346-8.039c-23.548-5.631-41.178-15.925-41.178-15.925l5.295,9.15c0,0,13.74,8.094,33.563,13.134
				c22.907,5.825,54.608,9.549,95.052,9.549c36.52,0,64.965-3.342,83.878-8.275c20.155-5.259,28.555-11.759,28.555-11.759
				l6.969-11.613C381.038,272.386,364.864,282.811,343.104,287.994z"/>
		</g>
	</g>
	<g id="&#x424;&#x438;&#x433;&#x443;&#x440;&#x430;_207">
		<g>
			<path style="fill-rule:evenodd;clip-rule:evenodd;fill:#999BBC;" d="M365.656,228.119
				c-20.892-7.617-63.678-10.275-112.003-10.275c-45.298,0-87.88,5.76-107.954,11.877c-27.459,8.369-29.884,14.188-18.717,25.245
				c9.43,9.337,59.046,22.458,125,23.561c67.445,1.127,108.832-10.616,125.618-19.892
				C394.835,249.112,391.136,237.409,365.656,228.119z M257.192,263.792c-17.652-0.604-118.225-4.274-117.063-18.396
				c1.161-14.121,61.1-18.415,119.845-17.845c56.023,0.544,111.029,7.347,110.472,18.635S274.845,264.396,257.192,263.792z"/>
		</g>
	</g>
	<g id="&#x424;&#x438;&#x433;&#x443;&#x440;&#x430;_207_&#x43A;&#x43E;&#x43F;&#x438;&#x44F;">
		<g>
			<path style="fill-rule:evenodd;clip-rule:evenodd;fill:#C7CEF8;" d="M365.656,228.119
				c-20.892-7.617-63.678-10.275-112.003-10.275c-18.578,0-36.668,0.979-52.967,2.544l26.958,7.379
				c10.565-0.259,21.467-0.321,32.33-0.216c56.023,0.544,111.029,7.347,110.472,18.635c-0.222,4.484-15.369,8.276-34.636,11.184
				l27.377,7.493c5.97-2.088,10.772-4.216,14.413-6.228C394.835,249.112,391.136,237.409,365.656,228.119z"/>
		</g>
	</g>
	<g id="&#x417;&#x430;&#x43B;&#x438;&#x432;&#x43A;&#x430;_&#x446;&#x432;&#x435;&#x442;&#x43E;&#x43C;_143">
		<g>
			<path style="fill-rule:evenodd;clip-rule:evenodd;fill:#A67964;" d="M319.335,338.803c-4.568,1.019-5.455,6.322-6.395,11.938
				c-1.187,7.099-2.396,12.144-7.159,12.407c-4.293,0.238-6.375-3.563-9.094-9.386c-2.574-5.511-5.5-11.745-12.771-10.982
				c-6.722,0.713-9.788,6.592-12.753,12.278c-2.858,5.481-5.559,10.659-11.007,10.692h-0.052c-5.444,0-8.14-5.163-10.993-10.629
				c-2.842-5.446-5.779-11.074-12.059-11.074h-0.097c-6.307,0.059-10.446,5.361-14.449,10.491c-3.572,4.58-6.931,8.903-10.973,8.296
				c-3.973-0.602-5.156-5.351-6.409-10.377c-1.41-5.66-2.867-11.512-8.972-12.253c-10.961-1.321-19.595,18.165-20.541,20.393
				l2.808,0.81c2.343-5.522,10.014-19.65,17.301-18.777c4.043,0.491,5.232,5.266,6.492,10.321
				c1.395,5.603,2.839,11.396,8.787,12.294c5.971,0.909,10.063-4.323,14.007-9.38c3.577-4.584,7.276-9.323,11.982-9.366h0.055
				c4.331,0,6.764,4.66,9.337,9.593c2.964,5.678,6.321,12.11,13.72,12.11h0.078c7.39-0.045,10.604-6.211,13.714-12.176
				c2.758-5.286,5.363-10.28,10.402-10.814c4.615-0.483,6.807,3.418,9.617,9.432c2.479,5.309,5.313,11.312,12.064,10.951
				c7.55-0.418,8.803-7.909,9.907-14.52c0.765-4.576,1.558-9.311,4.225-9.904c4.741-1.048,14.579,11.52,20.078,20.777l2.671-1.078
				C340.467,356.841,328.047,336.859,319.335,338.803z"/>
		</g>
	</g>
	<g id="&#x417;&#x430;&#x43B;&#x438;&#x432;&#x43A;&#x430;_&#x446;&#x432;&#x435;&#x442;&#x43E;&#x43C;_141">
		<g>
			<path style="fill-rule:evenodd;clip-rule:evenodd;fill:#5E5979;" d="M262.65,213.292c-126.752,0-145.678,22.76-145.678,36.327
				c0,12.761,8.861,30.496,25.628,51.289c14.388,17.841,28.809,26.538,38.146,31.476c-3.662,5.516-9.25,16.32-8.348,29.944
				l0.164,2.463l2.332,0.806c8.315,2.872,39.306,10.33,82.275,10.33c42.152,0,75.935-5.414,86.321-10.506l1.796-0.882l0.254-1.982
				c1.804-14.056-5.076-26.213-8.901-31.729c10.043-6.268,24.406-19.301,36.625-35.937c17.924-24.403,19.318-41.745,19.318-46.479
				C392.582,225.437,347.652,213.292,262.65,213.292z M338.358,359.534c-10.351,3.874-40.894,8.96-81.189,8.96
				c-38.489,0-66.849-6.032-77.432-9.157c0.034-10.926,4.968-19.593,7.73-23.592c10.439,4.304,36.558,8.407,69.424,8.407
				c35.331,0,63.891-6.521,73.051-9.913C332.732,338.082,338.99,348.06,338.358,359.534z M367.274,290.491
				c-15.024,20.454-32.094,33.711-39.416,36.592c-7.991,3.145-35.854,9.637-70.968,9.637c-33.434,0-59.907-4.336-67.842-8.415
				l-1.185-0.605c-8.385-4.283-23.992-12.256-39.478-31.457c-11.913-14.774-19.683-27.98-22.632-38.25
				c13.284,9.526,47.313,24.162,131.02,24.162c79.544,0,112.589-12.276,126.178-21.435
				C380.72,268.077,376.242,278.28,367.274,290.491z M385.146,248.623c-1.213,2.074-17.956,26.099-128.373,26.099
				c-105.359,0-128.602-23.272-131.923-27.461c2.733-7.677,21.321-26.536,137.8-26.536c113.665,0,122.499,21.191,122.499,27.687
				C385.149,248.474,385.147,248.55,385.146,248.623z M338.299,229.896c-21.998-3.309-51.207-5.131-82.244-5.131
				c-31.039,0-60.247,1.822-82.245,5.131c-32.796,4.932-37.002,11.12-37.002,15.96s4.206,11.028,37.002,15.96
				c21.998,3.308,51.206,5.13,82.245,5.13c31.037,0,60.247-1.822,82.244-5.13c32.797-4.932,37.002-11.12,37.002-15.96
				S371.096,234.828,338.299,229.896z M334.18,254.903c-21.268,2.973-49.012,4.61-78.125,4.61c-29.113,0-56.858-1.638-78.125-4.61
				c-26.168-3.658-32.216-7.841-33.459-9.047c1.243-1.206,7.291-5.39,33.46-9.047c21.267-2.974,49.012-4.611,78.125-4.611
				c29.111,0,56.855,1.638,78.123,4.611c26.169,3.657,32.217,7.841,33.461,9.047C366.395,247.063,360.347,251.245,334.18,254.903z"
				/>
		</g>
	</g>
	<g id="&#x424;&#x438;&#x433;&#x443;&#x440;&#x430;_201_&#x43A;&#x43E;&#x43F;&#x438;&#x44F;_3">
		<g>
			<path style="fill-rule:evenodd;clip-rule:evenodd;fill:#A67964;" d="M221.145,299.05c-2.976,0-5.389,2.413-5.389,5.389
				s2.413,5.389,5.389,5.389s5.388-2.413,5.388-5.389S224.121,299.05,221.145,299.05z M236.66,358.743
				c-2.515,0-4.553,2.038-4.553,4.552c0,2.515,2.038,4.553,4.553,4.553c2.514,0,4.552-2.038,4.552-4.553
				C241.212,360.781,239.174,358.743,236.66,358.743z M193.922,351.682c-2.514,0-4.552,2.038-4.552,4.553s2.038,4.553,4.552,4.553
				c2.515,0,4.553-2.038,4.553-4.553S196.437,351.682,193.922,351.682z M183.741,284.128c-6.101,0-11.077,2.907-13.826,7.343
				c1.413-0.614,3.011-0.959,4.744-0.959c7.134,0,13.628,5.699,14.485,12.577c0.836,6.714-4.036,12.039-10.864,12.039
				c-1.173,0-2.329-0.166-3.45-0.458c3.728,3.197,8.537,5.175,13.548,5.175c9.798,0,17.002-7.607,16.06-17.291
				C203.463,292.524,194.182,284.128,183.741,284.128z M213.619,342.268c-2.514,0-4.552,2.038-4.552,4.552
				c0,2.515,2.038,4.553,4.552,4.553s4.553-2.038,4.553-4.553C218.171,344.306,216.133,342.268,213.619,342.268z M259.701,344.249
				c-2.515,0-4.553,2.038-4.553,4.553s2.038,4.553,4.553,4.553c2.514,0,4.553-2.038,4.553-4.553S262.215,344.249,259.701,344.249z
				 M324.736,352.054c-2.515,0-4.553,2.038-4.553,4.552c0,2.515,2.038,4.553,4.553,4.553c2.514,0,4.553-2.038,4.553-4.553
				C329.289,354.092,327.25,352.054,324.736,352.054z M254.498,284.301c-6.634,0-12.517,3.155-16.275,8.033
				c1.66-0.681,3.475-1.062,5.38-1.062c7.844,0,14.202,6.358,14.202,14.201c0,7.844-6.358,14.202-14.202,14.202
				c-1.348,0-2.646-0.2-3.882-0.551c3.738,3.871,8.972,6.287,14.777,6.287c11.353,0,20.556-9.203,20.556-20.556
				S265.851,284.301,254.498,284.301z M303.801,341.771c-2.514,0-4.553,2.038-4.553,4.553s2.039,4.553,4.553,4.553
				c2.515,0,4.553-2.038,4.553-4.553S306.315,341.771,303.801,341.771z M325.927,284.128c-6.101,0-11.788,2.907-15.625,7.343
				c1.564-0.614,3.247-0.959,4.979-0.959c7.135,0,12.231,5.699,11.403,12.577c-0.808,6.714-6.985,12.039-13.813,12.039
				c-1.174,0-2.289-0.166-3.338-0.458c2.945,3.197,7.269,5.175,12.28,5.175c9.798,0,18.866-7.607,20.296-17.291
				C343.592,292.524,336.368,284.128,325.927,284.128z M301.602,304.438c0-2.976-2.412-5.389-5.389-5.389
				c-2.976,0-5.389,2.413-5.389,5.389s2.413,5.389,5.389,5.389C299.189,309.827,301.602,307.414,301.602,304.438z M282.742,358.743
				c-2.515,0-4.553,2.038-4.553,4.552c0,2.515,2.038,4.553,4.553,4.553c2.514,0,4.553-2.038,4.553-4.553
				C287.295,360.781,285.256,358.743,282.742,358.743z"/>
		</g>
	</g>
	<g id="&#x424;&#x438;&#x433;&#x443;&#x440;&#x430;_203">
		<g>
			<path style="fill-rule:evenodd;clip-rule:evenodd;fill:#F5C281;" d="M431.362,344.28c-2.663-8.702-14.555-16.146-32.589-11.465
				c-17.951,4.659-37.323,32.311-43.657,20.539c-12.696-23.599,6.387-47.301,4.525-75.784c-1.14-17.441-9.69-22.199-10.837-22.761
				c6.368-1.778,10.525-3.526,11.763-5.016c4.707-5.668-0.909-8.088-5.434-11.42c-0.865-0.637-1.894-1.048-2.981-1.344l1.106-0.398
				c0,0-2.141-8.559-0.184-20.78c1.336-8.342,9.655-17.986,8.44-26.824c-1.6-11.637-17.033-11.036-17.199-24.851
				c-0.238-19.774,12.821-32.318,10.45-56.55c-1.283-13.118-22.655-19.491-23.681-29.328c-1.406-13.477,3.235-24.541,4.071-26.401
				h-5.078c-1.794,2.137-12.337,15.593-10.359,34.401c1.114,10.598,24.493,13.988,26.75,26.861
				c2.2,12.55-11.723,30.615-12.923,44.043c-2.967,33.171,15.187,21.86,17.604,33.523c1.918,9.258-5.288,11.896-5.813,19.4
				c-0.625,8.924,2.02,21.561,3.098,26.241c-2.941-0.364-5.596-0.595-6.202-2.431c-2.292-6.938-0.922-18.311-9.507-24.876
				c-8.256-6.313-17.684,5.087-24.188-0.891s-8.946-19.922-20.176-23.722c-7.773-2.631-16.156,10.675-25.414,9.887
				c-5.479-0.466-12.112-3.474-18.282-5.724l4.411,1.225c0,0,0.813-7.465,3.376-15.785c2.191-7.11,8.129-9.739,6.419-19.847
				c-2.549-15.066-25.698-27.826-21.087-51.596c4.521-23.312,14.991-22.448,19.399-31.607c3.795-7.888-1.545-17.625-2.407-19.104
				h-8.36c-1.53,2.58-12.594,21.775-18.376,46.732c-9.152,39.505,18.723,39.425,22.215,55.696
				c2.006,9.348-7.259,12.395-9.311,18.775c-2.183,6.79-1.107,12.771-0.843,14.011c-2.854-0.809-5.504-1.249-7.745-0.904
				c-12,1.848-12.856,14.097-16.976,14.035c-4.119-0.063-7.207-8.791-19.346-6.53c-2.6,0.483-4.627,1.354-6.289,2.428
				c-0.21-1.185-1.71-10.127,0.039-14.301c3.367-8.038,13.522-14.089,11.849-25.89c-2.625-18.52-29.575-31.138-32.158-61.154
				c-1.501-17.444,2.702-38.592,3.614-42.898h-8.847c-1.669,5.331-6.149,22.037-4.083,42.335
				c4.082,40.123,27.4,42.215,32.158,62.094c2.584,10.795-7.854,13.836-10.233,21.589c-2.971,9.678,1.585,22.823,1.585,22.823
				l3.692-2.698c-4.033,3.958-5.121,9.233-8.152,11.122c-4.521,2.818-11.671-0.382-14.737,5.719
				c-3.066,6.102,1.514,15.464,0.368,17.57c-1.146,2.105-6.67-0.775-10.294,6.937c-3.624,7.711-3.116,11.304,0.446,14.029
				c1.825,1.396,9.058,4.696,25.734,7.484l-5.047-0.393c0,0-13.537,1.986-16.38,14.554c-9.987,44.136,21.869,27.003,14.708,45.991
				c-4.343,11.515,4.681,11.887,2.409,17.02c-2.727,6.158-10.998,8.229-10.795,15.729c0.281,10.356,10.399,6.086,6.156,15.624
				c-4.242,9.539-8.485,1.146-19.727,8.114s-16.104,21.833-3.562,33.416c12.542,11.582-7.092,26.045-4.955,35.553
				c1.177,5.543,12.59-6.09,16.644-16.762c9.996-26.313-8.717-21.572-4.659-34.399c5.043-15.938,16.364-11.259,23.167-16.87
				c14.74-12.157-0.387-15.441,0.734-26.539c0.685-6.777,7.927-5.688,8.424-13.159c0.333-5.007-5.482-7.207-5.196-12.554
				c0.464-8.636,5.612-7.932,5.341-16.138c-0.222-6.709-16.222-8.473-17.497-13.96c-5.824-25.074,11.928-32.524,17.25-34.169
				c15.771,2.146,38.254,3.735,69.764,3.429c10.922-0.105,21.615-0.613,31.742-1.397c2.175,1.379,10.505,7.305,12.869,18.523
				c6.793,32.232-9.15,62.257-1.634,80.068c9.136,21.647,26.479,14.772,26.479,14.772s-0.761-1.178-1.808-3.055
				c0.894,0.994,2.008,2.052,3.385,3.188c6.803,5.61,18.124,0.931,23.167,16.869c4.059,12.827-14.653,8.087-4.658,34.399
				c4.054,10.672,15.467,22.305,16.644,16.762c2.137-9.508-17.498-23.971-4.955-35.553s7.681-26.447-3.562-33.416
				c-11.241-6.968-15.484,1.425-19.728-8.113c-4.242-9.539,5.875-5.269,6.156-15.625c0.203-7.501-8.068-9.571-10.795-15.729
				c-2.271-5.132,6.752-5.505,2.409-17.02c-4.656-12.345,7.177-9.427,13.284-17.998l-0.029,0.872c0,0-6.375,33.428-4.738,44.626
				c1.942,13.297,11.811,24.647,27.273,16.689l-3.521,2.357c0,0,20.809-5.953,25.144-0.131c4.336,5.822-4.051,7.436-11.331,23.884
				c-9.074,20.502,4.585,35.564,9.507,30.876c3.464-3.299-4.5-9.592-2.453-20.433c3.268-17.308,21.352-23.689,17.659-38.067
				c-2.993-11.656-15.481-9.4-19.585-8.318c7.22-4.88,14.291-9.367,21.066-10.472c5.858-0.955,13.923,0.291,16.233,6.216
				c3.2,8.207-3.462,14.645-6.039,25.277c-2.226,9.182-4.037,24.644,5.977,31.861c4.185,3.016-3.558-21.501,5.609-34.513
				C433.538,363.905,434.751,355.352,431.362,344.28z M336.735,295.139c-1.274,5.486-17.274,7.25-17.497,13.959
				c-0.271,8.206,4.878,7.503,5.342,16.139c0.287,5.346-5.529,7.546-5.195,12.553c0.496,7.473,7.739,6.382,8.424,13.159
				c0.766,7.576-6.035,11.512-5.743,17.114c-0.05-0.113-0.099-0.225-0.147-0.339c-22.081,2.85-3.366-54.835-8.605-85.691
				c-2.227-13.111-9.232-19.355-9.232-19.355l-1.607,0.104c5.708-0.604,11.164-1.287,16.278-2.026
				C322.864,261.874,342.867,268.739,336.735,295.139z M347.51,272.632c-3.519-11.257-15.961-13.114-15.961-13.114l-9.444,0.735
				c10.019-1.541,18.578-3.282,25.11-5.014l-8.853,2.978c0,0,3.997,1.619,6.692,5.194c2.211,2.935,2.506,7.72,2.506,7.72
				L347.51,272.632z M291.569,152.137c0.78,10.467-7.774,12.663-11.504,18.936c-5.027,8.453-6.273,18.518-6.273,18.518l10.561-6.039
				c0,0,2.791-6.229,6.378-12.136c3.947-6.501,14.195-9.835,9.531-22.72c-2.83-7.821-20.528-10.642-20.383-25.044
				c0.088-8.606,9.61-16.721,9.57-25.014c-0.044-8.809-5.29-13.551-5.102-20.762c0.336-12.819,6.57-25.883,6.57-25.883l-8.145,0.094
				c0,0-6.956,7.712-7.904,23.844c-0.412,7.007,4.926,14.781,4.768,23.235c-0.156,8.257-10.807,13.219-11.154,21.777
				C267.529,144.394,290.929,143.56,291.569,152.137z"/>
		</g>
	</g>
	<g id="&#x424;&#x438;&#x433;&#x443;&#x440;&#x430;_203_&#x43A;&#x43E;&#x43F;&#x438;&#x44F;">
		<g>
			<path style="fill-rule:evenodd;clip-rule:evenodd;fill:#F09366;" d="M218.186,228.633c-3.186,0.342-7.757,3.322-7.757,3.322
				l15.918-1.425C226.347,230.53,221.896,228.235,218.186,228.633z M169.054,125.669c5.172,6.782,14.37,3.035,6.194-9.166
				c-2.062-4.536-4.6-8.74-5.704-14.996c-1.549-8.777-1.233-19.194-1.233-19.194s-4.708-13.069-9.26-0.031
				c0,0-0.925,14.558,2.291,26.615C164.024,118.954,163.882,118.887,169.054,125.669z M170.496,296.129
				c-2.053-8.837-1.166-15.474,1.064-20.45c-2.887-1.563-6.001-2.908-8.935-3.495c-0.758-0.151-1.512-0.238-2.262-0.298
				c-0.423,0.983-0.8,2.021-1.062,3.177c-9.986,44.136,21.87,27.003,14.708,45.991c-4.343,11.515,4.681,11.887,2.409,17.02
				c-2.727,6.158-10.999,8.229-10.795,15.729c0.281,10.356,10.399,6.086,6.156,15.624c-2.23,5.015-4.462,5.073-7.709,5.014
				c0.975,0.331,1.936,0.71,2.865,1.177c2.922,1.466,4.791,3.506,5.759,5.682c2.175-0.608,4.236-1.37,5.994-2.82
				c14.74-12.157-0.387-15.441,0.734-26.539c0.684-6.777,7.927-5.688,8.424-13.159c0.333-5.007-5.483-7.207-5.196-12.554
				c0.463-8.636,5.612-7.932,5.341-16.138C187.77,303.38,171.77,301.616,170.496,296.129z M155.521,395.349
				c0.472-1.491,0.999-2.803,1.572-3.958c-0.438-0.22-0.879-0.451-1.33-0.711c-4.831-2.788-8.846-4.039-12.088-4.546
				c-4.195,7.421-3.773,16.891,4.816,24.823c12.542,11.582-7.092,26.045-4.955,35.553c1.177,5.543,12.589-6.09,16.644-16.762
				C170.175,403.436,151.462,408.176,155.521,395.349z M324.566,326.078l9.74-1.813c-0.152-1.218-0.479-2.592-1.085-4.202
				c-4.657-12.348,7.179-9.434,13.284-18.012l-0.029,0.886c0,0-1.765,9.256-3.199,19.657l9.233-1.72
				c2.882-13.512,8.151-27.688,7.131-43.304c-0.114-1.755-0.324-3.341-0.573-4.847c-3.543-0.247-7.565-0.176-11.478,0.671
				c-3.941,0.853-7.733,2.383-10.908,3.936c1.44,4.62,1.761,10.456,0.053,17.809c-1.274,5.486-17.274,7.25-17.497,13.959
				c-0.271,8.206,4.878,7.503,5.342,16.139C324.596,325.527,324.586,325.805,324.566,326.078z M355.116,353.354
				c-0.368-0.685-0.703-1.369-1.02-2.054l-7.565,8.677c4.677,6.433,12.386,9.47,22.48,4.274l-3.521,2.357
				c0,0,11.912-3.401,19.588-2.535c2.737-1.092,5.611-2.288,8.381-3.532c2.696-1.21,4.798-2.889,6.369-4.495
				c-4.977-3.802-12.407-2.416-15.397-1.626c5.72-3.866,11.343-7.457,16.803-9.343c-0.599-2.517-1.701-5.496-3.756-7.951
				c-0.855-1.023-1.865-1.96-2.939-2.812C377.87,341.575,360.955,364.205,355.116,353.354z M338.95,151.075
				c2.843,1.005,6.659-3.201,6.659-3.201l6.441-21.121l-8.547-0.867l-8.146,18.365C335.358,144.251,336.751,150.298,338.95,151.075z
				 M403.4,371.954c-3.668,2.946-9.759,5.473-16.255,5.272c-2.298,2.989-5.145,7.041-7.842,13.136
				c-9.074,20.502,4.585,35.564,9.507,30.876c3.464-3.299-4.5-9.592-2.453-20.433C388.842,387.647,399.869,380.798,403.4,371.954z
				 M238.177,95.195c0,0-8.331,2.385-9.384-5.109c0,0-3.53,10.967-3.797,17.981c-0.244,6.414,0.267,14.536,0.267,14.536
				s5.82,4.412,9.493,4.223c3.219-0.165,4.351-4.936,4.351-4.936s-2.702-5.938-3.062-12.289
				C235.662,102.835,238.177,95.195,238.177,95.195z M432.84,350.947c-3.123,2.585-6.692,4.578-10.313,4.657
				c-0.455,5.94-4.849,11.645-6.835,19.837c-2.226,9.182-4.037,24.644,5.977,31.861c4.185,3.016-3.559-21.501,5.609-34.513
				C432.22,365.776,433.969,358.949,432.84,350.947z M335.451,368.437c-1.268-2.852-1.238-4.458-0.587-5.601l-8.298-5.286
				c-1.769,3.801-4.691,6.789-4.502,10.505c-0.048-0.112-0.099-0.218-0.146-0.331c-6.345,0.819-9.311-3.376-10.455-10.479
				l-8.68,9.91c9.461,16.02,24.183,10.201,24.183,10.201s-0.761-1.182-1.804-3.05c0.893,0.992,2.006,2.049,3.381,3.183
				c1.402,1.156,2.998,1.873,4.689,2.426c2.618-2.392,6.254-4.389,10.438-5.584c1.025-0.293,2.025-0.563,3.002-0.809
				C341.359,373.031,338.404,375.075,335.451,368.437z M365.938,392.065c-1.52,0.69-3.413,1.366-5.743,2.021
				c-2.914,0.818-5.562,1.61-8.013,2.287c1.547,10.366-14.559,7.563-5.131,32.383c4.055,10.672,15.468,22.305,16.645,16.762
				c2.137-9.508-17.498-23.971-4.955-35.553C364.827,404.345,366.789,397.955,365.938,392.065z M274.845,62.988
				c-1.858,4.676,5.946,9.414,9.91,2.478c2.249-5.625,4.019-10.446,5.13-13.568h-10.338C277.857,55.79,275.83,60.508,274.845,62.988
				z M303.333,215.021c-2.722,3.485-3.714,8.016-3.714,8.016l10.035-12.853C309.654,210.184,305.584,212.137,303.333,215.021z
				 M312.057,328.407c1.452-15.894,3.445-33.475,1.255-46.375c-0.302-1.782-0.698-3.426-1.147-4.956
				c-2.038-0.34-4.117-0.543-6.142-0.51c-1.936,0.03-3.824,0.247-5.638,0.568c0.713,1.642,1.323,3.421,1.736,5.38
				c3.611,17.133,0.798,33.641-1.502,48.023L312.057,328.407z"/>
		</g>
	</g>
	<g id="&#x424;&#x438;&#x433;&#x443;&#x440;&#x430;_203_&#x43A;&#x43E;&#x43F;&#x438;&#x44F;_2">
		<g>
			<path style="fill-rule:evenodd;clip-rule:evenodd;fill:#DA7D50;" d="M179.059,302.381c-1.818,1.643-3.861,3.128-6.065,4.092
				c-1.965,0.86-4.026,1.421-6.064,1.788c5.371,2.954,10.387,4.023,7.08,12.793c-0.026,0.069-0.039,0.127-0.064,0.196
				c2.55-0.633,5.323-1.503,8.044-2.713c1.682-0.747,3.34-1.684,4.911-2.683c0.701-1.405,1.18-3.12,1.092-5.766
				C187.876,306.58,183.443,304.425,179.059,302.381z M182.713,336.378c-1.767,0.486-3.833,0.482-5.946,0.208
				c-0.016,0.458-0.108,0.941-0.35,1.487c-1.243,2.809-3.638,4.769-5.859,6.779c1.801-0.258,3.661-0.38,5.476-0.243
				c2.428,0.182,4.737,0.921,6.688,1.78c2.243-1.798,4.833-3.243,5.124-7.609c0.099-1.479-0.345-2.71-1.003-3.852
				C185.506,335.49,184.115,335.992,182.713,336.378z M192.19,147.091c-1.941,1.334-6.041-0.362-6.041-0.362
				s5.201,6.127,5.075,11.884c-0.123,5.639-5.57,10.909-5.57,10.909s3.75-1.732,5.609-0.818c1.918,0.944,1.947,4.535,1.947,4.535
				s7.442-7.924,7.554-15.183c0.134-8.712-6.687-16.778-6.687-16.778S194.212,145.701,192.19,147.091z M218.186,228.633
				c-3.186,0.342-7.757,3.322-7.757,3.322l15.918-1.425C226.347,230.53,221.897,228.235,218.186,228.633z M183.437,191.272
				c-1.955-0.488-3.729-3.913-3.729-3.913l1.982,15.856l7.433-8.919l-1.486-4.955C187.636,189.342,185.445,191.775,183.437,191.272z
				 M167.703,70.482c0.753-8.118,2.356-15.402,3.123-18.585h-8.061c-0.702,1.942-1.635,5.392-2.467,11.377
				c-1.353,9.732-1.062,22.166-1.062,22.166s1.271,7.664,3.581,10.778c2.225,3,5.494,1.454,5.494,1.454S166.5,83.444,167.703,70.482
				z M334.678,101.544c3.529,3.222,5.348,1.402,9.699,10.687c2.627,5.603-1.152,14.678-1.152,14.678s1.982,13.874,8.919,1.486
				c0.475-3.797,3.807-15.021,1.211-23.039c-2.823-8.726-6.259-8.085-11.616-14.124S321.582,89.599,334.678,101.544z
				 M346.197,172.495c0,0,0.203,4.203-2.439,5.524c-3.242,1.621-7.532,1.846-7.532,1.846s5.637,1.903,12.973,7.93
				c4.174,3.429-1.171,10.023-4.022,15.793c2.973,10.901,11.923-1.363,11.923-1.363s4.444-9.982,2.372-15.635
				C356.323,178.007,346.197,172.495,346.197,172.495z M332.334,316.809c-1.406-8.588,8.68-7.042,14.172-14.758l-0.029,0.886
				c0,0-0.854,4.483-1.857,10.708l10.836-4.946c1.562-6.171,3.089-12.517,3.835-19.103l-21.842,1.706
				c-0.182,1.236-0.403,2.503-0.713,3.837c-1.274,5.486-17.274,7.25-17.497,13.959c-0.137,4.165,1.121,6.035,2.455,7.996
				L332.334,316.809z M148.804,407.087c-1.273,0.062-2.389,0.225-3.411,0.441c0.894,1.165,1.892,2.315,3.098,3.429
				c4.418,4.08,4.836,8.518,3.627,12.971c1.333,0.062,2.651,0.143,3.914,0.25c2.13,0.182,4.046,0.462,5.738,0.775
				c1.675-5.852,1.651-9.833,0.794-12.756C158.584,409.371,153.638,406.854,148.804,407.087z M173.725,360.215
				c-2.241,0.172-4.71-0.677-7.058-1.931c2.538,4.756,8.557,3.399,5.113,11.143c-0.202,0.454-0.404,0.855-0.606,1.231
				c1.622,0.688,3.241,1.434,4.707,2.213c2.145,1.139,3.863,2.371,5.177,3.457c7.987-7.919,2.32-11.877-0.434-17.87
				C178.315,359.348,175.902,360.047,173.725,360.215z M382.248,357.42l-5.242-11.607c-8.772,6.844-16.303,12.979-20.49,9.347
				l-4.659,9.742c4.466,2.601,10.251,2.903,17.155-0.649l-3.521,2.357c0,0,1.144-0.323,2.908-0.741
				c3.134-2.172,6.666-4.483,10.139-6.462C379.793,358.691,381.032,358.036,382.248,357.42z M335.451,368.437
				c-0.273-0.615-0.482-1.168-0.644-1.676l-11.442-3.511c-0.813,1.547-1.387,3.099-1.301,4.805
				c-0.048-0.112-0.099-0.218-0.146-0.331c-3.479,0.449-5.939-0.611-7.646-2.823l-3.083,10.994
				c7.922,4.563,15.776,1.461,15.776,1.461s-0.76-1.182-1.803-3.05c0.893,0.992,2.006,2.049,3.381,3.183
				c0.109,0.09,0.224,0.171,0.336,0.256l8.998-5.621C337.038,371.376,336.244,370.22,335.451,368.437z M356.441,412.645
				c-1.548,0.246-3.142,0.391-4.71,0.35c-2.551-0.067-5.026-0.839-7.081-1.731c-1.057,3.661-0.854,8.926,2.401,17.494
				c4.054,10.672,15.467,22.305,16.644,16.762C365.67,436.73,349.066,423.712,356.441,412.645z M393.295,386.346l-9.917-3.719
				c-1.338,2.15-2.725,4.686-4.074,7.735c-9.074,20.502,4.585,35.564,9.507,30.876c3.464-3.299-4.5-9.592-2.453-20.433
				C387.456,394.986,390.237,390.414,393.295,386.346z M423.714,381.07l-7.951-5.889c-0.021,0.088-0.049,0.171-0.07,0.26
				c-2.226,9.182-4.038,24.644,5.977,31.861C425.068,409.752,420.597,394.032,423.714,381.07z M248.583,136.818
				c0,0,2.818,8.33-10.406,2.973c0,0,8.609,6.906,10.471,14.354c1.218,4.873-4.03,11.413-4.03,11.413s4.271-3.78,6.924-3.383
				c2.271,0.341,2.986,4.869,2.986,4.869s5.013-6.469,3.684-13.226C256.598,145.605,248.583,136.818,248.583,136.818z
				 M314.208,299.949l-10.372,1.186c-0.078,6.959-0.852,13.695-1.785,20.12l10.599,0.685
				C313.334,314.583,314,307.056,314.208,299.949z M245.588,82.665c3.004-4.041,6.959-7.29,6.959-7.29s-15.36,6.938-13.874-13.378
				c-1.167,3.035-3.766,10.056-6.252,17.058c-2.79,7.856-5.455,18.03-5.455,18.03s4.305,14.369,11.211-2.385
				C238.177,94.7,241.56,88.082,245.588,82.665z M282.277,112.538c0,0,5.188-7.85,5.486-14.061
				c0.402-8.419-4.043-15.128-4.898-18.55c-1.486,12.388-9.507-1.084-9.507-1.084s4.411,12.4,4.288,20.561
				c-0.074,5.06-1.885,4.58-5.187,9.913C282.37,100.398,282.277,112.538,282.277,112.538z M280.791,168.035
				c0,0-3.283,3.097-5.112,7.365c-2.519,5.876-2.847,12.95-2.847,12.95l10.839-5.574c0,0,1.734-6.07,8.021-13.75
				C283.269,177.45,280.791,168.035,280.791,168.035z M303.333,215.021c-2.722,3.485-3.713,8.016-3.713,8.016l10.034-12.853
				C309.654,210.184,305.584,212.137,303.333,215.021z"/>
		</g>
	</g>
	<g id="&#x424;&#x438;&#x433;&#x443;&#x440;&#x430;_211">
		<g>
			<path style="fill-rule:evenodd;clip-rule:evenodd;fill:#EB8655;" d="M229.492,241.873c-4.646-8.973-2.216-16.359-2.216-16.359
				l5.946-10.405c0,0-9.068-3.968-18.105,0.158c-7.994,3.649-9.907,5.138-20.498,15.59c-10.591,10.451-19.557-8.037-25.828,6.596
				c-6.271,14.633-15.841,16.306-15.841,16.306s18.909,6.419,42.99,9.209c23.216,2.689,51.637,1.754,51.637,1.754
				S234.933,252.382,229.492,241.873z M340.994,233.689c0,0,0.239,5.773-0.96,7.143c-4.538,5.181-7.958-0.453-7.958-0.453
				s0.605-8.861-2.08-14.197c-2.816-5.596-8.999-7.702-12.043-8.844c-5.945-2.229,0-10.405,0-10.405l-11.148,2.229l-11.148,11.148
				l14.121,16.724c0,0,0.695,7.421-4.502,7.148c-6.596-0.346-17.935-6.544-17.935-6.544s4.057,5.908,1.682,12.437
				c-2.539,6.979-16.593,13.382-16.593,13.382l42.57-2.29c0,0-7.729-3.635-10.276-5.495c-2.701-1.973-3.737-10.575,8.194-9.867
				c10.949,0.649,11.472,8.347,24.862,6.049c11.338-1.946,15.032-5.919,15.888-8.315
				C356.488,235.627,340.994,233.689,340.994,233.689z M273.637,229.323c-22.921-13.525-36.641,3.395-20.688,18.063
				C275.433,268.058,300.719,245.303,273.637,229.323z"/>
		</g>
	</g>
	<g id="&#x424;&#x438;&#x433;&#x443;&#x440;&#x430;_210">
		<g>
			<path style="fill-rule:evenodd;clip-rule:evenodd;fill:#B75845;" d="M268.156,236.663c-22.186-7.793-14.169,10.316-0.961,13.481
				C282.67,253.852,283.773,242.148,268.156,236.663z M234.19,251.227c-1.483-2.023-2.918-3.446-4.21-5.165
				c-17.683-0.707-16.584,11.913-16.584,11.913s-12.138-6.571-1.901-14.916c5.041-4.108,12.133-1.9,16.827,0.392
				c-1.059-2.021-1.955-4.644-2.605-8.61c-2.992-18.26-23.851,4.827-34.597,12.987c-10.543,8.006-29.576,8.346-29.576,8.346
				s19.862,5.788,39.777,7.319c23.299,1.792,46.023-0.815,46.023-0.815S239.825,258.915,234.19,251.227z M186.815,224.306
				c8.125,2.682,13.578-12.795,24.642-16.438c10.276-3.385,26.69,1.155,26.69,1.155l11.521-7.153c0,0-7.019-3.902-18.433-3.725
				c-9.112,0.144-13.187,9.841-23.251,7.255c-9.578-2.461-20.75-4.413-22.933,9.569c-2.603,16.667-12.391-7.702-17.477-4.499
				c-9.209,5.801-4.403,21.036-4.403,21.036S175.907,220.706,186.815,224.306z M271.445,216.17
				c-17.515-6.814-31.534,2.654-31.534,2.654s-7.355,19.154,14.199,9.492c9.764-2.999,22.458,0.949,29.132,5.511
				c8.085,5.525,6.851,9.942,6.374,13.194c-0.867,5.916,4.707,9.027,7.525-1.439C297.143,245.582,298.666,226.762,271.445,216.17z
				 M325.279,219.333c-5.5-5.952-12.898-2.678-16.279,1.667c-3.246,4.171-2.585,9.307-2.585,9.307s4.409,9.331,10.998,15.145
				c6.021,5.313,9.989,5.355,9.989,5.355S344.067,239.667,325.279,219.333z M292.328,203.676
				c-7.354-10.037-27.889-2.689-27.889-2.689c22.391,1.44,32.796,19.696,32.796,19.696l9.896-11.266
				C305.549,210.997,300.314,214.576,292.328,203.676z M307.131,209.417c0.335-0.334,0.51-0.58,0.51-0.58L307.131,209.417z"/>
		</g>
	</g>
	<g id="&#x417;&#x430;&#x43B;&#x438;&#x432;&#x43A;&#x430;_&#x446;&#x432;&#x435;&#x442;&#x43E;&#x43C;_145">
		<g>
			<path style="fill-rule:evenodd;clip-rule:evenodd;fill:#D78259;" d="M432.353,343.257c-3.116-10.189-16.239-17.918-35.281-12.973
				c-8.131,2.111-16.303,8.496-23.512,14.128c-6.194,4.842-12.622,9.846-15.773,9.178c-0.46-0.098-1.152-0.375-1.847-1.665
				c-7.068-13.134-3.765-26.118,0.063-41.153c2.709-10.648,5.512-21.659,4.724-33.719c-0.765-11.705-4.249-18.134-7.042-21.47
				c4.101-1.443,6.889-2.89,8.027-4.262c1.9-2.286,2.709-4.554,2.404-6.741c-0.493-3.549-3.563-5.653-6.529-7.688
				c-0.61-0.419-1.229-0.844-1.831-1.286c-0.534-0.393-1.105-0.709-1.692-0.986c-0.464-2.601-1.39-9.646,0.074-18.789
				c0.498-3.108,2.122-6.543,3.843-10.179c2.659-5.62,5.41-11.432,4.604-17.301c-0.876-6.361-5.299-9.618-9.201-12.492
				c-4.24-3.123-7.902-5.82-7.979-12.082c-0.102-8.469,2.367-15.608,4.979-23.165c3.352-9.691,6.817-19.713,5.461-33.575
				c-0.782-7.986-7.812-13.521-14.011-18.403c-4.781-3.764-9.294-7.317-9.672-10.939c-1.454-13.936,3.945-25.396,4.002-25.509
				l0.138-0.288h-10.487c-3.568,4.856-11.221,17.452-9.455,34.262c0.653,6.207,6.806,9.912,13.318,13.835
				c6.125,3.689,12.459,7.504,13.453,13.178c1.121,6.388-2.646,14.983-6.289,23.296c-2.998,6.842-6.1,13.918-6.658,20.163
				c-2.051,22.937,6.078,26.438,12.014,28.994c3.285,1.415,5.029,2.288,5.629,5.181c0.926,4.476-0.648,7.035-2.473,9.999
				c-1.463,2.377-3.122,5.072-3.383,8.795c-0.602,8.604,1.421,18.424,2.52,22.973c-0.27-0.063-0.499-0.13-0.659-0.202
				c-0.531-1.72-0.854-3.869-1.196-6.138c-0.971-6.462-2.181-14.504-9.244-19.905c-2.242-1.714-4.82-2.583-7.668-2.583
				c-2.874,0-5.654,0.871-8.107,1.64c-2.031,0.637-3.949,1.236-5.511,1.236c-1.118,0-1.925-0.302-2.696-1.011
				c-2.061-1.894-3.794-4.991-5.629-8.271c-3.494-6.244-7.455-13.32-15.605-16.078c-0.461-0.156-0.935-0.269-1.414-0.352
				c1.14-2.31,2.826-5.564,4.735-8.709c0.956-1.575,2.421-3.017,3.97-4.543c4.279-4.213,9.604-9.456,5.752-20.093
				c-1.347-3.723-5.051-6.247-8.976-8.922c-5.58-3.804-11.351-7.737-11.273-15.34c0.038-3.731,2.231-7.538,4.554-11.568
				c2.479-4.298,5.039-8.741,5.016-13.479c-0.025-4.973-1.564-8.763-2.924-12.107c-1.211-2.982-2.258-5.559-2.18-8.585
				c0.321-12.175,6.295-24.855,6.356-24.981c0.104-0.222,0.16-0.452,0.188-0.683h-4.771c-1.57,3.597-5.941,14.54-6.229,25.547
				c-0.104,3.959,1.222,7.224,2.505,10.381c1.266,3.116,2.574,6.338,2.596,10.451c0.017,3.532-2.139,7.271-4.42,11.23
				c-2.508,4.351-5.102,8.85-5.15,13.75c-0.102,9.988,7.286,15.023,13.223,19.069c3.309,2.257,6.438,4.389,7.294,6.756
				c2.878,7.947-0.628,11.399-4.688,15.397c-1.677,1.649-3.409,3.356-4.653,5.405c-2.859,4.71-5.178,9.519-6.087,11.467
				c-1.933,0.613-3.812,1.639-5.651,2.816c0.885-3.482,2.4-8.135,4.895-12.328c1.084-1.822,2.715-3.318,4.439-4.9
				c3.736-3.425,7.971-7.309,7.371-15.341c-0.325-4.356-4.428-6.672-8.771-9.124c-6.963-3.93-14.855-8.384-14.31-21.813
				c0.144-3.545,2.582-6.536,5.165-9.704c2.898-3.555,5.896-7.232,5.989-12.122c0.089-4.686-1.31-8.974-2.663-13.12
				c-1.176-3.606-2.285-7.012-2.108-10.026c0.886-15.041,7.277-22.415,7.341-22.487c0.336-0.377,0.514-0.837,0.552-1.304h-5.146
				c-2.184,3.181-6.455,10.91-7.197,23.529c-0.229,3.857,1.01,7.652,2.319,11.671c1.237,3.795,2.517,7.72,2.442,11.653
				c-0.063,3.351-2.454,6.283-4.986,9.389c-2.795,3.427-5.961,7.311-6.165,12.341c-0.656,16.154,9.714,22.006,16.573,25.878
				c3.419,1.929,6.371,3.595,6.518,5.572c0.438,5.876-2.516,8.585-5.938,11.723c-1.888,1.73-3.839,3.521-5.258,5.906
				c-4.234,7.119-5.893,15.192-6.393,18.191c-2.921,1.91-5.846,3.477-8.555,3.25c-3.383-0.288-7.514-1.751-11.632-3.322
				c0.411-2.723,1.324-7.855,3.015-13.343c0.673-2.187,1.762-3.919,2.917-5.754c2.263-3.601,4.828-7.683,3.569-15.12
				c-1.065-6.301-5.255-11.99-9.692-18.013c-6.913-9.386-14.061-19.091-11.404-32.788c2.825-14.567,7.96-19.096,12.491-23.09
				c2.581-2.276,5.019-4.427,6.728-7.976c3.597-7.473,0.135-16.071-1.688-19.698h-13.882c-3.174,5.599-12.526,23.288-17.754,45.856
				c-6.3,27.191,4.474,36.837,13.13,44.589c4.307,3.856,8.027,7.187,9.077,12.079c1.009,4.699-1.486,7.386-4.375,10.496
				c-1.944,2.094-3.955,4.259-4.878,7.129c-1.362,4.238-1.548,8.168-1.405,11.015c-1.162-0.198-2.297-0.319-3.393-0.319
				c-0.737,0-1.449,0.052-2.117,0.155c-8.77,1.349-12.492,7.369-14.956,11.353c-0.558,0.903-1.294,2.094-1.758,2.577
				c-0.534-0.24-1.525-1.038-2.217-1.594c-2.596-2.087-6.52-5.24-13.108-5.24c-1.393,0-2.866,0.143-4.377,0.424
				c-1.513,0.281-2.853,0.683-4.072,1.158c-0.338-3.396-0.397-7.287,0.424-9.247c1.028-2.453,2.831-4.799,4.742-7.281
				c3.982-5.179,8.496-11.047,7.258-19.781c-1.217-8.586-7.184-15.87-13.5-23.582c-8.076-9.86-17.231-21.036-18.643-37.451
				c-1.476-17.144,2.738-38.298,3.591-42.335h-13.499c-1.917,6.407-5.847,22.568-3.851,42.188
				c2.561,25.169,12.729,36.099,20.898,44.88c5.144,5.526,9.584,10.3,11.31,17.508c1.325,5.534-1.313,8.419-4.651,12.071
				c-2.208,2.415-4.491,4.912-5.545,8.344c-2.871,9.352,0.66,21.276,1.454,23.739c-0.365,0.615-0.704,1.218-1.025,1.79
				c-0.949,1.691-1.845,3.288-2.746,3.85c-1.163,0.725-2.933,0.87-4.806,1.023c-3.546,0.289-8.402,0.688-11.014,5.884
				c-2.377,4.729-1.185,10.438-0.313,14.604c0.157,0.752,0.35,1.677,0.462,2.39c-0.009,0.002-0.02,0.003-0.029,0.005
				c-2.454,0.372-7.02,1.065-10.081,7.577c-2.843,6.052-4.908,12.881,1.331,17.657c0.226,0.172,2.258,1.645,7.828,3.526
				c0.277,0.146,0.582,0.244,0.899,0.297c1.553,0.502,3.362,1.029,5.441,1.564c-4.134,2.303-8.637,6.358-10.23,13.402
				c-6.334,27.99,3.96,33.244,10.771,36.719c4.522,2.309,6.214,3.172,4.024,8.979c-2.999,7.953-0.282,11.678,1.515,14.143
				c1.208,1.658,1.305,1.941,0.942,2.762c-0.924,2.087-2.727,3.703-4.635,5.413c-3.046,2.729-6.498,5.822-6.35,11.279
				c0.164,6.045,3.327,8.229,5.42,9.674c1.943,1.342,2.405,1.661,0.926,4.983c-1.646,3.699-2.843,3.699-4.827,3.699
				c-0.322,0-0.657-0.006-1.002-0.013c-3.255-0.062-7.436-0.031-13.035,3.438c-6.793,4.21-11.255,10.965-11.935,18.067
				c-0.459,4.804,0.562,11.978,8.036,18.881c6.002,5.543,3.387,11.577-1.288,20.152c-2.743,5.03-5.334,9.783-4.335,14.225
				c0.418,1.972,1.83,3.197,3.685,3.198c0,0,0,0,0,0c5.169,0,13.937-10.978,17.224-19.631c6.432-16.932,1.423-22.471-2.235-26.516
				c-2.348-2.597-3.64-4.026-2.382-8.003c2.954-9.337,7.846-10.576,13.51-12.013c3.073-0.777,6.252-1.583,8.951-3.809
				c10.725-8.847,7.343-14.445,4.36-19.386c-1.63-2.7-3.17-5.249-2.826-8.65c0.235-2.324,1.429-3.242,3.237-4.633
				c2.169-1.666,4.869-3.742,5.192-8.603c0.22-3.292-1.473-5.562-2.966-7.562c-1.444-1.934-2.324-3.211-2.226-5.021
				c0.193-3.611,1.255-5.173,2.484-6.98c1.416-2.082,3.02-4.439,2.856-9.351c-0.163-4.974-5.698-7.55-10.581-9.823
				c-2.796-1.302-6.627-3.086-6.972-4.566c-2.113-9.101-1.342-16.458,2.294-21.868c4.767-7.093,13.031-8.492,13.107-8.505
				l0.789-0.121c14.313,1.868,34.016,3.269,60.958,3.269c2.51,0,5.089-0.013,7.724-0.038c10.45-0.101,20.899-0.586,30.945-1.351
				c3.395,2.27,9.669,7.484,11.457,15.965c3.432,16.284,0.896,32.118-1.343,46.09c-2.167,13.526-4.038,25.207-0.164,34.384
				c6.306,14.942,16.603,17.174,22.18,17.174c0.001,0,0.001,0,0.001,0c3.513,0,6.149-0.83,6.928-1.104
				c2.605,1.98,5.613,2.76,8.532,3.5c5.664,1.436,10.555,2.675,13.511,12.013c1.257,3.976-0.037,5.406-2.384,8.003
				c-3.657,4.044-8.667,9.584-2.234,26.517c3.288,8.651,12.057,19.628,17.224,19.628c1.854,0,3.267-1.226,3.681-3.171
				c1.005-4.468-1.587-9.221-4.33-14.253c-4.675-8.573-7.289-14.607-1.288-20.15c7.475-6.902,8.495-14.077,8.035-18.881
				c-0.68-7.104-5.142-13.858-11.936-18.07c-5.601-3.47-9.775-3.506-13.035-3.436c-0.347,0.006-0.681,0.013-1.004,0.013
				c-1.983,0-3.18,0-4.826-3.7c-1.478-3.323-1.016-3.641,0.928-4.983c1.35-0.932,3.141-2.178,4.289-4.562
				c2.207,4.265,5.326,7.572,9.066,9.419c2.533,1.251,6.16,2.217,10.781,1.429c0.168-0.003,0.337-0.02,0.507-0.062
				c10.746-2.688,23.661-3.819,25.788-0.961c1.287,1.73,1.126,2.206-2.159,6.376c-2.564,3.257-6.079,7.719-9.424,15.272
				c-6.95,15.704-1.364,28.897,4.821,33.25c1.528,1.075,3.104,1.615,4.563,1.615c1.39,0,2.671-0.49,3.7-1.472
				c2.697-2.568,1.384-5.902,0.113-9.127c-1.286-3.268-2.889-7.336-1.913-12.506c1.386-7.337,5.654-12.585,9.781-17.661
				c5.213-6.409,10.136-12.465,7.848-21.375c-1.026-3.993-3.222-6.865-6.525-8.537c-2.328-1.179-4.951-1.595-7.485-1.606
				c4.751-2.915,9.319-5.179,13.691-5.892c4.502-0.733,11.894-0.054,13.797,4.825c1.716,4.404,0.032,8.211-2.3,13.482
				c-1.34,3.026-2.858,6.458-3.829,10.46c-2.255,9.305-4.365,26.119,6.84,34.196c0.713,0.514,1.366,0.674,1.905,0.674
				c0.592,0,1.046-0.193,1.289-0.327c1.964-1.078,1.82-3.545,1.504-8.949c-0.418-7.149-1.119-19.116,4.038-26.436
				C434.569,364.317,435.926,354.929,432.353,343.257z M346.42,209.911c0.184-2.63,1.364-4.548,2.731-6.77
				c2.028-3.296,4.327-7.032,3.041-13.241c-1.099-5.301-4.888-6.932-8.23-8.371c-5.457-2.351-11.1-4.78-9.336-24.5
				c0.493-5.521,3.446-12.258,6.3-18.772c3.91-8.919,7.951-18.141,6.598-25.855c-1.346-7.676-8.889-12.219-15.545-16.228
				c-5.534-3.334-10.764-6.482-11.183-10.48c-1.757-16.714,7.03-29.167,9.454-32.245h0.595c-1.679,4.655-4.245,13.908-3.118,24.709
				c0.572,5.496,5.807,9.617,11.348,13.98c5.769,4.543,11.735,9.241,12.332,15.334c1.261,12.893-2.041,22.445-5.236,31.683
				c-2.623,7.587-5.336,15.431-5.225,24.677c0.102,8.482,5.25,12.273,9.794,15.62c3.652,2.689,6.809,5.013,7.426,9.507
				c0.626,4.554-1.837,9.756-4.218,14.787c-1.777,3.758-3.617,7.645-4.215,11.381c-1.229,7.677-0.903,13.945-0.446,17.734
				l-0.138-0.05C348.281,229.42,345.801,218.749,346.42,209.911z M241.928,173.411c0.619-1.927,2.212-3.642,3.899-5.458
				c3.103-3.341,6.964-7.498,5.469-14.468c-1.355-6.311-5.779-10.271-10.463-14.466c-8.187-7.329-17.465-15.638-11.76-40.26
				c5.259-22.704,15.078-40.79,17.656-45.297l5.461,0.063c1.41,2.712,4.708,10.186,1.844,16.137
				c-1.317,2.735-3.329,4.51-5.659,6.563c-4.814,4.245-10.806,9.527-13.92,25.587c-3.029,15.616,5.057,26.596,12.191,36.281
				c4.113,5.583,7.997,10.858,8.887,16.111c0.974,5.761-0.758,8.516-2.951,12.005c-1.255,1.998-2.554,4.064-3.402,6.813
				c-1.604,5.204-2.527,10.015-3.013,13.026c-1.823-0.689-3.605-1.331-5.339-1.865C240.586,181.8,240.52,177.793,241.928,173.411z
				 M183.078,178.196c0.758-2.472,2.611-4.498,4.572-6.644c3.549-3.882,7.573-8.283,5.697-16.118
				c-1.999-8.349-7.042-13.77-12.381-19.509c-8.118-8.725-17.318-18.612-19.728-42.292c-2.017-19.828,2.41-36.341,4.008-41.475
				l4.192,0.493c-1.34,6.67-4.721,25.719-3.323,41.962c1.531,17.791,11.15,29.534,19.637,39.895
				c6.167,7.529,11.493,14.031,12.534,21.382c0.975,6.878-2.596,11.521-6.378,16.437c-2,2.601-4.067,5.29-5.319,8.277
				c-1.523,3.634-1,9.81-0.534,13.269c-0.917,0.677-1.717,1.41-2.433,2.171C182.554,191.668,181.256,184.125,183.078,178.196z
				 M165.99,215.843c1.016-2.021,2.503-2.325,6.186-2.627c2.38-0.194,5.079-0.416,7.466-1.903c2.195-1.367,3.454-3.611,4.787-5.986
				c2.16-3.85,4.394-7.831,11.012-9.063c1.153-0.215,2.26-0.323,3.288-0.323c4.495,0,6.979,1.997,9.383,3.929
				c1.797,1.444,3.656,2.938,6.163,2.976c3.215,0,4.933-2.779,6.595-5.467c2.223-3.595,4.744-7.671,10.802-8.604
				c0.37-0.057,0.778-0.086,1.213-0.086c3.616,0,8.708,1.962,13.633,3.859c5.077,1.955,10.327,3.978,15.039,4.379
				c5.523,0.464,10.515-2.929,14.853-5.909c3.777-2.595,7.283-4.992,9.861-4.124c5.983,2.024,9.205,7.781,12.32,13.35
				c2.074,3.707,4.033,7.208,6.795,9.745c0.262,0.241,0.533,0.461,0.811,0.668c-0.631,0.265-1.257,0.549-1.873,0.874
				c-0.683,0.36-1.352,0.768-2.005,1.237c-0.327,0.237-0.642,0.483-0.974,0.778c-0.276,0.231-0.588,0.549-0.852,0.797
				c-1.102,1.074-2.144,2.193-3.155,3.339c-0.12,0.137-0.234,0.275-0.354,0.412c-0.72-0.922-1.435-1.845-2.167-2.763
				c-2.468-3.069-5.018-6.126-8.048-8.909c-1.516-1.389-3.157-2.717-5.045-3.829c-0.94-0.557-1.95-1.047-3.018-1.445
				c-0.538-0.195-1.085-0.373-1.649-0.511l-1.455-0.348c-3.773-0.908-7.742-1.842-11.88-2.161c-4.124-0.339-8.43-0.04-12.53,1.138
				c-4.104,1.163-7.934,3.161-11.303,5.637c-1.463,1.068-2.827,2.238-4.131,3.462c-3.081-1.221-6.255-2.174-9.527-2.84
				c-3.404-0.681-6.917-1.097-10.537-0.774c-1.803,0.167-3.647,0.564-5.407,1.309c-1.7,0.702-3.322,1.617-4.822,2.689
				c-3.011,2.149-5.41,4.969-7.587,7.584c-1.083,1.302-2.18,2.551-3.238,3.436c-1.1,0.922-1.889,1.146-2.964,1.129
				c-2.203-0.077-6.081-1.471-9.984-1.233c-1.937,0.052-3.942,0.485-5.698,1.039c-1.941,0.631-3.732,1.622-5.232,2.898
				c-1.801,1.541-3.177,3.41-4.102,5.433c-0.124-0.759-0.289-1.573-0.476-2.47C165.492,223.252,164.544,218.719,165.99,215.843z
				 M170.157,270.839c-4.386,6.484-5.387,15.037-2.975,25.422c0.835,3.597,5.011,5.542,9.433,7.601
				c3.718,1.73,7.932,3.693,8.006,5.929c0.115,3.458-0.809,4.815-2.087,6.693c-1.333,1.96-2.99,4.397-3.251,9.252
				c-0.188,3.512,1.639,5.959,3.106,7.926c1.365,1.827,2.195,3.026,2.09,4.598c-0.189,2.85-1.562,3.903-3.461,5.364
				c-2.017,1.55-4.528,3.48-4.955,7.718c-0.494,4.883,1.69,8.498,3.445,11.405c2.729,4.518,4.375,7.243-3.379,13.64
				c-1.927,1.588-4.375,2.209-7.209,2.928c-5.775,1.463-12.963,3.285-16.667,14.99c-2.029,6.413,0.816,9.561,3.327,12.338
				c3.361,3.718,6.836,7.561,1.373,21.941c-3.152,8.3-9.872,15.347-12.464,16.568c-0.304-2.794,1.779-6.613,3.975-10.644
				c4.19-7.684,9.403-17.247,0.399-25.562c-4.854-4.482-7.144-9.731-6.622-15.18c0.548-5.726,4.228-11.222,9.844-14.701
				c3.95-2.449,6.871-2.786,9.44-2.786c0.402,0,0.789,0.008,1.162,0.015c0.375,0.007,0.737,0.013,1.086,0.013
				c3.754,0,6.552-1.061,8.902-6.346c2.754-6.189,0.405-8.482-2.467-10.466c-1.821-1.257-3.394-2.343-3.497-6.126
				c-0.088-3.229,1.792-5.081,4.868-7.836c2.074-1.858,4.424-3.966,5.737-6.929c1.446-3.268-0.208-5.537-1.416-7.193
				c-1.521-2.088-3.095-4.245-0.946-9.942c3.599-9.539-1.59-12.188-6.169-14.524c-6.245-3.188-14.018-7.153-8.449-31.763
				c2.084-9.212,10.695-11.972,13.584-12.647c1.409,0.278,2.908,0.555,4.489,0.826C175.609,264.925,172.559,267.288,170.157,270.839
				z M175.771,256.827c1.874-0.485,3.733-1.043,5.562-1.728c3.205-1.161,6.216-2.915,8.84-4.979
				c2.631-2.068,5.007-4.417,6.975-7.049c-2.354,2.282-5.029,4.185-7.837,5.743c-2.824,1.557-5.766,2.688-8.855,3.339
				c-3.089,0.665-6.271,1-9.459,1.173c-3.036,0.156-6.152,0.162-9.12,0.008c-4.507-1.509-6.169-2.616-6.215-2.651
				c-1.459-1.116-3.274-2.505,0.437-10.404c1.71-3.639,3.595-3.926,5.591-4.229c1.488-0.226,3.526-0.534,4.624-2.552
				c0.158-0.291,0.266-0.598,0.352-0.914c1.94-2.332,4.175-4.216,6.545-5.372c1.319-0.653,2.703-1.053,4.071-1.252
				c1.551-0.293,2.955-0.307,4.432-0.271c1.462,0.067,2.918,0.273,4.546,0.536c1.625,0.229,3.459,0.635,5.794,0.402
				c1.149-0.124,2.395-0.469,3.455-1.055l0.465-0.263l0.267-0.179l0.738-0.529c0.431-0.351,0.833-0.711,1.186-1.077
				c1.422-1.467,2.391-2.957,3.402-4.345c1.961-2.793,3.877-5.355,6.266-7.421c1.186-1.034,2.476-1.938,3.871-2.681
				c1.328-0.723,2.829-1.181,4.399-1.504c3.153-0.628,6.529-0.61,9.867-0.298c3.082,0.313,6.18,0.851,9.215,1.608
				c-1.5,1.453-2.901,2.992-4.212,4.585c-0.638,0.769-1.303,1.611-1.892,2.423c-0.655,0.917-1.239,1.786-1.78,2.723
				c-1.095,1.852-1.998,3.855-2.657,5.955c-0.237,0.751-0.425,1.518-0.589,2.29c-0.744-0.146-1.483-0.254-2.26-0.339
				c-1.595-0.152-3.256-0.16-4.92,0.262c-1.685,0.465-2.945,1.265-4.178,2.086c-1.214,0.838-2.345,1.744-3.409,2.712
				c1.325-0.547,2.68-1.007,4.031-1.361c1.335-0.343,2.744-0.599,3.876-0.48c1.159,0.126,2.344,0.552,3.481,1.099
				c0.969,0.473,1.999,1.087,2.818,1.699c0.023,1.731,0.213,3.455,0.58,5.126c0.347,1.638,0.836,3.223,1.438,4.75
				c-1.865-0.795-3.825-1.347-5.865-1.667c-1.521-0.214-3.095-0.317-4.715-0.143c-1.615,0.164-3.305,0.596-4.881,1.562
				c-1.557,0.907-3.006,2.615-3.493,4.258c-0.661,1.66-0.814,3.683-0.187,5.357c0.602,1.682,1.693,2.962,2.885,3.946
				c1.199,0.99,2.488,1.768,3.888,2.312c0.087,0.033,0.189,0.011,0.253-0.064c0.081-0.096,0.068-0.237-0.027-0.317l-0.008-0.008
				c-2.149-1.817-4.023-4.246-4.26-6.551c-0.29-2.201,1.344-4.292,3.118-5.009c1.939-0.836,4.565-1.262,7.274-1.474
				c2.186-0.179,4.473-0.247,6.82-0.353c0.834,1.788,1.812,3.493,2.897,5.095c1.176,1.741,2.47,3.381,3.856,4.933
				c1.383,1.524,2.736,2.894,4.432,4.309c1.347,1.319,2.646,2.392,4.076,3.446C209.469,261.736,188.789,259.34,175.771,256.827z
				 M288.403,257.21c-1.981,1.436-4.405,2.359-6.991,2.966c3.104-1.392,5.849-3.77,7.521-6.754c0.973-1.689,1.641-3.518,2.065-5.367
				c0.213-0.925,0.366-1.857,0.479-2.79l0.069-0.699l0.018-0.175l0.012-0.233l0.01-0.335c0.011-0.218-0.017-0.565-0.033-0.842
				c-0.03-0.277-0.075-0.533-0.119-0.799c-0.442-2.101-1.599-3.819-2.88-5.244c-1.303-1.425-2.78-2.603-4.322-3.64
				c-3.096-2.062-6.455-3.587-9.912-4.773c-3.461-1.175-7.046-1.996-10.716-2.305c-1.835-0.149-3.697-0.155-5.563,0.08
				c-1.855,0.249-3.762,0.737-5.448,1.857c-1.695,1.1-2.92,3.07-3.068,5.116c-0.204,1.874,0.049,3.854,0.684,5.638
				c1.281,3.607,3.883,6.488,6.818,8.676c2.963,2.185,6.35,3.76,9.935,4.576c1.791,0.401,3.645,0.597,5.502,0.471
				c1.848-0.129,3.738-0.602,5.343-1.657c0.802-0.516,1.516-1.195,2.075-1.958c0.589-0.806,0.956-1.811,0.891-2.843
				c-0.176-2.094-1.626-3.559-2.977-4.73c-2.855-2.315-6.143-3.858-9.502-5.155c-0.149-0.059-0.319,0.015-0.382,0.163
				c-0.063,0.151,0.011,0.326,0.161,0.389l0.015,0.006c3.258,1.347,6.495,2.981,9.147,5.25c1.271,1.131,2.483,2.554,2.545,4.125
				c0.078,1.548-1.199,2.932-2.574,3.821c-2.883,1.773-6.626,1.647-9.95,0.854c-3.374-0.831-6.58-2.393-9.331-4.5
				c-2.731-2.104-5.065-4.837-6.128-8.032c-0.528-1.595-0.716-3.249-0.505-4.928c0.162-1.541,1.022-2.886,2.337-3.726
				c1.32-0.851,2.975-1.275,4.649-1.464c1.686-0.183,3.418-0.151,5.141,0.021c3.451,0.351,6.874,1.195,10.159,2.375
				c3.278,1.189,6.456,2.709,9.279,4.665c1.403,0.98,2.719,2.076,3.808,3.313c1.077,1.233,1.924,2.634,2.19,4.062l0.068,0.527
				c-0.001,0.171,0.026,0.269,0.015,0.497l-0.018,0.334c-0.002,0.027-0.009,0.178-0.006,0.103l-0.02,0.158l-0.074,0.633
				c-0.115,0.84-0.268,1.671-0.468,2.485c-0.405,1.624-1.013,3.178-1.849,4.573c-1.654,2.813-4.336,4.849-7.447,5.892
				c-3.111,1.058-6.56,1.23-9.936,0.863c-3.387-0.372-6.739-1.27-9.92-2.56c-6.393-2.485-11.806-7.043-15.835-12.566
				c-1.995-2.761-3.623-5.794-4.572-8.966c-0.954-3.156-1.163-6.494-0.154-9.393c0.989-2.916,3.193-5.227,6.029-6.843
				c2.81-1.629,6.026-2.546,9.335-2.832c6.649-0.563,13.506,1.167,19.665,4.077c6.152,2.937,11.828,7.13,15.934,12.401
				c2.04,2.626,3.633,5.563,4.396,8.609c0.367,1.507,0.547,3.097,0.442,4.54c-0.005,0.303-0.062,0.755-0.122,1.207
				c-0.042,0.282-0.125,0.772-0.2,1.142c-0.152,0.796-0.361,1.567-0.599,2.322C292.568,252.907,290.861,255.464,288.403,257.21z
				 M298.346,251.386c0.283-0.955,0.521-1.918,0.689-2.879c0.093-0.509,0.156-0.9,0.234-1.504c0.049-0.436,0.102-0.87,0.123-1.462
				c0.109-2.127-0.174-4.127-0.677-6.081c-1.052-3.884-3.044-7.311-5.41-10.294c-4.788-5.957-11.017-10.376-17.771-13.506
				c-6.764-3.071-14.275-4.921-21.926-4.186c-3.801,0.377-7.612,1.499-10.971,3.509c-3.333,1.928-6.405,5.114-7.649,9.055
				c-1.295,3.927-0.889,8.071,0.257,11.704c1.156,3.669,3.02,6.992,5.243,9.991c2.234,2.996,4.845,5.688,7.78,7.995
				c2.917,2.326,6.261,4.185,9.719,5.513c2.293,0.894,4.665,1.579,7.087,2.06c-2.111-0.034-4.24-0.087-6.377-0.115l-2.716-0.027
				l-1.363,0.003c-0.491-0.003-0.686-0.003-1.055-0.041c-1.316-0.128-2.736-0.574-4.128-1.231c-2.761-1.304-5.555-3.439-7.752-5.625
				l-0.127-0.127l-0.159-0.134c-1.233-1.041-2.601-2.417-3.777-3.756c-1.197-1.367-2.308-2.806-3.298-4.304
				c-1.964-3.003-3.505-6.232-4.238-9.576c-0.749-3.339-0.634-6.766,0.358-10.011c0.497-1.62,1.188-3.203,2.068-4.71
				c0.425-0.756,0.93-1.507,1.398-2.18c0.551-0.771,1.089-1.461,1.69-2.197c2.353-2.866,4.925-5.512,7.775-7.727
				c2.855-2.205,6.009-3.937,9.388-4.986c3.379-1.059,6.966-1.413,10.608-1.207c3.653,0.191,7.328,0.944,11.145,1.769l1.396,0.298
				c0.385,0.081,0.768,0.197,1.15,0.325c0.766,0.265,1.525,0.604,2.271,1.023c1.496,0.829,2.938,1.922,4.322,3.132
				c2.762,2.441,5.346,5.283,7.891,8.174c5.063,5.829,9.975,11.932,15.104,17.837c2.557,2.96,5.16,5.887,7.813,8.764l0.242,0.257
				c-2.029-0.618-4.301-0.774-6.499-0.157c-0.703,0.188-1.393,0.441-2.056,0.746c-0.663,0.3-1.304,0.612-1.972,1.051
				c-0.652,0.428-1.314,0.967-1.846,1.729c-0.54,0.741-0.93,1.734-0.975,2.751c-0.1,2.096,0.963,3.696,2.063,4.663
				c1.126,0.998,2.412,1.616,3.852,1.821c0.045,0.007,0.094,0.001,0.139-0.021c0.123-0.057,0.178-0.203,0.121-0.328l-0.01-0.02
				c-0.57-1.249-1.111-2.361-1.453-3.368c-0.342-1.021-0.375-1.851-0.199-2.264c0.145-0.392,0.359-0.944,0.988-1.702
				c0.6-0.729,1.539-1.396,2.459-1.793c1.878-0.845,4.141-0.962,6.406-0.429c0.781,0.171,1.554,0.434,2.319,0.732
				c0.221,0.2,0.438,0.411,0.663,0.592c1.619,1.324,3.475,2.354,5.428,3.031c3.934,1.36,8.115,1.314,12.012,0.578
				c3.921-0.747,7.639-2.167,11.097-4.065c0.135-0.075,0.192-0.244,0.126-0.386c-0.068-0.149-0.245-0.214-0.394-0.146l-0.015,0.007
				c-3.494,1.615-7.266,2.677-11.037,3.191c-2.629,0.34-5.312,0.319-7.848-0.196c2.008-1.233,3.609-3.074,4.672-5.217
				c1.182-2.386,1.704-5.089,1.692-7.748c-0.015-2.651-0.507-5.319-1.231-7.82c-0.741-2.53-1.75-4.995-3.109-7.34
				c-1.369-2.321-3.068-4.602-5.502-6.348c-2.414-1.755-5.775-2.563-8.838-1.846c-1.406,0.325-2.91,0.922-4.125,1.777
				c-1.224,0.868-2.273,1.91-3.066,3.084c-1.603,2.331-2.459,4.958-2.563,7.609c-0.002,0.082,0.039,0.162,0.114,0.206
				c0.108,0.063,0.248,0.025,0.311-0.084l0.009-0.015c1.269-2.199,2.754-4.188,4.457-5.681c1.731-1.494,3.584-2.374,5.664-2.56
				c1.934-0.187,3.824,0.243,5.627,1.264c1.824,1.006,3.492,2.651,4.85,4.56c1.364,1.912,2.473,4.074,3.352,6.324
				c0.88,2.283,1.53,4.585,1.769,6.983c0.26,2.375,0.106,4.811-0.707,7.079c-0.778,2.163-2.162,4.207-4.046,5.63
				c-0.863-0.209-1.708-0.476-2.523-0.814c-1.691-0.702-3.238-1.689-4.569-2.916c-1.292-1.19-2.487-2.796-3.757-4.252
				c-2.51-2.962-4.965-5.968-7.377-9.011c-3.021-3.789-5.954-7.646-8.92-11.504c0.285-0.741,0.583-1.483,0.889-2.213
				c0.559-1.328,1.154-2.64,1.807-3.914l0.497-0.938c0.14-0.265,0.319-0.559,0.51-0.841c0.384-0.565,0.825-1.118,1.306-1.648
				c0.51-0.562,1.061-1.1,1.637-1.617c1.533,0.948,3.275,1.429,5.204,1.429c2.473,0,4.92-0.767,7.289-1.508
				c2.244-0.704,4.365-1.368,6.329-1.368c1.554,0,2.842,0.433,4.057,1.36c5.153,3.941,6.079,10.104,6.977,16.066
				c0.397,2.643,0.771,5.138,1.513,7.379c1.167,3.535,5.081,4.012,8.225,4.396c2.076,0.253,4.428,0.539,5.735,1.503
				c0.655,0.481,1.329,0.944,1.995,1.4c1.633,1.12,3.87,2.654,4.002,3.604c0.062,0.436-0.346,1.229-1.086,2.119
				c-2.714,3.087-28.235,9.58-64.228,12.74C295.536,257.858,297.404,254.645,298.346,251.386z M318.726,318.001
				c1.229,1.809,2.292,3.369,2.485,6.98c0.098,1.809-0.783,3.087-2.227,5.021c-1.492,2.001-3.186,4.269-2.968,7.562
				c0.323,4.859,3.024,6.935,5.194,8.602c1.807,1.391,3.002,2.309,3.237,4.633c0.343,3.4-1.196,5.95-2.826,8.65
				c-1.079,1.787-2.208,3.662-2.704,5.745c-1.549-0.068-2.742-0.578-3.699-1.629c-4.895-5.371-3.255-22.874-1.67-39.802
				c1.404-14.99,2.855-30.491,0.818-42.477c-1.371-8.082-3.414-13.643-4.861-16.857c2.528-0.313,5.007-0.641,7.419-0.983
				l2.552,0.438c0.074,0.013,7.386,1.337,11.774,7.945c3.629,5.466,4.359,13.013,2.171,22.432c-0.344,1.479-4.173,3.263-6.971,4.563
				c-4.883,2.274-10.418,4.852-10.582,9.826C315.707,313.562,317.311,315.92,318.726,318.001z M319.473,375.79
				c-5.463,0-13.034-2.507-18.072-14.447c-3.377-8-1.599-19.097,0.459-31.945c2.299-14.353,4.904-30.621,1.303-47.715
				c-1.507-7.148-5.598-12.26-9.283-15.589c3.73-0.335,7.387-0.707,10.953-1.111c1.234,2.482,3.623,8.12,5.141,17.052
				c1.936,11.407,0.514,26.61-0.864,41.314c-1.827,19.527-3.407,36.392,2.813,43.221c1.82,1.999,4.195,3.035,7.053,3.1
				c0.454,1.68,1.439,3.5,3.182,5.501c0.07,0.126,0.148,0.269,0.216,0.388C321.547,375.69,320.563,375.79,319.473,375.79z
				 M334.739,358.504c-2.872,1.982-5.22,4.275-2.467,10.465c2.351,5.285,5.147,6.349,8.899,6.349c0.352,0,0.714-0.008,1.09-0.015
				c2.742-0.057,6.03-0.063,10.6,2.77c5.617,3.481,9.299,8.978,9.846,14.704c0.521,5.448-1.768,10.697-6.621,15.181
				c-9.005,8.313-3.792,17.875,0.397,25.56c2.168,3.976,4.224,7.746,3.959,10.635c-2.605-1.244-9.302-8.277-12.448-16.558
				c-5.463-14.382-1.987-18.225,1.373-21.942c2.511-2.777,5.357-5.924,3.326-12.338c-3.703-11.705-10.891-13.526-16.665-14.991
				c-2.834-0.719-5.282-1.339-7.21-2.929c-1.217-1.004-2.18-1.91-2.966-2.754c-0.806-1.455-1.767-3.31-2.671-5.349
				c0.021-1.815,1.023-3.494,2.258-5.537c1.754-2.906,3.938-6.522,3.445-11.402c-0.427-4.239-2.938-6.17-4.957-7.721
				c-1.898-1.46-3.271-2.514-3.46-5.362c-0.104-1.57,0.726-2.771,2.091-4.599c1.467-1.967,3.295-4.413,3.105-7.927
				c-0.26-4.853-1.918-7.291-3.251-9.251c-1.277-1.879-2.202-3.236-2.087-6.692c0.073-2.237,4.289-4.2,8.008-5.932
				c4.42-2.057,8.598-4.001,9.432-7.598c2.486-10.7,1.529-19.44-2.847-25.976c-2.257-3.374-5.081-5.621-7.648-7.102l3.2-0.77
				c2.084,0.425,11.919,2.942,14.143,12.768c5.567,24.609-2.205,28.574-8.449,31.76c-4.579,2.338-9.77,4.984-6.17,14.524
				c2.149,5.699,0.576,7.858-0.945,9.944c-1.208,1.657-2.863,3.927-1.417,7.192c1.312,2.965,3.664,5.071,5.737,6.93
				c3.076,2.755,4.955,4.607,4.869,7.836C338.135,356.161,336.561,357.246,334.739,358.504z M338.107,342.84
				c-0.584-0.563-1.181-1.098-1.763-1.62c-1.907-1.71-3.71-3.325-4.634-5.413c-0.363-0.818-0.268-1.104,0.941-2.76
				c1.797-2.465,4.514-6.191,1.514-14.145c-2.189-5.807-0.498-6.671,4.023-8.978c1.242-0.634,2.6-1.328,3.951-2.206
				C340.654,316.302,338.066,332.742,338.107,342.84z M396.496,357.252c2.137,1.082,3.518,2.936,4.219,5.668
				c1.729,6.732-2.118,11.464-6.987,17.452c-4.269,5.25-9.107,11.201-10.703,19.646c-1.215,6.436,0.728,11.367,2.146,14.969
				c0.923,2.343,1.448,3.799,0.959,4.264c-0.714,0.687-2.187-0.257-2.62-0.563c-4.801-3.378-9.173-14.549-3.309-27.796
				c3.115-7.043,6.43-11.248,8.848-14.318c3.165-4.019,5.665-7.19,2.233-11.799c-2.446-3.287-8.669-3.812-14.994-3.336
				c1.793-1.166,3.568-2.367,5.322-3.561C384.433,356.81,391.816,354.881,396.496,357.252z M419.47,400.396
				c0.052,0.883,0.108,1.854,0.145,2.74c-6.509-7.203-4.706-20.075-2.896-27.542c0.876-3.615,2.247-6.713,3.573-9.708
				c2.452-5.541,4.768-10.774,2.376-16.906c-2.683-6.876-11.551-8.764-18.668-7.606c-7.956,1.298-15.837,6.657-24.18,12.332
				c-0.13,0.089-0.263,0.178-0.394,0.267c-0.133,0.072-0.257,0.155-0.369,0.25c-3.73,2.536-7.563,5.115-11.334,7.217
				c-2.041,1.139-3.997,1.923-5.871,2.385c-0.161,0.038-0.322,0.077-0.471,0.113c-3.192,0.694-6.131,0.4-8.778-0.906
				c-5.019-2.478-8.683-8.52-9.8-16.164c-1.564-10.7,4.658-43.555,4.723-43.886c0.037-0.19,0.039-0.379,0.027-0.563
				c3.308-5.105,4.935-13.635,1.41-29.21c-0.088-0.386-0.216-0.727-0.32-1.095c-0.038-0.804-0.42-7.061-2.949-10.417
				c-0.899-1.193-1.921-2.181-2.918-2.998c2.221-0.531,4.288-1.07,6.178-1.614c1.992,1.763,6.465,7.127,7.321,20.26
				c0.742,11.354-1.971,22.016-4.594,32.327c-3.888,15.275-7.56,29.704,0.33,44.367c1.166,2.166,2.801,3.484,4.857,3.915
				c5.216,1.092,11.486-3.813,19.438-10.026c6.866-5.365,14.65-11.446,21.886-13.325c16.154-4.199,27.461,1.999,29.896,9.96
				c3.173,10.367,2.044,18.313-3.774,26.57C418.26,379.726,419.017,392.665,419.47,400.396z"/>
		</g>
	</g>
	<g id="&#x424;&#x438;&#x433;&#x443;&#x440;&#x430;_202">
		<g>
			<path style="fill-rule:evenodd;clip-rule:evenodd;fill:#E0B7B2;" d="M83.58,176.459c13.564,10.25,102.997,78.754,102.997,78.754
				s-0.414-2.887,1.639-5.7c1.609-2.206,4.381-4.916,4.381-4.916s-92.511-71.669-101.863-78.018
				C78.687,158.279,72.235,167.886,83.58,176.459z M136.241,150.043c-10.289-10.4-18.417-2.165-8.87,8.372
				c11.417,12.6,76.67,87.002,76.67,87.002s1.702-2.485,4.151-4.781c2.13-1.996,5.366-3.156,5.366-3.156
				S144.247,158.023,136.241,150.043z"/>
		</g>
	</g>
	<g id="&#x424;&#x438;&#x433;&#x443;&#x440;&#x430;_202_&#x43A;&#x43E;&#x43F;&#x438;&#x44F;">
		<g>
			<path style="fill-rule:evenodd;clip-rule:evenodd;fill:#B37B70;" d="M159.72,230.571c-3.118-0.992-6.431-2.166-9.834-3.452
				c20.029,15.331,36.691,28.094,36.691,28.094s-0.414-2.887,1.639-5.7c1.609-2.206,4.381-4.916,4.381-4.916
				s-6.286-4.87-15.737-12.176C173.039,232.982,167.285,232.979,159.72,230.571z M206.051,228.882
				c-1.621,1.815-3.868,3.061-7.035,2.898c-2.608-0.134-5.701-1.006-8.95-2.288c8.297,9.45,13.976,15.925,13.976,15.925
				s1.702-2.485,4.151-4.781c2.13-1.996,5.366-3.156,5.366-3.156S210.689,234.189,206.051,228.882z"/>
		</g>
	</g>
	<g id="&#x417;&#x430;&#x43B;&#x438;&#x432;&#x43A;&#x430;_&#x446;&#x432;&#x435;&#x442;&#x43E;&#x43C;_144">
		<g>
			<path style="fill-rule:evenodd;clip-rule:evenodd;fill:#9A6565;" d="M216.701,236.112c-2.903-3.277-71.193-80.36-79.157-88.298
				c-3.622-3.661-7.507-5.678-10.938-5.678c-2.991,0-5.457,1.533-6.595,4.103c-1.722,3.883-0.098,9.13,4.346,14.035
				c11.275,12.443,78.02,87.65,78.692,88.408l2.864,1.153c0,0,0.12-4.02,3.579-7.262c3.308-3.101,9.664-2.088,9.664-2.088
				L216.701,236.112z M206.589,238.522c-1.271,1.191-2.309,2.443-2.309,2.443c-11.329-12.764-65.34-73.452-75.516-84.684
				c-3.56-3.929-3.727-6.712-3.318-7.633c0.083-0.185,0.251-0.566,1.16-0.566c0.667,0,3.118,0.281,6.726,3.927
				c7.115,7.093,64.409,71.533,75.813,84.396C209.144,236.405,207.744,237.439,206.589,238.522z M91.609,163.992
				c-3.518-2.424-6.972-3.704-9.992-3.704c-3.542,0-6.357,1.835-7.347,4.786c-1.106,3.299,0.074,8.607,6.706,13.619
				c13.404,10.131,103.327,78.613,104.233,79.303c0,0,1.593-0.564,2.548-1.503c1.125-1.105,1.756-2.771,3.56-5.243
				c2.827-3.875,7.243-6.404,7.243-6.404l-2.313-1.765C192.358,240.112,100.907,170.305,91.609,163.992z M187.504,248.033
				c-1.053,1.443-1.107,3.395-1.107,3.395c-14.502-11.043-89.666-68.279-101.836-77.479c-4.066-3.073-5.013-5.915-4.654-6.984
				c0.214-0.635,1.163-0.73,1.71-0.73c1.032,0,3.266,0.346,6.635,2.666c8.368,5.682,87.449,65.984,102.074,77.142
				C190.326,246.042,188.404,246.801,187.504,248.033z"/>
		</g>
	</g>
</g>
</svg>
