<?xml version="1.0" encoding="iso-8859-1"?>
<!-- Generator: Adobe Illustrator 15.0.0, SVG Export Plug-In . SVG Version: 6.00 Build 0)  -->
<!DOCTYPE svg PUBLIC "-//W3C//DTD SVG 1.1//EN" "http://www.w3.org/Graphics/SVG/1.1/DTD/svg11.dtd" [
	<!ENTITY ns_extend "http://ns.adobe.com/Extensibility/1.0/">
	<!ENTITY ns_ai "http://ns.adobe.com/AdobeIllustrator/10.0/">
	<!ENTITY ns_graphs "http://ns.adobe.com/Graphs/1.0/">
	<!ENTITY ns_vars "http://ns.adobe.com/Variables/1.0/">
	<!ENTITY ns_imrep "http://ns.adobe.com/ImageReplacement/1.0/">
	<!ENTITY ns_sfw "http://ns.adobe.com/SaveForWeb/1.0/">
	<!ENTITY ns_custom "http://ns.adobe.com/GenericCustomNamespace/1.0/">
	<!ENTITY ns_adobe_xpath "http://ns.adobe.com/XPath/1.0/">
]>
<svg version="1.1" xmlns:x="&ns_extend;" xmlns:i="&ns_ai;" xmlns:graph="&ns_graphs;"
	 xmlns="http://www.w3.org/2000/svg" xmlns:xlink="http://www.w3.org/1999/xlink" x="0px" y="0px" width="512px" height="512px"
	 viewBox="0 0 512 512" style="enable-background:new 0 0 512 512;" xml:space="preserve">
<metadata>
	<sfw  xmlns="&ns_sfw;">
		<slices></slices>
		<sliceSourceBounds  x="94" y="94" width="512" height="512" bottomLeftOrigin="true"></sliceSourceBounds>
	</sfw>
</metadata>
<g id="&#x418;&#x437;&#x43E;&#x431;&#x440;&#x430;&#x436;&#x435;&#x43D;&#x438;&#x435;_xA0_17_1_">
	<g id="&#x417;&#x430;&#x43B;&#x438;&#x432;&#x43A;&#x430;_&#x446;&#x432;&#x435;&#x442;&#x43E;&#x43C;_1">
		<g>
			<rect x="3.699" y="4.439" style="fill-rule:evenodd;clip-rule:evenodd;fill:#B17D7B;" width="503.121" height="503.121"/>
		</g>
	</g>
	<g id="&#x417;&#x430;&#x43B;&#x438;&#x432;&#x43A;&#x430;_&#x446;&#x432;&#x435;&#x442;&#x43E;&#x43C;_5">
		<g>
			<path style="fill-rule:evenodd;clip-rule:evenodd;fill:#F3D4C3;" d="M484.624,25.156l20.717-20.717H3.699l20.717,20.717H484.624z
				 M24.416,486.844L3.699,507.561h501.642l-20.717-20.717H24.416z"/>
		</g>
	</g>
	
		<g id="&#x417;&#x430;&#x43B;&#x438;&#x432;&#x43A;&#x430;_&#x446;&#x432;&#x435;&#x442;&#x43E;&#x43C;_1_&#x43A;&#x43E;&#x43F;&#x438;&#x44F;_2">
		<g>
			<radialGradient id="SVGID_1_" cx="256.7402" cy="256" r="228.0762" gradientUnits="userSpaceOnUse">
				<stop  offset="0" style="stop-color:#95584F"/>
				<stop  offset="0.2" style="stop-color:#95584F"/>
				<stop  offset="0.4182" style="stop-color:#91524C"/>
				<stop  offset="0.6121" style="stop-color:#7B3F3C"/>
				<stop  offset="0.7636" style="stop-color:#5A292A"/>
				<stop  offset="0.897" style="stop-color:#3D1B1D"/>
				<stop  offset="1" style="stop-color:#2D1316"/>
			</radialGradient>
			<polygon style="fill-rule:evenodd;clip-rule:evenodd;fill:url(#SVGID_1_);" points="432.765,27.924 78.856,27.924 28.664,78.116 
				28.664,435.769 76.972,484.076 433.367,484.076 484.816,432.627 484.816,79.976 			"/>
		</g>
	</g>
	
		<g id="&#x417;&#x430;&#x43B;&#x438;&#x432;&#x43A;&#x430;_&#x446;&#x432;&#x435;&#x442;&#x43E;&#x43C;_1_&#x43A;&#x43E;&#x43F;&#x438;&#x44F;">
		<g>
			<path style="fill-rule:evenodd;clip-rule:evenodd;fill:#F2D2C0;" d="M25.109,24.37v463.26h463.26V24.37H25.109z M466.659,418.566
				l-47.353,47.353H91.283l-44.462-44.462V92.277l46.196-46.196h325.734l47.908,47.907V418.566z"/>
		</g>
	</g>
	<g id="&#x424;&#x438;&#x433;&#x443;&#x440;&#x430;_3">
		<g>
			<path style="fill-rule:evenodd;clip-rule:evenodd;fill:#A18180;" d="M429.873,25.156l-344.047-1.48l-62.15,62.891v342.566
				l59.931,59.19l344.046-0.739l59.931-59.191V84.347L429.873,25.156z M477.226,423.954l-56.231,54.751H91.006l-56.231-54.751
				V88.046l54.012-54.012h334.428l54.751,56.231L477.226,423.954z"/>
		</g>
	</g>
	<g id="&#x417;&#x430;&#x43B;&#x438;&#x432;&#x43A;&#x430;_&#x446;&#x432;&#x435;&#x442;&#x43E;&#x43C;_6">
		<g>
			<path style="fill-rule:evenodd;clip-rule:evenodd;fill:#C7907F;" d="M23.676,86.566l62.52-62.752l-62.52-0.139V86.566z
				 M487.584,23.63l-62.521,0.139l62.521,62.752V23.63z M22.196,488.37l62.521-0.139l-62.521-62.752V488.37z M425.803,488.971
				l62.521,0.139v-62.89L425.803,488.971z"/>
		</g>
	</g>
	
		<g id="&#x417;&#x430;&#x43B;&#x438;&#x432;&#x43A;&#x430;_&#x446;&#x432;&#x435;&#x442;&#x43E;&#x43C;_6_&#x43A;&#x43E;&#x43F;&#x438;&#x44F;">
		<g>
			<path style="fill-rule:evenodd;clip-rule:evenodd;fill:#FDECE7;" d="M27.964,485.886l56.753,2.346L55.27,458.579L27.964,485.886z
				 M54.694,55.434l31.502-31.619l-59.314,3.562L54.694,55.434z M425.803,488.971l59.314-3.113l-28.158-28.158L425.803,488.971z
				 M485.117,26.582l-60.054-2.813l31.376,31.491L485.117,26.582z"/>
		</g>
	</g>
	<g id="&#x424;&#x438;&#x433;&#x443;&#x440;&#x430;_1">
		<g>
			<path style="fill-rule:evenodd;clip-rule:evenodd;fill:#C7907F;" d="M34.774,487.769l0.093-9.156h-8.417L34.774,487.769z
				 M477.04,477.873l0.093,9.155l8.323-9.155H477.04z M476.393,25.804l-0.092,9.156h8.416L476.393,25.804z M26.451,34.96h8.417
				l-0.093-9.156L26.451,34.96z"/>
		</g>
	</g>
	<g id="&#x424;&#x438;&#x433;&#x443;&#x440;&#x430;_2">
		<g>
			<path style="fill-rule:evenodd;clip-rule:evenodd;fill:#FDECE7;" d="M22.597,480.813L9.026,497.72l-1.627,10.285l22.418-0.296
				l0.532-18.644l-3.492-6.957L22.597,480.813z M508.448,495.817l-18.855-14.581l-4.261,4.043l-3.068,4.209l2.646,16.529
				l23.688,1.353L508.448,495.817z M21.002,31.648l4.26-1.295l3.492-6.956L28.222,4.754L5.803,4.458l1.628,10.284L21.002,31.648z
				 M487.997,31.226l18.856-14.581l0.147-11.553l-23.687,1.353l-2.646,16.53l3.069,4.208L487.997,31.226z"/>
		</g>
	</g>
	<g id="&#x417;&#x430;&#x43B;&#x438;&#x432;&#x43A;&#x430;_&#x446;&#x432;&#x435;&#x442;&#x43E;&#x43C;_2">
		<g>
			<path style="fill-rule:evenodd;clip-rule:evenodd;fill:#2F181B;" d="M0,0v512h512V0H0z M503.121,503.121H8.878V8.879h494.243
				V503.121z"/>
		</g>
	</g>
	<g id="&#x417;&#x430;&#x43B;&#x438;&#x432;&#x43A;&#x430;_&#x446;&#x432;&#x435;&#x442;&#x43E;&#x43C;_3">
		<g>
			<path style="fill-rule:evenodd;clip-rule:evenodd;fill:#40292E;" d="M482.33,20.67H29.346l-9.369,9.369v397.468
				c-0.119,0.585-0.119,1.188,0,1.771v53.925l9.606,9.605h453.025l9.507-9.507V30.455L482.33,20.67z M28.855,34.183l4.633-4.634
				h40.974L28.855,75.156V34.183z M33.726,483.931l-4.871-4.871v-39.857l44.728,44.729H33.726z M483.237,479.158l-4.772,4.772
				H437.63l45.607-45.607V479.158z M483.237,425.769l-58.162,58.162H86.139l-57.283-57.283V87.711l58.162-58.162h338.058
				l58.162,58.162V425.769z M483.237,75.156L437.63,29.549h40.558l5.05,5.05V75.156z"/>
		</g>
	</g>
	
		<g id="&#x417;&#x430;&#x43B;&#x438;&#x432;&#x43A;&#x430;_&#x446;&#x432;&#x435;&#x442;&#x43E;&#x43C;_4_&#x43A;&#x43E;&#x43F;&#x438;&#x44F;" style="opacity:0.502;">
		<g>
			<path style="fill-rule:evenodd;clip-rule:evenodd;fill:#876867;" d="M465.59,92.913l-47.243-47.244
				c-0.685-0.685-1.612-1.068-2.579-1.068H94.545c-0.968,0-1.896,0.384-2.58,1.068L46.409,91.227
				c-0.684,0.684-1.069,1.611-1.069,2.579v324.619c0,0.968,0.385,1.896,1.069,2.579l43.847,43.847
				c0.684,0.684,1.612,1.068,2.579,1.068h323.479c0.968,0,1.896-0.385,2.579-1.068l46.696-46.696
				c0.685-0.685,1.069-1.612,1.069-2.58V95.493C466.659,94.525,466.274,93.598,465.59,92.913z M459.363,414.063l-44.56,44.56H94.346
				l-41.709-41.709V95.316l43.419-43.419h318.201l45.106,45.106V414.063z"/>
		</g>
	</g>
	<g id="&#x417;&#x430;&#x43B;&#x438;&#x432;&#x43A;&#x430;_&#x446;&#x432;&#x435;&#x442;&#x43E;&#x43C;_4">
		<g>
			<path style="fill-rule:evenodd;clip-rule:evenodd;fill:#40292E;" d="M468.534,90.633l-47.907-47.907
				c-0.693-0.694-1.635-1.084-2.615-1.084H92.277c-0.981,0-1.922,0.39-2.616,1.084L43.465,88.922
				c-0.693,0.693-1.083,1.635-1.083,2.615v329.18c0,0.981,0.39,1.922,1.083,2.615l44.463,44.463
				c0.694,0.693,1.634,1.084,2.615,1.084h328.023c0.981,0,1.922-0.391,2.615-1.084l47.353-47.353
				c0.694-0.694,1.084-1.635,1.084-2.616V93.248C469.618,92.268,469.229,91.326,468.534,90.633z M462.22,416.295l-45.186,45.185
				H92.075L49.78,419.185V93.07l44.029-44.03h322.67l45.74,45.741V416.295z"/>
		</g>
	</g>
</g>
<g id="&#x418;&#x437;&#x43E;&#x431;&#x440;&#x430;&#x436;&#x435;&#x43D;&#x438;&#x435;_xA0_719_1_">
	<g id="&#x424;&#x438;&#x433;&#x443;&#x440;&#x430;_223" style="opacity:0.502;">
		<g>
			<path style="fill-rule:evenodd;clip-rule:evenodd;fill:#2F1417;" d="M452.389,176.496c0,0-13.623-7.836-32.046-20.42
				c-35.257-24.084-89.428-48.916-120.862-68.019c-12.15-7.385-30.668-4.645-30.668-4.645l-4.377-8.799l-10.63,15.231
				l-51.812,86.829l-3.35-2.947c0,0-27.063,60.696-38.77,80.531c-15.053,25.505-72.85,134.578-72.85,134.578l5.092,17.374
				l58.321,32.517h234.773c0,0,8.128-49.43,29.449-93.356c16.669-34.342,38.487-70.699,38.487-70.699L452.389,176.496z"/>
		</g>
	</g>
	<g id="&#x424;&#x438;&#x433;&#x443;&#x440;&#x430;_213">
		<g>
			<path style="fill-rule:evenodd;clip-rule:evenodd;fill:#D49469;" d="M449.887,216.65c-2.151-5.865-3.608-11.872-12.515-20.165
				c-11.981-11.157-31.838-24.098-31.838-24.098l-15.457,10.133l5.229-6.917c0,0-3.105,3.027-7.886,8.153
				c2.388-3.596,10.884-17.046,6.505-20.146c-10.546-7.467-17.851-13.759-31.172-22.935c-2.702-1.86-14.972,8.219-14.972,8.219
				s8.502-13.396,3.713-17.334c-10.439-8.585-33.11-22.01-44.468-28.563c-4.134-2.386-12.978,0.158-12.978,0.158
				s0.342-4.039-2.222-6.927c-3.749-4.223-13.769-7.143-20.915-3.301c-9.77,5.25-62.882,87.64-69.926,98.611
				c-0.041-0.137-0.064-0.214-0.064-0.214l-0.513,1.114c-0.13,0.203-0.202,0.315-0.202,0.315l-3.931-9.559l-64.675,138.195
				l5.002,5.002l-10.342,6.425l-19.673,42.172l2.144,10.72l62.889,47.881h168.792c0,0,25.003-51.13,50.67-97.807
				c23.602-42.921,49.336-84.563,49.336-84.563S454.935,230.408,449.887,216.65z"/>
		</g>
	</g>
	<g id="&#x424;&#x438;&#x433;&#x443;&#x440;&#x430;_224">
		<g>
			<path style="fill-rule:evenodd;clip-rule:evenodd;fill:#E7B890;" d="M151.03,397.814l0.447,16.303
				c0,0,24.224-33.443,48.152-68.409c12.306-17.982,20.265-32.079,28.686-45.099c8.747-13.522,17.72-25.625,17.72-25.625
				l-1.519-7.906L151.03,397.814z M198.744,206.791l-0.012,4.724c0,0,10.112-17.15,21.668-34.593
				c11.731-17.707,24.914-35.811,25.544-49.468l-47.167,66.016l-0.001,0.461c-0.458-6.28-1.428-10.466-1.428-10.466
				s-5.063,28.337-13.944,46.482c-20.333,41.542-39.342,86.129-39.342,86.129s27.36-46.722,48.901-87.867
				C196.569,221.321,198.173,213.733,198.744,206.791z M108.017,372.846l5.583,10.318l29.078-57.619l-16.794,7.281L108.017,372.846z
				 M198.732,241.708c0,0,27.752-37.002,40.941-52.042c6.043-6.891,15.114-1.869,15.114-1.869l-6.7-24.343L198.732,241.708z
				 M416.566,259.887c-10.675,6.879-34.585,39.58-55.813,73.961c-7.092,11.488-10.863,34.369-13.854,39.1
				c-6.521,10.317-13.77,21.339-13.77,21.339l8.442,7.369c0,0,0.671-10.173,12.979-24.73c8.478-10.027,8.96-27.398,16.631-42.233
				C387.658,302.83,427.241,253.009,416.566,259.887z M411.742,177.747l-5.136-5.137c0,0-13.061,3.688-20.632,12.965
				c-28.339,34.72-90.207,116.059-86.968,118.978c5.579,5.027,37.38-50.511,70.313-87.02
				C389.866,194.757,411.742,177.747,411.742,177.747z M385.167,237.599c3.662-14.427-14.351,13.535-27.847,35.846
				c-20.151,33.312-45.316,79.213-45.316,79.213l5.137,9.692c0,0,18.252-36.875,36.3-68.078
				C368.638,267.996,383.492,244.194,385.167,237.599z M361.003,152.734c5.002,1.116,30.015,18.581,30.015,18.581l2.858-7.861
				L361.003,141.3c0,0-13.55,10.976-31.141,34.53c-23.66,31.681-53.188,78.385-53.188,78.385S356,151.618,361.003,152.734z
				 M281.804,153.917c-5.86,13.934-6.559,35.265-6.559,35.265l32.159-76.468C307.404,112.714,291.17,131.645,281.804,153.917z"/>
		</g>
	</g>
	<g id="&#x424;&#x438;&#x433;&#x443;&#x440;&#x430;_217">
		<g>
			<path style="fill-rule:evenodd;clip-rule:evenodd;fill:#713A26;" d="M449.843,219.777c-3.663-22.734-42.924-51.834-43.817-48.462
				s20.066,21.273,31.02,35.071c4.83,6.083,5.518,9.795,5.584,13.793c0.067,3.997-10.7,14.073-9.871,20.39
				c0.581,4.422-9.446,15.744-16.146,24.23c-5.844,7.402-26.358,36.759-45.028,68.467c-16.663,28.3-11.876,36.073-14.868,42.438
				c-1.045,2.222-6.92,7.176-11.424,15.214c-4.09,7.302-4.695,17.948-7.904,24.955c-3.379,7.376-9.258,10.928-9.258,10.928
				l-32.025,1.318c0,0-7.138-41.915-23.406-41.618c-11.373,0.207-16.882,39.272-16.882,39.272l-27.604,0.179
				c0,0,5.692-28.516,1.761-31.188c-3.226-2.192-25.545,13.902-29.409,18.458s-7.504,13.222-7.504,13.222l-16.236,0.826
				l-25.571-21.887l0.715-8.955l-9.29,1.43l-35.375-26.442l1.876,15.187l64.586,48.417l165.084-0.715
				c0,0,28.479-54.797,58.286-109.854C423.173,276.356,453.505,242.512,449.843,219.777z"/>
		</g>
	</g>
	<g id="&#x424;&#x438;&#x433;&#x443;&#x440;&#x430;_221">
		<g>
			<path style="fill-rule:evenodd;clip-rule:evenodd;fill:#AF6D50;" d="M328.824,377.459c-1.428-9.626,4.307-23.908,4.307-23.908
				s-10.375,6.165-13.789,3.093c-3.719-3.348-0.504-15.956-0.504-15.956s7.778-11.536,12.783-21.547
				c5-9.999,7.228-18.474,7.228-18.474s-14.835,20.805-23.862,25.93c-5.796,3.291-5.785-5.186-9.189-12.264
				c-6.037-12.553,23.762-50.113,23.762-50.113s-22.336,17.591-33.676,4.922c-9.283-10.369,0.533-47.801,0.533-47.801
				s-10.332-6.375-13.967-18.222c-4.675-15.236-0.371-39.263-0.371-39.263l14.606-34.705c0,0-18.383,15.889-21.438-0.396
				c-1.887-10.059-2.771-35.427-2.771-35.427l-27.96,32.964c0,0,5.336,12.078,0.298,30.098
				c-4.17,14.916-36.433,69.238-36.433,69.238s23.922-33.997,31.504-44.783c6.129-8.718,10.481,12.847,10.481,12.847
				s-3.261,25.013-4.154,36.135c-0.894,11.122-14.117,34.525-31.342,57.106c-30.358,39.797-67.101,104.271-61.965,109.898
				c2.967,3.251,21.389-18.729,38.981-45.975c12.86-19.919,25.167-43.605,33.921-55.394c10.887-14.657,19.511-11.457,19.511-11.457
				l-41.539,70.259l53.554,15.812l72.447,55.027c0,0,8.764-5.852,9.182-15.251c0.348-7.859,3.324-15.523,3.324-15.523
				S331.475,395.325,328.824,377.459z"/>
		</g>
	</g>
	<g id="&#x424;&#x438;&#x433;&#x443;&#x440;&#x430;_220">
		<g>
			<path style="fill-rule:evenodd;clip-rule:evenodd;fill:#814838;" d="M143.987,350.066c-11.709,0-21.201,9.046-21.201,20.204
				s9.492,20.204,21.201,20.204c11.709,0,21.202-9.046,21.202-20.204S155.697,350.066,143.987,350.066z M412.219,206.66
				c-11.709,0-21.201,9.046-21.201,20.204s9.492,20.204,21.201,20.204c11.71,0,21.201-9.046,21.201-20.204
				S423.929,206.66,412.219,206.66z M287.84,300.577c-5.136-23.137-12.015-135.783-14.158-156.687
				c-2.145-20.903-5.985-50.204-5.985-50.204l-1.741,220.559l34.303,50.025l25.012,57.172l7.147,0.715l7.86-11.435
				c0,0-24.61-42.7-30.729-57.172S292.977,323.714,287.84,300.577z"/>
		</g>
	</g>
	<g id="&#x424;&#x438;&#x433;&#x443;&#x440;&#x430;_218">
		<g>
			<path style="fill-rule:evenodd;clip-rule:evenodd;fill:#AFAFB8;" d="M141.204,344.483c-9.3,0-16.839,7.31-16.839,16.325
				c0,9.017,7.539,16.325,16.839,16.325c9.3,0,16.839-7.309,16.839-16.325C158.042,351.793,150.503,344.483,141.204,344.483z
				 M408.482,207.271c-9.3,0-16.839,7.309-16.839,16.325c0,9.016,7.539,16.325,16.839,16.325s16.839-7.31,16.839-16.325
				C425.321,214.58,417.782,207.271,408.482,207.271z"/>
		</g>
	</g>
	<g id="&#x424;&#x438;&#x433;&#x443;&#x440;&#x430;_219">
		<g>
			<path style="fill-rule:evenodd;clip-rule:evenodd;fill:#DCDCE3;" d="M141.695,351.673c-5.204,0-9.421,4.23-9.421,9.448
				c0,5.219,4.218,9.449,9.421,9.449c5.203,0,9.421-4.23,9.421-9.449C151.116,355.903,146.898,351.673,141.695,351.673z
				 M408.259,213.031c-5.203,0-9.421,4.23-9.421,9.448c0,5.219,4.218,9.448,9.421,9.448s9.422-4.229,9.422-9.448
				C417.681,217.262,413.462,213.031,408.259,213.031z"/>
		</g>
	</g>
	<g id="&#x417;&#x430;&#x43B;&#x438;&#x432;&#x43A;&#x430;_&#x446;&#x432;&#x435;&#x442;&#x43E;&#x43C;_147">
		<g>
			<path style="fill-rule:evenodd;clip-rule:evenodd;fill:#89899F;" d="M147.929,362.761c-0.858-0.732-1.758-1.39-2.688-1.989
				c0.487-0.995,0.931-2.015,1.273-3.095c0.492-1.621,0.854-3.317,0.784-5.264c-1.727,0.903-3.02,2.058-4.185,3.286
				c-0.822,0.89-1.528,1.846-2.184,2.831c-0.719-0.291-1.453-0.558-2.207-0.784c-1.721-0.495-3.513-0.858-5.544-0.783
				c1.037,1.749,2.312,3.06,3.66,4.237c0.614,0.524,1.25,1.009,1.902,1.465c-0.21,0.521-0.429,1.038-0.601,1.581
				c-0.493,1.62-0.853,3.318-0.777,5.268c1.732-0.9,3.027-2.053,4.191-3.283c0.389-0.421,0.731-0.869,1.082-1.313
				c1.093,0.512,2.225,0.954,3.404,1.308c1.72,0.497,3.513,0.859,5.547,0.778C150.552,365.248,149.277,363.938,147.929,362.761z
				 M412.232,222.543c0.405-0.453,0.801-0.919,1.174-1.41c1.056-1.424,2.012-2.967,2.63-4.907c-2.018,0.286-3.698,0.97-5.278,1.773
				c-0.593,0.311-1.149,0.664-1.706,1.019c-0.566-0.529-1.14-1.053-1.757-1.54c-1.527-1.179-3.176-2.256-5.221-2.998
				c0.391,2.141,1.18,3.944,2.088,5.647c0.351,0.641,0.744,1.244,1.139,1.848c-0.872,0.836-1.706,1.717-2.455,2.7
				c-1.058,1.422-2.012,2.966-2.626,4.913c2.021-0.281,3.704-0.964,5.282-1.769c1.044-0.547,2.008-1.188,2.938-1.868
				c0.939,1,1.927,1.958,3.024,2.825c1.525,1.18,3.176,2.256,5.226,2.993c-0.385-2.146-1.172-3.95-2.082-5.652
				C413.912,224.846,413.1,223.672,412.232,222.543z M408.988,204.348c-10.715,0-19.43,8.716-19.43,19.43
				c0,10.713,8.715,19.429,19.43,19.429c10.714,0,19.43-8.716,19.43-19.429C428.418,213.063,419.702,204.348,408.988,204.348z
				 M408.988,237.489c-7.562,0-13.713-6.151-13.713-13.712c0-7.562,6.151-13.713,13.713-13.713c7.561,0,13.712,6.151,13.712,13.713
				C422.7,231.338,416.549,237.489,408.988,237.489z M141.933,341.917c-10.812,0-19.608,8.797-19.608,19.608
				s8.796,19.608,19.608,19.608c10.812,0,19.608-8.797,19.608-19.608S152.745,341.917,141.933,341.917z M141.933,375.416
				c-7.659,0-13.891-6.23-13.891-13.891s6.231-13.892,13.891-13.892c7.66,0,13.891,6.231,13.891,13.892
				S149.592,375.416,141.933,375.416z"/>
		</g>
	</g>
	<g id="&#x417;&#x430;&#x43B;&#x438;&#x432;&#x43A;&#x430;_&#x446;&#x432;&#x435;&#x442;&#x43E;&#x43C;_146">
		<g>
			<path style="fill-rule:evenodd;clip-rule:evenodd;fill:#854B39;" d="M217.076,295.117c-3.603,2.084-6.468,4.753-9.112,7.581
				c-1.312,1.421-2.549,2.898-3.699,4.437c-1.18,1.519-2.22,3.136-3.068,4.88c-1.705,3.488-2.67,7.447-4.54,10.79
				c-1.835,3.368-4.239,6.366-6.946,9.209c-1.331,1.436-2.693,2.858-3.906,4.375c-1.255,1.489-2.332,3.087-3.437,4.668
				c-2.205,3.165-4.387,6.35-6.121,9.781c-1.725,3.437-3.203,7.002-4.429,10.69c-0.611,1.845-1.172,3.714-1.615,5.642
				c-0.466,1.915-0.856,3.865-1.05,5.909c-0.01,0.123,0.027,0.253,0.117,0.353c0.17,0.188,0.461,0.203,0.65,0.033
				c1.525-1.361,2.883-2.802,4.175-4.271c1.318-1.457,2.532-2.964,3.709-4.488c2.35-3.052,4.501-6.197,6.462-9.441
				c1.953-3.249,3.514-6.712,5.123-10.156c0.8-1.724,1.648-3.419,2.338-5.212c0.73-1.767,1.335-3.612,1.991-5.434
				c1.273-3.666,2.943-7.12,5.261-10.151c2.283-3.057,5.544-5.45,8.132-8.271c1.297-1.41,2.421-2.934,3.418-4.549
				c1.027-1.593,1.983-3.237,2.88-4.926c1.778-3.391,3.38-6.908,4.351-10.931c0.027-0.111,0.014-0.238-0.048-0.346
				C217.582,295.064,217.297,294.989,217.076,295.117z M453.972,214.885c-0.212-0.576-0.416-1.155-0.622-1.737
				c-1.979-5.586-4.222-11.917-12.995-20.088c-12.114-11.28-31.597-24.017-32.42-24.553c-1.56-1.019-3.601-0.912-5.046,0.265
				l-6.521,5.302c-0.066,0.006-0.134-0.005-0.194,0.032c-0.013,0.009-0.024,0.018-0.037,0.025c1.996-4.058,3.17-7.666,2.804-10.146
				c-0.257-1.734-1.136-3.213-2.478-4.162c-4.503-3.188-8.386-6.144-12.498-9.272c-5.446-4.145-11.078-8.43-18.72-13.693
				c-0.8-0.551-1.751-0.842-2.75-0.842c-0.945,0-2.567-0.001-7.97,4.403c3.723-9.193,1.168-11.295-0.247-12.459
				c-10.529-8.655-32.743-21.862-45.049-28.965c-1.859-1.073-4.182-1.595-7.099-1.595c-1.528,0-3.063,0.151-4.432,0.352
				c-0.484-1.527-1.287-3.173-2.606-4.658c-3.468-3.907-10.1-6.532-16.5-6.532c-3.563,0-6.809,0.774-9.65,2.301
				c-9.756,5.244-51.84,69.553-67.838,94.366l-0.803-1.951c-0.647-1.572-2.163-2.614-3.863-2.655
				c-1.686-0.016-3.264,0.929-3.986,2.469l-64.676,138.195c-0.765,1.635-0.424,3.573,0.852,4.85l1.181,1.181l-5.752,3.572
				c-0.707,0.439-1.271,1.076-1.623,1.83l-19.672,42.171c-0.386,0.827-0.498,1.759-0.319,2.653l2.144,10.72
				c0.206,1.024,0.777,1.938,1.607,2.57l62.889,47.882c0.747,0.568,1.659,0.877,2.598,0.877h168.791
				c1.638,0,3.133-0.933,3.854-2.403c0.249-0.512,25.249-51.572,50.574-97.625c22.746-41.366,47.801-82.063,49.169-84.282
				C445.372,251.383,459.58,230.172,453.972,214.885z M173.127,429.015l-60.45-46.023l-1.4-7.001
				c1.091,0.96,2.183,1.919,3.285,2.862c2.927,2.506,5.89,4.961,8.887,7.367c3.006,2.396,6.004,4.8,9.057,7.13
				c3.049,2.336,6.122,4.637,9.213,6.912c0.537,0.395,1.224,0.598,1.938,0.514l0.05-0.006c1.741-0.206,3.483-0.408,5.224-0.616
				c-0.232,1.356-0.475,2.711-0.696,4.069l-0.017,0.101c-0.154,0.96,0.221,1.973,1.058,2.589c2.835,2.093,5.69,4.16,8.571,6.192
				c2.875,2.04,5.807,4.009,8.707,6.016c2.956,1.936,5.871,3.924,8.881,5.788c2.214,1.412,4.467,2.773,6.742,4.106H173.127z
				 M183.133,429.015c-2.057-2.034-4.145-4.028-6.276-5.966c-2.589-2.414-5.271-4.708-7.914-7.053
				c-2.697-2.272-5.365-4.585-8.087-6.825c-2.271-1.879-4.57-3.723-6.874-5.56c0.412-2.08,0.82-4.16,1.203-6.246
				c0.048-0.266,0.061-0.555,0.029-0.836c-0.178-1.561-1.588-2.68-3.148-2.503l-0.031,0.004c-2.661,0.304-5.315,0.661-7.971,1.008
				c-2.839-1.976-5.688-3.938-8.562-5.865c-3.186-2.146-6.425-4.214-9.658-6.292c-3.24-2.067-6.517-4.087-9.827-6.055
				c-1.467-0.872-2.943-1.73-4.426-2.579l18.075-38.748l9.259-5.752c1.112-0.689,1.847-1.851,1.998-3.15
				c0.149-1.301-0.303-2.598-1.229-3.522l-2.876-2.877l59.264-126.632l0.219,0.531c0.062,0.15,0.137,0.293,0.214,0.434
				c-0.081,2.751-0.226,5.481-0.478,8.176c-0.554,5.909-1.569,11.733-3.62,16.803c-0.522,1.299-1.049,2.355-1.806,3.798
				l-2.055,3.999l-4.086,8.065c-2.683,5.42-5.271,10.95-8.105,16.37l-8.616,16.243l-8.532,16.305l-8.409,16.375
				c-2.808,5.455-5.587,10.925-8.312,16.432c-0.094,0.192-0.032,0.433,0.153,0.551c0.199,0.129,0.465,0.07,0.594-0.129
				c6.684-10.295,13.22-20.677,19.828-31.016c6.571-10.367,13.017-20.775,19.494-31.22c3.242-5.225,6.664-10.38,9.696-15.804
				c1.514-2.712,2.935-5.487,4.224-8.335c1.281-2.933,2.505-5.577,3.571-9.01c0.974-3.273,1.45-6.57,1.658-9.817
				c0.24-3.247,0.11-6.462-0.16-9.626c-0.2-2.009-0.476-3.998-0.82-5.97c1.275-0.138,2.437-0.841,3.143-1.944
				c29.198-45.661,63.038-94.937,69.124-98.36c1.557-0.837,3.489-1.279,5.59-1.279c4.446,0,8.517,1.881,10.088,3.649
				c1.057,1.191,1.189,3.126,1.156,3.72c-0.119,1.403,0.462,2.774,1.549,3.67c1.09,0.896,2.551,1.2,3.902,0.813
				c0.037-0.01,3.6-1.014,6.843-1.014c1.941,0,2.685,0.372,2.813,0.446c9.427,5.441,32.032,18.747,42.902,27.366
				c-0.753,4.125-7.643,15.856-15.022,26.626c-0.522,0.675-1.054,1.342-1.567,2.021c-2.173,2.839-4.242,5.756-6.069,8.845
				c-3.709,6.142-6.502,12.928-10.203,19.058c-3.672,6.152-7.976,11.864-12.697,17.301c-4.734,5.433-9.475,10.838-13.686,16.635
				c-4.295,5.739-8.627,11.463-12.453,17.516c-3.832,6.049-7.285,12.342-10.516,18.769c-1.604,3.222-3.145,6.479-4.549,9.822
				c-1.438,3.32-2.771,6.704-3.891,10.216c-0.055,0.176-0.014,0.377,0.123,0.517c0.199,0.203,0.525,0.208,0.729,0.008
				c2.637-2.563,5.095-5.231,7.462-7.954c2.403-2.7,4.686-5.474,6.922-8.273c4.45-5.616,8.738-11.327,12.707-17.243
				c3.975-5.911,7.505-12.114,11.139-18.256c1.826-3.058,3.611-6.168,5.279-9.346c1.673-3.177,3.25-6.417,4.891-9.615
				c3.244-6.419,6.924-12.55,11.342-18.17c4.385-5.644,9.796-10.551,14.345-16.063c1.837-2.188,3.526-4.481,5.138-6.833
				c9.47-10.096,20.611-21.097,24.936-24.183c6.572,4.584,11.647,8.446,16.567,12.19c3.814,2.903,7.436,5.658,11.56,8.609
				c-0.999,4.136-8.331,15.853-16.931,26.905c-0.171,0.22-0.315,0.451-0.438,0.691c-2.119,2.202-4.179,4.463-6.166,6.791
				c-2.136,2.505-4.151,5.116-6.063,7.806c-1.89,2.651-3.699,5.368-5.509,8.077c-1.798,2.719-3.638,5.404-5.317,8.204
				c-1.698,2.784-3.258,5.668-4.849,8.525c-1.585,2.861-3.18,5.714-4.903,8.471c-1.738,2.748-3.572,5.426-5.553,8
				c-3.912,5.182-8.781,9.696-12.988,14.683c-2.098,2.495-4.014,5.119-5.785,7.844c-1.801,2.704-3.508,5.472-5.15,8.283
				c-3.264,5.638-6.291,11.436-8.572,17.73c-0.053,0.147-0.025,0.321,0.086,0.445c0.163,0.183,0.442,0.198,0.625,0.035
				c4.992-4.45,9.293-9.357,13.385-14.409c2.035-2.533,4.014-5.104,5.908-7.734c1.925-2.607,3.71-5.311,5.324-8.136
				c3.215-5.656,5.805-11.76,9.391-17.167c1.77-2.72,3.694-5.329,5.729-7.86c2.047-2.521,4.236-4.939,6.447-7.338
				c2.206-2.403,4.458-4.771,6.586-7.224c2.148-2.438,4.154-4.979,6.22-7.472c2.054-2.504,4.129-4.982,6.148-7.507
				c1.998-2.488,3.982-4.985,5.93-7.521c1.818-2.375,3.637-4.758,5.449-7.153c0.051-0.038,0.106-0.064,0.156-0.104l26.356-21.429
				c0.205,0.138,0.442,0.299,0.667,0.451c4.375,3.83,8.693,7.729,12.929,11.706c2.695,2.526,5.358,5.084,7.98,7.679
				c1.309,1.31,2.643,2.582,3.821,3.92c1.198,1.342,2.319,2.759,3.372,4.222c2.086,2.927,3.945,6.069,5.199,9.315
				c0.599,1.576,1.082,3.362,0.925,4.556c-0.004,0.294-0.47,1.276-0.817,2.039c-0.373,0.796-0.783,1.588-1.212,2.373
				c-0.854,1.572-1.792,3.121-2.767,4.656l-1.489,2.292l-0.763,1.158c-0.281,0.435-0.551,0.877-0.798,1.33
				c-0.998,1.81-1.718,3.754-2.181,5.744c-0.232,0.996-0.401,2.004-0.505,3.023c-0.066,0.704-0.111,1.359-0.114,2.079
				c-10.655,11.606-20.315,23.855-29.522,36.537c-4.679,6.474-9.18,13.075-13.543,19.776c-2.179,3.354-4.312,6.738-6.4,10.15
				l-6.156,10.171c-4.132,6.615-8.639,13.362-12.245,20.834c-1.794,3.729-3.359,7.615-4.611,11.604
				c-1.215,4.001-2.174,8.083-2.765,12.204c-0.149,1.025-0.273,2.063-0.393,3.113c-0.109,1.06-0.181,1.82-0.323,2.593
				c-0.288,1.545-0.784,2.91-1.563,4.207c-0.769,1.303-1.896,2.56-3.223,4.018c-1.323,1.442-2.866,3.101-4.147,5.08
				c-0.32,0.491-0.628,1-0.906,1.523c-0.26,0.468-0.611,1.187-0.792,1.625c-0.45,1.056-0.747,1.867-1.134,2.815
				c-0.74,1.83-1.451,3.67-2.178,5.592c-0.705,1.899-1.459,4.063-1.74,6.387c-0.262,2.107-0.179,4.035-0.065,5.896
				c-1.909,3.904-3.812,7.813-5.665,11.749c-1.451,3.04-2.861,6.103-4.255,9.175H183.133z M436.96,248.48
				c-0.045,0.065-0.088,0.131-0.13,0.199c-0.258,0.417-26.063,42.226-49.446,84.751c-22.284,40.522-44.313,84.898-49.583,95.584
				h-7.487c1.739-2.528,3.463-5.066,5.149-7.626c2.561-3.841,5.061-7.717,7.547-11.6c0.168-0.265,0.278-0.582,0.298-0.917
				l0.019-0.305c0.111-1.942,0.236-3.837,0.598-5.456c0.355-1.602,1.055-3.167,1.898-4.908l2.633-5.289
				c0.427-0.861,0.896-1.877,1.283-2.621c0.239-0.46,0.349-0.62,0.593-1.007c0.212-0.335,0.444-0.661,0.691-0.982
				c0.977-1.288,2.228-2.477,3.689-3.849c1.453-1.359,3.1-2.979,4.474-5.024c1.385-2.028,2.388-4.404,2.936-6.733
				c0.282-1.167,0.455-2.377,0.595-3.283c0.15-0.914,0.31-1.839,0.494-2.769c1.401-7.418,3.798-14.528,7.063-21.369
				c3.214-6.87,7.31-13.497,11.235-20.536c1.997-3.577,3.759-7.036,5.694-10.461c1.921-3.43,3.889-6.837,5.904-10.216
				c4.021-6.765,8.261-13.405,12.656-19.943c8.808-13.033,18.23-25.81,28.46-37.652l0.062-0.07c0.404-0.472,0.624-1.102,0.558-1.769
				c-0.061-0.621-0.06-1.55-0.002-2.341c0.056-0.823,0.166-1.648,0.326-2.461c0.319-1.625,0.848-3.201,1.59-4.66
				c0.183-0.365,0.384-0.722,0.594-1.071l0.719-1.188l1.424-2.434c0.934-1.635,1.838-3.298,2.671-5.02
				c0.418-0.859,0.821-1.731,1.191-2.63c0.186-0.449,0.368-0.899,0.535-1.363l0.126-0.346l0.032-0.087l0.065-0.198l0.046-0.168
				c0.049-0.127,0.165-0.723,0.187-1.021c0.09-1.28-0.123-2.351-0.39-3.354c-0.272-1.004-0.624-1.939-1.014-2.846
				c-1.584-3.597-3.688-6.778-6.025-9.774c-1.177-1.49-2.421-2.927-3.75-4.287c-1.335-1.381-2.738-2.606-4.098-3.86
				c-2.747-2.498-5.528-4.955-8.338-7.377c-0.485-0.415-0.981-0.814-1.468-1.228c5.225,3.883,10.813,8.294,15.245,12.421
				c7.237,6.739,8.947,11.565,10.756,16.676c0.218,0.612,0.433,1.221,0.656,1.828C449.417,227.369,440.637,243.191,436.96,248.48z
				 M338.991,308.193l9.975-15.603c3.411-5.166,6.938-10.29,10.174-15.577c6.396-10.642,12.593-21.411,17.935-32.884
				c0.061-0.131,0.039-0.293-0.065-0.403c-0.138-0.146-0.368-0.152-0.515-0.015c-4.623,4.373-8.714,9.154-12.67,14.031
				c-3.939,4.892-7.641,9.956-11.12,15.167c-3.465,5.226-6.522,10.69-9.535,16.212c-1.517,2.795-2.958,5.625-4.226,8.528
				c-1.291,2.894-2.361,5.878-3.467,8.823c-2.156,5.915-4.404,11.737-7.407,17.186c-2.949,5.48-6.979,10.278-10.564,15.352
				c-1.788,2.535-3.449,5.143-5.024,7.81c-1.6,2.65-3.159,5.331-4.687,8.037c-1.524,2.709-3.024,5.437-4.433,8.235
				c-1.437,2.779-2.815,5.603-4.049,8.542c-0.054,0.126-0.034,0.279,0.063,0.389c0.134,0.15,0.366,0.163,0.517,0.027
				c2.385-2.137,4.545-4.445,6.615-6.819c2.096-2.359,4.055-4.817,5.943-7.325c1.888-2.51,3.697-5.075,5.412-7.704
				c1.742-2.611,3.344-5.314,4.757-8.13c2.831-5.615,4.936-11.683,7.511-17.382C332.707,318.987,335.666,313.478,338.991,308.193z
				 M335.026,355.716c1.003-4.137,1.71-8.555,3.638-12.452c1.902-3.959,4.525-7.467,7.525-10.697
				c1.461-1.637,3.035-3.184,4.482-4.816c1.487-1.604,2.868-3.286,4.295-4.94c2.852-3.314,5.768-6.579,8.38-10.168
				c2.614-3.631,4.966-7.426,7.032-11.394c2.053-3.972,3.941-8.037,5.235-12.43c0.034-0.122,0.007-0.263-0.086-0.36
				c-0.14-0.147-0.374-0.153-0.522-0.014c-3.346,3.076-6.321,6.338-9.258,9.604c-2.933,3.265-5.733,6.598-8.46,9.95
				c-2.747,3.381-5.254,7.038-7.708,10.733c-1.226,1.853-2.469,3.698-3.559,5.656c-1.119,1.936-2.088,3.976-3.076,5.989
				c-1.934,4.048-3.934,8.028-6.293,11.76c-2.357,3.779-5.242,7.42-7.232,11.549c-0.992,2.056-1.736,4.214-2.277,6.419
				c-0.566,2.199-0.982,4.434-1.255,6.685c-0.517,4.502-0.582,9.085,0.514,13.614c0.029,0.115,0.112,0.216,0.23,0.26
				c0.19,0.073,0.405-0.023,0.478-0.215l0.007-0.017c1.606-4.25,2.911-8.379,4.212-12.477l1.93-6.109
				C333.922,359.824,334.521,357.793,335.026,355.716z"/>
		</g>
	</g>
	<g id="&#x424;&#x438;&#x433;&#x443;&#x440;&#x430;_214">
		<g>
			<path style="fill-rule:evenodd;clip-rule:evenodd;fill:#A28F7E;" d="M324.364,398.244c-8.571-25.925-14.37-31.428-14.37-31.428
				l3.127-16.124h-13.578l-19.296-37.162l-4.288-40.734l-7.861-172.23l-7.861-21.439l-7.146,21.439L241.656,273.51l-6.432,36.447
				l-25.728,41.449h-7.861v18.581L151.7,434.262l41.182-0.045c0,0,5.837-11.275,12.36-19.691l22.875-15.856
				c0.995-0.118,1.524-0.051,1.524-0.051l-8.665,36.001l38.993-0.054c0,0,1.111-24.573,5.414-36.457
				c2.932-8.096,9.146-8.11,9.146-8.11s8.98,9.647,11.336,19.236c3.695,15.04,4.968,26.144,4.968,26.144l50.874-0.071
				C341.707,435.307,330.049,415.44,324.364,398.244z M200.635,391.687c0,1.909-1.547,3.457-3.457,3.457
				c-1.909,0-3.457-1.548-3.457-3.457v-3.198c0-1.909,1.548-3.457,3.457-3.457c1.91,0,3.457,1.548,3.457,3.457V391.687z
				 M273.217,284.694c1.909,0,3.457,1.548,3.457,3.457v3.198c0,1.909-1.548,3.457-3.457,3.457s-3.457-1.548-3.457-3.457v-3.198
				C269.76,286.242,271.308,284.694,273.217,284.694z M266.355,263.826c1.91,0,3.458,1.548,3.458,3.457v3.198
				c0,1.909-1.548,3.457-3.458,3.457c-1.908,0-3.456-1.548-3.456-3.457v-3.198C262.899,265.374,264.447,263.826,266.355,263.826z
				 M262.899,255.331v-3.198c0-1.909,1.548-3.457,3.456-3.457c1.91,0,3.458,1.548,3.458,3.457v3.198
				c0,1.909-1.548,3.457-3.458,3.457C264.447,258.788,262.899,257.24,262.899,255.331z M269.76,302.444
				c0-1.909,1.548-3.457,3.457-3.457s3.457,1.548,3.457,3.457v3.198c0,1.909-1.548,3.457-3.457,3.457s-3.457-1.548-3.457-3.457
				V302.444z M269.813,239.609c0,1.909-1.548,3.456-3.458,3.456c-1.908,0-3.456-1.547-3.456-3.456v-3.199
				c0-1.908,1.548-3.457,3.456-3.457c1.91,0,3.458,1.549,3.458,3.457V239.609z M269.527,223.887c0,1.909-1.547,3.457-3.457,3.457
				c-1.909,0-3.457-1.548-3.457-3.457v-3.198c0-1.909,1.548-3.457,3.457-3.457c1.91,0,3.457,1.548,3.457,3.457V223.887z
				 M265.784,202.081c1.909,0,3.458,1.548,3.458,3.457v3.198c0,1.909-1.549,3.457-3.458,3.457s-3.456-1.548-3.456-3.457v-3.198
				C262.328,203.629,263.875,202.081,265.784,202.081z M262.328,193.586v-3.198c0-1.909,1.547-3.457,3.456-3.457
				s3.458,1.548,3.458,3.457v3.198c0,1.909-1.549,3.457-3.458,3.457S262.328,195.495,262.328,193.586z M269.242,178.721
				c0,1.909-1.549,3.457-3.458,3.457s-3.456-1.548-3.456-3.457v-3.198c0-1.909,1.547-3.457,3.456-3.457s3.458,1.548,3.458,3.457
				V178.721z M268.67,164.142c0,1.909-1.548,3.457-3.457,3.457c-1.91,0-3.457-1.548-3.457-3.457v-3.197
				c0-1.91,1.547-3.458,3.457-3.458c1.909,0,3.457,1.548,3.457,3.458V164.142z M262.33,130.183c0-1.435,1.162-2.597,2.597-2.597
				s2.597,1.162,2.597,2.597v2.403c0,1.434-1.162,2.597-2.597,2.597s-2.597-1.163-2.597-2.597V130.183z M261.47,144.936
				c0-1.909,1.548-3.457,3.457-3.457s3.458,1.548,3.458,3.457v3.198c0,1.909-1.549,3.457-3.458,3.457s-3.457-1.548-3.457-3.457
				V144.936z M259.183,286.437c0-1.909,1.548-3.457,3.458-3.457c1.908,0,3.457,1.548,3.457,3.457v3.197
				c0,1.91-1.549,3.458-3.457,3.458c-1.91,0-3.458-1.548-3.458-3.458V286.437z M252.324,130.183c0-1.435,1.163-2.597,2.598-2.597
				c1.434,0,2.598,1.162,2.598,2.597v2.403c0,1.434-1.164,2.597-2.598,2.597c-1.435,0-2.598-1.163-2.598-2.597V130.183z
				 M252.324,145.333c0-1.434,1.163-2.597,2.598-2.597c1.434,0,2.598,1.163,2.598,2.597v2.403c0,1.435-1.164,2.597-2.598,2.597
				c-1.435,0-2.598-1.162-2.598-2.597V145.333z M251.752,161.342c0-1.435,1.163-2.598,2.598-2.598c1.434,0,2.597,1.163,2.597,2.598
				v2.402c0,1.435-1.163,2.598-2.597,2.598c-1.435,0-2.598-1.163-2.598-2.598V161.342z M250.036,176.952
				c0-1.909,1.548-3.457,3.457-3.457c1.91,0,3.457,1.548,3.457,3.457v3.198c0,1.909-1.547,3.457-3.457,3.457
				c-1.909,0-3.457-1.548-3.457-3.457V176.952z M249.464,194.39c0-1.909,1.548-3.457,3.457-3.457s3.457,1.548,3.457,3.457v3.198
				c0,1.909-1.548,3.457-3.457,3.457s-3.457-1.548-3.457-3.457V194.39z M248.606,211.255c0-1.909,1.547-3.457,3.457-3.457
				s3.458,1.548,3.458,3.457v3.198c0,1.909-1.548,3.457-3.458,3.457s-3.457-1.548-3.457-3.457V211.255z M248.606,227.549
				c0-1.909,1.547-3.457,3.457-3.457s3.458,1.548,3.458,3.457v3.198c0,1.909-1.548,3.457-3.458,3.457s-3.457-1.548-3.457-3.457
				V227.549z M248.035,242.7c0-1.91,1.548-3.458,3.457-3.458c1.91,0,3.458,1.548,3.458,3.458v3.197c0,1.91-1.548,3.457-3.458,3.457
				c-1.909,0-3.457-1.547-3.457-3.457V242.7z M234.117,333.648c2.265-3.487,8.008-4.373,8.008-4.373l-0.759,22.198l-12.641-0.179
				C228.726,351.295,228.772,341.876,234.117,333.648z M210.354,379.68c0,1.909-1.548,3.457-3.457,3.457s-3.457-1.548-3.457-3.457
				v-3.197c0-1.91,1.548-3.458,3.457-3.458s3.457,1.548,3.457,3.458V379.68z M211.784,361.099c0,1.909-1.548,3.458-3.457,3.458
				s-3.458-1.549-3.458-3.458v-3.197c0-1.91,1.548-3.458,3.458-3.458s3.457,1.548,3.457,3.458V361.099z M222.075,361.099
				c0,1.909-1.547,3.458-3.457,3.458c-1.909,0-3.457-1.549-3.457-3.458v-3.197c0-1.91,1.548-3.458,3.457-3.458
				c1.91,0,3.457,1.548,3.457,3.458V361.099z M232.938,361.099c0,1.909-1.548,3.458-3.457,3.458c-1.91,0-3.457-1.549-3.457-3.458
				v-3.197c0-1.91,1.547-3.458,3.457-3.458c1.909,0,3.457,1.548,3.457,3.458V361.099z M243.229,396.832
				c0,1.909-1.548,3.457-3.457,3.457c-1.91,0-3.458-1.548-3.458-3.457v-3.198c0-1.909,1.548-3.458,3.458-3.458
				c1.909,0,3.457,1.549,3.457,3.458V396.832z M243.229,379.68c0,1.909-1.548,3.457-3.457,3.457c-1.91,0-3.458-1.548-3.458-3.457
				v-3.197c0-1.91,1.548-3.458,3.458-3.458c1.909,0,3.457,1.548,3.457,3.458V379.68z M243.229,361.099
				c0,1.909-1.548,3.458-3.457,3.458c-1.91,0-3.458-1.549-3.458-3.458v-3.197c0-1.91,1.548-3.458,3.458-3.458
				c1.909,0,3.457,1.548,3.457,3.458V361.099z M249.803,327.653c0,1.909-1.548,3.457-3.457,3.457c-1.91,0-3.457-1.548-3.457-3.457
				v-3.197c0-1.91,1.547-3.458,3.457-3.458c1.909,0,3.457,1.548,3.457,3.458V327.653z M250.947,303.927
				c0,1.91-1.548,3.457-3.458,3.457c-1.909,0-3.457-1.547-3.457-3.457v-3.197c0-1.91,1.548-3.457,3.457-3.457
				c1.91,0,3.458,1.547,3.458,3.457V303.927z M250.947,289.92c0,1.909-1.548,3.457-3.458,3.457c-1.909,0-3.457-1.548-3.457-3.457
				v-3.198c0-1.909,1.548-3.457,3.457-3.457c1.91,0,3.458,1.548,3.458,3.457V289.92z M251.206,266.221
				c-1.909,0-3.457-1.548-3.457-3.457v-3.198c0-1.909,1.547-3.457,3.457-3.457c1.91,0,3.458,1.548,3.458,3.457v3.198
				C254.663,264.673,253.115,266.221,251.206,266.221z M260.666,396.832c0,1.909-1.548,3.457-3.457,3.457s-3.458-1.548-3.458-3.457
				v-3.198c0-1.909,1.548-3.458,3.458-3.458s3.457,1.549,3.457,3.458V396.832z M260.951,379.395c0,1.909-1.547,3.457-3.457,3.457
				c-1.909,0-3.457-1.548-3.457-3.457v-3.198c0-1.91,1.548-3.457,3.457-3.457c1.91,0,3.457,1.547,3.457,3.457V379.395z
				 M260.951,361.099c0,1.909-1.547,3.458-3.457,3.458c-1.909,0-3.457-1.549-3.457-3.458v-3.197c0-1.91,1.548-3.458,3.457-3.458
				c1.91,0,3.457,1.548,3.457,3.458V361.099z M262.953,342.519c0,1.909-1.549,3.457-3.457,3.457c-1.91,0-3.457-1.548-3.457-3.457
				v-3.198c0-1.909,1.547-3.457,3.457-3.457c1.908,0,3.457,1.548,3.457,3.457V342.519z M264.668,327.082
				c0,1.909-1.548,3.457-3.457,3.457c-1.91,0-3.457-1.548-3.457-3.457v-3.198c0-1.909,1.547-3.457,3.457-3.457
				c1.909,0,3.457,1.548,3.457,3.457V327.082z M262.641,307.384c-1.91,0-3.458-1.547-3.458-3.457v-3.197
				c0-1.91,1.548-3.457,3.458-3.457c1.908,0,3.457,1.547,3.457,3.457v3.197C266.098,305.837,264.549,307.384,262.641,307.384z
				 M272.958,379.395c0,1.909-1.548,3.457-3.458,3.457c-1.908,0-3.457-1.548-3.457-3.457v-3.198c0-1.91,1.549-3.457,3.457-3.457
				c1.91,0,3.458,1.547,3.458,3.457V379.395z M272.958,361.099c0,1.909-1.548,3.458-3.458,3.458c-1.908,0-3.457-1.549-3.457-3.458
				v-3.197c0-1.91,1.549-3.458,3.457-3.458c1.91,0,3.458,1.548,3.458,3.458V361.099z M266.305,351.049l1.186-22.422
				c0,0,4.855,0.158,8.128,5.263c3.784,5.902,3.503,16.963,3.503,16.963L266.305,351.049z M277.191,357.901
				c0-1.91,1.549-3.458,3.457-3.458c1.91,0,3.457,1.548,3.457,3.458v3.197c0,1.909-1.547,3.458-3.457,3.458
				c-1.908,0-3.457-1.549-3.457-3.458V357.901z M284.964,379.395c0,1.909-1.548,3.457-3.458,3.457c-1.908,0-3.456-1.548-3.456-3.457
				v-3.198c0-1.91,1.548-3.457,3.456-3.457c1.91,0,3.458,1.547,3.458,3.457V379.395z M288.34,361.099v-3.197
				c0-1.91,1.549-3.458,3.458-3.458s3.457,1.548,3.457,3.458v3.197c0,1.909-1.548,3.458-3.457,3.458S288.34,363.008,288.34,361.099z
				 M296.684,379.395c0,1.909-1.547,3.457-3.457,3.457c-1.909,0-3.457-1.548-3.457-3.457v-3.198c0-1.91,1.548-3.457,3.457-3.457
				c1.91,0,3.457,1.547,3.457,3.457V379.395z M298.918,361.099v-3.197c0-1.91,1.547-3.458,3.456-3.458s3.458,1.548,3.458,3.458
				v3.197c0,1.909-1.549,3.458-3.458,3.458S298.918,363.008,298.918,361.099z M301.776,379.395v-3.198
				c0-1.91,1.548-3.457,3.456-3.457c1.91,0,3.457,1.547,3.457,3.457v3.198c0,1.909-1.547,3.457-3.457,3.457
				C303.324,382.852,301.776,381.304,301.776,379.395z M313.55,394.831c0,1.909-1.548,3.456-3.457,3.456s-3.457-1.547-3.457-3.456
				v-3.198c0-1.909,1.548-3.457,3.457-3.457s3.457,1.548,3.457,3.457V394.831z"/>
		</g>
	</g>
	<g id="&#x424;&#x438;&#x433;&#x443;&#x440;&#x430;_214_&#x43A;&#x43E;&#x43F;&#x438;&#x44F;">
		<g>
			<path style="fill-rule:evenodd;clip-rule:evenodd;fill:#58505A;" d="M233.626,335.232c2.866-5.12,8.388-7.052,8.388-7.052
				s-3.308-4.658-9.959,0.403c-7.354,5.597-12.195,22.108-12.195,22.108l9.38,0.313
				C229.239,351.005,230.162,341.422,233.626,335.232z M324.364,398.244c-8.571-25.926-14.37-31.428-14.37-31.428l3.127-16.124
				h-13.578l-19.296-37.162l-4.288-40.735l-7.86-172.229l-7.854-21.418c-0.027,27.425-0.203,76.795-1.023,122.178
				c-1.048,57.971-5.015,108.498-5.015,108.498l-2.545,39.439l-4.288,0.715l0.044,17.151l0.58,0.587l-46.361-0.944l-4.311,8.085
				c0,0,7.438-2.345,26.174-2.523c13.753-0.131,23.698,2.995,27.283,3.449l-0.551,17.074l-7.949,41.733l17.686-0.024
				c0,0,1.111-24.573,5.414-36.457c2.932-8.096,9.146-8.11,9.146-8.11s7.762-4.168,14.583-1.688
				c7.009,2.548,13.099,11.808,14.292,16.666c3.695,15.041,10.506,30.908,10.506,30.908l27.797-0.577
				C341.707,435.307,330.049,415.44,324.364,398.244z M273.217,284.694c1.909,0,3.457,1.548,3.457,3.457v3.198
				c0,1.909-1.548,3.457-3.457,3.457s-3.457-1.548-3.457-3.457v-3.198C269.76,286.242,271.308,284.694,273.217,284.694z
				 M266.356,263.826c1.909,0,3.457,1.548,3.457,3.457v3.198c0,1.909-1.548,3.457-3.457,3.457s-3.458-1.548-3.458-3.457v-3.198
				C262.898,265.374,264.447,263.826,266.356,263.826z M262.898,255.331v-3.198c0-1.909,1.549-3.457,3.458-3.457
				s3.457,1.548,3.457,3.457v3.198c0,1.909-1.548,3.457-3.457,3.457S262.898,257.24,262.898,255.331z M269.76,302.444
				c0-1.909,1.548-3.457,3.457-3.457s3.457,1.548,3.457,3.457v3.198c0,1.909-1.548,3.457-3.457,3.457s-3.457-1.548-3.457-3.457
				V302.444z M269.813,239.609c0,1.909-1.548,3.457-3.457,3.457s-3.458-1.548-3.458-3.457v-3.199c0-1.909,1.549-3.457,3.458-3.457
				s3.457,1.548,3.457,3.457V239.609z M269.527,223.887c0,1.909-1.548,3.457-3.457,3.457s-3.457-1.548-3.457-3.457v-3.198
				c0-1.909,1.548-3.457,3.457-3.457s3.457,1.548,3.457,3.457V223.887z M265.784,202.081c1.909,0,3.457,1.548,3.457,3.457v3.198
				c0,1.909-1.548,3.457-3.457,3.457s-3.456-1.548-3.456-3.457v-3.198C262.328,203.629,263.875,202.081,265.784,202.081z
				 M262.328,193.586v-3.198c0-1.909,1.547-3.457,3.456-3.457s3.457,1.548,3.457,3.457v3.198c0,1.909-1.548,3.457-3.457,3.457
				S262.328,195.495,262.328,193.586z M269.241,178.721c0,1.909-1.548,3.457-3.457,3.457s-3.456-1.548-3.456-3.457v-3.198
				c0-1.909,1.547-3.457,3.456-3.457s3.457,1.548,3.457,3.457V178.721z M268.67,164.142c0,1.909-1.548,3.457-3.457,3.457
				c-1.91,0-3.457-1.548-3.457-3.457v-3.197c0-1.91,1.547-3.458,3.457-3.458c1.909,0,3.457,1.548,3.457,3.458V164.142z
				 M262.33,130.183c0-1.435,1.162-2.597,2.597-2.597s2.597,1.162,2.597,2.597v2.403c0,1.434-1.162,2.597-2.597,2.597
				s-2.597-1.163-2.597-2.597V130.183z M261.47,144.936c0-1.909,1.548-3.457,3.457-3.457s3.457,1.548,3.457,3.457v3.198
				c0,1.909-1.548,3.457-3.457,3.457s-3.457-1.548-3.457-3.457V144.936z M259.184,286.437c0-1.909,1.547-3.457,3.457-3.457
				c1.908,0,3.457,1.548,3.457,3.457v3.197c0,1.909-1.549,3.458-3.457,3.458c-1.91,0-3.457-1.549-3.457-3.458V286.437z
				 M260.666,396.832c0,1.909-1.548,3.457-3.457,3.457s-3.457-1.548-3.457-3.457v-3.198c0-1.91,1.548-3.458,3.457-3.458
				s3.457,1.548,3.457,3.458V396.832z M260.951,379.395c0,1.909-1.547,3.457-3.457,3.457c-1.909,0-3.457-1.548-3.457-3.457v-3.198
				c0-1.91,1.548-3.457,3.457-3.457c1.91,0,3.457,1.547,3.457,3.457V379.395z M260.951,361.099c0,1.909-1.547,3.458-3.457,3.458
				c-1.909,0-3.457-1.549-3.457-3.458v-3.197c0-1.909,1.548-3.458,3.457-3.458c1.91,0,3.457,1.549,3.457,3.458V361.099z
				 M262.953,342.519c0,1.909-1.549,3.457-3.457,3.457c-1.91,0-3.457-1.548-3.457-3.457v-3.198c0-1.909,1.547-3.457,3.457-3.457
				c1.908,0,3.457,1.548,3.457,3.457V342.519z M264.668,327.082c0,1.909-1.548,3.457-3.457,3.457c-1.91,0-3.457-1.548-3.457-3.457
				v-3.198c0-1.909,1.547-3.457,3.457-3.457c1.909,0,3.457,1.548,3.457,3.457V327.082z M262.641,307.384
				c-1.91,0-3.457-1.547-3.457-3.457v-3.197c0-1.91,1.547-3.457,3.457-3.457c1.908,0,3.457,1.547,3.457,3.457v3.197
				C266.098,305.837,264.549,307.384,262.641,307.384z M272.957,379.395c0,1.909-1.547,3.457-3.457,3.457
				c-1.908,0-3.457-1.548-3.457-3.457v-3.198c0-1.91,1.549-3.457,3.457-3.457c1.91,0,3.457,1.547,3.457,3.457V379.395z
				 M272.957,361.099c0,1.909-1.547,3.458-3.457,3.458c-1.908,0-3.457-1.549-3.457-3.458v-3.197c0-1.909,1.549-3.458,3.457-3.458
				c1.91,0,3.457,1.549,3.457,3.458V361.099z M266.305,351.049l1.186-22.422c0,0,0.203-12.81,11.746-0.388
				c6.812,7.331,9.667,22.278,9.667,22.278L266.305,351.049z M277.192,357.901c0-1.909,1.548-3.458,3.456-3.458
				c1.91,0,3.458,1.549,3.458,3.458v3.197c0,1.909-1.548,3.458-3.458,3.458c-1.908,0-3.456-1.549-3.456-3.458V357.901z
				 M284.964,379.395c0,1.909-1.548,3.457-3.458,3.457c-1.908,0-3.456-1.548-3.456-3.457v-3.198c0-1.91,1.548-3.457,3.456-3.457
				c1.91,0,3.458,1.547,3.458,3.457V379.395z M288.34,361.099v-3.197c0-1.909,1.549-3.458,3.458-3.458s3.457,1.549,3.457,3.458
				v3.197c0,1.909-1.548,3.458-3.457,3.458S288.34,363.008,288.34,361.099z M296.684,379.395c0,1.909-1.547,3.457-3.457,3.457
				c-1.908,0-3.457-1.548-3.457-3.457v-3.198c0-1.91,1.549-3.457,3.457-3.457c1.91,0,3.457,1.547,3.457,3.457V379.395z
				 M298.918,361.099v-3.197c0-1.909,1.547-3.458,3.456-3.458s3.458,1.549,3.458,3.458v3.197c0,1.909-1.549,3.458-3.458,3.458
				S298.918,363.008,298.918,361.099z M301.776,379.395v-3.198c0-1.91,1.548-3.457,3.457-3.457s3.456,1.547,3.456,3.457v3.198
				c0,1.909-1.547,3.457-3.456,3.457S301.776,381.304,301.776,379.395z M313.55,394.831c0,1.909-1.548,3.456-3.458,3.456
				c-1.908,0-3.456-1.547-3.456-3.456v-3.199c0-1.909,1.548-3.457,3.456-3.457c1.91,0,3.458,1.548,3.458,3.457V394.831z
				 M223.943,381.634c-17.768,1.822-44.892,49.649-44.892,49.649l-8.017,2.957l21.846-0.023c0,0,5.837-11.275,12.36-19.691
				l22.875-15.856c0.995-0.118,1.524-0.051,1.524-0.051l-2.553,10.604c2.472-8.43,4.314-16.637,4.194-22.091
				C231.185,382.705,226.664,381.354,223.943,381.634z"/>
		</g>
	</g>
	
		<g id="&#x417;&#x430;&#x43B;&#x438;&#x432;&#x43A;&#x430;_&#x446;&#x432;&#x435;&#x442;&#x43E;&#x43C;_151_&#x43A;&#x43E;&#x43F;&#x438;&#x44F;">
		<g>
			<path style="fill-rule:evenodd;clip-rule:evenodd;fill:#513B46;" d="M269.648,352.82c-2.695,0-4.887,2.192-4.887,4.887v3.198
				c0,2.693,2.191,4.886,4.887,4.886c2.693,0,4.887-2.192,4.887-4.886v-3.198C274.535,355.013,272.342,352.82,269.648,352.82z
				 M271.676,360.905c0,1.117-0.909,2.027-2.027,2.027s-2.028-0.91-2.028-2.027v-3.198c0-1.118,0.91-2.028,2.028-2.028
				s2.027,0.91,2.027,2.028V360.905z M275.91,357.707v3.198c0,2.693,2.191,4.886,4.887,4.886c2.693,0,4.885-2.192,4.885-4.886
				v-3.198c0-2.694-2.191-4.887-4.885-4.887C278.102,352.82,275.91,355.013,275.91,357.707z M282.823,357.707v3.198
				c0,1.117-0.909,2.027-2.026,2.027c-1.119,0-2.029-0.91-2.029-2.027v-3.198c0-1.118,0.91-2.028,2.029-2.028
				C281.914,355.679,282.823,356.589,282.823,357.707z M262.787,294.327c2.695,0,4.886-2.193,4.886-4.887v-3.198
				c0-2.694-2.19-4.887-4.886-4.887c-2.3,0-4.221,1.603-4.738,3.745l-0.148,2.557v1.783
				C257.9,292.134,260.092,294.327,262.787,294.327z M260.758,286.242c0-1.118,0.911-2.028,2.029-2.028
				c1.117,0,2.027,0.91,2.027,2.028v3.198c0,1.117-0.91,2.027-2.027,2.027c-1.118,0-2.029-0.91-2.029-2.027V286.242z
				 M262.787,308.62c2.695,0,4.886-2.193,4.886-4.888v-3.197c0-2.694-2.19-4.887-4.886-4.887s-4.887,2.192-4.887,4.887v3.197
				C257.9,306.427,260.092,308.62,262.787,308.62z M260.758,300.535c0-1.118,0.911-2.028,2.029-2.028
				c1.117,0,2.027,0.91,2.027,2.028v3.197c0,1.118-0.91,2.028-2.027,2.028c-1.118,0-2.029-0.91-2.029-2.028V300.535z
				 M287.058,360.905c0,2.693,2.193,4.886,4.888,4.886c2.693,0,4.886-2.192,4.886-4.886v-3.198c0-2.694-2.192-4.887-4.886-4.887
				c-2.694,0-4.888,2.192-4.888,4.887V360.905z M289.916,357.707c0-1.118,0.91-2.028,2.029-2.028c1.117,0,2.027,0.91,2.027,2.028
				v3.198c0,1.117-0.91,2.027-2.027,2.027c-1.119,0-2.029-0.91-2.029-2.027V357.707z M259.642,347.211
				c1.93,0,3.587-1.134,4.38-2.762c-0.135,3.326-0.223,5.755-0.223,5.755l4.285,0.156c0,0,0.281-7.721,0.606-14.479
				c0.118-2.433,0.28-4.258,0.461-5.7c1.46,0.459,3.671,1.573,5.409,4.286c3.501,5.459,3.282,16.049,3.279,16.156l2.858,0.071
				c0.012-0.471,0.245-11.569-3.731-17.771c-2.319-3.619-5.361-5.022-7.321-5.568c0.276-1.074,0.558-1.573,0.798-1.725
				c8.369-0.684,14.349,18.598,15.805,25.422l4.193-0.892c-0.653-3.072-6.813-29.982-20.367-28.801
				c-1.812,0.156-3.012,1.234-3.83,2.933v-0.603c0-2.693-2.191-4.887-4.886-4.887c-2.695,0-4.888,2.193-4.888,4.887v3.198
				c0,2.694,2.192,4.887,4.888,4.887c1.338,0,2.551-0.543,3.434-1.417c-0.183,1.648-0.293,3.443-0.384,5.317
				c-0.033,0.688-0.066,1.385-0.098,2.083c-0.596-2.025-2.452-3.519-4.669-3.519c-2.694,0-4.885,2.193-4.885,4.887v3.198
				C254.756,345.018,256.947,347.211,259.642,347.211z M263.385,326.888c0,1.118-0.908,2.028-2.026,2.028s-2.029-0.91-2.029-2.028
				v-3.198c0-1.117,0.911-2.027,2.029-2.027s2.026,0.91,2.026,2.027V326.888z M257.615,339.126c0-1.118,0.909-2.028,2.026-2.028
				c1.118,0,2.03,0.91,2.03,2.028v3.198c0,1.118-0.912,2.027-2.03,2.027c-1.117,0-2.026-0.909-2.026-2.027V339.126z M286.54,379.199
				v-3.197c0-2.694-2.192-4.887-4.887-4.887s-4.886,2.192-4.886,4.887v3.197c0,2.694,2.191,4.887,4.886,4.887
				S286.54,381.894,286.54,379.199z M279.627,379.199v-3.197c0-1.118,0.908-2.028,2.026-2.028s2.028,0.91,2.028,2.028v3.197
				c0,1.118-0.91,2.028-2.028,2.028S279.627,380.317,279.627,379.199z M298.26,379.199v-3.197c0-2.694-2.191-4.887-4.886-4.887
				s-4.887,2.192-4.887,4.887v3.197c0,2.694,2.192,4.887,4.887,4.887S298.26,381.894,298.26,379.199z M291.346,379.199v-3.197
				c0-1.118,0.91-2.028,2.028-2.028s2.028,0.91,2.028,2.028v3.197c0,1.118-0.91,2.028-2.028,2.028S291.346,380.317,291.346,379.199z
				 M305.354,391.438v3.198c0,2.693,2.191,4.887,4.886,4.887s4.887-2.193,4.887-4.887v-3.198c0-2.693-2.192-4.887-4.887-4.887
				S305.354,388.744,305.354,391.438z M312.268,391.438v3.198c0,1.118-0.91,2.028-2.028,2.028s-2.026-0.91-2.026-2.028v-3.198
				c0-1.118,0.908-2.027,2.026-2.027S312.268,390.319,312.268,391.438z M305.381,371.115c-2.693,0-4.887,2.192-4.887,4.887v3.197
				c0,2.694,2.193,4.887,4.887,4.887s4.887-2.192,4.887-4.887v-3.197C310.268,373.308,308.074,371.115,305.381,371.115z
				 M307.408,379.199c0,1.118-0.91,2.028-2.027,2.028c-1.118,0-2.028-0.91-2.028-2.028v-3.197c0-1.118,0.91-2.028,2.028-2.028
				c1.117,0,2.027,0.91,2.027,2.028V379.199z M257.642,365.791c2.694,0,4.887-2.192,4.887-4.886v-3.198
				c0-2.694-2.192-4.887-4.887-4.887s-4.887,2.192-4.887,4.887v3.198C252.755,363.599,254.947,365.791,257.642,365.791z
				 M255.613,357.707c0-1.118,0.91-2.028,2.028-2.028s2.028,0.91,2.028,2.028v3.198c0,1.117-0.91,2.027-2.028,2.027
				s-2.028-0.91-2.028-2.027V357.707z M307.408,360.905v-3.198c0-2.694-2.192-4.887-4.887-4.887c-2.693,0-4.887,2.192-4.887,4.887
				v3.198c0,2.693,2.193,4.886,4.887,4.886C305.216,365.791,307.408,363.599,307.408,360.905z M300.494,360.905v-3.198
				c0-1.118,0.91-2.028,2.027-2.028c1.118,0,2.028,0.91,2.028,2.028v3.198c0,1.117-0.91,2.027-2.028,2.027
				C301.404,362.933,300.494,362.022,300.494,360.905z M266.504,260.023c2.693,0,4.885-2.193,4.885-4.887v-3.197
				c0-2.695-2.191-4.887-4.885-4.887c-2.695,0-4.888,2.191-4.888,4.887v3.197C261.616,257.83,263.809,260.023,266.504,260.023z
				 M264.475,251.939c0-1.118,0.91-2.028,2.029-2.028c1.117,0,2.026,0.91,2.026,2.028v3.197c0,1.118-0.909,2.028-2.026,2.028
				c-1.119,0-2.029-0.91-2.029-2.028V251.939z M227.431,394.979c-3.521,0.521-10.062,2.689-19.091,10.765
				c-7.115,6.362-14.732,19.7-17.457,24.709l-6.619,0.007c0.373-0.645,0.785-1.34,1.197-2.035c-1.517,1.011-2.54,1.486-2.54,1.486
				l-3.421,8.815l15.625,0.002l1.078-3.063c0.091-0.178,9.21-17.718,16.901-24.595c5.136-4.594,9.144-6.868,11.89-7.996l-0.23,0.955
				l7.626-12.168l-4.515,1.326C227.747,393.795,227.604,394.4,227.431,394.979z M281.509,406.781
				c-0.23-0.581-0.46-1.162-0.728-1.733C281.049,405.619,281.278,406.201,281.509,406.781z M274.535,379.199v-3.197
				c0-2.694-2.193-4.887-4.887-4.887c-2.695,0-4.887,2.192-4.887,4.887v3.197c0,2.694,2.191,4.887,4.887,4.887
				C272.342,384.086,274.535,381.894,274.535,379.199z M267.62,379.199v-3.197c0-1.118,0.91-2.028,2.028-2.028
				s2.027,0.91,2.027,2.028v3.197c0,1.118-0.909,2.028-2.027,2.028S267.62,380.317,267.62,379.199z M344.936,433.305
				c-0.113-0.196-11.534-19.751-17.031-36.377c-6.558-19.83-11.623-28.178-13.955-31.304l3.584-20.129h-14.355l-19.311-33.293
				l-4.195-39.871L271.79,99.657l-11.265-30.723l0.971,23.411l3.205,8.738l1.139,24.955c-0.248-0.048-0.504-0.077-0.766-0.077
				c-2.221,0-4.027,1.807-4.027,4.026v2.403c0,2.22,1.807,4.026,4.027,4.026c0.432,0,0.84-0.086,1.229-0.213l0.177,3.881
				c-0.448-0.136-0.914-0.23-1.406-0.23c-1.931,0-3.588,1.134-4.381,2.764l-0.116,7.23c0.745,1.748,2.479,2.977,4.497,2.977
				c0.701,0,1.365-0.154,1.969-0.422l0.175,3.831c-0.573-0.237-1.2-0.372-1.857-0.372c-2.694,0-4.887,2.192-4.887,4.887v3.198
				c0,2.693,2.192,4.886,4.887,4.886c0.878,0,1.69-0.251,2.402-0.658l0.122,2.68c-0.6-0.263-1.258-0.414-1.953-0.414
				c-2.694,0-4.886,2.192-4.886,4.887v3.198c0,2.694,2.191,4.887,4.886,4.887c0.914,0,1.762-0.269,2.494-0.708l0.155,3.394
				c-0.765-0.497-1.673-0.792-2.649-0.792c-2.694,0-4.886,2.192-4.886,4.887v3.197c0,2.695,2.191,4.887,4.886,4.887
				c1.206,0,2.298-0.456,3.151-1.184l0.216,4.725c-0.878-0.839-2.061-1.361-3.367-1.361c-2.694,0-4.886,2.192-4.886,4.886v3.199
				c0,2.694,2.191,4.886,4.886,4.886c1.549,0,2.916-0.738,3.812-1.866l0.269,5.893c-0.896-1.116-2.255-1.847-3.795-1.847
				c-2.694,0-4.887,2.192-4.887,4.887v3.198c0,2.694,2.192,4.887,4.887,4.887c1.79,0,3.342-0.978,4.193-2.417l0.352,7.707
				c-0.834-1.506-2.42-2.539-4.258-2.539c-2.695,0-4.888,2.191-4.888,4.885v3.199c0,2.695,2.192,4.887,4.888,4.887
				c2.12,0,3.91-1.366,4.585-3.258l1.448,31.722l0.359,3.427l-6.377-1.02c2.687-0.009,4.869-2.197,4.869-4.885v-3.198
				c0-2.694-2.191-4.887-4.885-4.887c-2.695,0-4.888,2.192-4.888,4.887v3.198c0,2.206,1.481,4.055,3.494,4.659l-6.517-1.042
				l-0.063,2.885l14.676,2.347l0.416,3.961c-0.088-0.004-0.17-0.026-0.26-0.026c-2.693,0-4.887,2.193-4.887,4.888v3.197
				c0,2.694,2.193,4.887,4.887,4.887c0.561,0,1.089-0.114,1.59-0.288l0.207,1.962c-0.558-0.222-1.161-0.353-1.797-0.353
				c-2.693,0-4.887,2.193-4.887,4.887v3.198c0,2.207,1.48,4.056,3.494,4.66l-15.264-1.942l-0.166,2.86l20.289,2.582l0.091,0.861
				l22.14,38.172h9.941l-2.371,13.315l-56.927,0.084l-0.497,0.002l2.525-0.004l0.076,2.857l55.455-0.082l0.362,0.344
				c0.055,0.056,5.521,5.897,13.493,30.014c3.991,12.072,10.738,25.215,14.638,32.376l-18.746,0.026
				c-0.868-2.429-4.287-11.774-9.047-22.037c-1.025-2.211-1.85-4.267-2.646-6.256c-2.098-5.23-3.908-9.747-8.09-13.928
				c-8.709-8.709-23.109-3.428-23.719-3.198l0.066,0.178c-2.438,0.365-8.322,2.09-11.332,10.187v-3.08
				c0-2.694-2.192-4.887-4.887-4.887c-2.694,0-4.885,2.192-4.885,4.887v3.198c0,2.693,2.191,4.886,4.885,4.886
				c1.605,0,3.021-0.789,3.913-1.989c-2.851,9.899-4.093,24.639-4.526,31.269l-11.732,0.016l-1.76,8.005l0.688-0.096l19.856,0.096
				l-0.108-4.29c0.011-0.24,1.139-24.171,5.205-35.403c1.261-3.482,3.18-4.858,4.465-5.401c0.039,0.046,0.091,0.111,0.131,0.159
				c-0.016-0.019-0.037-0.045-0.052-0.063c0.362-0.253,0.759-0.488,1.235-0.671c2.315-0.889,4.449-1.251,6.279-1.347
				c-0.023-0.031-0.051-0.068-0.074-0.1c3.542-0.485,8.236-0.361,11.299,2.699c3.146,3.146,4.629,6.849,6.51,11.535
				c0.793,1.979,1.691,4.22,2.797,6.603c3.596,7.753,6.455,15.113,7.92,19.041l2.838,7.205l35.85-0.113L344.936,433.305z
				 M265.074,133.56c-0.645,0-1.168-0.524-1.168-1.168v-2.403c0-0.644,0.523-1.168,1.168-1.168c0.379,0,0.7,0.193,0.914,0.474
				l0.162,3.552C265.973,133.265,265.557,133.56,265.074,133.56z M265.074,149.968c-1.118,0-2.028-0.91-2.028-2.028v-3.198
				c0-1.117,0.91-2.027,2.028-2.027c0.631,0,1.188,0.295,1.561,0.749l0.246,5.38C266.547,149.507,265.866,149.968,265.074,149.968z
				 M267.387,163.948c0,1.117-0.909,2.027-2.026,2.027c-1.118,0-2.028-0.91-2.028-2.027v-3.198c0-1.118,0.91-2.028,2.028-2.028
				c1.117,0,2.026,0.91,2.026,2.028V163.948z M267.959,178.526c0,1.118-0.91,2.028-2.027,2.028c-1.118,0-2.027-0.91-2.027-2.028
				v-3.198c0-1.118,0.909-2.027,2.027-2.027c1.117,0,2.027,0.909,2.027,2.027V178.526z M267.959,193.391
				c0,1.118-0.91,2.028-2.027,2.028c-1.118,0-2.027-0.91-2.027-2.028v-3.197c0-1.118,0.909-2.028,2.027-2.028
				c1.117,0,2.027,0.91,2.027,2.028V193.391z M267.959,208.542c0,1.117-0.91,2.027-2.027,2.027c-1.118,0-2.027-0.91-2.027-2.027
				v-3.199c0-1.118,0.909-2.027,2.027-2.027c1.117,0,2.027,0.909,2.027,2.027V208.542z M268.245,223.692
				c0,1.118-0.909,2.028-2.028,2.028c-1.117,0-2.027-0.91-2.027-2.028v-3.198c0-1.117,0.91-2.027,2.027-2.027
				c1.119,0,2.028,0.91,2.028,2.027V223.692z M268.53,239.414c0,1.118-0.909,2.028-2.026,2.028c-1.119,0-2.029-0.91-2.029-2.028
				v-3.199c0-1.117,0.91-2.026,2.029-2.026c1.117,0,2.026,0.909,2.026,2.026V239.414z M264.475,270.287v-3.198
				c0-1.118,0.91-2.028,2.029-2.028c1.117,0,2.026,0.91,2.026,2.028v3.198c0,1.118-0.909,2.027-2.026,2.027
				C265.385,272.314,264.475,271.405,264.475,270.287z M273.363,293.184c-1.117,0-2.027-0.91-2.027-2.028v-3.197
				c0-1.118,0.91-2.028,2.027-2.028c0.198,0,0.386,0.037,0.566,0.091l0.705,6.702C274.286,293.006,273.848,293.184,273.363,293.184z
				 M271.336,305.448v-3.198c0-1.117,0.91-2.027,2.027-2.027c1.119,0,2.028,0.91,2.028,2.027v3.198c0,1.118-0.909,2.028-2.028,2.028
				C272.246,307.477,271.336,306.566,271.336,305.448z M273.581,310.313c1.056-0.047,2.015-0.43,2.793-1.045l0.149,1.42
				L273.581,310.313z M259.383,396.638c0,1.117-0.91,2.027-2.027,2.027s-2.027-0.91-2.027-2.027v-3.198
				c0-1.118,0.91-2.028,2.027-2.028s2.027,0.91,2.027,2.028V396.638z M257.642,384.086c2.694,0,4.887-2.192,4.887-4.887v-3.197
				c0-2.694-2.192-4.887-4.887-4.887s-4.887,2.192-4.887,4.887v3.197C252.755,381.894,254.947,384.086,257.642,384.086z
				 M255.613,376.002c0-1.118,0.91-2.028,2.028-2.028s2.028,0.91,2.028,2.028v3.197c0,1.118-0.91,2.028-2.028,2.028
				s-2.028-0.91-2.028-2.028V376.002z"/>
		</g>
	</g>
	
		<g id="&#x417;&#x430;&#x43B;&#x438;&#x432;&#x43A;&#x430;_&#x446;&#x432;&#x435;&#x442;&#x43E;&#x43C;_151_&#x43A;&#x43E;&#x43F;&#x438;&#x44F;_2">
		<g>
			<path style="fill-rule:evenodd;clip-rule:evenodd;fill:#F4C899;" d="M240.169,384.435c2.694,0,4.886-2.192,4.886-4.887v-3.197
				c0-2.694-2.192-4.887-4.886-4.887c-2.695,0-4.888,2.192-4.888,4.887v3.197C235.281,382.242,237.474,384.435,240.169,384.435z
				 M238.14,376.351c0-1.118,0.911-2.028,2.029-2.028c1.118,0,2.027,0.91,2.027,2.028v3.197c0,1.118-0.909,2.028-2.027,2.028
				c-1.119,0-2.029-0.91-2.029-2.028V376.351z M309.65,431.647l-15.293,0.021c-0.637-4.379-2.044-12.918-4.625-23.418
				c-1.541-6.278-5.531-12.411-8.533-16.382c-1.829,0.096-3.964,0.458-6.279,1.347c-0.476,0.183-0.873,0.418-1.235,0.671
				c2.461,2.959,7.524,9.618,9.108,16.069c3.591,14.615,4.875,25.589,4.888,25.698l0.364,3.169l24.193-0.033L309.65,431.647z
				 M249.953,99.739l-11.452,173.209l-6.282,35.596l-22.906,37.729h-16.144l4.987,19.95l-53.177,72.505l35.271,0.096l4.265-8.302
				c7.949-13.738,25.188-39.957,37.515-43.957c3.39-1.098,5.212-0.869,5.788-0.284c1.18,1.198,0.106,5.826-0.544,8.761
				c-0.651,2.936-11.835,43.687-11.835,43.687h28.5l1.323-7.847l6.776-38.624l0.021-23.298l-0.076-2.856l-2.525,0.003l-0.22-12.755
				l5.416-0.01l1.289-4.29l-2.518,0.005l3.278-36.424l2.08-35.78l0.063-2.885l2.903-181.559l-1.273-24.232L249.953,99.739z
				 M255.186,128.91c0.045-0.006,0.086-0.027,0.133-0.027c0.644,0,1.168,0.524,1.168,1.168v2.403c0,0.644-0.524,1.168-1.168,1.168
				c-0.156,0-0.303-0.034-0.439-0.089L255.186,128.91z M254.151,145.201c0-0.644,0.524-1.167,1.168-1.167
				c0.644,0,1.168,0.523,1.168,1.167v2.403c0,0.644-0.524,1.168-1.168,1.168c-0.645,0-1.168-0.524-1.168-1.168V145.201z
				 M251.862,179.19l0.215-3.262c0.332-0.67,1.016-1.137,1.813-1.137c1.118,0,2.028,0.91,2.028,2.028v3.198
				c0,1.117-0.91,2.027-2.028,2.027s-2.028-0.91-2.028-2.027V179.19z M213.334,353.419l0.003-0.006l3.52-0.006
				c-1.609,0.801-2.729,2.446-2.729,4.362v3.198c0,2.693,2.191,4.886,4.885,4.886c2.695,0,4.887-2.192,4.887-4.886v-3.198
				c0-1.922-1.125-3.572-2.743-4.37l6.597-0.011c-1.629,0.793-2.764,2.45-2.764,4.381v3.198c0,2.693,2.192,4.886,4.887,4.886
				c2.695,0,4.887-2.192,4.887-4.886v-3.198c0-1.936-1.141-3.598-2.778-4.389l6.093-0.011c-1.648,0.786-2.799,2.455-2.799,4.399
				v3.198c0,2.693,2.193,4.886,4.888,4.886c2.694,0,4.886-2.192,4.886-4.886v-3.198c0-1.949-1.156-3.623-2.811-4.406l4.133-0.008
				l0.221,12.761l-41.063,0.153l-0.548-2.191c0.897,1.075,2.231,1.775,3.738,1.775c2.694,0,4.885-2.192,4.885-4.886v-3.198
				c0-1.907-1.109-3.546-2.708-4.351H213.334z M216.988,360.968v-3.198c0-1.118,0.909-2.028,2.026-2.028
				c1.118,0,2.028,0.91,2.028,2.028v3.198c0,1.117-0.91,2.027-2.028,2.027C217.897,362.995,216.988,362.085,216.988,360.968z
				 M239.656,349.08l-8.315,0.014c0.37-3.064,1.394-9.246,3.963-13.586c1.201-2.029,3.18-3.327,4.614-4.057
				c0.142,0.953,0.258,2.175,0.305,3.807C240.367,340.366,239.913,346.261,239.656,349.08z M242.196,357.77v3.198
				c0,1.117-0.909,2.027-2.027,2.027c-1.119,0-2.029-0.91-2.029-2.027v-3.198c0-1.118,0.911-2.028,2.029-2.028
				C241.287,355.741,242.196,356.651,242.196,357.77z M231.906,357.77v3.198c0,1.117-0.91,2.027-2.028,2.027
				s-2.028-0.91-2.028-2.027v-3.198c0-1.118,0.91-2.028,2.028-2.028S231.906,356.651,231.906,357.77z M232.844,334.051
				c-2.963,5.005-4.035,11.896-4.387,15.049l-3.98,0.007c1.999-6.936,7.271-20.192,14.438-20.694
				c0.012,0.008,0.091,0.066,0.204,0.244C237.324,329.498,234.545,331.176,232.844,334.051z M206.695,357.77
				c0-1.118,0.911-2.028,2.03-2.028c1.117,0,2.026,0.91,2.026,2.028v3.198c0,1.117-0.909,2.027-2.026,2.027
				c-1.119,0-2.03-0.91-2.03-2.027V357.77z M206.545,353.419c-1.599,0.805-2.709,2.443-2.709,4.351v1.708l-1.515-6.059H206.545z
				 M249.2,391.886l-6.842,38.999l-16.448,0.023l7.603-31.586l0.283-1.376l1.182-2.925c0,0,0.121-0.123,0.303-0.98v2.659
				c0,2.693,2.193,4.886,4.888,4.886c2.694,0,4.886-2.192,4.886-4.886v-3.198c0-2.693-2.192-4.887-4.886-4.887
				c-2.08,0-3.849,1.313-4.553,3.146c0.366-3.532,0.035-7.701-2.694-10.484c-2.841-2.897-7.248-3.407-13.097-1.51
				c-5.752,1.866-11.85,6.962-17.616,13.265c0.15-0.47,0.253-0.959,0.253-1.478v-3.199c0-2.693-2.192-4.885-4.887-4.885
				c-2.694,0-4.885,2.191-4.885,4.885v3.199c0,2.694,2.191,4.886,4.885,4.886c0.729,0,1.414-0.171,2.036-0.458
				c-11.407,13.373-21.041,30.422-23.308,34.548l-17.088,0.018l45.685-61.417l44.3-0.166V391.886z M238.14,396.7v-3.198
				c0-1.118,0.911-2.028,2.029-2.028c1.118,0,2.027,0.91,2.027,2.028v3.198c0,1.117-0.909,2.027-2.027,2.027
				C239.05,398.728,238.14,397.817,238.14,396.7z M199.603,388.355v3.199c0,1.118-0.91,2.027-2.028,2.027
				c-1.117,0-2.026-0.909-2.026-2.027v-3.199c0-1.118,0.909-2.026,2.026-2.026C198.693,386.329,199.603,387.237,199.603,388.355z
				 M253.851,312.422l-3.299,36.639l-6.588,0.012c0.271-3.039,0.69-8.783,0.544-13.938c-0.036-1.267-0.113-2.398-0.231-3.419
				c0.727,0.429,1.563,0.692,2.466,0.692c2.695,0,4.887-2.193,4.887-4.887v-3.198c0-2.693-2.192-4.887-4.887-4.887
				c-2.694,0-4.887,2.193-4.887,4.887v0.973c-0.013-0.013-0.024-0.029-0.039-0.042c-0.873-0.792-1.948-1.154-3.122-1.096
				c-11.602,0.77-17.432,20.247-18.674,24.956l-4.078,0.007l22.656-37.315l15.313-0.44L253.851,312.422z M244.715,327.521v-3.198
				c0-1.118,0.91-2.028,2.028-2.028s2.028,0.91,2.028,2.028v3.198c0,1.118-0.91,2.027-2.028,2.027S244.715,328.64,244.715,327.521z
				 M254.079,308.499l-6.127,0.177c2.664-0.036,4.822-2.209,4.822-4.88v-3.198c0-2.694-2.192-4.887-4.887-4.887
				c-2.695,0-4.887,2.192-4.887,4.887v3.198c0,2.681,2.173,4.862,4.851,4.883l-8.441,0.243l3.59-20.346v1.212
				c0,2.694,2.192,4.888,4.887,4.888c2.694,0,4.887-2.193,4.887-4.888v-3.197c0-2.694-2.192-4.887-4.887-4.887
				c-1.688,0-3.178,0.861-4.057,2.166l1.04-5.893l11.037-0.925L254.079,308.499z M247.887,305.823c-1.118,0-2.028-0.91-2.028-2.027
				v-3.198c0-1.118,0.91-2.028,2.028-2.028c1.118,0,2.028,0.91,2.028,2.028v3.198C249.915,304.913,249.004,305.823,247.887,305.823z
				 M245.858,289.788v-3.197c0-1.118,0.91-2.028,2.028-2.028c1.118,0,2.028,0.91,2.028,2.028v3.197c0,1.118-0.91,2.028-2.028,2.028
				C246.769,291.816,245.858,290.906,245.858,289.788z M256.24,257.973c-0.625-1.978-2.455-3.425-4.637-3.425
				c-2.695,0-4.887,2.191-4.887,4.887v3.196c0,2.695,2.192,4.888,4.887,4.888c2.06,0,3.817-1.286,4.534-3.095l-0.156,9.755
				l-10.598,0.889l0.188-1.068l0.034-0.19l1.737-26.282c0.709,1.824,2.473,3.125,4.544,3.125c2.04,0,3.787-1.258,4.518-3.036
				L256.24,257.973z M253.63,259.435v3.196c0,1.119-0.909,2.029-2.026,2.029c-1.118,0-2.028-0.91-2.028-2.029v-3.196
				c0-1.118,0.91-2.028,2.028-2.028C252.721,257.406,253.63,258.316,253.63,259.435z M249.862,245.767v-3.199
				c0-1.117,0.909-2.026,2.026-2.026c1.118,0,2.028,0.909,2.028,2.026v3.199c0,1.117-0.91,2.026-2.028,2.026
				C250.771,247.793,249.862,246.884,249.862,245.767z M256.512,241.057c-0.642-1.952-2.46-3.375-4.624-3.375
				c-1.675,0-3.154,0.85-4.035,2.138l0.442-6.684c0.857,1.411,2.396,2.366,4.165,2.366c1.779,0,3.323-0.966,4.178-2.392
				L256.512,241.057z M250.432,230.615v-3.197c0-1.119,0.91-2.028,2.028-2.028c1.117,0,2.027,0.909,2.027,2.028v3.197
				c0,1.118-0.91,2.028-2.027,2.028C251.342,232.644,250.432,231.733,250.432,230.615z M256.766,225.156
				c-0.819-1.553-2.431-2.626-4.305-2.626c-1.412,0-2.675,0.611-3.568,1.571l0.402-6.089c0.855,0.734,1.953,1.194,3.166,1.194
				c1.979,0,3.679-1.188,4.446-2.885L256.766,225.156z M250.432,214.322v-3.199c0-1.118,0.91-2.027,2.028-2.027
				c1.117,0,2.027,0.909,2.027,2.027v3.199c0,1.117-0.91,2.026-2.027,2.026C251.342,216.349,250.432,215.439,250.432,214.322z
				 M257.018,209.402c-0.699-1.845-2.471-3.165-4.557-3.165c-0.889,0-1.712,0.256-2.431,0.673l0.368-5.562
				c0.817,0.615,1.821,0.993,2.92,0.993c1.567,0,2.948-0.754,3.843-1.904L257.018,209.402z M251.291,197.456v-3.198
				c0-1.118,0.909-2.027,2.026-2.027c1.118,0,2.028,0.909,2.028,2.027v3.198c0,1.118-0.91,2.027-2.028,2.027
				C252.2,199.483,251.291,198.574,251.291,197.456z M257.305,191.45c-0.886-1.254-2.339-2.079-3.987-2.079
				c-0.78,0-1.508,0.201-2.164,0.528l0.372-5.631c0.704,0.393,1.502,0.636,2.364,0.636c1.398,0,2.652-0.597,3.544-1.541
				L257.305,191.45z M257.588,173.663c-0.896-1.049-2.213-1.729-3.698-1.729c-0.551,0-1.072,0.112-1.567,0.281l0.342-5.173
				c0.609,0.371,1.317,0.598,2.082,0.598c1.174,0,2.222-0.514,2.959-1.317L257.588,173.663z M253.58,163.612v-2.402
				c0-0.645,0.523-1.169,1.167-1.169c0.644,0,1.168,0.524,1.168,1.169v2.402c0,0.645-0.524,1.169-1.168,1.169
				C254.104,164.781,253.58,164.257,253.58,163.612z M257.828,158.649c-0.738-0.889-1.838-1.467-3.082-1.467
				c-0.512,0-0.998,0.105-1.448,0.281l0.408-6.175c0.495,0.217,1.039,0.342,1.613,0.342c1.013,0,1.929-0.389,2.638-1.009
				L257.828,158.649z M258.09,142.294c-0.723-0.689-1.695-1.119-2.771-1.119c-0.33,0-0.646,0.052-0.953,0.126l0.323-4.884
				c0.207,0.032,0.414,0.063,0.63,0.063c1.132,0,2.151-0.473,2.884-1.226L258.09,142.294z M258.328,127.402
				c-0.727-0.824-1.773-1.355-2.952-1.372l1.646-24.902l1.813-5.438L258.328,127.402z M202.407,376.351v3.197
				c0,2.694,2.193,4.887,4.888,4.887c2.694,0,4.885-2.192,4.885-4.887v-3.197c0-2.694-2.191-4.887-4.885-4.887
				C204.6,371.464,202.407,373.656,202.407,376.351z M205.266,376.351c0-1.118,0.911-2.028,2.03-2.028
				c1.117,0,2.027,0.91,2.027,2.028v3.197c0,1.118-0.91,2.028-2.027,2.028c-1.119,0-2.03-0.91-2.03-2.028V376.351z"/>
		</g>
	</g>
	<g id="&#x424;&#x438;&#x433;&#x443;&#x440;&#x430;_222" style="opacity:0.502;">
		<g>
			<path style="fill-rule:evenodd;clip-rule:evenodd;fill:#441E20;" d="M173.813,272.888c-57.747-1.319-118.68,1.337-118.68,1.337
				s-0.837,11.798,10.675,16.44c11.071,4.465,34.136-0.101,65.792-0.196c50.379-0.153,123.704,0.855,153.752-4.996
				c10.22-1.99,8.265-5.516,9.009-9.104C294.732,274.584,240.741,274.417,173.813,272.888z M448.279,207.494
				c-0.524-3.996-53.039-9.561-99.436-7.863c-36.582,1.34-69.445,9.694-69.445,9.694s16.371,15.561,31.068,16.333
				c23.244,1.222,43.15,2.141,66.267-1.828C412.979,217.607,455.471,223.127,448.279,207.494z"/>
		</g>
	</g>
	<g id="&#x424;&#x438;&#x433;&#x443;&#x440;&#x430;_216">
		<g>
			<path style="fill-rule:evenodd;clip-rule:evenodd;fill:#A4968E;" d="M273.965,271.426c-8.725,3.097-14.234-13.311-26.979-6.521
				c-12.745,6.789-7.336-7.117-19.848-7.427c-22.802-0.563-27.974,9.362-56.054,5.164c-11.288-1.688-6.877-5.672-14.421-6.855
				c-7.322-1.148-16.726,3.669-16.726,3.669s-6.583-9.246-12.576-10.467c-6.817-1.389-12.675,3.797-12.675,3.797
				s-1.429-11.895-13.816-10.942c-12.387,0.953-15.247,16.66-15.247,16.66s-5.676-5.191-11.869,0.526
				c-6.194,5.717,4.633,11.711-6.057,11.205s-15.733,8.992,2.144,8.486c16.854-0.477,17.448-2.517,46.827-1.557
				c22.388,0.731,31.678-1.451,62.198-0.752c13.316,0.305,20.327-1.334,34.266-1.256c13.298,0.073,13.26,3.593,29.788,3.411
				c33.343-0.366,56.101,0.957,52.215-2.765C289.082,270.005,282.689,268.329,273.965,271.426z M450.988,205.797
				c-7.146-3.812-23.018-1.667-19.235-5.211c3.781-3.543-9.185-4.421-15.194-5.723c-13.622-2.949-30.781-4.015-30.781-4.015
				s-5.497-7.64-13.186-9.857c-9.619-2.775-19.361,4.498-19.361,4.498s12.719-27.903-12.622-30.375
				c-25.34-2.471-20.312,25.104-20.312,25.104s-9.746-10.172-20.139-3.591c-10.393,6.58-7.166,19.433-7.166,19.433
				s-6.907-0.198-10.49,4.193c-3.795,4.653-5.322,6.525-0.914,10.963c2.022,2.036,14.18,2.371,26.52,2.197
				c14.543-0.205,29.935,0.092,31.932-3.002c3.693-5.717,20.999-2.921,41.452-3.108
				C413.946,207.007,455.373,208.135,450.988,205.797z"/>
		</g>
	</g>
	<g id="&#x424;&#x438;&#x433;&#x443;&#x440;&#x430;_216_&#x43A;&#x43E;&#x43F;&#x438;&#x44F;">
		<g>
			<path style="fill-rule:evenodd;clip-rule:evenodd;fill:#6E6F74;" d="M273.965,271.426c-8.725,3.097-10.348-9.514-23.093-2.725
				c-12.744,6.789-11.981-3.902-24.493-4.211c-22.802-0.563-25.384,9.854-53.464,5.655c-11.288-1.688-13.979-3.707-21.522-4.89
				c-7.322-1.149-12.349,2.775-12.349,2.775s-12.523-4.244-18.516-5.465c-6.817-1.389-10.308,3.127-10.308,3.127
				s0.269-9.483-12.119-8.53S87.5,269.445,87.5,269.445s-5.051-25.345-19.802,0.789c-1.596,2.828-4.076,8.099,2.144,8.486
				c16.828,1.05,17.448-2.517,46.827-1.557c22.388,0.731,31.678-1.451,62.198-0.752c13.316,0.305,20.327-1.334,34.266-1.256
				c13.298,0.073,13.26,3.593,29.788,3.411c33.343-0.366,56.101,0.956,52.215-2.765
				C289.082,270.005,282.689,268.329,273.965,271.426z M450.988,205.797c-7.146-3.812-23.018-1.667-19.235-5.211
				c3.781-3.543-9.185-4.421-15.194-5.723c-13.622-2.949-27.477-2.54-27.477-2.54s-2.109,0.62-12.516-5.034
				c-4.775-2.596-2.345,5.551-9.614,10.273c-4.052,2.632-13.918,3.508-22.989,2.532c-4.26-0.458,1.766-6.494,3.575-12.667
				c1.406-4.795,5.159-8.783,2.775-12.646c-2.45-3.968-13.573-5.68-17.173-2.73c-8.421,6.899,5.674,4.125,3.741,13.715
				c0.048-0.075,0.091-0.146,0.13-0.214c0.328-0.922,0.401-0.692,0,0c-0.092,0.258-0.201,0.599-0.328,1.054
				c0.081-0.292,0.144-0.568,0.198-0.84c-0.985,1.538-3.929,4.604-10.565,3.687c-14.903-2.062-15.916,8.938-10.717,11.312
				c11.271,5.147-13.846,12.913-7.492,12.649c14.532-0.603,29.935,0.092,31.932-3.002c3.693-5.717,20.999-2.921,41.452-3.108
				C413.946,207.007,455.373,208.135,450.988,205.797z"/>
		</g>
	</g>
	<g id="&#x417;&#x430;&#x43B;&#x438;&#x432;&#x43A;&#x430;_&#x446;&#x432;&#x435;&#x442;&#x43E;&#x43C;_148">
		<g>
			<path style="fill-rule:evenodd;clip-rule:evenodd;fill:#8F7F78;" d="M281.092,265.811c-2.891,0-5.895,0.568-9.186,1.736
				c-0.356,0.126-0.695,0.188-1.037,0.188c-1.684,0-3.807-1.556-6.055-3.202c-3.268-2.395-7.336-5.374-12.632-5.374
				c-2.543,0-5.147,0.7-7.74,2.081c-2.361,1.258-3.513,1.445-3.989,1.445c-0.378,0-0.603-0.154-1.811-1.991
				c-1.749-2.659-4.676-7.111-12.279-7.299c-10.287-0.253-17.151,1.521-23.784,3.231c-5.916,1.527-11.503,2.97-19.476,2.97
				c-3.816,0-7.857-0.326-12.353-1c-4.945-0.739-5.872-1.777-6.852-2.875c-1.527-1.711-3.253-3.303-7.545-3.977
				c-0.931-0.146-1.924-0.221-2.951-0.221c-4.994,0-10.172,1.758-13.231,3.01c-2.642-3.186-7.716-8.49-12.959-9.558
				c-1.004-0.205-2.041-0.309-3.081-0.309c-3.209,0-6.085,0.987-8.284,2.079c-2.237-4.729-7.009-9.688-16.115-8.978
				c-10.341,0.795-15.154,9.485-17.186,15.026c-1.03-0.32-2.202-0.536-3.484-0.536c-3.048,0-6.021,1.256-8.596,3.633
				c-4.022,3.712-3.357,7.85-2.708,10.286c-0.236-0.003-0.488-0.011-0.754-0.023c-7.488-0.352-13.411,3.352-13.411,8.148
				c0,2.255,1.368,7.5,14.041,7.5c0.465,0,0.948-0.007,1.445-0.021c6.034-0.171,10.043-0.54,13.921-0.897
				c5.093-0.47,9.903-0.913,19.083-0.913c3.971,0,8.421,0.082,13.605,0.253c3.171,0.103,6.196,0.153,9.247,0.153
				c6.476,0,12.046-0.23,17.944-0.474c6.813-0.28,13.858-0.57,23.352-0.57c3.726,0,7.658,0.046,11.69,0.138
				c7.089,0.169,12.557-0.221,17.855-0.593c4.642-0.327,9.442-0.665,15.544-0.665l0.928,0.003c5.767,0.032,8.696,0.722,12.087,1.521
				c3.778,0.891,8.06,1.898,16.496,1.898l1.263-0.008c8.5-0.095,16.306-0.075,23.163-0.062c2.362,0.005,4.613,0.011,6.739,0.011
				c21.185,0,24.584-0.525,25.982-4.009c0.25-0.623,0.899-2.812-1.236-4.857C291.896,268.067,286.777,265.811,281.092,265.811z
				 M265.273,274.42c-6.881-0.015-14.72-0.03-23.256,0.062l-1.184,0.008c-7.606,0-11.128-0.83-14.858-1.708
				c-3.495-0.823-7.108-1.675-13.686-1.711l-0.967-0.003c-6.353,0-11.28,0.347-16.045,0.682c-5.384,0.38-10.429,0.731-17.191,0.579
				c-4.085-0.094-8.073-0.141-11.853-0.141c-9.642,0-16.761,0.293-23.647,0.576c-5.822,0.24-11.321,0.468-17.649,0.468
				c-2.973,0-5.921-0.049-9.014-0.151c-5.263-0.171-9.79-0.255-13.839-0.255c-9.509,0-14.709,0.479-19.738,0.942
				c-3.767,0.347-7.661,0.706-13.468,0.87c-0.428,0.013-0.843,0.019-1.243,0.019c-2.887,0-4.685-0.309-5.761-0.615
				c1.014-0.445,2.663-0.846,4.792-0.748c0.485,0.023,0.932,0.033,1.342,0.033c2.16,0,4.839-0.266,6.393-2.332
				c1.576-2.096,0.894-4.458,0.441-6.021c-0.627-2.173-0.659-2.787,0.473-3.831c1.267-1.169,2.492-1.737,3.748-1.737
				c1.836,0,3.284,1.222,3.286,1.222h0c0.959,0.878,2.32,1.165,3.552,0.75s2.143-1.467,2.375-2.746
				c0.023-0.13,2.476-13.005,12.005-13.736c0.383-0.029,0.752-0.044,1.109-0.044c7.604,0,8.78,7.068,8.885,7.849
				c0.157,1.313,1.034,2.424,2.268,2.9c1.233,0.479,2.636,0.228,3.635-0.639c0.037-0.031,3.681-3.147,7.954-3.147
				c0.562,0,1.118,0.056,1.654,0.165c3.163,0.644,7.973,5.674,10.376,9.036c1.029,1.444,2.962,1.919,4.54,1.108
				c1.875-0.961,7.811-3.453,12.7-3.453c0.657,0,1.277,0.046,1.843,0.135c2.124,0.333,2.474,0.726,3.32,1.674
				c1.912,2.142,4.2,4.149,11.127,5.186c4.85,0.726,9.236,1.078,13.41,1.078c8.88,0,15.174-1.625,21.262-3.195
				c6.458-1.668,12.548-3.239,21.821-3.009c3.864,0.096,4.907,1.682,6.486,4.082c1.364,2.075,3.427,5.211,7.781,5.211
				c2.087,0,4.423-0.726,7.348-2.284c1.57-0.836,3.003-1.242,4.381-1.242c2.958,0,5.605,1.938,8.407,3.992
				c2.252,1.648,4.559,3.341,7.212,4.128C266.975,274.423,266.131,274.422,265.273,274.42z M273.852,274.429
				c0.148-0.046,0.297-0.095,0.445-0.147c2.51-0.891,4.732-1.323,6.795-1.323c1.984,0,3.823,0.4,5.623,1.253
				C282.734,274.396,277.603,274.425,273.852,274.429z M451.806,202.132c-4.047-2.157-9.813-2.656-14.446-3.056
				c-0.69-0.061-1.476-0.128-2.221-0.203c-0.002-0.563-0.104-1.022-0.194-1.317c-1.129-3.684-5.774-4.596-13.89-5.891
				c-1.727-0.276-3.359-0.536-4.604-0.806c-11.455-2.48-25.102-3.638-29.722-3.978c-2.142-2.545-7.279-7.893-14.01-9.836
				c-1.774-0.512-3.652-0.771-5.582-0.771c-3.204,0-6.233,0.713-8.818,1.641c1.109-5.305,1.485-12.143-1.721-17.702
				c-3.063-5.313-8.616-8.396-16.507-9.166c-8.604-0.839-15.193,1.369-19.48,6.51c-3.748,4.494-4.891,10.354-5.111,15.009
				c-2.459-1.239-5.482-2.239-8.834-2.239c-3.256,0-6.38,0.933-9.283,2.771c-8.58,5.434-9.545,14.176-9.268,19.278
				c-2.871,0.564-6.639,1.912-9.246,5.108c-3.783,4.637-7.355,9.017-0.681,15.738c1.655,1.666,4.847,3.292,23.687,3.292
				c1.78,0,3.6-0.015,5.42-0.039c1.834-0.027,3.682-0.044,5.514-0.063c19.291-0.187,26.82-0.629,29.368-4.573
				c0.481-0.745,2.692-1.995,12.088-1.995c3.06,0,6.538,0.112,10.219,0.232c4.866,0.16,10.444,0.338,16.179,0.289
				c9.625-0.089,20.039-0.051,29.81-0.017c4.942,0.018,9.721,0.034,14.149,0.034c8.675,0,14.37-0.067,18.467-0.219
				c6.446-0.239,9.999-0.371,10.819-3.658C454.24,205.183,453.888,203.241,451.806,202.132z M424.621,203.237
				c-4.422,0-9.19-0.017-14.123-0.034c-9.804-0.035-20.249-0.071-29.902,0.017c-5.606,0.048-10.845-0.122-15.88-0.284
				c-13.87-0.452-24.323-0.897-28.329,4.714c-2.622,1.414-15.242,1.536-23.646,1.618c-1.844,0.018-3.701,0.035-5.547,0.062
				c-1.786,0.025-3.571,0.039-5.318,0.039c-14.568,0-18.058-1.037-18.792-1.36c-1.397-1.445-1.471-2.005-1.471-2.01
				c0.008-0.58,1.618-2.556,2.795-3.997c2.323-2.849,7.372-2.881,7.619-2.881c1.12,0.029,2.175-0.465,2.876-1.33
				c0.701-0.863,0.957-2.014,0.697-3.097c-0.104-0.425-2.42-10.475,5.607-15.559c1.766-1.118,3.551-1.662,5.459-1.662
				c5.539,0,10.152,4.67,10.188,4.706c1.087,1.136,2.79,1.425,4.196,0.71c1.404-0.713,2.176-2.265,1.898-3.815
				c-0.018-0.108-1.875-10.94,3.164-16.957c2.732-3.26,7.116-4.557,13.285-3.957c5.531,0.54,9.129,2.374,11.001,5.61
				c3.516,6.075,0.264,16.304-1.282,19.726c-0.676,1.481-0.26,3.229,1.003,4.255c1.268,1.025,3.069,1.063,4.377,0.097
				c0.061-0.044,6.073-4.426,12.641-4.426c1.259,0,2.471,0.165,3.6,0.491c6.369,1.838,11.232,8.452,11.275,8.512
				c0.625,0.87,1.609,1.414,2.679,1.479c0.169,0.011,17.043,1.082,30.247,3.94c1.438,0.312,3.163,0.587,4.991,0.878
				c1.885,0.301,4.899,0.782,6.933,1.301c-0.248,1.024-0.05,1.879,0.105,2.328c0.112,0.325,0.25,0.619,0.41,0.885
				C426.297,203.237,425.356,203.237,424.621,203.237z"/>
		</g>
	</g>
	<g id="&#x417;&#x430;&#x43B;&#x438;&#x432;&#x43A;&#x430;_&#x446;&#x432;&#x435;&#x442;&#x43E;&#x43C;_149">
		<g>
			<path style="fill-rule:evenodd;clip-rule:evenodd;fill:#F4E0C0;" d="M162.172,261.114l-1.868-1.081l-0.518-0.312
				c-0.225-0.13-0.444-0.267-0.674-0.385c-0.468-0.227-0.935-0.452-1.422-0.63c-1.935-0.758-4.017-0.988-5.949-0.797
				c-1.94,0.179-3.743,0.779-5.332,1.651c-1.578,0.886-3.006,2.004-4.045,3.499c3.542-0.049,6.589,0.059,9.153,0.682
				c1.273,0.315,2.394,0.741,3.396,1.294c0.256,0.128,0.494,0.29,0.734,0.44l0.861,0.562c0.757,0.496,1.509,0.939,2.297,1.338
				c3.125,1.626,6.58,2.65,10.078,2.895c3.48,0.204,7.077-0.223,10.167-1.969c-3.305-1.065-6.189-2.154-8.969-3.331
				C167.312,263.799,164.704,262.531,162.172,261.114z M127.735,252.284c-3.081-1.101-5.966-0.782-8.498,0.033
				c-2.515,0.876-4.772,2.296-6.411,4.55c2.697,0.525,4.991,0.739,7.107,1.021c2.076,0.265,4.007,0.598,5.337,1.104
				c1.538,0.565,3.44,1.526,5.45,2.458c2.045,0.932,4.21,1.885,6.879,2.563c-0.522-2.728-1.787-4.963-3.387-6.95
				C132.567,255.114,130.579,253.375,127.735,252.284z M105.164,244.481c-1.729-0.78-3.557-1.07-5.429-0.976
				c-1.628,0.087-3.393,0.46-5.005,1.23c-1.613,0.765-3.091,1.913-4.144,3.323c-2.138,2.809-2.708,6.333-1.582,9.284
				c1.935-2.432,3.771-4.145,5.576-5.145c1.814-0.978,3.501-1.39,5.671-1.596c1.805-0.125,3.449,0.095,5.307,1.152
				c1.882,1.052,3.786,2.871,5.839,5.111c0.659-3.021-0.005-6.257-2.035-9.045C108.323,246.461,106.881,245.229,105.164,244.481z
				 M350.354,165.027c-0.563-3.805-3.599-7.22-7.552-8.764c-3.982-1.58-8.455-1.23-12.155,0.063
				c-0.458,0.163-0.935,0.348-1.419,0.544l-0.605,0.258c-0.289,0.128-0.528,0.231-0.787,0.371c-1.003,0.538-1.977,1.173-2.813,1.953
				c-1.698,1.541-2.896,3.487-3.578,5.457c-1.326,3.964-1.063,7.984,0.534,11.439c1.343-3.5,2.708-6.607,4.47-8.93
				c0.879-1.15,1.821-2.063,2.843-2.725c0.515-0.326,1.033-0.627,1.601-0.847l1.017-0.401l1.042-0.357
				c2.871-0.966,5.629-1.56,8.455-1.382C344.227,161.881,347.254,162.882,350.354,165.027z M359.641,182.957
				c-1.411-0.306-2.884-0.313-4.302-0.096c-2.859,0.456-5.431,1.72-7.62,3.46c-2.216,1.794-3.775,3.935-4.989,6.216
				c-1.177,2.308-2.046,4.779-2.169,7.635c2.585-1.179,4.613-2.615,6.513-4.068c1.88-1.456,3.577-2.963,5.143-4.231
				c1.607-1.279,3.253-2.564,4.981-3.728c1.767-1.16,3.577-2.341,6.231-3.219C362.437,183.848,361.037,183.284,359.641,182.957z
				 M300.395,186.396c0.359-0.384,0.743-0.727,1.158-1.054c-0.074,0.056,0.322-0.239,0.33-0.231
				c0.037-0.022,0.119-0.063,0.225-0.132c0.191-0.115,0.395-0.226,0.621-0.322c1.804-0.809,4.68-0.948,7.653-0.824
				c3.017,0.115,6.202,0.457,9.692,0.616c-2.314-2.667-5.24-4.565-8.524-5.88c-1.655-0.634-3.423-1.112-5.337-1.277
				c-1.901-0.164-4.002-0.046-6.115,0.77c-0.525,0.202-1.049,0.449-1.559,0.732c-0.245,0.133-0.506,0.306-0.801,0.513
				c-0.324,0.236-0.252,0.183-0.641,0.491c-0.844,0.685-1.604,1.501-2.219,2.407c-1.262,1.799-1.911,3.895-2.069,5.858
				c-0.171,1.977,0.131,3.86,0.714,5.579c0.27,0.768,0.6,1.508,0.985,2.215c-3.056,0.428-5.708,1.772-7.839,3.525
				c-2.485,2.134-4.385,4.79-5.187,7.936c2.938-1.249,5.499-2.382,7.972-3.203c2.425-0.832,4.797-1.313,6.783-1.287
				c2.067,0.055,4.691,0.58,7.384,1.042c2.728,0.478,5.576,0.972,8.83,1.065c-1.757-2.772-4.122-4.794-6.776-6.403
				c-2.573-1.501-5.434-2.67-8.947-2.803c0.484-2.451,1.016-4.619,1.812-6.415C299.063,188.127,299.691,187.168,300.395,186.396z
				 M225.191,257.902c-0.293-0.075-0.632-0.14-1.009-0.187l-0.819-0.106l-0.884-0.057l-0.782-0.028
				c-1.042-0.039-2.074-0.015-3.096,0.047c-2.047,0.111-4.051,0.406-6.022,0.783c-3.94,0.776-7.731,2.011-11.365,3.619
				c-3.62,1.634-7.123,3.585-10.254,6.328c4.147,0.079,8.023-0.363,11.839-0.914c3.807-0.566,7.527-1.277,11.186-2.033l5.446-1.115
				c1.774-0.308,3.725-0.794,4.996-0.877c1.374-0.099,3.021,0.271,4.698,0.924c1.694,0.648,3.406,1.55,5.191,2.587
				c-0.634-1.988-1.761-3.783-3.228-5.378C229.609,259.926,227.674,258.54,225.191,257.902z"/>
		</g>
	</g>
	<g id="&#x424;&#x438;&#x433;&#x443;&#x440;&#x430;_212_&#x43A;&#x43E;&#x43F;&#x438;&#x44F;_3" style="opacity:0.502;">
		<g>
			<path style="fill-rule:evenodd;clip-rule:evenodd;fill:#351719;" d="M107.178,134.779c-10.347,0-20.073,4.036-27.383,11.364
				c-1.084,1.086-1.354,2.744-0.669,4.117c0.684,1.372,2.169,2.148,3.689,1.946c1.356-0.188,2.475-0.276,3.526-0.276
				c14.519,0,26.33,12.223,26.33,27.246c0,10.825-6.206,20.626-15.809,24.965c-1.381,0.624-2.218,2.051-2.09,3.561
				c0.13,1.509,1.196,2.773,2.662,3.154c3.278,0.852,6.555,1.283,9.743,1.283c21.328,0,38.68-17.353,38.68-38.681
				C145.858,152.132,128.506,134.779,107.178,134.779z"/>
		</g>
	</g>
	<g id="&#x424;&#x438;&#x433;&#x443;&#x440;&#x430;_212">
		<g>
			<path style="fill-rule:evenodd;clip-rule:evenodd;fill:#EFC9A3;" d="M123.248,135.404c-9.71,0-18.499,3.943-24.854,10.315
				c1.317-0.183,2.651-0.311,4.017-0.311c16.516,0,29.904,13.799,29.904,30.819c0,12.622-7.37,23.457-17.911,28.222
				c2.831,0.736,5.783,1.168,8.844,1.168c19.389,0,35.107-15.718,35.107-35.106C158.355,151.122,142.637,135.404,123.248,135.404z"
				/>
		</g>
	</g>
	<g id="&#x424;&#x438;&#x433;&#x443;&#x440;&#x430;_212_&#x43A;&#x43E;&#x43F;&#x438;&#x44F;">
		<g>
			<path style="fill-rule:evenodd;clip-rule:evenodd;fill:#DAB089;" d="M140.37,165.003c-7.613-25.892-36.675-22.827-36.675-22.827
				s23.797,4.809,26.742,25.798c2.776,19.785-11.035,35.296-11.035,35.296S148.103,191.301,140.37,165.003z"/>
		</g>
	</g>
	<g id="&#x424;&#x438;&#x433;&#x443;&#x440;&#x430;_212_&#x43A;&#x43E;&#x43F;&#x438;&#x44F;_2">
		<g>
			<path style="fill-rule:evenodd;clip-rule:evenodd;fill:#F9DEC2;" d="M156.717,166.134c-4.085-34.623-43.526-27.964-43.526-27.964
				s30.167,3.891,34.879,27.717c5.084,25.706-24.465,38.563-24.465,38.563S161.265,204.678,156.717,166.134z"/>
		</g>
	</g>
	<g id="&#x417;&#x430;&#x43B;&#x438;&#x432;&#x43A;&#x430;_&#x446;&#x432;&#x435;&#x442;&#x43E;&#x43C;_150">
		<g>
			<path style="fill-rule:evenodd;clip-rule:evenodd;fill:#C49B75;" d="M122.9,131.92c-10.347,0-20.073,4.037-27.383,11.365
				c-1.084,1.086-1.354,2.744-0.668,4.117c0.684,1.372,2.169,2.148,3.689,1.946c1.355-0.188,2.475-0.276,3.526-0.276
				c14.519,0,26.33,12.223,26.33,27.246c0,10.825-6.206,20.625-15.809,24.965c-1.381,0.624-2.218,2.051-2.09,3.561
				c0.13,1.509,1.197,2.773,2.662,3.154c3.277,0.852,6.555,1.283,9.743,1.283c21.328,0,38.681-17.353,38.681-38.681
				S144.228,131.92,122.9,131.92z M124.197,202.108c7.09-6.424,11.343-15.763,11.343-25.79c0-16.721-11.673-30.691-27.087-33.765
				c4.414-2.279,9.336-3.487,14.447-3.487c17.387,0,31.534,14.146,31.534,31.534C154.435,187.554,140.986,201.427,124.197,202.108z"
				/>
		</g>
	</g>
	
		<g id="&#x417;&#x430;&#x43B;&#x438;&#x432;&#x43A;&#x430;_&#x446;&#x432;&#x435;&#x442;&#x43E;&#x43C;_151" style="opacity:0.502;">
		<g>
			<path style="fill-rule:evenodd;clip-rule:evenodd;fill:#502425;" d="M190.09,69.851c0,11.005-2.063,30.264-19.258,30.264
				c14.443,0,19.258,16.507,19.258,35.766c0-19.946,3.439-35.078,18.571-35.078C193.529,100.114,190.09,85.67,190.09,69.851z
				 M186.284,298.226c0,11.005-2.063,30.264-19.259,30.264c14.444,0,19.259,16.507,19.259,35.766
				c0-19.946,3.439-35.078,18.571-35.078C189.723,328.489,186.284,314.045,186.284,298.226z M340.596,233.693
				c0,11.004-2.063,30.263-19.258,30.263c14.443,0,19.258,16.507,19.258,35.766c0-19.946,3.439-35.078,18.57-35.078
				C344.035,263.956,340.596,249.513,340.596,233.693z"/>
		</g>
	</g>
	<g id="&#x424;&#x438;&#x433;&#x443;&#x440;&#x430;_215">
		<g>
			<path style="fill-rule:evenodd;clip-rule:evenodd;fill:#F8F1D6;" d="M181.921,300.231c0,9.436-1.769,25.947-16.512,25.947
				c12.384,0,16.512,14.153,16.512,30.665c0-17.102,2.948-30.075,15.922-30.075C184.869,326.179,181.921,313.795,181.921,300.231z
				 M336.285,230.196c0,9.436-1.77,25.947-16.512,25.947c12.383,0,16.512,14.153,16.512,30.665c0-17.102,2.948-30.075,15.922-30.075
				C339.233,256.144,336.285,243.76,336.285,230.196z M196.214,78.69c0,9.436-1.769,25.947-16.512,25.947
				c12.384,0,16.512,14.153,16.512,30.665c0-17.102,2.948-30.075,15.922-30.075C199.162,104.638,196.214,92.254,196.214,78.69z"/>
		</g>
	</g>
</g>
</svg>
