<?xml version="1.0" encoding="iso-8859-1"?>
<!-- Generator: Adobe Illustrator 15.0.0, SVG Export Plug-In . SVG Version: 6.00 Build 0)  -->
<!DOCTYPE svg PUBLIC "-//W3C//DTD SVG 1.1//EN" "http://www.w3.org/Graphics/SVG/1.1/DTD/svg11.dtd" [
	<!ENTITY ns_extend "http://ns.adobe.com/Extensibility/1.0/">
	<!ENTITY ns_ai "http://ns.adobe.com/AdobeIllustrator/10.0/">
	<!ENTITY ns_graphs "http://ns.adobe.com/Graphs/1.0/">
	<!ENTITY ns_vars "http://ns.adobe.com/Variables/1.0/">
	<!ENTITY ns_imrep "http://ns.adobe.com/ImageReplacement/1.0/">
	<!ENTITY ns_sfw "http://ns.adobe.com/SaveForWeb/1.0/">
	<!ENTITY ns_custom "http://ns.adobe.com/GenericCustomNamespace/1.0/">
	<!ENTITY ns_adobe_xpath "http://ns.adobe.com/XPath/1.0/">
]>
<svg version="1.1" xmlns:x="&ns_extend;" xmlns:i="&ns_ai;" xmlns:graph="&ns_graphs;"
	 xmlns="http://www.w3.org/2000/svg" xmlns:xlink="http://www.w3.org/1999/xlink" x="0px" y="0px" width="512px" height="512px"
	 viewBox="0 0 512 512" style="enable-background:new 0 0 512 512;" xml:space="preserve">
<metadata>
	<sfw  xmlns="&ns_sfw;">
		<slices></slices>
		<sliceSourceBounds  height="512" width="512" x="94" y="94" bottomLeftOrigin="true"></sliceSourceBounds>
	</sfw>
</metadata>
<g id="&#x418;&#x437;&#x43E;&#x431;&#x440;&#x430;&#x436;&#x435;&#x43D;&#x438;&#x435;_xA0_17_1_">
	<g id="&#x417;&#x430;&#x43B;&#x438;&#x432;&#x43A;&#x430;_&#x446;&#x432;&#x435;&#x442;&#x43E;&#x43C;_1">
		<g>
			<rect x="3.699" y="4.439" style="fill-rule:evenodd;clip-rule:evenodd;fill:#B17D7B;" width="503.121" height="503.121"/>
		</g>
	</g>
	<g id="&#x417;&#x430;&#x43B;&#x438;&#x432;&#x43A;&#x430;_&#x446;&#x432;&#x435;&#x442;&#x43E;&#x43C;_5">
		<g>
			<path style="fill-rule:evenodd;clip-rule:evenodd;fill:#F3D4C3;" d="M484.624,25.156l20.717-20.717H3.699l20.717,20.717H484.624z
				 M24.416,486.844L3.699,507.561h501.642l-20.717-20.717H24.416z"/>
		</g>
	</g>
	
		<g id="&#x417;&#x430;&#x43B;&#x438;&#x432;&#x43A;&#x430;_&#x446;&#x432;&#x435;&#x442;&#x43E;&#x43C;_1_&#x43A;&#x43E;&#x43F;&#x438;&#x44F;_2">
		<g>
			<radialGradient id="SVGID_1_" cx="256.7402" cy="256" r="228.0762" gradientUnits="userSpaceOnUse">
				<stop  offset="0" style="stop-color:#95584F"/>
				<stop  offset="0.2" style="stop-color:#95584F"/>
				<stop  offset="0.4182" style="stop-color:#91524C"/>
				<stop  offset="0.6121" style="stop-color:#7B3F3C"/>
				<stop  offset="0.7636" style="stop-color:#5A292A"/>
				<stop  offset="0.897" style="stop-color:#3D1B1D"/>
				<stop  offset="1" style="stop-color:#2D1316"/>
			</radialGradient>
			<polygon style="fill-rule:evenodd;clip-rule:evenodd;fill:url(#SVGID_1_);" points="432.765,27.924 78.856,27.924 28.664,78.116 
				28.664,435.769 76.972,484.076 433.367,484.076 484.816,432.627 484.816,79.976 			"/>
		</g>
	</g>
	
		<g id="&#x417;&#x430;&#x43B;&#x438;&#x432;&#x43A;&#x430;_&#x446;&#x432;&#x435;&#x442;&#x43E;&#x43C;_1_&#x43A;&#x43E;&#x43F;&#x438;&#x44F;">
		<g>
			<path style="fill-rule:evenodd;clip-rule:evenodd;fill:#F2D2C0;" d="M25.109,24.37v463.26h463.26V24.37H25.109z M466.659,418.566
				l-47.353,47.353H91.283l-44.462-44.462V92.277l46.196-46.196h325.734l47.908,47.907V418.566z"/>
		</g>
	</g>
	<g id="&#x424;&#x438;&#x433;&#x443;&#x440;&#x430;_3">
		<g>
			<path style="fill-rule:evenodd;clip-rule:evenodd;fill:#A18180;" d="M429.873,25.156l-344.047-1.48l-62.15,62.891v342.566
				l59.931,59.19l344.046-0.739l59.931-59.191V84.347L429.873,25.156z M477.226,423.954l-56.231,54.751H91.006l-56.231-54.751
				V88.046l54.012-54.012h334.428l54.751,56.231L477.226,423.954z"/>
		</g>
	</g>
	<g id="&#x417;&#x430;&#x43B;&#x438;&#x432;&#x43A;&#x430;_&#x446;&#x432;&#x435;&#x442;&#x43E;&#x43C;_6">
		<g>
			<path style="fill-rule:evenodd;clip-rule:evenodd;fill:#C7907F;" d="M23.676,86.566l62.52-62.752l-62.52-0.139V86.566z
				 M487.584,23.63l-62.521,0.139l62.521,62.752V23.63z M22.196,488.37l62.521-0.139l-62.521-62.752V488.37z M425.803,488.971
				l62.521,0.139v-62.89L425.803,488.971z"/>
		</g>
	</g>
	
		<g id="&#x417;&#x430;&#x43B;&#x438;&#x432;&#x43A;&#x430;_&#x446;&#x432;&#x435;&#x442;&#x43E;&#x43C;_6_&#x43A;&#x43E;&#x43F;&#x438;&#x44F;">
		<g>
			<path style="fill-rule:evenodd;clip-rule:evenodd;fill:#FDECE7;" d="M27.964,485.886l56.753,2.346L55.27,458.579L27.964,485.886z
				 M54.694,55.434l31.502-31.619l-59.314,3.562L54.694,55.434z M485.117,26.582l-60.054-2.813l31.376,31.491L485.117,26.582z
				 M425.803,488.971l59.314-3.113l-28.158-28.158L425.803,488.971z"/>
		</g>
	</g>
	<g id="&#x424;&#x438;&#x433;&#x443;&#x440;&#x430;_1">
		<g>
			<path style="fill-rule:evenodd;clip-rule:evenodd;fill:#C7907F;" d="M34.774,487.769l0.093-9.156h-8.417L34.774,487.769z
				 M477.04,477.873l0.093,9.155l8.323-9.155H477.04z M476.393,25.804l-0.092,9.156h8.416L476.393,25.804z M26.451,34.96h8.417
				l-0.093-9.156L26.451,34.96z"/>
		</g>
	</g>
	<g id="&#x424;&#x438;&#x433;&#x443;&#x440;&#x430;_2">
		<g>
			<path style="fill-rule:evenodd;clip-rule:evenodd;fill:#FDECE7;" d="M22.597,480.813L9.026,497.72l-1.627,10.285l22.418-0.296
				l0.532-18.644l-3.492-6.957L22.597,480.813z M508.448,495.817l-18.855-14.581l-4.261,4.043l-3.068,4.209l2.646,16.529
				l23.688,1.353L508.448,495.817z M21.002,31.648l4.26-1.295l3.492-6.956L28.222,4.754L5.803,4.458l1.628,10.284L21.002,31.648z
				 M487.997,31.226l18.856-14.581l0.147-11.553l-23.687,1.353l-2.646,16.53l3.069,4.208L487.997,31.226z"/>
		</g>
	</g>
	<g id="&#x417;&#x430;&#x43B;&#x438;&#x432;&#x43A;&#x430;_&#x446;&#x432;&#x435;&#x442;&#x43E;&#x43C;_2">
		<g>
			<path style="fill-rule:evenodd;clip-rule:evenodd;fill:#2F181B;" d="M0,0v512h512V0H0z M503.121,503.121H8.878V8.879h494.243
				V503.121z"/>
		</g>
	</g>
	<g id="&#x417;&#x430;&#x43B;&#x438;&#x432;&#x43A;&#x430;_&#x446;&#x432;&#x435;&#x442;&#x43E;&#x43C;_3">
		<g>
			<path style="fill-rule:evenodd;clip-rule:evenodd;fill:#40292E;" d="M482.33,20.67H29.346l-9.369,9.369v397.468
				c-0.119,0.585-0.119,1.188,0,1.771v53.925l9.606,9.605h453.025l9.507-9.507V30.455L482.33,20.67z M28.855,34.183l4.633-4.634
				h40.974L28.855,75.156V34.183z M33.726,483.931l-4.871-4.871v-39.857l44.728,44.729H33.726z M483.237,479.158l-4.772,4.772
				H437.63l45.607-45.607V479.158z M483.237,425.769l-58.162,58.162H86.139l-57.283-57.283V87.711l58.162-58.162h338.058
				l58.162,58.162V425.769z M483.237,75.156L437.63,29.549h40.558l5.05,5.05V75.156z"/>
		</g>
	</g>
	
		<g id="&#x417;&#x430;&#x43B;&#x438;&#x432;&#x43A;&#x430;_&#x446;&#x432;&#x435;&#x442;&#x43E;&#x43C;_4_&#x43A;&#x43E;&#x43F;&#x438;&#x44F;" style="opacity:0.502;">
		<g>
			<path style="fill-rule:evenodd;clip-rule:evenodd;fill:#876867;" d="M465.59,92.913l-47.243-47.244
				c-0.685-0.685-1.612-1.068-2.579-1.068H94.545c-0.968,0-1.896,0.384-2.58,1.068L46.409,91.227
				c-0.684,0.684-1.069,1.611-1.069,2.579v324.619c0,0.968,0.385,1.896,1.069,2.579l43.847,43.847
				c0.684,0.684,1.612,1.068,2.579,1.068h323.479c0.968,0,1.896-0.385,2.579-1.068l46.696-46.696
				c0.685-0.685,1.069-1.612,1.069-2.58V95.493C466.659,94.525,466.274,93.598,465.59,92.913z M459.363,414.063l-44.56,44.56H94.346
				l-41.709-41.709V95.316l43.419-43.419h318.201l45.106,45.106V414.063z"/>
		</g>
	</g>
	<g id="&#x417;&#x430;&#x43B;&#x438;&#x432;&#x43A;&#x430;_&#x446;&#x432;&#x435;&#x442;&#x43E;&#x43C;_4">
		<g>
			<path style="fill-rule:evenodd;clip-rule:evenodd;fill:#40292E;" d="M468.534,90.633l-47.907-47.907
				c-0.693-0.694-1.635-1.084-2.615-1.084H92.277c-0.981,0-1.922,0.39-2.616,1.084L43.465,88.922
				c-0.693,0.693-1.083,1.635-1.083,2.615v329.18c0,0.981,0.39,1.922,1.083,2.615l44.463,44.463
				c0.694,0.693,1.634,1.084,2.615,1.084h328.023c0.981,0,1.922-0.391,2.615-1.084l47.353-47.353
				c0.694-0.694,1.084-1.635,1.084-2.616V93.248C469.618,92.268,469.229,91.326,468.534,90.633z M462.22,416.295l-45.186,45.185
				H92.075L49.78,419.185V93.07l44.029-44.03h322.67l45.74,45.741V416.295z"/>
		</g>
	</g>
</g>
<g id="&#x418;&#x437;&#x43E;&#x431;&#x440;&#x430;&#x436;&#x435;&#x43D;&#x438;&#x435;_xA0_702_1_">
	<g id="&#x424;&#x438;&#x433;&#x443;&#x440;&#x430;_250" style="opacity:0.502;">
		<g>
			<path style="fill-rule:evenodd;clip-rule:evenodd;fill:#2D1316;" d="M319.238,403.522c-13.794,0-24.976,4.693-24.976,10.482
				c0,5.788,11.182,10.481,24.976,10.481c13.793,0,24.975-4.693,24.975-10.481C344.213,408.216,333.031,403.522,319.238,403.522z
				 M253.199,400.686c-12.667,0-22.937,4.217-22.937,9.419c0,5.201,10.269,9.418,22.937,9.418c12.668,0,22.936-4.217,22.936-9.418
				C276.135,404.902,265.867,400.686,253.199,400.686z M215.792,414.204c-9.828,0-17.795,4.365-17.795,9.75
				c0,5.386,7.967,9.751,17.795,9.751c9.828,0,17.795-4.365,17.795-9.751C233.587,418.569,225.62,414.204,215.792,414.204z
				 M360.302,381.406c-7.956,0-14.405,5.04-14.405,11.258c0,6.217,6.449,11.257,14.405,11.257c7.955,0,14.404-5.04,14.404-11.257
				C374.706,386.446,368.257,381.406,360.302,381.406z M425.382,232.903c-3.665-10.844-12.052-27.48-10.447-39.558
				c4.069-30.617-17.799-38.862-36.132-46.743c-37.635-16.178-119.11,1.142-119.11,1.142s-114.788,58.789-131.723,66.526
				c-15.424,7.047-44.086,25.691-47.721,44.847c-3.301,17.397-0.074,27.873-1.667,42.339c-1.838,16.696-5.692,32.179-4.577,45.155
				c2.549,29.662,37.404,43.305,71.938,47.273c34.597,3.978,55.201,6.624,105.239-4.146c18.912-4.07,57.116-14.752,88.616-27.798
				c34.519-14.295,49.533-22.729,60.835-37.398s26.248-30.221,13.729-55.563C408.712,257.54,431.457,250.88,425.382,232.903z
				 M386.074,353.972c-9.779,0-17.706,5.149-17.706,11.501s7.927,11.501,17.706,11.501s17.706-5.149,17.706-11.501
				S395.854,353.972,386.074,353.972z"/>
		</g>
	</g>
	<g id="&#x424;&#x438;&#x433;&#x443;&#x440;&#x430;_225">
		<g>
			<path style="fill-rule:evenodd;clip-rule:evenodd;fill:#D97A24;" d="M406.814,269.081c-9.8,0.603-17.887,0.323-23.676-0.13
				l0.077-1.185c0,0,21.141-6.306,26.719-20.923c4.612-12.089-6.154-32.972-6.154-32.972l-7.419,13.189
				c2.905-19.854-2.63-34.441-6.764-43.683c-2.315-5.175-14.125-17.276-44.006-28.502c-25.318-9.513-79.587-9.691-107.289-2.156
				c-77.518,21.088-123.63,72.984-130.323,87.921s-11.978,36.696-5.274,54.205c0.042,0.108,0.086,0.221,0.128,0.33l-2.654-2.768
				c0,0-4.157,10.893-5.477,22.486c-1.13,9.928,0.617,17.621,4.031,22.273l-0.593,0.093c0,0-3.104,15.663,6.843,27.841
				c12.695,15.544,52.604,32.811,80.748,30.74c35.974-2.646,103.696-19.196,136.608-36.994
				c51.471-27.833,63.606-62.082,64.985-66.487c2.506,2.153,5.174,4.443,8.02,6.881c14.045,12.029,45.312-3.11,45.312-3.11
				S422.433,268.121,406.814,269.081z"/>
		</g>
	</g>
	<g id="&#x424;&#x438;&#x433;&#x443;&#x440;&#x430;_236">
		<g>
			<path style="fill-rule:evenodd;clip-rule:evenodd;fill:#FCC262;" d="M388.18,184.797c-2.083-7.18-4.259-16.619-34.574-28.406
				c-25.871-10.059-75.498-16.319-105.371-8.758c-33.549,8.492-85.553,35.188-110.664,57.41
				c-31.587,27.952-37.346,46.945-25.956,71.677c5.521,11.987,29.858,25.443,57.429,29.416
				c29.309,4.223,61.286-2.209,101.086-19.146c30.115-12.815,67.448-31.724,92.928-54.334
				C388.697,209.904,390.263,191.978,388.18,184.797z"/>
		</g>
	</g>
	<g id="&#x424;&#x438;&#x433;&#x443;&#x440;&#x430;_238">
		<g>
			<path style="fill-rule:evenodd;clip-rule:evenodd;fill:#DB9A58;" d="M124.69,237.938c-4.529,0-8.2,2.073-8.2,4.632
				c0,2.558,3.671,4.631,8.2,4.631c4.528,0,8.199-2.073,8.199-4.631C132.889,240.012,129.218,237.938,124.69,237.938z
				 M142.33,265.639c4.577,0,8.288-2.45,8.288-5.474c0-3.022-3.711-5.474-8.288-5.474s-8.288,2.451-8.288,5.474
				C134.042,263.188,137.752,265.639,142.33,265.639z M145.765,215.29c2.68,0,4.853-1.091,4.853-2.438s-2.173-2.438-4.853-2.438
				c-2.681,0-4.854,1.091-4.854,2.438S143.084,215.29,145.765,215.29z M122.119,256.198c-1.249,0-2.26,0.526-2.26,1.175
				s1.012,1.175,2.26,1.175s2.26-0.526,2.26-1.175S123.368,256.198,122.119,256.198z M150.618,277.605
				c0-2.398-3.532-4.343-7.889-4.343s-7.889,1.944-7.889,4.343c0,2.399,3.532,4.344,7.889,4.344S150.618,280.005,150.618,277.605z
				 M150.241,286.027c-1.774,0-3.213,0.991-3.213,2.216c0,1.224,1.438,2.216,3.213,2.216c1.775,0,3.213-0.992,3.213-2.216
				C153.454,287.019,152.016,286.027,150.241,286.027z M209.698,280.221c-6.144,0-11.125,2.769-11.125,6.183
				c0,3.415,4.98,6.183,11.125,6.183s11.125-2.768,11.125-6.183C220.822,282.989,215.842,280.221,209.698,280.221z M188.956,180.055
				c-3.5,0-6.338,2.014-6.338,4.499c0,2.484,2.837,4.498,6.338,4.498s6.338-2.014,6.338-4.498
				C195.293,182.068,192.456,180.055,188.956,180.055z M190.33,291.301c-1.567,0-2.836,0.765-2.836,1.707s1.27,1.706,2.836,1.706
				c1.566,0,2.836-0.764,2.836-1.706S191.896,291.301,190.33,291.301z M165.886,273.396c-4.883,0-8.842,2.55-8.842,5.695
				s3.958,5.695,8.842,5.695s8.842-2.55,8.842-5.695S170.77,273.396,165.886,273.396z"/>
		</g>
	</g>
	<g id="&#x424;&#x438;&#x433;&#x443;&#x440;&#x430;_240">
		<g>
			<path style="fill-rule:evenodd;clip-rule:evenodd;fill:#EE8F3A;" d="M188.911,341.517c0,0-30.493-22.692,2.836-35.457
				c-5.509,0.735-44.084,0.155-65.722-14.163c-20.14-13.327-23.629-40.44-23.629-40.44s-10.302,47.473,12.111,70.805
				C135.29,343.895,188.911,341.517,188.911,341.517z M198.487,375.145c-3-2.921-25.618,2.924-52.179-8.64
				c-19.9-8.664-45.507-28.002-45.507-28.002s-5.152,14.194,2.191,25.574c4.991,7.734,18.05,15.323,27.884,20.48
				c26.321,13.805,69.382,10.145,69.382,10.145S185.623,385.516,198.487,375.145z"/>
		</g>
	</g>
	<g id="&#x424;&#x438;&#x433;&#x443;&#x440;&#x430;_243">
		<g>
			<path style="fill-rule:evenodd;clip-rule:evenodd;fill:#C35E1B;" d="M168.252,351.002c-33.901-3.264-68.693-16.576-68.693-16.576
				s-0.481,12.204,7.892,15.819c13.776,5.949,29.604,6.386,29.604,6.386s-0.376,17.101,10.017,23.18
				c14.094,8.244,31.069-10.105,39.136-4.875c8.066,5.229,13.727,9.303,25.721,4.964c19.458-7.038,32.65-29.695,32.65-29.695
				l-12.41-3.014C232.169,347.19,200.621,354.117,168.252,351.002z M379.836,275.511c-2.012-5.9-0.622-14.502-0.25-16.524
				c2.487-2.192,3.852-3.452,3.852-3.452s2.027-3.046-4.349-6.758c-13.218-7.694-0.793-31.447-0.793-31.447
				s-27.311,27.85-60.423,47.221c-37.525,21.952-80.74,34.419-80.74,34.419s11.479,1.91,15.239,14.586
				c2.725,9.187-6.253,17.436-8.86,19.596c-3.262,1.035-5.139,1.586-5.139,1.586s14.744,11.847,16.908,24.313
				c2.179,12.553-8.221,25.725-8.221,25.725s56.771-13.12,98.208-40.607c26.998-17.91,45.038-54.417,45.038-54.417
				S382.779,284.145,379.836,275.511z"/>
		</g>
	</g>
	<g id="&#x424;&#x438;&#x433;&#x443;&#x440;&#x430;_244">
		<g>
			<path style="fill-rule:evenodd;clip-rule:evenodd;fill:#FFCB74;" d="M135.599,297.792
				c-21.582-12.792-33.203-35.698-33.203-35.698s-1.084,31.062,32.023,45.116c47.93,20.348,96.332-5.006,96.332-5.006
				S165.741,315.657,135.599,297.792z"/>
		</g>
	</g>
	<g id="&#x424;&#x438;&#x433;&#x443;&#x440;&#x430;_227">
		<g>
			<path style="fill-rule:evenodd;clip-rule:evenodd;fill:#7CA834;" d="M414.876,270.567c-7.391-3.223-14.199-1.904-21.027-1.933
				c-8.674-0.036-16.543-0.868-16.543-0.868s23.993-4.55,31.41-19.515c5.875-11.853-4.463-34.853-4.463-34.853l-7.563,12.291
				c0,0,0.24,10.977-8.04,21.983c-10.771,14.318-30.727,29.548-30.727,29.548s-0.459,13.331-9.015,23.81
				c-11.482,14.064-15.037,26.775-11.521,29.287c3.517,2.512,22.464-1.354,30.623-14.143c3.455-5.415,5.589-14.414,5.301-21.453
				c-0.439-10.735-4.751-18.949-4.751-18.949s5.606,5.445,12.854,12.013c6.455,5.85,13.999,12.73,23.359,15.268
				c15.356,4.162,35.411-7.867,35.411-7.867S429.367,276.888,414.876,270.567z"/>
		</g>
	</g>
	<g id="&#x424;&#x438;&#x433;&#x443;&#x440;&#x430;_234">
		<g>
			<path style="fill-rule:evenodd;clip-rule:evenodd;fill:#57781A;" d="M419.234,286.382c0,0-0.657-4.156-2.071-8.809
				c-3.885-12.779-11.742-8.781-41.74-8.337c-6.981,0.104-11.206-0.17-11.206-0.17s5.063,6.217,10.537,11.24
				c10.525,9.657,16.308,18.151,29.742,16.939c6.07-0.548,10.04-5.428,10.04-5.428l-19.266-11.14L419.234,286.382z M410.872,244.602
				c0,0-12.195,3.926-9.688,0.188c4.545-6.777,0.942-18.064,0.942-18.064s0.145,10.86-4.088,16.748
				c-2.397,3.334-8.44,3.492-8.44,3.492l-16.074,21.747c0,0,14.087-1.905,24.388-8.555
				C406.02,254.923,410.872,244.602,410.872,244.602z M361.705,271.076c0,0-1.613,8.512-4.855,15.807
				c-3.374,7.591-10.421,17.7-10.421,17.7s5.738-2.898,9.426-4.373c2.345-0.938,5.95-4.531,7.954-6.661
				c-1.79,5.622-5.443,15.773-10.066,21.565c-7.368,9.231-14.257,0.874-14.257,0.874s-5.673,9.159,0.502,14.183
				c6.176,5.022,24.968-9.633,24.968-9.633s-10.455,1.53-7.388-3.117c4.62-6.999,6.499-19.191,7.149-24.854
				c0.355-0.393,0.563-0.63,0.563-0.63l4.757,19.117c0,0,6.337-11.471,3.273-24.979
				C371.339,277.385,361.705,271.076,361.705,271.076z"/>
		</g>
	</g>
	<g id="&#x424;&#x438;&#x433;&#x443;&#x440;&#x430;_235">
		<g>
			<path style="fill-rule:evenodd;clip-rule:evenodd;fill:#4F6616;" d="M407.268,269.037l-26.711-0.473
				c0,0,6.598-2.115,12.071-5.071c6.288-3.396,10.68-9.437,10.68-9.437s-6.4,1.767-9.963,0.579
				c-4.188-1.396-5.638-5.779-5.638-5.779l-21.898,22.364c-0.762-0.693-1.268-1.091-1.268-1.091l-7.138,7.569l-0.898,9.45
				c0,0,3.941-0.812,8.5,0.051c4.171,0.789,8.992,3.259,8.992,3.259s0.4-6.15-2.078-11.479c-0.256-0.55-0.554-1.089-0.874-1.614
				l14.771,15.457c0,0,17.75,4.898,6.401-14.702C414.066,277.679,407.268,269.037,407.268,269.037z"/>
		</g>
	</g>
	<g id="&#x424;&#x438;&#x433;&#x443;&#x440;&#x430;_239">
		<g>
			<path style="fill-rule:evenodd;clip-rule:evenodd;fill:#97401E;" d="M256.768,304.065c-3.648,0-6.604,2.352-6.604,5.252
				c0,2.901,2.957,5.252,6.604,5.252c3.646,0,6.604-2.351,6.604-5.252C263.371,306.417,260.414,304.065,256.768,304.065z
				 M230.219,367.135c-2.252,0-4.078,1.25-4.078,2.792s1.826,2.792,4.078,2.792s4.078-1.25,4.078-2.792
				S232.471,367.135,230.219,367.135z M246.551,368.109c-4.981,0-9.019,2.461-9.019,5.496s4.038,5.496,9.019,5.496
				c4.981,0,9.02-2.461,9.02-5.496S251.532,368.109,246.551,368.109z M269.465,367.844c-1.726,0-3.125,1.25-3.125,2.792
				s1.399,2.793,3.125,2.793c1.727,0,3.125-1.251,3.125-2.793S271.191,367.844,269.465,367.844z M272.523,344.974
				c-2.778,0-5.031,1.925-5.031,4.3c0,2.374,2.253,4.299,5.031,4.299c2.777,0,5.03-1.925,5.03-4.299
				C277.554,346.898,275.301,344.974,272.523,344.974z M291.515,296.841c2.081,0,3.768-1.468,3.768-3.279s-1.687-3.28-3.768-3.28
				s-3.767,1.469-3.767,3.28S289.434,296.841,291.515,296.841z M291.914,304.975c0,0.991,0.912,1.795,2.039,1.795
				c1.125,0,2.038-0.804,2.038-1.795c0-0.992-0.913-1.796-2.038-1.796C292.826,303.179,291.914,303.982,291.914,304.975z
				 M283.625,351.313c-3.695,0-6.691,2.569-6.691,5.739s2.996,5.739,6.691,5.739c3.697,0,6.693-2.569,6.693-5.739
				S287.322,351.313,283.625,351.313z M275.67,307.479c4.957,0,8.975-1.955,8.975-4.366s-4.018-4.365-8.975-4.365
				s-8.975,1.954-8.975,4.365S270.713,307.479,275.67,307.479z M220.933,310.891c-3.072,0-5.562,1.3-5.562,2.903
				s2.49,2.903,5.562,2.903c3.072,0,5.563-1.3,5.563-2.903S224.005,310.891,220.933,310.891z M194.296,328.797
				c-2.509,0-4.543,1.102-4.543,2.46s2.034,2.46,4.543,2.46c2.509,0,4.543-1.102,4.543-2.46S196.805,328.797,194.296,328.797z
				 M345.986,260.365c-3.33,0-6.028,2.927-6.028,6.537s2.698,6.537,6.028,6.537c3.328,0,6.027-2.927,6.027-6.537
				S349.314,260.365,345.986,260.365z M340.889,335.046c-3.011,0-5.451,1.925-5.451,4.3c0,2.374,2.44,4.299,5.451,4.299
				s5.451-1.925,5.451-4.299C346.34,336.971,343.899,335.046,340.889,335.046z M357.31,255.046c-3.341,0-6.05,1.578-6.05,3.524
				c0,1.945,2.709,3.523,6.05,3.523c3.342,0,6.05-1.578,6.05-3.523C363.359,256.624,360.651,255.046,357.31,255.046z
				 M370.65,239.667c-1.456,0-2.637,1.527-2.637,3.412c0,1.886,1.181,3.413,2.637,3.413s2.637-1.527,2.637-3.413
				C373.287,241.194,372.106,239.667,370.65,239.667z M383.747,242.326c-1.664,0-3.014,0.933-3.014,2.083s1.35,2.083,3.014,2.083
				c1.665,0,3.015-0.933,3.015-2.083S385.412,242.326,383.747,242.326z M310.706,284.21c-4.406,0-7.978,1.875-7.978,4.188
				c0,2.313,3.571,4.188,7.978,4.188c4.405,0,7.978-1.875,7.978-4.188C318.684,286.085,315.111,284.21,310.706,284.21z
				 M290.629,337.705c-3.354,0-6.072,2.124-6.072,4.743s2.719,4.742,6.072,4.742s6.071-2.123,6.071-4.742
				S293.982,337.705,290.629,337.705z M302.352,349.052c-1.188,0-2.15,0.854-2.15,1.905c0,1.053,0.963,1.906,2.15,1.906
				s2.149-0.854,2.149-1.906C304.501,349.905,303.539,349.052,302.352,349.052z M322.938,274.857c0-0.783-1.229-1.418-2.747-1.418
				c-1.519,0-2.748,0.635-2.748,1.418c0,0.784,1.229,1.419,2.748,1.419C321.709,276.276,322.938,275.642,322.938,274.857z
				 M342.795,275.323c0-2.484-2.977-4.499-6.648-4.499s-6.648,2.015-6.648,4.499s2.977,4.499,6.648,4.499
				S342.795,277.808,342.795,275.323z M324.733,345.151c-1.75,0-3.169,0.615-3.169,1.374s1.419,1.374,3.169,1.374
				c1.751,0,3.169-0.615,3.169-1.374S326.484,345.151,324.733,345.151z"/>
		</g>
	</g>
	<g id="&#x424;&#x438;&#x433;&#x443;&#x440;&#x430;_237">
		<g>
			<path style="fill-rule:evenodd;clip-rule:evenodd;fill:#C16E27;" d="M387.188,182.086c-4.46-10.045-23.388-21.387-41.712-27.306
				c-25.213-8.143-50.903-8.985-50.903-8.985L137.144,247.201c0,0-1.007,13.797,15.09,24.524
				c11.851,7.896,33.022,13.572,50.845,15.214c27.395,2.524,69.614-5.487,89.74-14.821c31.608-14.659,43.549-32.186,43.549-32.186
				s26.696-7.077,41.815-24.072C385.902,207.184,390.668,189.925,387.188,182.086z"/>
		</g>
	</g>
	<g id="&#x424;&#x438;&#x433;&#x443;&#x440;&#x430;_228">
		<g>
			<path style="fill-rule:evenodd;clip-rule:evenodd;fill:#DE786B;" d="M350.09,165.684c-15.307-8.707-38.355-11.793-60.636-13.028
				c-14.484-0.803-39.688,3.19-51.149,8.952c-18.127,9.111-20.319,19.645-20.319,19.645s-23.31,4.311-43.703,14.699
				c-15.725,8.012-29.015,21.074-32.886,29.655c-8.062,17.871,2.743,39.821,20.129,43.987c17.679,4.236,72.335,10.048,104.904,1.108
				c43.572-11.96,64.31-40.521,64.31-40.521s30.626,2.217,45.252-23.269C382.774,195.094,373.341,178.91,350.09,165.684z"/>
		</g>
	</g>
	<g id="&#x424;&#x438;&#x433;&#x443;&#x440;&#x430;_229">
		<g>
			<path style="fill-rule:evenodd;clip-rule:evenodd;fill:#B1514B;" d="M220.822,207.711c0,0,22.718-0.336,25.607,10.104
				c2.959,10.692-17.098,20.167-17.098,20.167s27.984-7.701,27.122-22.01C255.555,201.052,220.822,207.711,220.822,207.711z
				 M180.49,191.356c0,0-41.134,18.414-41.992,45.74c-0.672,21.381,22.003,31.733,22.003,31.733s-13.89-13.871-11.278-34.084
				C152.423,209.987,180.49,191.356,180.49,191.356z M179.823,242.826c-3.939-15.916,15.47-30.373,15.47-30.373
				s-32.279,12.438-24.357,33.045c7.03,18.287,53.344,18.634,53.344,18.634S183.661,258.335,179.823,242.826z M340.408,190.84
				c-16.332-11.692-43.309-15.838-43.309-15.838s19.137-0.463,35.684,1.88c12.446,1.762,23.485,6.497,23.485,6.497
				s-14.784-12.828-36.681-16.702c-11.865-2.099-36.022-3.795-56.217-1.728c-20.993,2.148-37.857,8.203-40.421,13.466
				c0,0,55.986-5.109,87.138,9.646c9.077,4.3,21.504,14.063,23.4,22.444c2.366,10.453-3.99,20.386-3.99,20.386
				s8.119-0.412,15.953-2.206c7.54-1.728,14.806-4.842,14.806-4.842S355.202,201.431,340.408,190.84z M232.125,179.833
				c0,0,44.954,5.075,61.756,23.389c15.756,17.173-5.689,36.889-5.689,36.889s36.021-24.234,16.646-43.038
				C290.305,182.969,232.125,179.833,232.125,179.833z"/>
		</g>
	</g>
	<g id="&#x424;&#x438;&#x433;&#x443;&#x440;&#x430;_242">
		<g>
			<path style="fill-rule:evenodd;clip-rule:evenodd;fill:#F1C01A;" d="M171.626,341.384c0,0-9.464,0.609-17.097-0.983
				c-8.171-1.705-14.548-5.62-14.548-5.62s0.496,4.126-1.157,7.038c-2.031,3.578-5.225,5.35-5.225,5.35s3.342,25.937,14.504,29.9
				c5.688,2.02,12.147-2.578,18.274-5.427c8.029-3.732,13.736-6.523,13.736-6.523s-1.718-4.199-4.059-10.091
				C173.29,348.066,171.626,341.384,171.626,341.384z M280.744,322.016l-34.038,10.282l-8.51,16.311c0,0,9.152,14.604,16.665,13.828
				c3.92-0.404,11.922-11.898,19.08-19.915c6.559-7.345,12.477-11.287,12.477-11.287L280.744,322.016z"/>
		</g>
	</g>
	<g id="&#x424;&#x438;&#x433;&#x443;&#x440;&#x430;_252">
		<g>
			<path style="fill-rule:evenodd;clip-rule:evenodd;fill:#FFE079;" d="M134.426,348.697c4.189,7.402,9.983,13.634,16.357,16.163
				c13.091,5.194,27.491,0.768,27.491,0.768s-12.995-3.067-24.646-7.12C143.665,355.043,134.426,348.697,134.426,348.697z
				 M256.538,346.849c-6.651,2.175-17.241,1.546-17.241,1.546s8.591,6.471,15.96,3.082c14.345-6.595,24.808-19.695,24.808-19.695
				S267.592,343.234,256.538,346.849z"/>
		</g>
	</g>
	<g id="&#x424;&#x438;&#x433;&#x443;&#x440;&#x430;_245">
		<g>
			<path style="fill-rule:evenodd;clip-rule:evenodd;fill:#D3762C;" d="M153.722,338.545c-6.19-1.427-13.387-3.499-13.387-3.499
				s0.823,1.816-1.761,5.854c-2.288,3.573-6.985,7.916-6.985,7.916s9.403-0.577,21.799,2.802
				c10.859,2.961,26.57,12.444,26.57,12.444l-8.48-22.308C171.478,341.754,161.194,340.267,153.722,338.545z M277.554,323.079
				l-31.438,10.313l-8.687,16.133c0,0,11.052,3.396,22.345-4.098c10.633-7.056,24.429-15.049,24.429-15.049L277.554,323.079z"/>
		</g>
	</g>
	<g id="&#x424;&#x438;&#x433;&#x443;&#x440;&#x430;_241">
		<g>
			<path style="fill-rule:evenodd;clip-rule:evenodd;fill:#DE786B;" d="M171.537,340.808c0,0,8.709,38.715,27.302,39.712
				s47.867-47.157,47.867-47.157s-19.796,5.025-39.3,6.957C189.384,342.104,171.537,340.808,171.537,340.808z M116.701,319.801
				c-10.772-11.615-16.787-27.924-16.787-27.924s-5.931,13.631-6.314,27.294c-0.227,8.099,2.9,20.23,8.294,21.421
				c14.542,3.209,16.084,8.568,26.915,7.745c8.915-0.679,11.882-12.493,11.882-12.493S126.242,330.089,116.701,319.801z
				 M313.895,307.178c-17.35,9.62-35.277,15.901-35.277,15.901s14.404,23.114,33.685,18.793c19.279-4.322,41.13-60.277,41.13-60.277
				S333.779,296.151,313.895,307.178z"/>
		</g>
	</g>
	<g id="&#x424;&#x438;&#x433;&#x443;&#x440;&#x430;_246">
		<g>
			<path style="fill-rule:evenodd;clip-rule:evenodd;fill:#B1514B;" d="M170.474,341.029l2.216,8.953c0,0,11.207,3.206,26.246,3.781
				c20.556,0.786,42.629-10.961,42.629-10.961l5.496-9.795c0,0-20.479,5.306-40.316,7.383
				C188.343,342.318,170.474,341.029,170.474,341.029z M114.467,317.393C103.554,305.331,99.56,289.75,99.56,289.75
				c-7.136,42.711,36.81,59.923,39.739,50.016c0.917-3.102,0.682-5.34,0.682-5.34S123.606,327.494,114.467,317.393z
				 M323.109,301.661c-19.467,11.367-45.688,22.97-45.688,22.97l8.687,6.781c0,0,10.329,1.251,24.439-5.814
				c15.191-7.606,37.788-29.864,37.788-29.864l7.8-17.063C356.135,278.67,342.995,290.051,323.109,301.661z"/>
		</g>
	</g>
	<g id="&#x424;&#x438;&#x433;&#x443;&#x440;&#x430;_247">
		<g>
			<path style="fill-rule:evenodd;clip-rule:evenodd;fill:#F48E81;" d="M187.714,234.57c-1.063,11.39,7.061,20.523,26.67,22.594
				c30.464,3.216,61.042-14.927,61.042-14.927s1.582-8.803-10.653-9.702c-11.87-0.873-40.547,16.596-34.864,4.871
				c4.92-10.149,24.274-16.569-0.698-20.551C201.952,212.51,188.778,223.18,187.714,234.57z M171.183,245.074
				c0,0-5.256-6.425,4.809-20.138c5.794-7.895,21.429-13.901,21.429-13.901c-32.201-4.727-46.44,12.555-40.308,24.028
				C163.664,247.32,171.183,245.074,171.183,245.074z M174.02,350.026c0,0,13.476,20.375,26.25,18.482
				c16.411-2.432,39.7-24.864,39.7-24.864s-22.365,12.905-37.908,14.41C184.728,359.732,174.02,350.026,174.02,350.026z
				 M103.671,328.835c-5.514-9.558-8.367-20.647-8.367-20.647s-3,17.303,2.762,27.29c4.784,8.292,18.513,9.585,18.513,9.585
				S108.779,337.688,103.671,328.835z M298.244,241.736c-14.006,11.514-32.041,23.255-49.881,25.552
				c-27.369,3.523-45.999,0.835-65.451-6.244c-13.665-4.974-28.04,3.177-28.04,3.177s12.208,8.577,33.412,11.445
				c21.199,2.867,51.392,0.025,75.144-4.015c36.462-6.203,62.347-36.505,62.347-36.505S307.609,234.037,298.244,241.736z"/>
		</g>
	</g>
	<g id="&#x424;&#x438;&#x433;&#x443;&#x440;&#x430;_251" style="opacity:0.3294;">
		<g>
			<path style="fill-rule:evenodd;clip-rule:evenodd;fill:#C33030;" d="M140.158,334.16c0,0-15.473-10.263-13.709-25.396
				c1.493-12.812,5.156-16.044,5.156-16.044s-22.24-13.977-24.896-29.057c-2.224-12.623,3.489-31.354,3.489-31.354
				s-17.177,21.125-9.927,61.512c-12.103,15.715-1.996,48.893-1.996,48.893s-0.153,11.453,5.336,20.205
				c6.112,9.743,29.19,23.274,29.19,23.274s-10.668-10.624-6.551-37.705c-6.681-1.145-12.592-7.721-11.042-14.755
				C134.3,349.42,140.158,334.16,140.158,334.16z"/>
		</g>
	</g>
	
		<g id="&#x417;&#x430;&#x43B;&#x438;&#x432;&#x43A;&#x430;_&#x446;&#x432;&#x435;&#x442;&#x43E;&#x43C;_151_&#x43A;&#x43E;&#x43F;&#x438;&#x44F;_5">
		<g>
			<path style="fill-rule:evenodd;clip-rule:evenodd;fill:#BF4D15;" d="M178.598,363.08c-0.073,0.035-7.44,3.499-24.298,11.215
				c-2.25,1.029-4.164,1.039-6.023,0.026c-7.193-3.92-11.136-21.142-12.049-27.447c-0.224-1.55-1.66-2.618-3.212-2.401
				c-1.55,0.225-2.626,1.662-2.402,3.212c0.375,2.606,3.983,25.639,14.946,31.616c1.756,0.957,3.623,1.437,5.547,1.437
				c1.817,0,3.686-0.429,5.555-1.284c16.89-7.731,24.279-11.205,24.352-11.24c1.417-0.666,2.025-2.356,1.359-3.773
				C181.705,363.022,180.016,362.41,178.598,363.08z M287.695,331.05c-0.968-1.229-2.753-1.445-3.982-0.474
				c-0.697,0.549-17.157,13.582-26.782,27.385c-0.565,0.811-1.097,0.938-1.588,0.956c-0.036,0-0.073,0.001-0.11,0.001
				c-3.859,0-11.11-6.845-15.068-11.759c-0.983-1.219-2.768-1.412-3.988-0.431c-1.219,0.982-1.414,2.766-0.432,3.986
				c1.879,2.338,11.565,13.877,19.515,13.877c0.092,0,0.185-0.003,0.276-0.006c2.474-0.085,4.566-1.254,6.048-3.381
				c9.137-13.102,25.475-26.043,25.639-26.172C288.453,334.063,288.665,332.28,287.695,331.05z"/>
		</g>
	</g>
	<g id="&#x417;&#x430;&#x43B;&#x438;&#x432;&#x43A;&#x430;_&#x446;&#x432;&#x435;&#x442;&#x43E;&#x43C;_154">
		<g>
			<path style="fill-rule:evenodd;clip-rule:evenodd;fill:#D17538;" d="M378.426,166.137c-2.1-1.034-4.614-0.177-5.666,1.908
				s-0.21,4.637,1.868,5.707c0.653,0.337,15.922,8.534,5.54,32.289c-14.937,34.173-90.713,68.468-91.478,68.81
				c-0.049,0.022-0.097,0.044-0.146,0.069c-0.798,0.394-80.319,39.238-135.333,23.413c-21.778-6.267-35.41-16.038-40.517-29.045
				c-6.659-16.962,3.58-34.271,3.684-34.444c1.215-2.006,0.579-4.618-1.426-5.839c-2.009-1.222-4.626-0.587-5.848,1.421
				c-0.515,0.846-12.525,20.963-4.365,41.888c6.1,15.643,21.616,27.147,46.117,34.196c10.23,2.943,21.125,4.161,32.167,4.161
				c51.333-0.003,105.669-26.338,109.219-28.089c4.17-1.874,79.58-36.201,95.722-73.133
				C401.685,178.061,378.659,166.253,378.426,166.137z"/>
		</g>
	</g>
	
		<g id="&#x417;&#x430;&#x43B;&#x438;&#x432;&#x43A;&#x430;_&#x446;&#x432;&#x435;&#x442;&#x43E;&#x43C;_151_&#x43A;&#x43E;&#x43F;&#x438;&#x44F;_7">
		<g>
			<path style="fill-rule:evenodd;clip-rule:evenodd;fill:#97401E;" d="M320.43,354.726
				c-32.027,17.318-98.815,33.838-134.898,36.493c-26.598,1.97-65.3-14.691-77.139-29.187c-8.059-9.867-3.622-20.119-3.429-20.55
				l-3.873-1.764l-3.861-1.788c-0.288,0.622-6.928,15.404,4.571,29.483c12.616,15.447,50.406,32.471,79.384,32.47
				c1.688,0,3.35-0.059,4.971-0.178c36.925-2.717,105.39-19.687,138.32-37.495c56.003-30.284,67.342-65.621,67.798-67.109
				l-8.139-2.488C384.035,292.944,373.393,326.085,320.43,354.726z M393.595,181.262c-3.305-7.385-17.438-19.869-46.394-30.747
				c-13.148-4.94-34.439-7.774-58.411-7.774c-19.888,0-38.655,2.003-51.491,5.495c-79.521,21.633-126.015,74.502-133.088,90.287
				c-4.437,9.903-13.843,35.327-5.365,57.465c6.518,17.023,18.65,48.71,83.056,49.695c1.099,0.017,2.196,0.025,3.294,0.025
				c70.732,0,139.367-35.132,166.016-57.275c3.601-2.993,7.04-5.784,10.301-8.433c19.673-15.974,33.886-27.515,38.101-46.718
				C404.646,210.35,399.04,193.436,393.595,181.262z M391.299,231.458c-3.576,16.297-16.137,26.496-35.15,41.936
				c-3.285,2.668-6.75,5.479-10.375,8.493c-26.131,21.715-94.107,56.395-163.742,55.286c-58.648-0.896-69.034-28.021-75.239-44.229
				c-7.543-19.699,2.06-43.973,5.184-50.942c5.722-12.771,50.283-64.534,127.557-85.555c12.138-3.303,30.092-5.197,49.257-5.197
				c22.652,0,43.37,2.703,55.419,7.229c29.455,11.066,40.029,22.707,41.618,26.257C390.74,195.718,395.801,210.952,391.299,231.458z
				"/>
		</g>
	</g>
	
		<g id="&#x417;&#x430;&#x43B;&#x438;&#x432;&#x43A;&#x430;_&#x446;&#x432;&#x435;&#x442;&#x43E;&#x43C;_151_&#x43A;&#x43E;&#x43F;&#x438;&#x44F;_6">
		<g>
			<path style="fill-rule:evenodd;clip-rule:evenodd;fill:#8D3D37;" d="M130.672,345.321c-3.684,1.156-7.08-0.246-12.218-2.368
				c-3.444-1.423-7.349-3.035-12.267-4.205c-6.464-1.534-9.98-11.367-8.552-23.91c0.601-5.28,1.824-10.439,2.946-14.42
				c-0.63-1.555-1.204-3.045-1.734-4.431c-0.552-1.441-1.021-2.897-1.428-4.361c-0.902,2.487-4.237,12.171-5.42,22.569
				c-1.792,15.732,3.383,27.817,12.876,30.072c4.48,1.066,8.164,2.587,11.414,3.929c4.099,1.693,7.788,3.217,11.687,3.217
				c1.426,0,2.882-0.204,4.395-0.679c6.529-2.048,9.385-6.99,10.371-10.816c-1.883-0.616-3.656-1.283-5.374-1.976
				C136.998,339.879,135.643,343.763,130.672,345.321z M359.655,281.511c-2.712,2.203-5.509,4.481-8.444,6.922
				c-0.84,0.697-1.723,1.408-2.644,2.13c-1.591,2.736-3.384,5.896-5.235,9.298c-6.693,12.301-16.81,30.889-28.676,37.351
				c-11.986,6.529-24.829-5.058-30.706-11.536c-1.872,0.731-3.767,1.45-5.681,2.158c4.617,5.47,15.914,17.051,28.782,17.051
				c3.362,0,6.833-0.792,10.318-2.689c12.314-6.707,21.665-22.569,30.946-39.622c5.753-10.572,10.941-18.782,10.993-18.864
				C359.74,283.026,359.835,282.236,359.655,281.511z M200.096,377.672c-11.936,1.301-21.303-21.039-24.709-32.21
				c-2.07-0.104-4.074-0.246-6.028-0.417c1.113,3.987,11.25,38.358,29.695,38.358c0.548,0,1.106-0.03,1.669-0.095
				c20.661-2.294,45.614-42.222,48.051-46.197c-2.635,0.685-5.296,1.329-7.975,1.945
				C231.747,352.68,213.539,376.178,200.096,377.672z"/>
		</g>
	</g>
	
		<g id="&#x417;&#x430;&#x43B;&#x438;&#x432;&#x43A;&#x430;_&#x446;&#x432;&#x435;&#x442;&#x43E;&#x43C;_151_&#x43A;&#x43E;&#x43F;&#x438;&#x44F;_4">
		<g>
			<path style="fill-rule:evenodd;clip-rule:evenodd;fill:#8D3D37;" d="M343.437,159.889c-1.195-0.58-2.302-1.116-3.295-1.609
				c-16.224-8.06-63.785-11.165-92.072-3.423c-22.573,6.178-31.905,21.831-33.526,24.859c-25.028,4.706-42.119,10.833-51.916,18.597
				c-22.032,17.461-29.828,31.259-26.912,47.624c2.739,15.366,18.455,33.682,77.776,33.682c4.794,0,9.873-0.119,15.094-0.357
				c58.855-2.674,89.31-26.281,101.998-43.104c2.654-0.268,44.022-4.946,51.063-35.9
				C386.122,180.588,358.354,167.122,343.437,159.889z M330.512,222.182c-4.096,11.951-31.672,46.789-102.247,49.996
				c-5.116,0.231-10.086,0.349-14.773,0.349c-42.454,0-67.595-9.884-70.794-27.834c-2.019-11.326,1.347-22.604,24.334-40.821
				c16.116-12.772,53.219-18.248,67.326-20.206c4.885,0.535,9.746,1.214,14.563,2.059c8.049,1.404,15.989,3.408,23.483,6.284
				c3.74,1.442,7.35,3.159,10.648,5.246c3.298,2.07,6.284,4.554,8.503,7.499c4.511,5.822,5.362,13.747,2.391,20.551
				c-2.828,6.972-8.133,13.075-14.085,18.182c-6.012,5.119-12.942,9.237-20.314,12.296c-14.797,6.109-31.185,8.109-47.39,6.413
				c-4.062-0.396-8.11-0.938-12.111-1.712c-4.002-0.759-7.964-1.763-11.771-3.171c-3.81-1.379-7.485-3.183-10.678-5.595
				c-3.177-2.381-5.8-5.641-6.605-9.415c-0.829-3.787,0.423-7.73,2.56-10.995c2.175-3.268,5.138-6.083,8.287-8.449
				c6.439-4.612,14.183-7.372,21.937-9.455c7.785-2.104,15.783-3.507,23.802-4.234c4.008-0.351,8.034-0.486,11.998-0.273
				c3.927,0.22,7.951,0.686,11.26,2.104c1.637,0.698,2.957,1.725,3.425,2.83c0.248,0.564,0.321,1.171,0.21,1.942
				c-0.078,0.557-0.147,0.916-0.247,1.356c-0.102,0.441-0.226,0.88-0.37,1.313c-1.161,3.478-3.635,6.572-6.6,9.148
				c-2.995,2.567-6.449,4.712-10.076,6.53c-3.63,1.815-7.437,3.386-11.34,4.624l-0.011,0.003c-0.133,0.043-0.218,0.178-0.194,0.319
				c0.027,0.154,0.174,0.258,0.328,0.231c4.103-0.711,8.114-1.854,12.026-3.352c3.893-1.529,7.715-3.403,11.166-5.986
				c3.434-2.548,6.604-5.889,8.296-10.198c0.211-0.533,0.398-1.078,0.56-1.632c0.163-0.557,0.313-1.203,0.401-1.665
				c0.266-1.246,0.252-2.778-0.263-4.138c-0.497-1.373-1.399-2.505-2.371-3.344c-0.977-0.852-2.029-1.476-3.083-1.985
				c-2.117-1.015-4.266-1.604-6.405-2.052c-2.141-0.434-4.276-0.721-6.408-0.868c-4.263-0.299-8.497-0.223-12.702,0.073
				c-8.407,0.61-16.704,2.208-24.735,4.74c-4.007,1.295-7.936,2.854-11.742,4.709c-3.795,1.866-7.486,4.039-10.792,6.805
				c-3.245,2.802-6.151,5.951-8.316,9.705c-1.08,1.862-1.959,3.882-2.413,6.032c-0.469,2.145-0.464,4.407,0.022,6.558
				c0.981,4.373,4.039,7.803,7.336,10.389c3.364,2.604,7.173,4.459,11.041,6.036c7.798,3.04,15.963,4.935,24.189,6.178
				c8.193,1.32,16.692,1.916,25.098,1.156c8.412-0.721,16.757-2.628,24.67-5.719c7.918-3.074,15.439-7.291,22.111-12.707
				c3.342-2.7,6.42-5.761,9.15-9.154c2.709-3.404,5.118-7.143,6.768-11.346c0.807-2.107,1.437-4.318,1.757-6.633
				c0.314-2.38,0.302-4.617,0.008-6.941c-0.562-4.614-2.547-9.085-5.454-12.595c-2.884-3.549-6.471-6.267-10.216-8.441
				c-3.771-2.156-7.738-3.783-11.753-5.118c-8.049-2.646-16.333-4.011-24.589-4.92c-1.129-0.126-2.26-0.23-3.392-0.323
				c2.774-0.14,5.682-0.216,8.687-0.216c19.119,0,38.292,2.838,50.038,7.406C325.996,198.054,334.938,209.268,330.512,222.182z
				 M374.733,198.684c-4.555,20.025-27.99,27.168-39.087,29.455c0.668-1.335,1.201-2.572,1.574-3.658
				c3.35-9.777,3.91-28.149-29.998-41.338c-12.7-4.939-32.366-7.889-52.609-7.889c-7.311,0-14.164,0.412-19.819,1.191
				c-3.657,0.505-7.15,1.037-10.551,1.585c4.155-5.121,12.224-12.646,25.698-16.335c26.45-7.239,72.2-4.438,87.044,2.934
				c1.012,0.503,2.139,1.05,3.355,1.641C353.488,172.644,377.957,184.51,374.733,198.684z"/>
		</g>
	</g>
	<g id="&#x424;&#x438;&#x433;&#x443;&#x440;&#x430;_230">
		<g>
			<path style="fill-rule:evenodd;clip-rule:evenodd;fill:#F9D49F;" d="M151.46,230.182c1.906,6.959,22.604,0.045,20.432-5.673
				C169.72,218.792,149.554,223.224,151.46,230.182z M189.62,269.185c3.369,5.009,20.211-0.931,19.147-7.801
				C207.704,254.515,186.252,264.177,189.62,269.185z M198.13,245.074c-1.684-7.757-29.562-3.635-24.82,4.255
				C178.053,257.218,199.814,252.83,198.13,245.074z M245.864,207.091c-3.723-5.673-33.994,1.463-30.271,9.884
				C219.315,225.396,251.357,215.461,245.864,207.091z M198.219,202.349c-4.831-6.826-31.69,1.374-27.745,8.687
				C174.418,218.349,203.05,209.174,198.219,202.349z M208.767,240.819c1.596,5.186,16.443,1.196,16.665-4.033
				C225.653,231.556,207.171,235.634,208.767,240.819z M305.21,218.836c3.103,5.673,19.812-2.305,17.02-8.51
				S302.107,213.163,305.21,218.836z M362.162,187.854c-4.138-7.348-28.383-0.88-21.043,6.518S366.299,195.201,362.162,187.854z
				 M233.587,265.639c6.781,2.704,23.225-10.726,17.729-16.31C245.82,243.744,226.806,262.936,233.587,265.639z M267.183,230.182
				c5.673,11.081,28.144-5.097,23.357-12.498C285.479,209.856,261.51,219.102,267.183,230.182z"/>
		</g>
	</g>
	<g id="&#x417;&#x430;&#x43B;&#x438;&#x432;&#x43A;&#x430;_&#x446;&#x432;&#x435;&#x442;&#x43E;&#x43C;_153">
		<g>
			<path style="fill-rule:evenodd;clip-rule:evenodd;fill:#B45D58;" d="M220.197,231.738c-4.639,0-11.097,1.967-13.444,5.144
				c-0.932,1.262-1.213,2.71-0.793,4.075c0.767,2.493,3.293,3.922,6.931,3.922c0,0,0.001,0,0.001,0
				c5.517,0,13.672-3.307,13.891-8.491c0.047-1.109-0.327-2.112-1.083-2.898C224.588,232.327,222.737,231.738,220.197,231.738z
				 M212.893,240.625L212.893,240.625c-1.545,0-2.696-0.37-2.869-0.93c0.101-1.164,5.267-3.702,10.174-3.702
				c1.323,0,2.038,0.223,2.315,0.365C222.163,237.964,217.436,240.625,212.893,240.625z M204.16,256.385
				c-5.453,0-14.753,4.251-17.158,8.765c-0.884,1.662-0.856,3.344,0.08,4.734c0.859,1.278,2.696,2.802,6.563,2.803
				c0,0,0.001,0,0.001,0c5.137,0,11.505-2.735,14.499-6.227c1.587-1.853,2.262-3.888,1.952-5.89
				C209.944,259.589,209.066,256.385,204.16,256.385z M204.914,263.691c-2.204,2.568-7.363,4.74-11.268,4.74c0,0-0.001,0-0.001,0
				c-1.51,0-2.644-0.345-3.029-0.892c-0.003-0.116,0.166-0.627,0.951-1.433c2.692-2.76,8.929-5.468,12.593-5.468
				c0.613,0,1.653,0.075,1.731,0.582C206.007,261.968,205.678,262.799,204.914,263.691z M176.783,215.365
				c8.072,0,20.004-4.217,22.714-9.455c0.932-1.801,0.82-3.676-0.315-5.278c-1.6-2.261-4.78-3.456-9.198-3.456
				c-7.847,0-18.894,3.802-21.931,8.893c-1.079,1.809-1.159,3.757-0.225,5.488C168.765,213.295,171.08,215.365,176.783,215.365z
				 M171.707,208.248c1.978-3.313,11.372-6.817,18.277-6.817c2.85,0,4.99,0.62,5.726,1.658c0.164,0.232,0.247,0.405,0.008,0.865
				c-1.548,2.993-11.378,7.157-18.935,7.157c-2.731,0-4.679-0.589-5.21-1.574C171.427,209.268,171.305,208.923,171.707,208.248z
				 M247.902,245.699c-6.818,0-17.366,9.993-18.542,16.118c-0.474,2.471,0.522,4.455,2.665,5.31
				c0.844,0.337,1.794,0.507,2.826,0.507c6.241,0,15.602-6.588,18.211-12.816c1.222-2.917,0.866-5.569-1.003-7.469
				C250.997,246.27,249.559,245.699,247.902,245.699z M249.138,253.173c-1.958,4.675-9.702,10.206-14.287,10.206
				c-0.49,0-0.91-0.069-1.336-0.214c-0.075-0.202-0.009-1.45,1.672-3.861c3.352-4.805,9.53-9.35,12.715-9.35
				c0.673,0,0.964,0.216,1.123,0.378C249.275,250.587,249.939,251.261,249.138,253.173z M222.669,221.813L222.669,221.813
				c8.715,0,21.269-4.493,24.396-10.286c1.107-2.05,1.037-4.213-0.196-6.093c-1.304-1.986-4.19-2.993-8.581-2.993
				c-7.864,0-21.123,3.516-24.851,9.241c-1.196,1.835-1.391,3.794-0.564,5.663C213.774,219.384,216.205,221.812,222.669,221.813z
				 M217.002,214.004c2.313-3.551,13.254-7.308,21.286-7.308c3.543,0,4.828,0.774,5.023,1.074c0.312,0.475,0.433,0.952,0.01,1.736
				c-2.072,3.838-12.881,8.052-20.653,8.052c-3.162,0-5.369-0.724-5.904-1.933C216.593,215.236,216.502,214.771,217.002,214.004z
				 M363.241,186.322c-1.568-2.785-5.116-4.318-9.993-4.318c-6.417,0-14.154,2.641-15.994,7.059
				c-0.518,1.243-1.002,3.718,1.582,6.321c2.479,2.498,6.174,3.874,10.404,3.874c5.931,0,11.797-2.673,13.951-6.356
				C364.424,190.791,364.442,188.454,363.241,186.322z M359.519,190.753c-1.222,2.089-5.4,4.25-10.278,4.25
				c-3.088,0-5.711-0.93-7.384-2.616c-0.972-0.978-0.763-1.476-0.675-1.688c0.838-2.012,6.407-4.44,12.066-4.44
				c3.178,0,5.527,0.805,6.287,2.15C359.993,189.225,359.988,189.948,359.519,190.753z M282.865,212.158
				c-6.104,0-14.479,3.371-17.929,9.014c-1.88,3.074-2.026,6.357-0.421,9.491c1.625,3.175,4.586,4.924,8.336,4.924
				c0.002,0,0.002,0,0.004,0c7.152,0,15.438-6.064,18.402-11.508c1.617-2.976,1.723-5.83,0.295-8.039
				C289.934,213.536,286.848,212.158,282.865,212.158z M287.52,222.044c-2.29,4.208-9.342,9.288-14.664,9.288h-0.002
				c-2.164,0-3.652-0.853-4.551-2.607c-0.92-1.795-0.833-3.539,0.264-5.333c2.313-3.783,8.861-6.979,14.299-6.979
				c1.441,0,4.023,0.25,5.114,1.938C288.676,219.427,288.113,220.953,287.52,222.044z M172.375,227.934
				c1.042-1.51,1.303-3.168,0.732-4.668c-0.978-2.574-3.923-3.993-8.292-3.993c-5.148,0-12.176,2.039-15.058,5.817
				c-1.221,1.6-1.609,3.387-1.122,5.166c0.459,1.676,2.071,4.489,7.703,4.489C161.7,234.745,169.606,231.947,172.375,227.934z
				 M168.873,225.518c-1.544,2.238-7.632,4.973-12.536,4.973c-0.97,0-3.263-0.133-3.599-1.358c-0.088-0.32-0.122-0.776,0.401-1.462
				c1.684-2.206,7.139-4.143,11.675-4.143c2.521,0,4.08,0.628,4.315,1.248C169.208,224.983,169.002,225.33,168.873,225.518z
				 M198.037,249.543c1.326-1.646,1.81-3.516,1.399-5.409c-0.803-3.697-5.139-5.818-11.897-5.818
				c-6.694,0-14.679,2.133-16.984,6.209c-0.967,1.711-0.911,3.632,0.159,5.412c1.985,3.303,6.386,5.197,12.075,5.197
				C187.961,255.134,194.939,253.385,198.037,249.543z M194.724,246.872c-1.841,2.284-6.973,4.008-11.936,4.008
				c-4.098,0-7.248-1.172-8.428-3.135c-0.351-0.585-0.249-0.865-0.102-1.125c1.083-1.915,6.804-4.05,13.281-4.05
				c4.729,0,7.473,1.241,7.739,2.467C195.362,245.425,195.396,246.039,194.724,246.872z M317.461,205.62
				c-5.134,0-12.058,3.788-14.523,7.949c-1.187,2.003-1.318,4.063-0.368,5.799c1.075,1.964,3.206,3.046,6.006,3.046
				c5.071,0,11.528-3.361,14.101-7.339c1.32-2.041,1.575-4.21,0.721-6.109C322.834,207.716,321.314,205.62,317.461,205.62z
				 M319.104,212.765c-1.76,2.723-6.976,5.395-10.528,5.395c-0.829,0-1.896-0.144-2.271-0.832c-0.077-0.141-0.312-0.568,0.294-1.588
				c1.689-2.85,7.273-5.864,10.863-5.864c1.68,0,1.962,0.629,2.055,0.836C319.608,210.917,319.893,211.546,319.104,212.765z"/>
		</g>
	</g>
	<g id="&#x424;&#x438;&#x433;&#x443;&#x440;&#x430;_231" style="opacity:0.8;">
		<g>
			<path style="fill-rule:evenodd;clip-rule:evenodd;fill:#7D312B;" d="M287.26,179.789c-9.617-2.35-21.092-6.109-45.077,5.191
				c-28.933,13.632-54.247,40.947-54.247,40.947s37.533-5.8,66.164-21.812C280.074,189.59,301.844,183.351,287.26,179.789z"/>
		</g>
	</g>
	
		<g id="&#x417;&#x430;&#x43B;&#x438;&#x432;&#x43A;&#x430;_&#x446;&#x432;&#x435;&#x442;&#x43E;&#x43C;_151_&#x43A;&#x43E;&#x43F;&#x438;&#x44F;_3">
		<g>
			<path style="fill-rule:evenodd;clip-rule:evenodd;fill:#475524;" d="M443.146,294.205c-0.78-1.201-19.306-29.43-36.395-28.334
				c-5.858,0.36-11.096,0.394-15.597,0.267c8.084-3.543,18.074-9.574,21.541-18.663c5.009-13.122-5.818-34.384-6.282-35.282
				c-0.483-0.939-1.448-1.531-2.506-1.537h-0.015c-1.003,0-1.917,0.54-2.427,1.398c0.197,4.057,0.096,8.353-0.448,12.931
				l2.681-5.063c2.972,7.293,6.344,18.597,3.698,25.53c-4.187,10.97-21.611,16.99-27.221,18.673
				c-2.151,2.027-4.443,4.062-6.863,6.129c2.466,0.439,15.019,2.436,33.788,1.279c10.183-0.603,23.289,14.503,29.405,23.023
				c-9.964,4.185-29.912,10.108-39.203,2.152c-14.653-12.55-25.349-21.833-27.38-23.599c-1.484,1.234-2.996,2.481-4.562,3.758
				c3.396,4.508,11.78,18.857-0.021,39.013c-3.286,5.613-12.622,11.122-20.385,12.026c-2.987,0.351-5.343-0.06-6.709-1.146
				c0.296-3.595,8.38-16.304,12.795-23.241c1.003-1.577,1.971-3.099,2.864-4.523c7.406-11.806,7.428-17.267,7.246-18.703
				c-2.183,1.772-4.466,3.636-6.802,5.555c-0.896,2.38-2.466,5.695-5.251,10.135c-0.888,1.414-1.849,2.925-2.844,4.491
				c-11.648,18.311-16.039,26.138-12.492,29.857c2.123,2.225,5.272,3.371,9.206,3.371c0.845,0,1.729-0.053,2.644-0.16
				c9.605-1.119,20.422-7.618,24.622-14.794c7.886-13.467,7.714-24.911,5.417-33.175c4.713,4.069,10.878,9.379,17.962,15.445
				c4.578,3.921,10.64,5.308,16.919,5.308c14.669,0,30.53-7.564,31.471-8.021c0.734-0.354,1.278-1.007,1.498-1.792
				C443.721,295.729,443.59,294.888,443.146,294.205z"/>
		</g>
	</g>
	<g id="&#x424;&#x438;&#x433;&#x443;&#x440;&#x430;_226">
		<g>
			<path style="fill-rule:evenodd;clip-rule:evenodd;fill:#57781A;" d="M240.465,191.601l6.241,1.44c0,0-5.495-12.55-10.73-23.634
				c-3.875-8.204-6.126-14.463-13.639-20.193c-15.984-12.193-43.088-7.63-43.088-7.63s7.956,28.063,19.823,34.581
				c15.87,8.716,25.164,11.69,25.164,11.69l0.139,0.032c-9.35-0.035-19.576,3.109-23.985,6.31
				c-14.628,10.621-10.06,34.566-10.06,34.566s5.121-0.699,25.548-17.396c10.784-8.814,34.02-13.806,34.02-13.806l-1.773-1.507
				C248.125,196.055,245.173,193.759,240.465,191.601z M267.703,140.563c-9.215,2.499-15.504,6.513-19.566,11.981
				c-8.195,11.032-7.37,21.881-7.37,21.881l8.953,20.122c0,0,3.274-9.096,8.175-16.474c4.206-6.332,18.303-21.751,26.314-24.519
				c7.248-2.504,11.649-6.432,11.649-6.432S279.836,137.271,267.703,140.563z"/>
		</g>
	</g>
	<g id="&#x424;&#x438;&#x433;&#x443;&#x440;&#x430;_233">
		<g>
			<path style="fill-rule:evenodd;clip-rule:evenodd;fill:#4F6616;" d="M247.885,172.846c-4.361-2.705-5.817-9.441-5.817-9.441
				s-2.018,4.486-1.904,10.293c0.101,5.129,1.662,9.486,2.213,10.871c0.122,0.292,0.193,0.465,0.193,0.465s-0.074-0.167-0.193-0.465
				c-1.476-3.544-11.425-27.017-18.316-32.511c-9.729-7.756-22.355-1.652-16.475,5.084c5.88,6.737,10.758,9.676,19.338,18.011
				c7.941,7.715,13.754,14.137,13.754,14.137s-7.733-2.609-14.221-2.778c-7.58-0.198-14.085,2.04-14.085,2.04
				s8.83,2.854,12.667,6.452c3.725,3.492,2.46,8.972,2.46,8.972l21.097-10.489l10.046-19.797
				C258.644,173.688,251.786,175.266,247.885,172.846z"/>
		</g>
	</g>
	<g id="&#x424;&#x438;&#x433;&#x443;&#x440;&#x430;_232">
		<g>
			<path style="fill-rule:evenodd;clip-rule:evenodd;fill:#7CA834;" d="M216.952,197.267c-7.298,0.649-18.083,13.119-18.083,13.119
				s5.585-13.028,13.185-15.135c5.83-1.616-0.982-7.588-0.982-7.588s-13.348,2.415-16.788,8.206
				c-6.775,11.406-7.559,29.97-3.541,30.797s35.752-22.249,35.752-22.249S224.25,196.616,216.952,197.267z M216.301,155.543
				c7.603,0.908,11.702,1.154,11.702,1.154s-7.106-11.601-19.568-15.517c-12.358-3.884-30.869-1.769-30.869-1.769
				s5.859,21.299,16.233,33.3c7.052,8.158,19.933,8.54,19.933,8.54s-1.963-5.304-5.607-11.863
				c-14.376-25.876,31.136,18.245,31.136,18.245s-10.358-11.825-21.365-23.571C209.467,155.067,211.563,154.978,216.301,155.543z
				 M266.916,138.792c0,0-10.03,2.948-15.216,8.782c-6.088,6.849-6.869,22.022-2.896,16.717
				c5.627-7.517,17.403-14.833,17.403-14.833s-11.521,11.002-12.823,18.083c-1.4,7.612,9.507,0.333,14.569-4.636
				c7.73-7.587,11.196-10.078,11.196-10.078S261.863,148.542,266.916,138.792z"/>
		</g>
	</g>
	<g id="&#x417;&#x430;&#x43B;&#x438;&#x432;&#x43A;&#x430;_&#x446;&#x432;&#x435;&#x442;&#x43E;&#x43C;_152">
		<g>
			<path style="fill-rule:evenodd;clip-rule:evenodd;fill:#475524;" d="M296.586,143.151c-0.708-0.435-17.484-10.613-30.941-6.963
				c-9.785,2.654-16.812,7.001-21.484,13.289c-3.695,4.974-5.901,10.405-7.222,15.075c-0.057-0.123-0.12-0.255-0.176-0.378
				c-3.256-7.049-6.069-13.137-13.405-18.732c-17.011-12.976-44.659-8.505-45.828-8.308c-0.994,0.168-1.87,0.75-2.408,1.602
				c-0.539,0.852-0.69,1.893-0.415,2.861c0.856,3.02,8.73,29.694,21.527,36.724c5.189,2.85,9.671,5.087,13.391,6.826
				c-5.131,1.304-9.647,3.194-12.45,5.229c-16.262,11.808-11.663,37.031-11.459,38.1c0.323,1.69,1.802,2.882,3.479,2.882
				c0.159,0,0.321-0.011,0.483-0.033c1.434-0.195,7.641-2.084,27.313-18.164c9.988-8.165,32.296-13.036,32.52-13.084
				c1.914-0.412,3.132-2.298,2.721-4.212c-0.073-0.342-0.203-0.653-0.362-0.945c0.017-0.042,0.04-0.079,0.055-0.121
				c0.031-0.088,3.198-8.798,7.792-15.714c4.215-6.346,17.773-20.8,24.519-23.13c7.83-2.705,12.65-6.957,12.852-7.138
				c0.837-0.745,1.271-1.843,1.172-2.959S297.54,143.738,296.586,143.151z M199.649,172.105c-7.387-4.058-13.831-19.428-16.87-28.45
				c7.835-0.678,25.2-1.025,36.278,7.426c5.937,4.528,8.173,9.369,11.268,16.068c0.423,0.915,0.857,1.854,1.313,2.82
				c2.771,5.866,5.636,12.192,7.702,16.809c-3.218-1.35-7.054-2.563-11.289-3.098c-1.387-0.176-2.819-0.271-4.274-0.293
				C221.875,182.729,213.236,179.568,199.649,172.105z M212.504,207.67c-10.574,8.644-16.853,12.837-20.325,14.854
				c-0.421-6.925,0.151-19.866,9.163-26.409c3.654-2.652,12.961-5.648,21.667-5.648c1.409,0,2.802,0.079,4.153,0.25
				c5.311,0.671,9.978,2.67,13.176,4.388C232.301,197.393,219.876,201.643,212.504,207.67z M281.921,149.252
				c-9.334,3.225-23.935,19.621-28.11,25.908c-2.749,4.139-4.981,8.722-6.479,12.127c-1.235-2.781-3.122-7.002-5.222-11.599
				c0.209-2.879,1.394-13.435,7.744-21.981c3.686-4.962,9.459-8.453,17.648-10.675c6.68-1.809,15.076,1.145,20.335,3.554
				C286.225,147.492,284.229,148.454,281.921,149.252z"/>
		</g>
	</g>
	<g id="&#x424;&#x438;&#x433;&#x443;&#x440;&#x430;_248">
		<g>
			<path style="fill-rule:evenodd;clip-rule:evenodd;fill:#D97A24;" d="M336.514,393.114c-12.506-1.63-9.01,11.738-14.373,11.959
				c-5.363,0.222-0.784-17.128-16.918-16.108c-14.464,0.914-14.195,17.793-14.195,17.793s-8.908,8.199-6.293,12.809
				c2.614,4.609,8.447,2.982,22.663,3.463c17.554,0.592,15.474-9.447,23.298-7.939C341.73,417.218,348.59,394.689,336.514,393.114z
				 M220.712,418.414c-5.936,0-10.748,3.265-10.748,7.291s4.812,7.291,10.748,7.291c5.936,0,10.748-3.265,10.748-7.291
				S226.647,418.414,220.712,418.414z M251.227,403.124c-4.898,5.306-12.587,4.663-12.587,9.595c0,4.933,9.222,6.139,16.443,6.139
				c7.221,0,22.692-1.915,22.692-6.848C277.775,407.078,261.373,392.132,251.227,403.124z M399.525,367.755
				c-2.083-7.313-8.395,1.348-16.013-6.861c-3.423-3.689-9.816,1.569-11.551,3.124c-1.255-2.032-2.934-3.606-7.384-3.31
				c-6.826,0.456-11.103,5.983-11.103,10.903s5.547,8.938,12.388,8.908c10.15-0.044,16.366-1.994,18.813-4.1
				C388.911,375.894,401.257,373.831,399.525,367.755z M360.611,388.188c-5.434,0-9.839,3.204-9.839,7.157
				c0,3.954,4.405,7.158,9.839,7.158c5.435,0,9.84-3.204,9.84-7.158C370.451,391.392,366.046,388.188,360.611,388.188z"/>
		</g>
	</g>
	<g id="&#x424;&#x438;&#x433;&#x443;&#x440;&#x430;_249">
		<g>
			<path style="fill-rule:evenodd;clip-rule:evenodd;fill:#FBA150;" d="M302.972,390.314c-5.544,0-10.038,4.316-10.038,9.641
				c0,10.903-6.693,8.454-10.018,15.224c-1.92,3.911,5.785,7.89,12.92,7.89c7.136,0,12.92-3.532,12.92-7.89
				c0-2.263-1.568-4.297-4.066-5.735c4.725-0.783,8.321-4.729,8.321-9.488C313.011,394.631,308.516,390.314,302.972,390.314z
				 M259.05,401.04c-4.737,0-8.576,2.392-8.576,5.341c0,2.95,3.839,5.341,8.576,5.341c4.736,0,8.576-2.391,8.576-5.341
				C267.626,403.432,263.786,401.04,259.05,401.04z M218.961,418.813c-3.77,0-6.825,1.587-6.825,3.546
				c0,1.958,3.056,3.545,6.825,3.545s6.826-1.587,6.826-3.545C225.787,420.4,222.73,418.813,218.961,418.813z M332.024,393.328
				c-3.206,0-5.806,2.689-5.806,6.006s2.6,6.006,5.806,6.006s5.806-2.689,5.806-6.006S335.23,393.328,332.024,393.328z
				 M363.848,360.31c-4.039,0-7.313,3.096-7.313,6.914s3.274,6.914,7.313,6.914c4.038,0,7.313-3.096,7.313-6.914
				S367.886,360.31,363.848,360.31z M357.465,390.005c-2.864,0-5.186,1.845-5.186,4.121s2.321,4.122,5.186,4.122
				s5.186-1.846,5.186-4.122S360.329,390.005,357.465,390.005z"/>
		</g>
	</g>
	<g id="&#x417;&#x430;&#x43B;&#x438;&#x432;&#x43A;&#x430;_&#x446;&#x432;&#x435;&#x442;&#x43E;&#x43C;_155">
		<g>
			<path style="fill-rule:evenodd;clip-rule:evenodd;fill:#97401E;" d="M336.554,390.121c-0.823-0.106-1.62-0.162-2.37-0.162
				c-7.947,0-10.072,5.892-11.342,9.411c-0.26,0.722-0.619,1.718-0.887,2.282c-0.279-0.7-0.578-1.77-0.799-2.557
				c-1.381-4.934-3.693-13.191-14.928-13.191c-0.484,0-0.989,0.016-1.511,0.049c-12.77,0.806-16.522,12.385-16.835,19.396
				c-2.758,2.748-9.066,9.931-5.943,15.436c2.73,4.813,7.996,4.813,13.57,4.813l4.897-0.017c1.53,0,3.875,0.01,6.567,0.101
				c0.537,0.019,1.058,0.026,1.561,0.026c10.178,0,14.25-3.696,16.945-6.143c2.073-1.882,2.625-2.209,4.351-1.872
				c0.663,0.127,1.337,0.192,2,0.192c0,0,0,0,0.001,0c7.484,0,13.039-8.137,13.531-15.735
				C345.789,395.596,342.33,390.874,336.554,390.121z M339.701,401.784c-0.311,4.823-3.818,10.43-7.87,10.43
				c-0.304,0-0.615-0.031-0.927-0.091c-0.708-0.137-1.396-0.206-2.044-0.206c-3.394,0-5.412,1.833-7.193,3.449
				c-2.545,2.312-5.499,4.965-14.501,4.646c-2.779-0.093-5.188-0.104-6.759-0.104l-4.897,0.017c-6.057,0-7.751-0.381-8.636-1.94
				c-0.841-1.482,2.399-6.229,5.749-9.323l0.934-0.862l-0.021-1.269c-0.009-0.578-0.091-14.182,11.539-14.916
				c0.397-0.025,0.783-0.037,1.153-0.037c6.449,0,7.935,3.581,9.465,9.047c0.887,3.166,1.99,7.106,6.02,7.106l0.219-0.006
				c3.986-0.164,5.293-3.786,6.247-6.431c1.304-3.616,2.226-5.663,6.005-5.663c0.504,0,1.056,0.039,1.636,0.115
				C339.322,396.202,339.863,399.281,339.701,401.784z M220.385,415.396c-7.618,0-13.584,4.448-13.584,10.127
				s5.967,10.128,13.584,10.128s13.584-4.449,13.584-10.128S228.002,415.396,220.385,415.396z M220.385,429.979
				c-4.662,0-7.911-2.348-7.911-4.455c0-2.106,3.249-4.454,7.911-4.454s7.911,2.348,7.911,4.454
				C228.296,427.631,225.047,429.979,220.385,429.979z M401.928,366.797c-1.638-5.747-5.964-5.385-8.55-5.173
				c-2.614,0.22-5.084,0.424-8.114-2.841c-1.285-1.387-2.979-2.145-4.897-2.191c-3.044-0.059-6.164,1.705-8.341,3.283
				c-1.454-1.273-3.525-2.221-6.73-2.221c-0.39,0-0.801,0.013-1.233,0.042c-8.493,0.567-13.749,7.57-13.749,13.733
				c0,6.477,6.795,11.745,15.146,11.745h0.09c9.081-0.04,16.088-1.597,19.826-4.193c4.28-0.561,12.617-2.185,15.624-6.526
				C402.177,370.755,402.497,368.799,401.928,366.797z M365.524,377.502l-0.065,2.836v-2.836c-5.136,0-9.474-2.781-9.474-6.072
				c0-3.61,3.232-7.724,8.456-8.072c0.299-0.021,0.583-0.03,0.854-0.03c2.878,0,3.396,0.952,4.646,3.25
				c1.497,2.749,3.547,6.515,10.255,7.441c0.812,0.112,1.417,0.265,1.852,0.411C380.319,375.553,375.509,377.457,365.524,377.502z
				 M396.336,369.225c-1.049,1.516-4.601,2.733-8.206,3.507c-0.553-1.604-2.242-3.654-7.158-4.334
				c-3.496-0.481-4.58-1.902-5.688-3.882c1.65-1.21,3.597-2.288,4.943-2.253c0.449,0.011,0.669,0.153,0.879,0.379
				c4.905,5.287,9.619,4.894,12.74,4.636c0.745-0.063,1.871-0.153,2.134-0.021c0.002,0.002,0.237,0.208,0.49,1.094
				C396.574,368.714,396.541,368.927,396.336,369.225z M259.613,396.159c-4.13,0-7.864,1.681-10.798,4.859
				c-1.775,1.924-4.088,2.924-6.325,3.891c-3.125,1.351-7.014,3.03-7.014,7.629c0,4.094,3.345,8.975,19.28,8.975
				c0.255,0,25.529-0.11,25.529-9.685C280.285,406.35,269.66,396.159,259.613,396.159z M254.756,415.84
				c-9.282,0-13.606-1.971-13.606-3.302c0-0.707,0.671-1.16,3.591-2.422c2.519-1.088,5.653-2.444,8.244-5.25
				c1.884-2.04,4.053-3.033,6.629-3.033c7.068,0,14.537,7.562,14.983,9.897C273.381,413.549,263.727,415.84,254.756,415.84z
				 M360.285,385.169c-7.108,0-12.676,4.391-12.676,9.995c0,5.604,5.567,9.994,12.676,9.994c7.107,0,12.676-4.391,12.676-9.994
				C372.961,389.56,367.393,385.169,360.285,385.169z M360.285,399.485c-4.128,0-7.003-2.277-7.003-4.321
				c0-2.045,2.875-4.321,7.003-4.321c4.127,0,7.002,2.276,7.002,4.321C367.287,397.208,364.412,399.485,360.285,399.485z"/>
		</g>
	</g>
</g>
</svg>
