<?xml version="1.0" encoding="iso-8859-1"?>
<!-- Generator: Adobe Illustrator 15.0.0, SVG Export Plug-In . SVG Version: 6.00 Build 0)  -->
<!DOCTYPE svg PUBLIC "-//W3C//DTD SVG 1.1//EN" "http://www.w3.org/Graphics/SVG/1.1/DTD/svg11.dtd" [
	<!ENTITY ns_extend "http://ns.adobe.com/Extensibility/1.0/">
	<!ENTITY ns_ai "http://ns.adobe.com/AdobeIllustrator/10.0/">
	<!ENTITY ns_graphs "http://ns.adobe.com/Graphs/1.0/">
	<!ENTITY ns_vars "http://ns.adobe.com/Variables/1.0/">
	<!ENTITY ns_imrep "http://ns.adobe.com/ImageReplacement/1.0/">
	<!ENTITY ns_sfw "http://ns.adobe.com/SaveForWeb/1.0/">
	<!ENTITY ns_custom "http://ns.adobe.com/GenericCustomNamespace/1.0/">
	<!ENTITY ns_adobe_xpath "http://ns.adobe.com/XPath/1.0/">
]>
<svg version="1.1" xmlns:x="&ns_extend;" xmlns:i="&ns_ai;" xmlns:graph="&ns_graphs;"
	 xmlns="http://www.w3.org/2000/svg" xmlns:xlink="http://www.w3.org/1999/xlink" x="0px" y="0px" width="512px" height="512px"
	 viewBox="0 0 512 512" style="enable-background:new 0 0 512 512;" xml:space="preserve">
<metadata>
	<sfw  xmlns="&ns_sfw;">
		<slices></slices>
		<sliceSourceBounds  height="512" width="512" x="94" y="94" bottomLeftOrigin="true"></sliceSourceBounds>
	</sfw>
</metadata>
<g id="&#x418;&#x437;&#x43E;&#x431;&#x440;&#x430;&#x436;&#x435;&#x43D;&#x438;&#x435;_xA0_17_1_">
	<g id="&#x417;&#x430;&#x43B;&#x438;&#x432;&#x43A;&#x430;_&#x446;&#x432;&#x435;&#x442;&#x43E;&#x43C;_1">
		<g>
			<rect x="3.699" y="4.439" style="fill-rule:evenodd;clip-rule:evenodd;fill:#B17D7B;" width="503.121" height="503.121"/>
		</g>
	</g>
	<g id="&#x417;&#x430;&#x43B;&#x438;&#x432;&#x43A;&#x430;_&#x446;&#x432;&#x435;&#x442;&#x43E;&#x43C;_5">
		<g>
			<path style="fill-rule:evenodd;clip-rule:evenodd;fill:#F3D4C3;" d="M484.624,25.156l20.717-20.717H3.699l20.717,20.717H484.624z
				 M24.416,486.844L3.699,507.561h501.642l-20.717-20.717H24.416z"/>
		</g>
	</g>
	
		<g id="&#x417;&#x430;&#x43B;&#x438;&#x432;&#x43A;&#x430;_&#x446;&#x432;&#x435;&#x442;&#x43E;&#x43C;_1_&#x43A;&#x43E;&#x43F;&#x438;&#x44F;_2">
		<g>
			<radialGradient id="SVGID_1_" cx="256.7402" cy="256" r="228.0762" gradientUnits="userSpaceOnUse">
				<stop  offset="0" style="stop-color:#95584F"/>
				<stop  offset="0.2" style="stop-color:#95584F"/>
				<stop  offset="0.4182" style="stop-color:#91524C"/>
				<stop  offset="0.6121" style="stop-color:#7B3F3C"/>
				<stop  offset="0.7636" style="stop-color:#5A292A"/>
				<stop  offset="0.897" style="stop-color:#3D1B1D"/>
				<stop  offset="1" style="stop-color:#2D1316"/>
			</radialGradient>
			<polygon style="fill-rule:evenodd;clip-rule:evenodd;fill:url(#SVGID_1_);" points="432.765,27.924 78.856,27.924 28.664,78.116 
				28.664,435.769 76.972,484.076 433.367,484.076 484.816,432.627 484.816,79.976 			"/>
		</g>
	</g>
	
		<g id="&#x417;&#x430;&#x43B;&#x438;&#x432;&#x43A;&#x430;_&#x446;&#x432;&#x435;&#x442;&#x43E;&#x43C;_1_&#x43A;&#x43E;&#x43F;&#x438;&#x44F;">
		<g>
			<path style="fill-rule:evenodd;clip-rule:evenodd;fill:#F2D2C0;" d="M25.109,24.37v463.26h463.26V24.37H25.109z M466.659,418.566
				l-47.353,47.353H91.283l-44.462-44.462V92.277l46.196-46.196h325.734l47.908,47.907V418.566z"/>
		</g>
	</g>
	<g id="&#x424;&#x438;&#x433;&#x443;&#x440;&#x430;_3">
		<g>
			<path style="fill-rule:evenodd;clip-rule:evenodd;fill:#A18180;" d="M429.873,25.156l-344.047-1.48l-62.15,62.891v342.566
				l59.931,59.19l344.046-0.739l59.931-59.191V84.347L429.873,25.156z M477.226,423.954l-56.231,54.751H91.006l-56.231-54.751
				V88.046l54.012-54.012h334.428l54.751,56.231L477.226,423.954z"/>
		</g>
	</g>
	<g id="&#x417;&#x430;&#x43B;&#x438;&#x432;&#x43A;&#x430;_&#x446;&#x432;&#x435;&#x442;&#x43E;&#x43C;_6">
		<g>
			<path style="fill-rule:evenodd;clip-rule:evenodd;fill:#C7907F;" d="M23.676,86.566l62.52-62.752l-62.52-0.139V86.566z
				 M487.584,23.63l-62.521,0.139l62.521,62.752V23.63z M22.196,488.37l62.521-0.139l-62.521-62.752V488.37z M425.803,488.971
				l62.521,0.139v-62.89L425.803,488.971z"/>
		</g>
	</g>
	
		<g id="&#x417;&#x430;&#x43B;&#x438;&#x432;&#x43A;&#x430;_&#x446;&#x432;&#x435;&#x442;&#x43E;&#x43C;_6_&#x43A;&#x43E;&#x43F;&#x438;&#x44F;">
		<g>
			<path style="fill-rule:evenodd;clip-rule:evenodd;fill:#FDECE7;" d="M27.964,485.886l56.753,2.346L55.27,458.579L27.964,485.886z
				 M54.694,55.434l31.502-31.619l-59.314,3.562L54.694,55.434z M485.117,26.582l-60.054-2.813l31.376,31.491L485.117,26.582z
				 M425.803,488.971l59.314-3.113l-28.158-28.158L425.803,488.971z"/>
		</g>
	</g>
	<g id="&#x424;&#x438;&#x433;&#x443;&#x440;&#x430;_1">
		<g>
			<path style="fill-rule:evenodd;clip-rule:evenodd;fill:#C7907F;" d="M34.774,487.769l0.093-9.156h-8.417L34.774,487.769z
				 M477.04,477.873l0.093,9.155l8.323-9.155H477.04z M476.393,25.804l-0.092,9.156h8.416L476.393,25.804z M26.451,34.96h8.417
				l-0.093-9.156L26.451,34.96z"/>
		</g>
	</g>
	<g id="&#x424;&#x438;&#x433;&#x443;&#x440;&#x430;_2">
		<g>
			<path style="fill-rule:evenodd;clip-rule:evenodd;fill:#FDECE7;" d="M22.597,480.813L9.026,497.72l-1.627,10.285l22.418-0.296
				l0.532-18.644l-3.492-6.957L22.597,480.813z M508.448,495.817l-18.855-14.581l-4.261,4.043l-3.068,4.209l2.646,16.529
				l23.688,1.353L508.448,495.817z M21.002,31.648l4.26-1.295l3.492-6.956L28.222,4.754L5.803,4.458l1.628,10.284L21.002,31.648z
				 M487.997,31.226l18.856-14.581l0.147-11.553l-23.687,1.353l-2.646,16.53l3.069,4.208L487.997,31.226z"/>
		</g>
	</g>
	<g id="&#x417;&#x430;&#x43B;&#x438;&#x432;&#x43A;&#x430;_&#x446;&#x432;&#x435;&#x442;&#x43E;&#x43C;_2">
		<g>
			<path style="fill-rule:evenodd;clip-rule:evenodd;fill:#2F181B;" d="M0,0v512h512V0H0z M503.121,503.121H8.878V8.879h494.243
				V503.121z"/>
		</g>
	</g>
	<g id="&#x417;&#x430;&#x43B;&#x438;&#x432;&#x43A;&#x430;_&#x446;&#x432;&#x435;&#x442;&#x43E;&#x43C;_3">
		<g>
			<path style="fill-rule:evenodd;clip-rule:evenodd;fill:#40292E;" d="M482.33,20.67H29.346l-9.369,9.369v397.468
				c-0.119,0.585-0.119,1.188,0,1.771v53.925l9.606,9.605h453.025l9.507-9.507V30.455L482.33,20.67z M28.855,34.183l4.633-4.634
				h40.974L28.855,75.156V34.183z M33.726,483.931l-4.871-4.871v-39.857l44.728,44.729H33.726z M483.237,479.158l-4.772,4.772
				H437.63l45.607-45.607V479.158z M483.237,425.769l-58.162,58.162H86.139l-57.283-57.283V87.711l58.162-58.162h338.058
				l58.162,58.162V425.769z M483.237,75.156L437.63,29.549h40.558l5.05,5.05V75.156z"/>
		</g>
	</g>
	
		<g id="&#x417;&#x430;&#x43B;&#x438;&#x432;&#x43A;&#x430;_&#x446;&#x432;&#x435;&#x442;&#x43E;&#x43C;_4_&#x43A;&#x43E;&#x43F;&#x438;&#x44F;" style="opacity:0.502;">
		<g>
			<path style="fill-rule:evenodd;clip-rule:evenodd;fill:#876867;" d="M465.59,92.913l-47.243-47.244
				c-0.685-0.685-1.612-1.068-2.579-1.068H94.545c-0.968,0-1.896,0.384-2.58,1.068L46.409,91.227
				c-0.684,0.684-1.069,1.611-1.069,2.579v324.619c0,0.968,0.385,1.896,1.069,2.579l43.847,43.847
				c0.684,0.684,1.612,1.068,2.579,1.068h323.479c0.968,0,1.896-0.385,2.579-1.068l46.696-46.696
				c0.685-0.685,1.069-1.612,1.069-2.58V95.493C466.659,94.525,466.274,93.598,465.59,92.913z M459.363,414.063l-44.56,44.56H94.346
				l-41.709-41.709V95.316l43.419-43.419h318.201l45.106,45.106V414.063z"/>
		</g>
	</g>
	<g id="&#x417;&#x430;&#x43B;&#x438;&#x432;&#x43A;&#x430;_&#x446;&#x432;&#x435;&#x442;&#x43E;&#x43C;_4">
		<g>
			<path style="fill-rule:evenodd;clip-rule:evenodd;fill:#40292E;" d="M468.534,90.633l-47.907-47.907
				c-0.693-0.694-1.635-1.084-2.615-1.084H92.277c-0.981,0-1.922,0.39-2.616,1.084L43.465,88.922
				c-0.693,0.693-1.083,1.635-1.083,2.615v329.18c0,0.981,0.39,1.922,1.083,2.615l44.463,44.463
				c0.694,0.693,1.634,1.084,2.615,1.084h328.023c0.981,0,1.922-0.391,2.615-1.084l47.353-47.353
				c0.694-0.694,1.084-1.635,1.084-2.616V93.248C469.618,92.268,469.229,91.326,468.534,90.633z M462.22,416.295l-45.186,45.185
				H92.075L49.78,419.185V93.07l44.029-44.03h322.67l45.74,45.741V416.295z"/>
		</g>
	</g>
</g>
<g id="&#x418;&#x437;&#x43E;&#x431;&#x440;&#x430;&#x436;&#x435;&#x43D;&#x438;&#x435;_xA0_732_1_">
	<g id="&#x424;&#x438;&#x433;&#x443;&#x440;&#x430;_253_&#x43A;&#x43E;&#x43F;&#x438;&#x44F;_5" style="opacity:0.502;">
		<g>
			<path style="fill-rule:evenodd;clip-rule:evenodd;fill:#2D1316;" d="M413.777,254.828c-0.507-0.332-12.645-8.095-37.946-3.431
				c-3.211,0.593-6.436,1.391-9.622,2.318c0.592-3.576,1-7.913,0.609-12.131c-0.759-8.213-3.475-17.212-4.522-20.459
				c0.562-2.307,1.008-6.631-2.254-9.837c-3.633-3.571-9.772-6.441-13.379-7.929c-0.751-4.121-2.607-12.514-6.388-20.646
				c-3.545-7.632-6.467-11.843-10.025-16.413c0.25-0.525,0.444-1.064,0.592-1.592c3.973-1.204,9.879-3.784,13.166-8.978
				c1.514-2.392,2.275-5.259,2.612-8.043c4.174,3.512,8.313,7.721,9.488,11.239c0.788,2.363,0.019,5.64-0.725,8.804
				c-1.051,4.473-2.24,9.534,1.125,13.439c2.168,2.513,5.619,3.898,10.557,4.235c3.358,0.229,6.4-0.929,8.605-3.26
				c6.919-7.315,3.716-24.633,1.047-32.788c-3.118-9.527-10.146-18.199-16.354-25.862c-2.94-3.628-5.718-7.058-7.906-10.322
				c-6.87-10.256-18.083-10.5-24.103-10.631c-1.031-0.022-2.445-0.054-2.759-0.111c-0.835-0.272-1.543-0.846-2.726-1.834
				c-1.604-1.342-3.803-3.182-7.342-4.419c-3.417-1.192-5.806-0.551-7.088-0.206c-0.145,0.039-0.287,0.089-0.419,0.112
				c-0.001-0.001-0.271-0.006-0.942-0.225c-0.93-0.688-2.957-3.183-4.453-5.024c-5.854-7.207-14.71-18.118-26.402-14.288
				c-9.77,3.201-18.834,10.489-28.402,18.182c-7.019,5.644-14.26,11.465-22.443,16.34c-11.558,6.886-14.611,15.896-15.409,20.543
				c-4.446,2.109-12.612,6.301-16.15,10.156c-2.586,2.818-6.279,9.744-12.565,21.707c-3.811,7.252-8.12,15.452-12.451,22.966
				c-1.864,3.233-3.587,4.774-4.845,5.898c-1.446,1.294-4.137,3.699-2.649,7.314c0.727,1.767,1.657,3.72,2.512,5.428
				c-1.815,0.616-3.759,1.344-5.29,2.085c-3.223,1.562-6.864,8.548-10.812,20.731c-2.758,8.513-5.535,19.787-3.143,25.301
				c0.107,0.248,0.205,0.447,0.311,0.686c-4.233-1.432-8.578-2.65-12.891-3.492c-24.57-4.796-36.35,2.744-36.839,3.066
				c-1.347,0.89-2.078,2.319-1.947,3.806c0.129,1.486,1.103,2.834,2.592,3.59c0.125,0.063,12.626,6.487,19.058,16.798
				c2.393,3.839,3.964,8.166,5.625,12.743c2.744,7.559,5.575,15.36,12.478,21.106c1.426,1.188,3.053,2.142,4.772,2.946
				c-0.752,0.787-1.632,1.58-2.652,2.294c-5.016,3.51-12.717,5.991-12.794,6.016c-1.235,0.395-2.071,1.384-2.135,2.525
				s0.654,2.227,1.836,2.77c0.325,0.15,8.04,3.657,17.424,3.604c4.494-0.03,9.274-1.131,12.652-2.11
				c-0.079,0.86-0.269,1.786-0.649,2.665c-1.709,3.936-5.538,7.705-5.574,7.74c-0.896,0.872-1.079,2.134-0.464,3.196
				c0.582,1.005,1.769,1.642,3.05,1.653c0.074,0,0.146,0,0.221-0.004c0.287-0.015,7.09-0.352,12.806-2.193
				c2.315-0.746,4.237-1.751,5.813-2.759c0.729,1.641,1.945,3.531,3.473,5.664c-1.464,0.236-3.901,0.499-7.594,0.479
				c-1.006-0.004-2.032-0.02-3.062-0.033c-10.109-0.128-21.542-0.277-29.955,6.537c-10.583,8.574-11.506,16.114-12.318,22.752
				c-0.357,2.917-0.694,5.672-1.878,8.396c-7.38,16.994-12.734,30.314-12.788,30.446c-0.796,1.983,0.258,4.209,2.471,5.224
				c0.977,0.449,24.28,11.025,55.756,16.185c28.646,4.697,60.094,6.892,90.071,7.321c35.74,0.512,69.42-1.485,93.695-4.747
				c32.223-4.331,56.243-14.418,57.253-14.847c2.289-0.972,3.383-3.206,2.568-5.242c-0.054-0.136-5.532-13.804-13.079-31.231
				c-1.209-2.792-1.547-5.594-1.904-8.562c-0.813-6.752-1.736-14.419-12.584-23.323c-8.604-7.064-20.307-7.13-30.631-7.187
				c-1.051-0.005-2.095-0.009-3.122-0.024c-3.782-0.049-6.272-0.362-7.735-0.62c1.563-2.125,2.809-4.013,3.559-5.655
				c1.602,1.045,3.557,2.095,5.912,2.89c5.827,1.967,12.778,2.434,13.071,2.453c0.074,0.005,0.15,0.008,0.224,0.008
				c1.309,0.013,2.524-0.609,3.124-1.613c0.633-1.062,0.452-2.342-0.46-3.241c-0.038-0.039-3.942-3.919-5.674-7.929
				c-0.386-0.895-0.577-1.833-0.654-2.704c3.449,1.048,8.335,2.243,12.937,2.352c9.627,0.227,17.563-3.207,17.897-3.354
				c1.217-0.531,1.96-1.618,1.897-2.777c-0.061-1.16-0.918-2.177-2.186-2.597c-0.08-0.026-7.983-2.666-13.118-6.301
				c-1.043-0.738-1.942-1.556-2.711-2.364c1.766-0.788,3.437-1.729,4.904-2.91c7.107-5.721,10.046-13.591,12.894-21.221
				c1.725-4.621,3.357-8.993,5.834-12.859c6.618-10.326,19.606-16.805,19.729-16.865c1.542-0.755,2.554-2.116,2.694-3.627
				C415.918,257.206,415.167,255.745,413.777,254.828z"/>
		</g>
	</g>
	<g id="&#x424;&#x438;&#x433;&#x443;&#x440;&#x430;_253_&#x43A;&#x43E;&#x43F;&#x438;&#x44F;_3">
		<g>
			<path style="fill-rule:evenodd;clip-rule:evenodd;fill:#91B343;" d="M369.212,381.014c-3.794-9.853,0.471-18.426-11.578-29.774
				c-6.704-6.313-16.591-5.569-25.374-5.608c-5.447-0.024-10.023-0.783-11.737-1.107c-2.267,1.799-5.089,3.897-8.026,5.73
				c-5.535,3.454-11.464,5.278-14.791,7.74c-20.629,15.266-44.226,35.625-44.226,35.625s-20.149-19.889-40.855-35.686
				c-2.783-2.123-10.841-5.158-13.808-7.005c-3.263-2.031-6.473-4.233-9.104-6.107c-2.272,0.354-5.873,0.791-9.983,0.81
				c-8.783,0.039-18.67-0.705-25.374,5.608c-12.049,11.349-7.785,19.922-11.578,29.774c-6.699,17.397-11.51,30.862-11.51,30.862
				s19.987,10.529,46.827,15.283c50.514,8.947,114.338,7.345,155.801,0c26.84-4.754,46.827-15.283,46.827-15.283
				S375.911,398.411,369.212,381.014z"/>
		</g>
	</g>
	<g id="&#x424;&#x438;&#x433;&#x443;&#x440;&#x430;_253_&#x43A;&#x43E;&#x43F;&#x438;&#x44F;_4">
		<g>
			<path style="fill-rule:evenodd;clip-rule:evenodd;fill:#35764E;" d="M369.212,381.014c-3.794-9.853,0.471-18.426-11.578-29.774
				c-6.704-6.313-16.591-5.569-25.374-5.608c-5.447-0.024-10.023-0.783-11.737-1.107c-2.267,1.799-5.089,3.897-8.026,5.73
				c-5.535,3.454-11.464,5.278-14.791,7.74c-20.629,15.266-44.226,35.625-44.226,35.625s-20.149-19.889-40.855-35.686
				c-2.783-2.123-10.841-5.158-13.808-7.005c-3.263-2.031-6.473-4.233-9.104-6.107c-2.272,0.354-5.873,0.791-9.983,0.81
				c-8.783,0.039-18.67-0.705-25.374,5.608c-0.754,0.71-1.444,1.409-2.077,2.1c12.018-3.109,21.54-1.996,24.805,3.914
				c12.462,22.559,2.138,20.092,2.769,38.979c0.63,18.888,16.393-6.618,34.13-4.398c37.521,4.696,29.858,21.454,40.729,21.515
				c10.87,0.06,4.61-6.129,20.167-6.627c14.739-0.472,30.773,6.635,37.506,12.426c3.66,3.148,6.796,6.673,9.313,9.895
				c4.223-0.581,8.336-1.197,12.199-1.882c26.84-4.754,46.827-15.283,46.827-15.283S375.911,398.411,369.212,381.014z"/>
		</g>
	</g>
	<g id="&#x424;&#x438;&#x433;&#x443;&#x440;&#x430;_264">
		<g>
			<path style="fill-rule:evenodd;clip-rule:evenodd;fill:#52A297;" d="M336.836,427.01l10.57-4.323l-19.218-32.19L336.836,427.01z
				 M367.104,375.603c0,0-2.269-20.252-9.198-25.431c-13.521-10.105-37.766-6.488-37.766-6.488s-2.923,4.833-8.121,8.368
				c-6.636,4.512-14.58,5.774-14.58,5.774l-43.39,34.292l0.03,41.559l8.768-1.081v-34.893c0,0,10.238-10.07,16.874-15.385
				c6.636-5.315,15.946-13.261,19.788-15.535c18.709-4.391,25.075-12.86,25.075-12.86s19.196-3.439,27.175,6.398
				c4.335,5.347,4.4,13.522,6.831,20.903c5.756,17.477,12.507,35.006,12.507,35.006l9.459-3.634L367.104,375.603z"/>
		</g>
	</g>
	<g id="&#x417;&#x430;&#x43B;&#x438;&#x432;&#x43A;&#x430;_&#x446;&#x432;&#x435;&#x442;&#x43E;&#x43C;_160">
		<g>
			<path style="fill-rule:evenodd;clip-rule:evenodd;fill:#B8D379;" d="M172.375,427.01l8.648-36.514l-19.218,32.19L172.375,427.01z
				 M211.771,357.826c0,0-7.944-1.263-14.58-5.774c-5.198-3.535-8.122-8.368-8.122-8.368s-24.244-3.617-37.765,6.488
				c-6.93,5.179-9.198,25.431-9.198,25.431l-13.453,36.994l9.458,3.634c0,0,6.751-17.529,12.507-35.006
				c2.431-7.381,2.497-15.557,6.832-20.903c7.978-9.838,27.174-6.398,27.174-6.398s6.367,8.47,25.075,12.86
				c3.842,2.274,13.152,10.22,19.789,15.535c6.636,5.314,16.874,15.385,16.874,15.385v34.893l8.768,1.081l0.03-41.559
				L211.771,357.826z"/>
		</g>
	</g>
	<g id="&#x424;&#x438;&#x433;&#x443;&#x440;&#x430;_253_&#x43A;&#x43E;&#x43F;&#x438;&#x44F;_2">
		<g>
			<path style="fill-rule:evenodd;clip-rule:evenodd;fill:#F19F89;" d="M358.617,251.899c-4.848,1.065-9.775,2.834-14.444,4.889
				l-0.01-0.125l-27.394,12.386l0.239-23.943c0,0-28.295-27.403-59.188-26.923c-31.321,0.486-64.076,27.326-64.076,27.326
				l-0.313,23.071l-20.144-9.205c-6.175-3.109-13.124-5.982-19.917-7.476c-19.016-4.18-27.72,2.361-27.72,2.361
				s11.628,6.77,17.575,18.015c5.563,10.521,5.191,24.934,14.124,32.032c6.4,5.086,24.085,3.829,24.085,3.829l3.641,21.313
				l0.138,0.135c0,0,2.118,12.049,9.358,19.175c7.494,7.375,20.12,9.836,20.12,9.836l40.49,33.53l39.419-33.294
				c0,0,11.313-1.817,19.219-9.342c14.592-13.892,11.785-19.814,11.785-19.814l2.668-23.066c0,0,17.172,5.457,26.365-2.302
				c8.719-7.358,8.561-21.512,14.124-32.032c5.946-11.245,17.574-18.015,17.574-18.015S377.633,247.72,358.617,251.899z"/>
		</g>
	</g>
	<g id="&#x424;&#x438;&#x433;&#x443;&#x440;&#x430;_263">
		<g>
			<path style="fill-rule:evenodd;clip-rule:evenodd;fill:#FFCEB6;" d="M244.351,332.003c0,3.383,4.571,6.125,10.209,6.125
				s10.209-2.742,10.209-6.125c0-3.384-4.57-6.126-10.209-6.126S244.351,328.619,244.351,332.003z M256.002,261.317
				c5.116-0.186,5.594-12.7,12.73-17.646c6.685-4.633,19.579-5.476,19.579-5.476s-11.657-8.226-31.202-8.331
				c-19.037-0.103-29.814,6.89-29.814,6.89s10.424,3.497,16.574,8.965C249.49,250.717,251.27,261.489,256.002,261.317z
				 M264.68,299.032c0-5.015-5.676-16.785-9.549-16.785c-3.874,0-9.188,12.071-9.188,17.235c0,5.165,9.549,12.973,9.549,12.973
				S264.68,304.047,264.68,299.032z M303.25,283.838c0,0-8.566,6.521-15.883,6.391c-6.005-0.107-11.021-6.871-11.021-6.871
				l-7.207,9.129c0,0,1.823,4.726,1.579,7.658c-0.235,2.831-0.858,3.632-0.858,3.632s5.884-2.719,12.201-0.117
				c9.393,3.867,18.787,13.81,18.787,13.81s5.046-6.767,5.661-15.381C307.094,293.897,303.25,283.838,303.25,283.838z
				 M241.228,292.486l-7.207-9.129c0,0-5.017,6.764-11.022,6.871c-7.317,0.131-15.883-6.391-15.883-6.391s-3.844,10.06-3.259,18.25
				c0.616,8.614,5.661,15.381,5.661,15.381s9.396-9.942,18.788-13.81c6.317-2.602,12.201,0.117,12.201,0.117
				s-0.622-0.801-0.858-3.632C239.405,297.212,241.228,292.486,241.228,292.486z M255.146,345.726
				c-7.703,0-13.948,4.214-13.948,9.413s6.245,9.414,13.948,9.414c7.704,0,13.948-4.215,13.948-9.414
				S262.85,345.726,255.146,345.726z"/>
		</g>
	</g>
	<g id="&#x424;&#x438;&#x433;&#x443;&#x440;&#x430;_259">
		<g>
			<path style="fill-rule:evenodd;clip-rule:evenodd;fill:#B44D50;" d="M340.203,268.328c-4.156,4.197-9.682,10.816-11.439,16.604
				c-3.383,11.146-0.44,21.486-0.44,21.486s19.375-1.077,15.571-23.081c-2.096-12.122,11.881-3.26,18.538-18.904
				c2.12-4.982,7.269-5.398,7.269-5.398S352.547,255.863,340.203,268.328z M320.294,283.363c-8.84,0.146-3.276-12.797-2.976-20.425
				c0.301-7.627-0.66-18.497-0.66-18.497s-28.667-27.011-58.615-25.97c-32.188,1.118-64.229,28.162-64.229,28.162l-0.06,22.221
				c0,0,0.576,7.907-1.687,13.113c-3.294,7.578-7.673,2.563-8.146,7.19c-0.292,2.861-0.488,5.558-0.62,8.147
				c0.079-3.592-0.255-7.911-1.609-12.373c-1.757-5.788-7.283-12.407-11.438-16.604c-12.344-12.465-29.499-9.293-29.499-9.293
				s5.149,0.416,7.269,5.398c6.657,15.645,20.634,6.782,18.539,18.904c-3.804,22.004,15.571,23.081,15.571,23.081
				s0.762-2.695,1.063-6.806c-0.485,13.69,1.047,24.033,2.21,35.422c0.634,6.212,9.668,15.142,18.745,19.597
				c4.45,2.184,8.051,3.747,11.136,4.802c4.442,3.501,13.984,11.092,16.809,13.916c3.724,3.724,41.779,4.334,46.704-0.591
				s19.271-14.452,19.271-14.452s-22.467,7.717-42.609,7.864c-10.769,0.078-22.764-2.601-31.256-4.98
				c1.083,0.012,2.133-0.06,3.18-0.211c-9.789-10.119-19.842-10.286-19.563-15.781c0.365-7.173,11.936-10.283,11.936-10.283
				l3.693,5.135c0,0,15.677-15.738,31.704-15.621c16.631,0.122,33.215,17.003,33.215,17.003l1.502-10.21
				c0,0,26.124,9.489,17.115,15.194c-9.008,5.705-13.393,12.371-13.393,12.371s17.635-1.936,26.568-15.763
				c8.597-13.308,8.114-30.329,6.313-43.902C325.565,292.257,328.898,283.221,320.294,283.363z M224.413,237.716
				c0,0,15.132-6.47,30.73-7.147c15.811-0.688,32.748,6.066,32.748,6.066l13.273,20.059c0,0-20.341-3.74-27.15-1.754
				c-7.168,2.091-9.553,12.856-19.213,12.863c-7.091,0.006-11.214-12.254-17.292-13.663c-10.268-2.379-22.464,0.361-22.464,0.361
				L224.413,237.716z M310.052,328.91l-48.376-16.899l10.361-11.897c0,0-4.432-1.392-8.611-0.104
				c-2.576,0.795-4.184,4.47-7.207,4.565c-4.036,0.127-5.05-3.318-8.118-4.196c-3.16-0.904-8.314,0.755-8.314,0.755l10.277,10.689
				l-49.613,17.087c0,0-7.28,0.402-7.646-11.217c-0.418-13.272-1.843-16.829,0.469-26.258s12.011-17.267,12.011-17.267
				s10.918-9.104,20.594-8.577c8.452,0.46,15.829,10.56,15.829,10.56s-5.285,12.972,4.805,9.128c0-0.759,1.404-3.907,1.908-6.348
				c0.454-2.194,0.013-3.741,0.013-3.741l13.663-0.21c0,0-0.855,3.265-0.439,5.536c0.439,2.395,2.15,3.802,2.15,3.802
				s3.392,1.096,5.418,0.143c2.057-0.968,0.378-8.91,0.378-8.91s5.563-12.063,14.273-10.508
				c11.021,1.968,16.835,7.564,22.271,10.688c5.435,3.123,10.072,12.719,11.63,20.951
				C320.766,312.474,310.052,328.91,310.052,328.91z"/>
		</g>
	</g>
	<g id="&#x424;&#x438;&#x433;&#x443;&#x440;&#x430;_260">
		<g>
			<path style="fill-rule:evenodd;clip-rule:evenodd;fill:#E1C5AE;" d="M223.902,265.591c-10.645,0.677-20.87,12.632-20.87,12.632
				s8.621,12.679,18.77,12.033c9.907-0.63,21.348-14.585,21.348-14.585S233.229,264.997,223.902,265.591z M283.49,265.444
				c-7.863-0.387-14.096,9.866-14.096,9.866s9.304,14.405,19.85,14.891c8.854,0.408,19.246-13.089,19.246-13.089
				S297.987,266.156,283.49,265.444z"/>
		</g>
	</g>
	<g id="&#x424;&#x438;&#x433;&#x443;&#x440;&#x430;_261">
		<g>
			<path style="fill-rule:evenodd;clip-rule:evenodd;fill:#35764E;" d="M224.653,265.191c-5.174,0-9.369,3.206-9.369,7.161
				s4.194,7.162,9.369,7.162s9.369-3.207,9.369-7.162S229.827,265.191,224.653,265.191z M286.57,264.38
				c-4.942,0-8.949,3.389-8.949,7.567s4.007,7.567,8.949,7.567c4.941,0,8.947-3.389,8.947-7.567S291.512,264.38,286.57,264.38z"/>
		</g>
	</g>
	<g id="&#x424;&#x438;&#x433;&#x443;&#x440;&#x430;_262" style="opacity:0.502;">
		<g>
			<path style="fill-rule:evenodd;clip-rule:evenodd;fill:#743031;" d="M223.959,264.927c-9.753,0.217-20.686,13.146-20.686,13.146
				s12.039-3.856,22.072-4.201c8.646-0.297,15.493,2.909,15.493,2.909S240.648,264.558,223.959,264.927z M286.919,264.93
				c-9.88-1.032-17.825,10.261-17.825,10.261s9.247-2.747,18.959-2.019c9.504,0.713,19.477,4.901,19.477,4.901
				S300.205,266.317,286.919,264.93z"/>
		</g>
	</g>
	<g id="&#x424;&#x438;&#x433;&#x443;&#x440;&#x430;_258">
		<g>
			<path style="fill-rule:evenodd;clip-rule:evenodd;fill:#FFB882;" d="M162.916,306.899c0,0-1.986,3.521-5.77,7.187
				c-3.901,3.779-10.175,6.176-10.175,6.176s4.698,2.725,11.16,3c5.799,0.248,13.433-1.949,13.433-1.949s0.719,2.876-0.017,6.242
				c-0.924,4.223-3.346,9.132-3.346,9.132s6.578-0.991,11.148-3.022c4.046-1.798,5.097-6.346,5.097-6.346l-0.871-20.899
				L162.916,306.899z M244.111,244.922l-24.203-15.494l-15.464,33.962c0,0,15.625-14.112,20.189-16.244
				C229.198,245.013,244.111,244.922,244.111,244.922z M177.329,259.336l16.815,11.53l-0.961-27.385L177.329,259.336z
				 M287.657,247.754c5.804,2.833,20.322,16.056,20.322,16.056l-16.425-34.531l-24.623,16.064
				C266.932,245.343,282.064,245.025,287.657,247.754z M347.887,306.899h-19.698l-1.922,21.47c0,0,4.899,4.115,8.745,5.678
				c3.841,1.561,7.109,2.64,7.109,2.64s-1.815-5.196-2.662-9.071c-0.834-3.812-0.701-6.303-0.701-6.303s8.023,2.666,14.598,2.272
				c5.634-0.337,9.965-3.743,9.965-3.743L347.887,306.899z M316.658,243.961v26.905l17.775-10.569L316.658,243.961z
				 M246.417,306.065c-2.423-2.906-7.11-3.971-7.11-3.971s-10.72-3.544-19.068,3.381c-4.792,3.975-9.582,10.02-13.438,15.578
				c-5.87,8.462-9.772,16.113-9.772,16.113s8.523-4.047,15.801-7.326c4.776-2.151,9.393-4.024,9.393-4.024l-2.132,10.39
				c0,0,10.376-8.689,19.63-14.521c8.221-5.181,15.442-7.579,15.442-7.579S251.383,312.025,246.417,306.065z M291.178,305.57
				c-7.531-6.308-17.939-3.926-17.939-3.926s-4.563,0.974-7.238,3.063c-4.51,3.523-9.878,8.918-9.878,8.918
				s12.266,5.538,18.541,10.345c11.186,8.567,15.811,12.896,15.811,12.896l-1.772-11.561c0,0,4.975,2.067,9.671,4.236
				c7.136,3.294,15.042,7.174,15.042,7.174s-1.561-4.764-6.125-11.931C303.354,318.605,296.846,310.315,291.178,305.57z"/>
		</g>
	</g>
	<g id="&#x424;&#x438;&#x433;&#x443;&#x440;&#x430;_258_&#x43A;&#x43E;&#x43F;&#x438;&#x44F;">
		<g>
			<path style="fill-rule:evenodd;clip-rule:evenodd;fill:#E08562;" d="M244.111,244.922l-19.548-4.624l-20.118,23.092
				c0,0,16.766-15.163,21.331-17.296C230.339,243.962,244.111,244.922,244.111,244.922z M160.874,307.26l13.542,13.362l10.029,6.696
				l-0.871-20.899L160.874,307.26z M179.491,257.414l14.653,13.452l-8.648-18.827L179.491,257.414z M246.417,306.065
				c-2.423-2.906-7.11-3.971-7.11-3.971s-10.72-3.544-19.068,3.381c2.932-2.433,11.603-1.454,14.335,5.051
				c9.378-0.158,9.109,8.576,9.109,8.576l11.479-4.996C255.161,314.106,251.383,312.025,246.417,306.065z M326.356,253.33
				l-9.698,17.536l17.775-10.569L326.356,253.33z M328.188,306.899l-1.922,21.47l11.05-10.329l10.57-11.141H328.188z
				 M266.932,245.343c0,0,15.133-0.317,20.726,2.411c5.804,2.833,20.322,16.056,20.322,16.056l-20.329-24.503L266.932,245.343z
				 M273.238,301.645c0,0-4.563,0.974-7.238,3.063c-4.51,3.523-9.878,8.918-9.878,8.918l18.541,10.345c0,0-7.003-9.856,3.345-11.479
				c-3.426-9.359,13.17-6.922,13.17-6.922s-3.91-2.283-8.664-3.323C278.334,301.332,273.238,301.645,273.238,301.645z"/>
		</g>
	</g>
	<g id="&#x424;&#x438;&#x433;&#x443;&#x440;&#x430;_253_&#x43A;&#x43E;&#x43F;&#x438;&#x44F;">
		<g>
			<path style="fill-rule:evenodd;clip-rule:evenodd;fill:#705F99;" d="M352.729,152.62c-3.653-12.118-13.888-22.865-19.737-32.613
				c-5.972-9.953-16.484-6.966-19.697-8.167s-4.27-4.212-8.316-5.831c-3.002-1.2-2.944,1.267-7.088-0.415
				c-4.145-1.682-12.312-21.229-21.86-17.746c-12.515,4.564-24.311,20.317-40.567,31.198c-11.301,7.564-11.05,18.257-11.05,18.257
				s-10.78,5.375-14.113,9.459c-3.333,4.084-11.827,24.384-20.585,41.414c-3.554,6.909-7.937,10.072-7.581,12.065
				c1.231,6.906,5.285,6.246,5.285,6.246s-5.345,1.681-8.228,3.272s-12.972,31.649-10.239,39.096
				c2.732,7.447,10.119,10.51,10.119,10.51s37.11-42.03,79.453-41.524c38.21,0.456,76.492,42.464,76.492,42.464l9.157-3.517
				l-0.01-0.125c0,0,2.466-9.392,1.657-17.928c-0.871-9.215-4.18-19.757-4.18-19.757s1.381-4.215-0.722-6.56
				c-3.679-4.104-11.77-7.373-11.77-7.373s-1.36-10.741-5.552-20.809c-3.453-8.296-6.061-11.96-9.943-17.478
				c2.162,0.211,2.043-4.474,2.043-4.474s7.752-1.361,10.835-7.063c2.886-5.337,1.116-15.038,1.116-15.038
				s14.053,10.06,16.725,18.827c2.673,8.769-7.072,20.791,5.495,21.771C356.741,181.318,356.546,165.276,352.729,152.62z"/>
		</g>
	</g>
	<g id="&#x424;&#x438;&#x433;&#x443;&#x440;&#x430;_266">
		<g>
			<path style="fill-rule:evenodd;clip-rule:evenodd;fill:#494373;" d="M342.121,211.771l-25.943-14.413
				c0,0,13.504,16.311,14.945,19.673c1.441,3.363,1.755,15.8-0.533,17.802c-1.911,1.673-15.931-12.188-31.471-18.815
				c-15.697-6.696-34.35-10.972-34.35-10.972s-9.712,1.68-7.032,8.394c-3.14-2.714-6.417-5.744-6.9-6.952
				c-0.961-2.402,26.425-10.57,25.944-12.492s-15.375-10.089-15.375-10.089l-11.53-3.844l12.972,13.452l-22.581,12.973
				l-52.849,20.178l-18.257,21.14l7.207,13.934c0,0,23.079-23.43,45.067-34.303c18.797-9.295,36.77-9.197,41.281-9.001
				c5.118,1.252,20.4,5.414,34.952,13.588c20.856,11.716,36.765,29.716,36.765,29.716s10.219-4.773,10.416-9.157
				C345.506,238.005,342.121,211.771,342.121,211.771z"/>
		</g>
	</g>
	<g id="&#x424;&#x438;&#x433;&#x443;&#x440;&#x430;_267">
		<g>
			<path style="fill-rule:evenodd;clip-rule:evenodd;fill:#494373;" d="M350.741,146.923c-4.072-10.61-14.103-18.26-18.229-22.592
				c-9.608-10.089-14.893-0.48-14.893-0.48s-9.548-8.822-14.916-9.989c-5.674-1.233-7.186,5.185-7.186,5.185
				s2.738,11.02-2.09,16.178c-5.674,6.06-13.764,9.286-13.764,9.286s12.128,11.116,20.956,22.962
				c10.067,13.509,14.597,29.887,14.597,29.887l13.933,7.207c0,0-1.226-9.667-4.476-19.649
				c-3.469-10.654-11.859-21.669-11.859-21.669s10.948-2.888,14.139-8.532c3.053-5.4,0.755-15.01,0.755-15.01
				s12.491,6.727,14.413,18.257c1.922,11.531-2.402,22.101,8.168,21.14C359.43,178.271,356.154,161.022,350.741,146.923z
				 M184.536,193.995l2.883,12.492c0,0,9.635-4.982,19.793-10.44c14.937-8.026,23.927-12.621,23.927-12.621
				s-20.877,3.096-36.315,11.445C190.112,197.42,184.536,193.995,184.536,193.995z M264.582,134.635
				c-2.006,3.326-10.459,8.253-12.631,10.879c-6.233,7.54-9.762,16.292-9.762,16.292s9.799-9.623,16.135-13.965
				c4.232-2.902,9.371-4.105,12.025-8.736c2.676-4.673,1.146-20.539,1.146-20.539S270.115,125.463,264.582,134.635z"/>
		</g>
	</g>
	<g id="&#x424;&#x438;&#x433;&#x443;&#x440;&#x430;_265">
		<g>
			<path style="fill-rule:evenodd;clip-rule:evenodd;fill:#AA8DF1;" d="M176.308,210.751l-9.068,34.651l3.343,3.729l14.433-31.113
				l50.927-34.111c0,0-28.309,8.713-45.686,22.357C184.911,210.461,176.308,210.751,176.308,210.751z M196.499,193.019
				c11.496-16.517,17.883-35.255,21.606-40.54s36.755-24.124,36.755-24.124s-3.619,0.954-8.735,2.404
				c0.117-1.854,1.004-6.522,6.532-12.271c6.556-6.818,18.165-14.37,24.805-19.351c5.347-4.01,14.212-2.671,14.212-2.671
				s-13.728-10.265-17.553-8.151c-10.782,5.956-31.792,21.203-43.302,32.823c-5.108,5.157-5.827,13.035-5.902,16.187
				c-5.653,1.98-10.261,3.907-11.706,5.324c-4.625,4.534-29.157,51.827-29.157,51.827S192.181,199.222,196.499,193.019z
				 M274.802,111.115c-6.076,10.881-1.384,24.266-4.267,27.629s-14.63,7.818-24.099,18.735
				c-10.855,12.515-16.739,27.388-16.739,27.388l12.492-2.883c0,0,3.681-8.916,12.467-18.252
				c7.273-7.727,19.559-15.741,22.605-19.223c6.726-7.688,3.186-12.258,7.688-23.912c3.551-9.189,8.646-18.367,8.646-18.367
				S278.324,104.809,274.802,111.115z M275.785,184.935c-5.291-3.444-7.592-5.112-7.592-5.112l-5.373,0.064l-1.744,3.719
				l14.744,10.39l-24.022,12.012l12.672,15.254l8.548-1.78c0,0-8.484-10.408-7.314-11.369c2.352-1.928,16.423-9.582,18.314-11.894
				C285.909,193.905,281.957,188.953,275.785,184.935z"/>
		</g>
	</g>
	<g id="&#x424;&#x438;&#x433;&#x443;&#x440;&#x430;_268">
		<g>
			<path style="fill-rule:evenodd;clip-rule:evenodd;fill:#4BA5C5;" d="M328.723,204.784c-1.096-4.302-4.174-15.899-7.464-23.875
				c-3.811-9.237-9.405-17.182-9.405-17.182s10.545-3.468,14.605-10.474c5.255-9.069-9.801-30.845-9.801-30.845
				s4.476,14.741,1.922,22.101c-1.482,4.27-9.129-4.324-9.129-4.324s1.262,8.66-1.441,11.051
				c-4.154,3.673-13.934,2.401-13.934,2.401s13.615,15.727,18.916,26.82c5.021,10.51,5.588,18.342,5.588,18.342l10.14,7.375
				c1.517,4.677,5.866,18.732,7.093,29.69c1.942,17.346-7.144,18.666-7.144,18.666s3.997,6.164,10.545,4.181
				c3.091-0.937,5.075-3.467,5.67-9.148c1.43-13.647-1.321-31.546-5.165-37.312C337.268,208.574,330.647,205.593,328.723,204.784z
				 M351.725,149.316c-4.609-10.983-18.732-26.907-18.732-26.907s5.938,13.837,9.596,31.711c1.861,9.092,0.494,19.216,2.416,22.579
				s3.823,4.677,6.972,1.802c2.204-2.013,3.117-10.449,3.117-10.449S355.079,157.307,351.725,149.316z"/>
		</g>
	</g>
	<g id="&#x417;&#x430;&#x43B;&#x438;&#x432;&#x43A;&#x430;_&#x446;&#x432;&#x435;&#x442;&#x43E;&#x43C;_157">
		<g>
			<path style="fill-rule:evenodd;clip-rule:evenodd;fill:#275639;" d="M384.441,409.672c-0.048-0.135-4.905-13.715-11.546-30.962
				c-1.062-2.756-1.394-5.53-1.744-8.467c-0.799-6.67-1.702-14.231-10.906-22.9c-7.292-6.87-17.069-6.828-25.704-6.79
				c-0.88,0.004-1.754,0.01-2.614,0.004c-5.492-0.023-7.83-0.869-7.846-0.869c-0.001,0,0,0,0,0.001
				c-0.423-0.192-0.862-0.29-1.302-0.34l-4.232,6.411c0.436,0.766,1.098,1.411,1.961,1.803c0.591,0.269,3.917,1.608,11.38,1.643
				c0.888,0.004,1.786,0,2.69-0.005c7.686-0.033,14.959-0.063,19.738,4.438c6.919,6.517,7.535,11.668,8.247,17.632
				c0.4,3.335,0.811,6.784,2.261,10.548c4.566,11.857,8.282,21.967,10.154,27.117c-6.103,2.817-19.972,8.633-37.291,12.26
				l-6.329-29.175c-0.337-1.555-1.874-2.545-3.428-2.205c-1.557,0.336-2.543,1.872-2.206,3.427l6.301,29.04
				c-19.469,3.388-46.13,5.74-74.66,5.889v-34.36l43.006-33.512c1.01-0.786,1.34-2.106,0.928-3.248l-9.477,2.602l-37.289,29.058
				l-34.001-28.011l-9.545-2.727c-0.34,1.087-0.019,2.318,0.915,3.087l39.699,32.704v34.409c-24.094-0.129-49.25-1.861-72.342-5.892
				l6.301-29.039c0.337-1.555-0.65-3.091-2.207-3.427c-1.55-0.34-3.091,0.65-3.428,2.205l-6.33,29.175
				c-17.28-3.621-31.175-9.443-37.29-12.263c1.873-5.15,5.587-15.254,10.154-27.114c1.449-3.764,1.861-7.213,2.26-10.548
				c0.713-5.964,1.329-11.115,8.248-17.632c4.778-4.502,12.04-4.474,19.737-4.438c0.905,0.005,1.804,0.012,2.691,0.005
				c7.463-0.034,10.79-1.374,11.38-1.643c0.67-0.305,1.214-0.772,1.639-1.322l-4.066-6.904c-0.351,0.062-0.7,0.151-1.041,0.306
				c-0.023,0.009-2.341,0.89-7.952,0.915c-0.859,0.006-1.735,0-2.614-0.004c-8.635-0.035-18.412-0.079-25.705,6.79
				c-9.204,8.669-10.107,16.23-10.905,22.9c-0.351,2.937-0.683,5.711-1.744,8.467c-6.641,17.247-11.498,30.827-11.546,30.962
				c-0.725,2.026,0.152,4.277,2.057,5.281c0.84,0.443,20.896,10.898,48.087,15.714c24.699,4.374,51.767,6.152,77.496,6.152
				c30.567,0,59.245-2.51,79.814-6.152c27.191-4.815,47.248-15.271,48.088-15.714C384.289,413.949,385.165,411.698,384.441,409.672z
				"/>
		</g>
	</g>
	
		<g id="&#x417;&#x430;&#x43B;&#x438;&#x432;&#x43A;&#x430;_&#x446;&#x432;&#x435;&#x442;&#x43E;&#x43C;_156_&#x43A;&#x43E;&#x43F;&#x438;&#x44F;_3">
		<g>
			<path style="fill-rule:evenodd;clip-rule:evenodd;fill:#A66240;" d="M264.488,248.712c0.059-0.009,5.908-0.891,11.645-0.891
				c4.624,0,7.032,0.57,8.238,1.048c4.901,1.941,19.616,15.37,24.871,20.381c0.416,0.396,0.953,0.597,1.492,0.597
				c0.451,0,0.902-0.14,1.287-0.425c0.845-0.625,1.117-1.768,0.646-2.707c-7.914-15.771-18.009-34.858-21.156-36.233
				c-0.4-0.176-0.858-0.265-1.356-0.265c-4.794,0-22.021,11.141-27.186,14.555c-0.847,0.56-1.189,1.633-0.825,2.58
				C262.51,248.299,263.483,248.866,264.488,248.712z M289.834,234.572c1.907,2.021,7.559,12.054,13.477,23.364
				c-6.049-5.359-13.554-11.585-17.346-13.087c-2.264-0.897-5.57-1.353-9.832-1.353c-1.102,0-2.201,0.03-3.262,0.079
				C280.396,238.925,287.572,234.964,289.834,234.572z M186.388,326.348c-1.3-0.919-3.099-0.609-4.018,0.688
				c-0.022,0.032-2.346,3.198-6.495,4.791c-0.892,0.344-1.834,0.628-2.766,0.863c0.653-1.136,1.271-2.371,1.758-3.64
				c1.679-4.385,0.802-8.935,0.696-9.438c-0.18-0.856-0.741-1.586-1.523-1.981c-0.783-0.395-1.703-0.411-2.5-0.047
				c-0.067,0.03-6.825,3.094-12.396,3.191c-2.063,0.043-4.006-0.226-5.724-0.602c1.978-1.07,4.104-2.383,5.945-3.875
				c4.595-3.728,6.735-8.835,6.824-9.051c0.605-1.469-0.094-3.146-1.561-3.756c-1.466-0.607-3.152,0.086-3.767,1.552
				c-0.017,0.039-1.705,4-5.128,6.776c-4.324,3.506-10.935,6.021-11.001,6.046c-1.062,0.4-1.79,1.386-1.861,2.518
				c-0.071,1.132,0.528,2.2,1.531,2.729c0.275,0.146,6.825,3.559,14.844,3.428c3.838-0.068,7.929-1.198,10.82-2.196
				c-0.077,0.853-0.248,1.771-0.582,2.645c-1.5,3.916-4.812,7.691-4.843,7.727c-0.775,0.874-0.947,2.13-0.433,3.18
				c0.486,0.993,1.494,1.615,2.589,1.615c0.063,0,0.125-0.001,0.188-0.005c0.245-0.018,6.061-0.414,10.958-2.296
				c5.827-2.238,9.001-6.658,9.133-6.844C187.996,329.065,187.688,327.267,186.388,326.348z M200.768,269.469
				c0.372,0.254,0.796,0.378,1.22,0.378c0.569,0,1.133-0.224,1.552-0.656c4.851-4.999,18.502-18.392,23.371-20.321
				c1.206-0.478,3.615-1.048,8.238-1.048c5.739,0,11.587,0.882,11.645,0.891c1,0.154,1.979-0.413,2.344-1.36
				c0.365-0.947,0.022-2.021-0.825-2.58c-5.166-3.414-22.391-14.555-27.186-14.555c-0.498,0-0.956,0.089-1.357,0.265
				c-3.179,1.389-12.493,20.508-19.746,36.301C199.585,267.739,199.899,268.873,200.768,269.469z M221.464,234.575
				c2.277,0.406,9.439,4.359,16.948,9.001c-1.061-0.049-2.161-0.079-3.263-0.079c-4.259,0-7.567,0.455-9.832,1.353
				c-3.735,1.479-10.611,7.497-16.215,12.791C214.471,246.495,219.622,236.633,221.464,234.575z M366.551,317.866
				c-0.067-0.025-6.677-2.539-11.001-6.045c-3.402-2.759-5.09-6.686-5.129-6.776c-0.606-1.467-2.29-2.165-3.76-1.56
				c-1.472,0.606-2.173,2.291-1.567,3.763c0.09,0.216,2.229,5.323,6.824,9.051c1.84,1.492,3.967,2.805,5.944,3.875
				c-1.717,0.375-3.659,0.643-5.725,0.602c-5.569-0.098-12.327-3.161-12.395-3.191c-0.8-0.365-1.722-0.347-2.5,0.047
				c-0.782,0.395-1.345,1.123-1.522,1.981c-0.107,0.504-0.986,5.054,0.695,9.438c0.486,1.269,1.104,2.505,1.759,3.643
				c-0.931-0.236-1.873-0.522-2.769-0.866c-4.141-1.591-6.479-4.771-6.492-4.791c-0.92-1.298-2.721-1.609-4.02-0.688
				c-1.299,0.919-1.607,2.718-0.688,4.019c0.132,0.186,3.306,4.605,9.132,6.844c4.897,1.882,10.716,2.278,10.96,2.296
				c0.063,0.004,0.126,0.005,0.188,0.005c1.094,0,2.1-0.622,2.588-1.614c0.514-1.049,0.344-2.304-0.43-3.18
				c-0.033-0.038-3.346-3.812-4.846-7.729c-0.333-0.873-0.505-1.791-0.58-2.644c2.891,0.998,6.98,2.128,10.817,2.196
				c8.022,0.142,14.568-3.281,14.845-3.428c1.002-0.529,1.602-1.598,1.529-2.729C368.34,319.252,367.611,318.267,366.551,317.866z
				 M290.016,302.839c-7.574-5.765-17.525-2.238-17.945-2.083c-1.119,0.407-1.697,1.644-1.291,2.765
				c0.404,1.12,1.645,1.702,2.766,1.3c0.082-0.028,8.176-2.86,13.853,1.46c12.354,9.401,19.204,20.339,22.499,26.887
				c-2.609-1.451-5.899-3.196-9.424-4.862c-5.114-2.42-9.787-4.054-10.883-4.426c-1.225-2.413-2.688-4.858-4.422-7.101
				c-5.658-7.324-17.131-13.263-17.617-13.513c-1.059-0.544-2.364-0.126-2.908,0.937c-0.547,1.062-0.127,2.364,0.934,2.911
				c0.111,0.056,11.105,5.754,16.172,12.31c3.035,3.927,5.195,8.657,6.622,12.52c-3.649-3.188-8.544-7.193-13.313-10.271
				c-8.244-5.323-17.166-8.75-17.543-8.893c-0.696-0.267-1.447-0.146-2.017,0.255c-0.519-0.268-1.14-0.332-1.732-0.115
				c-0.375,0.137-9.282,3.422-17.538,8.753c-4.771,3.078-9.663,7.084-13.313,10.271c1.427-3.862,3.588-8.593,6.621-12.52
				c5.067-6.556,16.06-12.254,16.171-12.31c1.062-0.547,1.481-1.85,0.935-2.911c-0.544-1.063-1.85-1.48-2.909-0.937
				c-0.486,0.25-11.957,6.188-17.617,13.513c-1.733,2.242-3.197,4.688-4.42,7.1c-1.094,0.372-5.769,2.006-10.884,4.427
				c-3.524,1.666-6.814,3.413-9.423,4.862c3.295-6.548,10.144-17.485,22.498-26.887c5.651-4.3,13.694-1.517,13.852-1.461
				c1.115,0.407,2.359-0.17,2.767-1.292c0.41-1.122-0.169-2.363-1.291-2.771c-0.421-0.154-10.374-3.68-17.946,2.083
				c-20.135,15.321-26.282,34.055-26.532,34.846c-0.276,0.861,0.015,1.804,0.729,2.36c0.39,0.304,0.858,0.457,1.33,0.457
				c0.394,0,0.788-0.106,1.139-0.323c0.067-0.043,6.901-4.264,14.727-7.967c2.396-1.134,4.723-2.098,6.587-2.825
				c-1.9,4.889-2.736,8.731-2.796,9.016c-0.198,0.93,0.237,1.882,1.07,2.342c0.328,0.181,0.687,0.269,1.044,0.269
				c0.55,0,1.095-0.209,1.509-0.613c0.096-0.093,9.7-9.417,18.498-15.098c7.837-5.059,16.592-8.292,16.679-8.323
				c0.185-0.067,0.348-0.164,0.5-0.272c0.074,0.038,0.144,0.082,0.223,0.112c0.087,0.033,8.871,3.406,16.737,8.485
				c8.791,5.672,18.402,15.003,18.498,15.096c0.414,0.404,0.959,0.613,1.51,0.613c0.357,0,0.716-0.088,1.044-0.269
				c0.833-0.46,1.269-1.412,1.069-2.342c-0.06-0.284-0.895-4.126-2.795-9.015c1.863,0.728,4.189,1.691,6.586,2.825
				c7.817,3.696,14.658,7.923,14.727,7.966c0.352,0.217,0.745,0.323,1.139,0.323c0.473,0,0.941-0.153,1.33-0.457
				c0.715-0.557,1.006-1.499,0.73-2.36C316.297,336.894,310.15,318.16,290.016,302.839z"/>
		</g>
	</g>
	
		<g id="&#x417;&#x430;&#x43B;&#x438;&#x432;&#x43A;&#x430;_&#x446;&#x432;&#x435;&#x442;&#x43E;&#x43C;_156_&#x43A;&#x43E;&#x43F;&#x438;&#x44F;_2">
		<g>
			<path style="fill-rule:evenodd;clip-rule:evenodd;fill:#743031;" d="M388.582,250.055c-0.422-0.315-10.527-7.683-31.246-3.129
				c-14.922,3.281-30.232,12.66-37.557,17.595l0.533-18.945c0.045-1.592-1.21-2.918-2.801-2.963c-0.027,0-0.056-0.001-0.082-0.001
				c-1.555,0-2.837,1.238-2.881,2.802l-0.684,24.329c-0.42,1.295-0.229,2.765,0.65,3.935c1.438,1.909,4.148,2.291,6.054,0.856
				c0.201-0.15,20.262-15.124,38.625-19.16c7.917-1.743,13.804-1.447,17.785-0.667c-0.388,0.325-0.791,0.679-1.194,1.034
				c-4.783-0.691-15.079-0.836-30.156,6.038c-12.457,5.68-19.311,23.136-19.597,23.876c-0.003,0.008-0.004,0.017-0.007,0.025
				c-0.037,0.097-0.057,0.2-0.083,0.302c-0.022,0.086-0.052,0.172-0.066,0.259c-0.008,0.051-0.005,0.105-0.011,0.157
				c-0.014,0.142-0.027,0.282-0.021,0.422c0.001,0.006,0,0.012,0,0.018c0.007,0.165,0.788,16.877-2.64,44.748
				c-0.196,1.604-3.184,6.266-4.618,8.505c-0.744,1.161-1.393,2.178-1.807,2.906c-5.305,9.342-19.488,12.682-30.883,15.365
				c-1.45,0.34-2.863,0.674-4.222,1.009c-23.786,5.865-33.17,4.656-52.067,0c-1.358-0.335-2.771-0.669-4.221-1.009
				c-11.396-2.684-25.579-6.023-30.883-15.365c-0.414-0.729-1.064-1.749-1.81-2.913c-1.435-2.238-4.418-6.896-4.616-8.498
				c-3.42-27.813-2.646-44.583-2.638-44.749c0-0.009-0.001-0.017-0.001-0.024c0.005-0.115-0.008-0.231-0.018-0.349
				c-0.006-0.076-0.004-0.154-0.016-0.229c-0.011-0.067-0.036-0.134-0.052-0.201c-0.028-0.121-0.055-0.242-0.098-0.357
				c-0.002-0.007-0.003-0.015-0.006-0.021c-0.286-0.74-7.141-18.196-19.598-23.876c-15.08-6.875-25.375-6.73-30.156-6.039
				c-0.402-0.354-0.804-0.706-1.191-1.03c3.991-0.781,9.874-1.073,17.785,0.664c18.32,4.026,38.423,19.01,38.623,19.161
				c1.91,1.434,4.621,1.049,6.054-0.859c0.879-1.17,1.069-2.639,0.65-3.932l-0.684-24.33c-0.043-1.563-1.325-2.802-2.88-2.802
				c-0.027,0-0.055,0.001-0.083,0.001c-1.591,0.045-2.845,1.371-2.8,2.963l0.533,18.945c-7.324-4.935-22.634-14.313-37.557-17.595
				c-20.716-4.553-30.825,2.813-31.246,3.129c-1.158,0.87-1.804,2.264-1.718,3.71c0.084,1.446,0.888,2.755,2.141,3.483
				c0.105,0.062,10.62,6.264,15.928,16.299c1.978,3.741,3.251,7.97,4.599,12.446c2.229,7.404,4.535,15.061,10.341,20.674
				c5.317,5.14,13.741,6.224,19.901,6.224c2.824,0,5.159-0.228,6.513-0.396c0.418,5.748,1.037,12.367,1.951,19.795
				c0.331,2.689,2.578,6.37,5.482,10.904c0.679,1.06,1.275,1.986,1.651,2.649c6.546,11.53,22.088,15.189,34.576,18.13
				c1.429,0.337,2.822,0.665,4.162,0.994c10.333,2.548,18.112,4.123,26.862,4.123c7.749,0,16.255-1.235,27.964-4.123
				c1.34-0.329,2.732-0.657,4.162-0.994c12.487-2.94,28.029-6.6,34.576-18.129c0.375-0.663,0.97-1.586,1.646-2.644
				c2.906-4.536,5.157-8.22,5.488-10.911c0.913-7.429,1.531-14.047,1.949-19.795c1.354,0.169,3.688,0.396,6.513,0.396
				c6.159,0,14.585-1.084,19.901-6.224c5.808-5.613,8.113-13.27,10.343-20.675c1.347-4.477,2.621-8.704,4.599-12.445
				c5.27-9.965,15.827-16.24,15.928-16.299c1.251-0.729,2.055-2.037,2.141-3.483C390.385,252.318,389.74,250.925,388.582,250.055z
				 M178.469,301.735c-0.381,0-1.035-0.095-1.566-0.198c-0.56-0.108-1.12-0.25-1.667-0.423c-1.096-0.344-2.147-0.812-3.101-1.414
				c-1.912-1.193-3.404-2.988-4.155-5.256c-0.749-2.276-0.848-4.904-0.571-7.492c0.292-2.598,0.917-5.207,1.88-7.707
				c-1.396,2.295-2.502,4.787-3.292,7.421c-0.765,2.634-1.224,5.46-0.827,8.42c0.389,2.967,1.971,5.913,4.279,8.002
				c0.388,0.36,0.798,0.692,1.217,1.011c-4.042-0.316-8.229-1.296-10.664-3.649c-4.186-4.047-6.073-10.314-8.071-16.948
				c-1.408-4.677-2.864-9.512-5.235-13.996c-1.639-3.1-3.655-5.871-5.755-8.297c1.106,0.025,2.356,0.11,3.733,0.272
				c0.12,0.454,0.253,0.893,0.404,1.352c0.347,1.014,0.776,1.992,1.292,2.924c0.513,0.932,1.121,1.813,1.806,2.619
				c0.692,0.792,1.387,1.464,2.123,2.119c2.929,2.562,6.102,4.577,9.383,6.349c-2.708-2.535-5.231-5.297-7.218-8.252
				c-0.485-0.729-0.944-1.504-1.301-2.23c-0.341-0.728-0.609-1.482-0.798-2.259c-0.134-0.546-0.189-1.104-0.254-1.662
				c3.753,0.873,8.146,2.302,13.152,4.584c9.244,4.215,15.216,17.393,16.395,20.182c-0.062,1.746-0.178,6.841,0.151,14.86
				C179.407,301.855,178.953,301.735,178.469,301.735z M364.586,269.505c-2.37,4.484-3.825,9.318-5.234,13.994
				c-1.997,6.636-3.885,12.903-8.071,16.95c-2.436,2.354-6.622,3.332-10.661,3.648c0.418-0.319,0.828-0.65,1.215-1.01
				c2.308-2.089,3.89-5.035,4.279-8.002c0.396-2.961-0.062-5.787-0.827-8.42c-0.79-2.634-1.896-5.126-3.292-7.421
				c0.963,2.5,1.588,5.109,1.88,7.707c0.277,2.588,0.178,5.216-0.571,7.491c-0.75,2.269-2.242,4.063-4.155,5.257
				c-0.952,0.602-2.004,1.07-3.099,1.414c-0.548,0.173-1.108,0.314-1.667,0.423c-0.532,0.104-1.186,0.198-1.567,0.198
				c-0.207,0.001-0.435,0.024-0.646,0.072c-0.249,0.057-0.477,0.153-0.692,0.266c0.328-8.037,0.212-13.132,0.15-14.868
				c1.17-2.781,7.117-15.951,16.396-20.182c5.006-2.283,9.398-3.713,13.15-4.585c-0.063,0.558-0.119,1.117-0.253,1.664
				c-0.188,0.776-0.458,1.53-0.799,2.258c-0.355,0.727-0.814,1.501-1.3,2.23c-1.988,2.955-4.51,5.717-7.219,8.252
				c3.281-1.771,6.454-3.788,9.383-6.349c0.736-0.655,1.431-1.326,2.123-2.119c0.686-0.807,1.293-1.688,1.806-2.619
				c0.516-0.932,0.944-1.91,1.291-2.924c0.15-0.459,0.284-0.897,0.404-1.353c1.376-0.161,2.626-0.246,3.732-0.271
				C368.241,263.634,366.226,266.405,364.586,269.505z M273.535,284.852c5.633,5.259,10.551,7.896,15.032,8.062
				c0.187,0.007,0.372,0.011,0.556,0.011c0.002,0,0.002,0,0.002,0c11.316,0,21.127-12.837,21.539-13.384
				c0.803-1.064,0.771-2.54-0.076-3.569c-0.391-0.474-9.716-11.619-23.303-13.143c-0.784-0.089-1.569-0.133-2.335-0.133
				c-12.885,0-17.962,12.063-18.171,12.577c-0.4,0.978-0.232,2.096,0.436,2.913C267.322,278.317,269.884,281.443,273.535,284.852z
				 M284.95,268.46c0.552,0,1.12,0.032,1.692,0.097c2.559,0.287,4.956,1.016,7.139,1.967c-0.47,1.646-2.317,6.729-7.376,7.307
				c-5.224,0.629-6.247-8.184-6.255-8.265c-0.006-0.055-0.025-0.104-0.033-0.158C281.523,268.829,283.125,268.46,284.95,268.46z
				 M274.982,273.109c0.666,2.557,2.063,6.171,4.906,8.444c1.711,1.368,3.751,2.074,5.955,2.074c0.4,0,0.805-0.023,1.215-0.069
				c7.418-0.846,10.626-6.854,11.852-10.201c2.436,1.635,4.362,3.346,5.609,4.568c-3.255,3.638-9.516,9.232-15.395,9.232
				l-0.344-0.007c-2.995-0.11-6.801-2.303-11.313-6.514c-1.924-1.797-3.539-3.531-4.57-4.688
				C273.367,275.158,274.057,274.139,274.982,273.109z M237.203,301.278c-0.066,0.595-0.104,1.196-0.049,1.826
				c0.037,0.313,0.066,0.644,0.265,1.026c0.204,0.332,0.415,0.551,0.687,0.777c1.137,0.862,2.455,0.811,3.527,1.008
				c1.106,0.158,2.11,0.521,2.909,1.221c0.776,0.651,1.388,1.707,2.146,2.601c0.736,0.915,1.519,1.805,2.39,2.619
				c1.703,1.609,3.961,3.039,6.541,2.988c2.568-0.063,4.769-1.47,6.515-3.036c0.885-0.8,1.689-1.671,2.441-2.576
				c0.781-0.896,1.377-1.932,2.164-2.597c0.799-0.698,1.803-1.063,2.91-1.222c1.074-0.196,2.391-0.146,3.527-1.008
				c0.129-0.108,0.257-0.223,0.379-0.362c0.131-0.164,0.156-0.159,0.313-0.424c0.193-0.381,0.221-0.695,0.258-1.016
				c0.055-0.631,0.018-1.231-0.049-1.826c-0.143-1.188-0.406-2.341-0.748-3.469c-1.37-4.506-3.824-8.62-6.862-12.149
				c-2.908-3.488-4.35-8.125-4.42-12.652c-0.003-0.131-0.095-0.247-0.227-0.276c-0.156-0.033-0.308,0.065-0.343,0.221l-0.008,0.039
				c-1.016,4.73-0.248,10.007,2.656,14.609c0.657,1.03,1.156,1.846,1.669,2.812c0.501,0.939,0.953,1.896,1.351,2.867
				c0.775,1.938,1.49,3.879,1.839,5.811c0.108,0.55,0.185,1.098,0.233,1.62c-0.117,0.012-0.231,0.021-0.358,0.036
				c-0.762,0.086-1.732,0.255-2.746,0.627c-1.013,0.37-2.036,0.943-2.873,1.626c-0.419,0.338-0.811,0.698-1.148,1.063
				c-0.352,0.357-0.68,0.796-0.812,0.961c-0.393,0.508-0.604,0.747-0.953,1.158c-0.635,0.729-1.287,1.391-1.926,1.937
				c-0.637,0.541-1.262,0.958-1.773,1.193c-0.521,0.241-0.872,0.288-1.111,0.273c-0.241,0.007-0.502,0-0.967-0.21
				c-0.452-0.202-1.042-0.595-1.657-1.142c-0.617-0.544-1.26-1.228-1.903-1.989c-0.323-0.382-0.645-0.782-0.971-1.201l-0.344-0.437
				l-0.136-0.169l-0.293-0.33c-0.431-0.471-0.756-0.756-1.196-1.119c-0.837-0.683-1.865-1.257-2.877-1.627
				c-1.016-0.372-1.987-0.542-2.75-0.628c-0.122-0.014-0.231-0.023-0.343-0.034c0.048-0.518,0.125-1.06,0.23-1.604
				c0.349-1.931,1.057-3.873,1.84-5.809c0.805-1.968,1.768-3.764,3.029-5.694c2.873-4.574,3.664-9.875,2.632-14.602l-0.008-0.038
				c-0.028-0.127-0.141-0.224-0.276-0.226c-0.159-0.002-0.29,0.125-0.293,0.283c-0.072,4.524-1.51,9.16-4.422,12.651
				c-3.035,3.526-5.489,7.643-6.862,12.148C237.611,298.938,237.345,300.091,237.203,301.278z M269.209,302.496
				c0.014-0.051,0.023-0.111,0.046-0.194c-0.011,0.166-0.024,0.29-0.047,0.315C269.202,302.64,269.192,302.591,269.209,302.496z
				 M242.063,302.393l0.02,0.102c0.017,0.096,0.007,0.145,0.003,0.122c-0.023-0.023-0.038-0.145-0.048-0.307L242.063,302.393z
				 M222.158,292.924c0.186,0,0.372-0.004,0.558-0.011c4.481-0.166,9.399-2.803,15.033-8.062c3.652-3.409,6.214-6.535,6.321-6.666
				c0.667-0.818,0.834-1.936,0.435-2.913c-0.21-0.513-5.286-12.577-18.172-12.577c-0.766,0-1.551,0.044-2.335,0.133
				c-13.587,1.523-22.912,12.669-23.303,13.143c-0.848,1.029-0.878,2.505-0.076,3.569
				C201.031,280.087,210.841,292.924,222.158,292.924z M224.64,268.557c0.573-0.064,1.141-0.097,1.693-0.097
				c1.827,0,3.429,0.366,4.835,0.94c-0.01,0.056-0.029,0.107-0.035,0.165c-0.149,1.368-1.082,5.682-3.337,7.484
				c-0.832,0.664-1.758,0.917-2.917,0.78c-5.063-0.577-6.905-5.647-7.377-7.313C219.679,269.569,222.077,268.844,224.64,268.557z
				 M212.368,273.345c1.222,3.344,4.43,9.367,11.856,10.214c0.41,0.046,0.815,0.069,1.215,0.069c2.204,0,4.244-0.706,5.956-2.074
				c2.849-2.278,4.245-5.902,4.91-8.46c0.927,1.032,1.615,2.056,2.083,2.853c-1.03,1.156-2.646,2.893-4.573,4.691
				c-4.513,4.211-8.319,6.403-11.314,6.514l-0.344,0.007c-5.856,0-12.133-5.604-15.396-9.24
				C208.007,276.692,209.93,274.979,212.368,273.345z M255.037,344.425c-2.307,0.111-4.467,0.787-6.445,1.713
				c-1.974,0.939-3.808,2.143-5.315,3.733c2.103-0.557,4.094-1.134,6.071-1.625c1.972-0.477,3.93-0.85,5.824-0.942
				c1.883-0.088,3.756,0.182,5.711,0.674c1.939,0.501,3.889,1.164,5.937,1.894c-1.365-1.718-3.164-3.035-5.157-4.004
				C259.685,344.91,257.361,344.295,255.037,344.425z M267.539,331.013c0.993-1.725,0.402-3.929-1.322-4.923
				c-0.619-0.355-6.195-3.484-11.41-3.484c-5.924,0-10.701,3.302-11.226,3.678c-1.619,1.159-1.989,3.41-0.831,5.027
				c1.16,1.62,3.415,1.986,5.028,0.831c0.034-0.024,3.353-2.33,7.029-2.33c2.789,0,6.587,1.823,7.81,2.522
				c0.566,0.327,1.186,0.481,1.797,0.481C265.66,332.815,266.871,332.169,267.539,331.013z"/>
		</g>
	</g>
	
		<g id="&#x417;&#x430;&#x43B;&#x438;&#x432;&#x43A;&#x430;_&#x446;&#x432;&#x435;&#x442;&#x43E;&#x43C;_156_&#x43A;&#x43E;&#x43F;&#x438;&#x44F;">
		<g>
			<path style="fill-rule:evenodd;clip-rule:evenodd;fill:#2D2A49;" d="M356.517,150.622c-2.671-8.862-8.494-16.92-13.63-24.029
				c-2.432-3.362-4.726-6.539-6.539-9.56c-5.685-9.477-14.771-9.739-19.653-9.881c-0.837-0.024-1.984-0.058-2.239-0.112
				c-0.68-0.254-1.26-0.784-2.229-1.699c-1.313-1.242-3.113-2.943-5.994-4.097c-2.783-1.11-4.717-0.528-5.756-0.216
				c-0.117,0.035-0.232,0.081-0.339,0.102c-0.001-0.001-0.22-0.007-0.768-0.211c-0.76-0.637-2.424-2.94-3.651-4.641
				c-4.799-6.649-12.047-16.697-21.523-13.242c-7.935,2.894-15.302,9.559-23.103,16.615c-5.737,5.189-11.67,10.556-18.388,15.052
				c-9.514,6.368-12.056,14.759-12.729,19.097c-3.675,1.963-10.436,5.871-13.38,9.479c-2.155,2.641-5.253,9.145-10.544,20.412
				c-3.218,6.854-6.865,14.622-10.536,21.758c-1.582,3.077-3.035,4.546-4.095,5.617c-1.219,1.233-3.491,3.529-2.279,6.977
				c0.592,1.686,1.353,3.55,2.053,5.181c-1.525,0.592-3.159,1.291-4.448,2.003c-2.716,1.5-5.839,8.201-9.284,19.918
				c-2.414,8.212-4.881,19.121-2.925,24.453c0.084,0.229,0.166,0.439,0.248,0.66c7.135,2.745,13.873,6.328,19.249,9.532
				c6.404-5.766,20.888-18.057,36.127-25.932c16.303-8.423,28.422-12.064,37.027-11.119l1.088,0.118
				c10.399,1.127,19.381,2.101,35.405,11.286c13.924,7.983,27.156,19.66,33.552,25.653c2.399-1.431,5.068-2.936,7.927-4.41
				c-5.566-5.374-20.658-19.275-37.177-28.745c-16.274-9.329-26.297-10.982-36.327-12.112c-1.021-1.137-2.075-2.233-3.147-3.307
				c-1.395-1.373-2.813-2.715-4.276-4.003c1.137-0.57,2.269-1.151,3.402-1.729c0.924-0.458,1.827-0.965,2.723-1.489
				c0.034,0.056,0.053,0.127,0.09,0.18c0.323,0.558,0.643,1.118,1.135,1.509c0.494,0.386,1.07,0.69,1.749,0.893
				c0.667,0.215,1.436,0.326,2.372,0.271c0.162-0.01,0.295-0.14,0.307-0.306c0.057-0.938-0.057-1.706-0.271-2.373
				c-0.202-0.678-0.507-1.255-0.893-1.75c-0.216-0.27-0.485-0.484-0.774-0.68c0.021-0.014,0.043-0.027,0.065-0.041
				c2.14-1.323,4.354-2.478,6.679-3.385c2.318-0.917,4.825-1.406,7.24-2.101c0.273-0.078,0.525-0.232,0.727-0.461
				c0.559-0.635,0.496-1.602-0.139-2.16l-0.354-0.312c-1.52-1.337-3.197-2.429-4.926-3.443c0.535-0.168,1.058-0.36,1.502-0.684
				c0.558-0.415,1.057-0.928,1.483-1.565c0.435-0.624,0.798-1.372,1.04-2.327c0.043-0.161-0.055-0.328-0.217-0.373
				c-0.949-0.26-1.779-0.313-2.536-0.243c-0.766,0.057-1.458,0.238-2.095,0.518c-0.631,0.286-1.141,0.781-1.653,1.271
				c-0.442,0.36-0.8,0.867-1.129,1.42c-0.951-0.482-1.911-0.951-2.896-1.38c-0.888-0.396-1.804-0.749-2.736-1.075
				c0.057-0.262,0.082-0.53,0.037-0.804c-0.15-0.907-0.191-1.998-0.12-2.664c28.398,0.5,57.241,21.943,61.786,25.463
				c0.224,0.213,0.466,0.398,0.732,0.562c0.131,0.096,0.27,0.173,0.412,0.235c0.069,0.032,0.127,0.083,0.198,0.112
				c1.857,0.75,7.713,3.51,10.127,6.192c0.19,0.362,0.121,1.584-0.124,2.385c-0.281,0.856-0.287,1.779-0.017,2.64
				c0.03,0.102,3.184,10.233,4,18.871c0.524,5.551-0.51,11.647-1.124,14.605c3.027-1.401,6.189-2.71,9.404-3.819
				c0.438-3.426,0.71-7.574,0.328-11.601c-0.74-7.831-3.098-16.388-4.003-19.471c0.43-2.19,0.736-6.294-1.983-9.325
				c-3.025-3.376-8.099-6.082-11.076-7.483c-0.664-3.896-2.283-11.815-5.472-19.474c-2.985-7.174-5.421-11.128-8.378-15.415
				c0.199-0.492,0.354-0.997,0.469-1.491c3.234-1.126,8.031-3.537,10.654-8.39c1.207-2.231,1.794-4.905,2.036-7.501
				c3.441,3.278,6.864,7.209,7.866,10.496c0.674,2.209,0.088,5.272-0.479,8.234c-0.801,4.19-1.709,8.94,1.092,12.607
				c1.804,2.361,4.643,3.663,8.682,3.978c2.746,0.213,5.212-0.877,6.977-3.068C361.683,174.412,358.809,158.224,356.517,150.622z
				 M193.208,189.404c3.741-7.275,7.423-15.118,10.672-22.038c3.85-8.198,7.832-16.677,9.417-18.619
				c1.888-2.313,8.56-6.261,12.693-8.323c0.688-0.344,1.25-0.861,1.66-1.477c1.909-0.869,3.843-1.715,5.79-2.496
				c2.728-1.12,5.488-2.008,8.342-2.986c5.653-1.95,11.272-3.969,16.87-6.039c-5.814,1.339-11.642,2.623-17.475,3.83
				c-2.896,0.571-5.897,1.207-8.8,2.035c-1.252,0.349-2.491,0.719-3.729,1.099c0.594-2.887,2.53-8.258,8.868-12.499
				c7.242-4.848,13.69-10.681,19.378-15.826c7.468-6.755,13.917-12.589,20.266-14.904c3.319-1.217,8.472,5.92,11.549,10.181
				c0.198,0.274,0.386,0.531,0.576,0.795c-1.337,0.243-2.661,0.569-3.968,0.979c-0.834,0.26-1.656,0.567-2.473,0.9
				c-0.031-0.671,0.122-1.428,0.055-2.081c-0.092-0.839-0.59-1.484-1.129-2.111c-0.579-0.608-1.271-1.163-2.348-1.535
				c-0.16-0.055-0.333,0.026-0.393,0.185c-0.396,1.068-0.408,1.955-0.305,2.789c0.143,0.813,0.324,1.609,0.912,2.212
				c0.453,0.459,1.121,0.815,1.617,1.253c-0.848,0.412-1.686,0.858-2.497,1.378c-1.033,0.675-2.047,1.431-2.97,2.343
				c-0.908,0.902-1.744,2.06-2.334,3.121c-1.254,2.085-2.175,4.419-2.666,6.844c-0.305,1.518-0.404,3.054-0.391,4.57
				c-0.423-0.223-0.846-0.474-1.266-0.609c-0.785-0.249-1.555-0.047-2.322,0.198c-0.768,0.29-1.53,0.705-2.277,1.546
				c-0.11,0.124-0.105,0.314,0.014,0.432c0.804,0.789,1.592,1.151,2.377,1.389c0.783,0.192,1.564,0.342,2.331,0.04
				c0.419-0.167,0.833-0.454,1.25-0.709c0.012,0.138,0.017,0.278,0.03,0.415c0.229,2.363,0.625,4.632,0.643,6.861
				c0.01,1.587-0.281,3.176-0.93,4.566c-0.404-0.175-0.76-0.409-1.028-0.747c-0.487-0.575-0.612-1.585-1.003-2.276
				c-0.395-0.687-1.077-1.027-1.788-1.334c-0.739-0.273-1.56-0.45-2.651-0.299c-0.162,0.022-0.285,0.165-0.276,0.332
				c0.048,1.102,0.37,1.875,0.771,2.554c0.431,0.645,0.888,1.254,1.636,1.519c0.75,0.259,1.765,0.201,2.419,0.577
				c0.458,0.243,0.794,0.635,1.063,1.104c-0.025,0.032-0.04,0.071-0.065,0.103c-1.324,1.71-3.198,3.002-5.095,4.191
				c-1.891,1.182-3.9,2.222-5.869,3.36c-0.312-0.695-0.257-1.668-0.493-2.421c-0.251-0.785-0.862-1.299-1.507-1.785
				c-0.679-0.46-1.459-0.845-2.58-0.971c-0.165-0.019-0.316,0.096-0.343,0.262c-0.179,1.111-0.019,1.966,0.242,2.745
				c0.295,0.753,0.626,1.478,1.316,1.931c0.609,0.395,1.455,0.608,2.044,1.017c-1.57,0.922-3.132,1.876-4.677,2.896
				c-1.962,1.287-3.892,2.676-5.731,4.23c-0.829,0.688-1.601,1.425-2.37,2.217c-0.077-0.375-0.15-0.753-0.284-1.073
				c-0.302-0.712-0.929-1.11-1.587-1.479c-0.691-0.338-1.471-0.589-2.559-0.544c-0.163,0.006-0.298,0.134-0.313,0.3
				c-0.087,1.085,0.134,1.875,0.443,2.578c0.344,0.672,0.716,1.314,1.416,1.645c0.37,0.172,0.82,0.266,1.253,0.377
				c-0.341,0.388-0.7,0.762-1.028,1.161c-2.982,3.7-5.478,7.746-7.499,11.983c-0.101,0.213-0.188,0.432-0.287,0.646
				c-0.401-0.37-0.777-0.845-1.195-1.141c-0.618-0.432-1.341-0.425-2.075-0.375c-0.743,0.093-1.516,0.308-2.389,0.936
				c-0.131,0.095-0.177,0.273-0.102,0.421c0.493,0.957,1.084,1.498,1.705,1.918c0.63,0.377,1.271,0.712,2.018,0.607
				c0.365-0.054,0.753-0.202,1.137-0.337c-1.29,3.063-2.353,6.212-3.042,9.46c-18.72,6.068-33.271,15.569-39.216,19.813
				c-0.562-1.215-1.773-3.889-2.752-6.407C189.216,195.469,191.197,193.311,193.208,189.404z M265.57,188.484
				c0.491,0.443,0.992,0.871,1.496,1.293c-0.48-0.014-0.984-0.07-1.42-0.008c-0.736,0.108-1.242,0.607-1.729,1.145
				c-0.464,0.575-0.863,1.258-1.05,2.31c-0.028,0.158,0.061,0.318,0.217,0.373c1.007,0.357,1.799,0.347,2.528,0.228
				c0.707-0.157,1.391-0.354,1.848-0.938c0.422-0.547,0.674-1.388,1.131-1.875c0.138,0.108,0.272,0.221,0.41,0.328
				c1.65,1.235,3.317,2.446,5.092,3.49c-1.248,0.806-2.504,1.595-3.827,2.233c-2.241,1.094-4.591,1.943-7.014,2.621
				c-0.827,0.233-1.656,0.465-2.483,0.7c-0.435-0.168-0.797-0.409-1.024-0.785c-0.348-0.532-0.297-1.464-0.539-2.103
				c-0.245-0.636-0.81-0.951-1.406-1.236c-0.626-0.254-1.341-0.42-2.358-0.284c-0.156,0.021-0.284,0.143-0.307,0.306
				c-0.135,1.017,0.03,1.731,0.284,2.359c0.285,0.595,0.601,1.16,1.236,1.405c0.64,0.242,1.571,0.191,2.104,0.54
				c0.133,0.079,0.248,0.177,0.351,0.287c-1.028,0.313-2.05,0.645-3.048,1.028c-2.34,0.868-4.687,1.722-6.989,2.675
				c-0.327,0.137-0.636,0.355-0.878,0.646c-0.811,0.97-0.683,2.412,0.286,3.223l0.067,0.057c2.38,1.991,4.936,3.767,7.538,5.482
				c-10.176-0.479-22.938,3.431-39.892,12.192c-17.864,9.229-34.176,23.657-39.681,28.76c-0.012-0.015-0.02-0.031-0.032-0.045
				c-0.015-0.019-1.528-2.019-3.823-8.274c-1.763-4.802,5.55-29.329,8.804-34.1c2.146-1.066,5.638-2.257,6.902-2.654
				c0.504-0.159,0.957-0.424,1.364-0.744c0.255-0.076,0.502-0.189,0.723-0.365c0.271-0.216,27.469-21.539,60.47-25.745
				c1.146,0.019,6.198,2.035,10.198,3.906c0.728,0.339,1.583,0.246,2.223-0.238c0.068-0.052,0.117-0.12,0.179-0.179
				C264.186,187.189,264.864,187.858,265.57,188.484z M349.554,175.696c-1.733-0.173-2.175-0.571-2.178-0.571
				c-0.435-0.722,0.19-3.987,0.525-5.742c0.728-3.809,1.552-8.125,0.256-12.38c-3.014-9.885-16.784-19.966-18.346-21.082
				c-0.358-0.256-0.745-0.451-1.148-0.585c-0.016-0.021-0.03-0.042-0.046-0.063c-1.32-1.754-2.687-3.477-4.246-5.127
				c-2.979-3.05-5.996-6.012-9.026-8.967c1.853,3.801,3.694,7.614,5.442,11.431c0.79,1.794,1.456,3.72,2.064,5.66
				c0.058,0.188,0.109,0.38,0.167,0.569c-0.063,0.447-0.062,0.907,0.021,1.367c0.573,3.188,0.9,9.32-0.662,12.209
				c-1.582,2.924-5.638,4.371-7.435,4.782c0.003-0.473-0.002-0.945-0.015-1.424c-0.064-2.045-0.3-4.084-0.728-6.087
				c-0.423-2.003-1.053-3.969-1.903-5.837c-0.879-1.896-1.883-3.521-2.899-5.219c-4.122-6.676-8.793-12.914-13.751-18.894
				c4.364,6.415,8.411,13.061,11.811,19.958c0.823,1.714,1.68,3.503,2.285,5.191c0.605,1.729,1.008,3.524,1.225,5.347
				c0.433,3.605,0.201,7.466-0.616,10.836l-0.021,0.087c-0.014,0.055-0.024,0.11-0.033,0.167c-0.061,0.382-0.009,0.752,0.117,1.091
				c-0.438-0.36-0.876-0.712-1.333-1.063c-1.233-0.933-2.504-1.789-3.804-2.588c-2.641-1.579-5.209-2.949-7.824-4.378
				c-5.217-2.814-10.465-5.546-15.74-8.224c4.935,3.26,9.836,6.57,14.68,9.946c2.39,1.703,4.895,3.368,7.091,5.179
				c1.107,0.913,2.171,1.87,3.171,2.871c0.86,0.862,1.736,1.82,2.414,2.706c0.115,0.577,0.347,1.135,0.698,1.634l0.146,0.21
				c3.683,5.231,6.115,8.688,9.342,16.439c2.328,5.594,3.738,11.467,4.504,15.332c-10.672-7.521-35.412-22.794-60.507-22.88
				c-0.968-0.027-1.839,0.402-2.466,1.141c-0.625,0.737-0.924,1.762-1.041,2.806c-3.748-1.629-7.594-3.055-9.28-2.836
				c-6.846,0.872-13.408,2.426-19.541,4.355c1.612-2.887,3.291-5.707,5.052-8.445c0.014,0.013,0.028,0.022,0.042,0.035
				c0.584,0.57,1.189,1.058,1.847,1.327c0.643,0.324,1.285,0.654,1.983,0.75c0.701,0.088,1.427,0.065,2.188-0.099
				c0.757-0.147,1.547-0.436,2.393-0.954c0.144-0.089,0.188-0.277,0.101-0.421c-0.518-0.847-1.092-1.462-1.7-1.937
				c-0.603-0.492-1.24-0.842-1.904-1.081c-0.666-0.232-1.388-0.229-2.108-0.232c-0.376-0.031-0.768,0.003-1.169,0.074
				c2.333-3.445,4.817-6.742,7.5-9.843c0.078-0.091,0.156-0.181,0.234-0.271c0.104,0.213,0.196,0.438,0.328,0.623
				c0.38,0.635,0.759,1.274,1.309,1.745c0.557,0.467,1.195,0.854,1.938,1.142c0.732,0.299,1.567,0.497,2.573,0.531h0.008
				c0.166,0.001,0.303-0.134,0.304-0.3c0.005-1.008-0.161-1.85-0.431-2.592c-0.258-0.754-0.62-1.407-1.064-1.981
				c-0.449-0.569-1.072-0.972-1.691-1.378c-0.251-0.192-0.542-0.345-0.845-0.486c0.589-0.601,1.206-1.203,1.823-1.799
				c1.593-1.495,3.317-2.902,5.097-4.275c1.25-0.945,2.528-1.887,3.809-2.836c0.123,0.469,0.275,0.916,0.496,1.311
				c0.34,0.72,0.674,1.442,1.201,2.019c0.532,0.572,1.154,1.076,1.893,1.491c0.726,0.426,1.565,0.765,2.596,0.959
				c0.009,0.002,0.02,0.003,0.028,0.004c0.161,0.014,0.303-0.105,0.315-0.266c0.09-1.044-0.012-1.943-0.227-2.757
				c-0.203-0.823-0.521-1.558-0.93-2.225c-0.413-0.662-1.02-1.178-1.621-1.697c-0.318-0.317-0.706-0.583-1.121-0.827
				c1.512-1.16,3.016-2.353,4.473-3.643c1.59-1.409,3.145-2.911,4.451-4.675c0.225,0.468,0.475,0.908,0.793,1.264
				c0.465,0.603,0.926,1.209,1.542,1.631c0.62,0.415,1.313,0.744,2.1,0.961c0.774,0.229,1.644,0.348,2.663,0.284
				c0.004,0,0.012-0.001,0.016-0.002c0.164-0.02,0.28-0.167,0.26-0.33c-0.119-1.016-0.394-1.848-0.76-2.568
				c-0.354-0.734-0.802-1.357-1.322-1.893c-0.525-0.53-1.205-0.874-1.883-1.223c-0.553-0.34-1.227-0.537-1.939-0.688
				c0.627-1.576,0.904-3.266,1.007-4.898c0.167-2.364,0.1-4.681,0.349-6.911c0.027-0.273,0.07-0.54,0.104-0.81
				c0.287,0.082,0.575,0.187,0.863,0.325c0.791,0.393,1.578,0.698,2.357,0.78c0.78,0.139,1.563,0.283,2.336,0.187
				c0.772-0.104,1.543-0.321,2.307-0.685c0.765-0.347,1.524-0.836,2.276-1.564c0.007-0.007,0.015-0.015,0.02-0.021
				c0.104-0.123,0.089-0.307-0.034-0.411c-0.799-0.676-1.59-1.113-2.377-1.406c-0.787-0.311-1.569-0.477-2.348-0.527
				c-0.778-0.045-1.549,0.152-2.318,0.344c-0.771,0.136-1.535,0.494-2.297,0.938c-0.167,0.095-0.334,0.177-0.502,0.253
				c0.244-1.296,0.562-2.557,0.968-3.774c0.661-2.024,1.537-3.958,2.525-5.88c0.488-0.965,0.978-1.706,1.659-2.465
				c0.656-0.756,1.416-1.477,2.248-2.139c0.49-0.392,1.016-0.754,1.536-1.119c-0.024,0.834,0.016,1.637,0.241,2.352
				c0.191,0.791,0.377,1.585,0.781,2.275c0.411,0.688,0.925,1.327,1.569,1.903c0.63,0.584,1.39,1.106,2.364,1.527
				c0.012,0.004,0.023,0.009,0.034,0.013c0.153,0.043,0.313-0.045,0.358-0.197c0.295-1.021,0.373-1.939,0.322-2.797
				c-0.035-0.865-0.203-1.667-0.473-2.421c-0.277-0.751-0.771-1.398-1.261-2.049c-0.438-0.674-1.079-1.253-1.799-1.795
				c-0.05-0.038-0.091-0.079-0.14-0.118c1.859-1.136,3.828-2.174,5.857-3.157c2.045,2.768,3.744,4.766,5.814,5.605
				c3.373,1.367,5.412,0.952,7.062,0.457c0.025-0.008,0.05-0.016,0.075-0.023c1.334,0.54,2.174,1.335,3.238,2.34
				c1.241,1.175,2.788,2.637,5.141,3.516c1.482,0.554,3.119,0.601,5.016,0.655c5.235,0.152,9.478,0.667,12.49,5.687
				c2.001,3.337,4.4,6.658,6.943,10.176c4.969,6.878,10.107,13.989,12.361,21.461C351.582,164.21,351.002,173.684,349.554,175.696z"
				/>
		</g>
	</g>
	<g id="&#x424;&#x438;&#x433;&#x443;&#x440;&#x430;_254">
		<g>
			<path style="fill-rule:evenodd;clip-rule:evenodd;fill:#FCDDC6;" d="M146.146,98.027c-38.4,0-70.01,27.423-70.01,51.917
				c0,15.807,6.187,28.645,23.152,35.91c8.756,3.75,22.354,3.526,22.474,3.526c11.531,15.584,32.852,22.451,32.852,22.451
				s1.288-32.776,11.313-35.706c26.328-7.693,51.91-17.271,51.91-35.01C217.836,116.622,184.545,98.027,146.146,98.027z"/>
		</g>
	</g>
	<g id="&#x424;&#x438;&#x433;&#x443;&#x440;&#x430;_257">
		<g>
			<path style="fill-rule:evenodd;clip-rule:evenodd;fill:#EBBDAC;" d="M124.48,114.723c0,0-34.607,9.367-36.048,35.312
				s25.959,28.106,25.959,28.106s-22.977-10.809-13.737-36.786C105.069,128.943,124.48,114.723,124.48,114.723z M187.899,114.723
				c0,0,7.516,12.836,0.014,28.835c-7.334,15.641-33.164,25.936-33.164,25.936s28.599-3.641,40.987-22.543
				C204.365,133.782,187.899,114.723,187.899,114.723z"/>
		</g>
	</g>
	<g id="&#x417;&#x430;&#x43B;&#x438;&#x432;&#x43A;&#x430;_&#x446;&#x432;&#x435;&#x442;&#x43E;&#x43C;_158">
		<g>
			<path style="fill-rule:evenodd;clip-rule:evenodd;fill:#C09082;" d="M145.981,93.133c-41.864,0-74.334,30.232-74.334,56.241
				c0,19.142,8.672,32.561,25.774,39.884c7.355,3.15,17.362,3.757,22.046,3.86c12.408,15.28,32.765,21.972,33.656,22.259
				c0.433,0.14,0.88,0.208,1.325,0.208c0.875,0,1.742-0.266,2.477-0.779c1.108-0.775,1.791-2.023,1.843-3.375
				c0.61-15.527,4.522-30.648,8.206-31.726c26.62-7.778,55.021-17.861,55.021-39.159C221.996,113.959,188.605,93.133,145.981,93.133
				z M164.55,171.405c-9.939,2.904-13.063,22.217-14.042,33.651c-6.7-2.959-18.256-9.117-25.434-18.818
				c-0.816-1.103-2.125-1.752-3.496-1.752h-0.048l-0.407,0.003c-2.149,0-13.23-0.154-20.296-3.181
				c-14.007-5.998-20.531-16.146-20.531-31.935c0-21.558,29.3-47.594,65.686-47.594c36.517,0,67.367,17.752,67.367,38.766
				C213.348,155.135,189.894,163.998,164.55,171.405z"/>
		</g>
	</g>
	<g id="&#x424;&#x438;&#x433;&#x443;&#x440;&#x430;_256">
		<g>
			<path style="fill-rule:evenodd;clip-rule:evenodd;fill:#FCDDC6;" d="M104.967,370.99c-3.764,0.758-6.145,4.699-5.319,8.805
				c0.826,4.104,4.547,6.818,8.311,6.061c3.764-0.757,6.145-4.699,5.318-8.804C112.451,372.946,108.73,370.232,104.967,370.99z
				 M403.299,110.019c3.117-9.639,8.975-10.123,11.545-9.384c5.817,1.675,11.09,9.146,4.329,15.936
				c-4.515,4.533-14.823,8.587-19.578,19.255c-4.913,11.021-3.88,17.96,2.347,18.452c12.505,0.987,4.721-15.138,23.612-23.415
				c16.813-7.367,17.742-36.585-7.631-42.134c-21.662-4.737-27.133,10.151-29.389,17.593
				C385.584,116.049,399.461,121.885,403.299,110.019z M96.464,292.25c-22.009,2.699-22.244,18.56-21.911,26.328
				c0.436,10.155,15.462,11.07,15.156-1.396c-0.249-10.128,5.119-12.523,7.789-12.677c6.043-0.345,13.492,4.961,9.359,13.605
				c-2.76,5.771-11.146,13.008-12.103,24.648c-0.988,12.025,2.283,18.232,8.322,16.636c12.127-3.207-0.555-15.847,14.532-29.91
				C131.036,316.969,122.243,289.089,96.464,292.25z M417.32,283.972c-22.108-1.697-25.469,13.806-26.675,21.486
				c-1.576,10.042,12.974,13.904,15.135,1.622c1.755-9.979,7.488-11.268,10.137-10.89c5.993,0.854,12.247,7.524,6.49,15.184
				c-3.844,5.114-13.493,10.553-16.729,21.775c-3.342,11.594-1.359,18.324,4.876,17.951c12.521-0.751,2.582-15.645,20.148-26.455
				C446.335,315.025,443.217,285.96,417.32,283.972z M391.954,172.393c-0.578,4.147,2.034,7.939,5.837,8.471
				c3.803,0.53,7.354-2.401,7.933-6.549c0.579-4.146-2.034-7.938-5.836-8.47C396.085,165.314,392.533,168.246,391.954,172.393z
				 M410.119,362.841c-3.84,0-6.952,3.395-6.952,7.582s3.112,7.582,6.952,7.582c3.839,0,6.951-3.395,6.951-7.582
				S413.958,362.841,410.119,362.841z"/>
		</g>
	</g>
	<g id="&#x417;&#x430;&#x43B;&#x438;&#x432;&#x43A;&#x430;_&#x446;&#x432;&#x435;&#x442;&#x43E;&#x43C;_162">
		<g>
			<path style="fill-rule:evenodd;clip-rule:evenodd;fill:#C7907F;" d="M141.385,170.847c-2.645,0.296-4.526,2.874-4.204,5.758
				c0.323,2.884,2.728,4.982,5.372,4.687c2.645-0.295,4.526-2.873,4.204-5.758C146.434,172.649,144.029,170.551,141.385,170.847z
				 M140.27,115.969c-15.359,0.534-16.479,11.471-16.718,16.854c-0.313,7.038,10.007,8.578,10.549-0.049
				c0.44-7.008,4.291-8.337,6.144-8.281c4.193,0.127,9.016,4.24,5.64,9.958c-2.254,3.819-8.481,8.309-9.845,16.288
				c-1.409,8.243,0.476,12.726,4.741,11.988c8.566-1.481,0.573-10.975,11.84-19.773C162.646,135.123,158.259,115.343,140.27,115.969
				z"/>
		</g>
	</g>
	<g id="&#x417;&#x430;&#x43B;&#x438;&#x432;&#x43A;&#x430;_&#x446;&#x432;&#x435;&#x442;&#x43E;&#x43C;_161">
		<g>
			<path style="fill-rule:evenodd;clip-rule:evenodd;fill:#C09082;" d="M103.809,367.546c-5.315,1.07-8.714,6.542-7.575,12.198
				c1.139,5.658,6.39,9.389,11.705,8.319c5.316-1.07,8.715-6.542,7.576-12.2C114.376,370.207,109.125,366.477,103.809,367.546z
				 M106.801,382.411c-2.199,0.443-4.404-1.264-4.916-3.805c-0.511-2.54,0.862-4.966,3.061-5.408
				c2.199-0.443,4.405,1.263,4.916,3.803S109,381.969,106.801,382.411z M95.524,288.77c-1.181,0.146-2.335,0.33-3.432,0.551
				c-22.054,4.439-21.266,22.747-21.006,28.763c0.145,3.396,1.598,6.343,4.091,8.296c2.396,1.878,5.596,2.644,8.557,2.048
				c3.93-0.791,8.455-4.392,8.269-11.935c-0.197-8.065,3.511-9.441,4.652-9.671c0.149-0.03,0.29-0.049,0.418-0.057
				c2.6-0.148,5.333,1.115,6.647,3.074c1.167,1.739,1.149,3.896-0.052,6.408c-0.723,1.512-1.972,3.253-3.418,5.27
				c-3.664,5.106-8.223,11.463-8.957,20.388c-0.719,8.744,0.698,14.967,4.098,17.992c1.957,1.741,4.445,2.368,7.193,1.815
				c0.211-0.042,0.425-0.093,0.641-0.15c7.832-2.07,8.064-7.771,8.269-12.802c0.214-5.262,0.456-11.226,7.492-17.785
				c7.283-6.789,9.228-18.274,4.728-27.93C118.818,292.542,108.28,287.206,95.524,288.77z M115.054,326.757
				c-8.77,8.176-9.088,16.031-9.321,21.769c-0.209,5.136-0.411,6.52-3.982,7.463c-1.355,0.35-2.103-0.022-2.527-0.399
				c-0.715-0.638-2.986-3.47-2.185-13.214c0.603-7.331,4.478-12.733,7.896-17.499c1.538-2.145,2.992-4.171,3.935-6.142
				c2.083-4.356,1.954-8.657-0.362-12.108c-2.43-3.622-7.158-5.88-11.763-5.617c-0.376,0.021-0.789,0.072-1.228,0.16
				c-4.645,0.936-9.523,5.488-9.278,15.464c0.083,3.42-1.245,5.659-3.644,6.142c-1.332,0.269-2.776-0.081-3.864-0.934
				c-0.81-0.635-1.794-1.845-1.887-4.006c-0.389-9.031,1.122-19.79,16.384-22.862c0.953-0.191,1.961-0.354,2.996-0.48
				c10.153-1.244,18.475,2.863,22.262,10.988C121.945,312.9,120.534,321.649,115.054,326.757z M409.663,359.236
				c-5.422,0-9.833,4.694-9.833,10.464c0,5.771,4.411,10.465,9.833,10.465c5.423,0,9.834-4.694,9.834-10.465
				C419.497,363.931,415.086,359.236,409.663,359.236z M409.663,374.399c-2.243,0-4.068-2.108-4.068-4.699
				c0-2.592,1.825-4.698,4.068-4.698s4.069,2.106,4.069,4.698C413.732,372.291,411.906,374.399,409.663,374.399z M441.904,299.931
				c-2.727-11.262-12.004-18.572-24.818-19.557c-1.187-0.091-2.355-0.138-3.474-0.138c-22.497,0-25.336,18.104-26.269,24.052
				c-0.528,3.358,0.315,6.534,2.374,8.941c1.979,2.313,4.964,3.695,7.984,3.695c4.009,0,9.155-2.638,10.462-10.068
				c1.397-7.945,5.305-8.563,6.469-8.563c0.152,0,0.294,0.009,0.421,0.027c2.578,0.367,5.008,2.146,5.91,4.324
				c0.801,1.936,0.357,4.046-1.315,6.272c-1.008,1.34-2.575,2.8-4.392,4.491c-4.599,4.284-10.323,9.615-12.804,18.22
				c-2.431,8.431-2.269,14.81,0.468,18.447c1.575,2.093,3.89,3.199,6.692,3.199c0.216,0,0.436-0.007,0.658-0.021
				c8.087-0.484,9.439-6.026,10.632-10.918c1.248-5.116,2.662-10.916,10.854-15.957C440.237,321.16,444.41,310.284,441.904,299.931z
				 M428.736,321.468c-10.211,6.284-12.073,13.923-13.434,19.501c-1.219,4.994-1.689,6.311-5.377,6.531
				c-1.396,0.075-2.057-0.438-2.398-0.891c-0.574-0.766-2.242-3.99,0.467-13.385c2.037-7.068,6.901-11.6,11.193-15.597
				c1.931-1.799,3.756-3.499,5.069-5.245c2.9-3.86,3.623-8.101,2.034-11.941c-1.668-4.031-5.856-7.177-10.423-7.828
				c-0.374-0.054-0.788-0.085-1.235-0.085c-4.738,0-10.418,3.501-12.146,13.329c-0.593,3.369-2.337,5.302-4.784,5.302
				c-1.358,0-2.705-0.627-3.604-1.678c-0.668-0.782-1.396-2.163-1.06-4.299c1.4-8.931,5.005-19.181,20.573-19.181
				c0.972,0,1.992,0.041,3.032,0.12c10.199,0.784,17.547,6.453,19.656,15.165C438.227,309.243,435.115,317.542,428.736,321.468z
				 M388.749,171.216c-0.798,5.715,2.922,10.974,8.292,11.724s10.389-3.289,11.187-9.005c0.798-5.715-2.923-10.974-8.293-11.723
				C394.564,161.462,389.547,165.501,388.749,171.216z M402.518,173.138c-0.358,2.566-2.458,4.402-4.68,4.092
				s-3.737-2.65-3.379-5.217s2.457-4.401,4.679-4.091C401.359,168.231,402.876,170.571,402.518,173.138z M393.938,118.652
				c3.971,0.555,9.432-1.346,11.753-8.524c2.482-7.677,6.438-7.748,7.591-7.587c0.15,0.021,0.289,0.05,0.413,0.086
				c2.502,0.72,4.663,2.817,5.255,5.1c0.525,2.027-0.204,4.057-2.17,6.03c-1.183,1.188-2.938,2.417-4.97,3.841
				c-5.146,3.607-11.554,8.097-15.199,16.274c-3.573,8.015-4.295,14.354-2.087,18.335c1.271,2.291,3.41,3.706,6.186,4.094
				c0.214,0.03,0.432,0.054,0.655,0.07c8.075,0.639,10.182-4.664,12.039-9.344c1.943-4.895,4.146-10.442,12.956-14.304
				c9.119-3.996,14.756-14.19,13.705-24.791c-1.144-11.53-9.321-20.054-21.877-22.8c-1.162-0.254-2.313-0.462-3.421-0.616
				c-22.28-3.11-27.596,14.427-29.342,20.189c-0.987,3.253-0.591,6.515,1.115,9.183C388.18,116.454,390.946,118.235,393.938,118.652
				z M390.942,106.379c2.621-8.651,7.608-18.305,23.027-16.152c0.963,0.135,1.968,0.316,2.986,0.538
				c9.993,2.187,16.486,8.816,17.371,17.737c0.807,8.146-3.421,15.935-10.282,18.941c-10.98,4.812-13.882,12.119-16,17.456
				c-1.897,4.777-2.545,6.016-6.228,5.725c-1.394-0.119-1.977-0.718-2.252-1.214c-0.464-0.838-1.67-4.262,2.312-13.191
				c2.995-6.719,8.438-10.534,13.242-13.899c2.161-1.515,4.203-2.945,5.745-4.494c3.407-3.422,4.709-7.521,3.666-11.545
				c-1.095-4.224-4.809-7.918-9.24-9.194c-0.363-0.104-0.77-0.193-1.212-0.255c-4.692-0.655-10.803,2.027-13.873,11.521
				c-1.053,3.256-3.047,4.929-5.471,4.59c-1.345-0.188-2.593-0.994-3.337-2.159C390.844,109.916,390.314,108.448,390.942,106.379z"
				/>
		</g>
	</g>
</g>
</svg>
