<?xml version="1.0" encoding="iso-8859-1"?>
<!-- Generator: Adobe Illustrator 15.0.0, SVG Export Plug-In . SVG Version: 6.00 Build 0)  -->
<!DOCTYPE svg PUBLIC "-//W3C//DTD SVG 1.1//EN" "http://www.w3.org/Graphics/SVG/1.1/DTD/svg11.dtd" [
	<!ENTITY ns_extend "http://ns.adobe.com/Extensibility/1.0/">
	<!ENTITY ns_ai "http://ns.adobe.com/AdobeIllustrator/10.0/">
	<!ENTITY ns_graphs "http://ns.adobe.com/Graphs/1.0/">
	<!ENTITY ns_vars "http://ns.adobe.com/Variables/1.0/">
	<!ENTITY ns_imrep "http://ns.adobe.com/ImageReplacement/1.0/">
	<!ENTITY ns_sfw "http://ns.adobe.com/SaveForWeb/1.0/">
	<!ENTITY ns_custom "http://ns.adobe.com/GenericCustomNamespace/1.0/">
	<!ENTITY ns_adobe_xpath "http://ns.adobe.com/XPath/1.0/">
]>
<svg version="1.1" xmlns:x="&ns_extend;" xmlns:i="&ns_ai;" xmlns:graph="&ns_graphs;"
	 xmlns="http://www.w3.org/2000/svg" xmlns:xlink="http://www.w3.org/1999/xlink" x="0px" y="0px" width="512px" height="512px"
	 viewBox="0 0 512 512" style="enable-background:new 0 0 512 512;" xml:space="preserve">
<metadata>
	<sfw  xmlns="&ns_sfw;">
		<slices></slices>
		<sliceSourceBounds  height="512" width="512" x="94" y="94" bottomLeftOrigin="true"></sliceSourceBounds>
	</sfw>
</metadata>
<g id="&#x418;&#x437;&#x43E;&#x431;&#x440;&#x430;&#x436;&#x435;&#x43D;&#x438;&#x435;_xA0_17_1_">
	<g id="&#x417;&#x430;&#x43B;&#x438;&#x432;&#x43A;&#x430;_&#x446;&#x432;&#x435;&#x442;&#x43E;&#x43C;_1">
		<g>
			<rect x="3.699" y="4.439" style="fill-rule:evenodd;clip-rule:evenodd;fill:#B17D7B;" width="503.121" height="503.121"/>
		</g>
	</g>
	<g id="&#x417;&#x430;&#x43B;&#x438;&#x432;&#x43A;&#x430;_&#x446;&#x432;&#x435;&#x442;&#x43E;&#x43C;_5">
		<g>
			<path style="fill-rule:evenodd;clip-rule:evenodd;fill:#F3D4C3;" d="M484.624,25.156l20.717-20.717H3.699l20.717,20.717H484.624z
				 M24.416,486.844L3.699,507.561h501.642l-20.717-20.717H24.416z"/>
		</g>
	</g>
	
		<g id="&#x417;&#x430;&#x43B;&#x438;&#x432;&#x43A;&#x430;_&#x446;&#x432;&#x435;&#x442;&#x43E;&#x43C;_1_&#x43A;&#x43E;&#x43F;&#x438;&#x44F;_2">
		<g>
			<radialGradient id="SVGID_1_" cx="256.7402" cy="256" r="228.0762" gradientUnits="userSpaceOnUse">
				<stop  offset="0" style="stop-color:#95584F"/>
				<stop  offset="0.2" style="stop-color:#95584F"/>
				<stop  offset="0.4182" style="stop-color:#91524C"/>
				<stop  offset="0.6121" style="stop-color:#7B3F3C"/>
				<stop  offset="0.7636" style="stop-color:#5A292A"/>
				<stop  offset="0.897" style="stop-color:#3D1B1D"/>
				<stop  offset="1" style="stop-color:#2D1316"/>
			</radialGradient>
			<polygon style="fill-rule:evenodd;clip-rule:evenodd;fill:url(#SVGID_1_);" points="432.765,27.924 78.856,27.924 28.664,78.116 
				28.664,435.769 76.972,484.076 433.367,484.076 484.816,432.627 484.816,79.976 			"/>
		</g>
	</g>
	
		<g id="&#x417;&#x430;&#x43B;&#x438;&#x432;&#x43A;&#x430;_&#x446;&#x432;&#x435;&#x442;&#x43E;&#x43C;_1_&#x43A;&#x43E;&#x43F;&#x438;&#x44F;">
		<g>
			<path style="fill-rule:evenodd;clip-rule:evenodd;fill:#F2D2C0;" d="M25.109,24.37v463.26h463.26V24.37H25.109z M466.659,418.566
				l-47.353,47.353H91.283l-44.462-44.462V92.277l46.196-46.196h325.734l47.908,47.907V418.566z"/>
		</g>
	</g>
	<g id="&#x424;&#x438;&#x433;&#x443;&#x440;&#x430;_3">
		<g>
			<path style="fill-rule:evenodd;clip-rule:evenodd;fill:#A18180;" d="M429.873,25.156l-344.047-1.48l-62.15,62.891v342.566
				l59.931,59.19l344.046-0.739l59.931-59.191V84.347L429.873,25.156z M477.226,423.954l-56.231,54.751H91.006l-56.231-54.751
				V88.046l54.012-54.012h334.428l54.751,56.231L477.226,423.954z"/>
		</g>
	</g>
	<g id="&#x417;&#x430;&#x43B;&#x438;&#x432;&#x43A;&#x430;_&#x446;&#x432;&#x435;&#x442;&#x43E;&#x43C;_6">
		<g>
			<path style="fill-rule:evenodd;clip-rule:evenodd;fill:#C7907F;" d="M23.676,86.566l62.52-62.752l-62.52-0.139V86.566z
				 M487.584,23.63l-62.521,0.139l62.521,62.752V23.63z M22.196,488.37l62.521-0.139l-62.521-62.752V488.37z M425.803,488.971
				l62.521,0.139v-62.89L425.803,488.971z"/>
		</g>
	</g>
	
		<g id="&#x417;&#x430;&#x43B;&#x438;&#x432;&#x43A;&#x430;_&#x446;&#x432;&#x435;&#x442;&#x43E;&#x43C;_6_&#x43A;&#x43E;&#x43F;&#x438;&#x44F;">
		<g>
			<path style="fill-rule:evenodd;clip-rule:evenodd;fill:#FDECE7;" d="M27.964,485.886l56.753,2.346L55.27,458.579L27.964,485.886z
				 M54.694,55.434l31.502-31.619l-59.314,3.562L54.694,55.434z M425.803,488.971l59.314-3.113l-28.158-28.158L425.803,488.971z
				 M485.117,26.582l-60.054-2.813l31.376,31.491L485.117,26.582z"/>
		</g>
	</g>
	<g id="&#x424;&#x438;&#x433;&#x443;&#x440;&#x430;_1">
		<g>
			<path style="fill-rule:evenodd;clip-rule:evenodd;fill:#C7907F;" d="M34.774,487.769l0.093-9.156h-8.417L34.774,487.769z
				 M477.04,477.873l0.093,9.155l8.323-9.155H477.04z M476.393,25.804l-0.092,9.156h8.416L476.393,25.804z M26.451,34.96h8.417
				l-0.093-9.156L26.451,34.96z"/>
		</g>
	</g>
	<g id="&#x424;&#x438;&#x433;&#x443;&#x440;&#x430;_2">
		<g>
			<path style="fill-rule:evenodd;clip-rule:evenodd;fill:#FDECE7;" d="M22.597,480.813L9.026,497.72l-1.627,10.285l22.418-0.296
				l0.532-18.644l-3.492-6.957L22.597,480.813z M508.448,495.817l-18.855-14.581l-4.261,4.043l-3.068,4.209l2.646,16.529
				l23.688,1.353L508.448,495.817z M21.002,31.648l4.26-1.295l3.492-6.956L28.222,4.754L5.803,4.458l1.628,10.284L21.002,31.648z
				 M487.997,31.226l18.856-14.581l0.147-11.553l-23.687,1.353l-2.646,16.53l3.069,4.208L487.997,31.226z"/>
		</g>
	</g>
	<g id="&#x417;&#x430;&#x43B;&#x438;&#x432;&#x43A;&#x430;_&#x446;&#x432;&#x435;&#x442;&#x43E;&#x43C;_2">
		<g>
			<path style="fill-rule:evenodd;clip-rule:evenodd;fill:#2F181B;" d="M0,0v512h512V0H0z M503.121,503.121H8.878V8.879h494.243
				V503.121z"/>
		</g>
	</g>
	<g id="&#x417;&#x430;&#x43B;&#x438;&#x432;&#x43A;&#x430;_&#x446;&#x432;&#x435;&#x442;&#x43E;&#x43C;_3">
		<g>
			<path style="fill-rule:evenodd;clip-rule:evenodd;fill:#40292E;" d="M482.33,20.67H29.346l-9.369,9.369v397.468
				c-0.119,0.585-0.119,1.188,0,1.771v53.925l9.606,9.605h453.025l9.507-9.507V30.455L482.33,20.67z M28.855,34.183l4.633-4.634
				h40.974L28.855,75.156V34.183z M33.726,483.931l-4.871-4.871v-39.857l44.728,44.729H33.726z M483.237,479.158l-4.772,4.772
				H437.63l45.607-45.607V479.158z M483.237,425.769l-58.162,58.162H86.139l-57.283-57.283V87.711l58.162-58.162h338.058
				l58.162,58.162V425.769z M483.237,75.156L437.63,29.549h40.558l5.05,5.05V75.156z"/>
		</g>
	</g>
	
		<g id="&#x417;&#x430;&#x43B;&#x438;&#x432;&#x43A;&#x430;_&#x446;&#x432;&#x435;&#x442;&#x43E;&#x43C;_4_&#x43A;&#x43E;&#x43F;&#x438;&#x44F;" style="opacity:0.502;">
		<g>
			<path style="fill-rule:evenodd;clip-rule:evenodd;fill:#876867;" d="M465.59,92.913l-47.243-47.244
				c-0.685-0.685-1.612-1.068-2.579-1.068H94.545c-0.968,0-1.896,0.384-2.58,1.068L46.409,91.227
				c-0.684,0.684-1.069,1.611-1.069,2.579v324.619c0,0.968,0.385,1.896,1.069,2.579l43.847,43.847
				c0.684,0.684,1.612,1.068,2.579,1.068h323.479c0.968,0,1.896-0.385,2.579-1.068l46.696-46.696
				c0.685-0.685,1.069-1.612,1.069-2.58V95.493C466.659,94.525,466.274,93.598,465.59,92.913z M459.363,414.063l-44.56,44.56H94.346
				l-41.709-41.709V95.316l43.419-43.419h318.201l45.106,45.106V414.063z"/>
		</g>
	</g>
	<g id="&#x417;&#x430;&#x43B;&#x438;&#x432;&#x43A;&#x430;_&#x446;&#x432;&#x435;&#x442;&#x43E;&#x43C;_4">
		<g>
			<path style="fill-rule:evenodd;clip-rule:evenodd;fill:#40292E;" d="M468.534,90.633l-47.907-47.907
				c-0.693-0.694-1.635-1.084-2.615-1.084H92.277c-0.981,0-1.922,0.39-2.616,1.084L43.465,88.922
				c-0.693,0.693-1.083,1.635-1.083,2.615v329.18c0,0.981,0.39,1.922,1.083,2.615l44.463,44.463
				c0.694,0.693,1.634,1.084,2.615,1.084h328.023c0.981,0,1.922-0.391,2.615-1.084l47.353-47.353
				c0.694-0.694,1.084-1.635,1.084-2.616V93.248C469.618,92.268,469.229,91.326,468.534,90.633z M462.22,416.295l-45.186,45.185
				H92.075L49.78,419.185V93.07l44.029-44.03h322.67l45.74,45.741V416.295z"/>
		</g>
	</g>
</g>
<g id="&#x413;&#x440;&#x443;&#x43F;&#x43F;&#x430;_53_1_">
	<g id="&#x424;&#x438;&#x433;&#x443;&#x440;&#x430;_280_&#x43A;&#x43E;&#x43F;&#x438;&#x44F;_2" style="opacity:0.502;">
		<g>
			<path style="fill-rule:evenodd;clip-rule:evenodd;fill:#2D1316;" d="M438.675,197.819c-1.042-13.907-14.271-23.879-25.943-24.436
				c-17.519-0.835-54.944-0.845-98.005-0.104c-2.082-2.006-8.512-8.021-13.457-10.71l22.107-19.61
				c1.715,0.389,3.525,0.595,5.42,0.533c10.385-0.339,19.006-7.787,19.199-16.625c0.192-8.863-8.16-15.783-18.6-15.403
				c-10.413,0.378-18.979,7.882-19.117,16.704c-0.025,1.664,0.252,3.257,0.785,4.746l-19.797,25.627
				c-5.742-1.632-12.617-2.546-20.809-1.992c-9.313,0.633-16.706,2.578-22.503,5.004l-61.765-60.195
				c0.37-1.29,0.573-2.629,0.568-4.003c-0.038-9.099-8.793-16.166-19.492-15.73c-10.671,0.434-19.256,8.172-19.163,17.227
				c0.093,9.028,8.786,16.037,19.401,15.647c2.021-0.074,3.969-0.413,5.799-0.973l64.317,53.865
				c-2.521,1.873-6.214,6.175-7.885,8.185c-64.715,2.424-122.326,6.271-126.485,6.72c-10.827,1.17-23.15,11.444-24.287,24.828
				c-1.2,14.123,5.519,224.699,5.519,224.699c0.904,11.247,15.901,20.59,27.753,20.851c1.187,0.026,10.116,0.079,23.92,0.147
				l42.12,0.191c22.945,0.099,49.37,0.207,74.975,0.308c27.02,0.106,55.328,0.213,79.789,0.299l44.148,0.144
				c12.674,0.036,20.803,0.051,21.97,0.035c12.729-0.173,29.073-9.779,30.219-21.49
				C429.378,432.308,439.686,211.295,438.675,197.819z"/>
		</g>
	</g>
	<g id="&#x424;&#x438;&#x433;&#x443;&#x440;&#x430;_280_&#x43A;&#x43E;&#x43F;&#x438;&#x44F;">
		<g>
			<path style="fill-rule:evenodd;clip-rule:evenodd;fill:#DD7C6C;" d="M181.471,81.331c1.585,0,3.101-0.265,4.518-0.729
				l59.618,58.167c-6.022,4.199-8.28,8.601-8.28,8.601l67.491,0.726c0,0-4.18-7.35-13.765-12.328l23.167-21.893
				c1.434,0.534,2.984,0.839,4.612,0.839c7.089,0,12.836-5.554,12.836-12.405s-5.747-12.405-12.836-12.405
				s-12.836,5.554-12.836,12.405c0,1.095,0.161,2.15,0.437,3.161l-19.923,28.303c-4.579-1.666-10.073-2.712-16.621-2.438
				c-8.237,0.346-14.577,2.22-19.388,4.57l-56.157-62.97c0.567-1.418,0.892-2.948,0.892-4.553c0-7.151-6.163-12.949-13.766-12.949
				s-13.766,5.798-13.766,12.949S173.869,81.331,181.471,81.331z M407.006,173.495c-1.043-10.976-10.207-19.613-18.143-20.319
				c-73.605-6.548-194.3-6.202-264.02,0c-7.936,0.706-17.1,9.344-18.143,20.319c-1.043,10.977,0.307,229.186,0.589,234.811
				c0.499,9.934,12.655,18.324,21.136,18.506c1.2,0.025,11.199,0.046,26.606,0.062l-10.595,30.372h18.868l18.143-8.708l5.88-21.641
				c42.958,0.021,100.729,0.02,142.791-0.002l4.951,21.37l18.37,8.98h18.868l-10.596-30.375c13.67-0.016,22.448-0.035,23.567-0.059
				c8.481-0.182,20.638-8.572,21.136-18.506C406.699,402.681,408.049,184.472,407.006,173.495z"/>
		</g>
	</g>
	<g id="&#x424;&#x438;&#x433;&#x443;&#x440;&#x430;_289">
		<g>
			<path style="fill-rule:evenodd;clip-rule:evenodd;fill:#A15962;" d="M381.021,414.803c-27.81,0.071-75.875-0.579-124.09-0.12
				c-40.871,0.39-81.041,0.693-107.281-0.587c4.676-2.492,7.85-7.339,7.85-12.911c0-1.795-0.346-3.507-0.948-5.097
				c24.972,4.712,59.638,5.567,94.067,5.083c24.241-0.342,47.617-0.935,67.89-2.032c-0.169,0.781-0.266,1.585-0.266,2.409
				c0,7.114,6.578,12.881,14.695,12.881c8.115,0,14.695-5.767,14.695-12.881c0-1.588-0.344-3.102-0.943-4.507
				c0.94-0.095,1.847-0.195,2.76-0.295c-0.287,1.083-0.456,2.209-0.456,3.373c0,7.903,7.006,14.31,15.648,14.31
				c8.642,0,15.647-6.406,15.647-14.31c0-3.193-1.158-6.133-3.091-8.514c4.386-1.529,7.077-3.295,7.672-5.343
				c3.175-10.931-0.227-30.615-0.227-30.615s-1.497,13.606-5.806,17.416c-4.309,3.811-63.95,8.848-126.083,9.03
				c-61.231,0.18-106.188-0.639-115.168-6.762s-8.215-5.844-9.981-19.134c-2.023-15.216-3.169-41.014-4.031-65.146
				c-1.343-37.594-2.5-80.682-1.678-103.822c0.388-10.933,3.988-7.476,2.945-16.638c-11.947-3.982-11.696,51.791-10.417,108.829
				c1.081,48.198,3.613,93.1,7.106,99.766c2.112,4.03,6.315,7.355,12.124,10.105c-3.768,2.67-6.228,6.995-6.228,11.892
				c0,4.78,2.346,9.015,5.962,11.698c-8.027-0.906-12.948-2.166-13.718-3.896c-6.758-15.194-9.473-81.304-9.57-96.292
				c-4.461,0.192-4.147,38.081-3.583,62.024c0.479,20.316-3.152,36.975,6.713,46.241c4.044,3.799,18.887,5.261,39.79,5.691
				l-3.505,12.089l17.145,1.043l-3.266,15.421l17.689-8.3l5.687-20.202c18.161-0.187,38.227-0.578,58.553-0.716
				c28.747-0.196,58.513-0.199,84.168-0.061l3.628,21.16l17.416,8.708l-2.902-13.788l19.639,0.091l-4.553-15.883
				c10.076,0.129,18.58,0.285,24.901,0.464c15.754,0.446,16.799-19.597,16.799-19.597S394.907,414.768,381.021,414.803z"/>
		</g>
	</g>
	<g id="&#x424;&#x438;&#x433;&#x443;&#x440;&#x430;_288">
		<g>
			<path style="fill-rule:evenodd;clip-rule:evenodd;fill:#FFC088;" d="M406.452,179.31c-0.108-9.268-0.489-14.205-10.74-24.863
				c-5.991-6.23-135.155-4.901-219.038-3.655c-56.17,0.835-69.973-2.469-71.379,26.061c2.407-3.542,10.885-12.867,19.416-14.258
				c34.772-5.667,95.839-4.801,155.057-5.162c67.586-0.412,109.368,3.273,114.72,7.99c5.353,4.717,2.544,195.826-0.869,246.073
				c-0.509,7.486-10.923,16.087-10.923,16.087s9.544-3.132,15.637-8.319c4.915-4.184,6.633-10.64,6.633-10.64
				S407.075,232.77,406.452,179.31z"/>
		</g>
	</g>
	<g id="&#x424;&#x438;&#x433;&#x443;&#x440;&#x430;_280">
		<g>
			<path style="fill-rule:evenodd;clip-rule:evenodd;fill:#887491;" d="M318.833,89.903c-7.089,0-12.836,5.554-12.836,12.405
				c0,1.095,0.161,2.15,0.437,3.161l-19.923,28.303c-4.579-1.666-10.073-2.712-16.621-2.438c-8.237,0.346-14.577,2.22-19.388,4.57
				l-56.157-62.97c0.567-1.418,0.892-2.948,0.892-4.553c0-7.151-6.163-12.949-13.766-12.949s-13.766,5.798-13.766,12.949
				s6.163,12.949,13.766,12.949c1.585,0,3.101-0.265,4.518-0.729l59.618,58.167c-6.022,4.199-8.28,8.601-8.28,8.601l67.491,0.726
				c0,0-4.18-7.35-13.765-12.328l23.167-21.893c1.434,0.534,2.984,0.839,4.612,0.839c7.089,0,12.836-5.554,12.836-12.405
				S325.922,89.903,318.833,89.903z"/>
		</g>
	</g>
	<g id="&#x424;&#x438;&#x433;&#x443;&#x440;&#x430;_282">
		<g>
			<path style="fill-rule:evenodd;clip-rule:evenodd;fill:#A3B8CF;" d="M278.451,132.04c-7.482,0-13.547,4.298-13.547,9.601
				c0,5.302,6.7,5.155,14.182,5.155s12.911,0.146,12.911-5.155C291.997,136.338,285.932,132.04,278.451,132.04z M181.706,54.511
				c-5.603,0-10.145,4.217-10.145,9.419s4.542,9.419,10.145,9.419c5.603,0,10.145-4.217,10.145-9.419S187.308,54.511,181.706,54.511
				z M190.913,77.673c0,0,60.173,66.825,63.348,65.343c3.175-1.481-59.992-70.151-59.992-70.151L190.913,77.673z M320.33,90.19
				c-4.927,0-8.92,3.812-8.92,8.513c0,4.7,3.993,8.512,8.92,8.512c4.926,0,8.92-3.812,8.92-8.512
				C329.25,94.002,325.256,90.19,320.33,90.19z M289.518,133.643c2.328,1.814,22.315-18.203,22.315-18.203h-7.257
				C304.576,115.439,287.189,131.828,289.518,133.643z"/>
		</g>
	</g>
	<g id="&#x424;&#x438;&#x433;&#x443;&#x440;&#x430;_283">
		<g>
			<path style="fill-rule:evenodd;clip-rule:evenodd;fill:#F2E9BF;" d="M182.431,59.862c-2.797,0-5.065,2.044-5.065,4.566
				c0,2.521,2.268,4.565,5.065,4.565s5.065-2.044,5.065-4.565C187.496,61.906,185.229,59.862,182.431,59.862z M192.032,76.101
				c0,0,59.568,65.797,62.38,66.341s-58.691-70.061-58.691-70.061L192.032,76.101z M279.056,136.545
				c-3.14,0-5.685,1.882-5.685,4.203s2.545,4.203,5.685,4.203s5.685-1.882,5.685-4.203S282.195,136.545,279.056,136.545z
				 M322.039,93.033c-2.381,0-4.31,2.2-4.31,4.914c0,2.713,1.929,4.913,4.31,4.913c2.379,0,4.309-2.2,4.309-4.913
				C326.348,95.233,324.418,93.033,322.039,93.033z"/>
		</g>
	</g>
	
		<g id="&#x417;&#x430;&#x43B;&#x438;&#x432;&#x43A;&#x430;_&#x446;&#x432;&#x435;&#x442;&#x43E;&#x43C;_171_&#x43A;&#x43E;&#x43F;&#x438;&#x44F;_3">
		<g>
			<path style="fill-rule:evenodd;clip-rule:evenodd;fill:#67596C;" d="M318.199,86.161c-8.678,0-15.738,6.867-15.738,15.308
				c0,1.595,0.254,3.133,0.721,4.579l-16.377,24.109c-4.879-1.756-10.719-2.851-17.67-2.563c-7.921,0.332-14.216,2.002-19.156,4.191
				l-52.974-60.413c0.322-1.228,0.502-2.509,0.502-3.831c0-8.741-7.478-15.852-16.669-15.852c-9.191,0-16.668,7.11-16.668,15.852
				s7.477,15.853,16.668,15.853c1.748,0,3.432-0.26,5.016-0.736l55.297,54.523c-2.867,2.339-7.507,8.825-7.507,8.825l73.766-0.177
				c0,0-7.007-8.135-12.099-11.468l18.34-18.269c1.443,0.428,2.963,0.683,4.549,0.683c8.68,0,15.739-6.867,15.739-15.308
				S326.879,86.161,318.199,86.161z M180.837,77.589c-5.99,0-10.863-4.507-10.863-10.047s4.873-10.046,10.863-10.046
				c5.99,0,10.863,4.506,10.863,10.046S186.828,77.589,180.837,77.589z M249.946,142.798c0,0,0.835-2.234-0.021-3.079L190.088,80.72
				c2.017-1.285,3.7-2.992,4.967-4.966l58.508,66.724c0.413,0.471,1.563,0.727,1.563,0.727L249.946,142.798z M297.537,142.969
				c-13.227-0.255-26.882,0.231-40.818,0.231c-2.895,0-0.886,0.182-0.084-0.521c0.904-0.793,0.994-2.169,0.201-3.072l-2.812-3.207
				c4.063-1.569,9.11-2.744,15.353-3.006C283.859,132.796,292.829,138.289,297.537,142.969z M291.383,132.131
				c-0.162-0.082-0.326-0.16-0.49-0.24l14.576-21.458c1.086,1.454,2.428,2.715,3.959,3.724L291.383,132.131z M318.199,110.971
				c-0.664,0-1.313-0.065-1.941-0.185c-0.055-0.07-0.08-0.153-0.145-0.218c-0.584-0.588-1.415-0.742-2.158-0.521
				c-3.356-1.526-5.688-4.793-5.688-8.578c0-5.239,4.456-9.502,9.933-9.502s9.934,4.263,9.934,9.502
				S323.676,110.971,318.199,110.971z"/>
		</g>
	</g>
	<g id="&#x417;&#x430;&#x43B;&#x438;&#x432;&#x43A;&#x430;_&#x446;&#x432;&#x435;&#x442;&#x43E;&#x43C;_174">
		<g>
			<path style="fill-rule:evenodd;clip-rule:evenodd;fill:#90BBB0;" d="M181.539,406.446h133.439v-15.92H181.539V406.446z
				 M148.361,387.986c-6.901,0-12.496,5.595-12.496,12.495c0,6.901,5.595,12.496,12.496,12.496c6.901,0,12.496-5.595,12.496-12.496
				C160.856,393.581,155.262,387.986,148.361,387.986z M385.507,172.951c-5.364-7.443-69.91-7.473-131.483-7.279
				c-63.36,0.199-123.772,0.818-127.729,7.098c-3.619,5.745-3.622,44.53-2.725,87.837c1.037,50.036,3.102,106.018,9.982,113.184
				c14.242,14.831,232.542,9.389,246.739-0.091c7.22-4.821,7.717-53.4,8.328-101.392
				C389.211,225.933,390.856,180.374,385.507,172.951z M339.947,387.986c-6.902,0-12.496,5.595-12.496,12.495
				c0,6.901,5.594,12.496,12.496,12.496c6.9,0,12.495-5.595,12.495-12.496C352.442,393.581,346.848,387.986,339.947,387.986z
				 M370.426,387.986c-6.9,0-12.495,5.595-12.495,12.495c0,6.901,5.595,12.496,12.495,12.496c6.901,0,12.496-5.595,12.496-12.496
				C382.922,393.581,377.327,387.986,370.426,387.986z"/>
		</g>
	</g>
	<g id="&#x424;&#x438;&#x433;&#x443;&#x440;&#x430;_287">
		<g>
			<path style="fill-rule:evenodd;clip-rule:evenodd;fill:#F2E9BF;" d="M180.904,397.738h132.622v-8.346H180.904V397.738z
				 M342.85,388.984c-4.646,0-8.414,4.396-8.414,9.819s3.768,9.819,8.414,9.819s8.413-4.396,8.413-9.819
				S347.496,388.984,342.85,388.984z M151.468,388.485c-4.534,0-8.209,4.183-8.209,9.343s3.676,9.344,8.209,9.344
				c4.534,0,8.209-4.184,8.209-9.344S156.002,388.485,151.468,388.485z M374.077,387.215c-4.233,0-7.665,5.28-7.665,11.793
				s3.432,11.793,7.665,11.793s7.665-5.28,7.665-11.793S378.311,387.215,374.077,387.215z M379.597,168.834
				c-29.192-5.319-83.756-5.15-136.345-4.205c-42.858,0.771-84.725-0.214-107.535,1.989c-2.971,0.287-10.873,2.478-9.149,7.513
				c-0.251,7.599,16.678,1.817,43.291,0.517c23.128-1.13,55.386-1.523,85.448-1.79c59.592-0.529,109.337,1.297,118.817,8.258
				c6.385,4.689,4.021,40.311,4.241,87.891c0.22,47.432-8.042,102.313,2.063,103.56c0.953-2.087,4.326-6.89,4.723-17.013
				c1.75-44.628,2.398-164.641,2.398-164.641S389.442,170.629,379.597,168.834z M368.227,336.008c0,0,1.337,20.043-8.93,21.84
				c-22.82,3.995-63.014,6.386-104.582,5.847c-35.856-0.464-73.351-3.491-94.322-5.016c-7.036-0.512-13.29-4.792-17.299-8.28
				c-1.491-13.196-5.187-49.28-5.334-84.009c-0.096-22.775-0.28-47.062,1.152-62.59c1.213-13.151,4.073-19.419,4.073-19.419
				s-6.973-2.864-10.506,15.9c-2.127,11.301-1.047,40.514-1.532,54.501c-1.228,35.429,2.377,75.346,6.115,94.768
				c0.147,0.764,0.313,1.437,0.492,2.045c-0.114,5.586,2.114,13.425,14.994,15.019c23.983,2.967,63.909,2.729,102.193,2.783
				c40.421,0.057,80.276,0.03,102.339-3.414C382.624,361.995,368.227,336.008,368.227,336.008z"/>
		</g>
	</g>
	<g id="&#x417;&#x430;&#x43B;&#x438;&#x432;&#x43A;&#x430;_&#x446;&#x432;&#x435;&#x442;&#x43E;&#x43C;_172">
		<g>
			<path style="fill-rule:evenodd;clip-rule:evenodd;fill:#181A3B;" d="M366.004,185.288c-7.802-6.804-214.4-7.075-222.791,0.681
				c-8.391,7.756-5.307,161.877,2.268,169.996c7.574,8.118,210.227,12.109,219.797-0.499
				C374.849,342.856,373.805,192.092,366.004,185.288z"/>
		</g>
	</g>
	<g id="&#x424;&#x438;&#x433;&#x443;&#x440;&#x430;_286">
		<g>
			<path style="fill-rule:evenodd;clip-rule:evenodd;fill:#272544;" d="M227.168,180.208c0,0-79.767,0.847-84.907,4.778
				c-5.141,3.931-4.596,69.304-4.596,69.304s6.804-55.29,11.581-61.458C154.023,186.663,227.168,180.208,227.168,180.208z
				 M358.456,193.834c4.475,5.836,13.429,69.195,13.429,69.195s-1.814-74.876-6.229-78.263c-4.415-3.387-81.975-5.436-81.975-5.436
				S353.98,187.998,358.456,193.834z M369.995,270.286c0-50.575-51.914-91.574-115.954-91.574s-115.954,40.999-115.954,91.574
				s51.914,91.575,115.954,91.575S369.995,320.861,369.995,270.286z M275.064,361.694c0,0,85.936-0.453,89.987-7.257
				s6.289-74.506,6.289-74.506s-6.341,60.652-13.325,67.426C351.03,354.131,275.064,361.694,275.064,361.694z M138.647,279.932
				c0,0,2.238,67.702,6.29,74.506s89.987,7.257,89.987,7.257s-75.966-7.563-82.951-14.337S138.647,279.932,138.647,279.932z"/>
		</g>
	</g>
	<g id="&#x424;&#x438;&#x433;&#x443;&#x440;&#x430;_284">
		<g>
			<ellipse style="fill-rule:evenodd;clip-rule:evenodd;fill:#3B3354;" cx="254.541" cy="271.239" rx="98.9" ry="81.505"/>
		</g>
	</g>
	<g id="&#x424;&#x438;&#x433;&#x443;&#x440;&#x430;_285">
		<g>
			<ellipse style="fill-rule:evenodd;clip-rule:evenodd;fill:#543A5C;" cx="255.357" cy="271.647" rx="71.005" ry="62.229"/>
		</g>
	</g>
	<g id="&#x417;&#x430;&#x43B;&#x438;&#x432;&#x43A;&#x430;_&#x446;&#x432;&#x435;&#x442;&#x43E;&#x43C;_171">
		<g>
			<path style="fill-rule:evenodd;clip-rule:evenodd;fill:#5E3A50;" d="M410.707,172.244c-1.277-13.441-12.453-23.388-22.092-24.245
				c-23.054-2.051-88.084-3.517-148.486-3.071c-58.368,0.43-112.484,2.731-116.305,3.071c-9.638,0.857-20.814,10.804-22.091,24.245
				c-1.24,13.048,0.496,233.861,0.575,235.44c0.615,12.253,14.394,22.404,25.392,22.64c1.1,0.023,9.365,0.043,22.107,0.058
				l-8.744,25.067c-0.31,0.889-0.171,1.871,0.374,2.638c0.544,0.767,1.426,1.222,2.367,1.222h18.868
				c0.141,0,0.279-0.027,0.417-0.047c0.103,0.011,0.207,0.048,0.309,0.048c0.895,0,1.734-0.426,2.281-1.128l16.391-7.868
				c0.765-0.367,1.33-1.049,1.549-1.868l4.809-18.035c20.876,0.01,44.775,0.015,67.792,0.015c24.135,0,49.256-0.005,70.828-0.016
				l4.811,18.036c0.218,0.819,0.783,1.501,1.549,1.868l16.391,7.867c0.547,0.703,1.387,1.129,2.28,1.129
				c0.104,0,0.207-0.037,0.31-0.048c0.139,0.02,0.277,0.047,0.418,0.047h18.868c0.939,0,1.823-0.455,2.367-1.222
				s0.684-1.749,0.374-2.638l-8.745-25.071c11.014-0.015,18.06-0.032,19.069-0.054c10.998-0.235,24.776-10.387,25.392-22.639
				C410.211,406.106,411.834,184.091,410.707,172.244z M161.273,453.503h-13.382l8.063-23.114c3.917,0.004,8.153,0.007,12.646,0.011
				L161.273,453.503z M178.354,445.659l-10.03,4.813l6.364-20.069c2.515,0.001,5.091,0.003,7.732,0.004L178.354,445.659z
				 M337.125,445.659l-4.067-15.253c2.647-0.002,5.224-0.004,7.731-0.005l6.365,20.071L337.125,445.659z M367.589,453.503h-13.384
				l-7.326-23.106c4.526-0.003,8.765-0.007,12.645-0.011L367.589,453.503z M401.435,407.248
				c-0.383,7.605-10.641,14.237-16.882,14.37c-3.185,0.068-68.757,0.099-128.332,0.099c-59.576,0-125.148-0.03-128.334-0.099
				c-6.24-0.133-16.499-6.765-16.88-14.37c-0.479-9.533-1.491-224.84-0.604-234.181c0.831-8.734,8.178-15.859,14.194-16.395
				c34.042-3.028,82.199-4.765,132.123-4.765c50.016,0,96.584,1.692,131.126,4.765c6.016,0.535,13.363,7.66,14.193,16.395
				C402.927,182.426,401.915,397.722,401.435,407.248z"/>
		</g>
	</g>
	
		<g id="&#x417;&#x430;&#x43B;&#x438;&#x432;&#x43A;&#x430;_&#x446;&#x432;&#x435;&#x442;&#x43E;&#x43C;_171_&#x43A;&#x43E;&#x43F;&#x438;&#x44F;">
		<g>
			<path style="fill-rule:evenodd;clip-rule:evenodd;fill:#7F566F;" d="M147.728,384.243c-8.491,0-15.398,6.908-15.398,15.398
				s6.907,15.399,15.398,15.399c8.491,0,15.398-6.909,15.398-15.399S156.218,384.243,147.728,384.243z M147.728,409.235
				c-5.29,0-9.593-4.304-9.593-9.594c0-5.289,4.303-9.593,9.593-9.593c5.29,0,9.593,4.304,9.593,9.593
				C157.32,404.932,153.017,409.235,147.728,409.235z M314.344,387.509H180.906c-1.203,0-2.177,0.976-2.177,2.178v15.92
				c0,1.202,0.975,2.177,2.177,2.177h133.438c1.203,0,2.178-0.975,2.178-2.177v-15.92
				C316.521,388.484,315.547,387.509,314.344,387.509z M312.167,403.43H183.083v-11.566h129.084V403.43z M387.817,169.99
				c-4.129-5.729-22.769-8.834-109.291-8.834c-8.335,0-16.767,0.021-25.147,0.048c-98.521,0.31-126.634,2.199-130.788,8.792
				c-2.586,4.105-4.774,17.831-3.283,89.846c1.588,76.62,4.67,109.037,10.993,115.621c8.176,8.515,62.659,10.302,106.926,10.302
				c0.007,0,0.007,0,0.013,0c52.281,0,134.33-3.143,144.432-9.888c7.867-5.252,9.061-35.101,9.911-101.957l0.031-2.405
				c0.085-6.642,0.19-13.266,0.294-19.764C392.672,204.218,392.857,176.985,387.817,169.99z M384.654,251.635
				c-0.105,6.506-0.212,13.138-0.297,19.787l-0.029,2.406c-0.291,22.752-0.59,46.278-1.651,64.315
				c-1.566,26.627-4.288,31.021-5.035,31.698c-6.001,4.008-68.636,8.666-140.398,8.666h-0.016c-74.157,0-98.814-5.073-101.692-8.071
				c-0.876-0.911-3.909-6.365-6.181-38.26c-1.629-22.886-2.373-52.33-2.791-72.485c-1.331-64.221,0.349-82.138,2.049-85.609
				c7.766-5.254,83.804-5.492,124.788-5.621c8.374-0.026,16.798-0.048,25.125-0.048c24.042,0,97.206,0,103.403,5.819
				C385.81,179.616,385.195,217.877,384.654,251.635z M369.793,384.243c-7.78,0-14.215,5.807-15.24,13.311
				c-1.024-7.504-7.459-13.311-15.24-13.311c-8.49,0-15.398,6.908-15.398,15.398s6.908,15.399,15.398,15.399
				c7.781,0,14.216-5.807,15.24-13.311c1.025,7.504,7.46,13.311,15.24,13.311c8.489,0,15.398-6.909,15.398-15.399
				S378.282,384.243,369.793,384.243z M339.313,409.235c-5.289,0-9.592-4.304-9.592-9.594c0-5.289,4.303-9.593,9.592-9.593
				c5.291,0,9.594,4.304,9.594,9.593C348.906,404.932,344.604,409.235,339.313,409.235z M369.793,409.235
				c-5.29,0-9.593-4.304-9.593-9.594c0-5.289,4.303-9.593,9.593-9.593c5.289,0,9.593,4.304,9.593,9.593
				C379.386,404.932,375.082,409.235,369.793,409.235z"/>
		</g>
	</g>
	
		<g id="&#x417;&#x430;&#x43B;&#x438;&#x432;&#x43A;&#x430;_&#x446;&#x432;&#x435;&#x442;&#x43E;&#x43C;_171_&#x43A;&#x43E;&#x43F;&#x438;&#x44F;_2">
		<g>
			<path style="fill-rule:evenodd;clip-rule:evenodd;fill:#847486;" d="M373.699,267.357c-0.013-13.125-0.407-78.89-6.897-84.55
				c-6.174-5.385-93.004-5.657-110.347-5.657c-25.442,0-108.949,0.461-115.353,6.38c-1.199,1.107-4.004,3.7-5.214,36.384
				c-1.529,41.319,0.583,129.424,7.368,136.696c6.297,6.749,93.642,8.269,123.744,8.269c0.005,0,0.004,0,0.01,0
				c42.239,0,93.763-1.551,99.37-8.937C373.42,346.664,373.712,280.522,373.699,267.357z M362.911,353.309
				c-2.035,2.681-24.524,7.218-95.911,7.217c-63.865,0-116.356-3.667-120.553-6.878c-2.583-3.109-5.735-35.192-6.541-83.497
				c-0.838-50.258,1.522-80.5,4.108-83.388c3.58-2.549,44.204-5.258,112.44-5.258c64.662,0,103.497,2.361,107.485,4.599
				c2.604,3.397,5.398,35.614,5.404,82.197C369.352,313.353,366.705,348.31,362.911,353.309z"/>
		</g>
	</g>
	<g id="&#x432;&#x435;&#x440;&#x435;&#x442;&#x435;&#x43D;&#x43E;_&#x422;&#x412;_&#x43A;&#x43E;&#x43F;&#x438;&#x44F;">
		<g>
			<path style="fill-rule:evenodd;clip-rule:evenodd;fill:#F7ECBF;" d="M321.273,241.936c0,16.896,25.013,16.896,25.013,0
				C346.286,225.075,321.273,225.075,321.273,241.936z M327.684,241.936c0-8.778,12.228-8.778,12.228,0
				C339.911,250.784,327.684,250.784,327.684,241.936z M205.315,248.555h-9.336v-4.285h8.291v-5.539h-8.291v-3.448h9.022v-5.574
				h-15.224v24.386h15.538V248.555z M181.977,241.413c1.185-0.976,1.917-2.752,1.917-4.215c0-4.216-3.379-7.49-7.595-7.49h-10.416
				v24.386h11.427c4.981,0,7.56-3.449,7.594-7.699C184.903,244.235,183.963,242.424,181.977,241.413z M171.909,235.282h3.902
				c2.508,0,2.508,3.937,0.035,3.937h-3.937V235.282z M176.891,248.555h-4.981v-4.146h4.947
				C179.364,244.409,179.399,248.555,176.891,248.555z M216.914,247.858h4.494c11.67,0,11.67-18.115,0-18.15h-10.73v24.386h6.236
				V247.858z M216.914,235.282c1.428,0,2.996-0.035,4.459,0c3.623,0.034,3.414,6.967,0,6.967h-4.459V235.282z M292.346,294.008
				h9.252v-18.506h-9.252V294.008z M290.865,248.555h-9.336v-4.285h8.291v-5.539h-8.291v-3.448h9.022v-5.574h-15.224v24.386h15.537
				V248.555z M310.163,238.557h-7.524v-8.849h-6.375v24.386h6.375v-9.789h7.524v9.789h6.375v-24.386h-6.375V238.557z
				 M264.587,275.502h27.759v-9.253h-37.012v64.77h37.012v-9.253h-27.759V303.26h27.759v-9.252h-27.759V275.502z M301.598,321.766
				V303.26h-9.252v18.506H301.598z M241.053,244.27h8.291v-5.539h-8.291v-3.448h9.023v-5.574h-15.224v24.386h15.537v-5.539h-9.336
				V244.27z M259.34,254.094h6.166v-18.812h5.957v-5.574h-18.115v5.574h5.992V254.094z M199.818,275.502h18.505v55.517h9.252
				v-55.517h18.506v-9.253h-46.264V275.502z"/>
		</g>
	</g>
	<g id="&#x417;&#x430;&#x43B;&#x438;&#x432;&#x43A;&#x430;_&#x446;&#x432;&#x435;&#x442;&#x43E;&#x43C;_173">
		<g>
			<path style="fill-rule:evenodd;clip-rule:evenodd;fill:#6C878A;" d="M192.697,197.399c-2.177-0.211-4.354-0.326-6.531-0.318
				c-2.177-0.003-4.354,0.11-6.531,0.322c-2.177,0.214-4.354,0.528-6.531,1.129c2.177,0.6,4.354,0.915,6.531,1.128
				s4.354,0.325,6.531,0.322c2.177,0.008,4.354-0.107,6.531-0.318c2.177-0.212,4.354-0.527,6.531-1.132
				C197.051,197.928,194.874,197.612,192.697,197.399z M182.583,300.539c-1.081,0.002-2.163,0.101-3.243,0.313
				c-1.081,0.231-2.162,0.533-3.243,1.138c1.081,0.604,2.162,0.905,3.243,1.137c1.081,0.213,2.162,0.313,3.243,0.313
				c1.081,0.003,2.162-0.097,3.243-0.31c1.081-0.229,2.163-0.533,3.243-1.141c-1.081-0.608-2.162-0.912-3.243-1.142
				C184.745,300.637,183.663,300.536,182.583,300.539z M253.293,345.851c-1.028,0.001-2.056,0.101-3.084,0.313
				c-1.028,0.231-2.056,0.532-3.084,1.137c1.028,0.604,2.056,0.906,3.084,1.138c1.028,0.213,2.056,0.312,3.084,0.313
				c1.028,0.003,2.056-0.098,3.084-0.31c1.029-0.229,2.057-0.533,3.084-1.142c-1.027-0.607-2.055-0.911-3.084-1.141
				C255.349,345.947,254.321,345.848,253.293,345.851z M230.434,195.63c-0.847,0.001-1.693,0.101-2.54,0.313
				c-0.847,0.231-1.693,0.532-2.54,1.137c0.847,0.604,1.693,0.906,2.54,1.138c0.847,0.213,1.693,0.312,2.54,0.313
				c0.847,0.003,1.693-0.097,2.54-0.31c0.847-0.229,1.693-0.533,2.54-1.142c-0.847-0.607-1.693-0.911-2.54-1.141
				C232.126,195.727,231.28,195.627,230.434,195.63z M207.937,348.753c-1.936-0.003-3.87,0.11-5.806,0.323
				c-1.935,0.213-3.87,0.526-5.806,1.128c1.936,0.601,3.871,0.915,5.806,1.128c1.936,0.213,3.87,0.325,5.806,0.322
				c1.936,0.008,3.87-0.107,5.806-0.318c1.936-0.212,3.87-0.527,5.806-1.132c-1.936-0.604-3.87-0.92-5.806-1.133
				C211.807,348.861,209.872,348.745,207.937,348.753z M325.863,218.125c1.633,0.003,3.266-0.097,4.898-0.31
				c1.633-0.229,3.266-0.533,4.898-1.141c-1.633-0.608-3.266-0.912-4.898-1.142c-1.633-0.212-3.266-0.313-4.898-0.31
				c-1.633,0.002-3.266,0.101-4.898,0.313c-1.633,0.231-3.266,0.533-4.898,1.138c1.633,0.604,3.266,0.905,4.898,1.137
				C322.598,218.024,324.23,218.124,325.863,218.125z M156.412,205.063c1.089,0.003,2.177-0.097,3.266-0.31
				c1.089-0.229,2.177-0.533,3.266-1.141c-1.088-0.608-2.177-0.912-3.266-1.142c-1.088-0.213-2.177-0.313-3.266-0.31
				c-1.088,0.002-2.177,0.101-3.266,0.313c-1.088,0.231-2.177,0.533-3.266,1.138c1.088,0.604,2.177,0.905,3.266,1.137
				C154.234,204.962,155.323,205.062,156.412,205.063z M168.386,328.434c-2.963-0.003-5.927,0.109-8.89,0.322
				c-2.963,0.213-5.927,0.527-8.89,1.128c2.963,0.602,5.927,0.915,8.89,1.129c2.963,0.212,5.927,0.325,8.89,0.322
				c2.963,0.008,5.927-0.107,8.89-0.318c2.963-0.213,5.927-0.528,8.89-1.133c-2.963-0.604-5.927-0.92-8.89-1.132
				C174.313,328.541,171.349,328.426,168.386,328.434z M151.332,224.656c1.088,0.003,2.177-0.097,3.266-0.31
				c1.088-0.229,2.177-0.533,3.266-1.141c-1.089-0.608-2.177-0.911-3.266-1.142c-1.089-0.212-2.177-0.313-3.266-0.31
				c-1.089,0.002-2.177,0.101-3.266,0.313c-1.089,0.231-2.177,0.533-3.266,1.138c1.089,0.604,2.177,0.905,3.266,1.138
				C149.155,224.556,150.243,224.655,151.332,224.656z M156.412,287.067c1.573,0.003,3.145-0.098,4.717-0.311
				c1.572-0.229,3.145-0.532,4.717-1.141c-1.572-0.608-3.145-0.911-4.717-1.141c-1.573-0.213-3.145-0.313-4.717-0.31
				c-1.572,0.001-3.145,0.101-4.717,0.313c-1.573,0.232-3.145,0.533-4.717,1.138c1.573,0.604,3.145,0.905,4.717,1.138
				C153.267,286.967,154.839,287.065,156.412,287.067z M359.972,293.289c1.571-0.23,3.145-0.533,4.717-1.142
				c-1.572-0.607-3.146-0.911-4.717-1.141c-1.572-0.213-3.146-0.313-4.718-0.31c-1.571,0.001-3.145,0.101-4.717,0.313
				c-1.572,0.232-3.145,0.533-4.717,1.138c1.572,0.604,3.145,0.906,4.717,1.138c1.572,0.213,3.146,0.312,4.717,0.313
				C356.826,293.602,358.399,293.501,359.972,293.289z M353.984,201.124c1.633-0.229,3.266-0.532,4.898-1.141
				c-1.633-0.608-3.266-0.911-4.898-1.141c-1.633-0.213-3.266-0.313-4.898-0.311c-1.633,0.002-3.266,0.101-4.898,0.313
				c-1.633,0.232-3.266,0.533-4.898,1.138c1.633,0.604,3.266,0.905,4.898,1.138c1.633,0.212,3.266,0.312,4.898,0.313
				C350.719,201.437,352.352,201.337,353.984,201.124z M363.237,332.372c-0.968-0.213-1.935-0.313-2.903-0.31
				c-0.968,0.001-1.935,0.1-2.902,0.313c-0.968,0.232-1.935,0.533-2.903,1.138c0.969,0.604,1.936,0.905,2.903,1.138
				c0.968,0.213,1.935,0.312,2.902,0.313c0.969,0.003,1.936-0.097,2.903-0.31c0.968-0.229,1.935-0.532,2.902-1.141
				C365.172,332.904,364.205,332.602,363.237,332.372z M336.387,348.753c-0.969,0.002-1.936,0.101-2.903,0.313
				c-0.968,0.231-1.935,0.533-2.903,1.138c0.969,0.604,1.936,0.905,2.903,1.138c0.968,0.212,1.935,0.312,2.903,0.313
				c0.967,0.003,1.934-0.097,2.902-0.31c0.968-0.229,1.935-0.533,2.902-1.141c-0.968-0.608-1.935-0.911-2.902-1.142
				C338.32,348.851,337.354,348.75,336.387,348.753z M327.133,286.023c1.876-0.213,3.75-0.528,5.625-1.133
				c-1.875-0.604-3.749-0.92-5.625-1.133c-1.875-0.21-3.748-0.326-5.623-0.318c-1.876-0.002-3.75,0.11-5.625,0.323
				s-3.748,0.527-5.624,1.128c1.876,0.601,3.749,0.915,5.624,1.128s3.749,0.325,5.625,0.322
				C323.385,286.35,325.258,286.233,327.133,286.023z M312.971,193.867c0.866-0.229,1.73-0.533,2.597-1.141
				c-0.866-0.608-1.73-0.911-2.597-1.142c-0.865-0.212-1.73-0.313-2.597-0.31c-0.866,0.002-1.73,0.101-2.597,0.313
				c-0.865,0.231-1.73,0.533-2.597,1.138c0.866,0.604,1.731,0.905,2.597,1.137c0.866,0.213,1.73,0.313,2.597,0.313
				C311.24,194.18,312.105,194.08,312.971,193.867z M269.259,194.904c-0.907,0.001-1.814,0.101-2.722,0.313
				c-0.907,0.231-1.814,0.532-2.721,1.137c0.906,0.604,1.813,0.906,2.721,1.138c0.907,0.213,1.814,0.312,2.722,0.313
				c0.907,0.003,1.813-0.098,2.722-0.31c0.906-0.229,1.814-0.533,2.721-1.142c-0.906-0.607-1.814-0.911-2.721-1.141
				C271.072,195.001,270.166,194.901,269.259,194.904z M328.041,302.309c-1.028,0.001-2.057,0.101-3.085,0.313
				c-1.027,0.232-2.057,0.533-3.084,1.138c1.027,0.604,2.057,0.905,3.084,1.138c1.028,0.213,2.057,0.312,3.085,0.313
				c1.027,0.003,2.057-0.098,3.084-0.311c1.027-0.229,2.057-0.532,3.084-1.141c-1.027-0.608-2.057-0.911-3.084-1.141
				C330.098,302.405,329.068,302.306,328.041,302.309z M340.015,333.513c-1.995-0.604-3.991-0.92-5.987-1.133
				c-1.996-0.21-3.991-0.325-5.986-0.317c-1.996-0.003-3.992,0.109-5.987,0.322c-1.996,0.213-3.991,0.527-5.987,1.128
				c1.996,0.601,3.991,0.915,5.987,1.128c1.995,0.213,3.991,0.325,5.987,0.322c1.995,0.009,3.99-0.107,5.986-0.317
				C336.023,334.433,338.02,334.117,340.015,333.513z"/>
		</g>
	</g>
</g>
</svg>
