<?xml version="1.0" encoding="iso-8859-1"?>
<!-- Generator: Adobe Illustrator 15.0.0, SVG Export Plug-In . SVG Version: 6.00 Build 0)  -->
<!DOCTYPE svg PUBLIC "-//W3C//DTD SVG 1.1//EN" "http://www.w3.org/Graphics/SVG/1.1/DTD/svg11.dtd" [
	<!ENTITY ns_extend "http://ns.adobe.com/Extensibility/1.0/">
	<!ENTITY ns_ai "http://ns.adobe.com/AdobeIllustrator/10.0/">
	<!ENTITY ns_graphs "http://ns.adobe.com/Graphs/1.0/">
	<!ENTITY ns_vars "http://ns.adobe.com/Variables/1.0/">
	<!ENTITY ns_imrep "http://ns.adobe.com/ImageReplacement/1.0/">
	<!ENTITY ns_sfw "http://ns.adobe.com/SaveForWeb/1.0/">
	<!ENTITY ns_custom "http://ns.adobe.com/GenericCustomNamespace/1.0/">
	<!ENTITY ns_adobe_xpath "http://ns.adobe.com/XPath/1.0/">
]>
<svg version="1.1" xmlns:x="&ns_extend;" xmlns:i="&ns_ai;" xmlns:graph="&ns_graphs;"
	 xmlns="http://www.w3.org/2000/svg" xmlns:xlink="http://www.w3.org/1999/xlink" x="0px" y="0px" width="512px" height="512px"
	 viewBox="0 0 512 512" style="enable-background:new 0 0 512 512;" xml:space="preserve">
<metadata>
	<sfw  xmlns="&ns_sfw;">
		<slices></slices>
		<sliceSourceBounds  height="512" width="512" x="94" y="94" bottomLeftOrigin="true"></sliceSourceBounds>
	</sfw>
</metadata>
<g id="&#x418;&#x437;&#x43E;&#x431;&#x440;&#x430;&#x436;&#x435;&#x43D;&#x438;&#x435;_xA0_17_1_">
	<g id="&#x417;&#x430;&#x43B;&#x438;&#x432;&#x43A;&#x430;_&#x446;&#x432;&#x435;&#x442;&#x43E;&#x43C;_1">
		<g>
			<rect x="3.699" y="4.439" style="fill-rule:evenodd;clip-rule:evenodd;fill:#B17D7B;" width="503.121" height="503.121"/>
		</g>
	</g>
	<g id="&#x417;&#x430;&#x43B;&#x438;&#x432;&#x43A;&#x430;_&#x446;&#x432;&#x435;&#x442;&#x43E;&#x43C;_5">
		<g>
			<path style="fill-rule:evenodd;clip-rule:evenodd;fill:#F3D4C3;" d="M484.624,25.156l20.717-20.717H3.699l20.717,20.717H484.624z
				 M24.416,486.844L3.699,507.561h501.642l-20.717-20.717H24.416z"/>
		</g>
	</g>
	
		<g id="&#x417;&#x430;&#x43B;&#x438;&#x432;&#x43A;&#x430;_&#x446;&#x432;&#x435;&#x442;&#x43E;&#x43C;_1_&#x43A;&#x43E;&#x43F;&#x438;&#x44F;_2">
		<g>
			<radialGradient id="SVGID_1_" cx="256.7402" cy="256" r="228.0762" gradientUnits="userSpaceOnUse">
				<stop  offset="0" style="stop-color:#7D7193"/>
				<stop  offset="0.2" style="stop-color:#7C7193"/>
				<stop  offset="0.4" style="stop-color:#6C6382"/>
				<stop  offset="0.5939" style="stop-color:#554E6B"/>
				<stop  offset="0.7515" style="stop-color:#3E3A53"/>
				<stop  offset="0.897" style="stop-color:#29273A"/>
				<stop  offset="1" style="stop-color:#232132"/>
			</radialGradient>
			<polygon style="fill-rule:evenodd;clip-rule:evenodd;fill:url(#SVGID_1_);" points="432.765,27.924 78.856,27.924 28.664,78.116 
				28.664,435.769 76.972,484.076 433.367,484.076 484.816,432.627 484.816,79.976 			"/>
		</g>
	</g>
	
		<g id="&#x417;&#x430;&#x43B;&#x438;&#x432;&#x43A;&#x430;_&#x446;&#x432;&#x435;&#x442;&#x43E;&#x43C;_1_&#x43A;&#x43E;&#x43F;&#x438;&#x44F;">
		<g>
			<path style="fill-rule:evenodd;clip-rule:evenodd;fill:#F2D2C0;" d="M25.109,24.37v463.26h463.26V24.37H25.109z M466.659,418.566
				l-47.353,47.353H91.283l-44.462-44.462V92.277l46.196-46.196h325.734l47.908,47.907V418.566z"/>
		</g>
	</g>
	<g id="&#x424;&#x438;&#x433;&#x443;&#x440;&#x430;_3">
		<g>
			<path style="fill-rule:evenodd;clip-rule:evenodd;fill:#A18180;" d="M429.873,25.156l-344.047-1.48l-62.15,62.891v342.566
				l59.931,59.19l344.046-0.739l59.931-59.191V84.347L429.873,25.156z M477.226,423.954l-56.231,54.751H91.006l-56.231-54.751
				V88.046l54.012-54.012h334.428l54.751,56.231L477.226,423.954z"/>
		</g>
	</g>
	<g id="&#x417;&#x430;&#x43B;&#x438;&#x432;&#x43A;&#x430;_&#x446;&#x432;&#x435;&#x442;&#x43E;&#x43C;_6">
		<g>
			<path style="fill-rule:evenodd;clip-rule:evenodd;fill:#C7907F;" d="M23.676,86.566l62.52-62.752l-62.52-0.139V86.566z
				 M487.584,23.63l-62.521,0.139l62.521,62.752V23.63z M22.196,488.37l62.521-0.139l-62.521-62.752V488.37z M425.803,488.971
				l62.521,0.139v-62.89L425.803,488.971z"/>
		</g>
	</g>
	
		<g id="&#x417;&#x430;&#x43B;&#x438;&#x432;&#x43A;&#x430;_&#x446;&#x432;&#x435;&#x442;&#x43E;&#x43C;_6_&#x43A;&#x43E;&#x43F;&#x438;&#x44F;">
		<g>
			<path style="fill-rule:evenodd;clip-rule:evenodd;fill:#FDECE7;" d="M27.964,485.886l56.753,2.346L55.27,458.579L27.964,485.886z
				 M54.694,55.434l31.502-31.619l-59.314,3.562L54.694,55.434z M485.117,26.582l-60.054-2.813l31.376,31.491L485.117,26.582z
				 M425.803,488.971l59.314-3.113l-28.158-28.158L425.803,488.971z"/>
		</g>
	</g>
	<g id="&#x424;&#x438;&#x433;&#x443;&#x440;&#x430;_1">
		<g>
			<path style="fill-rule:evenodd;clip-rule:evenodd;fill:#C7907F;" d="M34.774,487.769l0.093-9.156h-8.417L34.774,487.769z
				 M477.04,477.873l0.093,9.155l8.323-9.155H477.04z M476.393,25.804l-0.092,9.156h8.416L476.393,25.804z M26.451,34.96h8.417
				l-0.093-9.156L26.451,34.96z"/>
		</g>
	</g>
	<g id="&#x424;&#x438;&#x433;&#x443;&#x440;&#x430;_2">
		<g>
			<path style="fill-rule:evenodd;clip-rule:evenodd;fill:#FDECE7;" d="M22.597,480.813L9.026,497.72l-1.627,10.285l22.418-0.296
				l0.532-18.644l-3.492-6.957L22.597,480.813z M508.448,495.817l-18.855-14.581l-4.261,4.043l-3.068,4.209l2.646,16.529
				l23.688,1.353L508.448,495.817z M21.002,31.648l4.26-1.295l3.492-6.956L28.222,4.754L5.803,4.458l1.628,10.284L21.002,31.648z
				 M487.997,31.226l18.856-14.581l0.147-11.553l-23.687,1.353l-2.646,16.53l3.069,4.208L487.997,31.226z"/>
		</g>
	</g>
	<g id="&#x417;&#x430;&#x43B;&#x438;&#x432;&#x43A;&#x430;_&#x446;&#x432;&#x435;&#x442;&#x43E;&#x43C;_2">
		<g>
			<path style="fill-rule:evenodd;clip-rule:evenodd;fill:#2F181B;" d="M0,0v512h512V0H0z M503.121,503.121H8.878V8.879h494.243
				V503.121z"/>
		</g>
	</g>
	<g id="&#x417;&#x430;&#x43B;&#x438;&#x432;&#x43A;&#x430;_&#x446;&#x432;&#x435;&#x442;&#x43E;&#x43C;_3">
		<g>
			<path style="fill-rule:evenodd;clip-rule:evenodd;fill:#40292E;" d="M482.33,20.67H29.346l-9.369,9.369v397.468
				c-0.119,0.585-0.119,1.188,0,1.771v53.925l9.606,9.605h453.025l9.507-9.507V30.455L482.33,20.67z M28.855,34.183l4.633-4.634
				h40.974L28.855,75.156V34.183z M33.726,483.931l-4.871-4.871v-39.857l44.728,44.729H33.726z M483.237,479.158l-4.772,4.772
				H437.63l45.607-45.607V479.158z M483.237,425.769l-58.162,58.162H86.139l-57.283-57.283V87.711l58.162-58.162h338.058
				l58.162,58.162V425.769z M483.237,75.156L437.63,29.549h40.558l5.05,5.05V75.156z"/>
		</g>
	</g>
	
		<g id="&#x417;&#x430;&#x43B;&#x438;&#x432;&#x43A;&#x430;_&#x446;&#x432;&#x435;&#x442;&#x43E;&#x43C;_4_&#x43A;&#x43E;&#x43F;&#x438;&#x44F;" style="opacity:0.502;">
		<g>
			<path style="fill-rule:evenodd;clip-rule:evenodd;fill:#876867;" d="M465.59,92.913l-47.243-47.244
				c-0.685-0.685-1.612-1.068-2.579-1.068H94.545c-0.968,0-1.896,0.384-2.58,1.068L46.409,91.227
				c-0.684,0.684-1.069,1.611-1.069,2.579v324.619c0,0.968,0.385,1.896,1.069,2.579l43.847,43.847
				c0.684,0.684,1.612,1.068,2.579,1.068h323.479c0.968,0,1.896-0.385,2.579-1.068l46.696-46.696
				c0.685-0.685,1.069-1.612,1.069-2.58V95.493C466.659,94.525,466.274,93.598,465.59,92.913z M459.363,414.063l-44.56,44.56H94.346
				l-41.709-41.709V95.316l43.419-43.419h318.201l45.106,45.106V414.063z"/>
		</g>
	</g>
	<g id="&#x417;&#x430;&#x43B;&#x438;&#x432;&#x43A;&#x430;_&#x446;&#x432;&#x435;&#x442;&#x43E;&#x43C;_4">
		<g>
			<path style="fill-rule:evenodd;clip-rule:evenodd;fill:#40292E;" d="M468.534,90.633l-47.907-47.907
				c-0.693-0.694-1.635-1.084-2.615-1.084H92.277c-0.981,0-1.922,0.39-2.616,1.084L43.465,88.922
				c-0.693,0.693-1.083,1.635-1.083,2.615v329.18c0,0.981,0.39,1.922,1.083,2.615l44.463,44.463
				c0.694,0.693,1.634,1.084,2.615,1.084h328.023c0.981,0,1.922-0.391,2.615-1.084l47.353-47.353
				c0.694-0.694,1.084-1.635,1.084-2.616V93.248C469.618,92.268,469.229,91.326,468.534,90.633z M462.22,416.295l-45.186,45.185
				H92.075L49.78,419.185V93.07l44.029-44.03h322.67l45.74,45.741V416.295z"/>
		</g>
	</g>
</g>
<g id="&#x418;&#x437;&#x43E;&#x431;&#x440;&#x430;&#x436;&#x435;&#x43D;&#x438;&#x435;_xA0_770_1_">
	<g id="&#x424;&#x438;&#x433;&#x443;&#x440;&#x430;_301" style="opacity:0.702;">
		<g>
			<path style="fill-rule:evenodd;clip-rule:evenodd;fill:#232132;" d="M424.512,390.693l-51.859-0.95l-5.928-11.855l4.118-6.698
				l-7.241-4.344l11.404-11.63l-2.716-33.261l-57.198-83.265l-13.924,44.555l-94.172,0.959l-14.223-45.514l-57.199,83.265
				l-2.715,33.261l11.404,11.63l-7.24,4.344l4.118,6.698l-5.928,11.855l-51.86,0.95c0,0-17.672,17.977,49.235,26.563
				c61.001,7.829,51.954-8.064,45.186-13.249c-9.706-7.434-24.822-10.373-24.822-10.373l1.509-11.854l7.586-2.445l-5.476-6.697
				l4.978-9.865c0,0,15.748-3.132,22.848-13.558c7.671-11.265,13.507-27.974,17.362-41.52c2.463,9.935,5.986,21.443,10.764,31.183
				c6.497,13.245,22.244,22.176,22.244,22.176s21.522,4.218,37.772,1.129c5.821-1.106,11.464-6.138,14.7-9.649
				c10.699-11.61,15.943-30.841,18.505-46.112c3.848,13.759,9.808,31.173,17.722,42.794c7.101,10.426,22.849,13.558,22.849,13.558
				l4.978,9.865l-5.475,6.697l7.586,2.445l1.509,11.854c0,0-15.115,2.939-24.821,10.373c-6.768,5.185-15.815,21.078,45.186,13.249
				C442.185,408.67,424.512,390.693,424.512,390.693z M253.596,393.096c-68.196,0-57.203,34.569-57.203,34.569l118.019,0.725
				C314.412,428.39,321.792,393.096,253.596,393.096z"/>
		</g>
	</g>
	<g id="&#x413;&#x440;&#x443;&#x43F;&#x43F;&#x430;_56_&#x43A;&#x43E;&#x43F;&#x438;&#x44F;_1_">
		<g id="&#x424;&#x438;&#x433;&#x443;&#x440;&#x430;_290">
			<g>
				<path style="fill-rule:evenodd;clip-rule:evenodd;fill:#4D517C;" d="M420.315,374.872c-6.157-0.619-8.534-3.807-15.259-0.449
					c-7.452,3.721-8.045-9.64-10.417-21.65c-1.077-5.455,6.845-13.908,6.845-13.908s-19.613-4.529-11.143-12.081
					c8.471-7.553,17.424-18.784,17.346-38.077c-0.173-42.462-15.156-108.29-15.156-108.29s-5.009-2.896-4.632-1.336
					c0.589,2.439-2.603,5.343-2.603,5.343s-0.462,0.295-1.32,0.812l2.567,13.059c0,0-19.974-1.014-38.615,3.167
					c-0.688,0.206-1.378,0.406-2.071,0.599c-1.637,0.455-3.287,0.87-4.939,1.257c-18.343,5.606-34.189,16.169-34.189,16.169
					l-3.469-11.706c-1.296,0.023-2.025,0.021-2.025,0.021s-3.099-1.161-5.5-4.297c-1.085-1.417-1.575,3.273-1.575,3.273
					s19.938,64.5,41.02,101.359c9.579,16.747,22.948,21.998,34.06,24.303s-3.609,16.034-3.609,16.034s11.088,3.359,12.882,8.622
					c3.952,11.588,10.119,23.455,1.804,23.959c-7.502,0.454-7.966,4.403-12.989,8.019c-12.119,8.722-14.268,14.494-12.392,18.848
					c3.577,6.875,26.284,5.209,47.176-0.519c20.21-5.541,38.69-14.911,38.362-22.4C439.919,380.291,435.172,376.366,420.315,374.872
					z"/>
			</g>
		</g>
		<g id="&#x424;&#x438;&#x433;&#x443;&#x440;&#x430;_292">
			<g>
				<path style="fill-rule:evenodd;clip-rule:evenodd;fill:#453163;" d="M392.963,243.955C390.015,218.557,385.93,196,385.93,196
					s-3.862,5.16-12.313,10.707c-6.587,4.323-16.665,8.922-25.297,11.235c-8.938,2.395-19.717,3.187-27.295,2.62
					c-9.513-0.711-14.834-3.196-14.834-3.196s9.15,24.457,20.365,49.717c11.729,26.421,26.002,53.575,47.727,47.754
					C397.394,308.645,396.478,274.238,392.963,243.955z"/>
			</g>
		</g>
		<g id="&#x424;&#x438;&#x433;&#x443;&#x440;&#x430;_293">
			<g>
				<path style="fill-rule:evenodd;clip-rule:evenodd;fill:#9374E6;" d="M377.062,322.648c22.581-6.051,18.415-33.154,18.415-33.154
					s-3.204,19.884-21.012,24.608s-29.442-11.09-29.442-11.09S354.481,328.698,377.062,322.648z M384.562,354.819
					c-1.838-5.036-7.087-8.316-7.087-8.316s6.854-1.638,8.995-5.248c2.357-3.974,0.16-11.126,0.16-11.126s-5.697,8.641-14.521,3.938
					c0,0,0.545,2.066-0.573,5.721c-1.375,4.496-5.885,7.401-5.885,7.401s9.053,4.553,12.224,10.345
					c4.922,8.991,5.949,20.861,6.089,22.834c-0.669-0.504-1.062-0.907-1.062-0.907s-7.951,0.405-11.427,3.842
					c-2.6,2.571-0.792,10.708,7.771,10.021c21.158-1.697,19.161-13.857,19.161-13.857s-3.603,2.1-7.258,2.729
					C390.123,376.25,387.692,363.394,384.562,354.819z M380.054,399.799c-12.775-3.577-12.247-11.755-12.247-11.755
					s-16.81,11.358-14.813,18.103c1.996,6.745,15.114,8.627,31.612,5.176c47.95-10.033,50.283-22.724,50.283-22.724
					S404.638,406.684,380.054,399.799z"/>
			</g>
		</g>
		<g id="&#x424;&#x438;&#x433;&#x443;&#x440;&#x430;_294">
			<g>
				<path style="fill-rule:evenodd;clip-rule:evenodd;fill:#7558C3;" d="M394.398,260.922c-1.98-29.907-7.403-59.535-7.403-59.535
					l-10.71,16.483c0,0,6.259,43.205,6.92,50.875c0.66,7.67,1.057,21.763-13.343,25.621s-22.368-10.971-26.335-19.338
					s-18.319-43.142-18.319-43.142l-16.882-8.404c0,0,7.775,19.949,19.483,45.8c11.413,25.202,24.062,50.238,46.543,44.401
					C395.34,308.234,396.091,286.484,394.398,260.922z"/>
			</g>
		</g>
		<g id="&#x424;&#x438;&#x433;&#x443;&#x440;&#x430;_295">
			<g>
				<path style="fill-rule:evenodd;clip-rule:evenodd;fill:#C268DE;" d="M370.819,297.936c-13.557,3.685-22.435-12.014-30.519-3.371
					c1.604,4.486,12.519,25.551,34.901,19.554c22.382-5.998,19.48-30.675,20.417-34.589
					C383.123,277.701,384.911,294.105,370.819,297.936z"/>
			</g>
		</g>
		<g id="&#x424;&#x438;&#x433;&#x443;&#x440;&#x430;_296">
			<g>
				<path style="fill-rule:evenodd;clip-rule:evenodd;fill:#EF7AE8;" d="M394.706,289.44c-6.254-9.767-5.216,8.78-22.46,13.401
					c-17.245,4.62-27.178-11.217-26.066,0.783c3.691,6.286,15.813,13.323,28.447,10.553
					C387.262,311.406,396.124,294.061,394.706,289.44z"/>
			</g>
		</g>
		<g id="&#x424;&#x438;&#x433;&#x443;&#x440;&#x430;_291">
			<g>
				<path style="fill-rule:evenodd;clip-rule:evenodd;fill:#8366D2;" d="M385.554,196.142c-1.107-3.089-19.296-0.605-41.467,5.335
					c-22.171,5.941-38.722,12.837-37.614,15.926c1.107,3.09,21.644,5.224,41.18-0.058
					C369.81,211.354,386.662,199.231,385.554,196.142z"/>
			</g>
		</g>
		<g id="&#x424;&#x438;&#x433;&#x443;&#x440;&#x430;_291_&#x43A;&#x43E;&#x43F;&#x438;&#x44F;">
			<g>
				<path style="fill-rule:evenodd;clip-rule:evenodd;fill:#4D517C;" d="M344.625,211.466c-21.023,5.485-30.086,4.306-27.77-1.081
					c-6.951,2.904-10.945,5.451-10.383,7.018c0.911,2.541,14.974,4.427,30.807,2.079
					C348.727,213.732,359.482,207.59,344.625,211.466z M385.554,196.142c-1.107-3.089-19.296-0.605-41.467,5.335
					c-1.913,0.513-3.766,1.034-5.587,1.558c1.451,2.539,18.182,0.975,35.713-4.819c3.936-1.301-0.499,4.817-5.961,11.306
					C379.317,204.023,386.277,198.159,385.554,196.142z"/>
			</g>
		</g>
		<g id="&#x424;&#x438;&#x433;&#x443;&#x440;&#x430;_299" style="opacity:0.8;">
			<g>
				<path style="fill-rule:evenodd;clip-rule:evenodd;fill:#FFFFFF;" d="M395.982,339.969c0,0-7.438,4.771-13.297,4.073
					c-5.859-0.699-8.101-8.677-8.101-8.677l-4.764,11.613l14.229,4.367L395.982,339.969z M363.143,399.956
					c0.113-3.759,4.014-7.63,7.106-10.119c0.727,1.518,2.568,2.861,6.105,3.671c5.589,1.279,19.597-2.039,19.597-2.039
					s-7.236,1.519-13.691-2.988c-5.417-3.783,2.242-8.691,2.242-8.691s-5.766-0.364-9.696,1.708
					c-2.491,1.313-5.013,4.133-4.933,6.794c-5.463,1.874-14.216,6.288-12.358,15.018c1.985,9.332,41.179-1.607,41.179-1.607
					S362.967,405.793,363.143,399.956z M434.55,378.359c-5.951-2.796-15.842-3.576-15.842-3.576l-4.177,9.816
					c0,0,7.739-3.292,13.156-2.29c9.629,1.782,10.755,6.85,10.755,6.85S442.002,381.861,434.55,378.359z M386.377,306.944
					c2.289-2.818,7.116-16.551,7.116-16.551s-0.145,0.398-0.44,1.051c0.165-1.79,1.286-14.907,0.41-33.124
					c-1.399-29.146-7.972-60.548-7.972-60.548l-5.483,4.353c0,0,3.645,11.545,6.017,26.708c3.912,25.001,6.798,60.229,6.996,62.682
					c-1.29,2.822-5.276,10.088-12.534,11.148c-3.594,0.524-5.776,4.479-3.076,7.072
					C379.048,311.307,383.752,310.176,386.377,306.944z"/>
			</g>
		</g>
		<g id="&#x417;&#x430;&#x43B;&#x438;&#x432;&#x43A;&#x430;_&#x446;&#x432;&#x435;&#x442;&#x43E;&#x43C;_175">
			<g>
				<path style="fill-rule:evenodd;clip-rule:evenodd;fill:#262346;" d="M442.488,384.303c-1.092-9.306-13.423-11.61-22.603-12.534
					c-1.718-0.172-3.142-0.587-4.519-0.988c-2.538-0.737-5.162-1.501-8.773-0.533c-1.112,0.298-2.245,0.738-3.465,1.348
					c-0.264,0.132-0.506,0.228-0.721,0.285c-0.454,0.122-0.594,0.031-0.685-0.027c-1.865-1.198-3.04-8.148-3.983-13.733
					c-0.346-2.048-0.704-4.167-1.117-6.255c-0.552-2.8,3.27-8.413,6.158-11.506c0.668-0.716,0.904-1.732,0.619-2.669
					s-1.048-1.65-2.002-1.872c-4.871-1.131-10.664-3.751-11.127-5.564c-0.096-0.372,0.36-1.064,1.189-1.803
					c7.881-7.027,18.349-18.831,18.261-40.132c-0.17-42.276-15.072-108.227-15.224-108.888c-0.171-0.757-0.656-1.405-1.334-1.783
					c-0.371-0.207-9.175-5.074-17.733-5.344c-14.121-0.447-26.013,0.769-37.421,3.826c-11.342,3.039-22.217,7.923-34.223,15.37
					c-7.277,4.514-12.467,13.13-12.685,13.495c-0.397,0.666-0.493,1.47-0.265,2.211c0.2,0.648,20.27,65.214,41.259,101.911
					c10.575,18.491,25.543,23.48,35.882,25.625c1.088,0.226,1.828,0.597,1.932,0.966c0.506,1.803-3.202,6.969-6.854,10.384
					c-0.715,0.669-1.019,1.668-0.798,2.622c0.222,0.953,0.935,1.716,1.871,2.001c4.049,1.234,10.164,4.186,11.085,6.886
					c0.688,2.016,1.437,4.028,2.162,5.976c1.976,5.309,4.434,11.914,3.417,13.885c-0.05,0.097-0.126,0.244-0.58,0.366
					c-0.215,0.058-0.473,0.096-0.768,0.113c-1.36,0.082-2.563,0.267-3.674,0.564c-3.611,0.968-5.502,2.941-7.331,4.85
					c-0.991,1.036-2.018,2.107-3.419,3.115c-7.488,5.39-17.016,13.55-13.308,22.156c0.026,0.062,0.055,0.121,0.085,0.181
					c5.173,9.94,33.499,5.371,49.42,1.104l0.911-0.247c18.906-5.183,40.824-14.883,40.374-25.161
					C442.502,384.436,442.496,384.369,442.488,384.303z M385.391,181.229c0.128,0.271,0.428,0.903-0.674,2.142
					c-4.535,5.1-20.774,12.062-40.411,17.322c-19.302,5.172-35.868,7.106-43.235,5.048c-1.53-0.428-1.599-1.076-1.625-1.321
					c-0.072-0.689,0.245-1.598,0.832-2.62c1.772-2.018,3.969-4.137,6.398-5.644c11.536-7.156,21.943-11.838,32.752-14.734
					c10.875-2.914,22.261-4.071,35.831-3.643c2.729,0.086,5.563,0.77,8.038,1.587C384.337,179.957,385.086,180.587,385.391,181.229z
					 M384.47,187.975l2.074,15.126c0.775,5.803,1.493,11.61,2.146,17.421c1.408,11.604,2.613,23.221,3.534,34.818
					c0.442,5.801,0.744,11.601,0.972,17.379c0.101,2.89,0.156,5.774,0.148,8.65l-0.02,2.148l-0.018,1.086l-0.033,1.014
					c-0.061,1.337-0.19,2.662-0.393,3.969c-0.83,5.207-2.763,10.159-6.022,14.073c-3.213,3.926-7.651,6.763-12.521,8.026
					c-4.853,1.335-10.123,1.075-14.878-0.712c-4.785-1.762-8.954-5.06-12.282-9.146c-0.821-1.017-1.62-2.134-2.31-3.21
					c-0.736-1.166-1.48-2.438-2.199-3.668c-1.445-2.486-2.84-5.014-4.197-7.566c-2.689-5.119-5.338-10.289-7.85-15.536
					c-5.001-10.505-9.766-21.167-14.35-31.921c-2.339-5.359-4.619-10.748-6.848-16.162l-5.791-14.207
					c8.871,1.057,23.927-0.975,41.523-5.69c0.002,0,0.002,0,0.002-0.001C358.913,200.183,376.379,194.063,384.47,187.975z
					 M336.853,306.396c-19.113-33.417-37.549-90.586-40.401-99.601c0.075-0.113,0.161-0.239,0.248-0.368
					c0.524,0.95,1.538,1.935,3.486,2.479c0.835,0.233,1.787,0.411,2.807,0.556c3.496,10.504,7.232,20.925,11.162,31.274
					c4.171,10.948,8.57,21.814,13.367,32.509c2.402,5.346,4.906,10.647,7.571,15.871c1.335,2.61,2.709,5.201,4.142,7.762
					c1.43,2.546,2.879,5.137,4.721,7.463c3.612,4.671,8.424,8.503,13.992,10.614c5.543,2.135,11.765,2.499,17.518,0.964
					c5.755-1.525,10.975-4.941,14.701-9.569c3.762-4.618,5.992-10.353,6.773-16.204c0.426-2.935,0.386-5.899,0.352-8.824
					c-0.04-2.933-0.145-5.864-0.295-8.792c-0.303-5.856-0.785-11.7-1.379-17.53c-1.193-11.66-2.816-23.27-4.678-34.837
					c-1.768-10.9-3.737-21.765-5.955-32.583c0.854-0.677,1.594-1.353,2.19-2.024c1.333-1.5,1.673-2.881,1.623-3.979
					c0.23,0.109,0.447,0.214,0.635,0.307c2.039,9.238,14.654,67.953,14.812,106.456c0.077,19.088-9.34,29.699-16.43,36.021
					c-1.075,0.959-1.795,1.899-2.266,2.794c-0.131,0.15-0.249,0.313-0.338,0.503c-0.569,1.218-2.729,4.838-5.114,5.477
					c-1.917,0.514-4.668-0.569-6.372-1.445c-0.941-0.975-2.392-1.846-4.634-2.312C359.791,327.447,346.33,322.967,336.853,306.396z
					 M380.4,355.832c-1.445-4.237-6.688-7.189-10.579-8.854c2.352-2.671,5.025-6.396,5.51-9.91c1.842,0.543,3.936,0.826,5.899,0.3
					c1.999-0.535,3.66-1.89,4.945-3.329c2.152,2.857,6.394,4.778,9.807,5.93c-2.537,3.387-5.602,8.564-4.733,12.956
					c0.397,2.016,0.749,4.095,1.089,6.107c1.375,8.14,2.475,14.6,6.158,17.234c-0.643,1.212-2.113,2.776-5.487,3.681
					c-3.495,0.937-5.793,0.301-7.145-0.439c1.742-4.122-0.512-10.206-3.354-17.842C381.799,359.754,381.063,357.776,380.4,355.832z
					 M377.189,383.798c0.753-0.202,1.599-0.329,2.588-0.389c1.607-0.097,2.959-0.554,4.026-1.31
					c1.919,1.212,5.18,2.329,10.056,1.022c4.785-1.282,6.853-3.748,7.746-5.726c0.719,0.048,1.462-0.021,2.221-0.225
					c0.569-0.152,1.158-0.38,1.751-0.676c0.886-0.442,1.682-0.756,2.435-0.957c2.132-0.571,3.601-0.144,5.823,0.503
					c0.523,0.152,1.085,0.309,1.666,0.462c0.032,0.608-0.051,1.473-0.516,2.493c-1.101,2.413-5.028,7.019-18.964,10.753
					c-13.738,3.681-19.464,1.747-21.655,0.269c-1.538-1.04-1.986-2.232-2.113-2.724c0.047-0.049,0.099-0.102,0.145-0.149
					C373.999,385.474,375.058,384.369,377.189,383.798z M400.682,404.381l-0.881,0.237c-22.61,6.06-40.764,5.773-43.098,1.739
					c-1.476-3.683,2.398-8.877,11.519-15.44c0.228-0.163,0.422-0.326,0.632-0.49c0.569,0.988,1.449,2.08,2.827,3.063
					c4.954,3.53,13.525,3.696,25.476,0.494c11.951-3.202,19.292-7.632,21.817-13.167c0.597-1.309,0.84-2.505,0.9-3.535
					c10.827,1.152,16.606,3.689,17.158,7.553C437.04,389.477,422.53,398.391,400.682,404.381z"/>
			</g>
		</g>
		<g id="&#x417;&#x430;&#x43B;&#x438;&#x432;&#x43A;&#x430;_&#x446;&#x432;&#x435;&#x442;&#x43E;&#x43C;_176">
			<g>
				<path style="fill-rule:evenodd;clip-rule:evenodd;fill:#9C7DF0;" d="M385.491,197.772c-0.053-0.075-0.157-0.092-0.231-0.039
					c-2.908,1.94-5.782,3.851-8.714,5.612c-1.465,0.877-2.937,1.729-4.427,2.52c-1.477,0.77-3.034,1.52-4.569,2.286
					c-3.064,1.54-6.113,3.086-9.226,4.493c-3.129,1.367-6.273,2.702-9.504,3.902c-3.232,1.187-6.607,2.019-10.04,2.387
					c-3.437,0.382-6.919,0.129-10.357,0.094c-0.856,0.002-1.712-0.021-2.585,0l-2.537,0.055c-1.689,0.013-3.388-0.03-5.094-0.085
					c-3.416-0.113-6.848-0.362-10.35-0.523c-0.067-0.003-0.139,0.034-0.166,0.101c-0.036,0.084,0.003,0.183,0.088,0.218
					c3.26,1.395,6.703,2.209,10.195,2.742c3.476,0.524,7.136,0.629,10.581,0.227c3.492-0.384,6.933-1.196,10.37-1.777l10.361-1.698
					c3.473-0.597,6.904-1.517,10.206-2.762c3.32-1.196,6.55-2.626,9.661-4.249c3.071-1.62,6.182-3.555,8.886-5.813
					c2.728-2.254,5.274-4.702,7.447-7.49C385.528,197.914,385.534,197.832,385.491,197.772z"/>
			</g>
		</g>
		<g id="&#x424;&#x438;&#x433;&#x443;&#x440;&#x430;_298" style="opacity:0.749;">
			<g>
				<path style="fill-rule:evenodd;clip-rule:evenodd;fill:#FFFFFF;" d="M375.925,172.286c-6.975-1.026-19.862,0.33-31.789,2.391
					c-11.927,2.062-30.096,9.466-40.661,16.608c-10.453,7.065-13.276,12.616-11.93,17.644c0.088,0.172,0.226,0.297,0.332,0.451
					c0.519,1.923,1.66,6.03,3.141,10.612c2.812,8.699,6.746,18.603,6.746,18.603s-2.896-13.712-5.201-22.65
					c-0.617-2.396,0.953-3.364,2.014-3.738c1.631,0.196,3.342,0.305,4.944,0.483c3.815,0.426,11.436-0.277,18.913-1.67
					c1.281,5.081,6.75,26.47,13.858,50.105c4.749,15.792,7.68,22.17,12.155,31.984c3.587,7.863,9.957,15.394,11.369,15.016
					c0.818-0.22-2.116-6.762-5.171-16.763c-3.267-10.694-5.739-18.783-9.226-32.716c-5.378-21.486-11.967-44.982-13.342-49.86
					c13.76-3.792,24.313-8.237,24.313-8.237s-31.178,9.064-50.513,8.791c-11.827-0.168-10.45-5.168-9.454-7.578
					c1.568-3.799,9.047-9.309,19.029-14.345c10.17-5.131,31.567-11.615,46.198-12.663c18.974-1.359,28.418,1.371,28.418,1.371
					S386.25,173.805,375.925,172.286z"/>
			</g>
		</g>
	</g>
	<g id="&#x413;&#x440;&#x443;&#x43F;&#x43F;&#x430;_56_&#x43A;&#x43E;&#x43F;&#x438;&#x44F;_2_1_">
		<g id="&#x424;&#x438;&#x433;&#x443;&#x440;&#x430;_290_1_">
			<g>
				<path style="fill-rule:evenodd;clip-rule:evenodd;fill:#613167;" d="M142.652,334.118c10.828-3.397,23.609-9.95,31.477-27.565
					c17.317-38.771,30.749-104.933,30.749-104.933s-3.374-4.701-3.672-3.124c-0.466,2.466-4.57,3.799-4.57,3.799
					s-0.543,0.077-1.538,0.196l-3.034,12.958c0,0-17.786-9.144-36.498-13.004c-0.711-0.096-1.422-0.197-2.133-0.307
					c-1.679-0.259-3.354-0.561-5.02-0.889c-19.024-2.438-37.813,0.669-37.813,0.669l1.655-12.098
					c-1.19-0.511-1.854-0.814-1.854-0.814s-2.346-2.333-3.244-6.18c-0.406-1.737-2.783,2.335-2.783,2.335s-8.371,66.99-4.324,109.26
					c1.838,19.205,11.863,29.492,21.041,36.166c9.179,6.673-9.888,13.128-9.888,13.128s8.723,7.624,8.193,13.159
					c-1.167,12.188-0.43,25.541-8.215,22.578c-7.024-2.672-9.073,0.735-15.138,1.963c-14.635,2.963-18.968,7.339-19.051,12.08
					c0.432,7.736,21.812,15.563,43.21,18.939c20.7,3.267,41.399,2.331,44.182-4.63c1.434-4.519-1.277-10.049-14.203-17.524
					c-5.357-3.098-6.212-6.981-13.722-6.688c-8.324,0.324-3.366-12.097-0.585-24.02c1.263-5.415,11.962-9.858,11.962-9.858
					S131.824,337.516,142.652,334.118z"/>
			</g>
		</g>
		<g id="&#x424;&#x438;&#x433;&#x443;&#x440;&#x430;_292_1_">
			<g>
				<path style="fill-rule:evenodd;clip-rule:evenodd;fill:#4F325B;" d="M176.821,217.798c-7.782,1.229-18.86,1.273-27.679-0.17
					c-9.132-1.495-19.282-5.209-25.956-8.844c-8.377-4.563-12.205-9.019-12.205-9.019s-1.724,26.057-1.897,53.693
					c-0.182,28.907,1.652,59.528,23.848,63.163c23.611,3.866,36.935-27.869,46.192-56.915c7.764-24.361,13.324-46.601,13.324-46.601
					S186.805,216.22,176.821,217.798z"/>
			</g>
		</g>
		<g id="&#x424;&#x438;&#x433;&#x443;&#x440;&#x430;_293_1_">
			<g>
				<path style="fill-rule:evenodd;clip-rule:evenodd;fill:#CA62B3;" d="M132.25,324.885c23.07,3.777,30.426-22.64,30.426-22.64
					s-11.103,16.805-29.277,13.782c-18.174-3.021-22.271-22.223-22.271-22.223S109.18,321.107,132.25,324.885z M103.229,396.433
					c-10.171-8.519-6.325-15.754-6.325-15.754s-19.995,3.435-20.951,10.402c-0.956,6.969,10.225,14.083,26.683,17.726
					c47.831,10.589,55.179-0.018,55.179-0.018S122.801,412.823,103.229,396.433z M105.158,390.198
					c19.982,7.16,23.166-4.745,23.166-4.745s-4.147,0.432-7.737-0.499c1.51-5.842,4.585-18.559,5.261-27.662
					c0.396-5.346-3.038-10.496-3.038-10.496s6.92,1.328,10.358-1.081c3.784-2.651,4.724-10.074,4.724-10.074
					s-8.748,5.53-14.854-2.387c0,0-0.354,2.108-2.876,4.979c-3.104,3.532-8.409,4.324-8.409,4.324s6.377,7.874,6.883,14.458
					c0.786,10.221-3.163,21.461-3.847,23.317c-0.402-0.735-0.595-1.264-0.595-1.264s-7.413-2.903-11.995-1.201
					C98.771,379.141,97.07,387.3,105.158,390.198z"/>
			</g>
		</g>
		<g id="&#x424;&#x438;&#x433;&#x443;&#x440;&#x430;_294_1_">
			<g>
				<path style="fill-rule:evenodd;clip-rule:evenodd;fill:#B64F9E;" d="M174.659,229.07c0,0-12.075,41.953-14.629,49.215
					c-2.554,7.263-7.992,20.27-22.704,17.861c-14.712-2.409-15.872-19.204-16.044-28.463c-0.173-9.258,1.057-46.857,1.057-46.857
					l-11.928-14.606c0,0-1.122,21.381-1.09,49.76c0.031,27.666,1.256,55.688,24.148,59.62c21.37,3.67,31.005-15.845,39.981-39.838
					c10.502-28.073,17.752-57.308,17.752-57.308L174.659,229.07z"/>
			</g>
		</g>
		<g id="&#x424;&#x438;&#x433;&#x443;&#x440;&#x430;_295_1_">
			<g>
				<path style="fill-rule:evenodd;clip-rule:evenodd;fill:#EA6286;" d="M136.729,299.793
					c-13.872-2.221-15.504-20.182-26.427-15.632c-0.384,4.749,0.895,28.439,23.762,32.184c22.868,3.745,30.378-19.94,32.842-23.122
					C156.27,286.414,151.149,302.101,136.729,299.793z"/>
			</g>
		</g>
		<g id="&#x424;&#x438;&#x433;&#x443;&#x440;&#x430;_296_1_">
			<g>
				<path style="fill-rule:evenodd;clip-rule:evenodd;fill:#FF9E9E;" d="M136.011,304.851c-17.618-2.885-20.153-21.405-24.08-10.013
					c0.778,7.249,8.929,18.65,21.585,21.324s27.871-9.488,28.48-14.282C160.315,290.405,153.629,307.736,136.011,304.851z"/>
			</g>
		</g>
		<g id="&#x424;&#x438;&#x433;&#x443;&#x440;&#x430;_291_1_">
			<g>
				<path style="fill-rule:evenodd;clip-rule:evenodd;fill:#C053A7;" d="M152.059,200.879c-22.652-3.709-40.574-4.234-40.835-0.964
					c-0.262,3.271,17.577,13.668,37.555,16.894c22.66,3.657,43.008-0.456,43.269-3.728
					C192.309,209.81,174.711,204.588,152.059,200.879z"/>
			</g>
		</g>
		<g id="&#x424;&#x438;&#x433;&#x443;&#x440;&#x430;_291_&#x43A;&#x43E;&#x43F;&#x438;&#x44F;_1_">
			<g>
				<path style="fill-rule:evenodd;clip-rule:evenodd;fill:#7B4382;" d="M148.439,210.205c-21.418-3.652-29.193-8.457-24.865-12.413
					c-7.531-0.214-12.218,0.465-12.351,2.123c-0.215,2.691,11.825,10.196,27.223,14.572
					C151.245,213.958,163.575,212.786,148.439,210.205z M152.059,200.879c-1.955-0.32-3.858-0.607-5.733-0.88
					c0.278,2.912,16.17,8.37,34.533,10.305c4.122,0.434-2.438,4.185-10.085,7.851c12.348-0.457,21.104-2.938,21.274-5.073
					C192.309,209.81,174.711,204.588,152.059,200.879z"/>
			</g>
		</g>
		<g id="&#x424;&#x438;&#x433;&#x443;&#x440;&#x430;_299_1_" style="opacity:0.8;">
			<g>
				<path style="fill-rule:evenodd;clip-rule:evenodd;fill:#FFFFFF;" d="M128.572,346.697c-5.053-3.048-3.813-11.241-3.813-11.241
					l-9.12,8.624l11.17,9.836l15.557-5.459C142.366,348.457,133.625,349.746,128.572,346.697z M98.392,383.321
					c0.04,1.682,1.165,3.662,4.054,5.854c4.567,3.466,18.7,6.206,18.7,6.206s-7.221-1.595-11.248-8.358
					c-3.381-5.677,5.62-6.998,5.62-6.998s-5.105-2.705-9.541-2.434c-2.852,0.175-6.372,1.748-7.336,4.27
					c-5.293-0.301-15.556,0.035-17.398,8.494c-2.03,9.322,38.191,15.48,38.191,15.48s-34.245-10.973-31.683-16.22
					C89.401,386.234,94.548,384.317,98.392,383.321z M184.531,216.251c0,0-1.43,12.022-5.507,26.818
					c-6.721,24.391-18.584,57.676-19.417,60.005c-2.331,2.038-8.955,7.027-16.012,5.005c-3.491-1-7.108,1.706-5.713,5.181
					c0.845,2.105,5.598,3.011,9.32,1.146c3.247-1.627,13.296-12.155,13.296-12.155s-0.297,0.304-0.833,0.775
					c0.872-1.536,7.296-13.031,14.005-30.021c10.717-27.139,17.58-59.354,17.58-59.354L184.531,216.251z M148.752,389.539
					l-7.846,7.228c0,0,8.408,0.185,12.933,3.327c8.043,5.586,6.984,10.668,6.984,10.668s6.248-5.187,0.896-11.444
					C157.445,394.32,148.752,389.539,148.752,389.539z"/>
			</g>
		</g>
		<g id="&#x417;&#x430;&#x43B;&#x438;&#x432;&#x43A;&#x430;_&#x446;&#x432;&#x435;&#x442;&#x43E;&#x43C;_175_1_">
			<g>
				<path style="fill-rule:evenodd;clip-rule:evenodd;fill:#3E1E42;" d="M206.594,199.356c-0.253-0.341-6.274-8.399-13.963-12.168
					c-12.687-6.218-24.025-10.003-35.681-11.912c-11.587-1.897-23.509-1.921-37.516-0.073c-8.489,1.119-16.765,6.836-17.114,7.079
					c-0.636,0.443-1.055,1.137-1.151,1.906c-0.084,0.674-8.362,67.777-4.334,109.861c2.03,21.204,13.618,31.91,22.158,38.12
					c0.898,0.652,1.421,1.296,1.363,1.676c-0.281,1.851-5.786,5.032-10.521,6.642c-0.926,0.315-1.615,1.103-1.806,2.062
					c-0.19,0.96,0.145,1.949,0.881,2.595c3.183,2.79,7.542,7.997,7.27,10.837c-0.203,2.12-0.349,4.263-0.489,6.336
					c-0.384,5.65-0.861,12.683-2.599,14.061c-0.086,0.067-0.215,0.171-0.68,0.095c-0.22-0.036-0.47-0.107-0.746-0.212
					c-1.274-0.485-2.445-0.812-3.581-0.997c-3.689-0.604-6.225,0.416-8.677,1.402c-1.33,0.536-2.707,1.091-4.398,1.433
					c-9.043,1.831-21.083,5.348-21.246,14.717c-0.001,0.067,0,0.134,0.004,0.2c0.624,11.188,28.32,18.681,44.587,21.343l0.932,0.15
					c19.363,3.056,43.331,3.235,47.151-6.318c0.025-0.063,0.048-0.125,0.068-0.188c2.834-8.931-7.456-16.105-15.442-20.725
					c-1.495-0.864-2.622-1.828-3.712-2.761c-2.009-1.717-4.086-3.492-7.776-4.097c-1.136-0.187-2.35-0.25-3.712-0.197
					c-0.294,0.012-0.555-0.001-0.775-0.036c-0.463-0.076-0.553-0.216-0.612-0.307c-1.207-1.86,0.583-8.678,2.021-14.156
					c0.527-2.009,1.073-4.088,1.556-6.16c0.648-2.779,6.441-6.323,10.347-7.953c0.903-0.377,1.537-1.207,1.662-2.177
					c0.125-0.971-0.276-1.936-1.054-2.53c-3.974-3.035-8.176-7.808-7.852-9.65c0.066-0.379,0.767-0.821,1.826-1.153
					c10.075-3.162,24.472-9.612,33.158-29.063c17.242-38.601,30.798-104.841,30.933-105.505
					C207.231,200.771,207.056,199.98,206.594,199.356z M110.162,185.191c0.218-0.658,0.881-1.355,1.838-2.047
					c2.445-1.109,5.318-2.137,8.151-2.51c13.459-1.774,24.871-1.76,35.914,0.049c11.111,1.819,21.964,5.45,34.156,11.425
					c2.459,1.205,4.761,3.001,6.683,4.768c0.699,0.961,1.118,1.839,1.131,2.546c0.005,0.299,0.019,1-1.495,1.676
					c-6.232,2.781-23.897,2.443-43.959-0.842c-19.72-3.229-35.615-8.284-41.482-13.191
					C109.88,186.045,110.084,185.425,110.162,185.191z M194.422,205.185l-4.336,14.646c-1.681,5.608-3.417,11.196-5.214,16.761
					c-3.491,11.156-7.173,22.239-11.106,33.188c-1.983,5.469-4.096,10.88-6.266,16.239c-1.097,2.675-2.233,5.328-3.424,7.945
					l-0.901,1.95l-0.463,0.982l-0.447,0.91c-0.605,1.193-1.27,2.349-1.991,3.455c-2.9,4.404-6.699,8.123-11.28,10.349
					c-4.543,2.256-9.757,3.015-14.715,2.163c-4.972-0.781-9.669-3.187-13.267-6.771c-3.636-3.574-6.079-8.297-7.431-13.39
					c-0.331-1.265-0.599-2.611-0.784-3.876c-0.191-1.365-0.346-2.831-0.495-4.248c-0.293-2.86-0.524-5.738-0.711-8.623
					c-0.345-5.772-0.631-11.574-0.762-17.39c-0.235-11.633-0.189-23.311,0.059-34.998c0.073-5.847,0.212-11.697,0.41-17.548
					l0.568-15.331c7.65,4.614,22.208,8.957,40.186,11.901c0.001,0,0.001,0,0.002,0C166.109,205.802,184.546,207.407,194.422,205.185
					z M148.776,392.288c9.402,5.51,13.627,10.202,12.541,13.952c-1.903,4.233-18.796,6.388-41.174,2.855l-0.9-0.146
					c-23.101-3.781-39.528-11.513-39.995-16.15c0.17-3.963,5.838-7.103,16.852-9.332c0.276-0.056,0.522-0.125,0.783-0.188
					c0.111,1.136,0.458,2.49,1.312,3.955c3.062,5.256,10.805,8.935,23.015,10.934c12.21,2,20.723,0.983,25.302-3.021
					C147.598,394.196,148.297,393.206,148.776,392.288z M134.206,385.592c0.582,0.096,1.213,0.131,1.874,0.104
					c0.99-0.038,1.844,0.004,2.613,0.13c2.179,0.356,3.341,1.351,5.101,2.855c0.415,0.354,0.861,0.728,1.329,1.105
					c-0.221,0.567-0.652,1.321-1.497,2.061c-1.996,1.746-7.471,4.327-21.708,1.996c-14.036-2.299-18.459-6.417-19.847-8.666
					c-0.974-1.581-0.892-2.853-0.806-3.353c0.063-0.025,0.131-0.052,0.193-0.076c2.148-0.865,3.567-1.437,5.746-1.079
					c0.769,0.126,1.592,0.358,2.518,0.71c1.501,0.572,2.906,0.679,4.188,0.431c1.242,1.899,3.754,4.282,8.765,5.104
					c4.907,0.803,7.811-0.607,9.436-2.047C132.743,385.205,133.433,385.466,134.206,385.592z M142.366,348.457
					c-3.706,2.042-8.629,5.501-9.646,9.86c-0.466,2-1.002,4.04-1.521,6.015c-2.096,7.984-3.751,14.324-1.479,18.241
					c-1.085,0.84-3.069,1.661-6.516,1.097c-3.598-0.59-5.43-2.131-6.349-3.367c3.282-3.041,3.751-9.486,4.304-17.615
					c0.138-2.035,0.281-4.141,0.477-6.185c0.427-4.457-3.137-9.305-5.998-12.423c3.246-1.468,7.221-3.767,9.106-6.773
					c1.456,1.255,3.237,2.381,5.247,2.71c2.042,0.334,4.114-0.217,5.877-1C136.655,342.507,139.729,346.003,142.366,348.457z
					 M171.142,304.802c-7.785,17.429-20.733,23.225-29.796,26.068c-1.436,0.45-2.501,1.045-3.312,1.698
					c-0.142,0.075-0.292,0.126-0.419,0.234c-1.02,0.877-4.478,3.287-6.915,2.888c-1.974-0.323-4.045-2.467-5.233-3.969
					c-0.46-1.269-1.412-2.646-3.251-3.984c-7.682-5.585-18.106-15.208-19.925-34.211c-3.669-38.321,3.054-98.012,4.165-107.401
					c0.116-0.073,0.247-0.153,0.38-0.235c0.086,1.082,0.6,2.396,2.154,3.696c0.665,0.556,1.459,1.109,2.329,1.661
					c-1.136,11.013-2.019,22.048-2.696,33.097c-0.704,11.695-1.166,23.408-1.195,35.13c-0.011,5.86,0.09,11.723,0.37,17.58
					c0.142,2.929,0.329,5.855,0.58,8.778c0.256,2.909,0.51,5.866,1.232,8.744c1.37,5.744,4.179,11.217,8.384,15.433
					c4.174,4.227,9.694,7.118,15.569,8.087c5.873,0.978,12.036,0.013,17.337-2.672c5.329-2.661,9.721-6.97,12.842-11.981
					c1.596-2.499,2.779-5.219,3.951-7.897c1.171-2.689,2.281-5.405,3.35-8.135c2.134-5.462,4.099-10.986,5.957-16.544
					c3.71-11.118,7.009-22.367,10.072-33.676c2.877-10.669,5.554-21.389,7.986-32.169c1.043-0.264,2.013-0.56,2.825-0.922
					c1.833-0.819,2.705-1.938,3.111-2.96c0.158,0.186,0.33,0.387,0.458,0.542C199.507,210.94,186.843,269.646,171.142,304.802z"/>
			</g>
		</g>
		<g id="&#x417;&#x430;&#x43B;&#x438;&#x432;&#x43A;&#x430;_&#x446;&#x432;&#x435;&#x442;&#x43E;&#x43C;_176_1_">
			<g>
				<path style="fill-rule:evenodd;clip-rule:evenodd;fill:#DA70C1;" d="M191.125,214.41c-3.449,0.572-6.854,1.13-10.251,1.529
					c-1.696,0.196-3.388,0.367-5.071,0.475c-1.663,0.094-3.392,0.137-5.106,0.203c-3.426,0.144-6.841,0.298-10.257,0.299
					c-3.413-0.042-6.83-0.118-10.267-0.354c-3.435-0.248-6.853-0.879-10.133-1.956c-3.289-1.065-6.359-2.729-9.479-4.177
					c-0.781-0.351-1.553-0.723-2.355-1.063l-2.335-0.994c-1.544-0.684-3.075-1.422-4.608-2.174
					c-3.066-1.509-6.091-3.147-9.217-4.736c-0.06-0.03-0.14-0.024-0.192,0.023c-0.068,0.063-0.073,0.168-0.01,0.235
					c2.398,2.612,5.201,4.771,8.164,6.694c2.952,1.908,6.245,3.51,9.551,4.561c3.34,1.088,6.811,1.763,10.183,2.648l10.142,2.715
					c3.411,0.886,6.917,1.459,10.438,1.684c3.519,0.275,7.05,0.302,10.554,0.103c3.466-0.213,7.098-0.696,10.492-1.642
					c3.413-0.932,6.742-2.115,9.869-3.763c0.061-0.034,0.1-0.107,0.085-0.179C191.302,214.451,191.214,214.393,191.125,214.41z"/>
			</g>
		</g>
		<g id="&#x424;&#x438;&#x433;&#x443;&#x440;&#x430;_298_1_" style="opacity:0.749;">
			<g>
				<path style="fill-rule:evenodd;clip-rule:evenodd;fill:#FFFFFF;" d="M108.501,181.524c2.993-2.815,12.076-4.761,23.247-5.243
					c11.379-0.491,33.231,2.516,47.315,7.471c16.987,5.976,25.507,14.027,25.507,14.027s-4.163-5.417-11.482-10.403
					c-5.826-3.969-17.128-7.325-28.847-10.354c-11.718-3.029-32.435-4.305-45.003-2.144c-12.434,2.139-17.301,5.165-18.069,9.311
					c-0.043,0.235-0.497,3.592-0.447,3.818c-0.328,2.033-0.484,4.903-1.005,9.555c-1.017,9.085-1.787,19.76-1.787,19.76
					s3.284-13.718,4.861-22.813c0.426-2.456,2.262-2.67,3.381-2.569c1.403,0.847,2.917,1.646,4.3,2.466
					c3.302,1.958,10.536,4.452,17.924,6.261c-0.923,5.158-4.74,26.902-7.988,51.369c-2.17,16.348-2.124,23.366-2.083,34.153
					c0.033,8.642,2.74,18.127,4.183,18.363c0.836,0.137,0.853-7.033,2.185-17.405c1.424-11.092,2.5-19.481,5.055-33.614
					c3.94-21.795,7.604-45.921,8.358-50.934c14.1,2.207,25.076,2.444,25.076,2.444s-31.439-5.036-49.183-12.721
					C104.036,188.007,106.602,183.312,108.501,181.524z"/>
			</g>
		</g>
	</g>
	<g id="&#x413;&#x440;&#x443;&#x43F;&#x43F;&#x430;_56_1_">
		<g id="&#x424;&#x438;&#x433;&#x443;&#x440;&#x430;_290_2_">
			<g>
				<path style="fill-rule:evenodd;clip-rule:evenodd;fill:#7C385A;" d="M291.334,410.469c-7.648-2.896-9.592-7.777-19.323-5.792
					c-10.786,2.201-6.973-15.057-5.892-31.198c0.49-7.332,13.494-15.412,13.494-15.412s-23.486-12.489-10.092-19.232
					c13.395-6.742,28.664-18.017,35.163-42.67c14.304-54.26,17.692-143.409,17.692-143.409s-5.403-5.409-5.455-3.289
					c-0.082,3.314-5.149,5.929-5.149,5.929s-0.69,0.218-1.963,0.585l-1.189,17.547c0,0-25.147-8.126-50.374-9.165
					c-0.947,0.027-1.896,0.047-2.847,0.056c-2.245,0.021-4.495-0.014-6.736-0.086c-25.331,0.883-49.17,8.946-49.17,8.946
					l-0.425-16.13c-1.662-0.412-2.592-0.666-2.592-0.666s-3.558-2.541-5.551-7.366c-0.9-2.179-3.13,3.64-3.13,3.64
					s3.389,89.149,17.692,143.409c6.499,24.653,21.769,35.928,35.163,42.67c13.395,6.743-10.091,19.232-10.091,19.232
					s13.003,8.08,13.494,15.412c1.081,16.142,4.894,33.399-5.892,31.198c-9.731-1.985-11.675,2.896-19.323,5.792
					c-18.453,6.988-23.169,13.621-22.265,19.821c2.215,9.998,31.769,15.638,60.395,15.473c27.692-0.16,54.486-5.801,56.629-15.473
					C314.503,424.09,309.786,417.457,291.334,410.469z"/>
			</g>
		</g>
		<g id="&#x424;&#x438;&#x433;&#x443;&#x440;&#x430;_292_2_">
			<g>
				<path style="fill-rule:evenodd;clip-rule:evenodd;fill:#592849;" d="M289.242,179.844c-9.887,3.267-24.324,5.689-36.132,5.689
					c-12.229,0-26.258-2.676-35.737-5.99c-11.899-4.16-17.842-9.154-17.842-9.154s3.316,34.349,8.991,70.426
					c5.936,37.737,14.867,77.279,44.588,77.279c31.617,0,42.215-44.231,48.085-84.088c4.924-33.428,7.425-63.617,7.425-63.617
					S301.926,175.654,289.242,179.844z"/>
			</g>
		</g>
		<g id="&#x424;&#x438;&#x433;&#x443;&#x440;&#x430;_293_2_">
			<g>
				<path style="fill-rule:evenodd;clip-rule:evenodd;fill:#DC4159;" d="M253.985,329.015c30.892,0,34.845-36.021,34.845-36.021
					s-10.892,24.286-35.237,24.226c-24.346-0.061-33.789-24.226-33.789-24.226S223.092,329.015,253.985,329.015z M231.417,428.517
					c-15.083-8.936-11.612-19.193-11.612-19.193s-25.342,8.748-25.1,18.04c0.241,9.292,16.341,16.182,38.582,17.418
					c64.637,3.595,71.956-11.807,71.956-11.807S260.441,445.713,231.417,428.517z M259.63,355.982
					c4.368-4.266,4.009-14.146,4.009-14.146s-10.227,9.081-19.881,0.061c0,0-0.012,2.824-2.688,7.106
					c-3.293,5.269-10.043,7.435-10.043,7.435s9.998,8.907,12.064,17.385c3.207,13.161,0.458,28.663-0.037,31.229
					c-0.682-0.873-1.046-1.521-1.046-1.521s-10.287-2.202-15.898,0.996c-4.199,2.393-4.674,13.396,6.492,15.448
					c27.588,5.07,29.198-11.135,29.198-11.135s-5.316,1.448-10.197,1.002c0.722-7.942,2.017-25.184,0.953-37.197
					c-0.625-7.057-6.202-13.039-6.202-13.039S255.661,359.858,259.63,355.982z"/>
			</g>
		</g>
		<g id="&#x424;&#x438;&#x433;&#x443;&#x440;&#x430;_294_2_">
			<g>
				<path style="fill-rule:evenodd;clip-rule:evenodd;fill:#DD3F55;" d="M288.83,195.006c0,0-6.789,57.29-8.568,67.306
					c-1.78,10.017-6.094,28.141-25.794,28.141s-24.799-21.654-27.001-33.691s-8.628-61.332-8.628-61.332l-18.674-16.502
					c0,0,3.103,28.123,9.205,65.125c5.949,36.072,13.53,72.355,44.224,72.594c28.653,0.223,37.05-27.284,43.632-60.491
					c7.701-38.853,10.912-78.525,10.912-78.525L288.83,195.006z"/>
			</g>
		</g>
		<g id="&#x424;&#x438;&#x433;&#x443;&#x440;&#x430;_295_2_">
			<g>
				<path style="fill-rule:evenodd;clip-rule:evenodd;fill:#F8874D;" d="M254.468,295.335
					c-18.564,0.066-24.528-23.007-37.802-14.741c0.513,6.275,7.241,36.896,37.861,36.896s35.357-32.491,37.892-37.168
					C277.094,273.716,273.766,295.266,254.468,295.335z"/>
			</g>
		</g>
		<g id="&#x424;&#x438;&#x433;&#x443;&#x440;&#x430;_296_2_">
			<g>
				<path style="fill-rule:evenodd;clip-rule:evenodd;fill:#FBBB47;" d="M254.611,302.085c-23.592,0-30.853-23.611-33.54-7.915
					c2.562,9.287,15.627,22.415,32.703,23.199s34.32-18.325,34.09-24.708C283.223,278.057,278.203,302.085,254.611,302.085z"/>
			</g>
		</g>
		<g id="&#x424;&#x438;&#x433;&#x443;&#x440;&#x430;_291_2_">
			<g>
				<path style="fill-rule:evenodd;clip-rule:evenodd;fill:#C5445B;" d="M253.337,163.068c-30.333,0-53.817,3.142-53.459,7.464
					c0.357,4.321,25.84,14.07,52.583,14.01c30.333-0.068,55.989-9.778,55.631-14.101S283.67,163.068,253.337,163.068z"/>
			</g>
		</g>
		<g id="&#x424;&#x438;&#x433;&#x443;&#x440;&#x430;_291_&#x43A;&#x43E;&#x43F;&#x438;&#x44F;_2_">
			<g>
				<path style="fill-rule:evenodd;clip-rule:evenodd;fill:#793E57;" d="M250.608,176.003c-28.711-0.188-39.876-4.794-35.077-10.877
					c-9.866,1.328-15.834,3.214-15.653,5.406c0.294,3.556,17.601,10.771,38.616,13.189
					C255.071,180.299,270.898,176.137,250.608,176.003z M253.337,163.068c-2.618,0-5.161,0.031-7.665,0.077
					c0.984,3.737,22.875,7.462,47.235,6.063c5.468-0.314-2.285,5.978-11.476,12.392c16.004-3.232,26.895-8.338,26.66-11.159
					C307.734,166.119,283.67,163.068,253.337,163.068z"/>
			</g>
		</g>
		<g id="&#x424;&#x438;&#x433;&#x443;&#x440;&#x430;_299_2_" style="opacity:0.8;">
			<g>
				<path style="fill-rule:evenodd;clip-rule:evenodd;fill:#FFFFFF;" d="M222.309,412.447c0.408,2.185,2.299,4.53,6.537,6.773
					c6.696,3.545,25.712,4.101,25.712,4.101s-9.757-0.537-16.454-8.498c-5.621-6.682,5.834-10.327,5.834-10.327
					s-7.235-2.437-12.962-1.136c-3.681,0.837-7.936,3.641-8.655,7.135c-6.967,0.737-20.279,3.366-20.876,14.792
					c-0.657,12.592,53.112,12.032,53.112,12.032s-47.002-6.996-44.782-14.387C211.206,418.174,217.51,414.567,222.309,412.447z
					 M253.846,358.246c-7.241-2.896-7.373-13.846-7.373-13.846l-13.348,11.1l19.964,12.536l19.122-10.441
					C272.211,357.595,261.086,361.142,253.846,358.246z M285.068,294.653c0.81-2.189,6.732-18.552,11.854-42.14
					c8.181-37.681,10.533-80.013,10.533-80.013l-8.489,3.68c0,0,0.704,15.983-1.454,36.15c-3.557,33.242-11.92,79.183-12.508,82.398
					c-2.605,3.156-10.179,11.076-19.813,9.946c-4.766-0.56-8.906,3.742-6.346,7.976c1.553,2.566,7.943,2.731,12.4-0.496
					c3.887-2.814,14.744-18.691,14.744-18.691S285.667,293.924,285.068,294.653z M308.311,419.789
					c-6.641-5.604-18.998-9.983-18.998-9.983l-8.689,11.102c0,0,11.006-1.555,17.576,1.577
					c11.682,5.567,11.387,12.421,11.387,12.421S316.625,426.808,308.311,419.789z"/>
			</g>
		</g>
		<g id="&#x417;&#x430;&#x43B;&#x438;&#x432;&#x43A;&#x430;_&#x446;&#x432;&#x435;&#x442;&#x43E;&#x43C;_175_2_">
			<g>
				<path style="fill-rule:evenodd;clip-rule:evenodd;fill:#3F1B2D;" d="M291.847,406.361c-2.134-0.808-3.81-1.824-5.431-2.808
					c-2.986-1.81-6.074-3.682-11.016-3.682c-1.521,0-3.118,0.175-4.883,0.535c-0.383,0.078-0.725,0.118-1.019,0.118
					c-0.62,0-0.768-0.163-0.864-0.27c-1.971-2.168-1.093-11.44-0.387-18.893c0.258-2.732,0.525-5.559,0.713-8.366
					c0.252-3.762,7.051-9.62,11.796-12.58c1.098-0.685,1.747-1.902,1.702-3.194c-0.043-1.293-0.773-2.465-1.914-3.074
					c-5.83-3.11-12.33-8.436-12.301-10.909c0.006-0.508,0.825-1.234,2.136-1.894c12.463-6.274,29.861-17.762,37.035-44.981
					c14.242-54.021,17.776-143.299,17.81-144.194c0.04-1.024-0.357-2.019-1.093-2.732c-0.403-0.392-9.976-9.614-20.808-12.887
					c-17.872-5.4-33.467-7.915-49.075-7.915c-15.517,0-31.068,2.515-48.94,7.915c-10.832,3.272-20.404,12.495-20.806,12.887
					c-0.735,0.714-1.133,1.708-1.094,2.732c0.034,0.896,3.568,90.174,17.808,144.194c7.176,27.22,24.574,38.707,37.037,44.981
					c1.312,0.659,2.13,1.386,2.136,1.894c0.029,2.474-6.471,7.799-12.302,10.909c-1.141,0.609-1.87,1.781-1.914,3.074
					c-0.044,1.292,0.605,2.51,1.703,3.194c4.747,2.96,11.543,8.818,11.795,12.58c0.188,2.809,0.456,5.634,0.715,8.367
					c0.707,7.451,1.585,16.724-0.386,18.892c-0.098,0.106-0.245,0.27-0.866,0.27c-0.294,0-0.637-0.04-1.019-0.118
					c-1.765-0.36-3.362-0.535-4.883-0.535c-4.94,0-8.029,1.872-11.016,3.682c-1.621,0.983-3.297,2-5.43,2.808
					c-11.402,4.318-26.354,11.476-24.564,23.729c0.013,0.087,0.028,0.174,0.047,0.26c3.203,14.457,40.922,18.313,62.704,18.312
					l1.247-0.002c25.904-0.15,57.199-5.035,60.141-18.31c0.021-0.086,0.035-0.173,0.048-0.26
					C318.199,417.838,303.248,410.68,291.847,406.361z M195.349,151.558c0.144-0.906,0.859-1.957,1.96-3.063
					c2.952-1.969,6.479-3.922,10.094-5.014c17.173-5.188,32.059-7.605,46.846-7.605c14.878,0,29.808,2.417,46.981,7.605
					c3.456,1.044,6.84,2.887,9.719,4.775c1.127,1.109,1.865,2.17,2.035,3.094c0.07,0.389,0.237,1.3-1.593,2.504
					c-7.533,4.958-30.644,8.29-57.507,8.289c-26.406,0-48.215-3.197-56.914-8.345C195.164,152.729,195.298,151.879,195.349,151.558z
					 M309.502,159.646l-2.527,20.018c-0.994,7.673-2.064,15.331-3.219,22.972c-2.172,15.294-4.606,30.533-7.398,45.651
					c-1.418,7.556-3.018,15.063-4.703,22.516c-0.859,3.723-1.774,7.425-2.769,11.093l-0.76,2.736l-0.395,1.379l-0.389,1.283
					c-0.534,1.686-1.153,3.333-1.858,4.931c-2.841,6.362-7.002,12.023-12.501,15.904c-5.442,3.912-12.079,6.016-18.728,5.963
					c-6.65,0.044-13.29-2.09-18.747-5.997c-5.505-3.885-9.7-9.521-12.55-15.875c-0.702-1.578-1.338-3.277-1.851-4.888
					c-0.54-1.738-1.055-3.617-1.553-5.434c-0.994-3.668-1.909-7.371-2.769-11.094c-1.683-7.454-3.295-14.959-4.707-22.516
					c-2.79-15.119-5.225-30.358-7.397-45.652c-1.153-7.641-2.222-15.3-3.213-22.972l-2.533-20.114
					c10.962,4.384,30.875,6.938,54.948,6.938c0.001,0,0.001,0,0.003,0C272.705,166.488,297.092,164.648,309.502,159.646z
					 M208.218,294.518c-12.967-49.191-16.946-128.47-17.503-140.952c0.134-0.118,0.287-0.25,0.442-0.384
					c0.345,1.392,1.301,2.994,3.603,4.356c0.992,0.587,2.131,1.147,3.392,1.684c0.87,14.6,2.075,29.174,3.551,43.723
					c1.58,15.402,3.479,30.775,5.943,46.068c1.238,7.645,2.621,15.269,4.237,22.847c0.811,3.789,1.679,7.566,2.631,11.324
					c0.955,3.739,1.918,7.541,3.474,11.141c3.013,7.198,7.844,13.735,14.229,18.334c6.346,4.622,14.163,7.214,22.03,7.223
					c7.868,0.021,15.699-2.555,22.039-7.188c6.381-4.608,11.189-11.164,14.188-18.366c1.548-3.601,2.511-7.399,3.466-11.144
					c0.953-3.758,1.822-7.535,2.632-11.324c1.616-7.578,2.999-15.202,4.235-22.847c2.465-15.292,4.364-30.666,5.943-46.067
					c1.473-14.519,2.674-29.061,3.543-43.628c1.322-0.572,2.497-1.182,3.488-1.835c2.215-1.458,3.121-3.105,3.432-4.522
					c0.258,0.218,0.499,0.426,0.707,0.608c-0.558,12.489-4.535,91.75-17.505,140.951c-6.431,24.391-22.079,34.714-33.29,40.358
					c-1.7,0.855-2.939,1.81-3.848,2.79c-0.219,0.147-0.426,0.315-0.604,0.527c-1.143,1.36-5.138,5.242-8.401,5.242
					c-2.627,0-5.766-2.326-7.641-4.028c-0.868-1.566-2.421-3.172-5.122-4.531C230.297,329.233,214.648,318.91,208.218,294.518z
					 M236.421,357.595c3.915-2.605,8.603-6.446,10.422-10.766c2.165,1.323,4.741,2.4,7.428,2.4c2.734,0,5.318-1.16,7.451-2.559
					c1.77,4.384,6.526,8.286,10.488,10.924c-4.396,3.454-10.078,9.017-10.473,14.919c-0.182,2.708-0.444,5.482-0.699,8.168
					c-1.027,10.859-1.833,19.481,1.967,24.104c-1.234,1.327-3.646,2.821-8.264,2.821c-4.782,0-7.498-1.597-8.968-3.004
					c3.633-4.666,2.836-13.202,1.821-23.922c-0.255-2.684-0.518-5.46-0.699-8.168C246.501,366.611,240.819,361.049,236.421,357.595z
					 M225.971,409.746c2.617-1.586,4.346-2.634,7.263-2.634c1.029,0,2.153,0.127,3.436,0.389c2.085,0.426,3.966,0.306,5.588-0.295
					c2.034,2.204,5.815,4.745,12.485,4.745c6.572,0,10.058-2.46,11.869-4.684c0.897,0.305,1.854,0.498,2.888,0.498
					c0.779,0,1.609-0.09,2.466-0.265c1.283-0.262,2.406-0.389,3.436-0.389c2.918,0,4.646,1.048,7.262,2.634
					c0.616,0.374,1.278,0.766,1.969,1.159c-0.168,0.787-0.568,1.862-1.512,3.006c-2.23,2.704-8.818,7.239-27.883,7.239
					c-18.795,0-25.443-4.427-27.733-7.063c-1.607-1.854-1.772-3.528-1.767-4.199C225.812,409.841,225.896,409.792,225.971,409.746z
					 M309.265,428.902c-1.578,5.929-23.147,12.345-53.085,12.517l-1.205,0.003c-30.933,0.002-54.007-6.572-55.606-12.521
					c-0.625-5.206,6.097-10.51,19.983-15.77c0.346-0.131,0.65-0.272,0.975-0.409c0.388,1.455,1.138,3.151,2.561,4.875
					c5.116,6.201,16,9.345,32.349,9.345c16.35,0,27.235-3.144,32.352-9.345c1.209-1.466,1.929-2.91,2.357-4.205
					C303.373,418.567,309.881,423.783,309.265,428.902z"/>
			</g>
		</g>
		<g id="&#x417;&#x430;&#x43B;&#x438;&#x432;&#x43A;&#x430;_&#x446;&#x432;&#x435;&#x442;&#x43E;&#x43C;_176_2_">
			<g>
				<path style="fill-rule:evenodd;clip-rule:evenodd;fill:#F86479;" d="M307.455,172.501c-0.043-0.114-0.17-0.171-0.283-0.129
					c-4.375,1.483-8.697,2.938-13.041,4.184c-2.171,0.618-4.34,1.202-6.512,1.701c-2.148,0.478-4.395,0.902-6.616,1.355
					c-4.438,0.919-8.858,1.85-13.313,2.581c-4.46,0.674-8.932,1.304-13.465,1.729c-4.532,0.409-9.124,0.317-13.632-0.387
					c-4.517-0.688-8.876-2.202-13.253-3.423c-1.093-0.29-2.179-0.611-3.299-0.884l-3.258-0.798c-2.16-0.562-4.314-1.198-6.473-1.851
					c-4.321-1.313-8.616-2.805-13.031-4.209c-0.085-0.026-0.188-0.003-0.246,0.071c-0.075,0.096-0.059,0.234,0.037,0.31
					c3.686,2.895,7.801,5.112,12.077,6.987c4.256,1.857,8.893,3.242,13.428,3.907c4.588,0.705,9.259,0.844,13.845,1.279
					l13.806,1.375c4.638,0.426,9.333,0.426,13.973-0.034c4.647-0.392,9.259-1.112,13.784-2.119
					c4.475-1.018,9.107-2.424,13.332-4.382c4.252-1.944,8.34-4.197,12.066-7.014C307.453,172.694,307.488,172.592,307.455,172.501z"
					/>
			</g>
		</g>
		<g id="&#x424;&#x438;&#x433;&#x443;&#x440;&#x430;_298_2_" style="opacity:0.749;">
			<g>
				<path style="fill-rule:evenodd;clip-rule:evenodd;fill:#FFFFFF;" d="M221.598,135.328c14.735-3.07,41.152-4.703,63.299-0.362
					c23.353,4.577,36.989,12.455,36.989,12.455s-5.948-5.983-16.964-10.267c-7.979-3.103-23.927-6.848-40.547-8.182
					c-17.563-1.41-43.462,1.694-59.391,7.197c-15.758,5.443-21.575,11.769-21.575,16.001c0,0.316,0.714,13.024,0.938,17.268
					c0.636,12.064,1.808,25.371,1.808,25.371s1.269-19.539,1.574-29.526c0.1-3.26,2.354-3.965,3.836-4.082
					c2.017,0.808,4.171,1.529,6.157,2.307c4.725,1.848,14.691,3.556,24.712,4.337c-0.102,6.924-0.437,36.095,0.553,68.696
					c0.661,21.781,2.22,30.925,4.577,44.983c1.888,11.263,7.444,23.055,9.376,23.055c1.12,0-0.39-9.354-0.868-23.164
					c-0.512-14.769-0.901-25.939-0.586-44.916c0.484-29.265,0.111-61.511,0.023-68.207c18.859-0.134,32.991-2.156,32.991-2.156
					s-41.994,0.705-66.623-6.099c-13.252-3.661-11.572-10.17-9.476-12.906C195.703,142.818,207.133,138.343,221.598,135.328z"/>
			</g>
		</g>
	</g>
	<g id="&#x424;&#x438;&#x433;&#x443;&#x440;&#x430;_300" style="opacity:0.502;">
		<g>
			<path style="fill-rule:evenodd;clip-rule:evenodd;fill:#FFFFFF;" d="M222.097,142.393c-1.799,0-3.258,1.459-3.258,3.258
				c0,1.8,1.458,3.259,3.258,3.259c1.8,0,3.258-1.459,3.258-3.259C225.355,143.852,223.896,142.393,222.097,142.393z
				 M241.284,138.772c-1.6,0-2.896,1.296-2.896,2.896s1.297,2.896,2.896,2.896c1.599,0,2.896-1.297,2.896-2.896
				S242.883,138.772,241.284,138.772z M264.092,169.906c-1.8,0-3.259,1.459-3.259,3.258c0,1.8,1.459,3.259,3.259,3.259
				c1.799,0,3.258-1.459,3.258-3.259C267.35,171.365,265.891,169.906,264.092,169.906z M278.21,143.841
				c-1.999,0-3.62,1.62-3.62,3.62c0,1.999,1.621,3.62,3.62,3.62s3.62-1.621,3.62-3.62
				C281.83,145.461,280.209,143.841,278.21,143.841z M252.507,151.081c-1,0-1.811,0.811-1.811,1.81c0,1,0.811,1.811,1.811,1.811
				c1,0,1.81-0.811,1.81-1.811C254.317,151.892,253.506,151.081,252.507,151.081z M266.264,96.777c-2.6,0-4.707,2.107-4.707,4.707
				c0,2.599,2.107,4.706,4.707,4.706s4.706-2.107,4.706-4.706C270.97,98.885,268.863,96.777,266.264,96.777z M229.699,90.262
				c-1.6,0-2.896,1.296-2.896,2.896s1.296,2.896,2.896,2.896s2.896-1.297,2.896-2.896S231.299,90.262,229.699,90.262z
				 M240.56,114.154c0.8,0,1.448-0.647,1.448-1.447s-0.648-1.448-1.448-1.448s-1.448,0.648-1.448,1.448
				S239.76,114.154,240.56,114.154z M204.72,114.879c-1.399,0-2.534,1.135-2.534,2.534s1.135,2.534,2.534,2.534
				c1.4,0,2.534-1.135,2.534-2.534S206.12,114.879,204.72,114.879z M298.483,75.78c-1.999,0-3.62,1.621-3.62,3.62
				c0,2,1.621,3.62,3.62,3.62s3.62-1.62,3.62-3.62C302.104,77.401,300.482,75.78,298.483,75.78z M277.124,126.464
				c1,0,1.81-0.811,1.81-1.811s-0.81-1.811-1.81-1.811c-0.999,0-1.81,0.811-1.81,1.811S276.125,126.464,277.124,126.464z
				 M294.139,146.736c-1.199,0-2.172,0.973-2.172,2.173c0,1.199,0.973,2.172,2.172,2.172c1.2,0,2.172-0.973,2.172-2.172
				C296.311,147.709,295.339,146.736,294.139,146.736z M306.086,114.154c-1,0-1.811,0.811-1.811,1.811s0.811,1.811,1.811,1.811
				s1.811-0.811,1.811-1.811S307.086,114.154,306.086,114.154z M346.994,185.111c-2,0-3.62,1.62-3.62,3.62
				c0,1.999,1.62,3.62,3.62,3.62s3.62-1.621,3.62-3.62C350.614,186.731,348.994,185.111,346.994,185.111z M366.905,181.49
				c-1,0-1.81,0.811-1.81,1.811s0.81,1.811,1.81,1.811s1.811-0.811,1.811-1.811S367.905,181.49,366.905,181.49z M352.786,208.28
				c-1.199,0-2.172,0.973-2.172,2.172c0,1.2,0.973,2.173,2.172,2.173c1.2,0,2.173-0.973,2.173-2.173
				C354.959,209.253,353.986,208.28,352.786,208.28z M249.61,271.996c-1,0-1.81,0.811-1.81,1.811c0,0.999,0.811,1.81,1.81,1.81
				c1,0,1.81-0.811,1.81-1.81C251.42,272.807,250.61,271.996,249.61,271.996z M263.367,249.551c-1.399,0-2.534,1.135-2.534,2.534
				s1.135,2.534,2.534,2.534c1.4,0,2.534-1.135,2.534-2.534S264.768,249.551,263.367,249.551z M242.732,256.067
				c-0.4,0-0.724,0.324-0.724,0.724c0,0.4,0.324,0.725,0.724,0.725s0.724-0.324,0.724-0.725
				C243.456,256.392,243.132,256.067,242.732,256.067z M264.453,274.168c-0.799,0-1.447,0.648-1.447,1.448s0.648,1.448,1.447,1.448
				c0.8,0,1.448-0.648,1.448-1.448S265.253,274.168,264.453,274.168z M357.131,274.168c-1.199,0-2.172,0.973-2.172,2.172
				c0,1.2,0.973,2.173,2.172,2.173s2.172-0.973,2.172-2.173C359.303,275.141,358.33,274.168,357.131,274.168z M373.784,256.791
				c0-1.199-0.973-2.172-2.173-2.172c-1.199,0-2.172,0.973-2.172,2.172c0,1.2,0.973,2.172,2.172,2.172
				C372.812,258.963,373.784,257.991,373.784,256.791z M373.784,277.788c-1.2,0-2.173,0.973-2.173,2.173
				c0,1.199,0.973,2.172,2.173,2.172c1.199,0,2.172-0.973,2.172-2.172C375.956,278.761,374.983,277.788,373.784,277.788z
				 M137.022,276.34c-1.6,0-2.896,1.297-2.896,2.896s1.297,2.896,2.896,2.896s2.896-1.297,2.896-2.896
				S138.622,276.34,137.022,276.34z M142.09,292.993c-0.8,0-1.448,0.648-1.448,1.448s0.648,1.448,1.448,1.448
				c0.799,0,1.448-0.648,1.448-1.448S142.89,292.993,142.09,292.993z M150.417,265.479c-1,0-1.81,0.811-1.81,1.811
				c0,0.999,0.811,1.81,1.81,1.81c1,0,1.81-0.811,1.81-1.81C152.227,266.29,151.417,265.479,150.417,265.479z M142.814,240.862
				c0-0.8-0.648-1.448-1.448-1.448s-1.448,0.648-1.448,1.448s0.648,1.448,1.448,1.448S142.814,241.662,142.814,240.862z
				 M149.331,180.043c-2,0-3.62,1.62-3.62,3.62c0,1.999,1.621,3.62,3.62,3.62s3.62-1.621,3.62-3.62
				C152.951,181.663,151.33,180.043,149.331,180.043z M173.948,169.182c-2.399,0-4.345,1.945-4.345,4.345s1.945,4.344,4.345,4.344
				c2.399,0,4.344-1.944,4.344-4.344S176.347,169.182,173.948,169.182z M130.868,182.938c-1.4,0-2.534,1.135-2.534,2.534
				s1.134,2.534,2.534,2.534c1.399,0,2.534-1.135,2.534-2.534S132.267,182.938,130.868,182.938z M137.746,152.529
				c0-1.2-0.973-2.173-2.172-2.173s-2.172,0.973-2.172,2.173c0,1.199,0.972,2.172,2.172,2.172S137.746,153.729,137.746,152.529z
				 M155.123,137.324c-1.2,0-2.172,0.973-2.172,2.172c0,1.2,0.973,2.172,2.172,2.172s2.172-0.972,2.172-2.172
				C157.295,138.297,156.323,137.324,155.123,137.324z M330.342,193.8c-1.2,0-2.173,0.972-2.173,2.172
				c0,1.199,0.973,2.172,2.173,2.172c1.199,0,2.172-0.973,2.172-2.172C332.514,194.771,331.541,193.8,330.342,193.8z
				 M345.908,164.113c1.799,0,3.258-1.458,3.258-3.258s-1.459-3.258-3.258-3.258s-3.258,1.458-3.258,3.258
				S344.109,164.113,345.908,164.113z M367.268,144.564c0-1.999-1.621-3.62-3.62-3.62c-2,0-3.62,1.621-3.62,3.62
				s1.62,3.62,3.62,3.62C365.646,148.185,367.268,146.563,367.268,144.564z M340.479,136.6c-0.801,0-1.449,0.648-1.449,1.448
				s0.648,1.448,1.449,1.448c0.799,0,1.447-0.648,1.447-1.448S341.277,136.6,340.479,136.6z M198.928,90.262
				c-1.4,0-2.534,1.134-2.534,2.534c0,1.399,1.134,2.534,2.534,2.534c1.399,0,2.534-1.135,2.534-2.534
				C201.461,91.396,200.327,90.262,198.928,90.262z M244.904,69.264c-1.2,0-2.172,0.973-2.172,2.173
				c0,1.199,0.973,2.172,2.172,2.172s2.172-0.973,2.172-2.172C247.076,70.236,246.104,69.264,244.904,69.264z M287.261,210.452
				c-1.8,0-3.259,1.459-3.259,3.259c0,1.799,1.459,3.258,3.259,3.258s3.259-1.459,3.259-3.258
				C290.52,211.911,289.061,210.452,287.261,210.452z M217.391,202.488c-1.6,0-2.896,1.296-2.896,2.896s1.296,2.896,2.896,2.896
				s2.896-1.297,2.896-2.896S218.99,202.488,217.391,202.488z"/>
		</g>
	</g>
	<g id="&#x417;&#x430;&#x43B;&#x438;&#x432;&#x43A;&#x430;_&#x446;&#x432;&#x435;&#x442;&#x43E;&#x43C;_177">
		<g>
			<path style="fill-rule:evenodd;clip-rule:evenodd;fill:#FFBC5C;" d="M112.083,153.237c-3.44-0.479-6.906-0.767-10.404-0.828
				c-3.501-0.038-7.027,0.095-10.633,0.8c3.272,1.669,6.625,2.768,10.002,3.694c3.38,0.904,6.792,1.583,10.231,2.068
				c3.438,0.487,6.905,0.773,10.403,0.836c3.501,0.04,7.028-0.095,10.634-0.807c-3.271-1.678-6.624-2.778-10-3.703
				C118.934,154.395,115.522,153.716,112.083,153.237z M163.031,125.522c-3.723-3.413-7.583-6.647-11.568-9.721
				c-3.985-3.074-8.088-5.995-12.33-8.736c-4.257-2.722-8.619-5.307-13.334-7.437c3.25,4.025,6.852,7.595,10.559,11.028
				c3.722,3.413,7.583,6.646,11.563,9.726c3.979,3.081,8.083,6.002,12.325,8.743c4.255,2.724,8.619,5.307,13.339,7.43
				C170.341,132.523,166.741,128.953,163.031,125.522z M199.297,87.744c-1.813-3.316-3.797-6.54-5.98-9.656
				c-2.205-3.103-4.561-6.123-7.423-8.868c0.758,3.893,2.022,7.509,3.438,11.042c1.438,3.522,3.074,6.936,4.881,10.256
				c1.806,3.32,3.791,6.544,5.973,9.659c2.202,3.104,4.56,6.124,7.43,8.865c-0.751-3.896-2.013-7.514-3.432-11.046
				C202.747,94.474,201.112,91.061,199.297,87.744z M255.403,59.807c-1.199,2.896-1.821,5.793-2.27,8.688
				c-0.424,2.896-0.623,5.793-0.625,8.688c-0.006,2.896,0.193,5.793,0.618,8.688c0.446,2.896,1.069,5.793,2.277,8.689
				c1.208-2.896,1.832-5.793,2.277-8.689c0.424-2.896,0.623-5.792,0.617-8.688c-0.002-2.896-0.2-5.792-0.625-8.688
				C257.225,65.6,256.602,62.703,255.403,59.807z M319.426,87.475c-1.574,3.135-2.965,6.361-4.154,9.688
				c-1.169,3.338-2.18,6.754-2.67,10.431c2.648-2.598,4.775-5.456,6.743-8.395c1.948-2.947,3.695-5.996,5.259-9.136
				c1.566-3.139,2.959-6.365,4.146-9.692c1.168-3.338,2.181-6.754,2.678-10.428c-2.641,2.602-4.766,5.461-6.736,8.398
				C322.743,81.289,320.996,84.338,319.426,87.475z M373.422,113.386c-3.231,0.614-6.157,1.717-8.99,2.966
				c-2.82,1.27-5.521,2.73-8.117,4.357c-2.596,1.625-5.085,3.422-7.453,5.41c-2.357,2.008-4.621,4.165-6.573,6.816
				c3.235-0.607,6.163-1.709,8.994-2.959c2.821-1.27,5.521-2.731,8.112-4.363c2.593-1.633,5.081-3.429,7.45-5.418
				C369.2,118.187,371.465,116.03,373.422,113.386z M390.126,143.391c-2.808,0.189-5.566,0.599-8.281,1.199
				c-2.717,0.599-5.388,1.396-8.012,2.413c-2.619,1.039-5.198,2.252-7.651,4.033c2.977,0.575,5.827,0.581,8.639,0.413
				c2.807-0.188,5.566-0.599,8.28-1.207c2.715-0.606,5.386-1.402,8.009-2.421c2.618-1.04,5.199-2.251,7.654-4.025
				C395.788,143.229,392.938,143.225,390.126,143.391z"/>
		</g>
	</g>
</g>
</svg>
