<?xml version="1.0" encoding="iso-8859-1"?>
<!-- Generator: Adobe Illustrator 15.0.0, SVG Export Plug-In . SVG Version: 6.00 Build 0)  -->
<!DOCTYPE svg PUBLIC "-//W3C//DTD SVG 1.1//EN" "http://www.w3.org/Graphics/SVG/1.1/DTD/svg11.dtd" [
	<!ENTITY ns_extend "http://ns.adobe.com/Extensibility/1.0/">
	<!ENTITY ns_ai "http://ns.adobe.com/AdobeIllustrator/10.0/">
	<!ENTITY ns_graphs "http://ns.adobe.com/Graphs/1.0/">
	<!ENTITY ns_vars "http://ns.adobe.com/Variables/1.0/">
	<!ENTITY ns_imrep "http://ns.adobe.com/ImageReplacement/1.0/">
	<!ENTITY ns_sfw "http://ns.adobe.com/SaveForWeb/1.0/">
	<!ENTITY ns_custom "http://ns.adobe.com/GenericCustomNamespace/1.0/">
	<!ENTITY ns_adobe_xpath "http://ns.adobe.com/XPath/1.0/">
]>
<svg version="1.1" xmlns:x="&ns_extend;" xmlns:i="&ns_ai;" xmlns:graph="&ns_graphs;"
	 xmlns="http://www.w3.org/2000/svg" xmlns:xlink="http://www.w3.org/1999/xlink" x="0px" y="0px" width="512px" height="512px"
	 viewBox="0 0 512 512" style="enable-background:new 0 0 512 512;" xml:space="preserve">
<metadata>
	<sfw  xmlns="&ns_sfw;">
		<slices></slices>
		<sliceSourceBounds  height="512" width="512" x="94" y="94" bottomLeftOrigin="true"></sliceSourceBounds>
	</sfw>
</metadata>
<g id="&#x418;&#x437;&#x43E;&#x431;&#x440;&#x430;&#x436;&#x435;&#x43D;&#x438;&#x435;_xA0_17_1_">
	<g id="&#x417;&#x430;&#x43B;&#x438;&#x432;&#x43A;&#x430;_&#x446;&#x432;&#x435;&#x442;&#x43E;&#x43C;_1">
		<g>
			<rect x="3.699" y="4.439" style="fill-rule:evenodd;clip-rule:evenodd;fill:#B17D7B;" width="503.121" height="503.121"/>
		</g>
	</g>
	<g id="&#x417;&#x430;&#x43B;&#x438;&#x432;&#x43A;&#x430;_&#x446;&#x432;&#x435;&#x442;&#x43E;&#x43C;_5">
		<g>
			<path style="fill-rule:evenodd;clip-rule:evenodd;fill:#F3D4C3;" d="M484.624,25.156l20.717-20.717H3.699l20.717,20.717H484.624z
				 M24.416,486.844L3.699,507.561h501.642l-20.717-20.717H24.416z"/>
		</g>
	</g>
	
		<g id="&#x417;&#x430;&#x43B;&#x438;&#x432;&#x43A;&#x430;_&#x446;&#x432;&#x435;&#x442;&#x43E;&#x43C;_1_&#x43A;&#x43E;&#x43F;&#x438;&#x44F;_2">
		<g>
			<radialGradient id="SVGID_1_" cx="256.7402" cy="256" r="228.0762" gradientUnits="userSpaceOnUse">
				<stop  offset="0" style="stop-color:#7D7193"/>
				<stop  offset="0.2" style="stop-color:#7C7193"/>
				<stop  offset="0.4" style="stop-color:#6C6382"/>
				<stop  offset="0.5939" style="stop-color:#554E6B"/>
				<stop  offset="0.7515" style="stop-color:#3E3A53"/>
				<stop  offset="0.897" style="stop-color:#29273A"/>
				<stop  offset="1" style="stop-color:#232132"/>
			</radialGradient>
			<polygon style="fill-rule:evenodd;clip-rule:evenodd;fill:url(#SVGID_1_);" points="432.765,27.924 78.856,27.924 28.664,78.116 
				28.664,435.769 76.972,484.076 433.367,484.076 484.816,432.627 484.816,79.976 			"/>
		</g>
	</g>
	
		<g id="&#x417;&#x430;&#x43B;&#x438;&#x432;&#x43A;&#x430;_&#x446;&#x432;&#x435;&#x442;&#x43E;&#x43C;_1_&#x43A;&#x43E;&#x43F;&#x438;&#x44F;">
		<g>
			<path style="fill-rule:evenodd;clip-rule:evenodd;fill:#F2D2C0;" d="M25.109,24.37v463.26h463.26V24.37H25.109z M466.659,418.566
				l-47.353,47.353H91.283l-44.462-44.462V92.277l46.196-46.196h325.734l47.908,47.907V418.566z"/>
		</g>
	</g>
	<g id="&#x424;&#x438;&#x433;&#x443;&#x440;&#x430;_3">
		<g>
			<path style="fill-rule:evenodd;clip-rule:evenodd;fill:#A18180;" d="M429.873,25.156l-344.047-1.48l-62.15,62.891v342.566
				l59.931,59.19l344.046-0.739l59.931-59.191V84.347L429.873,25.156z M477.226,423.954l-56.231,54.751H91.006l-56.231-54.751
				V88.046l54.012-54.012h334.428l54.751,56.231L477.226,423.954z"/>
		</g>
	</g>
	<g id="&#x417;&#x430;&#x43B;&#x438;&#x432;&#x43A;&#x430;_&#x446;&#x432;&#x435;&#x442;&#x43E;&#x43C;_6">
		<g>
			<path style="fill-rule:evenodd;clip-rule:evenodd;fill:#C7907F;" d="M23.676,86.566l62.52-62.752l-62.52-0.139V86.566z
				 M487.584,23.63l-62.521,0.139l62.521,62.752V23.63z M22.196,488.37l62.521-0.139l-62.521-62.752V488.37z M425.803,488.971
				l62.521,0.139v-62.89L425.803,488.971z"/>
		</g>
	</g>
	
		<g id="&#x417;&#x430;&#x43B;&#x438;&#x432;&#x43A;&#x430;_&#x446;&#x432;&#x435;&#x442;&#x43E;&#x43C;_6_&#x43A;&#x43E;&#x43F;&#x438;&#x44F;">
		<g>
			<path style="fill-rule:evenodd;clip-rule:evenodd;fill:#FDECE7;" d="M27.964,485.886l56.753,2.346L55.27,458.579L27.964,485.886z
				 M54.694,55.434l31.502-31.619l-59.314,3.562L54.694,55.434z M485.117,26.582l-60.054-2.813l31.376,31.491L485.117,26.582z
				 M425.803,488.971l59.314-3.113l-28.158-28.158L425.803,488.971z"/>
		</g>
	</g>
	<g id="&#x424;&#x438;&#x433;&#x443;&#x440;&#x430;_1">
		<g>
			<path style="fill-rule:evenodd;clip-rule:evenodd;fill:#C7907F;" d="M34.774,487.769l0.093-9.156h-8.417L34.774,487.769z
				 M477.04,477.873l0.093,9.155l8.323-9.155H477.04z M476.393,25.804l-0.092,9.156h8.416L476.393,25.804z M26.451,34.96h8.417
				l-0.093-9.156L26.451,34.96z"/>
		</g>
	</g>
	<g id="&#x424;&#x438;&#x433;&#x443;&#x440;&#x430;_2">
		<g>
			<path style="fill-rule:evenodd;clip-rule:evenodd;fill:#FDECE7;" d="M22.597,480.813L9.026,497.72l-1.627,10.285l22.418-0.296
				l0.532-18.644l-3.492-6.957L22.597,480.813z M508.448,495.817l-18.855-14.581l-4.261,4.043l-3.068,4.209l2.646,16.529
				l23.688,1.353L508.448,495.817z M21.002,31.648l4.26-1.295l3.492-6.956L28.222,4.754L5.803,4.458l1.628,10.284L21.002,31.648z
				 M487.997,31.226l18.856-14.581l0.147-11.553l-23.687,1.353l-2.646,16.53l3.069,4.208L487.997,31.226z"/>
		</g>
	</g>
	<g id="&#x417;&#x430;&#x43B;&#x438;&#x432;&#x43A;&#x430;_&#x446;&#x432;&#x435;&#x442;&#x43E;&#x43C;_2">
		<g>
			<path style="fill-rule:evenodd;clip-rule:evenodd;fill:#2F181B;" d="M0,0v512h512V0H0z M503.121,503.121H8.878V8.879h494.243
				V503.121z"/>
		</g>
	</g>
	<g id="&#x417;&#x430;&#x43B;&#x438;&#x432;&#x43A;&#x430;_&#x446;&#x432;&#x435;&#x442;&#x43E;&#x43C;_3">
		<g>
			<path style="fill-rule:evenodd;clip-rule:evenodd;fill:#40292E;" d="M482.33,20.67H29.346l-9.369,9.369v397.468
				c-0.119,0.585-0.119,1.188,0,1.771v53.925l9.606,9.605h453.025l9.507-9.507V30.455L482.33,20.67z M28.855,34.183l4.633-4.634
				h40.974L28.855,75.156V34.183z M33.726,483.931l-4.871-4.871v-39.857l44.728,44.729H33.726z M483.237,479.158l-4.772,4.772
				H437.63l45.607-45.607V479.158z M483.237,425.769l-58.162,58.162H86.139l-57.283-57.283V87.711l58.162-58.162h338.058
				l58.162,58.162V425.769z M483.237,75.156L437.63,29.549h40.558l5.05,5.05V75.156z"/>
		</g>
	</g>
	
		<g id="&#x417;&#x430;&#x43B;&#x438;&#x432;&#x43A;&#x430;_&#x446;&#x432;&#x435;&#x442;&#x43E;&#x43C;_4_&#x43A;&#x43E;&#x43F;&#x438;&#x44F;" style="opacity:0.502;">
		<g>
			<path style="fill-rule:evenodd;clip-rule:evenodd;fill:#876867;" d="M465.59,92.913l-47.243-47.244
				c-0.685-0.685-1.612-1.068-2.579-1.068H94.545c-0.968,0-1.896,0.384-2.58,1.068L46.409,91.227
				c-0.684,0.684-1.069,1.611-1.069,2.579v324.619c0,0.968,0.385,1.896,1.069,2.579l43.847,43.847
				c0.684,0.684,1.612,1.068,2.579,1.068h323.479c0.968,0,1.896-0.385,2.579-1.068l46.696-46.696
				c0.685-0.685,1.069-1.612,1.069-2.58V95.493C466.659,94.525,466.274,93.598,465.59,92.913z M459.363,414.063l-44.56,44.56H94.346
				l-41.709-41.709V95.316l43.419-43.419h318.201l45.106,45.106V414.063z"/>
		</g>
	</g>
	<g id="&#x417;&#x430;&#x43B;&#x438;&#x432;&#x43A;&#x430;_&#x446;&#x432;&#x435;&#x442;&#x43E;&#x43C;_4">
		<g>
			<path style="fill-rule:evenodd;clip-rule:evenodd;fill:#40292E;" d="M468.534,90.633l-47.907-47.907
				c-0.693-0.694-1.635-1.084-2.615-1.084H92.277c-0.981,0-1.922,0.39-2.616,1.084L43.465,88.922
				c-0.693,0.693-1.083,1.635-1.083,2.615v329.18c0,0.981,0.39,1.922,1.083,2.615l44.463,44.463
				c0.694,0.693,1.634,1.084,2.615,1.084h328.023c0.981,0,1.922-0.391,2.615-1.084l47.353-47.353
				c0.694-0.694,1.084-1.635,1.084-2.616V93.248C469.618,92.268,469.229,91.326,468.534,90.633z M462.22,416.295l-45.186,45.185
				H92.075L49.78,419.185V93.07l44.029-44.03h322.67l45.74,45.741V416.295z"/>
		</g>
	</g>
</g>
<g id="&#x413;&#x440;&#x443;&#x43F;&#x43F;&#x430;_59_1_">
	<g id="&#x424;&#x438;&#x433;&#x443;&#x440;&#x430;_324" style="opacity:0.502;">
		<g>
			<path style="fill-rule:evenodd;clip-rule:evenodd;fill:#232132;" d="M407.544,309.47c0.136-17.583,25.54-56.992-2.35-77.489
				c-11.913-8.754-27.772-15.106-45.847-19.634c3.705-4.771,7.22-12.309,7.496-23.882c0.567-23.781-11.392-35.179-11.392-35.179
				s-1.217,20.08-12.52,33.491c-6.062,7.191-14.61,14.288-20.694,18.965c-18.85-2.24-38.672-3.207-58.089-3.341
				c-23.699-0.162-49.565,0.907-73.901,4.1c-6.114-4.645-15.288-12.137-21.683-19.724c-11.303-13.411-12.519-33.491-12.519-33.491
				s-11.959,11.397-11.392,35.179c0.301,12.616,4.449,20.441,8.499,25.107c-15.777,4.169-29.7,9.714-40.313,16.999
				c-24.72,16.969-15.324,38.636-9.991,77.829c10.143,74.535-30.81,26.248-29.751,94.374c0.506,34.201,82.033,44.189,183.226,44.189
				s181.617-19.837,183.226-44.189C444.153,333.087,406.899,392.971,407.544,309.47z"/>
		</g>
	</g>
	<g id="&#x424;&#x438;&#x433;&#x443;&#x440;&#x430;_302_&#x43A;&#x43E;&#x43F;&#x438;&#x44F;_2">
		<g>
			<path style="fill-rule:evenodd;clip-rule:evenodd;fill:#E18C52;" d="M417.442,378.129
				c-0.626-26.281-73.025-47.531-162.276-47.531c-89.639,0-162.305,21.434-162.305,47.872c0,0.388,0.068,0.77,0.099,1.155
				c-0.027,4.143-0.099,15.627-0.099,20.939c0,26.439,72.666,47.872,162.305,47.872s162.306-21.433,162.306-47.872
				c0-8.535,0.196-22.436,0.196-22.436H417.442z"/>
		</g>
	</g>
	<g id="&#x424;&#x438;&#x433;&#x443;&#x440;&#x430;_307">
		<g>
			<path style="fill-rule:evenodd;clip-rule:evenodd;fill:#F9C267;" d="M258.211,427.403
				c-124.438,1.381-164.829-39.052-164.829-39.052l-0.031,18.442c0,0,22.778,41.669,161.393,41.669s162.051-41.301,162.051-41.301
				v-20.1C416.795,387.063,382.647,426.022,258.211,427.403z"/>
		</g>
	</g>
	<g id="&#x424;&#x438;&#x433;&#x443;&#x440;&#x430;_307_&#x43A;&#x43E;&#x43F;&#x438;&#x44F;_2">
		<g>
			<path style="fill-rule:evenodd;clip-rule:evenodd;fill:#DD8448;" d="M93.382,388.352l-0.031,18.442
				c0,0,16.486,30.12,106.625,39.142c-0.735-2.493-1.123-5.074-1.123-7.718c0-4.673,1.212-9.148,3.421-13.287
				C121.32,416.305,93.382,388.352,93.382,388.352z M305.296,424.825c2.245,4.169,3.48,8.68,3.48,13.393
				c0,2.721-0.416,5.373-1.194,7.933c92.012-8.697,109.213-38.988,109.213-38.988v-20.1
				C416.795,387.063,391.533,415.881,305.296,424.825z"/>
		</g>
	</g>
	<g id="&#x424;&#x438;&#x433;&#x443;&#x440;&#x430;_307_&#x43A;&#x43E;&#x43F;&#x438;&#x44F;">
		<g>
			<path style="fill-rule:evenodd;clip-rule:evenodd;fill:#963D2B;" d="M93.382,388.352l-0.031,18.442
				c0,0,11.704,21.396,69.341,33.524c-0.023-0.7-0.064-1.396-0.064-2.101c0-6.602,1.037-13.002,2.968-19.104
				C112.671,407.637,93.382,388.352,93.382,388.352z M342.068,419.214c1.912,6.071,2.934,12.438,2.934,19.004
				c0,0.864-0.043,1.72-0.078,2.577c59.546-11.942,71.871-33.633,71.871-33.633v-20.1
				C416.795,387.063,398.935,407.407,342.068,419.214z"/>
		</g>
	</g>
	<g id="&#x424;&#x438;&#x433;&#x443;&#x440;&#x430;_307_&#x43A;&#x43E;&#x43F;&#x438;&#x44F;_3">
		<g>
			<path style="fill-rule:evenodd;clip-rule:evenodd;fill:#5F2624;" d="M113.527,401.454c0.839,5.058,1.305,10.555,1.305,16.311
				c0,2.105-0.066,4.173-0.186,6.2c5.796,3.117,13.052,6.347,22.111,9.398c-0.372-3.157-0.563-6.358-0.552-9.599
				c0.014-4.218,0.396-8.363,1.052-12.438C127.602,408.04,119.773,404.621,113.527,401.454z M395.977,423.784
				c-0.19-4.043-0.294-8.211-0.294-12.479c0-3.392,0.063-6.722,0.185-9.975c-6.706,3.429-15.238,7.106-25.966,10.59
				c0.569,3.884,0.892,7.83,0.879,11.844c-0.013,3.615-0.29,7.179-0.775,10.691C380.914,431.025,389.402,427.323,395.977,423.784z"
				/>
		</g>
	</g>
	<g id="&#x424;&#x438;&#x433;&#x443;&#x440;&#x430;_306">
		<g>
			<ellipse style="fill-rule:evenodd;clip-rule:evenodd;fill:#9F462F;" cx="254.506" cy="377.664" rx="140.44" ry="31.002"/>
		</g>
	</g>
	<g id="&#x417;&#x430;&#x43B;&#x438;&#x432;&#x43A;&#x430;_&#x446;&#x432;&#x435;&#x442;&#x43E;&#x43C;_178">
		<g>
			<path style="fill-rule:evenodd;clip-rule:evenodd;fill:#461D1C;" d="M422.364,379.068c-0.107-15.076-17.627-28.197-50.697-37.951
				c-31.05-9.158-72.253-14.202-116.017-14.202c-43.764,0-84.966,5.044-116.017,14.202c-33.173,9.784-50.707,22.955-50.707,38.089
				c0.13,3.309,0,8.948,0,22.095c0,15.134,17.534,28.305,50.707,38.09c31.05,9.158,72.253,14.202,116.017,14.202
				c43.764,0,84.967-5.044,116.017-14.202c33.172-9.785,50.707-22.956,50.707-38.09
				C422.374,386.113,422.372,382.219,422.364,379.068z M255.65,335.753c93.044,0,157.886,22.9,157.886,43.453
				s-64.842,43.453-157.886,43.453c-91.502,0-155.683-22.146-157.786-42.428c0.006-0.861,0.009-1.37,0.009-1.37l-0.075-0.001
				C98.518,358.397,163.126,335.753,255.65,335.753z M413.536,401.301c0,20.553-64.842,43.453-157.886,43.453
				c-93.044,0-157.886-22.9-157.886-43.453c0-1.224,0.004-2.776,0.01-4.491c8.307,7.804,22.357,14.733,41.859,20.486
				c31.05,9.158,72.253,14.202,116.017,14.202c43.764,0,84.967-5.044,116.017-14.202c19.521-5.759,33.58-12.696,41.884-20.511
				C413.542,398.351,413.536,399.882,413.536,401.301z"/>
		</g>
	</g>
	<g id="&#x424;&#x438;&#x433;&#x443;&#x440;&#x430;_302">
		<g>
			<path style="fill-rule:evenodd;clip-rule:evenodd;fill:#75C0EA;" d="M380.085,289.514c-3.876-2.721-4.094-7.537-6.582-10.361
				c-2.269-2.575-4.964-1.347-5.145,1.29c-0.255,3.738,0.153,16.722-3.465,23.169c-2.557,4.556-16.271,7.216-21.275-4.687
				c-2.741-6.521,0.852-15.857,0.399-21.521c-0.959-12.002-18.744-4.014-20.051,11.674c-0.384,4.604,1.584,15.952-0.789,21.473
				c-1.117,2.601-4.792,4.901-8.078,5.224c-5.934,0.582-9.594-3.492-10.867-8.785c-0.86-3.577-0.121-6.92-0.207-12.774
				c-0.203-13.996-16.719-7.862-18.578,2.596c-1.859,10.459,3.773,24.536-9.926,23.357c-13.698-1.179-8.836-15.09-9.168-18.735
				c-0.331-3.646-4.783-11.731-13.932-5.759c-4.965,3.241-6.015,10.963-4.204,23.36c1.764,12.069-1.093,17.747-6.045,16.742
				c-5.483-1.113-1.494-8.934-7.715-10.867c-10.491-3.262-3.787-21.23-4.726-31.247c-0.939-10.016-4.078-18.531-11.69-18.217
				c-4.428,0.183-7.89,6.632-10.95,11.518c-4.164,6.648,3.781,22.594-3.119,28.887c-12.981,11.839-21.174-5.781-15.577-21.358
				c3.673-10.222-2.415-14.413-7.647-10.306c-4.298,3.374-3.482,9.887-2.958,15.737c1.232,13.738-6.35,19.867-13.357,15.485
				c-8.411-5.261-4.098-17.64-1.097-25.962c2.118-5.874-3.009-14.059-8.92-10.91c-5.91,3.148-1.06,5.938-2.109,10.395
				c-1.049,4.456-4.7,13.109-11.601,9.979c-8.958-4.064-6.481-16.177-5.395-19.62s0.314-12.104-4.768-10.852
				c0.221-0.221-0.11,30.656-0.11,30.656s-0.17,0.055-0.472,0.125c0.067,6.872,0.582,60.801,0.375,79.251
				c0,16.677,55.891,30.196,124.836,30.196s124.835-13.52,124.835-30.196C380.255,369.603,380.133,309.374,380.085,289.514z"/>
		</g>
	</g>
	<g id="&#x424;&#x438;&#x433;&#x443;&#x440;&#x430;_302_&#x43A;&#x43E;&#x43F;&#x438;&#x44F;_12">
		<g>
			<path style="fill-rule:evenodd;clip-rule:evenodd;fill:#527FCA;" d="M192.829,318.978c-5.789-2.943-8.144-14.159-4.433-24.486
				c3.673-10.222-2.415-14.413-7.647-10.306c-4.298,3.374-3.482,9.887-2.958,15.737c1.232,13.738-6.35,19.867-13.357,15.485
				c-8.411-5.261-4.098-17.64-1.097-25.962c2.118-5.874-3.009-14.059-8.92-10.91c-5.91,3.148-1.06,5.938-2.109,10.395
				c-1.049,4.456-4.7,13.109-11.601,9.979c-8.958-4.064-6.481-16.177-5.395-19.62s0.314-12.104-4.768-10.852
				c0.221-0.221-0.11,30.656-0.11,30.656s-0.17,0.055-0.472,0.125c0.067,6.872,0.582,60.801,0.375,79.251
				c0,11.859,28.277,22.116,69.4,27.056c-6.964-15.402-11.01-33.637-11.01-53.201C188.728,340.627,190.181,329.408,192.829,318.978z
				 M380.085,289.514c-3.876-2.721-4.094-7.537-6.582-10.361c-2.269-2.575-4.964-1.347-5.145,1.29
				c-0.255,3.738,0.153,16.722-3.465,23.169c-2.557,4.556-16.271,7.216-21.275-4.687c-2.741-6.521,0.852-15.857,0.399-21.521
				c-0.959-12.002-18.744-4.014-20.051,11.674c-0.323,3.873,1.008,12.505,0.031,18.439c4.857,13.477,7.609,28.688,7.609,44.807
				c0,18.951-3.781,36.669-10.349,51.761c35.272-5.336,58.75-14.811,58.75-25.615C380.255,369.603,380.133,309.374,380.085,289.514z
				"/>
		</g>
	</g>
	<g id="&#x424;&#x438;&#x433;&#x443;&#x440;&#x430;_302_&#x43A;&#x43E;&#x43F;&#x438;&#x44F;_13">
		<g>
			<path style="fill-rule:evenodd;clip-rule:evenodd;fill:#5D63B5;" d="M174.381,314.245c-2.629,2.878-6.36,3.407-9.948,1.163
				c-8.411-5.261-4.098-17.64-1.097-25.962c2.118-5.874-3.009-14.059-8.92-10.91c-5.91,3.148-1.06,5.938-2.109,10.395
				c-1.049,4.456-4.7,13.109-11.601,9.979c-8.958-4.064-6.481-16.177-5.395-19.62s0.314-12.104-4.768-10.852
				c0.221-0.221-0.11,30.656-0.11,30.656s-0.17,0.055-0.472,0.125c0.067,6.872,0.582,60.801,0.375,79.251
				c0,9.85,19.502,18.595,49.667,24.106c-8.019-14.762-12.635-31.922-12.635-50.252
				C167.369,338.836,169.872,325.981,174.381,314.245z M380.085,289.514c-3.876-2.721-4.094-7.537-6.582-10.361
				c-2.269-2.575-4.964-1.347-5.145,1.29c-0.255,3.738,0.153,16.722-3.465,23.169c-2.557,4.556-16.271,7.216-21.275-4.687
				c-2.741-6.521,0.852-15.857,0.399-21.521c-0.797-9.979-13.217-6.133-18.137,4.461c16.736,18.051,27.085,42.954,27.085,70.459
				c0,17.372-4.135,33.703-11.394,47.93c23.675-5.495,38.437-13.221,38.437-21.784C380.255,369.603,380.133,309.374,380.085,289.514
				z"/>
		</g>
	</g>
	<g id="&#x424;&#x438;&#x433;&#x443;&#x440;&#x430;_302_&#x43A;&#x43E;&#x43F;&#x438;&#x44F;_14">
		<g>
			<path style="fill-rule:evenodd;clip-rule:evenodd;fill:#4D4A8A;" d="M150.43,352.324c0-13.414,5.096-26.003,13.994-36.924
				c-8.396-5.265-4.086-17.636-1.086-25.954c2.118-5.874-3.009-14.059-8.92-10.91c-5.91,3.148-1.06,5.938-2.109,10.395
				c-1.049,4.456-4.7,13.109-11.601,9.979c-8.958-4.064-6.481-16.177-5.395-19.62s0.314-12.104-4.768-10.852
				c0.221-0.221-0.11,30.656-0.11,30.656s-0.17,0.055-0.472,0.125c0.067,6.872,0.582,60.801,0.375,79.251
				c0,9.591,18.505,18.131,47.326,23.662C160.722,388.829,150.43,371.409,150.43,352.324z M380.085,289.514
				c-3.876-2.721-4.094-7.537-6.582-10.361c-2.269-2.575-4.964-1.347-5.145,1.29c-0.255,3.738,0.153,16.722-3.465,23.169
				c-2.557,4.556-16.271,7.216-21.275-4.687c-2.741-6.521,0.852-15.857,0.399-21.521c-0.959-12.002-18.744-4.014-20.051,11.674
				c-0.043,0.503-0.053,1.099-0.047,1.746c27.829,13.709,45.985,36.137,45.985,61.5c0,17.661-8.818,33.894-23.556,46.761
				c20.865-5.396,33.659-12.643,33.659-20.615C380.255,369.603,380.133,309.374,380.085,289.514z"/>
		</g>
	</g>
	<g id="&#x424;&#x438;&#x433;&#x443;&#x440;&#x430;_302_&#x43A;&#x43E;&#x43F;&#x438;&#x44F;_9">
		<g>
			<path style="fill-rule:evenodd;clip-rule:evenodd;fill:#8777A5;" d="M380.085,289.514c-3.876-2.721-4.094-7.537-6.582-10.361
				c-2.269-2.575-4.964-1.347-5.145,1.29c-0.255,3.738,0.153,16.722-3.465,23.169c-2.557,4.556-16.271,7.216-21.275-4.687
				c-2.741-6.521,0.852-15.857,0.399-21.521c-0.959-12.002-18.744-4.014-20.051,11.674c-0.384,4.604,1.584,15.952-0.789,21.473
				c-1.117,2.601-4.792,4.901-8.078,5.224c-5.934,0.582-9.594-3.492-10.867-8.785c-0.86-3.577-0.121-6.92-0.207-12.774
				c-0.203-13.996-16.719-7.862-18.578,2.596c-1.859,10.459,3.773,24.536-9.926,23.357c-13.698-1.179-8.836-15.09-9.168-18.735
				c-0.331-3.646-4.783-11.731-13.932-5.759c-4.965,3.241-6.015,10.963-4.204,23.36c0.54,3.692,0.642,6.778,0.39,9.267
				c6.969-3.12,13.804-5.85,19.293-6.173c12.521-0.736,47.504,20.254,57.814,20.254c10.312,0,26.146-24.673,40.876-28.724
				c4.519-1.242,9.207-1.231,13.541-0.627C380.116,303.424,380.098,294.951,380.085,289.514z M163.337,289.446
				c2.118-5.874-3.009-14.059-8.92-10.91c-5.91,3.148-1.06,5.938-2.109,10.395c-1.049,4.456-4.7,13.109-11.601,9.979
				c-8.958-4.064-6.481-16.177-5.395-19.62s0.314-12.104-4.768-10.852c0.221-0.221-0.11,30.656-0.11,30.656s-0.17,0.055-0.472,0.125
				c0.032,3.324,0.169,17.664,0.279,33.667c7.169-6.394,20.386-16.247,34.577-17.273c-0.128-0.073-0.257-0.124-0.385-0.204
				C156.023,310.147,160.335,297.769,163.337,289.446z M234.458,324.909c-10.491-3.262-3.787-21.23-4.726-31.247
				c-0.939-10.016-4.078-18.531-11.69-18.217c-4.428,0.183-7.89,6.632-10.95,11.518c-4.164,6.648,3.781,22.594-3.119,28.887
				c-12.981,11.839-21.174-5.781-15.577-21.358c3.673-10.222-2.415-14.413-7.647-10.306c-4.298,3.374-3.482,9.887-2.958,15.737
				c0.776,8.658-1.951,14.286-5.826,16.173c9.352,2.455,15.501,12.082,23.139,17.786c7.252,5.415,16.455,5.922,28.607,4.081
				c4.378-0.664,9.718-2.815,15.337-5.323C238.24,329.871,238.483,326.16,234.458,324.909z"/>
		</g>
	</g>
	<g id="&#x424;&#x438;&#x433;&#x443;&#x440;&#x430;_302_&#x43A;&#x43E;&#x43F;&#x438;&#x44F;_10">
		<g>
			<path style="fill-rule:evenodd;clip-rule:evenodd;fill:#74598B;" d="M163.337,289.446c2.118-5.874-3.009-14.059-8.92-10.91
				c-5.91,3.148-1.06,5.938-2.109,10.395c-1.049,4.456-4.7,13.109-11.601,9.979c-8.958-4.064-6.481-16.177-5.395-19.62
				s0.314-12.104-4.768-10.852c0.221-0.221-0.11,30.656-0.11,30.656s-0.17,0.055-0.472,0.125c0.032,3.324,0.169,17.664,0.279,33.667
				c7.169-6.394,20.386-16.247,34.577-17.273c-0.128-0.073-0.257-0.124-0.385-0.204
				C156.023,310.147,160.335,297.769,163.337,289.446z M380.085,289.514c-3.876-2.721-4.094-7.537-6.582-10.361
				c-2.269-2.575-4.964-1.347-5.145,1.29c-0.255,3.738,0.153,16.722-3.465,23.169c-2.557,4.556-16.271,7.216-21.275-4.687
				c-2.741-6.521,0.852-15.857,0.399-21.521c-0.929-11.626-17.646-4.495-19.881,10.222c3.86,7.772,5.998,16.32,5.998,25.296
				c0,10.399-2.883,20.219-7.979,28.929c1.381,0.341,2.582,0.531,3.559,0.531c10.312,0,26.146-24.673,40.876-28.724
				c4.519-1.242,9.207-1.231,13.541-0.627C380.116,303.424,380.098,294.951,380.085,289.514z M180.749,284.186
				c-4.298,3.374-3.482,9.887-2.958,15.737c0.776,8.658-1.951,14.286-5.826,16.173c2.471,0.649,4.715,1.808,6.826,3.253
				c-0.244-2.114-0.374-4.258-0.374-6.427c0-10.723,3.066-20.827,8.462-29.736C185.177,282.233,182.896,282.501,180.749,284.186z"/>
		</g>
	</g>
	<g id="&#x424;&#x438;&#x433;&#x443;&#x440;&#x430;_302_&#x43A;&#x43E;&#x43F;&#x438;&#x44F;_11">
		<g>
			<path style="fill-rule:evenodd;clip-rule:evenodd;fill:#6A4671;" d="M154.417,278.536c-5.91,3.148-1.06,5.938-2.109,10.395
				c-1.049,4.456-4.7,13.109-11.601,9.979c-8.958-4.064-6.481-16.177-5.395-19.62s0.314-12.104-4.768-10.852
				c0.221-0.221-0.11,30.656-0.11,30.656s-0.17,0.055-0.472,0.125c0.032,3.324,0.169,17.664,0.279,33.667
				c5.408-4.822,14.257-11.608,24.369-15.096c-1.812-6.056-2.8-12.365-2.8-18.861c0-7.158,1.175-14.098,3.363-20.71
				C154.922,278.313,154.672,278.4,154.417,278.536z M380.085,289.514c-3.876-2.721-4.094-7.537-6.582-10.361
				c-2.269-2.575-4.964-1.347-5.145,1.29c-0.255,3.738,0.153,16.722-3.465,23.169c-1.18,2.101-4.736,3.777-8.714,3.829
				c-0.67,5.119-1.952,10.093-3.763,14.885c4.694-4.003,9.49-7.379,14.174-8.667c4.519-1.242,9.207-1.231,13.541-0.627
				C380.116,303.424,380.098,294.951,380.085,289.514z"/>
		</g>
	</g>
	<g id="&#x424;&#x438;&#x433;&#x443;&#x440;&#x430;_302_&#x43A;&#x43E;&#x43F;&#x438;&#x44F;_6">
		<g>
			<path style="fill-rule:evenodd;clip-rule:evenodd;fill:#DAB9D4;" d="M343.029,380.684c-23.692,5.689-57.422,9.325-86.299,9.325
				c-31.396,0-66.329-3.494-90.139-9.702c-16.822-4.387-29.399-11.149-36.206-15.387c0.004,5.398-0.009,10.096-0.048,13.55
				c0,16.677,55.891,30.196,124.836,30.196s124.835-13.52,124.835-30.196c0.055-1.958,0.091-6.426,0.114-12.405
				C372.688,370.463,360.268,376.544,343.029,380.684z"/>
		</g>
	</g>
	<g id="&#x424;&#x438;&#x433;&#x443;&#x440;&#x430;_302_&#x43A;&#x43E;&#x43F;&#x438;&#x44F;_7">
		<g>
			<path style="fill-rule:evenodd;clip-rule:evenodd;fill:#B387BD;" d="M343.029,380.684c-13.909,3.341-31.281,5.964-49.097,7.568
				c6.075,2.907,9.688,6.535,9.688,10.472c0,2.932-2.008,5.691-5.539,8.111c47.807-4.232,81.927-15.335,81.927-28.365
				c0.055-1.958,0.091-6.426,0.114-12.405C372.688,370.463,360.268,376.544,343.029,380.684z M218.082,388.354
				c-19.048-1.604-37.259-4.336-51.49-8.047c-16.822-4.387-29.399-11.149-36.206-15.387c0.004,5.398-0.009,10.096-0.048,13.55
				c0,13.223,35.149,24.452,84.067,28.54c-3.691-2.461-5.792-5.284-5.792-8.286C208.613,394.834,212.136,391.244,218.082,388.354z"
				/>
		</g>
	</g>
	<g id="&#x424;&#x438;&#x433;&#x443;&#x440;&#x430;_302_&#x43A;&#x43E;&#x43F;&#x438;&#x44F;_8">
		<g>
			<path style="fill-rule:evenodd;clip-rule:evenodd;fill:#9F6CAA;" d="M130.385,364.92c0.004,5.398-0.009,10.096-0.048,13.55
				c0,8.124,13.289,15.493,34.865,20.921c-0.011-0.223-0.043-0.443-0.043-0.667c0-5.909,3.644-11.479,10.057-16.394
				c-3.001-0.64-5.895-1.312-8.625-2.023C149.769,375.92,137.192,369.157,130.385,364.92z M343.029,380.684
				c-2.028,0.487-4.154,0.953-6.32,1.409c6.607,4.973,10.365,10.627,10.365,16.631c0,0.061-0.012,0.12-0.012,0.181
				c20.449-5.378,32.946-12.552,32.946-20.435c0.055-1.958,0.091-6.426,0.114-12.405
				C372.688,370.463,360.268,376.544,343.029,380.684z"/>
		</g>
	</g>
	
		<g id="&#x417;&#x430;&#x43B;&#x438;&#x432;&#x43A;&#x430;_&#x446;&#x432;&#x435;&#x442;&#x43E;&#x43C;_181" style="opacity:0.502;">
		<g>
			<path style="fill-rule:evenodd;clip-rule:evenodd;fill:#DAB8D3;" d="M186.365,321.591c-2.225-2.226-3.983-3.984-5.9-4.818
				c-29.531-12.836-50.287,13.559-50.493,13.825l2.391,1.612c0.192-0.25,19.512-24.822,46.863-12.936
				c1.398,0.607,3.063,2.272,4.988,4.2c5.443,5.446,13.405,13.415,29.267,13.415c7.207-0.001,16.048-1.646,27.021-5.923
				l-1.133-2.547C206.137,341.371,193.759,328.988,186.365,321.591z M363.65,311.984c-7.004,3.299-13.611,8.827-19.441,13.705
				c-6.394,5.352-12.436,10.406-17.414,11.229c-6.148,1.019-14.895-3.127-24.156-7.514c-8.195-3.882-17.486-8.281-26.646-9.9
				c-7.209-1.274-18.117,0.333-24.82,3.661c-0.512,0.254-1.02,0.503-1.521,0.746l1.352,2.449c0.511-0.247,1.027-0.499,1.549-0.758
				c6.089-3.023,16.36-4.543,22.895-3.389c8.749,1.546,17.448,5.667,25.862,9.651c8.954,4.241,16.83,7.971,23.447,7.971
				c0.873,0,1.723-0.065,2.552-0.202c5.806-0.961,11.856-6.024,18.865-11.889c5.971-4.996,12.146-10.163,18.801-13.299
				c8.543-4.021,18.8,0.566,18.9,0.614l1.296-2.478C384.697,312.368,373.517,307.336,363.65,311.984z"/>
		</g>
	</g>
	
		<g id="&#x417;&#x430;&#x43B;&#x438;&#x432;&#x43A;&#x430;_&#x446;&#x432;&#x435;&#x442;&#x43E;&#x43C;_181_&#x43A;&#x43E;&#x43F;&#x438;&#x44F;" style="opacity:0.502;">
		<g>
			<path style="fill-rule:evenodd;clip-rule:evenodd;fill:#A4DFFF;" d="M186.365,328.956c-2.225-2.227-3.983-3.985-5.9-4.818
				c-29.531-12.836-50.287,13.558-50.493,13.825l2.391,1.612c0.192-0.25,19.512-24.823,46.863-12.936
				c1.398,0.607,3.063,2.272,4.988,4.2c5.443,5.446,13.405,13.415,29.267,13.414c7.207,0,16.048-1.646,27.021-5.922l-1.133-2.547
				C206.137,348.736,193.759,336.353,186.365,328.956z M363.65,319.35c-7.004,3.299-13.611,8.827-19.441,13.705
				c-6.394,5.352-12.436,10.406-17.414,11.229c-6.148,1.019-14.895-3.127-24.156-7.514c-8.195-3.882-17.486-8.282-26.646-9.9
				c-7.209-1.274-18.117,0.333-24.82,3.661c-0.512,0.254-1.02,0.502-1.521,0.746l1.352,2.449c0.511-0.247,1.027-0.5,1.549-0.759
				c6.089-3.022,16.36-4.543,22.895-3.389c8.749,1.547,17.448,5.668,25.862,9.652c8.954,4.24,16.83,7.971,23.447,7.971
				c0.873,0,1.723-0.065,2.552-0.202c5.806-0.961,11.856-6.024,18.865-11.89c5.971-4.996,12.146-10.163,18.801-13.298
				c8.543-4.021,18.8,0.565,18.9,0.613l1.296-2.477C384.697,319.733,373.517,314.701,363.65,319.35z"/>
		</g>
	</g>
	<g id="&#x417;&#x430;&#x43B;&#x438;&#x432;&#x43A;&#x430;_&#x446;&#x432;&#x435;&#x442;&#x43E;&#x43C;_179">
		<g>
			<path style="fill-rule:evenodd;clip-rule:evenodd;fill:#55385B;" d="M381.429,288.322c-2.441,0-4.419,1.979-4.419,4.419v19.391
				c-3.941-0.6-8.786-0.529-13.359,1.773c-7.004,3.523-13.611,9.429-19.441,14.639c-6.394,5.717-12.436,11.116-17.414,11.996
				c-6.148,1.088-14.895-3.341-24.156-8.026c-8.195-4.146-17.486-8.847-26.646-10.575c-7.209-1.361-18.117,0.355-24.82,3.911
				c-0.512,0.271-1.02,0.536-1.521,0.796l1.352,2.616c0.511-0.264,1.027-0.533,1.549-0.81c6.089-3.229,16.36-4.853,22.895-3.62
				c8.749,1.652,17.448,6.054,25.862,10.311c8.954,4.529,16.83,8.515,23.447,8.515c0.873,0,1.723-0.07,2.552-0.216
				c5.806-1.026,11.856-6.437,18.865-12.7c5.971-5.337,12.146-10.856,18.801-14.205c4.053-2.038,8.479-1.999,12.036-1.397v48.843
				c-10.285,11.761-56.893,23.18-120.479,23.18c-64.31,0-111.237-11.681-120.798-23.582v-31.934
				c6.683-6.857,22.78-19.569,43.492-9.953c1.398,0.648,3.063,2.427,4.988,4.486c5.443,5.818,13.405,14.33,29.267,14.329
				c7.207-0.001,16.048-1.759,27.021-6.326l-1.133-2.721c-33.231,13.834-45.609,0.606-53.003-7.295
				c-2.225-2.378-3.983-4.256-5.9-5.146c-20.383-9.464-36.581,1.034-44.731,8.542v-28.338c0-2.44-1.979-4.419-4.419-4.419
				c-2.44,0-4.419,1.979-4.419,4.419v79.521c-0.087,0.347-0.147,0.703-0.147,1.076c0,10.579,13.539,19.106,40.241,25.349
				c23.874,5.579,55.674,8.652,89.542,8.652c61.286,0,123.247-10.832,128.807-31.564c0.314-0.607,0.51-1.287,0.51-2.02v-87.496
				C385.848,290.301,383.869,288.322,381.429,288.322z M377.01,378.605c-0.027,0.198-0.061,0.395-0.061,0.601
				c0,10.511-46.91,25.777-120.418,25.777c-33.21,0-64.296-2.99-87.531-8.421c-24.552-5.738-32.339-12.422-33.301-15.995
				c0.008-0.11,0.033-0.217,0.033-0.33v-10.43c17.756,14.212,70.558,21.772,120.798,21.772c49.936,0,102.407-7.468,120.479-21.512
				V378.605z"/>
		</g>
	</g>
	<g id="&#x424;&#x438;&#x433;&#x443;&#x440;&#x430;_302_&#x43A;&#x43E;&#x43F;&#x438;&#x44F;_16">
		<g>
			<path style="fill-rule:evenodd;clip-rule:evenodd;fill:#5D63B5;" d="M246.046,350.508c0.082-5.15-3.916-9.487-8.787-9.444
				c-4.869,0.037-8.678,4.365-8.704,9.424c-0.027,5.066,3.757,9.021,8.58,9.07C241.948,359.601,245.972,355.665,246.046,350.508z
				 M206.854,343.405c-2.083,4.163-4.228,8.163-6.382,12.036c-4.301,0.721-8.54,1.408-12.703,2.063
				c2.856,3.326,5.72,6.641,8.63,9.905c-0.596,4.256-1.162,8.438-1.626,12.609c3.877-1.688,7.827-3.344,11.833-5.008
				c4.019,1.89,8.117,3.72,12.303,5.465c-0.715-3.968-1.281-8.103-1.792-12.386c3.117-3.06,6.276-6.208,9.456-9.481
				c-4.464-0.935-8.893-1.882-13.278-2.839C211.191,351.728,209.066,347.601,206.854,343.405z M241.012,370.097
				c-4.667-0.059-8.468,3.416-8.372,7.486c0.087,4.086,4.146,7.133,8.884,7.102c4.738-0.037,8.268-2.977,8.11-6.973
				C249.476,373.718,245.688,370.146,241.012,370.097z M174.642,361.393c-3.877-0.206-6.94,2.901-6.958,7.021
				c-0.015,4.127,3.008,7.743,6.852,7.947c3.841,0.203,7.065-2.988,7.116-7.106C181.707,365.128,178.518,361.604,174.642,361.393z
				 M170.399,346.227c2.076-2.436,4.149-4.951,6.197-7.564c-3.156-0.685-6.254-1.358-9.281-2.019
				c-1.621-3.076-3.262-6.167-4.904-9.287c-1.174,3.227-2.429,6.309-3.73,9.279c-2.834,0.633-5.608,1.234-8.319,1.802
				c1.919,2.4,3.903,4.836,5.919,7.304c-0.321,3.229-0.667,6.419-1.016,9.618c2.62-1.195,5.297-2.422,8.021-3.69
				c2.742,1.545,5.531,3.107,8.357,4.678C171.262,352.995,170.854,349.631,170.399,346.227z M364.905,350.295
				c-3.995,0.039-7.295,3.992-7.212,8.653c0.089,4.659,3.555,8.101,7.624,7.905c4.073-0.195,7.26-3.917,7.093-8.423
				C372.229,353.937,368.896,350.251,364.905,350.295z M337.764,354.553c-1.543-3.063-3.064-6.207-4.563-9.408
				c-1.608,3.221-3.223,6.433-4.835,9.593c-3.229,0.734-6.496,1.47-9.795,2.204c2.261,2.563,4.535,5.057,6.819,7.467
				c-0.391,3.366-0.748,6.605-1.059,9.669c2.968-1.39,5.921-2.817,8.85-4.273c2.981,1.271,5.933,2.505,8.836,3.707
				c-0.453-3.04-0.903-6.232-1.337-9.54c2.16-2.512,4.304-5.074,6.413-7.652C344.021,355.744,340.91,355.155,337.764,354.553z
				 M301.436,350.288c-5.306-1.01-10.666-2.038-16.072-3.082c-2.72-5.085-5.51-10.405-8.446-15.925
				c-2.547,5.555-5.077,10.921-7.568,16.039c-5.384,1.118-10.753,2.219-16.092,3.295c4.046,4.045,8.001,7.943,11.913,11.671
				c-0.38,4.988-0.724,9.671-0.968,14.013c4.582-1.854,9.207-3.775,13.868-5.77c4.851,1.943,9.677,3.815,14.474,5.608
				c-0.838-4.319-1.572-9.005-2.262-13.998C293.93,358.361,297.653,354.398,301.436,350.288z M308.517,368.358
				c-4.874,0.079-8.874,4.021-8.664,8.293c0.204,4.288,4.589,7.195,9.449,7.097c4.86-0.104,8.413-3.173,8.228-7.45
				C317.33,372.036,313.4,368.259,308.517,368.358z"/>
		</g>
	</g>
	<g id="&#x424;&#x438;&#x433;&#x443;&#x440;&#x430;_302_&#x43A;&#x43E;&#x43F;&#x438;&#x44F;_15">
		<g>
			<path style="fill-rule:evenodd;clip-rule:evenodd;fill:#FFA250;" d="M180.454,360.356c-3.985,0-7.215,3.23-7.215,7.216
				c0,3.984,3.23,7.215,7.215,7.215s7.215-3.23,7.215-7.215C187.669,363.587,184.438,360.356,180.454,360.356z M244.39,368.044
				c-4.201,0-7.606,3.405-7.606,7.606s3.406,7.606,7.606,7.606c4.201,0,7.607-3.405,7.607-7.606S248.591,368.044,244.39,368.044z
				 M218.009,356.484l-6.04-10.953l-6.04,10.953l-12.284,2.359l8.551,9.129l-1.552,12.411l11.325-5.312l11.325,5.312l-1.552-12.411
				l8.551-9.129L218.009,356.484z M176.124,345.98l6.653-7.104l-9.558-1.836l-4.7-8.523l-4.7,8.523l-9.558,1.836l6.654,7.104
				l-1.208,9.657l8.812-4.133l8.812,4.133L176.124,345.98z M145.942,348.642c-3.864,0-6.997,3.133-6.997,6.997
				s3.132,6.996,6.997,6.996s6.997-3.132,6.997-6.996S149.806,348.642,145.942,348.642z M249.926,348.136
				c0-4.348-3.524-7.872-7.872-7.872c-4.347,0-7.871,3.524-7.871,7.872c0,4.347,3.524,7.871,7.871,7.871
				C246.401,356.007,249.926,352.482,249.926,348.136z M381.517,327.707c-1.301-2.359-4.102-7.438-4.102-7.438l-4.751,8.615
				l-9.661,1.855l6.726,7.181l-1.221,9.763l9.092-4.27l4.04,1.778l0.273-15.602C381.913,329.591,381.583,327.828,381.517,327.707z
				 M282.674,347.963l-5.3-9.613l-5.301,9.613l-10.78,2.07l7.504,8.013l-1.361,10.893l9.938-4.662l9.938,4.662l-1.361-10.893
				l7.504-8.013L282.674,347.963z M359.479,349.815c-4.335,0-7.849,3.514-7.849,7.849c0,4.334,3.514,7.848,7.849,7.848
				c4.334,0,7.849-3.514,7.849-7.848C367.328,353.329,363.813,349.815,359.479,349.815z M333.606,353.235l-4.553-8.257l-4.554,8.257
				l-9.26,1.778l6.446,6.882l-1.17,9.356l8.537-4.004l8.536,4.004l-1.17-9.356l6.446-6.882L333.606,353.235z M304.127,365.213
				c-4.475,0-8.102,3.627-8.102,8.102s3.627,8.102,8.102,8.102s8.102-3.627,8.102-8.102S308.602,365.213,304.127,365.213z"/>
		</g>
	</g>
	<g id="&#x424;&#x438;&#x433;&#x443;&#x440;&#x430;_308">
		<g>
			<path style="fill-rule:evenodd;clip-rule:evenodd;fill:#FFDF99;" d="M242.86,370c-2.847,0-5.155,1.896-5.155,4.235
				s2.308,4.234,5.155,4.234s5.156-1.896,5.156-4.234S245.707,370,242.86,370z M244.701,349.746c0-2.44-1.979-4.419-4.419-4.419
				s-4.419,1.979-4.419,4.419c0,2.441,1.979,4.42,4.419,4.42S244.701,352.188,244.701,349.746z M218.188,357.848l-6.628-10.311
				v16.52l-6.874-6.209l-9.329,2.701l16.203,3.991v0.188l-9.575,14.479l9.329-2.945l0.686-11.426l0.164-0.049l9.952,15.402
				l-0.245-10.557l-9.273-4.976l16.147-4.845L218.188,357.848z M146.379,350.852c-2.44,0-4.419,1.566-4.419,3.498
				s1.979,3.498,4.419,3.498c2.441,0,4.419-1.566,4.419-3.498S148.82,350.852,146.379,350.852z M168.277,343.785l12.307-3.692
				l-8.045-1.497l-5.052-7.858v12.591l-5.239-4.732l-7.11,2.059l12.349,3.042v0.144l-7.297,11.034l7.11-2.245l0.522-8.707
				l0.125-0.038l7.585,11.739l-0.187-8.046L168.277,343.785z M182.099,362.267c-2.644,0-4.787,2.062-4.787,4.604
				s2.143,4.603,4.787,4.603s4.787-2.061,4.787-4.603S184.743,362.267,182.099,362.267z M302.148,367.791
				c-2.848,0-5.156,2.143-5.156,4.787c0,2.644,2.309,4.787,5.156,4.787c2.847,0,5.154-2.144,5.154-4.787
				C307.303,369.934,304.995,367.791,302.148,367.791z M332.717,354.97l-4.072,4.93l-0.264-0.376l0.65,9.108l7.59,2.603
				l-7.947-11.294l13.369-3.02L332.717,354.97z M357.017,351.956c-2.644,0-4.787,2.144-4.787,4.787s2.144,4.787,4.787,4.787
				s4.787-2.144,4.787-4.787S359.66,351.956,357.017,351.956z M376.751,322.712l-3.687,8.241l-8.892,1.301l12.355,3.56l-7.801,3.163
				l1.084,9.325l6.866-12.445l0.29,0.084L376.751,322.712z M276.861,340.172l-4.174,9.329l-10.064,1.473l13.986,4.03l-8.832,3.581
				l1.229,10.556l7.772-14.088l0.329,0.095L276.861,340.172z M328.381,346.295l-3.688,8.241l-8.891,1.301l12.355,3.561l-7.802,3.162
				l1.084,9.325l6.866-12.444l0.291,0.083L328.381,346.295z M281.771,349.992l-4.61,5.581l-0.3-0.426l0.736,10.311l8.593,2.946
				l-8.997-12.785l15.135-3.418L281.771,349.992z"/>
		</g>
	</g>
	
		<g id="&#x417;&#x430;&#x43B;&#x438;&#x432;&#x43A;&#x430;_&#x446;&#x432;&#x435;&#x442;&#x43E;&#x43C;_179_&#x43A;&#x43E;&#x43F;&#x438;&#x44F;_2">
		<g>
			<path style="fill-rule:evenodd;clip-rule:evenodd;fill:#A46969;" d="M178.517,358.162c0.652-0.473,0.994-1.263,0.893-2.062
				l-1.079-8.629l5.945-6.348c0.551-0.587,0.738-1.428,0.489-2.192c-0.249-0.766-0.895-1.336-1.685-1.487l-8.542-1.642l-4.2-7.615
				l-0.323-8.638c0-0.406-1.066-1.596-1.473-1.596c-0.407,0-1.964,0.452-1.964,0.859l-0.11,9.374l-4.2,7.615l-8.541,1.642
				c-0.791,0.151-1.436,0.722-1.685,1.487c-0.248,0.765-0.061,1.605,0.489,2.192l5.945,6.348l-1.079,8.629
				c-0.1,0.799,0.242,1.589,0.893,2.062c0.385,0.279,0.84,0.423,1.299,0.423c0.319,0,0.639-0.069,0.938-0.21l7.874-3.693
				l7.875,3.693C177.006,358.717,177.865,358.637,178.517,358.162z M169.344,350.24c-0.596-0.278-1.282-0.278-1.877,0l-5.184,2.432
				l0.71-5.681c0.082-0.651-0.131-1.306-0.58-1.784l-3.915-4.18l5.625-1.08c0.645-0.124,1.2-0.528,1.518-1.104l2.765-5.014
				l2.765,5.014c0.317,0.575,0.873,0.979,1.518,1.104l5.625,1.08l-3.916,4.18c-0.449,0.479-0.662,1.133-0.58,1.784l0.71,5.681
				L169.344,350.24z M145.828,347.905c-4.67,0-8.47,3.8-8.47,8.47s3.8,8.47,8.47,8.47c4.67,0,8.469-3.8,8.469-8.47
				S150.498,347.905,145.828,347.905z M145.828,361.898c-3.046,0-5.524-2.478-5.524-5.523s2.478-5.523,5.524-5.523
				s5.523,2.478,5.523,5.523S148.874,361.898,145.828,361.898z M180.339,359.62c-4.791,0-8.688,3.897-8.688,8.688
				s3.897,8.688,8.688,8.688c4.79,0,8.688-3.897,8.688-8.688S185.129,359.62,180.339,359.62z M180.339,374.051
				c-3.166,0-5.742-2.576-5.742-5.742s2.576-5.742,5.742-5.742c3.166,0,5.742,2.576,5.742,5.742S183.505,374.051,180.339,374.051z
				 M383.407,329.352c0.277-0.612,0.28-1.341-0.07-1.976l-4.085-7.408c-0.194-0.365-0.493-0.682-0.884-0.896
				c-1.064-0.588-2.41-0.2-3.002,0.867l-4.251,7.708l-8.643,1.662c-0.79,0.151-1.437,0.722-1.685,1.487
				c-0.249,0.765-0.063,1.604,0.488,2.192l6.016,6.425l-1.092,8.733c-0.101,0.798,0.242,1.588,0.894,2.062
				c0.385,0.278,0.84,0.422,1.299,0.422c0.319,0,0.639-0.069,0.938-0.209l7.97-3.737l3.149,1.476
				c1.107,0.52,2.419,0.042,2.938-1.063c0.279-0.597,0.262-1.251,0.019-1.812V329.352z M380.416,342.687
				c-0.368,0.229-2.177-0.443-2.177-0.443c-0.593-0.279-1.283-0.279-1.876,0l-5.28,2.476l0.724-5.786
				c0.082-0.65-0.131-1.305-0.58-1.784l-3.986-4.257l5.727-1.101c0.645-0.125,1.201-0.528,1.518-1.103l2.816-5.107l2.167,3.929
				c0.233,0.424,1.04,1.11,1.04,1.524S380.784,342.456,380.416,342.687z M343.168,353.581l-8.241-1.584l-4.054-7.35l0.129-63.641
				l-3.943,5.22l-0.353,22.399l0.298,36.022l-4.053,7.349l-8.242,1.584c-0.789,0.151-1.436,0.721-1.684,1.487
				c-0.25,0.765-0.063,1.605,0.488,2.192l5.738,6.126l-1.041,8.327c-0.102,0.8,0.242,1.589,0.893,2.062
				c0.652,0.474,1.514,0.556,2.237,0.213l7.598-3.564l7.6,3.564c0.298,0.141,0.618,0.209,0.938,0.209
				c0.458,0,0.914-0.143,1.299-0.422c0.65-0.473,0.993-1.263,0.893-2.062l-1.041-8.328l5.736-6.125
				c0.551-0.587,0.738-1.428,0.488-2.192C344.604,354.302,343.957,353.732,343.168,353.581z M334.693,361.122
				c-0.448,0.479-0.661,1.133-0.579,1.784l0.672,5.38l-4.909-2.303c-0.297-0.14-0.617-0.209-0.938-0.209s-0.642,0.069-0.938,0.209
				l-4.907,2.302l0.671-5.379c0.083-0.651-0.131-1.305-0.579-1.784l-3.706-3.957l5.324-1.023c0.645-0.124,1.201-0.528,1.518-1.104
				l2.618-4.748l2.62,4.749c0.316,0.574,0.873,0.979,1.517,1.103l5.324,1.023L334.693,361.122z M244.276,367.308
				c-5.006,0-9.08,4.072-9.08,9.079s4.074,9.08,9.08,9.08s9.079-4.073,9.079-9.08S249.282,367.308,244.276,367.308z
				 M244.276,382.521c-3.382,0-6.134-2.752-6.134-6.134s2.752-6.134,6.134-6.134s6.133,2.752,6.133,6.134
				S247.658,382.521,244.276,382.521z M304.013,364.477c-5.278,0-9.574,4.295-9.574,9.574s4.296,9.574,9.574,9.574
				c5.279,0,9.575-4.295,9.575-9.574S309.292,364.477,304.013,364.477z M304.013,380.68c-3.655,0-6.628-2.974-6.628-6.629
				s2.973-6.629,6.628-6.629s6.629,2.974,6.629,6.629S307.668,380.68,304.013,380.68z M294.953,352.281
				c0.551-0.588,0.738-1.428,0.489-2.193s-0.895-1.335-1.685-1.487l-9.764-1.876l-4.799-8.704l-0.123-16.629
				c0-0.407-1.557-1.719-1.965-1.719c-0.406,0-1.841,1.188-1.841,1.596l0.06,16.752l-4.803,8.704l-9.763,1.876
				c-0.79,0.152-1.436,0.722-1.685,1.487c-0.248,0.766-0.062,1.605,0.489,2.193l6.796,7.256l-1.233,9.864
				c-0.101,0.798,0.242,1.588,0.894,2.062c0.652,0.474,1.512,0.556,2.236,0.212l9.002-4.222l9.001,4.222
				c0.298,0.141,0.618,0.21,0.938,0.21c0.458,0,0.914-0.144,1.298-0.422c0.652-0.473,0.995-1.264,0.894-2.062l-1.232-9.864
				L294.953,352.281z M284.224,357.272c-0.448,0.479-0.661,1.133-0.579,1.784l0.863,6.916l-6.31-2.96
				c-0.593-0.279-1.283-0.279-1.876,0l-6.313,2.961l0.865-6.917c0.082-0.651-0.131-1.305-0.58-1.784l-4.766-5.088l6.846-1.315
				c0.645-0.124,1.201-0.528,1.518-1.103l3.367-6.104l3.365,6.104c0.316,0.575,0.873,0.979,1.518,1.104l6.847,1.315L284.224,357.272
				z M230.596,357.41l-11.268-2.164l-5.54-10.045l0.11-60.635l-3.736,0.824l-0.192,24.953l-0.052,34.857l-5.54,10.045l-11.266,2.164
				c-0.79,0.151-1.436,0.721-1.685,1.487c-0.249,0.765-0.062,1.605,0.489,2.192l7.842,8.372l-1.424,11.385
				c-0.101,0.799,0.242,1.588,0.893,2.062c0.652,0.474,1.512,0.556,2.237,0.213l10.387-4.872l10.387,4.872
				c0.298,0.141,0.619,0.209,0.938,0.209c0.459,0,0.915-0.143,1.299-0.422c0.651-0.473,0.994-1.263,0.894-2.062l-1.423-11.384
				l7.843-8.373c0.551-0.587,0.738-1.428,0.489-2.192C232.032,358.131,231.386,357.562,230.596,357.41z M220.015,367.198
				c-0.449,0.479-0.662,1.133-0.58,1.784l1.054,8.437l-7.697-3.61c-0.296-0.14-0.617-0.209-0.938-0.209s-0.642,0.069-0.938,0.209
				l-7.698,3.609l1.056-8.435c0.082-0.651-0.131-1.307-0.58-1.785l-5.812-6.204l8.347-1.604c0.645-0.123,1.201-0.527,1.518-1.103
				l4.105-7.444l4.105,7.444c0.316,0.575,0.873,0.979,1.518,1.103l8.349,1.604L220.015,367.198z M359.365,349.079
				c-5.14,0-9.321,4.182-9.321,9.321s4.182,9.321,9.321,9.321s9.321-4.182,9.321-9.321S364.505,349.079,359.365,349.079z
				 M359.365,364.775c-3.516,0-6.376-2.859-6.376-6.375s2.86-6.375,6.376-6.375s6.375,2.859,6.375,6.375
				S362.881,364.775,359.365,364.775z M241.94,358.216c5.153,0,9.344-4.191,9.344-9.344s-4.191-9.345-9.344-9.345
				c-5.152,0-9.344,4.192-9.344,9.345S236.788,358.216,241.94,358.216z M241.94,342.474c3.529,0,6.398,2.87,6.398,6.398
				c0,3.527-2.87,6.398-6.398,6.398s-6.398-2.871-6.398-6.398C235.542,345.344,238.411,342.474,241.94,342.474z"/>
		</g>
	</g>
	<g id="&#x424;&#x438;&#x433;&#x443;&#x440;&#x430;_309" style="opacity:0.6;">
		<g>
			<path style="fill-rule:evenodd;clip-rule:evenodd;fill:#55385B;" d="M219.432,276.327c-13.257,2.455-11.31,35.612-11.31,35.612
				s5.299-18.36,11.682-19.342c6.383-0.982,9.922,17.869,9.922,17.869S232.689,273.872,219.432,276.327z M192.54,318.146
				c-4.707-2.528-5.038-13.104-4.823-19.133c0.509,0.544,0.941,1.239,1.257,2.124c0,0,3.547-19.188-3.818-19.188
				s-7.966,16.732-7.966,16.732s1.378-0.65,3.213-1.064l-1.249,11.866c0,0-6.104,9.333-10.751,8.844
				c-4.682-0.493-7.416-5.897-7.907-10.808c-0.372-3.718,1.533-8.83,1.914-13.259c0.363,0.559,0.541,0.984,0.541,0.984
				c-3.437-37.316-12.766-1.473-12.766-1.473s1.49-0.744,3.387-1.363c-1.828,2.796-4.764,6.32-8.268,6.93
				c-5.312,0.924-12.304-6.549-12.304-6.549l-1.473,12.275c0,0,7.12,7.119,12.275,6.383c5.156-0.737,8.347-7.365,8.347-7.365
				s-1.603,13.768,6.691,19.569c12.23,8.557,19.332-8.276,19.332-8.276s9.487,17.831,20.289,14.395
				c10.802-3.438,10.644-15.377,10.644-15.377S203.897,324.247,192.54,318.146z M245.339,335.971
				c-5.892,0.982-6.284-9.792-6.284-9.792s-4.562,0.825-7.029-2.234c-3.49-4.327-5.246-12.986-5.246-12.986
				s-5.892,9.329-1.964,17.676c3.928,8.347,2.455,4.419,7.365,6.874s1.964,12.766,13.748,10.802s4.419-25.532,4.419-25.532
				S251.231,334.988,245.339,335.971z M380.953,290.336c0,0-5.667-11.504-8.668-10.556c-0.104-0.153-0.17-0.246-0.17-0.246
				s-0.015,0.126-0.04,0.341c-2.869,1.54-3.702,15.376-3.858,18.615c-0.887,2.691-1.935,5.113-3.158,6.8
				c-4.026,5.55-20.931-1.697-20.931-1.697s-0.12,6.993,3.86,10.292c4.393,3.642,17.271,4.684,25.136,0.751
				c10.368-5.185,8.224-16.36,4.68-24.719C379.663,289.772,380.953,290.336,380.953,290.336z M296.973,287.602
				c-9.757,1.171-9.574,13.986-9.089,19.199c-0.134-0.162-0.22-0.262-0.22-0.262s-2.393,12.078-9.396,12.687
				c-7.037,0.612-10.234-3.893-11.646-7.375c0.022-5.747-0.784-19.135-8.909-17.587c-10.311,1.964-7.856,21.604-7.856,21.604
				s2.428-6.937,7.689-8.44c2.714-0.775,5.107,1.301,6.746,3.385c-1.335,3.317-3.028,8.968-1.405,13.512
				c2.455,6.874,10.051,9.424,15.797,9.424c6.081,0,11.459-3.355,13.424-11.702c1.441-6.128-1.624-11.604-3.357-14.089
				c1.346-2.255,4.793-7.473,8.114-7.875c3.838-0.465,7.493,6.947,7.493,6.947S309.247,286.129,296.973,287.602z M336.831,273.274
				c-9.842,3.579-9.144,18.869-8.94,21.561c-0.711,6.971-2.238,17.396-5.162,19.809c-5.271,4.349-18.371-1.722-18.371-1.722
				s1.595,8.225,7.498,9.892c7.207,2.034,13.538,3.088,20.35-3.959c4.246-4.392,3.125-11.019,2.188-15.054
				c-0.676-2.911-2.556-7.583-4.028-11.026c1.66-1.589,3.844-3.485,5.497-4.221c4.551-2.022,8.266,3.255,8.266,3.255
				S347.633,269.347,336.831,273.274z"/>
		</g>
	</g>
	<g id="&#x424;&#x438;&#x433;&#x443;&#x440;&#x430;_302_&#x43A;&#x43E;&#x43F;&#x438;&#x44F;_5">
		<g>
			<path style="fill-rule:evenodd;clip-rule:evenodd;fill:#D8B6D2;" d="M391.872,259.439c1.85-14.511,0.314-33.277,0.128-26.796
				c0.479-16.67-61.26-30.196-136.827-30.196c-75.567,0-136.827,13.52-136.827,30.196c0,7.473-0.124,5.817-0.118,10.298
				c0.022,18.857,2.588,19.146,2.426,25.929c-0.257,10.805-3.815,11.713-2.738,20.45c1.637,13.273,12.518,9.773,12.518,9.773
				s0.332-30.877,0.11-30.656c5.082-1.252,5.854,7.408,4.768,10.852s-3.563,15.556,5.395,19.62
				c6.901,3.131,10.552-5.522,11.601-9.979c1.05-4.456-3.801-7.246,2.109-10.395c5.911-3.148,11.038,5.036,8.92,10.91
				c-3.001,8.322-7.314,20.701,1.097,25.962c7.007,4.382,14.589-1.747,13.357-15.485c-0.524-5.851-1.34-12.363,2.958-15.737
				c5.233-4.107,11.32,0.084,7.647,10.306c-5.597,15.577,2.596,33.197,15.577,21.358c6.899-6.293-1.045-22.238,3.119-28.887
				c3.06-4.886,6.521-11.335,10.95-11.518c7.613-0.314,10.751,8.201,11.69,18.217c0.939,10.017-5.765,27.985,4.726,31.247
				c6.221,1.934,2.232,9.754,7.715,10.867c4.952,1.005,7.809-4.673,6.045-16.742c-1.812-12.397-0.761-20.119,4.204-23.36
				c9.149-5.973,13.601,2.113,13.932,5.759c0.332,3.646-4.53,17.557,9.168,18.735c13.699,1.179,8.066-12.898,9.926-23.357
				c1.859-10.458,18.375-16.592,18.578-2.596c0.086,5.854-0.653,9.197,0.207,12.774c1.273,5.293,4.934,9.367,10.867,8.785
				c3.286-0.322,6.961-2.623,8.078-5.224c2.373-5.521,0.405-16.868,0.789-21.473c1.307-15.688,19.092-23.676,20.051-11.674
				c0.452,5.663-3.141,15-0.399,21.521c5.005,11.902,18.719,9.242,21.275,4.687c3.618-6.447,3.21-19.431,3.465-23.169
				c0.181-2.637,2.876-3.865,5.145-1.29c3.188,3.617,2.62,10.522,10.838,12.076c3.119,0.59,6.947-0.42,8.281-3.354
				C396.712,278.883,390.849,267.467,391.872,259.439z"/>
		</g>
	</g>
	<g id="&#x424;&#x438;&#x433;&#x443;&#x440;&#x430;_316">
		<g>
			<path style="fill-rule:evenodd;clip-rule:evenodd;fill:#C191C7;" d="M226.131,278.813c-0.351-0.812-0.579-1.243-0.579-1.243
				S225.755,278.033,226.131,278.813z M213.032,276.097c0,0-7.038,7.027-13.088,8.861c-6.101,1.849-12.321-2.969-12.321-2.969
				l1.473,20.529c0,0,5.641-6.224,9.949-5.879c5.339,0.429,9.568,7.444,9.568,7.444s-2.59-5.092-1.627-11.188
				C208.202,285.189,213.032,276.097,213.032,276.097z M181.363,281.253c0,0-4.662,4.396-8.943,3.883
				c-4.885-0.586-9.469-6.093-9.469-6.093s1.361,5.256,0.753,9.358c-0.83,5.603-3.699,10.527-3.699,10.527s4.408-4.408,8.861-3.873
				c4.744,0.569,9.551,6.082,9.551,6.082s-1.852-4.494-1.06-9.841C178.027,286.769,181.363,281.253,181.363,281.253z
				 M226.131,278.813c1.404,3.251,4.862,12.875,4.347,27.94c5.156-15.467,17.169,9.851,17.169,9.851s-0.545-7.34,1.253-13.733
				c1.389-4.937,4.736-9.381,5.325-9.774C238.666,303.477,228.954,284.67,226.131,278.813z M392.062,262.932
				c1.442-9.543,9.499-21.452-2.669-33.572c-15.151-15.093-52.63-21.511-52.63-21.511s-48.056-11.894-107.017-7.64
				c-84.227,6.077-107.518,23.505-109.819,28.937c-2.302,5.432,1.018,20.248,0.781,38.604c-0.139,10.745-3.077,18.594-1.731,26.203
				c1.297,7.336,11.015,6.908,11.015,6.908l1.658-29.306l5.216,16.571c0,0,3.001-6.051,8.013-5.424
				c4.804,0.601,6.533,4.227,6.533,4.227l6.628-10.004c0,0-6.045,1.788-12.227-0.719c-6.336-2.571-10.451-3.394-10.267-12.723
				s8.255-13.41,8.255-13.41s-5.585-8.93,4.02-14.515c9.605-5.586,28.908-20.807,113.39-21.728
				c84.482-0.92,109.369,15.835,115.262,25.041c5.892,9.206-6.015,14.546-6.015,14.546s4.614,16.427-7.262,24.489
				c-10.446,7.092-18.446-8.004-18.446-8.004l0.084,27.582c0,0,3.307-11.376,10.066-11.592c11.277-0.361,11.813,9.996,11.813,9.996
				s1.017-10.456,3.779-14.136c1.443-1.923,5.55,1.707,5.55,1.707s7.391,13.029,16.421,5.578
				C398.641,283.944,390.619,272.476,392.062,262.932z M277.125,294.625c-8.466,1.575-17.233-3.016-17.233-3.016
				s8.378,10.265,8.378,16.894c3.682-2.21,11.783-10.311,17.676-1.474c0-6.628,4.418-19.885,4.418-19.885
				S284.403,293.271,277.125,294.625z M316.265,285.354c-8.097,2.393-17.8-1.155-17.8-1.155s4.199,3.329,5.707,7.685
				c1.783,5.151,0.922,11.465,0.922,11.465s3.835-7.357,9.633-8.557c4.783-0.989,9.056,2.204,9.056,2.204l7.089-22.371
				C330.871,274.624,324.371,282.958,316.265,285.354z"/>
		</g>
	</g>
	<g id="&#x424;&#x438;&#x433;&#x443;&#x440;&#x430;_318">
		<g>
			<path style="fill-rule:evenodd;clip-rule:evenodd;fill:#F3CCEB;" d="M184.82,258.839c-0.617-0.11-0.941-0.172-0.941-0.172
				S184.214,258.787,184.82,258.839z M321.179,250.309c-2.179-9.145,9.692-15.455,9.692-15.455l-143.893,2.762
				c0,0,16.398,5.444,9.432,14.252c-5.261,6.651-9.721,7.134-11.59,6.972c6.001,1.078,39.852,6.851,75.348,6.642
				c39.338-0.23,80.676-7.734,80.676-7.734S323.357,259.454,321.179,250.309z"/>
		</g>
	</g>
	<g id="&#x417;&#x430;&#x43B;&#x438;&#x432;&#x43A;&#x430;_&#x446;&#x432;&#x435;&#x442;&#x43E;&#x43C;_188">
		<g>
			<path style="fill-rule:evenodd;clip-rule:evenodd;fill:#FFDEF9;" d="M197.964,304.974c-4.254,0-7.702,3.318-7.702,7.411
				s3.448,7.411,7.702,7.411c4.254,0,7.703-3.318,7.703-7.411S202.219,304.974,197.964,304.974z M145.121,286.193
				c-3.881,0-7.027,2.905-7.027,6.49s3.146,6.49,7.027,6.49c3.881,0,7.027-2.905,7.027-6.49S149.002,286.193,145.121,286.193z
				 M243.704,313.014c-1.229,0-2.363,0.786-3.291,2.106c-0.431-3.616-2.069-6.311-4.028-6.311c-2.288,0-4.143,3.669-4.143,8.193
				c0,4.525,1.855,8.194,4.143,8.194c0.592,0,1.154-0.25,1.663-0.692c0.066,6.098,2.57,11.003,5.656,11.003
				c3.127,0,5.662-5.035,5.662-11.247C249.366,318.05,246.831,313.014,243.704,313.014z M169.732,302.611
				c-3.848,0-6.966,2.967-6.966,6.628s3.119,6.629,6.966,6.629c3.847,0,6.966-2.968,6.966-6.629S173.58,302.611,169.732,302.611z
				 M277.168,309.761c-3.897,0-7.058,2.137-7.058,4.772c0,2.635,3.16,4.771,7.058,4.771c3.898,0,7.059-2.137,7.059-4.771
				C284.227,311.897,281.066,309.761,277.168,309.761z M356.525,293.773c-4.813,0-8.715,2.638-8.715,5.892s3.902,5.892,8.715,5.892
				c4.813,0,8.716-2.638,8.716-5.892S361.339,293.773,356.525,293.773z M315.712,302.089c-4.576,0-8.286,2.646-8.286,5.907
				c0,3.263,3.71,5.908,8.286,5.908c4.575,0,8.285-2.646,8.285-5.908C323.997,304.734,320.287,302.089,315.712,302.089z
				 M355.125,281.007c7.156,2.609,14.535-11.103,14.535-11.103s-7.045,9.479-16.324,6.588c-8.152-2.54-1.634-18.663-16.42-16.598
				c-11.597,1.619-12.674,22.893-21.327,25.163c-8.653,2.271-9.505-13.991-19.194-12.073c-11.836,2.343-4.803,18.917-19.349,20.604
				c-4.255,0.493-10.279-14.78-18.196-15.148c-7.917-0.368-10.497,15.277-16.826,13.994c-10.836-2.197-4.257-25.819-19.57-26.74
				s-8.593,17.216-22.832,17.185c-7.445-0.016-2.769-12.318-11.384-13.133c-7.552-0.715-2.609,13.041-16.633,9.758
				c-3.358-0.787-6.38-14.237-10.294-15.431c-5.439-1.658-5.723,6.845-11.744,8.846c-6.369,2.117-14.603-5.169-14.603-5.169
				s3.952,6.35,10.09,9.836c4.05,2.301,10.023,2.437,12.987,1.948c7.457-1.228,7.195,7.87,14.629,9.006
				c5.987,0.914,7.802-5.81,12.528-4.858c4.726,0.952,10.338,2.857,14.178,2.941c12.674,0.276,10.986-11.539,21.819-9.605
				s12.244,20.592,21.45,19.947c9.207-0.645,9.841-3.221,15.144-4.281c4.439-0.888,10.234,3.054,10.234,3.054
				s7.604,0.896,13.179-1.492c7.794-3.341,6.707-8.973,14.808-9.709c8.102-0.736,11.822,4.759,20.801,2.615
				c7.295-1.742,12.622-14.911,19.432-16.67C348.75,267.25,347.564,278.25,355.125,281.007z"/>
		</g>
	</g>
	
		<g id="&#x417;&#x430;&#x43B;&#x438;&#x432;&#x43A;&#x430;_&#x446;&#x432;&#x435;&#x442;&#x43E;&#x43C;_179_&#x43A;&#x43E;&#x43F;&#x438;&#x44F;">
		<g>
			<path style="fill-rule:evenodd;clip-rule:evenodd;fill:#AA7AB0;" d="M398.454,270.849c-0.715-3.756-1.39-7.303-0.89-9.808
				c1.715-8.595,2.493-16.769,2.135-22.425c-0.236-3.735-2.337-7.425-3.007-8.516c-11.324-21.624-77.832-31.336-140.161-31.336
				c-56.44,0-140.211,9.117-141.199,34.175l-0.163-0.041c-0.243,0.97-0.563,3.704,0.011,11.121c0.74,9.543,1.408,14.476,1.85,17.739
				c0.438,3.232,0.638,4.707,0.565,7.742c-0.108,4.52-0.845,7.005-1.559,9.409c-0.899,3.03-1.829,6.165-1.148,11.687
				c0.696,5.646,2.913,9.699,6.586,12.046c5.211,3.329,11.023,1.602,11.67,1.395c1.473-0.474,2.565-1.671,2.932-3.124
				c1.143,1.073,2.518,2.01,4.163,2.756c3.932,1.786,7.113,0.999,9.091,0.027c5.847-2.873,8.089-10.688,8.637-13.016
				c0.658-2.792-0.026-5.105-0.479-6.636c-0.052-0.174-0.111-0.377-0.163-0.563c0.134-0.087,0.308-0.19,0.529-0.309
				c0.407-0.219,0.692-0.326,1.292,0.194c1.193,1.033,2.059,3.47,1.393,5.316c-3.022,8.381-8.647,23.979,2.91,31.207
				c4.225,2.643,8.897,2.778,12.817,0.371c4.128-2.535,6.693-7.517,7.294-13.854c0.223,7.182,2.847,13.501,7.427,16.556
				c2.415,1.609,8.938,4.532,17.322-3.113c5.495-5.012,4.592-12.923,3.793-19.903c-0.418-3.676-0.941-8.25,0.092-9.901
				c0.327-0.521,0.656-1.057,0.991-1.602c1.43-2.328,4.781-7.781,6.397-7.847c5.027-0.248,6.604,8.815,7.109,14.213
				c0.243,2.584-0.144,6.069-0.552,9.76c-1.026,9.259-2.43,21.938,8.364,25.294c0.537,0.167,0.681,0.212,1.148,2.564
				c0.471,2.365,1.449,7.287,7.001,8.414c0.666,0.136,1.322,0.202,1.964,0.202c2.237,0,4.299-0.811,5.942-2.366
				c3.641-3.445,4.781-10.021,3.392-19.546c-1.553-10.634-0.798-17.034,2.246-19.021c1.396-0.911,3.354-1.852,4.74-1.182
				c1.404,0.68,2.294,2.731,2.375,3.612c0.016,0.33-0.107,1.374-0.196,2.137c-0.469,4.01-1.253,10.72,2.743,15.619
				c2.383,2.921,5.964,4.607,10.645,5.01c4.51,0.387,8.043-0.585,10.501-2.89c4.085-3.83,3.957-9.876,3.833-15.723
				c-0.062-2.886-0.125-5.87,0.321-8.374c0.749-4.213,5.384-7.294,7.998-7.095c0.435,0.035,1.758,0.142,1.812,3.788
				c0.028,2.02-0.048,3.767-0.117,5.309c-0.131,2.986-0.246,5.565,0.444,8.437c1.952,8.119,8.079,12.874,15.596,12.149
				c4.953-0.486,9.986-3.873,11.708-7.878c2.001-4.659,1.621-11.31,1.286-17.178c-0.131-2.297-0.257-4.466-0.155-5.673
				c0.694-8.327,7.047-13.415,10.28-13.415c0.44-0.031,0.824-0.005,0.962,1.728c0.129,1.6-0.227,3.979-0.604,6.497
				c-0.781,5.225-1.666,11.146,0.537,16.384c2.829,6.731,8.439,10.819,15.39,11.215c5.908,0.348,11.611-2.161,13.813-6.077
				c2.756-4.913,3.52-12.04,3.812-18.88c1.603,3.385,4.304,7.416,10.96,8.675c4.651,0.878,10.725-0.585,13.124-5.865
				C400.948,283.966,399.623,276.998,398.454,270.849z M185.597,293.732c-1.027,2.859-1.658,5.795-1.916,8.666
				c-0.021-0.699-0.064-1.411-0.129-2.135l-0.073-0.81c-0.42-4.581-0.853-9.318,1.359-11.056c0.727-0.57,1.223-0.631,1.221-0.661
				C186.312,287.968,187.024,289.76,185.597,293.732z M389.771,272.499c0.968,5.095,1.971,10.362,0.186,14.284
				c-0.282,0.622-1.88,1.134-3.437,0.84c-3.157-0.598-3.904-2.058-5.291-5.303c-0.736-1.721-1.569-3.67-3.052-5.354
				c-2.223-2.525-5.342-3.505-8.126-2.56c-2.676,0.907-4.537,3.448-4.743,6.47c-0.047,0.707-0.076,1.724-0.107,2.956
				c-0.118,4.545-0.361,14.002-2.786,18.326c-0.396,0.569-2.863,1.908-6.088,1.567c-2.314-0.245-5.456-1.447-7.276-5.777
				c-1.242-2.956-0.552-7.576,0.057-11.652c0.455-3.033,0.882-5.898,0.673-8.508c-0.478-5.98-4.306-9.852-9.751-9.861h-0.021
				c-8.183,0-18.029,8.831-19.087,21.52c-0.152,1.825-0.019,4.182,0.139,6.91c0.252,4.405,0.597,10.439-0.583,13.186
				c-0.378,0.88-2.522,2.381-4.45,2.569c-3.931,0.387-5.496-2.736-6.14-5.419c-0.398-1.659-0.319-3.472-0.209-5.98
				c0.073-1.662,0.157-3.547,0.126-5.826c-0.127-8.611-5.217-12.088-9.938-12.47c-7.641-0.621-15.965,6.223-17.412,14.357
				c-0.598,3.364-0.525,6.793-0.455,10.108c0.076,3.543,0.17,7.953-1.041,9.087c-0.529,0.495-1.883,0.687-3.699,0.533
				c-2.207-0.19-3.74-0.793-4.554-1.792c-1.633-2.001-1.14-6.216-0.814-9.006c0.183-1.558,0.327-2.788,0.222-3.938
				c-0.332-3.65-2.768-8.586-7.328-10.793c-2.82-1.365-7.436-2.171-13.42,1.736c-8.258,5.391-7.631,17.636-6.161,27.699
				c1.112,7.614-0.01,10.867-0.578,11.684c-0.111-0.403-0.223-0.968-0.305-1.387c-0.522-2.624-1.492-7.509-7.194-9.282
				c-3.556-1.104-3.157-7.279-2.204-15.882c0.458-4.152,0.893-8.074,0.568-11.558c-1.861-19.843-10.979-22.444-16.274-22.219
				c-6.316,0.261-10.166,6.524-13.562,12.051c-0.321,0.522-0.637,1.038-0.951,1.537c-2.676,4.273-2.019,10.029-1.382,15.596
				c0.556,4.876,1.188,10.403-0.968,12.371c-1.907,1.739-4.58,3.547-6.463,2.29c-2.953-1.97-5.132-10.107-1.976-18.89
				c2.54-7.068,1.539-13.104-2.676-16.145c-3.399-2.455-8.057-2.114-11.857,0.869c-5.997,4.705-5.281,12.528-4.706,18.813
				l0.073,0.793c0.612,6.836-1.291,10.563-3.106,11.677c-0.996,0.612-2.177,0.499-3.507-0.332c-5.084-3.18-2.296-12.36,0.718-20.716
				c1.847-5.123,0.198-11.429-3.921-14.995c-3.265-2.828-7.464-3.32-11.233-1.313c-6.905,3.677-5.35,8.934-4.685,11.18
				c0.301,1.018,0.465,1.616,0.352,2.102c-0.786,3.338-2.477,6.395-3.933,7.109c-0.204,0.103-0.587,0.289-1.542-0.143
				c-6.492-2.945-3.041-14.152-3.006-14.267c1.153-3.652,0.933-10.65-2.478-14.286c-1.951-2.08-4.693-2.88-7.524-2.194
				c-0.781,0.186-1.513,0.583-2.104,1.175c-1.821,1.82-1.058-1.753-1.363,29.634c-0.422-0.101-0.84-0.263-1.22-0.513
				c-1.653-1.086-2.291-3.674-2.535-5.654c-0.455-3.693,0.063-5.443,0.85-8.092c0.795-2.681,1.785-6.017,1.92-11.712
				c0.089-3.736-0.187-5.77-0.643-9.139c-0.429-3.164-1.076-7.945-1.796-17.236c-0.399-5.159-0.299-7.438-0.235-8.201
				c0.234-0.538,0.367-1.131,0.367-1.756c0-3.327,7.71-10.658,36.609-17.036c25.54-5.637,59.561-8.741,95.798-8.741
				c76.611,0,127.63,13.898,132.692,27.336c0.173,0.459,0.417,0.871,0.711,1.231c0.452,0.959,0.888,2.112,0.944,3.006
				c0.313,4.922-0.41,12.261-1.982,20.136C388.061,263.505,388.93,268.077,389.771,272.499z"/>
		</g>
	</g>
	<g id="&#x424;&#x438;&#x433;&#x443;&#x440;&#x430;_317">
		<g>
			<path style="fill-rule:evenodd;clip-rule:evenodd;fill:#FFDEF9;" d="M378.988,244.673c-0.583-3.866-20.811,15.662-120.852,15.846
				C158.096,260.703,130.023,237.8,133,242.219c2.977,4.418,28.694,26.11,123.733,26.11
				C351.771,268.329,379.572,248.54,378.988,244.673z"/>
		</g>
	</g>
	<g id="&#x424;&#x438;&#x433;&#x443;&#x440;&#x430;_315">
		<g>
			<ellipse style="fill-rule:evenodd;clip-rule:evenodd;fill:#B387BE;" cx="254.045" cy="233.231" rx="85.664" ry="13.982"/>
		</g>
	</g>
	<g id="&#x424;&#x438;&#x433;&#x443;&#x440;&#x430;_303">
		<g>
			<path style="fill-rule:evenodd;clip-rule:evenodd;fill:#FCEDCE;" d="M342.93,175.155c0-42.459-31.752-77.716-72.688-84.798
				c19.676,10.07,33.889,30.393,34.672,53.729c1.124,33.487-25.721,58.939-59.109,56.058c-32.456-2.801-57.698-31.374-57.203-63.109
				c0.118-7.602,1.717-14.757,4.51-21.213c-13.515,14.596-21.691,34.013-21.691,55.33c0,25.864,9.269,47.294,27.911,58.555
				c14.045,8.484,34.421,9.794,54.495,10.731c27.691,1.293,56.311-4.149,76.199-17.11C343.535,214.523,342.93,195.26,342.93,175.155
				z"/>
		</g>
	</g>
	<g id="&#x424;&#x438;&#x433;&#x443;&#x440;&#x430;_303_&#x43A;&#x43E;&#x43F;&#x438;&#x44F;">
		<g>
			<path style="fill-rule:evenodd;clip-rule:evenodd;fill:#FEBC61;" d="M342.93,175.155c0-37.042-24.17-68.597-57.518-80.749
				c12.951,12.407,29.529,30.134,32.304,45.001c4.628,24.798-0.132,38.858-1.912,43.462c-19.978,12.121-19.515,8.981-16.412-10.791
				c-3.815,5.497-9.078,13.912-17.078,19.154c-9.929,6.506-23.925,9.541-34.204,9.05c-1.303,1.021-2.408,2.336-2.955,4.05
				c-1.632,5.124,2.252,10.968,2.252,10.968s-31.411-0.611-45.675-20.952c-14.892-21.237-13.207-31.11-10.006-37.342
				c-2.125-6.355-3.232-13.089-3.125-19.972c0.118-7.602,1.717-14.757,4.51-21.213c-13.515,14.596-21.691,34.013-21.691,55.33
				c0,25.864,9.269,47.294,27.911,58.555c14.045,8.484,34.421,9.794,54.495,10.731c27.691,1.293,56.311-4.149,76.199-17.11
				C343.535,214.523,342.93,195.26,342.93,175.155z"/>
		</g>
	</g>
	<g id="&#x424;&#x438;&#x433;&#x443;&#x440;&#x430;_303_&#x43A;&#x43E;&#x43F;&#x438;&#x44F;_2">
		<g>
			<path style="fill-rule:evenodd;clip-rule:evenodd;fill:#EF8842;" d="M326.947,125.835c-6.503-1.538-12.183-1.024-12.117,5.466
				c1.3,2.767,2.303,5.486,2.886,8.106c0.662,2.973,1.166,5.834,1.532,8.589c2.303,11.12,0.979,21.532-1.84,30.324
				c-2.664,9.222-6.928,15.979-10.663,20.518c-0.98,1.268-1.915,2.361-2.757,3.241c-15.104,15.82-55.584,17.537-79.134,7.649
				c-21.941-9.212-26.606-18.099-27.997-20.512c-21.57-27.334-15.794-51.863-7.996-67.209c-2.475,3.389-6.496,8.168-8.43,11.915
				c-5.871,22.419-8.499,58.04,23.144,81.122c21.438,15.638,53.235,19.672,81.359,11.907c32.946-9.097,49.581-24.577,57.923-38.96
				c0.093-4.178,0.072-8.482,0.072-12.837C342.93,156.803,336.99,139.801,326.947,125.835z"/>
		</g>
	</g>
	<g id="&#x417;&#x430;&#x43B;&#x438;&#x432;&#x43A;&#x430;_&#x446;&#x432;&#x435;&#x442;&#x43E;&#x43C;_182">
		<g>
			<path style="fill-rule:evenodd;clip-rule:evenodd;fill:#BE6C32;" d="M213.085,202.116c-4.111-3.235-7.909-6.952-11.607-10.816
				c-3.667-3.902-7.649-7.591-11.231-11.763c2.025,5.134,5.317,9.517,8.596,13.966c3.277,4.455,7.087,8.58,11.508,12.083
				c4.397,3.557,9.681,6.186,15.112,7.562c5.428,1.417,16.476,2.951,21.945,2.152c-5.391-1.041-15.966-3.508-20.87-5.429
				C221.629,207.91,217.147,205.394,213.085,202.116z M346.658,177.03l-0.002-2.478c0-43.646-31.854-80.834-75.742-88.427
				c-1.791-0.314-3.544,0.734-4.119,2.462c-0.577,1.727,0.193,3.615,1.814,4.444c19.438,9.949,31.956,29.328,32.67,50.573
				c0.48,14.301-4.481,27.577-13.967,37.386c-9.408,9.73-22.311,15.089-36.328,15.089c-1.591,0-3.212-0.07-4.819-0.209
				c-30.156-2.603-54.308-29.241-53.837-59.384c0.108-6.938,1.523-13.602,4.209-19.808c0.712-1.646,0.134-3.567-1.37-4.547
				c-1.505-0.98-3.496-0.733-4.712,0.583c-14.621,15.789-22.673,36.328-22.673,57.833c0,28.227,10.544,50.142,29.69,61.706
				c14.318,8.65,33.936,10.216,56.228,11.258c2.692,0.126,5.423,0.189,8.118,0.189c27.604,0,52.557-6.354,70.263-17.893
				C346.707,216.277,346.684,197.213,346.658,177.03z M328.059,219.639c-16.285,10.612-40.428,16.698-66.24,16.698
				c-2.58,0-5.197-0.061-7.776-0.181c-21.271-0.994-39.921-2.447-52.761-10.205c-16.853-10.18-26.134-29.855-26.134-55.402
				c0-13.519,3.482-26.618,10.007-38.175c-0.106,1.324-0.17,2.657-0.191,3.999c-0.528,33.926,26.644,63.908,60.57,66.836
				c1.815,0.156,3.649,0.236,5.452,0.236c16.031,0,30.813-6.156,41.623-17.334c10.885-11.256,16.58-26.439,16.033-42.752
				c-0.486-14.469-5.826-28.157-14.795-39.189c2.219,1.937,4.336,3.979,6.326,6.125c8.173,8.832,14.018,19.677,16.299,31.387
				c1.178,5.812,1.652,11.917,1.605,17.906c-0.006,6.017-0.738,12.014-2.129,17.852c-1.449,5.817-3.646,11.481-6.857,16.589
				c-3.169,5.131-7.021,9.926-12.098,13.459c5.588-2.683,10.069-7.207,13.891-12.222c3.794-5.051,6.577-10.852,8.396-16.909
				c1.879-6.054,2.727-12.377,2.986-18.68c0.111-3.156,0.005-6.314-0.229-9.457c-0.247-3.147-0.603-6.278-1.241-9.42
				c-1.308-6.233-3.5-12.307-6.602-17.872c-3.124-5.547-7.02-10.642-11.564-15.022c-1.623-1.592-3.344-3.066-5.105-4.487
				c25.262,14.422,41.769,41.093,41.769,71.135l0.001,2.486C339.316,195.167,339.338,212.289,328.059,219.639z"/>
		</g>
	</g>
	<g id="&#x424;&#x438;&#x433;&#x443;&#x440;&#x430;_305">
		<g>
			<path style="fill-rule:evenodd;clip-rule:evenodd;fill:#FFE39F;" d="M281.305,168.143c-1.765-14.748-7.702-26.04-14.705-38.139
				c-5.593-9.662-14.423-20.852-14.423-20.852s0.699,2.938-2.23,10.977c-5.772,15.834-18.012,21.151-22.787,40.027
				c-8.394,33.176,23.428,39.72,28.092,39.014S285.188,200.58,281.305,168.143z"/>
		</g>
	</g>
	<g id="&#x424;&#x438;&#x433;&#x443;&#x440;&#x430;_310">
		<g>
			<path style="fill-rule:evenodd;clip-rule:evenodd;fill:#FFD563;" d="M256.927,134.984c0,0-1.479,6.374-5.769,14.652
				c-3.747,7.23-9.084,11.809-10.644,23.072c-1.884,13.604,10.005,18.611,13.577,19.237s16.428-4.175,16.969-18.087
				C271.716,157.027,256.927,134.984,256.927,134.984z"/>
		</g>
	</g>
	<g id="&#x417;&#x430;&#x43B;&#x438;&#x432;&#x43A;&#x430;_&#x446;&#x432;&#x435;&#x442;&#x43E;&#x43C;_183">
		<g>
			<path style="fill-rule:evenodd;clip-rule:evenodd;fill:#9A4C15;" d="M259.097,195.246c-0.112-0.248-0.267-0.515-0.397-0.769
				l-0.384-0.671c-0.222-0.364-0.438-0.738-0.642-1.126c-0.414-0.772-0.758-1.598-1.049-2.452c-0.578-1.711-0.995-3.527-1.293-5.389
				c-0.329-1.859-0.542-3.771-0.654-5.705c-0.257-3.868-0.166-7.834,0.188-11.791l0.001-0.015c0.013-0.159-0.076-0.314-0.232-0.377
				c-0.189-0.076-0.407,0.016-0.483,0.206c-1.515,3.776-2.51,7.728-3.17,11.802c-0.298,2.039-0.502,4.112-0.556,6.221
				c-0.021,2.106,0.101,4.244,0.435,6.406c0.168,1.08,0.366,2.171,0.617,3.273c0.124,0.552,0.271,1.104,0.432,1.656l0.19,0.706
				l0.146,0.619c0.409,1.725,0.843,3.342,1.292,4.953c0.849,3.238,1.476,6.48,0.985,10.671l-0.01,0.082
				c-0.009,0.074,0.004,0.151,0.041,0.224c0.096,0.193,0.333,0.272,0.528,0.174c2.156-1.082,3.582-3.075,4.533-5.227
				c0.929-2.178,1.287-4.579,1.191-6.902C260.719,199.485,260.101,197.238,259.097,195.246z"/>
		</g>
	</g>
	
		<g id="&#x417;&#x430;&#x43B;&#x438;&#x432;&#x43A;&#x430;_&#x446;&#x432;&#x435;&#x442;&#x43E;&#x43C;_183_&#x43A;&#x43E;&#x43F;&#x438;&#x44F;">
		<g>
			<path style="fill-rule:evenodd;clip-rule:evenodd;fill:#FFF8E8;" d="M283.221,170.045c-0.271-4.628-0.996-9.27-2.141-13.807
				c-2.228-9.141-6.607-17.535-11.092-25.512c-4.656-8.079-9.985-15.53-15.464-22.952L251.737,104l-1.122,4.613
				c-1.076,4.431-2.393,8.925-3.999,13.191c-0.813,2.138-1.699,4.217-2.758,6.172c-1.084,2.001-2.254,4.003-3.482,5.944
				c-2.454,3.898-5.217,7.621-7.869,11.622c-2.655,3.988-4.993,8.385-6.506,12.995c-0.383,1.138-0.741,2.331-1.05,3.464
				c-0.327,1.203-0.595,2.399-0.794,3.626c-0.401,2.443-0.516,4.954-0.269,7.438c0.486,4.987,2.595,9.729,5.65,13.525
				c3.065,3.821,6.972,6.76,11.088,9.125c4.131,2.358,9.207,4.075,11.922,3.364c-1.007-0.206-2.34-0.316-4.823-1.041
				c-2.243-0.654-4.514-2.086-6.436-3.389c-3.842-2.596-7.312-5.743-9.914-9.441c-2.634-3.672-4.219-7.982-4.437-12.389
				c-0.129-2.2,0.058-4.419,0.505-6.595c0.22-1.085,0.512-2.175,0.843-3.226c0.357-1.12,0.719-2.164,1.13-3.237
				c1.608-4.263,3.768-8.207,6.424-11.966c2.641-3.763,5.579-7.525,8.143-11.577c1.3-2.019,2.522-4.064,3.692-6.185
				c1.187-2.174,2.154-4.426,3.02-6.675c1.162-3.066,2.152-6.14,3.032-9.262c4.483,6.078,8.825,12.305,12.63,18.72
				c4.668,7.803,8.896,15.75,11.406,24.324c1.272,4.279,2.081,8.687,2.598,13.164c0.477,4.405,0.514,8.931-0.475,13.209
				c-0.928,4.265-3.18,8.317-6.905,10.76c-1.834,1.227-3.827,2.5-6.025,2.974c-2.25,0.75-4.314,0.959-6.574,1.51
				c2.199,0.53,9.062-1.145,13.208-3.496c2.063-1.169,3.869-2.82,5.271-4.764c1.398-1.948,2.404-4.156,3.096-6.431
				C283.303,179.481,283.473,174.727,283.221,170.045z"/>
		</g>
	</g>
	
		<g id="&#x417;&#x430;&#x43B;&#x438;&#x432;&#x43A;&#x430;_&#x446;&#x432;&#x435;&#x442;&#x43E;&#x43C;_183_&#x43A;&#x43E;&#x43F;&#x438;&#x44F;_2">
		<g>
			<path style="fill-rule:evenodd;clip-rule:evenodd;fill:#FFAC4A;" d="M271.648,164.969c-0.508-2.834-1.432-5.55-2.403-8.179
				c-0.981-2.615-2.025-5.238-3.231-7.779c-2.401-5.078-5.044-9.976-7.869-14.823l-2.084-3.574l-0.642,4.145
				c-0.767,4.957-2.337,10.035-4.852,14.382c-2.657,4.362-5.964,8.603-8.494,13.427c-2.587,4.841-3.525,10.711-2.13,16.063
				c1.43,5.361,5.944,10.15,10.813,12.219c-4.534-2.7-8.43-7.556-9.296-12.566c-0.485-2.482-0.38-5.063,0.088-7.528
				c0.434-2.51,1.404-4.813,2.668-7.041c2.523-4.478,5.902-8.503,8.796-13.131c1.411-2.382,2.503-4.907,3.375-7.488
				c0.447-1.343,0.839-2.683,1.173-4.046c2.087,3.661,4.08,7.393,5.899,11.173c1.195,2.464,2.281,4.97,3.316,7.526
				c1.033,2.54,1.919,5.095,2.527,7.703c0.602,2.606,0.861,5.312,0.908,8.023c0.053,2.677-0.254,5.37-1.154,7.876
				c-0.877,2.506-2.36,4.478-4.416,6.245c-2.053,1.752-4.782,3.392-7.489,4.001c5.552-0.511,11.054-4.301,13.322-9.684
				c1.147-2.664,1.665-5.557,1.771-8.418C272.32,170.661,272.172,167.8,271.648,164.969z"/>
		</g>
	</g>
	<g id="&#x424;&#x438;&#x433;&#x443;&#x440;&#x430;_323">
		<g>
			<path style="fill-rule:evenodd;clip-rule:evenodd;fill:#9A69A0;" d="M290.456,238.352c-7.136,0-12.919,2.075-12.919,4.634
				c0,2.56,5.783,4.634,12.919,4.634s12.919-2.074,12.919-4.634C303.375,240.427,297.592,238.352,290.456,238.352z M146.932,225.279
				c-6.949,0-12.582,1.813-12.582,4.051c0,2.236,5.633,4.051,12.582,4.051s12.582-1.814,12.582-4.051
				C159.513,227.093,153.88,225.279,146.932,225.279z M229.649,238.566c-8.449,0-15.298,2.576-15.298,5.754
				s6.849,5.754,15.298,5.754c8.448,0,15.297-2.576,15.297-5.754S238.098,238.566,229.649,238.566z M335.443,229.514
				c-6.694,0-12.121,1.854-12.121,4.143s5.427,4.144,12.121,4.144c6.695,0,12.121-1.855,12.121-4.144
				S342.139,229.514,335.443,229.514z M312.72,233.871c-6.771,0-12.26,1.979-12.26,4.419s5.489,4.419,12.26,4.419
				s12.26-1.979,12.26-4.419S319.49,233.871,312.72,233.871z"/>
		</g>
	</g>
	<g id="&#x424;&#x438;&#x433;&#x443;&#x440;&#x430;_311">
		<g>
			<circle style="fill-rule:evenodd;clip-rule:evenodd;fill:#A067A7;" cx="152.041" cy="221.873" r="9.298"/>
		</g>
	</g>
	<g id="&#x424;&#x438;&#x433;&#x443;&#x440;&#x430;_320">
		<g>
			<ellipse style="fill-rule:evenodd;clip-rule:evenodd;fill:#DC95EC;" cx="151.704" cy="219.142" rx="5.846" ry="5.401"/>
		</g>
	</g>
	<g id="&#x417;&#x430;&#x43B;&#x438;&#x432;&#x43A;&#x430;_&#x446;&#x432;&#x435;&#x442;&#x43E;&#x43C;_187">
		<g>
			<path style="fill-rule:evenodd;clip-rule:evenodd;fill:#7C4E96;" d="M151.166,210.089c-6.345,0-11.507,5.162-11.507,11.508
				c0,6.345,5.163,11.508,11.507,11.508c6.345,0,11.508-5.163,11.508-11.508C162.674,215.251,157.511,210.089,151.166,210.089z
				 M151.166,228.686c-3.908,0-7.088-3.18-7.088-7.089s3.18-7.089,7.088-7.089c3.909,0,7.089,3.18,7.089,7.089
				S155.075,228.686,151.166,228.686z"/>
		</g>
	</g>
	<g id="&#x424;&#x438;&#x433;&#x443;&#x440;&#x430;_312">
		<g>
			<path style="fill-rule:evenodd;clip-rule:evenodd;fill:#B11A35;" d="M232.111,230.94c-4.944,0-8.953,4.009-8.953,8.953
				s4.008,8.953,8.953,8.953c4.945,0,8.954-4.009,8.954-8.953S237.056,230.94,232.111,230.94z M334.116,219.156
				c-4.716,0-8.538,3.844-8.538,8.585s3.822,8.585,8.538,8.585s8.538-3.844,8.538-8.585S338.832,219.156,334.116,219.156z"/>
		</g>
	</g>
	<g id="&#x424;&#x438;&#x433;&#x443;&#x440;&#x430;_319">
		<g>
			<path style="fill-rule:evenodd;clip-rule:evenodd;fill:#FF626A;" d="M231.936,231.048c-3.932,0-7.12,2.501-7.12,5.585
				c0,3.085,3.188,5.586,7.12,5.586c3.932,0,7.119-2.501,7.119-5.586C239.055,233.549,235.867,231.048,231.936,231.048z
				 M331.639,219.203c-3.645,0-6.598,2.294-6.598,5.125c0,2.83,2.953,5.124,6.598,5.124c3.644,0,6.598-2.294,6.598-5.124
				C338.236,221.497,335.282,219.203,331.639,219.203z"/>
		</g>
	</g>
	<g id="&#x417;&#x430;&#x43B;&#x438;&#x432;&#x43A;&#x430;_&#x446;&#x432;&#x435;&#x442;&#x43E;&#x43C;_186">
		<g>
			<path style="fill-rule:evenodd;clip-rule:evenodd;fill:#6E1A29;" d="M333.472,216.326c-5.927,0-10.748,4.842-10.748,10.794
				s4.821,10.794,10.748,10.794s10.749-4.842,10.749-10.794S339.398,216.326,333.472,216.326z M333.472,233.495
				c-3.489,0-6.329-2.859-6.329-6.375s2.84-6.375,6.329-6.375s6.329,2.859,6.329,6.375S336.961,233.495,333.472,233.495z
				 M231.467,228.109c-6.155,0-11.163,5.008-11.163,11.163s5.007,11.162,11.163,11.162s11.163-5.007,11.163-11.162
				S237.623,228.109,231.467,228.109z M231.467,246.016c-3.719,0-6.744-3.024-6.744-6.743s3.025-6.744,6.744-6.744
				c3.718,0,6.744,3.025,6.744,6.744S235.186,246.016,231.467,246.016z"/>
		</g>
	</g>
	<g id="&#x424;&#x438;&#x433;&#x443;&#x440;&#x430;_314">
		<g>
			<ellipse style="fill-rule:evenodd;clip-rule:evenodd;fill:#FEBC61;" cx="310.111" cy="231.056" rx="11.186" ry="8.953"/>
		</g>
	</g>
	<g id="&#x424;&#x438;&#x433;&#x443;&#x440;&#x430;_322">
		<g>
			<ellipse style="fill-rule:evenodd;clip-rule:evenodd;fill:#FFE39F;" cx="310.25" cy="226.982" rx="7.856" ry="4.434"/>
		</g>
	</g>
	<g id="&#x417;&#x430;&#x43B;&#x438;&#x432;&#x43A;&#x430;_&#x446;&#x432;&#x435;&#x442;&#x43E;&#x43C;_185">
		<g>
			<path style="fill-rule:evenodd;clip-rule:evenodd;fill:#EF8842;" d="M308.776,219.271c-7.387,0-13.396,5.008-13.396,11.163
				s6.009,11.162,13.396,11.162s13.396-5.007,13.396-11.162S316.163,219.271,308.776,219.271z M308.776,237.178
				c-4.95,0-8.976-3.025-8.976-6.743c0-3.719,4.025-6.744,8.976-6.744s8.976,3.025,8.976,6.744
				C317.752,234.152,313.727,237.178,308.776,237.178z"/>
		</g>
	</g>
	<g id="&#x424;&#x438;&#x433;&#x443;&#x440;&#x430;_313">
		<g>
			<ellipse style="fill-rule:evenodd;clip-rule:evenodd;fill:#CB7DDD;" cx="288.2" cy="233.012" rx="13.21" ry="13.625"/>
		</g>
	</g>
	<g id="&#x424;&#x438;&#x433;&#x443;&#x440;&#x430;_321">
		<g>
			<ellipse style="fill-rule:evenodd;clip-rule:evenodd;fill:#EAC3F9;" cx="287.064" cy="229.191" rx="9.927" ry="9.099"/>
		</g>
	</g>
	<g id="&#x417;&#x430;&#x43B;&#x438;&#x432;&#x43A;&#x430;_&#x446;&#x432;&#x435;&#x442;&#x43E;&#x43C;_184">
		<g>
			<path style="fill-rule:evenodd;clip-rule:evenodd;fill:#9D64BC;" d="M288.154,216.81c-8.503,0-15.42,7.103-15.42,15.834
				s6.917,15.835,15.42,15.835s15.42-7.104,15.42-15.835S296.657,216.81,288.154,216.81z M288.154,244.06
				c-6.066,0-11.002-5.121-11.002-11.416c0-6.294,4.936-11.415,11.002-11.415s11.002,5.121,11.002,11.415
				C299.156,238.938,294.221,244.06,288.154,244.06z"/>
		</g>
	</g>
	<g id="&#x417;&#x430;&#x43B;&#x438;&#x432;&#x43A;&#x430;_&#x446;&#x432;&#x435;&#x442;&#x43E;&#x43C;_189">
		<g>
			<path style="fill-rule:evenodd;clip-rule:evenodd;fill:#FEBC61;" d="M266.382,61.686c-0.935,1.165-1.427,2.336-1.784,3.51
				c-0.338,1.173-0.504,2.35-0.516,3.526c-0.014,1.178,0.122,2.357,0.43,3.54c0.328,1.182,0.787,2.365,1.686,3.555
				c0.93-1.166,1.42-2.338,1.778-3.511c0.339-1.173,0.505-2.349,0.522-3.526c0.02-1.177-0.117-2.356-0.424-3.538
				C267.747,64.059,267.287,62.875,266.382,61.686z M229.012,66.126c-0.595-1.865-1.324-3.712-2.493-5.5
				c-0.655,2.033-0.87,4.007-0.951,5.963c-0.064,1.953,0.043,3.884,0.303,5.794c0.26,1.909,0.666,3.8,1.245,5.667
				c0.596,1.865,1.324,3.712,2.487,5.5c0.649-2.032,0.862-4.006,0.945-5.962c0.064-1.953-0.043-3.884-0.298-5.795
				C229.997,69.883,229.589,67.993,229.012,66.126z M158.841,103.211c-2.208-1.844-4.513-3.568-6.931-5.161
				c-2.428-1.58-4.942-3.055-7.74-4.189c1.62,2.549,3.525,4.756,5.516,6.859c2.002,2.089,4.115,4.047,6.327,5.885
				c2.211,1.84,4.517,3.564,6.934,5.157c2.429,1.578,4.942,3.056,7.737,4.193c-1.624-2.544-3.53-4.749-5.52-6.854
				C163.162,107.012,161.049,105.054,158.841,103.211z M141.011,146.441c2.026,0.551,4.091,0.958,6.202,1.196
				c2.115,0.223,4.266,0.316,6.531-0.013c-1.785-1.435-3.686-2.445-5.621-3.327c-1.94-0.866-3.926-1.563-5.951-2.118
				c-2.024-0.557-4.089-0.962-6.2-1.202c-2.115-0.225-4.266-0.316-6.533,0.019c1.783,1.44,3.683,2.453,5.619,3.333
				C136.999,145.193,138.985,145.893,141.011,146.441z M133.451,174.078c-4.277,0.231-8.531,0.635-12.766,1.184
				c-4.235,0.55-8.451,1.252-12.644,2.125c-4.19,0.9-8.365,1.91-12.48,3.38c4.354,0.366,8.649,0.271,12.929,0.066
				c4.278-0.231,8.532-0.634,12.766-1.189c4.235-0.555,8.451-1.257,12.643-2.13c4.189-0.902,8.365-1.911,12.481-3.375
				C142.025,173.779,137.731,173.875,133.451,174.078z M145.556,199.529c-1.535,0.978-2.988,2.087-4.348,3.343
				c-1.351,1.269-2.628,2.652-3.667,4.409c2.031-0.207,3.821-0.789,5.54-1.483c1.709-0.709,3.325-1.563,4.858-2.549
				c1.533-0.984,2.985-2.093,4.346-3.348c1.349-1.271,2.628-2.652,3.669-4.404c-2.027,0.211-3.818,0.794-5.537,1.487
				C148.708,197.693,147.093,198.548,145.556,199.529z M196.504,90.5c-0.672-1.107-1.476-2.133-2.427-3.069
				c-0.966-0.927-2.048-1.783-3.508-2.408c-0.11,1.585,0.159,2.938,0.543,4.221c0.398,1.273,0.945,2.457,1.624,3.56
				c0.677,1.104,1.481,2.13,2.433,3.065c0.967,0.926,2.047,1.783,3.502,2.411c0.105-1.581-0.166-2.934-0.548-4.217
				C197.724,92.789,197.177,91.605,196.504,90.5z M366.073,156.109c-1.671,0.185-3.328,0.521-4.966,1.026
				c-1.634,0.523-3.255,1.18-4.827,2.272c1.772,0.726,3.497,1.013,5.207,1.169c1.708,0.138,3.396,0.104,5.069-0.078
				c1.673-0.18,3.328-0.515,4.966-1.021c1.636-0.521,3.255-1.18,4.827-2.278c-1.773-0.73-3.498-1.02-5.207-1.174
				C369.436,155.888,367.745,155.92,366.073,156.109z M367.45,203.471c-1.042-0.79-2.147-1.42-3.315-1.907
				c-1.167-0.489-2.393-0.842-3.685-1.033c-1.299-0.176-2.649-0.229-4.17,0.122c0.812,1.334,1.794,2.263,2.826,3.068
				c1.04,0.79,2.148,1.42,3.313,1.913c1.165,0.495,2.389,0.846,3.681,1.038c1.299,0.178,2.649,0.229,4.173-0.128
				C369.465,205.205,368.482,204.276,367.45,203.471z M396.664,179.771c-3.46-0.078-6.908,0.017-10.344,0.266
				c-3.438,0.249-6.863,0.645-10.278,1.213c-3.412,0.599-6.815,1.301-10.188,2.464c3.503,0.673,6.973,0.885,10.435,0.991
				c3.46,0.078,6.908-0.018,10.344-0.261c3.438-0.242,6.865-0.639,10.278-1.206c3.412-0.596,6.815-1.301,10.188-2.471
				C403.596,180.09,400.126,179.874,396.664,179.771z M332.293,96.381c-1.035,1.049-1.963,2.202-2.768,3.478
				c-0.793,1.288-1.49,2.669-1.877,4.359c1.687-0.404,3.061-1.118,4.339-1.924c1.267-0.819,2.409-1.761,3.446-2.806
				c1.039-1.046,1.967-2.199,2.772-3.474c0.792-1.287,1.49-2.669,1.871-4.363c-1.69,0.399-3.063,1.112-4.343,1.919
				C334.469,94.391,333.325,95.331,332.293,96.381z M306.459,67.529c-0.963,1.757-1.761,3.571-2.412,5.437
				c-0.654,1.865-1.168,3.78-1.518,5.751c-0.334,1.979-0.543,4-0.336,6.168c1.52-1.561,2.623-3.268,3.602-5.019
				c0.962-1.757,1.76-3.57,2.418-5.435c0.66-1.862,1.174-3.777,1.523-5.748c0.334-1.979,0.541-4,0.329-6.17
				C308.542,64.072,307.436,65.779,306.459,67.529z M366.763,124.019c2.517-1.776,4.946-3.68,7.275-5.724
				c2.314-2.066,4.564-4.223,6.547-6.759c-3.052,1.024-5.835,2.428-8.552,3.922c-2.705,1.516-5.309,3.172-7.822,4.954
				c-2.515,1.782-4.944,3.685-7.273,5.729c-2.313,2.068-4.564,4.222-6.549,6.753c3.048-1.028,5.828-2.434,8.549-3.926
				C361.64,127.453,364.244,125.797,366.763,124.019z"/>
		</g>
	</g>
</g>
</svg>
