<?xml version="1.0" encoding="iso-8859-1"?>
<!-- Generator: Adobe Illustrator 15.0.0, SVG Export Plug-In . SVG Version: 6.00 Build 0)  -->
<!DOCTYPE svg PUBLIC "-//W3C//DTD SVG 1.1//EN" "http://www.w3.org/Graphics/SVG/1.1/DTD/svg11.dtd" [
	<!ENTITY ns_extend "http://ns.adobe.com/Extensibility/1.0/">
	<!ENTITY ns_ai "http://ns.adobe.com/AdobeIllustrator/10.0/">
	<!ENTITY ns_graphs "http://ns.adobe.com/Graphs/1.0/">
	<!ENTITY ns_vars "http://ns.adobe.com/Variables/1.0/">
	<!ENTITY ns_imrep "http://ns.adobe.com/ImageReplacement/1.0/">
	<!ENTITY ns_sfw "http://ns.adobe.com/SaveForWeb/1.0/">
	<!ENTITY ns_custom "http://ns.adobe.com/GenericCustomNamespace/1.0/">
	<!ENTITY ns_adobe_xpath "http://ns.adobe.com/XPath/1.0/">
]>
<svg version="1.1" xmlns:x="&ns_extend;" xmlns:i="&ns_ai;" xmlns:graph="&ns_graphs;"
	 xmlns="http://www.w3.org/2000/svg" xmlns:xlink="http://www.w3.org/1999/xlink" x="0px" y="0px" width="512px" height="512px"
	 viewBox="0 0 512 512" style="enable-background:new 0 0 512 512;" xml:space="preserve">
<metadata>
	<sfw  xmlns="&ns_sfw;">
		<slices></slices>
		<sliceSourceBounds  height="512" width="512" x="94" y="94" bottomLeftOrigin="true"></sliceSourceBounds>
	</sfw>
</metadata>
<g id="&#x418;&#x437;&#x43E;&#x431;&#x440;&#x430;&#x436;&#x435;&#x43D;&#x438;&#x435;_xA0_17_1_">
	<g id="&#x417;&#x430;&#x43B;&#x438;&#x432;&#x43A;&#x430;_&#x446;&#x432;&#x435;&#x442;&#x43E;&#x43C;_1">
		<g>
			<rect x="3.699" y="4.439" style="fill-rule:evenodd;clip-rule:evenodd;fill:#B17D7B;" width="503.121" height="503.121"/>
		</g>
	</g>
	<g id="&#x417;&#x430;&#x43B;&#x438;&#x432;&#x43A;&#x430;_&#x446;&#x432;&#x435;&#x442;&#x43E;&#x43C;_5">
		<g>
			<path style="fill-rule:evenodd;clip-rule:evenodd;fill:#F3D4C3;" d="M484.624,25.156l20.717-20.717H3.699l20.717,20.717H484.624z
				 M24.416,486.844L3.699,507.561h501.642l-20.717-20.717H24.416z"/>
		</g>
	</g>
	
		<g id="&#x417;&#x430;&#x43B;&#x438;&#x432;&#x43A;&#x430;_&#x446;&#x432;&#x435;&#x442;&#x43E;&#x43C;_1_&#x43A;&#x43E;&#x43F;&#x438;&#x44F;_2">
		<g>
			
				<radialGradient id="SVGID_1_" cx="256.7402" cy="256" r="228.0762" gradientTransform="matrix(1 0 0 1 -0.334 -0.5)" gradientUnits="userSpaceOnUse">
				<stop  offset="0" style="stop-color:#7D7193"/>
				<stop  offset="0.2" style="stop-color:#7C7193"/>
				<stop  offset="0.4" style="stop-color:#6C6382"/>
				<stop  offset="0.5939" style="stop-color:#554E6B"/>
				<stop  offset="0.7515" style="stop-color:#3E3A53"/>
				<stop  offset="0.897" style="stop-color:#29273A"/>
				<stop  offset="1" style="stop-color:#232132"/>
			</radialGradient>
			<polygon style="fill-rule:evenodd;clip-rule:evenodd;fill:url(#SVGID_1_);" points="432.431,27.424 78.522,27.424 28.33,77.616 
				28.33,435.269 76.638,483.576 433.033,483.576 484.482,432.127 484.482,79.476 			"/>
		</g>
	</g>
	
		<g id="&#x417;&#x430;&#x43B;&#x438;&#x432;&#x43A;&#x430;_&#x446;&#x432;&#x435;&#x442;&#x43E;&#x43C;_1_&#x43A;&#x43E;&#x43F;&#x438;&#x44F;">
		<g>
			<path style="fill-rule:evenodd;clip-rule:evenodd;fill:#F2D2C0;" d="M25.109,24.37v463.26h463.26V24.37H25.109z M466.659,418.566
				l-47.353,47.353H91.283l-44.462-44.462V92.277l46.196-46.196h325.734l47.908,47.907V418.566z"/>
		</g>
	</g>
	<g id="&#x424;&#x438;&#x433;&#x443;&#x440;&#x430;_3">
		<g>
			<path style="fill-rule:evenodd;clip-rule:evenodd;fill:#A18180;" d="M429.873,25.156l-344.047-1.48l-62.15,62.891v342.566
				l59.931,59.19l344.046-0.739l59.931-59.191V84.347L429.873,25.156z M477.226,423.954l-56.231,54.751H91.006l-56.231-54.751
				V88.046l54.012-54.012h334.428l54.751,56.231L477.226,423.954z"/>
		</g>
	</g>
	<g id="&#x417;&#x430;&#x43B;&#x438;&#x432;&#x43A;&#x430;_&#x446;&#x432;&#x435;&#x442;&#x43E;&#x43C;_6">
		<g>
			<path style="fill-rule:evenodd;clip-rule:evenodd;fill:#C7907F;" d="M23.676,86.566l62.52-62.752l-62.52-0.139V86.566z
				 M487.584,23.63l-62.521,0.139l62.521,62.752V23.63z M22.196,488.37l62.521-0.139l-62.521-62.752V488.37z M425.803,488.971
				l62.521,0.139v-62.89L425.803,488.971z"/>
		</g>
	</g>
	
		<g id="&#x417;&#x430;&#x43B;&#x438;&#x432;&#x43A;&#x430;_&#x446;&#x432;&#x435;&#x442;&#x43E;&#x43C;_6_&#x43A;&#x43E;&#x43F;&#x438;&#x44F;">
		<g>
			<path style="fill-rule:evenodd;clip-rule:evenodd;fill:#FDECE7;" d="M27.964,485.886l56.753,2.346L55.27,458.579L27.964,485.886z
				 M54.694,55.434l31.502-31.619l-59.314,3.562L54.694,55.434z M425.803,488.971l59.314-3.113l-28.158-28.158L425.803,488.971z
				 M485.117,26.582l-60.054-2.813l31.376,31.491L485.117,26.582z"/>
		</g>
	</g>
	<g id="&#x424;&#x438;&#x433;&#x443;&#x440;&#x430;_1">
		<g>
			<path style="fill-rule:evenodd;clip-rule:evenodd;fill:#C7907F;" d="M34.774,487.769l0.093-9.156h-8.417L34.774,487.769z
				 M477.04,477.873l0.093,9.155l8.323-9.155H477.04z M476.393,25.804l-0.092,9.156h8.416L476.393,25.804z M26.451,34.96h8.417
				l-0.093-9.156L26.451,34.96z"/>
		</g>
	</g>
	<g id="&#x424;&#x438;&#x433;&#x443;&#x440;&#x430;_2">
		<g>
			<path style="fill-rule:evenodd;clip-rule:evenodd;fill:#FDECE7;" d="M22.597,480.813L9.026,497.72l-1.627,10.285l22.418-0.296
				l0.532-18.644l-3.492-6.957L22.597,480.813z M508.448,495.817l-18.855-14.581l-4.261,4.043l-3.068,4.209l2.646,16.529
				l23.688,1.353L508.448,495.817z M21.002,31.648l4.26-1.295l3.492-6.956L28.222,4.754L5.803,4.458l1.628,10.284L21.002,31.648z
				 M487.997,31.226l18.856-14.581l0.147-11.553l-23.687,1.353l-2.646,16.53l3.069,4.208L487.997,31.226z"/>
		</g>
	</g>
	<g id="&#x417;&#x430;&#x43B;&#x438;&#x432;&#x43A;&#x430;_&#x446;&#x432;&#x435;&#x442;&#x43E;&#x43C;_2">
		<g>
			<path style="fill-rule:evenodd;clip-rule:evenodd;fill:#2F181B;" d="M0,0v512h512V0H0z M503.121,503.121H8.878V8.879h494.243
				V503.121z"/>
		</g>
	</g>
	<g id="&#x417;&#x430;&#x43B;&#x438;&#x432;&#x43A;&#x430;_&#x446;&#x432;&#x435;&#x442;&#x43E;&#x43C;_3">
		<g>
			<path style="fill-rule:evenodd;clip-rule:evenodd;fill:#40292E;" d="M482.33,20.67H29.346l-9.369,9.369v397.468
				c-0.119,0.585-0.119,1.188,0,1.771v53.925l9.606,9.605h453.025l9.507-9.507V30.455L482.33,20.67z M28.855,34.183l4.633-4.634
				h40.974L28.855,75.156V34.183z M33.726,483.931l-4.871-4.871v-39.857l44.728,44.729H33.726z M483.237,479.158l-4.772,4.772
				H437.63l45.607-45.607V479.158z M483.237,425.769l-58.162,58.162H86.139l-57.283-57.283V87.711l58.162-58.162h338.058
				l58.162,58.162V425.769z M483.237,75.156L437.63,29.549h40.558l5.05,5.05V75.156z"/>
		</g>
	</g>
	
		<g id="&#x417;&#x430;&#x43B;&#x438;&#x432;&#x43A;&#x430;_&#x446;&#x432;&#x435;&#x442;&#x43E;&#x43C;_4_&#x43A;&#x43E;&#x43F;&#x438;&#x44F;" style="opacity:0.502;">
		<g>
			<path style="fill-rule:evenodd;clip-rule:evenodd;fill:#876867;" d="M465.59,92.913l-47.243-47.244
				c-0.685-0.685-1.612-1.068-2.579-1.068H94.545c-0.968,0-1.896,0.384-2.58,1.068L46.409,91.227
				c-0.684,0.684-1.069,1.611-1.069,2.579v324.619c0,0.968,0.385,1.896,1.069,2.579l43.847,43.847
				c0.684,0.684,1.612,1.068,2.579,1.068h323.479c0.968,0,1.896-0.385,2.579-1.068l46.696-46.696
				c0.685-0.685,1.069-1.612,1.069-2.58V95.493C466.659,94.525,466.274,93.598,465.59,92.913z M459.363,414.063l-44.56,44.56H94.346
				l-41.709-41.709V95.316l43.419-43.419h318.201l45.106,45.106V414.063z"/>
		</g>
	</g>
	<g id="&#x417;&#x430;&#x43B;&#x438;&#x432;&#x43A;&#x430;_&#x446;&#x432;&#x435;&#x442;&#x43E;&#x43C;_4">
		<g>
			<path style="fill-rule:evenodd;clip-rule:evenodd;fill:#40292E;" d="M468.534,90.633l-47.907-47.907
				c-0.693-0.694-1.635-1.084-2.615-1.084H92.277c-0.981,0-1.922,0.39-2.616,1.084L43.465,88.922
				c-0.693,0.693-1.083,1.635-1.083,2.615v329.18c0,0.981,0.39,1.922,1.083,2.615l44.463,44.463
				c0.694,0.693,1.634,1.084,2.615,1.084h328.023c0.981,0,1.922-0.391,2.615-1.084l47.353-47.353
				c0.694-0.694,1.084-1.635,1.084-2.616V93.248C469.618,92.268,469.229,91.326,468.534,90.633z M462.22,416.295l-45.186,45.185
				H92.075L49.78,419.185V93.07l44.029-44.03h322.67l45.74,45.741V416.295z"/>
		</g>
	</g>
</g>
<g id="&#x413;&#x440;&#x443;&#x43F;&#x43F;&#x430;_61_&#x43A;&#x43E;&#x43F;&#x438;&#x44F;_1_">
	<g id="&#x424;&#x438;&#x433;&#x443;&#x440;&#x430;_327" style="opacity:0.502;">
		<g>
			<path style="fill-rule:evenodd;clip-rule:evenodd;fill:#161521;" d="M403.458,283.081L301.585,126.24
				c0,0-53.547-31.377-65.228-30.049c-11.681,1.329-174.521,235.353-172.14,252.347s157.298,72.603,157.298,72.603l155.378-41.169
				c0,0,75.439-43.022,75.669-49.252C452.791,324.49,403.458,283.081,403.458,283.081z"/>
		</g>
	</g>
	<g id="&#x424;&#x438;&#x433;&#x443;&#x440;&#x430;_328" style="opacity:0.502;">
		<g>
			<path style="fill-rule:evenodd;clip-rule:evenodd;fill:#6F37FF;" d="M376.207,380.553L222.844,420.5
				c0,0,149.695,25.33,163.757,20.154s65.228-108.57,65.228-108.57L376.207,380.553z M96.373,130.638
				c-4.718,8.017-31.24,212.495-31.24,212.495s48.605-84.813,94.592-150.992c37.404-53.83,75.166-95.949,75.166-95.949
				S101.091,122.622,96.373,130.638z"/>
		</g>
	</g>
	<g id="&#x424;&#x438;&#x433;&#x443;&#x440;&#x430;_328_&#x43A;&#x43E;&#x43F;&#x438;&#x44F;" style="opacity:0.502;">
		<g>
			<path style="fill-rule:evenodd;clip-rule:evenodd;fill:#4B38FF;" d="M96.373,130.638c-3.143,5.341-15.96,97.854-24.168,159.036
				c8.676-34.632,34.651-136.021,43.224-143.645c7.924-7.048,82.465-36.104,116.993-49.346
				C214.197,100.325,100.712,123.267,96.373,130.638z M375.717,380.821L222.844,420.5c0,0,0.065,0.011,0.164,0.027
				c24.971-1.733,136.433-9.857,154.065-17.983c14.581-6.72,51.155-42.954,71.686-64.331c0.913-1.771,3.07-6.129,3.07-6.129
				L375.717,380.821z"/>
		</g>
	</g>
	<g id="&#x424;&#x438;&#x433;&#x443;&#x440;&#x430;_325_&#x43A;&#x43E;&#x43F;&#x438;&#x44F;_8_1_">
		<g>
			<polygon style="fill-rule:evenodd;clip-rule:evenodd;fill:#9645FF;" points="287.646,182.622 172.317,280.988 338.911,325.628 
							"/>
		</g>
	</g>
	<g id="&#x424;&#x438;&#x433;&#x443;&#x440;&#x430;_325_&#x43A;&#x43E;&#x43F;&#x438;&#x44F;_16_1_">
		<g>
			<polygon style="fill-rule:evenodd;clip-rule:evenodd;fill:#C55EFF;" points="287.646,182.622 283.402,186.242 309.52,298.86 
				178.011,276.132 172.317,280.988 338.911,325.628 			"/>
		</g>
	</g>
	<g id="&#x424;&#x438;&#x433;&#x443;&#x440;&#x430;_325_&#x43A;&#x43E;&#x43F;&#x438;&#x44F;_5_1_">
		<g>
			<polygon style="fill-rule:evenodd;clip-rule:evenodd;fill:#7C3ED6;" points="155.513,159.48 116.013,309.17 172.032,280.912 			
				"/>
		</g>
	</g>
	<g id="&#x424;&#x438;&#x433;&#x443;&#x440;&#x430;_325_&#x43A;&#x43E;&#x43F;&#x438;&#x44F;_15_1_">
		<g>
			<polygon style="fill-rule:evenodd;clip-rule:evenodd;fill:#9143FF;" points="170.077,266.539 136.374,278.671 156.319,165.404 
				155.513,159.48 116.013,309.17 172.032,280.912 			"/>
		</g>
	</g>
	<g id="&#x424;&#x438;&#x433;&#x443;&#x440;&#x430;_325_&#x43A;&#x43E;&#x43F;&#x438;&#x44F;_7_1_">
		<g>
			<polygon style="fill-rule:evenodd;clip-rule:evenodd;fill:#5C2ADE;" points="338.911,325.628 373.296,378.108 413.934,228.725 
							"/>
		</g>
	</g>
	<g id="&#x424;&#x438;&#x433;&#x443;&#x440;&#x430;_325_&#x43A;&#x43E;&#x43F;&#x438;&#x44F;_14_1_">
		<g>
			<polygon style="fill-rule:evenodd;clip-rule:evenodd;fill:#613CFE;" points="413.934,228.725 338.911,325.628 373.296,378.108 
				377.815,361.495 357.645,323.943 409.322,245.674 			"/>
		</g>
	</g>
	<g id="&#x424;&#x438;&#x433;&#x443;&#x440;&#x430;_325_&#x43A;&#x43E;&#x43F;&#x438;&#x44F;_3_1_">
		<g>
			<polygon style="fill-rule:evenodd;clip-rule:evenodd;fill:#542BFF;" points="155.513,159.48 286.907,183.109 287.666,182.551 
				304.615,119.296 			"/>
		</g>
	</g>
	<g id="&#x424;&#x438;&#x433;&#x443;&#x440;&#x430;_325_&#x43A;&#x43E;&#x43F;&#x438;&#x44F;_13_1_">
		<g>
			<polygon style="fill-rule:evenodd;clip-rule:evenodd;fill:#375CFF;" points="155.513,159.48 156.905,159.731 282.484,140.484 
				271.791,180.391 286.907,183.109 287.666,182.551 304.615,119.296 			"/>
		</g>
	</g>
	<g id="&#x424;&#x438;&#x433;&#x443;&#x440;&#x430;_325_&#x43A;&#x43E;&#x43F;&#x438;&#x44F;_6_1_">
		<g>
			<polygon style="fill-rule:evenodd;clip-rule:evenodd;fill:#55228C;" points="305.184,119.448 288.234,182.703 288.613,183.566 
				414.218,228.801 			"/>
		</g>
	</g>
	<g id="&#x424;&#x438;&#x433;&#x443;&#x440;&#x430;_325_&#x43A;&#x43E;&#x43F;&#x438;&#x44F;_12_1_">
		<g>
			<polygon style="fill-rule:evenodd;clip-rule:evenodd;fill:#6A35F0;" points="408.228,222.793 305.763,174.146 317.191,131.491 
				305.184,119.448 288.234,182.703 288.613,183.566 414.218,228.801 			"/>
		</g>
	</g>
	<g id="&#x424;&#x438;&#x433;&#x443;&#x440;&#x430;_325_&#x43A;&#x43E;&#x43F;&#x438;&#x44F;_4_1_">
		<g>
			<path style="fill-rule:evenodd;clip-rule:evenodd;fill:#6F37FF;" d="M338.342,325.476l-166.025-44.487l53.083,135.083
				l113.512-90.443L338.342,325.476z M225.012,416.38l0.569,0.152l-0.181-0.461L225.012,416.38z"/>
		</g>
	</g>
	<g id="&#x424;&#x438;&#x433;&#x443;&#x440;&#x430;_325_&#x43A;&#x43E;&#x43F;&#x438;&#x44F;_11_1_">
		<g>
			<path style="fill-rule:evenodd;clip-rule:evenodd;fill:#8D42FF;" d="M225.012,416.38l0.569,0.152l-0.181-0.461L225.012,416.38z
				 M338.342,325.476l-166.025-44.487l5.888,14.985l128.926,34.545l-84.33,78.939l2.599,6.613l113.512-90.443L338.342,325.476z"/>
		</g>
	</g>
	<g id="&#x417;&#x430;&#x43B;&#x438;&#x432;&#x43A;&#x430;_&#x446;&#x432;&#x435;&#x442;&#x43E;&#x43C;_192_1_">
		<g>
			<polygon style="fill-rule:evenodd;clip-rule:evenodd;fill:#55228C;" points="172.317,280.988 116.013,309.17 225.581,416.532 			
				"/>
		</g>
	</g>
	
		<g id="&#x417;&#x430;&#x43B;&#x438;&#x432;&#x43A;&#x430;_&#x446;&#x432;&#x435;&#x442;&#x43E;&#x43C;_192_&#x43A;&#x43E;&#x43F;&#x438;&#x44F;_1_">
		<g>
			<polygon style="fill-rule:evenodd;clip-rule:evenodd;fill:#632FCE;" points="172.317,280.988 116.013,309.17 127.16,320.093 
				162.09,303.234 214.808,405.977 225.581,416.532 			"/>
		</g>
	</g>
	<g id="&#x417;&#x430;&#x43B;&#x438;&#x432;&#x43A;&#x430;_&#x446;&#x432;&#x435;&#x442;&#x43E;&#x43C;_191_1_">
		<g>
			<polygon style="fill-rule:evenodd;clip-rule:evenodd;fill:#542BFF;" points="338.911,325.628 225.012,416.38 373.581,378.185 			
				"/>
		</g>
	</g>
	
		<g id="&#x417;&#x430;&#x43B;&#x438;&#x432;&#x43A;&#x430;_&#x446;&#x432;&#x435;&#x442;&#x43E;&#x43C;_191_&#x43A;&#x43E;&#x43F;&#x438;&#x44F;_1_">
		<g>
			<polygon style="fill-rule:evenodd;clip-rule:evenodd;fill:#3D54FF;" points="338.911,325.628 225.012,416.38 233.916,414.091 
				334.259,347.538 357.595,382.295 373.581,378.185 			"/>
		</g>
	</g>
	<g id="&#x424;&#x438;&#x433;&#x443;&#x440;&#x430;_325_&#x43A;&#x43E;&#x43F;&#x438;&#x44F;_1_">
		<g>
			<polygon style="fill-rule:evenodd;clip-rule:evenodd;fill:#6F37FF;" points="288.613,183.566 338.911,325.628 414.218,228.801 
							"/>
		</g>
	</g>
	<g id="&#x424;&#x438;&#x433;&#x443;&#x440;&#x430;_325_&#x43A;&#x43E;&#x43F;&#x438;&#x44F;_9_1_">
		<g>
			<polygon style="fill-rule:evenodd;clip-rule:evenodd;fill:#9243FF;" points="398.179,223.024 344.529,288.74 309.323,191.024 
				288.613,183.566 338.911,325.628 414.218,228.801 			"/>
		</g>
	</g>
	<g id="&#x424;&#x438;&#x433;&#x443;&#x440;&#x430;_325_&#x43A;&#x43E;&#x43F;&#x438;&#x44F;_2_1_">
		<g>
			<polygon style="fill-rule:evenodd;clip-rule:evenodd;fill:#5C2ADE;" points="155.513,159.48 172.317,280.988 286.907,183.109 			
				"/>
		</g>
	</g>
	<g id="&#x424;&#x438;&#x433;&#x443;&#x440;&#x430;_325_&#x43A;&#x43E;&#x43F;&#x438;&#x44F;_10_1_">
		<g>
			<polygon style="fill-rule:evenodd;clip-rule:evenodd;fill:#623EFF;" points="260.329,178.329 184.078,243.92 173.501,162.716 
				155.513,159.48 172.317,280.988 286.907,183.109 			"/>
		</g>
	</g>
	<g id="&#x417;&#x430;&#x43B;&#x438;&#x432;&#x43A;&#x430;_&#x446;&#x432;&#x435;&#x442;&#x43E;&#x43C;_195">
		<g>
			<path style="fill-rule:evenodd;clip-rule:evenodd;fill:#F1E6FF;" d="M288.334,178.922c-0.631,2.355,0.641,4.804,2.931,5.642
				l45.56,16.671c0.134,0.049,0.269,0.092,0.404,0.128c2.329,0.623,4.791-0.624,5.636-2.933c0.894-2.442-0.362-5.147-2.804-6.041
				l-41.514-15.19l7.111-26.542c0.674-2.512-0.817-5.095-3.33-5.768c-2.512-0.673-5.094,0.817-5.767,3.33L288.334,178.922z
				 M407.822,225.577l-8.655-3.018c0.758-0.21,1.476-0.603,2.071-1.199c1.838-1.84,1.837-4.821-0.003-6.659l-90.856-90.77
				c-1.838-1.841-4.822-1.838-6.658,0.003c-1.838,1.84-1.838,4.821,0.003,6.659l90.236,90.151l-54.134-18.872
				c-2.457-0.854-5.141,0.44-5.996,2.896s0.441,5.142,2.896,5.998l67.996,23.703c0.111,0.039,0.224,0.073,0.336,0.104
				c2.359,0.632,4.844-0.655,5.661-3C411.575,229.119,410.278,226.434,407.822,225.577z M395.444,279.531
				c-2.512-0.673-5.094,0.818-5.767,3.33l-18.435,68.799c-0.674,2.512,0.817,5.094,3.329,5.768c2.513,0.673,5.095-0.818,5.768-3.33
				l18.435-68.799C399.447,282.787,397.957,280.205,395.444,279.531z M350.5,325.814l28.885-37.758
				c1.58-2.065,1.188-5.021-0.878-6.602c-2.068-1.583-5.023-1.186-6.602,0.879l-26.389,34.495c-0.04-0.161-0.065-0.324-0.123-0.484
				l-42.677-117.439l24.782,9.028c2.451,0.892,5.146-0.369,6.036-2.813c0.891-2.443-0.369-5.146-2.813-6.036l-34.27-12.483
				c-1.717-0.625-3.645-0.199-4.939,1.094c-1.207,1.206-1.623,2.957-1.172,4.583l-0.811-2.191c-0.53-1.433-1.723-2.52-3.197-2.914
				c-0.004-0.001-0.008-0.002-0.011-0.003c-1.479-0.393-3.058-0.042-4.231,0.94l-1.311,1.097l0.339-0.285
				c1.645-1.383,2.084-3.646,1.25-5.515c2.478,0.603,4.996-0.871,5.659-3.348l9.294-34.683c0.673-2.513-0.817-5.095-3.33-5.768
				c-2.512-0.674-5.095,0.817-5.768,3.329l-7.868,29.366l-71.333-12.787c-2.56-0.459-5.007,1.244-5.466,3.805
				c-0.315,1.756,0.397,3.449,1.696,4.494l-16.895-3.485c-2.547-0.525-5.038,1.113-5.563,3.661
				c-0.507,2.455,0.998,4.858,3.389,5.499c0.089,0.023,0.179,0.046,0.271,0.064l78.942,16.283l-51.329,43.179
				c-1.991,1.674-2.247,4.645-0.572,6.635c0.645,0.767,1.481,1.276,2.38,1.517c1.041,0.279,2.161,0.187,3.167-0.271l-18.716,15.671
				l6.254-5.401c1.968-1.7,2.186-4.674,0.486-6.643c-1.7-1.966-4.673-2.186-6.642-0.485l-28.543,24.649
				c-0.664,0.573-1.111,1.297-1.37,2.072l-12.31-92.019c-0.345-2.576-2.715-4.387-5.292-4.043c-2.578,0.345-4.388,2.714-4.043,5.293
				l13.191,98.601c0.259,1.942,1.668,3.449,3.45,3.926c0.583,0.156,1.207,0.202,1.842,0.118c2.577-0.346,4.388-2.715,4.043-5.293
				l-0.333-2.492c0.108,0.162,0.206,0.328,0.336,0.479c0.641,0.741,1.461,1.234,2.341,1.47c1.088,0.292,2.267,0.188,3.305-0.324
				c-0.934,1.658-0.814,3.783,0.48,5.329c0.081,0.097,0.189,0.153,0.277,0.242c-2.261,1.016-3.374,3.618-2.476,5.962l41.334,107.949
				c-0.119-0.153-0.228-0.313-0.369-0.453l-90.287-90.617c-1.836-1.843-4.818-1.848-6.659-0.012
				c-1.843,1.835-1.848,4.816-0.012,6.658l90.288,90.617c0.606,0.609,1.338,1.019,2.112,1.226c1.569,0.421,3.314,0.017,4.547-1.213
				c1.008-1.004,1.446-2.35,1.354-3.665l5.017,13.103c0.562,1.466,1.774,2.488,3.183,2.865c0.926,0.248,1.936,0.218,2.899-0.151
				c2.429-0.93,3.644-3.653,2.714-6.082l-43.764-114.291l140.206,37.568c2.513,0.673,5.096-0.818,5.768-3.33
				c0.674-2.512-0.817-5.095-3.329-5.768l-0.546-0.146c1.691,0.443,3.488-0.086,4.668-1.375c1.002-1.093,1.378-2.578,1.121-4.009
				l0.973,2.677c0.545,1.502,1.775,2.557,3.211,2.941c0.421,0.112,0.86,0.162,1.305,0.153l-0.104,0.137
				c-1.233,1.612-1.295,3.835-0.152,5.512l0.515,0.756c-0.717-0.714-1.639-1.195-2.659-1.329c-1.269-0.176-2.554,0.173-3.56,0.965
				l-50.212,39.564c-2.043,1.61-2.395,4.57-0.785,6.612c0.653,0.83,1.53,1.381,2.478,1.635c1.386,0.371,2.923,0.106,4.136-0.849
				l46.368-36.534l15.821,21.771c1.526,2.103,4.473,2.57,6.578,1.04c1.149-0.835,1.789-2.094,1.902-3.406l7.316,10.744
				c-0.832-0.268-1.745-0.314-2.653-0.071l-122.884,32.889c-2.512,0.673-4.003,3.255-3.332,5.767
				c0.452,1.687,1.762,2.912,3.334,3.334c0.771,0.206,1.605,0.219,2.432-0.002l122.884-32.889c2.512-0.674,4.004-3.255,3.332-5.767
				c-0.068-0.253-0.168-0.487-0.272-0.718c0.119,0.043,0.235,0.097,0.356,0.13c1.278,0.342,2.692,0.147,3.872-0.656
				c2.15-1.463,2.705-4.394,1.241-6.543L350.5,325.814z M227.243,172.351l48.791,8.747c-0.342,0.166-0.672,0.361-0.976,0.616
				l-0.478,0.401L227.243,172.351z M221.147,284.019c-2.516-0.66-5.091,0.844-5.75,3.359c-0.451,1.72,0.125,3.452,1.329,4.597
				l-33.524-8.982c0.334-0.163,0.66-0.35,0.958-0.6l98.857-82.773l5.336,14.423c0.904,2.438,3.611,3.685,6.051,2.783
				c2.049-0.759,3.236-2.792,3.036-4.868l12.499,34.393c-1.248-1.283-3.168-1.804-4.963-1.16c-2.447,0.878-3.721,3.574-2.844,6.021
				l21.396,59.679L221.147,284.019z"/>
		</g>
	</g>
	<g id="&#x417;&#x430;&#x43B;&#x438;&#x432;&#x43A;&#x430;_&#x446;&#x432;&#x435;&#x442;&#x43E;&#x43C;_190">
		<g>
			<path style="fill-rule:evenodd;clip-rule:evenodd;fill:#331450;" d="M418.002,226.992c-0.115-0.393-0.287-0.758-0.493-1.1
				c-0.038-0.068-0.099-0.123-0.141-0.189c-0.153-0.227-0.308-0.453-0.497-0.649c-0.044-0.049-0.071-0.107-0.117-0.154
				L307.467,115.334c-0.045-0.045-0.104-0.071-0.15-0.114c-0.209-0.194-0.436-0.368-0.682-0.523
				c-0.084-0.053-0.164-0.111-0.252-0.158c-0.322-0.177-0.662-0.328-1.032-0.428c-0.37-0.099-0.741-0.138-1.108-0.146
				c-0.1-0.002-0.197,0.008-0.297,0.012c-0.291,0.012-0.574,0.049-0.853,0.112c-0.062,0.014-0.124,0.008-0.187,0.024
				l-149.427,40.243c-1.624,0.437-2.891,1.706-3.325,3.33l-39.688,148.497c-0.016,0.06-0.01,0.12-0.023,0.18
				c-0.064,0.283-0.102,0.57-0.112,0.862c-0.003,0.087-0.016,0.173-0.014,0.259c0.006,0.365,0.051,0.73,0.145,1.094
				c0.017,0.065,0.049,0.126,0.068,0.191c0.067,0.219,0.132,0.438,0.233,0.651c0.031,0.065,0.077,0.119,0.11,0.183
				c0.056,0.104,0.12,0.203,0.185,0.304c0.15,0.237,0.316,0.455,0.5,0.656c0.045,0.051,0.074,0.111,0.122,0.16l109.184,109.575
				c0.032,0.032,0.073,0.051,0.106,0.082c0.133,0.126,0.283,0.226,0.43,0.33c0.131,0.099,0.252,0.204,0.392,0.287
				c0.04,0.028,0.078,0.061,0.121,0.084c0.33,0.184,0.679,0.331,1.044,0.432c0.001,0,0.002,0.001,0.003,0.001
				c0.006,0.002,0.011,0.006,0.017,0.008h0.002c0,0,0.001,0.001,0.001,0.001h0.001c0,0,0.001,0,0.001,0.001
				c0.017,0.004,0.034,0.002,0.051,0.006c0.37,0.095,0.749,0.139,1.131,0.142c0.033,0.001,0.065,0.003,0.099,0.003
				c0.077-0.001,0.154-0.025,0.231-0.03c0.269-0.018,0.534-0.043,0.798-0.105c0.015-0.004,0.029-0.002,0.043-0.006
				c0.029-0.008,0.06-0.004,0.089-0.012l149.344-40.304c0.064-0.018,0.119-0.056,0.183-0.076c0.262-0.083,0.516-0.188,0.766-0.319
				c0.104-0.055,0.207-0.106,0.306-0.168c0.061-0.037,0.125-0.061,0.185-0.101c0.201-0.139,0.374-0.301,0.547-0.463
				c0.044-0.042,0.097-0.074,0.14-0.118c0.264-0.267,0.484-0.562,0.673-0.875c0.046-0.076,0.079-0.157,0.121-0.236
				c0.135-0.258,0.246-0.522,0.332-0.798c0.018-0.06,0.054-0.11,0.07-0.17l39.64-147.562
				C418.219,229.297,418.33,228.112,418.002,226.992z M306.566,127.768l89.021,89.25l-103.189-36.373L306.566,127.768z
				 M297.469,125.33l-14.168,52.877l-107.579-20.089L297.469,125.33z M330.661,318.256l-149.136-39.961l103.072-86.718
				L330.661,318.256z M276.076,186.439l-100.998,84.972l-14.739-106.584L276.076,186.439z M153.273,182.49l13.172,95.244
				l-44.25,21.036L153.273,182.49z M123.052,308.791l45.965-21.851l42.754,110.889L123.052,308.791z M179.307,287.451
				l148.696,39.843L226.27,409.257L179.307,287.451z M244.59,406.593l92.582-74.591l28.727,41.853L244.59,406.593z M371.644,365.583
				l-27.636-40.265l58.741-75.528L371.644,365.583z M339.69,315.528l-45.14-124.139l111.202,39.196L339.69,315.528z"/>
		</g>
	</g>
	<g id="&#x424;&#x438;&#x433;&#x443;&#x440;&#x430;_330" style="opacity:0.349;">
		<g>
			<path style="fill-rule:evenodd;clip-rule:evenodd;fill:#AA99FE;" d="M387.221,51.897h-17.51l-13.892,0.32l-180.098,105.9
				l107.579,20.089L387.221,51.897z M417.359,55L181.525,278.295l149.136,39.961l128.702-214.381v-6.871L417.359,55z"/>
		</g>
	</g>
	<g id="_x32_0">
		<g>
			<path style="fill-rule:evenodd;clip-rule:evenodd;fill:#F1E6FF;" d="M195.68,221.228l-1.131-10.117
				c-1.251-7.65-9.143-10.327-14.958-4.213c-3.593,3.772-4.778,8.871-0.891,13.112c1.755-1.767,2.814-2.833,4.6-4.63
				c-1.277-1.388-0.898-2.799,0.304-4.009c2.645-2.661,4.27,0.724,4.465,3.129l2.429,19.851l0.765,0.863l15.653-15.762
				c-1.823-1.84-2.946-2.974-4.731-4.774L195.68,221.228z M219.874,192.971c-2.375-2.077-5.04-4.408-7.335-6.416
				c-4.398-3.847-10.354-2.498-14.639,1.814c-4.197,4.223-5.381,10.061-1.225,14.153c2.169,2.136,4.687,4.615,6.932,6.826
				c4.512,4.442,10.964,3.247,15.486-1.306C223.709,203.394,224.648,197.147,219.874,192.971z M214.18,203.482
				c-1.597,1.607-3.719,2.045-5.413,0.439c-2.198-2.083-4.706-4.459-6.86-6.501c-1.538-1.458-1.141-3.429,0.39-4.97
				c1.592-1.602,3.643-2.096,5.212-0.669c2.198,1.997,4.756,4.322,6.999,6.36C216.236,199.713,215.839,201.812,214.18,203.482z
				 M260.673,270.29l-10.702-2.867l9.957-8.141c7.57-6.85,5.786-18.302-4.625-20.815c-6.421-1.555-12.689,0.846-14.668,8.643
				c2.984,0.8,4.785,1.282,7.82,2.096c0.675-2.521,2.43-3.099,4.488-2.548c4.527,1.214,1.87,5.575-0.579,7.511l-18.839,16.183
				l-0.372,1.389l25.313,6.783C259.308,275.384,259.832,273.429,260.673,270.29z M341.109,237.234l9.072,3.968
				c7.053,2.666,13.146-2.68,10.824-10.552c-1.431-4.861-5.149-8.339-10.612-7.128c0.635,2.338,1.018,3.749,1.663,6.127
				c1.789-0.401,2.794,0.604,3.229,2.206c0.955,3.522-2.687,3.244-4.808,2.24l-17.903-7.608l-1.1,0.225l5.665,20.852
				c2.437-0.641,3.938-1.036,6.323-1.663L341.109,237.234z M367.709,255.085c-1.516-5.59-5.857-9.426-11.326-7.916
				c-2.854,0.789-6.168,1.704-9.122,2.52c-5.937,1.64-8.067,7.656-6.431,13.681c1.67,6.15,6.475,9.979,12.314,7.988
				c2.906-0.99,6.165-2.102,8.973-3.059C367.497,266.465,369.258,260.792,367.709,255.085z M360.16,261.52
				c-2.751,0.88-5.954,1.904-8.762,2.803c-2.163,0.691-3.738-0.663-4.339-2.874c-0.577-2.127,0.087-4.127,2.263-4.773
				c2.824-0.839,6.045-1.795,8.813-2.617c1.977-0.587,3.443,0.706,3.997,2.746C362.707,258.923,362.125,260.892,360.16,261.52z
				 M287.283,246.926c-7.307-1.958-14.642,0.929-16.751,8.801c-1.075,4.014-2.302,8.593-3.378,12.605
				c-2.109,7.872,2.801,14.04,10.106,15.998c7.46,1.999,14.745-0.902,16.854-8.773c1.074-4.014,2.302-8.593,3.377-12.605
				C299.602,255.079,294.744,248.925,287.283,246.926z M288.756,260.775c-1.048,3.91-2.247,8.387-3.281,12.245
				c-0.785,2.933-3.295,3.859-6.021,3.129c-2.625-0.703-4.283-2.747-3.497-5.68c1.034-3.858,2.233-8.335,3.281-12.245
				c0.759-2.829,3.216-3.771,5.84-3.067C287.805,255.889,289.514,257.945,288.756,260.775z M250.282,336.806l9.798,2.59
				l-8.998,6.628c-6.586,5.39-4.799,14.36,4.205,16.534c5.559,1.345,11.057-0.327,12.955-6.351
				c-2.643-0.699-4.238-1.121-6.927-1.832c-0.617,1.976-2.167,2.39-3.978,1.911c-3.982-1.054-1.655-4.457,0.523-5.963l17.539-13.205
				l0.4-1.201l-23.577-6.229C251.476,332.43,251.015,334.12,250.282,336.806z M234.694,324.375
				c-6.954-1.838-13.408,0.697-14.758,7.528c-0.671,3.399-1.424,7.212-2.073,10.496c-1.243,6.293,3.309,11.215,9.76,12.922
				c6.319,1.672,12.518-0.406,14.128-6.604c0.84-3.234,1.815-6.988,2.685-10.337C246.183,331.652,241.505,326.175,234.694,324.375z
				 M236.445,336.452c-0.774,3.233-1.657,6.922-2.415,10.091c-0.542,2.263-2.633,2.967-4.939,2.357
				c-2.396-0.634-3.992-2.313-3.497-4.589c0.693-3.186,1.499-6.894,2.206-10.145c0.544-2.505,2.757-3.28,5.257-2.619
				C235.46,332.184,237.041,333.961,236.445,336.452z"/>
		</g>
	</g>
	<g id="&#x424;&#x438;&#x433;&#x443;&#x440;&#x430;_329">
		<g>
			<path style="fill-rule:evenodd;clip-rule:evenodd;fill:#FFFFFF;" d="M215.951,356.695c-4.378-7.991-4.763-22.423-4.786-23.549
				c0.021,1.123,0.197,15.471-4.28,23.644c-3.372,6.153-12.215,6.383-12.215,6.383s8.491,0.541,11.564,6.151
				c4.783,8.729,4.929,23.954,4.929,23.954s0.778-15.577,5.312-23.852c3.357-6.128,10.147-6.266,11.07-6.256
				C226.579,363.147,219.278,362.767,215.951,356.695z M200.371,268.185c4.783,8.729,4.929,23.953,4.929,23.953
				s0.778-15.576,5.312-23.852c3.356-6.127,10.146-6.265,11.07-6.255c-0.967-0.023-8.268-0.404-11.594-6.477
				c-4.378-7.99-4.763-22.423-4.786-23.549c0.021,1.123,0.197,15.47-4.28,23.645c-3.371,6.153-12.215,6.383-12.215,6.383
				S197.297,262.573,200.371,268.185z M100.153,157.347c-4.378-7.991-4.763-22.423-4.787-23.549
				c0.021,1.123,0.198,15.47-4.28,23.644c-3.371,6.153-12.214,6.383-12.214,6.383s8.49,0.541,11.564,6.151
				c4.783,8.729,4.929,23.954,4.929,23.954s0.778-15.577,5.312-23.852c3.357-6.127,10.146-6.266,11.07-6.256
				C110.781,163.799,103.479,163.418,100.153,157.347z M251.13,125.1c-4.378-7.991-4.762-22.424-4.786-23.55
				c0.021,1.123,0.197,15.47-4.281,23.645c-3.371,6.153-12.214,6.383-12.214,6.383s8.491,0.54,11.564,6.151
				c4.783,8.729,4.929,23.953,4.929,23.953s0.778-15.576,5.312-23.852c3.357-6.127,10.146-6.266,11.07-6.255
				C261.758,131.551,254.457,131.171,251.13,125.1z M440.086,376.363c0.069,0.002,0.112,0.002,0.112,0.002
				S440.154,376.364,440.086,376.363z M428.492,369.888c-4.378-7.991-4.763-22.423-4.786-23.549
				c0.021,1.123,0.197,15.471-4.28,23.644c-3.372,6.153-12.215,6.383-12.215,6.383s8.49,0.541,11.564,6.151
				c4.782,8.729,4.929,23.954,4.929,23.954s0.778-15.577,5.312-23.853c3.357-6.127,10.146-6.265,11.07-6.255
				C439.119,376.34,431.818,375.959,428.492,369.888z M366.929,173.471c-4.378-7.991-4.763-22.423-4.786-23.549
				c0.021,1.123,0.197,15.47-4.281,23.644c-3.371,6.153-12.214,6.383-12.214,6.383s8.49,0.541,11.564,6.151
				c4.782,8.729,4.929,23.954,4.929,23.954s0.778-15.577,5.312-23.853c3.357-6.127,10.146-6.265,11.07-6.255
				C377.556,179.923,370.255,179.542,366.929,173.471z M359.6,306.858c-4.378-7.991-4.763-22.423-4.786-23.549
				c0.021,1.123,0.197,15.471-4.28,23.644c-3.371,6.153-12.215,6.383-12.215,6.383s8.49,0.541,11.564,6.151
				c4.782,8.729,4.929,23.954,4.929,23.954s0.778-15.577,5.312-23.853c3.357-6.127,10.147-6.265,11.07-6.255
				C370.227,313.311,362.926,312.93,359.6,306.858z"/>
		</g>
	</g>
</g>
</svg>
