<?xml version="1.0" encoding="iso-8859-1"?>
<!-- Generator: Adobe Illustrator 15.0.0, SVG Export Plug-In . SVG Version: 6.00 Build 0)  -->
<!DOCTYPE svg PUBLIC "-//W3C//DTD SVG 1.1//EN" "http://www.w3.org/Graphics/SVG/1.1/DTD/svg11.dtd" [
	<!ENTITY ns_extend "http://ns.adobe.com/Extensibility/1.0/">
	<!ENTITY ns_ai "http://ns.adobe.com/AdobeIllustrator/10.0/">
	<!ENTITY ns_graphs "http://ns.adobe.com/Graphs/1.0/">
	<!ENTITY ns_vars "http://ns.adobe.com/Variables/1.0/">
	<!ENTITY ns_imrep "http://ns.adobe.com/ImageReplacement/1.0/">
	<!ENTITY ns_sfw "http://ns.adobe.com/SaveForWeb/1.0/">
	<!ENTITY ns_custom "http://ns.adobe.com/GenericCustomNamespace/1.0/">
	<!ENTITY ns_adobe_xpath "http://ns.adobe.com/XPath/1.0/">
]>
<svg version="1.1" xmlns:x="&ns_extend;" xmlns:i="&ns_ai;" xmlns:graph="&ns_graphs;"
	 xmlns="http://www.w3.org/2000/svg" xmlns:xlink="http://www.w3.org/1999/xlink" x="0px" y="0px" width="512px" height="512px"
	 viewBox="0 0 512 512" style="enable-background:new 0 0 512 512;" xml:space="preserve">
<metadata>
	<sfw  xmlns="&ns_sfw;">
		<slices></slices>
		<sliceSourceBounds  height="512" width="512" x="94" y="94" bottomLeftOrigin="true"></sliceSourceBounds>
	</sfw>
</metadata>
<g id="&#x418;&#x437;&#x43E;&#x431;&#x440;&#x430;&#x436;&#x435;&#x43D;&#x438;&#x435;_xA0_17_1_">
	<g id="&#x417;&#x430;&#x43B;&#x438;&#x432;&#x43A;&#x430;_&#x446;&#x432;&#x435;&#x442;&#x43E;&#x43C;_1">
		<g>
			<rect x="3.699" y="4.439" style="fill-rule:evenodd;clip-rule:evenodd;fill:#B17D7B;" width="503.121" height="503.121"/>
		</g>
	</g>
	<g id="&#x417;&#x430;&#x43B;&#x438;&#x432;&#x43A;&#x430;_&#x446;&#x432;&#x435;&#x442;&#x43E;&#x43C;_5">
		<g>
			<path style="fill-rule:evenodd;clip-rule:evenodd;fill:#F3D4C3;" d="M484.624,25.156l20.717-20.717H3.699l20.717,20.717H484.624z
				 M24.416,486.844L3.699,507.561h501.642l-20.717-20.717H24.416z"/>
		</g>
	</g>
	
		<g id="&#x417;&#x430;&#x43B;&#x438;&#x432;&#x43A;&#x430;_&#x446;&#x432;&#x435;&#x442;&#x43E;&#x43C;_1_&#x43A;&#x43E;&#x43F;&#x438;&#x44F;_2">
		<g>
			<radialGradient id="SVGID_1_" cx="256.7402" cy="256" r="228.0762" gradientUnits="userSpaceOnUse">
				<stop  offset="0" style="stop-color:#7D7193"/>
				<stop  offset="0.2" style="stop-color:#7C7193"/>
				<stop  offset="0.4" style="stop-color:#6C6382"/>
				<stop  offset="0.5939" style="stop-color:#554E6B"/>
				<stop  offset="0.7515" style="stop-color:#3E3A53"/>
				<stop  offset="0.897" style="stop-color:#29273A"/>
				<stop  offset="1" style="stop-color:#232132"/>
			</radialGradient>
			<polygon style="fill-rule:evenodd;clip-rule:evenodd;fill:url(#SVGID_1_);" points="432.765,27.924 78.856,27.924 28.664,78.116 
				28.664,435.769 76.972,484.076 433.367,484.076 484.816,432.627 484.816,79.976 			"/>
		</g>
	</g>
	
		<g id="&#x417;&#x430;&#x43B;&#x438;&#x432;&#x43A;&#x430;_&#x446;&#x432;&#x435;&#x442;&#x43E;&#x43C;_1_&#x43A;&#x43E;&#x43F;&#x438;&#x44F;">
		<g>
			<path style="fill-rule:evenodd;clip-rule:evenodd;fill:#F2D2C0;" d="M25.109,24.37v463.26h463.26V24.37H25.109z M466.659,418.566
				l-47.353,47.353H91.283l-44.462-44.462V92.277l46.196-46.196h325.734l47.908,47.907V418.566z"/>
		</g>
	</g>
	<g id="&#x424;&#x438;&#x433;&#x443;&#x440;&#x430;_3">
		<g>
			<path style="fill-rule:evenodd;clip-rule:evenodd;fill:#A18180;" d="M429.873,25.156l-344.047-1.48l-62.15,62.891v342.566
				l59.931,59.19l344.046-0.739l59.931-59.191V84.347L429.873,25.156z M477.226,423.954l-56.231,54.751H91.006l-56.231-54.751
				V88.046l54.012-54.012h334.428l54.751,56.231L477.226,423.954z"/>
		</g>
	</g>
	<g id="&#x417;&#x430;&#x43B;&#x438;&#x432;&#x43A;&#x430;_&#x446;&#x432;&#x435;&#x442;&#x43E;&#x43C;_6">
		<g>
			<path style="fill-rule:evenodd;clip-rule:evenodd;fill:#C7907F;" d="M23.676,86.566l62.52-62.752l-62.52-0.139V86.566z
				 M487.584,23.63l-62.521,0.139l62.521,62.752V23.63z M22.196,488.37l62.521-0.139l-62.521-62.752V488.37z M425.803,488.971
				l62.521,0.139v-62.89L425.803,488.971z"/>
		</g>
	</g>
	
		<g id="&#x417;&#x430;&#x43B;&#x438;&#x432;&#x43A;&#x430;_&#x446;&#x432;&#x435;&#x442;&#x43E;&#x43C;_6_&#x43A;&#x43E;&#x43F;&#x438;&#x44F;">
		<g>
			<path style="fill-rule:evenodd;clip-rule:evenodd;fill:#FDECE7;" d="M27.964,485.886l56.753,2.346L55.27,458.579L27.964,485.886z
				 M54.694,55.434l31.502-31.619l-59.314,3.562L54.694,55.434z M425.803,488.971l59.314-3.113l-28.158-28.158L425.803,488.971z
				 M485.117,26.582l-60.054-2.813l31.376,31.491L485.117,26.582z"/>
		</g>
	</g>
	<g id="&#x424;&#x438;&#x433;&#x443;&#x440;&#x430;_1">
		<g>
			<path style="fill-rule:evenodd;clip-rule:evenodd;fill:#C7907F;" d="M34.774,487.769l0.093-9.156h-8.417L34.774,487.769z
				 M477.04,477.873l0.093,9.155l8.323-9.155H477.04z M476.393,25.804l-0.092,9.156h8.416L476.393,25.804z M26.451,34.96h8.417
				l-0.093-9.156L26.451,34.96z"/>
		</g>
	</g>
	<g id="&#x424;&#x438;&#x433;&#x443;&#x440;&#x430;_2">
		<g>
			<path style="fill-rule:evenodd;clip-rule:evenodd;fill:#FDECE7;" d="M22.597,480.813L9.026,497.72l-1.627,10.285l22.418-0.296
				l0.532-18.644l-3.492-6.957L22.597,480.813z M508.448,495.817l-18.855-14.581l-4.261,4.043l-3.068,4.209l2.646,16.529
				l23.688,1.353L508.448,495.817z M21.002,31.648l4.26-1.295l3.492-6.956L28.222,4.754L5.803,4.458l1.628,10.284L21.002,31.648z
				 M487.997,31.226l18.856-14.581l0.147-11.553l-23.687,1.353l-2.646,16.53l3.069,4.208L487.997,31.226z"/>
		</g>
	</g>
	<g id="&#x417;&#x430;&#x43B;&#x438;&#x432;&#x43A;&#x430;_&#x446;&#x432;&#x435;&#x442;&#x43E;&#x43C;_2">
		<g>
			<path style="fill-rule:evenodd;clip-rule:evenodd;fill:#2F181B;" d="M0,0v512h512V0H0z M503.121,503.121H8.878V8.879h494.243
				V503.121z"/>
		</g>
	</g>
	<g id="&#x417;&#x430;&#x43B;&#x438;&#x432;&#x43A;&#x430;_&#x446;&#x432;&#x435;&#x442;&#x43E;&#x43C;_3">
		<g>
			<path style="fill-rule:evenodd;clip-rule:evenodd;fill:#40292E;" d="M482.33,20.67H29.346l-9.369,9.369v397.468
				c-0.119,0.585-0.119,1.188,0,1.771v53.925l9.606,9.605h453.025l9.507-9.507V30.455L482.33,20.67z M28.855,34.183l4.633-4.634
				h40.974L28.855,75.156V34.183z M33.726,483.931l-4.871-4.871v-39.857l44.728,44.729H33.726z M483.237,479.158l-4.772,4.772
				H437.63l45.607-45.607V479.158z M483.237,425.769l-58.162,58.162H86.139l-57.283-57.283V87.711l58.162-58.162h338.058
				l58.162,58.162V425.769z M483.237,75.156L437.63,29.549h40.558l5.05,5.05V75.156z"/>
		</g>
	</g>
	
		<g id="&#x417;&#x430;&#x43B;&#x438;&#x432;&#x43A;&#x430;_&#x446;&#x432;&#x435;&#x442;&#x43E;&#x43C;_4_&#x43A;&#x43E;&#x43F;&#x438;&#x44F;" style="opacity:0.502;">
		<g>
			<path style="fill-rule:evenodd;clip-rule:evenodd;fill:#876867;" d="M465.59,92.913l-47.243-47.244
				c-0.685-0.685-1.612-1.068-2.579-1.068H94.545c-0.968,0-1.896,0.384-2.58,1.068L46.409,91.227
				c-0.684,0.684-1.069,1.611-1.069,2.579v324.619c0,0.968,0.385,1.896,1.069,2.579l43.847,43.847
				c0.684,0.684,1.612,1.068,2.579,1.068h323.479c0.968,0,1.896-0.385,2.579-1.068l46.696-46.696
				c0.685-0.685,1.069-1.612,1.069-2.58V95.493C466.659,94.525,466.274,93.598,465.59,92.913z M459.363,414.063l-44.56,44.56H94.346
				l-41.709-41.709V95.316l43.419-43.419h318.201l45.106,45.106V414.063z"/>
		</g>
	</g>
	<g id="&#x417;&#x430;&#x43B;&#x438;&#x432;&#x43A;&#x430;_&#x446;&#x432;&#x435;&#x442;&#x43E;&#x43C;_4">
		<g>
			<path style="fill-rule:evenodd;clip-rule:evenodd;fill:#40292E;" d="M468.534,90.633l-47.907-47.907
				c-0.693-0.694-1.635-1.084-2.615-1.084H92.277c-0.981,0-1.922,0.39-2.616,1.084L43.465,88.922
				c-0.693,0.693-1.083,1.635-1.083,2.615v329.18c0,0.981,0.39,1.922,1.083,2.615l44.463,44.463
				c0.694,0.693,1.634,1.084,2.615,1.084h328.023c0.981,0,1.922-0.391,2.615-1.084l47.353-47.353
				c0.694-0.694,1.084-1.635,1.084-2.616V93.248C469.618,92.268,469.229,91.326,468.534,90.633z M462.22,416.295l-45.186,45.185
				H92.075L49.78,419.185V93.07l44.029-44.03h322.67l45.74,45.741V416.295z"/>
		</g>
	</g>
</g>
<g id="&#x418;&#x437;&#x43E;&#x431;&#x440;&#x430;&#x436;&#x435;&#x43D;&#x438;&#x435;_xA0_859_1_">
	<g id="&#x424;&#x438;&#x433;&#x443;&#x440;&#x430;_327_&#x43A;&#x43E;&#x43F;&#x438;&#x44F;" style="opacity:0.502;">
		<g>
			<path style="fill-rule:evenodd;clip-rule:evenodd;fill:#161521;" d="M403.459,274.621l-97.417-159.969
				c0,0-51.126-30.875-62.375-30.648c-1.454,0.029-4.945,5.243-10.825,12.676c-38.285,48.397-155.76,229.679-153.786,244.704
				c2.278,17.334,150.418,74.052,150.418,74.052l146.651-42.142c0,0,32.188-21.077,54.115-35.808
				c11.107-7.462,20.101-12.14,20.174-14.276C450.635,316.856,403.459,274.621,403.459,274.621z"/>
		</g>
	</g>
	<g id="&#x424;&#x438;&#x433;&#x443;&#x440;&#x430;_328_&#x43A;&#x43E;&#x43F;&#x438;&#x44F;_2" style="opacity:0.302;">
		<g>
			<path style="fill-rule:evenodd;clip-rule:evenodd;fill:#EE072D;" d="M376.126,373.294l-146.651,42.142
				c0,0,144.698,24.898,158.146,19.619s62.37-110.732,62.37-110.732L376.126,373.294z M110.086,118.855
				c-4.512,8.176-29.991,218.19-29.991,218.19s2.107-7.818,21.482-41.395c13.641-23.64,36.842-61.71,71.923-113.9
				c26.732-39.769,37.916-57.039,49.412-72.198c12.757-16.822,19.986-25.329,19.986-25.329S114.598,110.679,110.086,118.855z"/>
		</g>
	</g>
	<g id="&#x424;&#x438;&#x433;&#x443;&#x440;&#x430;_328_&#x43A;&#x43E;&#x43F;&#x438;&#x44F;_3" style="opacity:0.302;">
		<g>
			<path style="fill-rule:evenodd;clip-rule:evenodd;fill:#FF4B69;" d="M109.806,119.138c-3.005,5.446-15.262,99.806-23.112,162.208
				c8.297-35.322,33.136-138.733,41.334-146.511c7.578-7.188,81.572-36.824,114.59-50.329
				C225.19,88.221,113.955,111.619,109.806,119.138z M376.126,373.294l-146.651,42.142c0,0,1.611,0.278,1.706,0.295
				c23.879-1.768,130.186-10.976,147.048-19.264c13.943-6.854,49.649-45.366,69.282-67.17c0.872-1.807,2.479-4.975,2.479-4.975
				L376.126,373.294z"/>
		</g>
	</g>
	<g id="&#x424;&#x438;&#x433;&#x443;&#x440;&#x430;_331">
		<g>
			<path style="fill-rule:evenodd;clip-rule:evenodd;fill:#27060C;" d="M406.149,233.738l-11.461,1.045l1.673-11.722l8.54-4.465
				c0.575-0.3,0.972-0.856,1.07-1.496c0.098-0.642-0.113-1.291-0.571-1.75l-97.036-94.035l-6.219,8.15l-1.479-18.081
				c-0.182-2.248-3.348-2.582-3.986-0.412l-16.283,52.937l-111.453-19.164c0,0-1.045,2.018,0.824,4.672
				c1.869,2.655,6.605,5.941,6.605,5.941l-13.336-0.867l-2.693,29.15l-6.458-10.944c-0.488-0.829-2.454-3.521-4.068-1.259
				c-1.614,2.262,11.424,103.119,11.424,103.119l-27.676,17.807l-19.035,20.474l47.967-17.636c0,0,42.053,110.236,45.525,110.703
				c2.931,2.178,4.655,0.57,4.747-0.36l2.482-23.78l8.817,20.766c0.508,1.222,2.606,0.707,3.674-0.074l20.685-12.296l-11.299,16.471
				c-0.567,0.828,0.281,2.635,0.281,2.635l112.384-51.307l21.965,7.636c1.803,0.618,3.408-1.344,2.412-2.985l-26.706-43.939
				l60.611-81.699C409.16,235.509,407.938,233.49,406.149,233.738z"/>
		</g>
	</g>
	<g id="&#x424;&#x438;&#x433;&#x443;&#x440;&#x430;_325_&#x43A;&#x43E;&#x43F;&#x438;&#x44F;_8">
		<g>
			<polygon style="fill-rule:evenodd;clip-rule:evenodd;fill:#DD1321;" points="280.799,192.532 184.276,274.858 323.703,312.218 
							"/>
		</g>
	</g>
	<g id="&#x424;&#x438;&#x433;&#x443;&#x440;&#x430;_325_&#x43A;&#x43E;&#x43F;&#x438;&#x44F;_16">
		<g>
			<polygon style="fill-rule:evenodd;clip-rule:evenodd;fill:#FE244D;" points="280.799,192.532 277.247,195.563 299.104,289.815 
				189.042,270.794 184.276,274.858 323.703,312.218 			"/>
		</g>
	</g>
	<g id="&#x424;&#x438;&#x433;&#x443;&#x440;&#x430;_325_&#x43A;&#x43E;&#x43F;&#x438;&#x44F;_5">
		<g>
			<polygon style="fill-rule:evenodd;clip-rule:evenodd;fill:#830909;" points="149.703,171.988 116.766,298.355 163.649,274.706 
							"/>
		</g>
	</g>
	<g id="&#x424;&#x438;&#x433;&#x443;&#x440;&#x430;_325_&#x43A;&#x43E;&#x43F;&#x438;&#x44F;_15">
		<g>
			<polygon style="fill-rule:evenodd;clip-rule:evenodd;fill:#CA101B;" points="162.013,262.677 133.806,272.83 150.498,178.034 
				149.703,171.988 116.766,298.355 163.649,274.706 			"/>
		</g>
	</g>
	<g id="&#x424;&#x438;&#x433;&#x443;&#x440;&#x430;_325_&#x43A;&#x43E;&#x43F;&#x438;&#x44F;_7">
		<g>
			<polygon style="fill-rule:evenodd;clip-rule:evenodd;fill:#85030F;" points="344.093,316.207 374.375,363.071 408.463,236.021 
							"/>
		</g>
	</g>
	<g id="&#x424;&#x438;&#x433;&#x443;&#x440;&#x430;_325_&#x43A;&#x43E;&#x43F;&#x438;&#x44F;_14">
		<g>
			<polygon style="fill-rule:evenodd;clip-rule:evenodd;fill:#EB094C;" points="408.463,236.021 344.093,316.207 374.375,363.071 
				378.244,348.649 359.771,314.798 405.385,247.492 			"/>
		</g>
	</g>
	<g id="&#x424;&#x438;&#x433;&#x443;&#x440;&#x430;_325_&#x43A;&#x43E;&#x43F;&#x438;&#x44F;_3">
		<g>
			<polygon style="fill-rule:evenodd;clip-rule:evenodd;fill:#AF0427;" points="168.943,144.745 281.539,164.307 282.174,163.839 
				297.7,109.729 			"/>
		</g>
	</g>
	<g id="&#x424;&#x438;&#x433;&#x443;&#x440;&#x430;_325_&#x43A;&#x43E;&#x43F;&#x438;&#x44F;_13">
		<g>
			<polygon style="fill-rule:evenodd;clip-rule:evenodd;fill:#E10296;" points="168.943,144.745 171.938,145.265 277.838,128.633 
				268.889,162.031 281.539,164.307 282.174,163.839 297.7,109.729 			"/>
		</g>
	</g>
	<g id="&#x424;&#x438;&#x433;&#x443;&#x440;&#x430;_325_&#x43A;&#x43E;&#x43F;&#x438;&#x44F;_6">
		<g>
			<polygon style="fill-rule:evenodd;clip-rule:evenodd;fill:#360102;" points="308.364,121.315 296.243,174.841 296.56,175.563 
				405.4,215.351 			"/>
		</g>
	</g>
	<g id="&#x424;&#x438;&#x433;&#x443;&#x440;&#x430;_325_&#x43A;&#x43E;&#x43F;&#x438;&#x44F;_12">
		<g>
			<polygon style="fill-rule:evenodd;clip-rule:evenodd;fill:#A20719;" points="400.719,210.813 310.913,167.679 320.25,132.833 
				308.364,121.315 296.243,174.841 296.56,175.563 405.4,215.351 			"/>
		</g>
	</g>
	<g id="&#x424;&#x438;&#x433;&#x443;&#x440;&#x430;_325_&#x43A;&#x43E;&#x43F;&#x438;&#x44F;_4">
		<g>
			<polygon style="fill-rule:evenodd;clip-rule:evenodd;fill:#BA0922;" points="320.509,325.595 181.558,288.362 225.5,401.063 
				227.569,401.725 320.984,325.722 			"/>
		</g>
	</g>
	<g id="&#x424;&#x438;&#x433;&#x443;&#x440;&#x430;_325_&#x43A;&#x43E;&#x43F;&#x438;&#x44F;_11">
		<g>
			<polygon style="fill-rule:evenodd;clip-rule:evenodd;fill:#D61021;" points="320.509,325.595 181.558,288.362 186.486,300.903 
				294.387,329.815 223.596,396.179 225.5,401.063 227.569,401.725 320.984,325.722 			"/>
		</g>
	</g>
	<g id="&#x417;&#x430;&#x43B;&#x438;&#x432;&#x43A;&#x430;_&#x446;&#x432;&#x435;&#x442;&#x43E;&#x43C;_192">
		<g>
			<polygon style="fill-rule:evenodd;clip-rule:evenodd;fill:#360102;" points="163.887,289.722 114.529,312.838 206.954,404.611 
							"/>
		</g>
	</g>
	
		<g id="&#x417;&#x430;&#x43B;&#x438;&#x432;&#x43A;&#x430;_&#x446;&#x432;&#x435;&#x442;&#x43E;&#x43C;_192_&#x43A;&#x43E;&#x43F;&#x438;&#x44F;">
		<g>
			<polygon style="fill-rule:evenodd;clip-rule:evenodd;fill:#670304;" points="163.887,289.722 114.529,312.838 124.663,322.9 
				155.329,308.34 199.269,396.981 206.954,404.611 			"/>
		</g>
	</g>
	<g id="&#x417;&#x430;&#x43B;&#x438;&#x432;&#x43A;&#x430;_&#x446;&#x432;&#x435;&#x442;&#x43E;&#x43C;_191">
		<g>
			<polygon style="fill-rule:evenodd;clip-rule:evenodd;fill:#AC0427;" points="334.578,331.159 237.409,409.266 363.594,375.146 
							"/>
		</g>
	</g>
	
		<g id="&#x417;&#x430;&#x43B;&#x438;&#x432;&#x43A;&#x430;_&#x446;&#x432;&#x435;&#x442;&#x43E;&#x43C;_191_&#x43A;&#x43E;&#x43F;&#x438;&#x44F;">
		<g>
			<polygon style="fill-rule:evenodd;clip-rule:evenodd;fill:#D80382;" points="334.578,331.159 237.409,409.266 245.239,407.148 
				330.684,349.497 351.728,378.354 363.594,375.146 			"/>
		</g>
	</g>
	<g id="&#x424;&#x438;&#x433;&#x443;&#x440;&#x430;_325_&#x43A;&#x43E;&#x43F;&#x438;&#x44F;">
		<g>
			<polygon style="fill-rule:evenodd;clip-rule:evenodd;fill:#BA0922;" points="293.842,186.438 335.938,305.333 398.963,224.296 
							"/>
		</g>
	</g>
	<g id="&#x424;&#x438;&#x433;&#x443;&#x440;&#x430;_325_&#x43A;&#x43E;&#x43F;&#x438;&#x44F;_9">
		<g>
			<polygon style="fill-rule:evenodd;clip-rule:evenodd;fill:#D91121;" points="385.54,219.461 340.639,274.461 311.174,192.68 
				293.842,186.438 335.938,305.333 398.963,224.296 			"/>
		</g>
	</g>
	<g id="&#x424;&#x438;&#x433;&#x443;&#x440;&#x430;_325_&#x43A;&#x43E;&#x43F;&#x438;&#x44F;_2">
		<g>
			<polygon style="fill-rule:evenodd;clip-rule:evenodd;fill:#85030F;" points="163.036,154.491 178.839,257.099 274.742,175.181 
							"/>
		</g>
	</g>
	<g id="&#x424;&#x438;&#x433;&#x443;&#x440;&#x430;_325_&#x43A;&#x43E;&#x43F;&#x438;&#x44F;_10">
		<g>
			<polygon style="fill-rule:evenodd;clip-rule:evenodd;fill:#F60956;" points="252.499,171.181 188.683,226.074 179.372,157.517 
				163.036,154.491 178.839,257.099 274.742,175.181 			"/>
		</g>
	</g>
	<g id="&#x417;&#x430;&#x43B;&#x438;&#x432;&#x43A;&#x430;_&#x446;&#x432;&#x435;&#x442;&#x43E;&#x43C;_199">
		<g>
			<path style="fill-rule:evenodd;clip-rule:evenodd;fill:#F87792;" d="M310.188,301.651l-82.442-22.09
				c-2.267-0.61-4.6,0.737-5.206,3.006c-0.607,2.268,0.738,4.598,3.006,5.206l90.284,24.191c0.364,0.098,0.733,0.145,1.101,0.145
				c1.172,0,2.311-0.485,3.127-1.371c1.07-1.164,1.407-2.826,0.875-4.314l-21.301-59.406c-0.793-2.211-3.225-3.361-5.438-2.566
				c-2.21,0.792-3.358,3.227-2.566,5.437L310.188,301.651z M279.075,216.637c0.733,2.23,3.138,3.443,5.365,2.713
				c2.23-0.732,3.445-3.135,2.714-5.365l-4.979-15.157c-0.439-1.341-1.516-2.376-2.873-2.763c-1.353-0.384-2.816-0.074-3.898,0.833
				l-91.232,76.574c-6.715,5.633,6.883,5.567,6.883,5.567l85.003-71.591L279.075,216.637z M183.072,168.066l71.304,13.749
				l-44.687,37.125c-1.806,1.5-2.053,4.181-0.553,5.986c0.841,1.012,2.052,1.534,3.272,1.534c0.958,0,1.919-0.321,2.714-0.98
				l51.294-42.615c1.807-1.5,2.055-4.181,0.554-5.986c-0.753-0.905-1.802-1.419-2.888-1.517c-0.455-0.302-0.975-0.521-1.543-0.632
				l-77.856-15.013c-2.313-0.444-4.535,1.064-4.979,3.37C179.258,165.393,180.767,167.621,183.072,168.066z M385.779,210.438
				c0.831,0.829,1.917,1.243,3.005,1.243c1.089,0,2.177-0.416,3.007-1.246c1.659-1.661,1.658-4.353-0.003-6.013l-79.269-79.192
				c-1.662-1.659-4.353-1.658-6.012,0.003c-1.659,1.66-1.658,4.353,0.003,6.012L385.779,210.438z M297.205,178.396l37.035,12.582
				c0.453,0.154,0.914,0.228,1.367,0.228c1.771,0,3.424-1.115,4.025-2.886c0.754-2.223-0.435-4.637-2.658-5.392l-33.267-11.302
				l6.146-22.943c0.607-2.268-0.737-4.599-3.006-5.206c-2.262-0.604-4.6,0.738-5.205,3.006l-7.177,26.788
				C293.887,175.434,295.084,177.675,297.205,178.396z M325.93,207.699c0.484,0.914,1.291,1.661,2.346,2.028l59.322,20.681
				c0.463,0.161,0.936,0.238,1.399,0.238c1.758,0,3.402-1.1,4.015-2.853c0.771-2.218-0.398-4.642-2.615-5.414l-59.324-20.681
				c-0.308-0.107-0.619-0.169-0.932-0.203c-0.485-0.918-1.297-1.667-2.355-2.033l-27.247-9.428
				c-1.548-0.536-3.265-0.138-4.415,1.028c-1.149,1.165-1.529,2.886-0.977,4.426l38.674,107.662
				c0.623,1.733,2.258,2.814,4.001,2.814c0.478,0,0.964-0.082,1.438-0.252c2.208-0.793,3.356-3.229,2.563-5.438l-35.672-99.302
				l18.854,6.523C325.311,207.604,325.619,207.664,325.93,207.699z M181.363,254.009c0.997,0,1.999-0.349,2.805-1.058l23.645-20.78
				c1.763-1.55,1.938-4.236,0.386-6c-1.548-1.764-4.236-1.936-5.999-0.387l-23.645,20.78c-1.763,1.551-1.937,4.236-0.388,6
				C179.009,253.521,180.183,254.009,181.363,254.009z M209.763,151.853l64.739,11.605c0.551,0.731,1.326,1.301,2.279,1.557
				c0.368,0.099,0.738,0.146,1.103,0.146c1.876,0,3.595-1.253,4.103-3.152l7.842-29.268c0.608-2.268-0.736-4.599-3.005-5.207
				c-2.265-0.603-4.6,0.738-5.206,3.007l-6.533,24.385l-63.821-11.441c-2.307-0.41-4.52,1.124-4.935,3.435
				C205.914,149.229,207.452,151.438,209.763,151.853z M352.842,317.507l24.832-31.863c1.443-1.852,1.112-4.522-0.74-5.966
				c-1.852-1.441-4.522-1.114-5.966,0.74l-26.737,34.308c-1.135,1.455-1.2,3.479-0.161,5.005l24.801,36.42
				c0.821,1.208,2.157,1.858,3.518,1.858c0.823,0,1.656-0.238,2.388-0.737c1.94-1.322,2.442-3.966,1.121-5.906L352.842,317.507z
				 M154.822,273.324c0.294,2.127,2.116,3.668,4.205,3.668c0.194,0,0.392-0.013,0.588-0.041c2.326-0.322,3.951-2.469,3.628-4.794
				l-11.776-85.034c-0.322-2.325-2.477-3.945-4.793-3.627c-2.326,0.322-3.951,2.469-3.628,4.794L154.822,273.324z M335.007,336.592
				c-0.679-0.936-1.71-1.553-2.856-1.712c-1.141-0.153-2.305,0.158-3.213,0.872l-43.809,34.518c-1.844,1.453-2.161,4.126-0.708,5.97
				c0.839,1.065,2.084,1.62,3.342,1.62c0.922,0,1.849-0.298,2.628-0.912l40.338-31.781l13.716,18.872
				c1.38,1.897,4.038,2.317,5.938,0.939c1.9-1.38,2.319-4.039,0.94-5.938L335.007,336.592z M393.049,271.575
				c-2.266-0.605-4.6,0.738-5.206,3.006l-16.084,60.025c-0.607,2.268,0.738,4.598,3.006,5.205c0.368,0.1,0.739,0.147,1.103,0.147
				c1.877,0,3.596-1.253,4.104-3.152l16.084-60.025C396.662,274.514,395.316,272.184,393.049,271.575z M341.381,373.459
				l-87.1,23.449c-2.267,0.61-3.609,2.942-2.999,5.211c0.511,1.896,2.227,3.146,4.102,3.146c0.365,0,0.738-0.049,1.109-0.148
				l87.1-23.449c2.267-0.61,3.609-2.942,2.999-5.21C345.982,374.19,343.657,372.852,341.381,373.459z M125.024,312.427
				c-1.655-1.669-4.348-1.675-6.011-0.02c-1.666,1.655-1.674,4.347-0.019,6.011l77.054,77.537c0.83,0.837,1.923,1.255,3.015,1.255
				c1.083,0,2.167-0.412,2.996-1.235c1.666-1.655,1.674-4.347,0.019-6.012L125.024,312.427z M193.75,301.412l119.739,32.084
				c0.369,0.1,0.74,0.146,1.104,0.146c1.877,0,3.596-1.252,4.104-3.152c0.607-2.268-0.738-4.598-3.006-5.205l-125.737-33.691
				l-0.297-0.767c-0.847-2.189-3.306-3.281-5.498-2.432c-2.047,0.792-3.11,2.995-2.55,5.067c-0.031,0.092-0.076,0.174-0.102,0.269
				c-0.511,1.906,0.368,3.843,2.005,4.777l39.044,100.964c0.652,1.686,2.26,2.72,3.966,2.72c0.509,0,1.028-0.093,1.532-0.288
				c2.189-0.847,3.278-3.309,2.431-5.498L193.75,301.412z"/>
		</g>
	</g>
	<g id="&#x417;&#x430;&#x43B;&#x438;&#x432;&#x43A;&#x430;_&#x446;&#x432;&#x435;&#x442;&#x43E;&#x43C;_197">
		<g>
			<path style="fill-rule:evenodd;clip-rule:evenodd;fill:#55051A;" d="M334.693,310.021c0.218,0.034,0.436,0.052,0.651,0.052
				c1.247,0,2.44-0.572,3.22-1.574l63.024-81.038c0.802-1.031,1.061-2.384,0.698-3.639c-0.363-1.254-1.307-2.259-2.535-2.701
				L294.63,183.262c-1.485-0.534-3.141-0.166-4.257,0.946c-1.117,1.111-1.494,2.767-0.969,4.252l42.097,118.895
				C331.998,308.761,333.223,309.781,334.693,310.021z M391.701,226.89l-55,70.718l-36.736-103.755L391.701,226.89z
				 M281.255,189.254c-1.293-0.345-2.675-0.031-3.695,0.837l-96.523,82.326c-1.152,0.982-1.665,2.524-1.33,4.001
				c0.333,1.478,1.459,2.648,2.922,3.041l139.428,37.357c0.349,0.095,0.703,0.14,1.055,0.14c1.125,0,2.217-0.466,3-1.315
				c1.027-1.116,1.35-2.711,0.839-4.139l-42.905-119.684C283.593,190.557,282.551,189.598,281.255,189.254z M192.232,273.588
				l86.127-73.46l38.286,106.795L192.232,273.588z M291.916,177.138l0.315,0.722c0.448,1.026,1.3,1.822,2.354,2.202l105.122,37.857
				c0.453,0.163,0.92,0.242,1.38,0.242c0.025,0,0.051-0.001,0.074-0.001c2.231-0.025,4.032-1.841,4.032-4.078
				c0-1.267-0.578-2.398-1.484-3.146l-90.986-91.252c-1.029-1.032-2.529-1.438-3.939-1.061c-1.408,0.376-2.509,1.476-2.886,2.885
				l-14.185,52.939C291.473,175.341,291.544,176.29,291.916,177.138z M311.943,130.452l73.418,73.632l-84.95-30.593L311.943,130.452
				z M337.389,329.574c-0.63-0.955-1.633-1.602-2.764-1.781c-1.137-0.178-2.285,0.125-3.18,0.838l-95.326,75.953
				c-1.505,1.198-1.967,3.286-1.11,5.008c0.703,1.408,2.132,2.26,3.649,2.26c0.337,0,0.678-0.041,1.017-0.129l124.34-31.967
				c1.276-0.328,2.315-1.254,2.789-2.482c0.475-1.229,0.325-2.613-0.4-3.713L337.389,329.574z M256.124,399.073l76.914-61.283
				l23.412,35.49L256.124,399.073z M408.106,232.117c-1.737-0.866-3.852-0.386-5.043,1.153l-62.787,81.101
				c-1.064,1.377-1.14,3.276-0.187,4.732l28.776,43.922c0.763,1.162,2.052,1.843,3.41,1.843c0.213,0,0.427-0.016,0.641-0.051
				c1.585-0.251,2.875-1.408,3.296-2.957l34.01-125.022C410.733,234.961,409.847,232.984,408.106,232.117z M370.723,350.976
				l-22.217-33.909l48.473-62.613L370.723,350.976z M170.258,149.206l109.966,19.775c0.24,0.043,0.482,0.064,0.723,0.064
				c0.863,0,1.713-0.275,2.42-0.796l0.635-0.468c0.744-0.549,1.279-1.334,1.518-2.227l14.186-52.939
				c0.378-1.408-0.025-2.911-1.057-3.941c-1.033-1.03-2.539-1.432-3.942-1.051l-124.787,33.632c-1.844,0.496-3.095,2.204-3.013,4.11
				C166.987,147.273,168.38,148.868,170.258,149.206z M289.996,117.34l-11.531,43.039L189.6,144.397L289.996,117.34z
				 M324.385,325.55c-0.314-1.507-1.451-2.708-2.938-3.106l-139.665-37.421c-2.173-0.586-4.41,0.707-4.994,2.883
				c-0.354,1.319-0.019,2.661,0.787,3.643l43.423,110.504c-0.025,0.368-0.001,0.743,0.077,1.115
				c0.313,1.508,1.448,2.709,2.935,3.107l0.476,0.128c0.35,0.094,0.705,0.139,1.057,0.139c1.144,0,2.256-0.482,3.041-1.36
				c0.253-0.284,0.462-0.597,0.624-0.929l93.726-74.679C324.138,328.613,324.699,327.058,324.385,325.55z M227.167,395.449
				l-39.451-100.395l123.815,33.177L227.167,395.449z M167.089,288.892c-0.418-1.064-1.266-1.906-2.335-2.315
				c-1.068-0.41-2.262-0.352-3.285,0.161l-47.122,23.586c-1.178,0.589-1.999,1.712-2.203,3.014
				c-0.204,1.303,0.233,2.622,1.175,3.545l91.699,89.854c0.785,0.77,1.816,1.165,2.855,1.165c0.779,0,1.563-0.223,2.25-0.678
				c1.605-1.063,2.247-3.102,1.543-4.892L167.089,288.892z M123.109,315.058l38.022-19.031l35.968,91.531L123.109,315.058z
				 M174.207,258.319c0.205,1.476,1.197,2.723,2.591,3.252c0.47,0.18,0.959,0.267,1.448,0.267c0.956,0,1.898-0.336,2.648-0.977
				l95.904-81.918c1.199-1.023,1.7-2.646,1.287-4.167c-0.411-1.521-1.662-2.669-3.213-2.947l-109.967-19.775
				c-1.285-0.231-2.604,0.167-3.547,1.071c-0.942,0.906-1.394,2.207-1.214,3.501L174.207,258.319z M264.957,178.333l-83.692,71.485
				l-12.272-88.743L264.957,178.333z M113.606,302.186c0.741,0.601,1.651,0.909,2.567,0.909c0.626,0,1.254-0.144,1.836-0.437
				l46.885-23.65c1.553-0.783,2.438-2.467,2.204-4.19l-13.825-101.629c-0.263-1.928-1.849-3.401-3.79-3.521
				c-1.922-0.108-3.697,1.147-4.193,3.029l-33.06,125.279C111.82,299.528,112.359,301.176,113.606,302.186z M147.951,194.574
				l10.674,78.461l-36.196,18.259L147.951,194.574z"/>
		</g>
	</g>
	<g id="&#x424;&#x438;&#x433;&#x443;&#x440;&#x430;_332">
		<g>
			<path style="fill-rule:evenodd;clip-rule:evenodd;fill:#EA1231;" d="M335.977,399.463c5.121-4.481-9.969,0.936-10.724-9.234
				c-0.818-11.027-4.544-28.259-5.026-41.272c-0.551-14.838,2.2-24.816,2.2-24.816l-11.867-3.809c0,0,6.5,16.119,6.167,32.487
				c-0.514,25.165,5.391,41.95-11.215,43.943C288.906,398.754,318.973,414.341,335.977,399.463z M399.521,373.514
				c-3.055-18.466-0.841-151.398-0.841-151.398l-18.421-6.376c0,0,9.336,7.315,10.165,25.494
				c2.243,49.139,1.968,135.025-5.781,144.104c-7.75,9.077-54.644-0.709-24.488,19.218c26.935,17.798-95.438-5.876-74.082,15.365
				c24.975,24.843-72.976,20.281-62.481,4.34s-92.061-0.398-69.345-14.568s-12.392-9.367-11.562-18.972
				c2.931-33.893,6.602-96.337,6.602-96.337l-14.878,9.21c0,0,4.047,21.843,4.209,41.809c0.19,23.342-0.047,38.784-7,44.629
				c-6.952,5.846-57.92,0.222-59.824,8.9c-1.904,8.68,90.801-3.008,61.197,16.872c-33.433,22.45,100.386-9.167,71.47,15.454
				c-28.916,24.62,120.196,14.322,97.685-3.72c-14.77-11.838,29.039,4.401,61.981,1.414c25.879-2.347,36.939-10.96,19.54-19.038
				c-29.715-13.797,28.071-0.703,44.277-10.55C438.606,392.886,402.576,391.979,399.521,373.514z M115.456,389.676
				c0,0,2.167-40.567,1.96-63.354c-0.085-9.309,12.387-21.621,12.387-21.621s-17.536,5.27-19.085,7.927
				c-1.55,2.656-0.494,10.114,0.165,16.976C112.931,350.927,115.456,389.676,115.456,389.676z"/>
		</g>
	</g>
	<g id="&#x417;&#x430;&#x43B;&#x438;&#x432;&#x43A;&#x430;_&#x446;&#x432;&#x435;&#x442;&#x43E;&#x43C;_200">
		<g>
			<path style="fill-rule:evenodd;clip-rule:evenodd;fill:#55051A;" d="M421.73,389.87c-7.982-3.22-18.911-7.63-20.357-16.37
				c-2.979-18.005,0.892-148.352,0.914-149.679c0.02-1.225-1.377-2.3-2.535-2.701l-16.021-5.77c-1.311-0.45-6.243-1.734-6.905-0.52
				c-0.663,1.216-0.351,2.733,0.74,3.587c0.083,0.065,8.32,6.707,9.082,23.394c2.672,58.539,0.99,134.991-5.106,142.134
				c-2.186,2.561-11.024,3.31-17.479,3.856c-9.478,0.804-16.326,1.384-17.541,6.147c-0.941,3.688,2.282,7.575,11.126,13.419
				c0.755,0.498,1.305,0.912,1.701,1.241c-1.53,0.354-4.65,0.737-10.982,0.737c-5.842,0-12.869-0.304-20.312-0.625
				c-1.583-0.068-3.18-0.136-4.774-0.202c4.384-0.824,9.262-2.664,13.618-6.476c0.704-0.617,2.578-2.256,1.879-4.498
				c-0.698-2.24-2.994-2.505-5.019-2.736c-4.395-0.504-6.396-1.251-6.626-4.342c-0.36-4.855-1.257-10.79-2.206-17.074
				c-1.25-8.28-2.545-16.843-2.813-24.093c-0.526-14.166,2.074-23.865,2.099-23.959c0.404-1.465-0.419-2.987-1.865-3.452
				l-15.792-3.436c0,0,0.02,2.366,0.431,3.386c0.063,0.156,6.278,15.762,5.96,31.368c-0.122,6.046,0.12,11.63,0.334,16.555
				c0.768,17.702,0.236,23.519-9.052,24.634c-6.623,0.795-7.437,3.863-7.331,5.622c0.219,3.67,5.188,6.576,11.243,8.045
				c-1.138-0.015-2.292-0.036-3.391-0.036c-15.903,0-22.794,1.683-24.577,6.004c-1.051,2.544-0.056,5.353,2.955,8.347
				c1.494,1.486,3.883,4.267,3.092,6.185c-1.279,3.1-10.193,6.437-26.74,6.437c-18.032,0.001-32.748-3.985-34.677-7.563
				c-0.118-0.221-0.252-0.468,0.21-1.17c1.872-2.845,1.176-5.078,0.595-6.157c-2.499-4.641-11.515-6.205-35.724-6.205
				c-2.83,0-5.685,0.017-8.498,0.033c-2.718,0.017-5.396,0.033-7.974,0.033c-9.797,0-16.266-0.325-19.315-0.968
				c0.205-0.14,0.438-0.293,0.703-0.458c6.846-4.271,9.436-7.345,8.943-10.612c-0.604-4.005-5.46-5.287-10.601-6.645
				c-3.046-0.806-8.717-2.303-8.581-3.876c2.902-33.542,6.572-95.79,6.607-96.415c0.063-1.056,0.154-3.182,0.154-3.182
				l-18.082,9.172l-8.925,4.346c0,0-15.59,3.911-16.992,6.314c-1.682,2.882-1.308,7.91-0.493,15.849
				c0.097,0.944,0.194,1.891,0.284,2.827c2.021,21.036,4.542,59.599,4.566,59.985c0.008,0.115,0.034,0.224,0.055,0.334
				c-2.929,0.117-5.885,0.198-8.572,0.27c-20.806,0.558-33.63,1.234-35.083,7.86c-0.262,1.188,0.017,2.376,0.782,3.345
				c2.566,3.249,10.436,3.69,30.619,4.049c11.513,0.205,32.788,0.582,35.515,3.631c-0.193,0.422-1.035,1.753-4.532,4.102
				c-3.816,2.563-7.569,5.67-6.469,9.28c1.135,3.728,6.435,4.491,14.043,4.491h0.007c7.013,0,16.215-0.728,25.958-1.498
				c9.985-0.791,20.313-1.607,28.316-1.607c9.241,0,11.779,1.135,12.414,1.573c-0.186,0.43-0.834,1.519-3.057,3.41
				c-4.071,3.467-5.534,6.86-4.347,10.087c2.311,6.277,15.219,9.461,38.369,9.461c21.172,0,66.219-3.781,70.324-15.47
				c0.501-1.427,0.826-4.114-2.043-6.956c2.826,0.326,6.635,0.961,10.837,1.664c10.798,1.804,25.585,4.273,39.567,4.273
				c3.184,0,6.229-0.129,9.053-0.385c10.709-0.972,28.903-3.922,30.438-12.763c0.753-4.324-2.599-8.25-9.962-11.67
				c-1.168-0.542-2.145-1.019-2.961-1.434c0.332-0.004,0.687-0.007,1.064-0.007c2.264,0,4.98,0.072,7.857,0.148
				c3.427,0.091,7.312,0.193,11.188,0.193c13.88,0,22.332-1.374,27.406-4.458c2.355-1.43,3.471-3.116,3.315-5.015
				C431.511,393.815,427.619,392.246,421.73,389.87z M130.851,307.165c0.093-0.093,0.145-0.209,0.223-0.311
				c1.016,6.086,3.637,23.254,3.765,39.019c0.183,22.439-0.135,37.516-5.989,42.437c-1.293,1.087-5.955,1.685-11.521,2.047
				c0.002-0.027,0.011-0.053,0.012-0.081c0.022-0.406,2.17-40.917,1.964-63.53C119.244,320.11,127.619,310.361,130.851,307.165z
				 M112.152,314.641c0.904-0.785,4.072-2.155,7.975-3.593c-3.299,4.563-6.539,10.414-6.49,15.748
				c0.033,3.621,0.005,7.707-0.065,12.018c-0.275-3.227-0.548-6.278-0.812-9.032c-0.091-0.948-0.189-1.907-0.288-2.864
				C112.037,322.69,111.387,316.363,112.152,314.641z M163.559,420.521c-9.628,0.763-18.722,1.48-25.512,1.48h-0.006
				c-4.515,0-6.804-0.342-7.932-0.631c0.574-0.588,1.622-1.494,3.518-2.768c3.562-2.392,8.15-6.068,6.884-10.36
				c-1.875-6.358-14.521-7.274-40.929-7.744c-8.579-0.152-19.821-0.353-24.508-1.367c4.942-1.931,19.766-2.326,28.242-2.553
				c15.693-0.421,25.499-0.835,29.181-3.93c7.931-6.669,8.21-22.137,8.009-46.822c-0.135-16.79-2.931-34.59-3.918-40.387
				l8.599-5.322c-0.964,15.961-3.88,63.171-6.27,90.806c-0.548,6.323,6.842,8.276,12.779,9.844c1.972,0.521,5.13,1.354,6.259,2.091
				c-0.433,0.636-1.818,2.173-6.154,4.877c-1.499,0.936-5.48,3.418-4.478,6.916c1.135,3.962,6.498,4.987,26.09,4.987
				c0.598,0,1.201-0.002,1.809-0.003C171.379,419.902,167.444,420.214,163.559,420.521z M318.141,326.492
				c-0.408,2.019-0.938,5.115-1.308,9.071c-0.835-4.067-1.828-7.635-2.677-10.35L318.141,326.492z M303.543,400.247
				c0.361-0.078,0.81-0.157,1.361-0.224c14.297-1.715,14.739-12.897,14.168-27.446c0.084,0.555,0.167,1.109,0.252,1.663
				c0.932,6.175,1.813,12.006,2.158,16.647c0.468,6.305,5.049,8.326,8.664,9.1c-4.629,2.801-9.629,3.458-13.301,3.458
				c-0.002,0-0.002,0-0.003,0C310.582,403.445,305.674,401.623,303.543,400.247z M401.065,401.023c-3.802,0-7.646-0.101-11.039-0.19
				c-2.915-0.078-5.668-0.151-8.007-0.151c-5.642,0-9.691,0.252-10.409,3.507c-0.706,3.191,2.638,5.362,9.921,8.744
				c5.646,2.621,6.907,4.726,6.764,5.556c-0.396,2.273-7.632,6.48-25.368,8.089c-2.652,0.24-5.526,0.362-8.54,0.362
				c-13.512,0-28.031-2.426-38.633-4.195c-6.594-1.102-11.801-1.973-14.924-1.973c-1.061,0-4.286,0-5.215,2.645
				c-0.942,2.681,1.475,4.906,3.813,6.781c0.965,0.773,1.311,1.372,1.249,1.551c-1.809,5.147-32.765,11.68-64.977,11.68
				c-22.694,0-32.198-3.439-33.049-5.75c-0.158-0.429,0.234-1.713,2.703-3.815c2.736-2.329,6.21-5.864,4.812-9.664
				c-0.779-2.117-2.755-3.53-6.343-4.36c11.848,0.527,15.77,1.749,16.709,2.847c-0.037,0.097-0.11,0.25-0.253,0.466
				c-1.498,2.275-1.662,4.752-0.465,6.975c4.496,8.34,27.912,10.542,39.667,10.542c8.381,0,28.277-0.971,31.979-9.943
				c1.564-3.788,0.105-7.948-4.334-12.364c-1.266-1.26-1.58-1.97-1.657-2.219c0.538-0.577,3.503-2.445,19.283-2.445
				c7.107,0,15.218,0.35,23.06,0.688c7.504,0.324,14.592,0.632,20.557,0.632c11.963,0,16.354-1.174,17.398-4.65
				c1.109-3.693-3.166-6.52-4.993-7.727c-6.536-4.317-8.187-6.454-8.602-7.227c1.753-1.063,8.087-1.6,12.371-1.962
				c8.66-0.735,17.613-1.493,21.312-5.824c10.242-11.998,7.647-119.986,6.457-146.073c-0.4-8.754-2.674-15.184-5.074-19.624
				l9.931,3.405c-0.277,17.499-4.275,131.631-1.386,149.091c1.965,11.881,15.122,17.189,23.827,20.701
				c1.852,0.747,4.194,1.692,5.607,2.446C419.076,401.025,405.559,401.023,401.065,401.023z"/>
		</g>
	</g>
	<g id="_x31_">
		<g>
			<path style="fill-rule:evenodd;clip-rule:evenodd;fill:#F1E6FF;" d="M212.306,198.09l-17.762-17.762l-8.625,8.624l4.649,4.649
				l3.046-3.046l13.113,13.112l-3.334,3.335l4.681,4.681l12.311-12.312l-4.681-4.681L212.306,198.09z M232.361,332.812l4.643,1.244
				l-6.501,24.263l11.781,3.156l1.702-6.35l-4.161-1.115l4.8-17.912l4.555,1.22l1.713-6.394l-16.818-4.507L232.361,332.812z
				 M363.123,239.302l-3.157-11.781l-6.35,1.702l1.114,4.16l-17.912,4.8l-1.221-4.555l-6.395,1.713l4.507,16.817l6.394-1.713
				l-1.244-4.643L363.123,239.302z M260.383,239.955l-1.702,6.35l4.161,1.115l-4.8,17.912l-4.555-1.22l-1.713,6.394l16.818,4.507
				l1.713-6.395l-4.643-1.244l6.502-24.263L260.383,239.955z"/>
		</g>
	</g>
</g>
</svg>
