<?xml version="1.0" encoding="iso-8859-1"?>
<!-- Generator: Adobe Illustrator 15.0.0, SVG Export Plug-In . SVG Version: 6.00 Build 0)  -->
<!DOCTYPE svg PUBLIC "-//W3C//DTD SVG 1.1//EN" "http://www.w3.org/Graphics/SVG/1.1/DTD/svg11.dtd" [
	<!ENTITY ns_extend "http://ns.adobe.com/Extensibility/1.0/">
	<!ENTITY ns_ai "http://ns.adobe.com/AdobeIllustrator/10.0/">
	<!ENTITY ns_graphs "http://ns.adobe.com/Graphs/1.0/">
	<!ENTITY ns_vars "http://ns.adobe.com/Variables/1.0/">
	<!ENTITY ns_imrep "http://ns.adobe.com/ImageReplacement/1.0/">
	<!ENTITY ns_sfw "http://ns.adobe.com/SaveForWeb/1.0/">
	<!ENTITY ns_custom "http://ns.adobe.com/GenericCustomNamespace/1.0/">
	<!ENTITY ns_adobe_xpath "http://ns.adobe.com/XPath/1.0/">
]>
<svg version="1.1" xmlns:x="&ns_extend;" xmlns:i="&ns_ai;" xmlns:graph="&ns_graphs;"
	 xmlns="http://www.w3.org/2000/svg" xmlns:xlink="http://www.w3.org/1999/xlink" x="0px" y="0px" width="512px" height="512px"
	 viewBox="0 0 512 512" style="enable-background:new 0 0 512 512;" xml:space="preserve">
<metadata>
	<sfw  xmlns="&ns_sfw;">
		<slices></slices>
		<sliceSourceBounds  height="512" width="512" x="94" y="94" bottomLeftOrigin="true"></sliceSourceBounds>
	</sfw>
</metadata>
<g id="&#x418;&#x437;&#x43E;&#x431;&#x440;&#x430;&#x436;&#x435;&#x43D;&#x438;&#x435;_xA0_17_1_">
	<g id="&#x417;&#x430;&#x43B;&#x438;&#x432;&#x43A;&#x430;_&#x446;&#x432;&#x435;&#x442;&#x43E;&#x43C;_1">
		<g>
			<rect x="3.699" y="4.439" style="fill-rule:evenodd;clip-rule:evenodd;fill:#B17D7B;" width="503.121" height="503.121"/>
		</g>
	</g>
	<g id="&#x417;&#x430;&#x43B;&#x438;&#x432;&#x43A;&#x430;_&#x446;&#x432;&#x435;&#x442;&#x43E;&#x43C;_5">
		<g>
			<path style="fill-rule:evenodd;clip-rule:evenodd;fill:#F3D4C3;" d="M484.624,25.156l20.717-20.717H3.699l20.717,20.717H484.624z
				 M24.416,486.844L3.699,507.561h501.642l-20.717-20.717H24.416z"/>
		</g>
	</g>
	
		<g id="&#x417;&#x430;&#x43B;&#x438;&#x432;&#x43A;&#x430;_&#x446;&#x432;&#x435;&#x442;&#x43E;&#x43C;_1_&#x43A;&#x43E;&#x43F;&#x438;&#x44F;_2">
		<g>
			<radialGradient id="SVGID_1_" cx="256.7402" cy="256" r="228.0762" gradientUnits="userSpaceOnUse">
				<stop  offset="0" style="stop-color:#7D7193"/>
				<stop  offset="0.2" style="stop-color:#7C7193"/>
				<stop  offset="0.4" style="stop-color:#6C6382"/>
				<stop  offset="0.5939" style="stop-color:#554E6B"/>
				<stop  offset="0.7515" style="stop-color:#3E3A53"/>
				<stop  offset="0.897" style="stop-color:#29273A"/>
				<stop  offset="1" style="stop-color:#232132"/>
			</radialGradient>
			<polygon style="fill-rule:evenodd;clip-rule:evenodd;fill:url(#SVGID_1_);" points="432.765,27.924 78.856,27.924 28.664,78.116 
				28.664,435.769 76.972,484.076 433.367,484.076 484.816,432.627 484.816,79.976 			"/>
		</g>
	</g>
	
		<g id="&#x417;&#x430;&#x43B;&#x438;&#x432;&#x43A;&#x430;_&#x446;&#x432;&#x435;&#x442;&#x43E;&#x43C;_1_&#x43A;&#x43E;&#x43F;&#x438;&#x44F;">
		<g>
			<path style="fill-rule:evenodd;clip-rule:evenodd;fill:#F2D2C0;" d="M25.109,24.37v463.26h463.26V24.37H25.109z M466.659,418.566
				l-47.353,47.353H91.283l-44.462-44.462V92.277l46.196-46.196h325.734l47.908,47.907V418.566z"/>
		</g>
	</g>
	<g id="&#x424;&#x438;&#x433;&#x443;&#x440;&#x430;_3">
		<g>
			<path style="fill-rule:evenodd;clip-rule:evenodd;fill:#A18180;" d="M429.873,25.156l-344.047-1.48l-62.15,62.891v342.566
				l59.931,59.19l344.046-0.739l59.931-59.191V84.347L429.873,25.156z M477.226,423.954l-56.231,54.751H91.006l-56.231-54.751
				V88.046l54.012-54.012h334.428l54.751,56.231L477.226,423.954z"/>
		</g>
	</g>
	<g id="&#x417;&#x430;&#x43B;&#x438;&#x432;&#x43A;&#x430;_&#x446;&#x432;&#x435;&#x442;&#x43E;&#x43C;_6">
		<g>
			<path style="fill-rule:evenodd;clip-rule:evenodd;fill:#C7907F;" d="M23.676,86.566l62.52-62.752l-62.52-0.139V86.566z
				 M487.584,23.63l-62.521,0.139l62.521,62.752V23.63z M22.196,488.37l62.521-0.139l-62.521-62.752V488.37z M425.803,488.971
				l62.521,0.139v-62.89L425.803,488.971z"/>
		</g>
	</g>
	
		<g id="&#x417;&#x430;&#x43B;&#x438;&#x432;&#x43A;&#x430;_&#x446;&#x432;&#x435;&#x442;&#x43E;&#x43C;_6_&#x43A;&#x43E;&#x43F;&#x438;&#x44F;">
		<g>
			<path style="fill-rule:evenodd;clip-rule:evenodd;fill:#FDECE7;" d="M54.694,55.434l31.502-31.619l-59.314,3.562L54.694,55.434z
				 M27.964,485.886l56.753,2.346L55.27,458.579L27.964,485.886z M485.117,26.582l-60.054-2.813l31.376,31.491L485.117,26.582z
				 M425.803,488.971l59.314-3.113l-28.158-28.158L425.803,488.971z"/>
		</g>
	</g>
	<g id="&#x424;&#x438;&#x433;&#x443;&#x440;&#x430;_1">
		<g>
			<path style="fill-rule:evenodd;clip-rule:evenodd;fill:#C7907F;" d="M34.774,487.769l0.093-9.156h-8.417L34.774,487.769z
				 M477.04,477.873l0.093,9.155l8.323-9.155H477.04z M476.393,25.804l-0.092,9.156h8.416L476.393,25.804z M26.451,34.96h8.417
				l-0.093-9.156L26.451,34.96z"/>
		</g>
	</g>
	<g id="&#x424;&#x438;&#x433;&#x443;&#x440;&#x430;_2">
		<g>
			<path style="fill-rule:evenodd;clip-rule:evenodd;fill:#FDECE7;" d="M22.597,480.813L9.026,497.72l-1.627,10.285l22.418-0.296
				l0.532-18.644l-3.492-6.957L22.597,480.813z M508.448,495.817l-18.855-14.581l-4.261,4.043l-3.068,4.209l2.646,16.529
				l23.688,1.353L508.448,495.817z M21.002,31.648l4.26-1.295l3.492-6.956L28.222,4.754L5.803,4.458l1.628,10.284L21.002,31.648z
				 M487.997,31.226l18.856-14.581l0.147-11.553l-23.687,1.353l-2.646,16.53l3.069,4.208L487.997,31.226z"/>
		</g>
	</g>
	<g id="&#x417;&#x430;&#x43B;&#x438;&#x432;&#x43A;&#x430;_&#x446;&#x432;&#x435;&#x442;&#x43E;&#x43C;_2">
		<g>
			<path style="fill-rule:evenodd;clip-rule:evenodd;fill:#2F181B;" d="M0,0v512h512V0H0z M503.121,503.121H8.878V8.879h494.243
				V503.121z"/>
		</g>
	</g>
	<g id="&#x417;&#x430;&#x43B;&#x438;&#x432;&#x43A;&#x430;_&#x446;&#x432;&#x435;&#x442;&#x43E;&#x43C;_3">
		<g>
			<path style="fill-rule:evenodd;clip-rule:evenodd;fill:#40292E;" d="M482.33,20.67H29.346l-9.369,9.369v397.468
				c-0.119,0.585-0.119,1.188,0,1.771v53.925l9.606,9.605h453.025l9.507-9.507V30.455L482.33,20.67z M28.855,34.183l4.633-4.634
				h40.974L28.855,75.156V34.183z M33.726,483.931l-4.871-4.871v-39.857l44.728,44.729H33.726z M483.237,479.158l-4.772,4.772
				H437.63l45.607-45.607V479.158z M483.237,425.769l-58.162,58.162H86.139l-57.283-57.283V87.711l58.162-58.162h338.058
				l58.162,58.162V425.769z M483.237,75.156L437.63,29.549h40.558l5.05,5.05V75.156z"/>
		</g>
	</g>
	
		<g id="&#x417;&#x430;&#x43B;&#x438;&#x432;&#x43A;&#x430;_&#x446;&#x432;&#x435;&#x442;&#x43E;&#x43C;_4_&#x43A;&#x43E;&#x43F;&#x438;&#x44F;" style="opacity:0.502;">
		<g>
			<path style="fill-rule:evenodd;clip-rule:evenodd;fill:#876867;" d="M465.59,92.913l-47.243-47.244
				c-0.685-0.685-1.612-1.068-2.579-1.068H94.545c-0.968,0-1.896,0.384-2.58,1.068L46.409,91.227
				c-0.684,0.684-1.069,1.611-1.069,2.579v324.619c0,0.968,0.385,1.896,1.069,2.579l43.847,43.847
				c0.684,0.684,1.612,1.068,2.579,1.068h323.479c0.968,0,1.896-0.385,2.579-1.068l46.696-46.696
				c0.685-0.685,1.069-1.612,1.069-2.58V95.493C466.659,94.525,466.274,93.598,465.59,92.913z M459.363,414.063l-44.56,44.56H94.346
				l-41.709-41.709V95.316l43.419-43.419h318.201l45.106,45.106V414.063z"/>
		</g>
	</g>
	<g id="&#x417;&#x430;&#x43B;&#x438;&#x432;&#x43A;&#x430;_&#x446;&#x432;&#x435;&#x442;&#x43E;&#x43C;_4">
		<g>
			<path style="fill-rule:evenodd;clip-rule:evenodd;fill:#40292E;" d="M468.534,90.633l-47.907-47.907
				c-0.693-0.694-1.635-1.084-2.615-1.084H92.277c-0.981,0-1.922,0.39-2.616,1.084L43.465,88.922
				c-0.693,0.693-1.083,1.635-1.083,2.615v329.18c0,0.981,0.39,1.922,1.083,2.615l44.463,44.463
				c0.694,0.693,1.634,1.084,2.615,1.084h328.023c0.981,0,1.922-0.391,2.615-1.084l47.353-47.353
				c0.694-0.694,1.084-1.635,1.084-2.616V93.248C469.618,92.268,469.229,91.326,468.534,90.633z M462.22,416.295l-45.186,45.185
				H92.075L49.78,419.185V93.07l44.029-44.03h322.67l45.74,45.741V416.295z"/>
		</g>
	</g>
</g>
<g id="&#x418;&#x437;&#x43E;&#x431;&#x440;&#x430;&#x436;&#x435;&#x43D;&#x438;&#x435;_xA0_915_1_">
	<g id="&#x424;&#x438;&#x433;&#x443;&#x440;&#x430;_333_&#x43A;&#x43E;&#x43F;&#x438;&#x44F;" style="opacity:0.502;">
		<g>
			<path style="fill-rule:evenodd;clip-rule:evenodd;fill:#1A1926;" d="M450.506,210.735c-0.495-1.927-0.995-3.856-1.499-5.791
				c-1.41,1.066-2.829,2.131-4.255,3.192c-0.051,0.008-0.122,0.016-0.207,0.016c-1.039-0.003-2.896-1.196-5.002-4.56
				c-3.854-6.14-2.754-7.899,0.11-12.613c0.279-0.461,0.565-0.936,0.853-1.427c0.828-1.418,1.661-2.571,2.461-3.688
				c2.336-3.274,4.529-6.362,5.171-14.034c0.135-1.632-0.053-3.186-0.464-4.645c-0.41-1.459-1.043-2.822-1.798-4.075
				c-1.512-2.504-3.514-4.563-5.217-6.044c1.028-2.171,2.234-5.257,2.875-8.763c0.32-1.753,0.5-3.61,0.448-5.509
				c-0.025-0.949-0.108-1.908-0.26-2.869c-0.152-0.962-0.372-1.925-0.673-2.882c-2.926-9.321-13.41-13.242-13.853-13.4
				c-2.095-0.762-4.192-1.524-6.291-2.29c0.673,2.237,1.341,4.469,2.005,6.695c0.015,0.053,1.449,5.241-0.346,7.947
				c-0.955,1.445-2.841,2.015-5.735,1.731c-8.458-0.821-12.557-8.679-14.021-12.341c2.271-3.103,6.409-10.204,5.357-18.85
				c-0.691-5.726-3.426-11.022-8.065-15.696c-9.73-9.807-19.16-11.773-25.402-11.706c-4.058,0.043-6.65,0.947-6.934,1.05
				c-2.859,1.04-5.731,2.072-8.616,3.097c3.074,1.497,6.154,2.998,9.241,4.502c0.055,0.024,6.047,3.133,8.117,10.604
				c0.872,3.16-0.38,5.38-1.888,6.816c-2.579-4.909-7.487-10.328-15.621-11.703c-2.019-0.342-3.994-0.515-5.871-0.515
				c-5.999,0-10.192,1.734-13.28,2.987c-1.407,0.573-2.628,1.065-3.574,1.213c-3.399,0.531-5.329-0.074-7.509-2.565
				c-0.355-0.406-0.781-1.088-1.23-1.809c-2.006-3.208-5.338-8.565-14.236-8.535c-2.288,0.006-4.807,0.35-7.711,1.043
				c-16.422,3.931-20.822,12.047-23.479,16.889c-0.057,0.102-0.112,0.203-0.168,0.305c-0.607,1.098-1.768,1.621-3.779,2.449
				c-0.982,0.404-2.059,0.851-3.143,1.441c-1.092-2.429-2.488-5.042-4.36-7.912c-6.015-9.286-6.429-24.563-6.47-24.721
				c-0.057-1.832-0.117-3.662-0.184-5.492c-1.68,0.628-3.364,1.253-5.055,1.876c-0.503,0.191-12.548,4.689-19.66,11.879
				c-4.638,4.717-7.607,10.234-9.352,14.27c-1.764-1.138-3.803-2.039-5.833-2.037c-0.856,0-1.679,0.15-2.444,0.445
				c-4.311,1.667-7.691,6.338-9.734,9.782c-4.453-2.096-11.811-4.994-17.346-4.728c-8.019,0.36-13.224,4.969-15.538,7.514
				c-0.602,0.03-1.339,0.054-2.172,0.05c-4.031-0.013-11.343-0.675-14.932-4.747c-3.885-4.432,4.142-14.152,7.16-17.252
				c1.82-1.84,3.627-3.683,5.42-5.529c-2.708-0.02-5.42-0.036-8.137-0.048c-0.121,0.002-0.242,0.004-0.363,0.007
				c-3.148,0.079-19.248,1.293-30.578,14.263c-7.901,9.019-7.631,17.169-6.218,22.236c-1.662-0.114-3.583-0.478-5.028-1.417
				c-4.689-3.069-5.674-9.747-5.689-9.796c-0.387-2.843-0.789-5.656-1.207-8.438c-2.035,2.437-4.083,4.876-6.144,7.319
				c-0.541,0.708-13.946,16.562-8.201,28.713c1.491,3.131,4.086,5.661,7.733,7.591c-3.503,3.849-11.308,10.673-21.461,9.596
				c-3.485-0.361-5.862-1.461-7.28-3.346c-2.986-3.98-1.035-10.195-1.021-10.243c1.169-3.542,2.327-7.056,3.47-10.542
				c-3.312,2.453-6.625,4.906-9.933,7.359c-0.321,0.241-4.219,3.183-7.231,8.056c-1.507,2.438-2.795,5.364-3.321,8.703
				c-0.131,0.835-0.215,1.696-0.243,2.582c-0.028,0.886,0,1.797,0.093,2.731c0.186,1.87,0.629,3.836,1.398,5.892
				c3.505,9.404,11.46,13.549,18.296,14.919c-1.244,2.1-2.258,4.623-2.288,7.296c-0.048,4.372,2.296,8.602,4.147,11.248
				c-1.022,0.773-2.383,1.572-3.956,1.922c-5.854,1.296-14.102,0.01-14.177-0.001c-2.199-0.349-4.39-0.695-6.573-1.041
				c0.621,1.974,1.242,3.954,1.864,5.941c0.18,0.518,4.226,13.321,14.809,17.707c2.243,0.923,4.484,1.362,6.645,1.469
				c0.485,0.023,0.952-0.011,1.428-0.019c-1.537,3.021-2.63,6.457-2.584,10.132c0.099,8.839,6.679,17.196,10.41,21.167
				c-0.207,0.774-0.219,1.552-0.031,2.281c-0.421,3.234-0.271,7.708,2.179,12.547c1.107,2.186,2.423,3.887,3.793,5.21
				c-3.811,2.154-7.807,4.732-9.671,6.895c-3.246,3.767-2.954,11.229-1.156,21.986c0.14,0.833,0.252,1.475,0.295,1.841
				c0.302,1.387,0.115,3.957,21.056,26.077c-0.021,2.313-0.03,4.621-0.026,6.925c0.002,1.321,0.662,2.603,1.801,3.506
				c3.388,2.689,6.902,5.89,7.99,7.294c-0.157,1.081-0.935,3.224-1.462,4.705c-1.284,3.587-2.688,7.642-2.36,11.617
				c0.593,7.971,14.27,21.659,24.548,22.658c5.972,0.605,17.69-1.041,23.409-1.968c2.677,2.515,7.431,6.605,12.847,9.779
				c2.542,1.492,5.059,2.536,7.49,3.544c3.942,1.63,7.341,3.036,10.281,6.082c6.201,6.425,8.63,13.161,10.661,18.515
				c1.75,4.64,3.317,8.599,6.779,11.29c7.733,5.956,28.739,12.067,50.829,12.28c0.223,0.002,0.445,0.004,0.67,0.005
				c22.947,0.121,43.5-8.17,48.774-12.967c2.216-2.062,6.802-10.341,18.419-30.979c7.36-13.044,17.572-31.293,19.79-33.61
				c0.955-0.813,1.933-1.544,2.996-2.238c0.495-0.214,0.924-0.493,1.306-0.807c3.288-1.927,7.559-3.679,14.49-6.286
				c3.099-1.166,6.263-2.101,9.314-3.005c6.548-1.943,12.694-3.782,17.148-7.611c3.068-2.758,7.585-9.313,10.93-37.545
				c0.389-3.288,7.021-11.209,11.26-16.482c4.543-5.627,7.288-9.236,8.237-12.024c1.973-5.741-3.753-19.231-7.529-26.996
				c1.515-1.752,3.357-4.38,4.24-7.521c0.929-3.296-0.104-6.87-1.157-9.33c1.636-1.953,3.917-5.058,5.642-8.738
				c1.921,1.063,4.275,1.741,7.195,1.755c1.588,0.008,3.274-0.173,5.152-0.551c3.963-0.801,6.942-2.809,8.627-5.807
				C453.058,218.52,450.775,211.519,450.506,210.735z"/>
		</g>
	</g>
	<g id="&#x424;&#x438;&#x433;&#x443;&#x440;&#x430;_333">
		<g>
			<path style="fill-rule:evenodd;clip-rule:evenodd;fill:#4C2046;" d="M391.782,177.21c-1.061-11.859-7.885-20.743-17.386-29.402
				c-9.5-8.658-31.373-2.661-56.68-8.334c-34.393-7.709-40.523,15.291-57.745,15.94c-11.455,0.432-45.427-18.188-54.988-15.272
				s-32.289,21.556-38.212,21.616s-20.317-8.258-27.44,1.611c-5.09,7.053-5.065,21.437-7.555,31.583
				c-3.219,13.116-6.133,23.718-6.133,23.718s-8.408,8.439-7.456,17.724c0.972,9.475,11.514,18.594,11.514,18.594
				s-2.127,6.049,1.629,12.906c3.414,6.231,8.472,6.365,8.472,6.365s-10.703,6.374-13.198,9.831
				c-2.496,3.457,0.631,16.866,0.962,19.241s18.52,22.909,18.52,22.909l-0.103,8.305c0,0,7.925,6.92,8.13,9.313
				c0.301,3.517-4.029,10.913-3.938,16.716c0.09,5.802,9.17,17.166,15.393,17.798c6.223,0.631,21.166-2.886,21.166-2.886
				s4.842,6.623,10.894,11.126c4.947,3.681,10.731,4.567,15.09,10.716c9.046,12.757,7.118,26.32,11.537,31.071
				c4.419,4.75,20.508,11.771,41.135,11.641c19.65-0.125,36.311-9.085,39.617-13.084c3.308-3.999,25.465-63.917,29.162-68.065
				c3.699-4.149,7.656-6.471,16.422-10.703c7.892-3.811,15.898-5.231,20.287-10.012c4.39-4.78,6.614-27.84,7.307-35.325
				c0.69-7.486,15.482-23.751,17.316-29.343c1.834-5.593-6.494-25.977-6.494-25.977s3.665-3.333,5.045-7.698
				c1.175-3.715,0.097-8.566,0.097-8.566s5.23-6.794,7.396-14.461C403.71,209.14,393.852,200.35,391.782,177.21z"/>
		</g>
	</g>
	<g id="&#x424;&#x438;&#x433;&#x443;&#x440;&#x430;_345">
		<g>
			<path style="fill-rule:evenodd;clip-rule:evenodd;fill:#42325C;" d="M240.174,346.159c7.26-11.296,4.495-23.587,4.495-23.587
				s-3.657,20.783-20.493,29.893c-14.926,8.076-19.703,16.377-19.703,16.377s2.6-0.479,18.253-7.878
				c5.875,0.635,16.271,2.338,23.439,6.769c17.701,10.94,19.459,27.476,19.459,27.476s0.782-21.355-6.888-34.347
				C253.337,351.719,244.37,347.64,240.174,346.159z M379.178,270.32c-0.587-12.942-4.065-46.94-13.854-75.924
				c-9.782-28.966-7.161-46.152-26.823-49.985c-19.662-3.834-39.189,46.539-42.211,55.107s-12.48,13.426-17.121,21.482
				c-4.78,8.298-4.164,10.798-4.164,18.834c0,6.136,2.164,12.988,2.164,12.988s-7.801-3.288-13.727-10.794
				c-8.182-10.364-9.206-26.373-9.206-26.373l-39.075-31.711c0,0-2.851,16.095,2.587,32.375
				c5.467,16.369,24.473,21.152,22.847,24.168c-2.052,3.804-9.901,14.763,0.115,27.477c-1.048-1.33-19.975,29.166,4.711,32.525
				c2.421,0.329,9.152-0.623,15.039-2.844c8.342-3.148,13.604-10.084,16.8-5.887c4.31,5.659-12.141,7.242-20.468,20.592
				c-9.631,15.44-11.739,29.318-11.739,29.318s16.342-17.219,36.577-12.748c32.615,7.207,30.832,33.02,50.603,27.804
				c9.71-2.562,34.995-12.942,38.106-17.723C373.45,334.223,379.764,283.264,379.178,270.32z"/>
		</g>
	</g>
	<g id="&#x424;&#x438;&#x433;&#x443;&#x440;&#x430;_338">
		<g>
			<path style="fill-rule:evenodd;clip-rule:evenodd;fill:#CEBDDB;" d="M239.892,243.312c-2.381,2.489-5.306,5.748-8.781,8.334
				c-6.205,4.617-13.299,5.234-13.299,5.234s0.206-8.199-5.826-14.229c-6.11-6.109-14.148-9.385-16.83-7.363
				c-7.797,5.878-12.724,12.2-13.373,13.794c-1.588,3.897,0.774,10.661,6.137,14.153c4.964,3.232,12.509,0.603,12.509,0.603
				s-6.336,7.206-14.32,8.751c-6.839,1.324-9.972-3.069-16.496-11.217s-11.274-30.726-11.274-30.726s7.945,3.08,15.989,0.338
				c6.907-2.354,13.165-10.672,22.792-9.82c9.284,0.822,19.149,5.896,25.89,11.501c7.658,6.368,13.833,6.063,17.946,5.9
				s10.719-8.728-1.027-7.404c-5.234,0.59-9.255-4.423-9.255-4.423s14.222-8.509-0.765-16.242
				c-17.835-9.202-15.372-23.183-12.038-39.047c2.566-12.213,15.509-20.895,15.509-20.895l-21.195-10.462l-47.352,25.614
				c0,0-20.706,47.139-39.595,55.965c-19.85,9.275,3.518,32.785,3.518,32.785s-0.028,10.433,3.473,15.96
				c3.35,5.29,10.237,5.687,10.237,5.687s-17.929,3.604-17.718,12.441c0.53,22.296,18.395,34.865,18.395,34.865
				s2.871,7.44,3.653,11.139c0.65,3.076,4.993,6,6.438,6.898c1.891,0.119,4.862,0.016,9.278-0.857
				c9.449-1.867,21.083-13.256,21.083-13.256s-8.448,20.053-17.618,22.157c-5.686,1.305-10.28-2.29-12.954-5.211
				c-1.096,4.385-2.913,13.34-0.815,17.868c2.318,5.004,17.6,6.866,25.089,0.191c11.58-10.321,35.476-13.314,41.654-16.968
				c6.178-3.652,19.527-11.995,8.388-27.419c-7.874-10.902-21.376-20.504-21.376-20.504s12.763,8.116,29.049,1.678
				c11.122-4.396-16.008-12.906,7.78-28.329C252.68,264.384,242.086,241.018,239.892,243.312z M156.414,315.066
				c-6.103,1.563-14.671-12.747-14.671-12.747s9.046,6.076,12.865,3.003c6.27-5.046,9.175-4.157,10.546-2.059
				c2.495,3.818,6.413,1.941,6.413,1.941S162.517,313.503,156.414,315.066z"/>
		</g>
	</g>
	<g id="&#x424;&#x438;&#x433;&#x443;&#x440;&#x430;_351">
		<g>
			<path style="fill-rule:evenodd;clip-rule:evenodd;fill:#E7E0EE;" d="M161.24,358.649c0.361,3.217,12.868,3.849,15.032-5.352
				C178.437,344.099,160.879,355.433,161.24,358.649z M150.417,263.586c-8.045-2.481-5.831,8.537-8.226,17.541
				c-2.023,7.608-5.183,13.605-5.183,13.605s2.353,4.557,7.096,4.062c6.779-0.708,12.771-5.712,13.559-12.059
				C158.805,277.536,153.634,264.578,150.417,263.586z M135.265,222.519l-7.696,12.987c0,0,2.813,0.899,5.699,2.721
				c2.855,1.802,5.785,4.524,5.785,4.524L135.265,222.519z M211.175,269.276c-4.951,5.315-7.923,13.901-5.649,17.099
				c2.54,3.572,6.51-6.295,12.726-11.636c7.746-6.655,11.898-7.922,10.153-10.462C226.454,261.439,216.698,263.347,211.175,269.276z
				 M200.083,222.157c0,0,17.708,3.698,15.303-8.207c-2.405-11.906-7.975-16.93-4.59-21.516c1.587-2.15,3.095-3.542,4.504-4.539
				c0.112-4.989,1.172-10.335,2.345-15.916c2.566-12.213,15.509-20.895,15.509-20.895l-21.195-10.462l-47.352,25.614
				c0,0-12.161,27.667-26.344,44.576c5.894-0.407,16.511-1.689,22.395-5.722c26.476-18.14,21.962,0.148,21.747,2.153
				c-0.313,2.922-0.107,7.528-8.625,15.818c-4.827,4.698-14.315,7.723-14.315,7.723s11.92,5.367,21.201-3.463
				c2.721-2.589,6.105-3.963,9.284-4.672c2.132-0.765,4.42-1.18,6.943-0.957c0.85,0.075,1.693,0.218,2.533,0.389
				C199.838,222.123,200.083,222.157,200.083,222.157z M212.35,246.9c3.127-3.066-14.04-8.538-14.822-6.073
				C196.746,243.293,209.223,249.967,212.35,246.9z"/>
		</g>
	</g>
	<g id="&#x424;&#x438;&#x433;&#x443;&#x440;&#x430;_350">
		<g>
			<path style="fill-rule:evenodd;clip-rule:evenodd;fill:#AE91A5;" d="M249.059,265.089c-14.415,0.092-18.084,2.272-24.689,17.337
				c-7.31,16.67-24.816,8.657-30.783,5.301c-2.895-3.56-6.152-7.752-8.699-11.543c-0.671-0.998-1.226-2.951-1.733-3.875
				c-5.067-0.24-8.182-4.432-13.767-11.406c-6.524-8.147-11.049-30.257-11.049-30.257s1.167,0.381,2.541,1.2
				c-0.378-14.767,16.58-30.801,16.58-30.801s-10.729,4.944-23.163,17.472c-5.474,5.516-16.634,1.229-22.701-0.791
				c-0.815,0.709-1.632,1.363-2.448,1.962c3.707,3.341,11.992,6.593,15.861,16.776c4.528,11.916-0.124,28.867-0.124,28.867
				s4.988-4.796,15.554,1.034c16.124,8.896,40.245,29.752,40.245,29.752s-0.256-0.289-0.708-0.805
				c4.999,3.676,12.264,6.989,21.914,6.458c15.604-0.86,23.776-11.254,19.997-11.78c-7.172-0.999-9.607-3.952-5.976-9.364
				c4.66-6.944,11.169-9.257,22.111-9.414c16.207-0.233,28.826,3.56,28.826,3.56S267.939,264.969,249.059,265.089z M222.812,312.471
				c0,0-2.917,18.828-21.762,25.301c-10.863,3.73-13.834,18.352-13.834,18.352s8.057-2.5,17.427-5.404
				c8.501-2.635,18.982-5.609,25.157-12.555C240.689,325.916,222.812,312.471,222.812,312.471z M170.938,305.158
				c-5.175,2.575-6.688,12.758-6.688,12.758s5.735-6.546,12.52-9.017c6.713-2.444,13.562-0.499,13.562-0.499l-15.502-18.809
				C174.83,289.592,177.361,301.963,170.938,305.158z M155.137,306.488c5.457-1.729,7.223-3.946,9.523-2.368
				c2.3,1.579,5.78-7.944,0.819-8.636c-4.961-0.691-10.032,4.518-17.815,3.605c-5.749-0.675-9.784-2.854-9.784-2.854
				S143.85,310.064,155.137,306.488z M150.267,321.069c0,0-3.912,4.485-3.717,8.687c0.237,5.118,1.853,7.488,4.589,10.134
				s6.918,3.76,13.876,1.042c9.318-3.64,19.24-14.526,19.24-14.526s-5.148,3.813-21.793,5.544
				C155.671,332.655,150.267,321.069,150.267,321.069z"/>
		</g>
	</g>
	<g id="&#x424;&#x438;&#x433;&#x443;&#x440;&#x430;_344">
		<g>
			<path style="fill-rule:evenodd;clip-rule:evenodd;fill:#84B7DB;" d="M392.616,190.771c0-5.998,0.05-13.673-5.606-25.715
				c-5.526-11.766-11.756-18.706-27.404-21.276s-22.453,0.874-57.183-5.186c-6.951-1.213-17.452,2.106-17.452,8.884
				c0,8.396,4.959,14.785,7.27,26.139c1.301,6.398-6.037,13.404-5.625,19.413c0.463,6.767,8.728,10.954,8.728,10.954
				s16.979-12.156,29.833-6.438c8.936,3.975,13.516,8.856,18.266,10.203c11.308,3.206,15.965-3.919,15.965-3.919
				s-5.572,12.326-11.21,16.255c-6.237,4.348-9.471,8.566-12.718,12.354c-2.305,2.688-7.187,7.992-17.599,5.245
				c-13.104-3.457-5.556-13.224-17.046-10.505c-19.834,4.694-22.167-8.595-24.387-0.332c-1.052,3.915-2.353,11.581-0.58,21.033
				c1.439,7.679,7.299,14.458,17.627,19.418c19.889,9.554,23.119-8.223,23.119-8.223s5.641,11.124-15.059,20.167
				c-9.488,4.146-19.91,1.771-19.471,12.634c0.879,21.702,10.305,32.587,30.069,41.884c9.32,4.384,23.776,3.015,33.411,0.932
				c17.019-3.68,18.234,4.4,24.773,3.408s5.547-31.703,8.568-37.655c3.021-5.953,15.063-23,15.469-28.727
				c0.405-5.728-3.924-25.39-3.924-25.39s1.936-2.227,2.917-6.906c0.886-4.226,0.826-10.952,0.826-10.952s4.646-4.87,6.403-12.221
				C402.356,208.898,392.616,196.768,392.616,190.771z M322.395,287.79c0,0,5.313-4.278,9.588-10.691
				c4.381-6.572,9.685-16.339,9.685-16.339s-1.679,11.26,2.095,11.484c3.772,0.226,2.57-4.539,5.171-4.795s5.667,9.29,16.024,9.32
				s-2.721,11.545-3.908,11.545s-13.807-13.343-17.828-10.839C337.643,280.948,322.395,287.79,322.395,287.79z M354.059,314.831
				c-20.664-1.22-24.938-17.994-24.938-17.994s14.396,10.576,26.573,11.591c8.973,0.748,16.72-7.982,16.72-7.982
				S369.346,315.732,354.059,314.831z"/>
		</g>
	</g>
	<g id="&#x424;&#x438;&#x433;&#x443;&#x440;&#x430;_346">
		<g>
			<path style="fill-rule:evenodd;clip-rule:evenodd;fill:#B5E4F4;" d="M316.223,191.521c9.871,0,15.934,3.247,17.857-0.421
				c1.925-3.668-6.89-9.771-18.88-10.462c-9.608-0.555-22.548,4.419-19.512,10.071S307.669,191.521,316.223,191.521z
				 M310.635,165.942c6.496-0.313,14.721,2.216,15.779-1.238c2.324-7.586-5.928-11.279-17.582-10.573
				c-6.292,0.381-12.693,5.342-11.52,10.693C297.919,167.595,303.66,166.278,310.635,165.942z M307.654,262.053
				c12.206-7.757-1.293-19.121-19.993-23.029S295.447,269.81,307.654,262.053z M358.042,296.146l-8.989-6.283l-19.933,7.216
				c0,0,12.684,0.206,19.725,1.914c6.558,1.592,7.479,4.51,8.175,9.149c3.188-8.418,17.317-8.658,17.317-8.658l-8.178-7.697
				L358.042,296.146z M316.613,259.076c0.691,4.239,5.91,8.624,12.377,6.903c9.438-2.511,11.988-3.265,17.086-13.036
				c6.494-12.446,5.983-25.266,1.834-28.483s0.447,11.102-14.08,15.855C322.867,243.901,315.922,254.837,316.613,259.076z
				 M372.031,243.277c-3.01-15.287-5.992-20.549-9.27-26.321c-3.276-5.772-3.355-13.126-3.355-13.126s-1.155,2.754-3.405,6.671
				c-1.663,2.895-3.549,6.378-3.549,6.378s8.92,13.729,11.419,25.063c3.824,17.346-3.936,13.045-4.085,21.223
				c-0.15,8.178,11.785,16.055,14.791,13.259C377.584,273.628,375.034,258.535,372.031,243.277z M341.146,322.482
				c0.782,4.509,7.644,4.171,13.472,4.307c5.829,0.136,9.182,0.323,9.799-3.735C365.648,314.937,339.582,313.463,341.146,322.482z
				 M313.377,307.873c-9.68-14.62-4.421-15.179-3.018-22.61c0.565-2.992-8.688,4.951-13.656,5.6
				c-5.7,0.744-11.586-2.451-11.057,1.887c0.992,8.117,6.099,22.971,17,29.534c11.453,6.897,26.293,6.482,28.789,0.921
				C333.93,317.642,320.037,317.931,313.377,307.873z"/>
		</g>
	</g>
	<g id="&#x424;&#x438;&#x433;&#x443;&#x440;&#x430;_349">
		<g>
			<path style="fill-rule:evenodd;clip-rule:evenodd;fill:#DDF4FC;" d="M290.638,246.569c-2.946,4.54,14.521,14.461,15.874,9.621
				C307.864,251.35,293.584,242.03,290.638,246.569z M320.281,160.585c1.232-2.585-11.914-3.873-15.693-0.12
				C300.318,164.704,319.049,163.171,320.281,160.585z M313.998,183.976c-5.972,0-13.409,2.615-11.816,4.87
				c0.783,1.106,6.256-0.168,12.11-0.196c6.077-0.03,12.536,1.146,12.903,0.196C327.918,186.982,320.51,183.976,313.998,183.976z
				 M370.843,240.077c-2.949-13.289-6.127-18.882-12.17-23.813s5.152,8.948,7.254,22.653c1.473,9.604,3.093,15.488,0.304,24.884
				c-1.58,5.326,4.625,11.673,7.265,12.893C379.146,279.306,374.404,256.125,370.843,240.077z M347.398,321.58
				c-2.465,3.518,16.416,4.209,13.86-0.029C358.703,317.312,349.864,318.063,347.398,321.58z"/>
		</g>
	</g>
	<g id="&#x424;&#x438;&#x433;&#x443;&#x440;&#x430;_339">
		<g>
			<path style="fill-rule:evenodd;clip-rule:evenodd;fill:#EB6474;" d="M143.495,305.624c-3.893-4.287-6.366-9.418-6.366-9.418
				l6.313-20.294l2.886-23.57c0,0-6.076-10.12-12.865-14.334c-7.151-4.438-15.095-4.486-15.786-0.187
				c-0.691,4.299,10.282,15.513,10.282,15.513s-0.942,6.156,0.461,11.446c1.695,6.391,6.845,11.613,6.845,11.613
				s-7.625,4.604-8.798,8.151c-1.172,3.548,0.133,18.987,2.436,21.807c9.863,12.077,17.727,21.031,17.727,21.031l3.423-7.244
				l4.114-5.138C154.166,315.001,149.093,311.789,143.495,305.624z M230.719,371.156c0,0,8.975,23.143,2.844,39.845
				c-4.1,11.17-8.205,15.666-9.419,16.824c1.235-5.68,4.414-25.98-9.432-39.578c-5.893-5.787-10.341-12.918-12.527-16.77
				c2.797-1.273,4.512-2.185,4.512-2.185s-10.102-9.831-18.129-6.224s-15.12,9.261-25.563,6.862
				c-6.756-1.551-12.438-6.352-12.438-6.352s3.194,8.145,9.348,12.586c6.967,5.028,18.144,3.575,27.829,0.74
				c1.133,1.926,4.091,6.467,8.704,10.133c4.912,3.903,12.243,5.589,16.667,12.051c8.301,12.124,10.659,30.271,10.659,30.271
				s0.085-0.305,0.212-0.84c0.686,1.113,3.115,4.577,7.855,6.529c6.512,2.682,11.82,2.668,11.82,2.668s-2.335-7.675-2.915-32.21
				C240.372,389.655,230.719,371.156,230.719,371.156z M293.43,345.242c0.215-0.508,0.334-0.783,0.334-0.783
				S293.639,344.739,293.43,345.242z M293.43,345.242c-2.404,5.669-17.053,40.967-17.957,61.254
				c-1.251,28.066-24.55,33.433-24.55,33.433s14.943,1.896,27.904-0.521c12.787-2.386,23.597-9.084,23.597-9.084
				s-14.737-21.155-16.507-38.7C283.732,369.96,291.69,349.416,293.43,345.242z M394.357,240.272
				c1.093-4.614-0.779-10.058-0.779-10.058l7.696-11.064c0,0-3.916-23.036-12.274-48.788c-5.126-15.791-23.622-23.696-23.622-23.696
				s-17.46-5.935-23.607-1.399c-5.444,4.017-3.901,13.996,0.337,18.565c4.239,4.57,11.877,10.273,17.927,20.317
				c5.564,9.238,4.756,13.435,4.862,23.006c0.09,8.038,3.818,21.405,3.818,21.405s4.073,12.654,6.096,24.903
				c1.896,11.492,3.254,19.652,1.751,22.629s-9.185,1.594-9.185,1.594s0.831,3.478-1.494,6.083
				c-4.643,5.201-6.653,12.046-6.653,12.046s6.163-3.866,7.562-3.821c1.397,0.046,6.156,6.804,6.156,6.804s-2.564,2.741-5.073,5.137
				c-2.77,2.644-6.044,1.291-6.855,4.598c-1.796,7.315,2.679,5.461,3.397,12.537c0.859,8.467-3.674,11.916-6.157,13.156
				c-6.178-0.104-16.091,1.786-16.091,1.786s1.09,4.41-5.241,10.477c-4.774,4.574-11.527,7.799-15.526,9.45
				c-5.796-1.502-8.74-4.76-8.74-4.76s7.094,17.186-0.505,31.983c-13.235,25.773-9.056,47.387-9.056,47.387l29.957-73.58
				l34.605-16.839c0,0-0.077-0.361-0.306-0.896c2.212-0.603,4.058-1.645,4.058-1.645s5.749-32.664,7.854-37.835
				c2.104-5.172,15.423-21.797,16.535-26.427s-6.554-24.833-6.554-24.833S393.286,244.797,394.357,240.272z"/>
		</g>
	</g>
	<g id="&#x424;&#x438;&#x433;&#x443;&#x440;&#x430;_348">
		<g>
			<path style="fill-rule:evenodd;clip-rule:evenodd;fill:#6B1638;" d="M400.072,215.813c-0.409-5.245-1.378-10.887-8.92-7.281
				c-3.375,1.614-5.796,5.085-10.191,4.714c-7.575-0.641-16.032-10.98-16.032-10.98s-0.525,5.604,0.157,11.066
				c0.757,6.053,2.517,12.554,2.517,12.554s7.004-5.581,13.372-3.914c10.371,2.715,12.243,9.716,12.243,9.716
				S400.402,220.053,400.072,215.813z M131.81,237.577c-7.275-4.34-14.583-3.725-13.982,1.115
				c0.602,4.841,11.665,18.941,11.665,18.941s1.916-5.171,5.813-7.121c5.969-2.987,10.062,0.386,10.062,0.386
				S138.184,241.379,131.81,237.577z"/>
		</g>
	</g>
	<g id="&#x424;&#x438;&#x433;&#x443;&#x440;&#x430;_347">
		<g>
			<path style="fill-rule:evenodd;clip-rule:evenodd;fill:#FFDAC4;" d="M367.903,196.212c0.932,6.765,7.447,12.497,14.421,8.003
				c4.854-3.129,15.886,0.494,15.886,0.494l-6.105-16.193c0,0-4.502,9.176-8.785,7.415
				C371.009,190.872,366.971,189.447,367.903,196.212z M371.568,177.014c6.138,0.591,9.496,3.091,9.984-0.073
				c0.554-3.592-6.914-10-12.343-10.094c-4.295-0.074-8.551,6.16-8.883,9.612C359.945,180.433,366.811,176.556,371.568,177.014z
				 M390.211,245.127c0,0-6.423,3.161-11.086,2.579c-4.948-0.619-8.155-4.984-8.155-4.984s1.678,11.499,10.036,11.469
				c0.022,0,0.042-0.004,0.064-0.005c1.795,4.354,5.027,12.647,5.114,16.097c0.12,4.78-9.503,27.518-9.503,27.518
				s15.032-17.799,16.836-23.932c1.501-5.1-3.772-18.587-5.594-22.991C389.9,248.288,390.211,245.127,390.211,245.127z
				 M373.855,298.521l-5.893-21.646l-10.191,18.64l8.869-3.247L373.855,298.521z M364.626,306.939c0,0,4.142,3.755,5.091,9.992
				c1.364,8.966-10.021,18.659-1.303,19.801c5.923,3.668,6.279-10.039,7.536-20.092c1.144-9.146,0.221-18.721,0.221-18.721
				L364.626,306.939z"/>
		</g>
	</g>
	<g id="&#x424;&#x438;&#x433;&#x443;&#x440;&#x430;_340">
		<g>
			<path style="fill-rule:evenodd;clip-rule:evenodd;fill:#F45076;" d="M128.87,260.016c-1.173,12.057,13.82,16.498,13.82,16.498
				s1.309-3.457,2.269-9.478c1.219-7.644,1.369-15.618,1.369-15.618S130.328,245.021,128.87,260.016z M181.443,250.418
				c0,0-1.832,11.184,7.906,13.603c13.68,3.396,16.056-11.378,16.056-11.378s-6.255-3.598-13.708-8.592
				C187.206,241.043,181.443,250.418,181.443,250.418z M321.784,216.926c-7.614,0-14.521,4.991-14.431,7.847
				c0.09,2.856,2.495,12.447,12.146,12.657c9.65,0.211,10.492-7.516,10.643-11.484S326.331,216.926,321.784,216.926z
				 M391.594,234.875c-1.773-4.601-5.187-6.795-11.004-6.795c-6.196,0-10.582,6.944-10.582,6.944l2.135,10.162
				c0,0,9.668,4.642,14.48,1.144C390.655,243.399,393.367,239.475,391.594,234.875z"/>
		</g>
	</g>
	<g id="&#x424;&#x438;&#x433;&#x443;&#x440;&#x430;_341">
		<g>
			<path style="fill-rule:evenodd;clip-rule:evenodd;fill:#FFE2BC;" d="M193.199,250.658c-2.142,0-3.878,1.777-3.878,3.969
				s1.736,3.969,3.878,3.969s3.878-1.777,3.878-3.969S195.341,250.658,193.199,250.658z M141.127,256.19
				c-2.075,0-3.758,1.723-3.758,3.848c0,2.126,1.683,3.849,3.758,3.849c2.076,0,3.758-1.723,3.758-3.849
				C144.885,257.913,143.203,256.19,141.127,256.19z M317.801,221.826c-2.001,0-3.623,1.986-3.623,4.435
				c0,2.449,1.622,4.435,3.623,4.435s3.623-1.985,3.623-4.435C321.424,223.813,319.802,221.826,317.801,221.826z M378.035,231.417
				c-1.943,0-3.518,1.777-3.518,3.969s1.574,3.969,3.518,3.969c1.942,0,3.518-1.777,3.518-3.969S379.978,231.417,378.035,231.417z"
				/>
		</g>
	</g>
	<g id="&#x424;&#x438;&#x433;&#x443;&#x440;&#x430;_352" style="opacity:0.502;">
		<g>
			<path style="fill-rule:evenodd;clip-rule:evenodd;fill:#271024;" d="M316.415,353.063c-9.472-6.354-20.188-21.322-33.821-24.365
				c-17.686-3.945-37.895,9.268-37.895,9.268s-5.345,18.938-22.85,24.155c-19.609,5.845-33.431,13.365-33.431,13.365
				s14.155,7.174,26.408,5.221c12.952-2.064,24.822,11.374,24.822,11.374s1.61-19.501,6.661-20.223s17.871,32.489,17.871,32.489
				s2.911-24.972,6.519-30.744s6.469,16.313,6.469,16.313s11.596-26.262,26.227-22.514c22.955,5.882,32.219-9.234,32.219-9.234
				S324.143,358.247,316.415,353.063z"/>
		</g>
	</g>
	<g id="&#x417;&#x430;&#x43B;&#x438;&#x432;&#x43A;&#x430;_&#x446;&#x432;&#x435;&#x442;&#x43E;&#x43C;_201">
		<g>
			<path style="fill-rule:evenodd;clip-rule:evenodd;fill:#31182E;" d="M402.721,203.293c-2.539-6.208-5.7-13.934-6.763-25.815
				c-1.295-14.484-10.22-24.413-18.781-32.216c-6.549-5.968-16.481-6.209-29.058-6.515c-8.887-0.217-18.961-0.462-29.591-2.844
				c-4.983-1.117-9.728-1.684-14.103-1.684c-14.432,0-23.24,6.071-30.317,10.949c-5.168,3.563-9.251,6.377-14.437,6.572l-0.24,0.005
				c-4.58,0-14.716-3.878-23.658-7.299c-11.147-4.264-21.677-8.292-28.472-8.292c-1.402,0-2.617,0.163-3.716,0.499
				c-5.232,1.596-12.833,6.618-20.881,11.937c-5.542,3.663-13.919,9.199-16.132,9.491c-1.037,0-3.167-0.576-5.226-1.133
				c-3.44-0.93-7.722-2.087-11.965-2.087c-5.914,0-10.521,2.229-13.695,6.627c-4.005,5.549-5.214,14.055-6.383,22.281
				c-0.556,3.909-1.081,7.603-1.866,10.803c-2.603,10.604-5.03,19.649-5.828,22.594c-2.368,2.684-8.824,10.95-7.862,20.321
				c0.853,8.316,7.285,15.823,10.807,19.367c-0.123,0.722-0.08,1.438,0.126,2.102c-0.145,3.047,0.298,7.247,2.72,11.67
				c1.093,1.995,2.33,3.527,3.587,4.705c-3.169,2.185-6.508,4.773-8.027,6.878c-2.648,3.669-2.012,10.623-0.125,20.654
				c0.146,0.776,0.261,1.375,0.309,1.718c0.188,1.346,0.499,3.579,18.458,23.928l-0.082,6.635c-0.015,1.269,0.526,2.48,1.482,3.314
				c2.844,2.483,5.747,5.479,6.63,6.812c-0.162,1.053-0.886,3.153-1.388,4.609c-1.215,3.524-2.593,7.52-2.532,11.415
				c0.121,7.76,10.671,21.163,19.284,22.037c5.033,0.507,15.05-1.351,19.886-2.378c2.066,2.502,5.739,6.596,10.027,9.786
				c2.014,1.498,4.041,2.544,5.999,3.555c3.176,1.637,5.918,3.052,8.143,6.19c4.696,6.622,6.15,13.717,7.317,19.417
				c1.012,4.938,1.885,9.202,4.581,12.099c5.955,6.402,23.942,13.023,43.735,13.023l0.598-0.002
				c20.622-0.131,38.635-9.466,42.925-14.653c1.829-2.211,5.559-11.28,14.268-33.005c5.51-13.743,13.055-32.565,14.791-34.94
				c0.75-0.841,1.521-1.597,2.364-2.315c0.397-0.223,0.738-0.512,1.039-0.836c2.621-1.996,6.054-3.821,11.668-6.533
				c2.51-1.212,5.09-2.188,7.586-3.13c5.355-2.025,10.415-3.938,14.01-7.851c2.551-2.779,5.814-9.594,8.428-37.856
				c0.304-3.288,5.968-11.216,9.717-16.463c4.001-5.602,6.499-9.175,7.402-11.93c1.865-5.685-2.653-18.889-5.573-26.39
				c1.415-1.716,3.177-4.281,4.139-7.33c1.012-3.199,0.32-6.643-0.456-9.003c2.38-2.854,6.308-8.204,7.985-14.151
				C406.973,213.686,405.097,209.1,402.721,203.293z M128.575,222.379c0.412-0.414,0.732-0.908,0.948-1.448
				c2.832,1.268,5.448,3.001,7.654,5.09c3.125,2.964,5.307,6.76,6.355,10.834c1.089,4.25,1.491,8.645,1.434,13.068
				c-0.864-1.541-1.803-3.047-2.826-4.508c-1.754-2.481-3.749-4.846-6.134-6.91c-2.403-2.073-5.189-3.749-8.376-4.788
				c-1.586-0.503-3.263-0.834-4.997-0.915C123.905,227.189,128.525,222.429,128.575,222.379z M139.996,295.918l0.015-0.051
				c-0.015,0.061,0.041-0.169-0.03,0.127c-0.001-0.006-0.001-0.01-0.002-0.015L139.996,295.918z M139.977,295.963
				c-0.019-0.114-0.024-0.209-0.008-0.226c0.006,0,0.006-0.01,0.015,0.012c0.005,0.01,0.01,0.013,0.005,0.134
				C139.987,295.909,139.981,295.936,139.977,295.963z M139.918,270.591c-0.288-0.027-2.873-0.378-4.926-4.124
				c-1.624-2.964-1.798-5.685-1.668-7.428c0.027-0.081,0.068-0.153,0.09-0.237c0.151-0.561,0.52-1.342,0.845-1.997
				c0.344-0.678,0.723-1.34,1.134-1.951c0.823-1.213,1.77-2.318,2.819-2.812c1.138-0.497,2.923-0.517,4.586-0.341
				c0.697,0.075,1.4,0.187,2.104,0.32c-0.158,3.547-0.584,7.101-1.173,10.599c-0.49,2.823-1.119,5.624-1.841,8.403
				C141.306,270.729,140.642,270.572,139.918,270.591z M130.516,250.562c-2.827-2.909-6.872-7.91-7.937-12.656
				c0.048-0.006,0.094-0.016,0.142-0.021c1.246-0.141,2.55-0.098,3.858,0.101c2.613,0.404,5.252,1.481,7.66,2.928
				c2.427,1.475,4.681,3.368,6.754,5.46c1.298,1.319,2.529,2.721,3.69,4.187c-0.43-0.256-0.847-0.526-1.297-0.763
				c-1.667-0.825-3.387-1.638-5.744-1.698c-2.445,0.026-4.546,0.948-6.36,1.984C131.019,250.235,130.77,250.401,130.516,250.562z
				 M150.203,333.279l0.078-6.332c0.011-0.936-0.296-1.835-0.841-2.586c0.367-0.314,0.731-0.631,1.09-0.951
				c1.398,1.579,2.851,3.092,4.369,4.523c0.771,0.729,1.965,0.875,2.905,0.284l0.307-0.192c2.235-1.406,4.405-2.903,6.546-4.439
				c2.975,0.893,5.988,1.666,9.054,2.277c1.778,0.343,3.569,0.646,5.388,0.861c1.587,0.176,3.179,0.338,4.813,0.367
				c0.029,0.031,0.059,0.063,0.088,0.094c-2.505,1.639-5,3.269-7.572,4.734c-2.7,1.574-5.415,3.101-8.162,4.3
				c-1.364,0.586-2.841,0.979-4.099,1.252c-1.281,0.3-2.33,0.507-3.64,0.65c-1.67,0.189-3.512,0.146-5.513,0.021
				C153.868,336.806,152.323,335.209,150.203,333.279z M314.438,394.143c-5.114,12.755-11.477,28.628-12.903,30.708
				c-2.262,2.733-17.482,11.394-36.31,11.514l-0.541,0.001c-19.681,0-34.067-6.683-37.396-10.261
				c-1.04-1.119-1.75-4.586-2.438-7.939c-1.26-6.153-2.987-14.579-8.737-22.688c-3.444-4.857-7.583-6.992-11.236-8.877
				c-1.726-0.891-3.355-1.731-4.801-2.806c-2.734-2.035-5.234-4.594-7.049-6.641c2.57-1.405,5.279-2.657,7.949-3.604
				c0.52-0.185,1.04-0.352,1.56-0.511l1.727-0.511l3.507-1.056c2.344-0.722,4.694-1.493,7.029-2.348
				c2.486-0.909,4.957-1.922,7.377-3.072c0.166,0.313,0.364,0.614,0.627,0.878l0.06,0.061c2.746,2.743,5.441,6.035,7.787,9.368
				c2.358,3.37,4.452,6.938,6.07,10.718c1.612,3.743,2.62,7.827,3.284,11.983c0.649,4.163,0.986,8.413,0.951,12.676
				c0.635-4.222,0.905-8.513,0.847-12.83c-0.077-4.313-0.502-8.688-1.668-13c-1.153-4.274-2.839-8.384-4.837-12.321
				c-1.966-3.821-4.105-7.402-6.759-10.994c4.252-2.671,8.195-6.007,11.268-10.067c0.379-0.519,0.771-1.027,1.119-1.567l0.554-0.831
				l0.305-0.502c0.102,0.012,0.194,0.032,0.308,0.032c0.188,0,0.761,0.111,1.175,0.225c0.453,0.118,0.914,0.268,1.373,0.439
				c0.919,0.344,1.828,0.779,2.708,1.288c1.763,1.018,3.411,2.324,4.903,3.827c2.998,3.021,5.335,6.773,7.179,10.846
				c1.877,4.066,3.42,8.323,4.46,12.718c1.009,4.389,2.204,10.29,1.756,14.845c0.935-4.493,0.233-10.522-0.317-15.105
				c-0.582-4.596-1.691-9.125-3.185-13.545c-1.468-4.421-3.563-8.819-6.639-12.646c-1.539-1.91-3.323-3.674-5.376-5.168
				c-1.026-0.745-2.119-1.423-3.286-2.008c-0.478-0.238-0.978-0.45-1.484-0.655c0.475-1.493,0.967-2.984,1.474-4.476
				c2.53-2.111,5.242-3.988,8.074-5.616c3.796-2.159,7.875-3.842,12.082-4.545c2.126-0.368,4.149-0.407,6.352-0.267
				c2.163,0.113,4.307,0.34,6.403,0.718c4.199,0.744,8.192,2.161,11.787,4.278c1.452,0.848,2.84,1.803,4.174,2.837
				c-0.773,0.924-1.458,1.817-2.162,2.762c-0.979,1.328-1.906,2.681-2.789,4.059c-1.764,2.757-3.35,5.612-4.746,8.555
				c-1.396,2.942-2.601,5.971-3.58,9.068c-0.959,3.078-1.748,6.183-2.439,9.278c-1.381,6.204-2.381,12.443-3.175,18.694
				c-0.781,6.253-1.372,12.518-1.704,18.79c0.93-6.209,2.115-12.372,3.48-18.479c1.377-6.104,2.957-12.153,4.878-18.054
				c0.966-2.954,2.009-5.856,3.192-8.672c1.187-2.79,2.574-5.489,4.123-8.085c1.553-2.593,3.27-5.084,5.125-7.451
				c0.93-1.182,1.893-2.333,2.889-3.442c0.696-0.773,1.448-1.572,2.17-2.282c0.106,0.11,0.216,0.217,0.322,0.328
				c1.467,1.531,2.867,3.143,4.214,4.807c1.243,1.571,2.837,3.668,4.653,5.305c3.611,3.392,8.177,5.863,13.002,7.137
				c1.691,0.451,3.412,0.763,5.144,0.954C325.8,366.04,321.732,375.949,314.438,394.143z M397.243,216.283
				c-1.225,4.333-4.26,8.48-6.151,10.77c-0.757-0.989-1.58-1.94-2.465-2.864c-1.839-1.809-3.911-3.506-6.96-4.389
				c-1.523-0.409-3.091-0.57-4.558-0.403c-1.47,0.164-2.808,0.688-3.988,1.388c-1.68,1.012-3.139,2.291-4.23,3.912
				c-0.989-3.427-2-6.847-3.068-10.252c-0.043-0.136-0.181-0.224-0.325-0.198c-0.158,0.027-0.263,0.177-0.235,0.335l3.474,19.997
				c1.146,6.66,2.291,13.318,3.358,19.966c0.499,3.329,0.948,6.664,1.279,9.986l0.541,4.928c0.187,1.59,0.389,3.278,0.422,4.56
				l-0.005,0.374c0.019,0.056-0.036,0.214,0.088-0.085l-0.051,0.15l-0.024,0.073l0.015-0.034c0.026-0.05,0.062-0.084,0.052-0.062
				c0.013,0.016,0.007,0.034,0.002,0.067c-0.039,0.13-0.399,0.42-0.947,0.618c-1.103,0.481-2.675,0.653-4.238,0.789
				c-3.178,0.207-6.564,0.089-10.01,0.048h-0.013c-0.104-0.001-0.207,0.055-0.262,0.153c-0.079,0.144-0.027,0.323,0.116,0.402
				c3.081,1.697,6.363,2.896,9.935,3.525c1.802,0.31,3.657,0.459,5.836,0.077c1.07-0.245,2.313-0.653,3.486-1.719
				c0.284-0.273,0.56-0.574,0.795-0.919c0.111-0.151,0.243-0.371,0.366-0.61l0.194-0.391c0.276-0.693,0.298-0.954,0.372-1.316
				c0.055-0.328,0.08-0.619,0.101-0.889c0.131-2.1-0.059-3.782-0.266-5.547c-0.238-1.733-0.551-3.428-0.921-5.105
				c-0.645-2.832-1.314-5.633-1.992-8.429c0.252,0.19,0.514,0.373,0.792,0.54c0.914,0.523,2.022,0.903,3.272,0.901
				c0.309,0.001,0.628-0.018,0.943-0.069c0.18-0.037,0.265-0.043,0.523-0.112l0.313-0.087c0.188-0.049,0.589-0.19,0.86-0.298
				c0.257-0.127,0.524-0.239,0.767-0.388c0.81-0.457,1.486-1.031,2.056-1.667c3.165,8.535,5.295,16.763,4.761,18.801
				c-0.536,1.638-3.688,6.049-6.22,9.594c-4.201,5.88-7.593,10.79-9.538,14.957c-0.175-0.311-0.346-0.622-0.496-0.941
				c-0.672-1.419-1.378-2.828-2.118-4.226c-0.776-1.384-1.495-2.787-2.324-4.154c-0.042-0.071-0.124-0.115-0.213-0.105
				c-0.122,0.013-0.21,0.123-0.195,0.244c0.173,1.589,0.458,3.141,0.682,4.712c0.159,0.947,0.356,1.883,0.541,2.821
				c-0.159-0.273-0.313-0.554-0.475-0.825c-0.83-1.387-1.673-2.763-2.567-4.093c-0.368-0.546-1.071-0.798-1.721-0.567l-0.45,0.159
				c-2.404,0.853-4.75,1.815-7.067,2.834c-2.368-1.75-4.781-3.432-7.256-5.023l-0.113-0.071c-0.656-0.417-1.485-0.551-2.283-0.298
				c-3.76,1.197-7.476,2.543-11.136,4.074c-1.832,0.764-3.651,1.568-5.442,2.464c-0.209,0.103-0.416,0.208-0.624,0.312
				c0.45-0.868,0.788-1.771,1.067-2.688c0.536-1.818,0.855-3.696,0.692-5.725c-0.005-0.05-0.026-0.104-0.063-0.144
				c-0.09-0.099-0.242-0.104-0.34-0.015c-1.508,1.329-2.657,2.758-3.722,4.183c-1.062,1.417-1.997,2.868-2.732,4.227
				c-0.198,0.358-0.315,0.569-0.575,0.94l-0.818,1.25c-0.525,0.812-1.026,1.609-1.449,2.45c-0.867,1.663-1.601,3.373-2.229,5.129
				c-0.026,0.077-0.01,0.17,0.052,0.232c0.088,0.086,0.229,0.086,0.314-0.002c1.32-1.289,2.641-2.561,3.947-3.785
				c0.667-0.602,1.293-1.222,1.951-1.775c0.326-0.279,0.666-0.533,1.02-0.742c0.035-0.025,0.074-0.06,0.111-0.089
				c2.872,2.141,5.895,4.073,9.028,5.863c3.73,2.063,7.647,3.887,11.946,4.983c4.194,1.089,9.207,1.634,13.533-0.376
				c2.14-0.961,4.077-2.323,5.623-4.006c1.083-1.174,2.006-2.479,2.664-3.905c0.125,0.494,0.293,0.974,0.557,1.421
				c0.255,0.478,0.558,0.939,0.889,1.391c-1.847,19.772-3.944,27.582-5.179,30.616c-0.103-0.044-0.202-0.088-0.308-0.132
				c-1.174-0.48-2.371-0.891-3.595-1.228c-2.452-0.673-4.965-1.054-7.592-1.038c-4.92,0.154-9.534,0.87-14.17,1.73
				c-4.606,0.858-9.165,1.982-13.61,2.937c-0.521,0.104-1.163,0.242-1.514,0.276c-0.445,0.042-0.951,0.044-1.469,0.012
				c-1.041-0.063-2.127-0.229-3.211-0.444c-2.172-0.435-4.344-1.068-6.482-1.804c-8.529-3.008-16.719-7.535-23.521-13.577
				c-3.285-3.079-5.249-7.057-7.121-11.45c-1.796-4.215-2.555-8.582-3.555-13.313c0.289,4.809,1.249,9.145,2.857,13.533
				c1.707,4.657,3.478,8.813,6.789,12.267c6.721,6.616,14.806,11.645,23.535,15.25c2.193,0.883,4.436,1.669,6.778,2.266
				c1.173,0.296,2.366,0.547,3.634,0.69c0.633,0.07,1.287,0.111,1.998,0.083c0.803-0.048,1.297-0.15,1.916-0.235
				c4.65-0.749,9.135-1.616,13.672-2.221c4.495-0.604,9.097-1.05,13.436-0.957c2.003,0.096,4.094,0.511,6.068,1.173
				c0.396,0.133,0.788,0.281,1.179,0.434c-2.063,1.134-4.602,2.098-7.377,3.146c-2.67,1.01-5.434,2.054-8.288,3.433
				c-5.973,2.884-9.947,4.997-13.177,7.459c-0.164,0.036-0.331,0.072-0.485,0.103c-0.459,0.091-0.928,0.168-1.401,0.232
				c-0.948,0.131-1.915,0.213-2.884,0.245c-1.936,0.068-3.879-0.064-5.774-0.405c-3.795-0.678-7.39-2.242-10.447-4.664
				c-1.578-1.213-2.788-2.562-4.437-4.327c-1.574-1.65-3.213-3.254-4.936-4.78c-3.44-3.05-7.256-5.805-11.482-7.827
				c-4.213-2.041-8.808-3.241-13.365-3.667c-2.281-0.22-4.559-0.271-6.814-0.206c-2.215,0.032-4.631,0.273-6.827,0.854
				c-4.46,1.13-8.522,3.234-12.211,5.745c-2.608,1.798-5.053,3.805-7.314,5.988c0.994-2.899,2.037-5.789,3.133-8.646
				c1.91-4.941,3.965-9.834,6.382-14.513c1.215-2.331,2.521-4.62,4.038-6.716c0.76-1.044,1.578-2.037,2.486-2.893
				c0.958-0.919,1.921-1.758,2.96-2.581c4.135-3.239,8.228-6.451,10.716-8.537c-3.848,2.403-7.007,4.408-11.566,7.354
				c-1.128,0.733-2.261,1.555-3.31,2.394c-1.092,0.917-2.035,1.944-2.908,3.01c-1.74,2.137-3.218,4.425-4.605,6.75
				c-2.757,4.665-5.123,9.513-7.345,14.413c-0.009,0.02-0.017,0.039-0.026,0.06c0.082-1.97,0.08-3.937,0.009-5.892
				c-0.349-8.193-0.874-13.002-2.691-19.788c5.008-1.378,9.937-2.854,14.808-4.682c2.532-0.939,4.936-2.247,7.119-3.756
				c2.185-1.52,4.594-2.731,6.381-4.658c-2.471,1.176-4.639,2.543-6.947,3.704c-2.32,1.158-4.713,2.043-7.203,2.593
				c-5.041,1.153-10.655,1.966-15.782,2.65l1.27,4.248c0.006-0.002,0.013-0.004,0.02-0.006c1.217,6.887,1.122,11.71,0.862,19.696
				c-0.18,4.752-0.768,9.482-2.041,13.957c-0.645,2.231-1.454,4.396-2.502,6.402c-0.519,1.002-1.106,1.983-1.711,2.858l-0.525,0.735
				l-0.501,0.636c-0.339,0.451-0.719,0.871-1.083,1.299c-2.99,3.39-6.705,6.08-10.745,8.201c-4.055,2.116-8.421,3.69-12.917,4.962
				c-2.249,0.639-4.532,1.202-6.844,1.729l-3.489,0.771l-1.777,0.385c-0.646,0.146-1.288,0.299-1.919,0.472
				c-2.532,0.681-4.957,1.548-7.321,2.525c-2.384,0.998-4.609,2.032-6.986,3.349c-0.008,0.005-0.017,0.011-0.026,0.016
				c-4.481,1.005-14.254,2.959-18.557,2.524c-3.699-0.377-11.438-9.499-11.501-13.559c-0.037-2.375,1.077-5.606,2.061-8.459
				c1.115-3.234,2.079-6.027,1.862-8.557c-0.019-0.216-0.046-0.504-0.137-0.878c0.704,0.215,1.428,0.392,2.181,0.491
				c1.844,0.257,3.98,0.033,5.677-0.726c1.732-0.75,3.11-1.737,4.52-2.657c2.792-1.84,5.3-3.896,7.662-6.095
				c2.202-2.116,4.34-4.256,6.304-6.571c0.687,0.726,1.363,1.459,2.069,2.171c1.237,1.19,2.423,2.418,3.704,3.576
				c0.064,0.058,0.158,0.075,0.241,0.037c0.111-0.051,0.159-0.182,0.108-0.293c-0.724-1.568-1.542-3.067-2.309-4.602
				c-0.799-1.514-1.626-3.005-2.484-4.475c-0.856-1.47-1.394-3.175-2.657-4.345c-0.606-0.604-1.266-1.17-2.021-1.664
				c-0.743-0.503-1.554-0.957-2.556-1.271c-0.025-0.007-0.053-0.013-0.081-0.013c-0.148,0-0.269,0.121-0.268,0.27
				c0,1.048,0.192,1.959,0.451,2.818c0.247,0.868,0.589,1.666,0.986,2.424c0.652,1.369,1.866,2.325,2.93,3.391
				c-0.883-0.554-1.778-1.072-2.675-1.585c-1.598-0.898-3.225-1.707-4.863-2.477c-3.286-1.517-6.639-2.827-10.045-3.973
				c-0.819-0.271-1.765-0.168-2.523,0.368l-0.042,0.029c-2.058,1.453-4.071,2.966-6.05,4.528c-1.531-0.993-3.09-1.952-4.723-2.82
				l-0.542-0.287l-0.008-0.005c-0.66-0.341-1.471-0.081-1.812,0.579c-0.444,0.863-0.877,1.734-1.297,2.616
				c-7.156-8.13-14.976-17.476-16.407-19.912c-0.071-0.405-0.167-0.926-0.281-1.533c-1.888-10.036-1.634-13.139-1.281-14.095
				c1.128-1.428,5.186-4.362,9.186-6.909l-2.263,7.702l-0.91,3.183c-0.31,1.092-0.634,2.063-0.947,3.334l-0.032,0.137l-0.048,0.214
				l-0.007,0.052l-0.054,0.447c-0.022,0.261-0.012,0.401-0.005,0.551c0.006,0.161,0.026,0.289,0.046,0.428
				c0.083,0.533,0.227,0.951,0.377,1.328c0.307,0.743,0.66,1.318,1.019,1.863c0.716,1.078,1.503,1.975,2.313,2.831
				c3.233,3.381,6.785,6.162,10.629,8.605c0.1,0.062,0.232,0.062,0.332-0.013c0.129-0.096,0.156-0.279,0.061-0.409l-0.005-0.007
				c-2.682-3.612-5.481-7.121-7.831-10.69c-0.566-0.894-1.099-1.799-1.512-2.643c-0.197-0.417-0.36-0.836-0.425-1.143
				c-0.003-0.014-0.002-0.021-0.005-0.034l0.006-0.016l0.026-0.063l2.444-6.137c3.253-8.452,4.875-17.489,5.869-26.529
				c0.914-9.028,0.884-18.392-2.005-27.253c-1.534-4.456-4.349-8.446-7.958-11.328c-2.574-2.067-5.48-3.634-8.556-4.658
				c0.593-2.173,3.213-11.864,6.038-23.374c0.888-3.619,1.468-7.701,2.029-11.648c1.021-7.186,2.077-14.616,4.832-18.432
				c1.515-2.1,3.573-3.036,6.674-3.036c3.095,0,6.606,0.95,9.705,1.787c2.843,0.769,5.298,1.433,7.591,1.433c0,0,0.003,0,0.003,0
				c4.13-0.042,10.281-3.976,20.798-10.926c6.844-4.522,14.602-9.649,18.634-10.878c0.12-0.037,0.476-0.122,1.19-0.122
				c5.196,0,15.918,4.102,25.378,7.72c10.909,4.174,21.196,8.103,27.318,7.859c7.701-0.291,13.458-4.259,19.024-8.096
				c6.72-4.631,13.665-9.42,25.403-9.42c3.738,0,7.847,0.496,12.209,1.474c11.461,2.568,21.987,2.825,31.273,3.051
				c10.771,0.262,19.278,0.469,23.437,4.259c10.388,9.469,15.17,17.42,15.988,26.588c1.15,12.851,4.58,21.483,7.174,27.831
				c-1.827-0.156-3.724,0.108-5.458,0.782c-0.946,0.358-1.82,0.862-2.622,1.461c-0.212,0.159-0.423,0.324-0.623,0.498
				c-0.192,0.166-0.316,0.296-0.479,0.446l-0.26,0.246l-0.151,0.163c-0.101,0.116-0.212,0.204-0.316,0.313
				c-0.853,0.795-1.919,1.285-3.203,1.335c-2.583,0.125-5.623-1.188-8.334-2.87c-2.773-1.68-5.346-3.84-7.771-6.143l-0.01-0.009
				c-0.093-0.089-0.236-0.106-0.351-0.036c-0.137,0.084-0.179,0.262-0.096,0.398c1.795,2.921,3.989,5.565,6.527,8.003
				c2.583,2.326,5.626,4.63,9.837,5.136c2.076,0.234,4.41-0.188,6.368-1.238l3.971-2.365c1.374-0.819,2.854-1.528,4.566-2.124
				C397.106,212.736,397.661,214.8,397.243,216.283z M381.297,252.29c-0.111,0.015-0.224,0.038-0.348,0.042
				c-0.483,0.028-1.087-0.012-1.774-0.128c-0.923-0.161-1.946-0.434-3.1-0.713c-0.402-1.679-0.814-3.355-1.236-5.028
				c0.71,0.453,1.435,0.892,2.182,1.307c0.693,0.383,1.405,0.747,2.154,1.078c0.207,0.085,0.331,0.159,0.616,0.245
				c0.181,0.059,0.344,0.121,0.627,0.175c0.516,0.113,0.941,0.161,1.415,0.191c0.982,0.048,1.931-0.038,2.851-0.199
				c0.049,0.189,0.105,0.378,0.181,0.563c0.045,0.109,0.087,0.22,0.132,0.329c-0.817,0.808-1.656,1.439-2.492,1.784
				c-0.133,0.068-0.276,0.1-0.409,0.156c-0.138,0.028-0.14,0.057-0.37,0.11l-0.314,0.077
				C381.461,252.27,381.328,252.285,381.297,252.29z M381.644,246.213c-1.021,0.297-2.587,0.106-4.078-0.067
				c-0.977-0.134-1.958-0.319-2.939-0.527c-0.991-3.902-2.023-7.79-3.095-11.667c-0.012-0.041-0.023-0.081-0.034-0.122
				c0.974-0.765,1.987-1.467,3.037-2.078c1.641-0.942,3.421-1.689,5.098-1.808c1.65-0.087,3.427,0.501,5.039,1.187
				c0.812,0.357,1.601,0.775,2.36,1.235c0.484,0.296,1.002,0.637,1.452,0.968c0.068,0.197,0.146,0.392,0.245,0.582
				c0.572,1.102,1.504,3.865,1.062,5.266c-0.301,0.951-0.789,1.879-1.322,2.714c-0.055,0.048-0.114,0.087-0.165,0.14
				c-0.84,0.87-2.013,1.811-3.121,2.54C384.047,245.319,382.842,245.929,381.644,246.213z M371.351,233.315
				c-0.593-2.084-1.186-4.167-1.781-6.249c2.125-0.294,3.971-0.736,5.698-1.116c1.053-0.224,2.026-0.455,2.934-0.739
				c0.907-0.277,1.791-0.574,2.658-0.585c1.738-0.001,3.917,0.923,5.924,1.989c0.679,0.354,1.345,0.753,2.006,1.169
				c-1.02-0.259-2.05-0.462-3.094-0.591c-2.147-0.264-4.329-0.232-6.531,0.344c-2.164,0.651-3.851,1.897-5.353,3.224
				C372.926,231.564,372.111,232.421,371.351,233.315z M371.969,299.099c-3.011,2.564-6.195,4.422-9.546,5.439
				c-3.551,1.026-7.29,1.727-11.288,1.065c-3.935-0.648-7.875-1.987-11.713-3.55c-3.197-1.284-6.319-2.802-9.383-4.44
				c0.18-0.175,0.355-0.354,0.506-0.512c0.001-0.001,0.002-0.003,0.003-0.004c1.015-0.082,2.022-0.188,3.026-0.308
				c1.99-0.22,3.955-0.531,5.907-0.883c3.45-0.616,6.856-1.386,10.229-2.268c2.461,1.703,4.964,3.343,7.537,4.877l0.256,0.153
				c0.744,0.442,1.7,0.472,2.494-0.003c2.34-1.399,4.626-2.898,6.866-4.481c0.811,0.695,1.632,1.383,2.465,2.061
				c0.814,0.659,1.653,1.298,2.507,1.923C371.885,298.477,371.927,298.788,371.969,299.099z M184.577,299.579
				c-2.079-2.829-4.171-5.639-6.442-8.371c-0.568-0.687-1.147-1.366-1.78-2.038c-0.32-0.335-0.644-0.674-1.04-1.016
				c-0.436-0.387-0.968-0.689-1.449-0.9c-1.912-0.793-3.695-0.994-5.5-1.124c-3.59-0.169-7.129,0.054-10.631,0.876
				c-0.054,0.013-0.099,0.056-0.111,0.113c-0.016,0.081,0.036,0.158,0.115,0.174c3.489,0.77,6.954,1.168,10.323,1.706
				c1.659,0.269,3.384,0.501,4.763,0.915c0.334,0.104,0.585,0.209,0.83,0.378c0.219,0.147,0.454,0.332,0.689,0.526
				c-0.099,1.874-0.229,3.735-0.548,5.539c-0.305,1.87-0.725,3.747-1.451,5.217c-0.189,0.358-0.4,0.683-0.638,0.934l-0.003,0.004
				c0.101-0.159,0.026-0.042,0.047-0.076l-0.007,0.009l-0.016,0.017l-0.032,0.035l-0.063,0.067l-0.126,0.137
				c-0.08,0.079-0.096,0.041-0.137,0.069c-0.084,0.035-0.217,0.12-0.336,0.16c-0.473,0.206-1.021,0.423-1.729,0.687
				c-0.952,0.363-2.096,0.65-3.368,1.011c0.281-0.394,0.535-0.827,0.722-1.362c0.241-0.647,0.42-1.386,0.424-2.385
				c0-0.204-0.122-0.399-0.323-0.479c-0.927-0.372-1.679-0.484-2.369-0.503c-0.701-0.035-1.312,0.061-1.875,0.229
				c-1.172,0.268-1.674,1.533-2.47,2.36c-0.797,0.826-1.566,1.692-2.309,2.599c-0.733,0.921-1.471,1.834-2.147,2.839
				c-0.044,0.067-0.064,0.152-0.046,0.238c0.036,0.167,0.201,0.276,0.369,0.24c1.185-0.249,2.309-0.59,3.437-0.923
				c1.119-0.348,2.211-0.735,3.276-1.164c0.454-0.182,0.96-0.286,1.447-0.42c0.779,0.703,1.661,1.182,2.608,1.514
				c1.054,0.376,2.197,0.556,3.422,0.461c1.211-0.1,2.562-0.575,3.622-1.605c0.267-0.262,0.484-0.523,0.725-0.854
				c0.112-0.162,0.264-0.381,0.325-0.503l0.079-0.168l0.04-0.083l0.021-0.043l0.01-0.021l0.005-0.01l0.054-0.086l0.002-0.008
				c0.264-0.592,0.456-1.164,0.61-1.725c0.599-2.233,0.543-4.319,0.363-6.354c-0.204-1.695-0.483-3.349-0.91-4.969
				c0.463,0.425,0.923,0.864,1.377,1.317c2.416,2.461,4.731,5.086,7.022,7.718c2.326,2.608,4.589,5.275,6.883,7.922
				c0.047,0.054,0.128,0.066,0.189,0.026c0.067-0.044,0.085-0.133,0.042-0.2C188.633,305.298,186.608,302.439,184.577,299.579z
				 M175.358,233.813c2.08-0.713,3.82-1.826,5.425-2.942c3.172-2.27,5.872-4.479,8.794-5.258c1.468-0.405,2.898-0.542,4.543-0.387
				c1.765,0.124,3.508,0.327,5.218,0.656c3.428,0.618,6.707,1.693,9.846,3.22c3.158,1.503,6.154,3.52,9.413,5.514
				c1.631,0.99,3.336,1.972,5.165,2.77c0.457,0.198,0.92,0.388,1.39,0.563l0.729,0.266l0.67,0.218
				c0.977,0.309,1.925,0.562,2.898,0.752c3.879,0.699,7.901,0.664,11.506-0.62c-3.7,0.007-7.413-0.751-10.717-2.102
				c-3.108-1.184-5.902-3.101-9.066-5.585c-2.888-2.27-5.951-4.702-9.462-6.634c-3.496-1.946-7.385-3.313-11.324-4.036
				c-1.973-0.351-3.958-0.571-5.93-0.663c-2.087-0.118-4.451,0.115-6.547,0.867c-2.12,0.736-4,1.886-5.593,3.14
				c-1.611,1.242-2.982,2.574-4.329,3.764c-1.331,1.194-2.681,2.261-4.057,3.014c-1.45,0.782-3.106,1.271-4.829,1.549
				c-3.466,0.59-7.08-0.413-10.763-1.232c3.236,2.006,6.919,3.874,10.937,4.046C171.284,234.734,173.352,234.479,175.358,233.813z
				 M171.508,243.489c-0.9-0.33-1.992-0.875-3.077-1.418c-2.2-1.111-4.494-2.327-7.131-3.238l-0.009-0.003
				c-0.074-0.025-0.157-0.023-0.233,0.013c-0.156,0.073-0.223,0.259-0.15,0.415c1.206,2.566,2.916,4.662,4.971,6.514
				c1.055,0.913,2.163,1.77,3.65,2.457c0.774,0.32,1.582,0.705,3.032,0.641c0.195-0.021,0.39-0.049,0.583-0.085l0.136-0.031
				l0.03-0.009l0.058-0.018l0.27-0.084c0.415-0.142,0.657-0.287,0.922-0.451c0.504-0.319,0.855-0.663,1.142-0.98
				c1.097-1.269,1.527-2.41,2.205-3.508c0.639-1.087,1.374-2.116,2.322-2.923c1.883-1.643,4.376-2.443,6.863-2.612
				c1.243-0.117,2.496-0.072,3.72-0.097l1.821-0.006c0.5,0.018,1.056,0.045,1.598,0.116c2.182,0.276,4.318,1.037,6.524,1.783
				c4.457,1.478,8.976,3.576,14.029,5.545l0.012,0.005c0.079,0.03,0.171,0.028,0.252-0.015c0.149-0.078,0.207-0.264,0.127-0.412
				c-1.311-2.491-3.148-4.531-5.187-6.375c-2.051-1.832-4.396-3.38-7.021-4.502c-2.625-1.11-5.592-1.632-8.604-1.484
				c-0.753,0.039-1.496,0.108-2.286,0.248c-0.71,0.13-1.36,0.311-2.03,0.528c-1.332,0.403-2.615,1.012-3.856,1.636
				c-2.479,1.305-4.763,2.708-7.062,4.14c-1.144,0.726-2.345,1.433-3.509,2.208c-1.145,0.747-2.331,1.646-3.136,2.143
				c-0.195,0.115-0.356,0.176-0.414,0.178c-0.015,0-0.07-0.013,0.037-0.052c0.016-0.009,0.113-0.029,0.038-0.014l-0.06,0.011
				l-0.029,0.007l-0.015,0.003c-0.028,0.006,0.175-0.041,0.093-0.023c0.031-0.017,0.065-0.026,0.1-0.028
				C172.381,243.697,171.926,243.651,171.508,243.489z M183.585,264.008c1.62,1.494,3.768,2.777,6.594,3.656
				c1.458,0.453,2.873,0.68,4.24,0.68c2.055,0,3.999-0.512,5.813-1.533c6.192-3.486,8.32-11.805,8.408-12.157
				c0.037-0.15,0.052-0.299,0.065-0.448c2.397,0.344,4.799,0.542,7.208,0.521c0.129-0.002,0.247-0.09,0.279-0.221
				c0.039-0.155-0.056-0.313-0.211-0.352l-0.013-0.003c-3.704-0.919-7.345-2.074-10.739-3.615c-3.418-1.434-6.126-3.547-9.11-6.052
				c-0.75-0.639-1.509-1.305-2.474-1.966c-0.486-0.328-1.023-0.664-1.718-0.934c-0.683-0.275-1.574-0.502-2.632-0.411
				c-0.232,0.012-0.563,0.063-0.915,0.16c-0.438,0.118-0.385,0.124-0.539,0.178l-0.276,0.116l-0.12,0.058l-0.226,0.113l-0.405,0.22
				c-0.515,0.283-0.951,0.578-1.372,0.885c-0.846,0.595-1.61,1.228-2.359,1.874c-2.947,2.619-5.587,5.484-7.73,8.955
				c-0.045,0.075-0.06,0.172-0.029,0.262c0.056,0.16,0.23,0.243,0.39,0.188c1.182-0.398,2.312-0.858,3.42-1.342
				c-0.084,1.917,0.191,4.186,1.117,6.407l-7.604,7.698l10.586-2.793C183.355,264.12,183.468,264.056,183.585,264.008z
				 M190.112,247.081c-0.007,0.002-0.011,0.002-0.018,0.004C190.175,247.055,190.24,247.031,190.112,247.081z M190.072,247.089
				c-0.006,0.001-0.011,0.002-0.017,0.004l0.009-0.004C190.067,247.089,190.069,247.089,190.072,247.089z M190.062,247.089
				c-0.005,0.002-0.009,0.004-0.014,0.006c-0.084,0.018-0.151,0.024-0.145,0.022C189.805,247.111,189.868,247.07,190.062,247.089z
				 M184.921,249.952c0.442-0.243,0.889-0.484,1.326-0.729l2.382-1.36l1.085-0.6l0.228-0.117l0.055-0.026
				c0.024-0.009,0.051-0.019,0.083-0.03c0.005,0.001,0.007,0,0.012,0.001c0.213,0.034,0.539,0.121,0.89,0.254
				c0.71,0.266,1.524,0.692,2.348,1.145c1.636,0.939,3.349,2.012,5.181,2.898c1.424,0.721,3.038,1.293,4.585,1.717
				c-0.016,0.051-0.041,0.097-0.054,0.149c-0.443,1.741-2.322,6.67-5.655,8.535c-1.601,0.896-3.398,1.014-5.492,0.363
				c-8.276-2.574-6.99-9.623-6.812-10.435C185.223,251.103,185.149,250.492,184.921,249.952z M203.621,271.854
				c1.447-1.606,2.838-3.109,4.57-4.324c1.719-1.22,3.669-2.22,5.15-3.521c1.478-1.311,2.688-2.77,3.997-4.065
				c0.168-0.174,0.338-0.341,0.506-0.511c2.559-0.632,4.953-1.397,7.361-2.339c2.416-0.971,4.813-2.079,6.982-3.726
				c0.539-0.415,1.058-0.871,1.537-1.388c0.253-0.271,0.441-0.516,0.642-0.77l0.594-0.786c0.761-1.05,1.449-2.128,2.103-3.22
				c1.299-2.188,2.469-4.431,3.531-6.717c-1.407,2.089-2.91,4.108-4.505,6.026c-0.8,0.954-1.627,1.883-2.493,2.748l-0.653,0.627
				c-0.224,0.209-0.463,0.424-0.662,0.59c-0.429,0.353-0.903,0.67-1.404,0.96c-2.018,1.149-4.351,1.892-6.697,2.484
				c-2.344,0.579-4.806,1.014-7.153,1.266l-0.047,0.005c-0.09,0.011-0.181,0.026-0.272,0.049c-0.54,0.133-0.977,0.461-1.268,0.887
				c-0.199,0.087-0.398,0.174-0.589,0.269c-2.04,1.062-3.802,2.442-5.173,4.062c-1.367,1.636-2.134,3.694-3.209,5.462
				c-1.064,1.767-2.536,3.203-4.27,4.173c-1.734,0.975-3.694,1.36-5.207,1.385c-0.597,0.005-1.714-0.033-2.567-0.136
				c-0.903-0.106-1.771-0.262-2.614-0.395c-3.363-0.525-6.428-0.913-10.246-3.168l-0.046-0.027
				c-0.049-0.029-0.106-0.045-0.167-0.044c-0.173,0.006-0.31,0.149-0.305,0.323c0.068,2.466,1.498,4.657,3.356,6.254
				c1.887,1.585,4.28,2.596,6.655,2.79c1.188,0.11,2.367,0.032,3.509-0.118c0.57-0.082,1.134-0.169,1.688-0.286
				c0.512-0.103,1.182-0.237,1.837-0.475C200.59,275.294,202.183,273.429,203.621,271.854z M261.248,275.527
				c-4.239,0.33-8.301,1.249-12.253,2.459c-3.938,1.252-7.789,2.754-11.407,4.833c4.146-0.355,8.161-0.968,12.157-1.524
				c3.984-0.569,7.945-1.157,11.823-1.451c3.864-0.256,7.784-0.189,11.721,0.146c3.938,0.343,7.882,0.927,11.921,1.868
				c-3.296-2.602-7.29-4.174-11.354-5.225C269.765,275.628,265.504,275.236,261.248,275.527z M220.687,306.694
				c-2.697-3.012-5.963-5.716-9.527-7.72c-3.575-1.98-7.477-3.488-11.543-3.769c3.496,1.997,6.674,4.186,9.648,6.583
				c2.992,2.396,5.67,4.969,8.236,7.835c5.243,5.722,10.306,11.544,15.758,17.45c-1.186-3.886-3.111-7.448-5.238-10.846
				C225.859,312.843,223.404,309.666,220.687,306.694z M218.888,301.924c0,0,8.096,1.719,12.662,0.423
				c6.195-1.759,9.045-7.763,9.045-7.763s-5.409,3.011-10.473,5.129C226.069,301.407,218.888,301.924,218.888,301.924z
				 M283.952,259.561c-0.912-0.848-1.769-1.722-2.472-2.69c-0.353-0.484-0.667-0.979-0.95-1.499
				c-0.179-0.316-0.306-0.576-0.433-0.83c-0.128-0.271-0.266-0.556-0.385-0.841c-2.016-4.565-2.715-9.869-2.892-15.188
				c-0.146-5.347-0.948-11.913,1.879-16.687c-2.866,4.84-4.76,10.969-5.256,16.592c-0.328,4.14-0.234,8.456,0.821,12.658
				c-1.109-0.942-2.201-1.858-3.264-2.78c-1.932-1.666-3.768-3.345-5.338-5.137c-1.561-1.784-2.948-3.815-4.284-5.973l-4.07-6.8
				c-0.308,2.79,0.138,5.558,0.974,8.213c0.861,2.646,2.197,5.215,4.127,7.414c1.925,2.185,4.25,3.848,6.715,5.109
				c1.832,0.913,3.751,1.641,5.756,2.048c0.259,0.772,0.547,1.54,0.883,2.299c0.154,0.345,0.324,0.674,0.498,1.019
				c0.188,0.355,0.376,0.705,0.543,0.981c0.39,0.676,0.828,1.331,1.301,1.943c0.148,0.189,0.305,0.371,0.458,0.555
				c-2.836-0.977-5.796-1.663-8.833-1.956c-4.008-0.383-7.959,0.042-11.737,0.904c-3.772,0.905-7.441,2.19-10.785,4.181
				c3.862-0.251,7.583-0.61,11.275-0.812c3.683-0.21,7.319-0.298,10.835,0.035c3.563,0.339,7.138,1.007,10.729,1.833
				c1.945,0.44,3.891,0.933,5.855,1.447c0.983,0.507,1.981,0.973,3.004,1.358c5.335,2.058,10.939,3.01,16.506,2.872
				c-5.294-1.63-10.428-3.473-15.104-5.932C288.005,262.626,285.779,261.268,283.952,259.561z M331.531,242.314
				c1.417-1.574,2.451-3.523,2.47-5.611c0-0.06-0.024-0.121-0.071-0.165c-0.091-0.085-0.233-0.08-0.318,0.011l-0.025,0.028
				c-2.586,2.779-5.529,4.047-8.645,4.718c-1.56,0.328-3.174,0.658-4.877,0.822c-1.684,0.171-3.49,0.135-5.231,0.282
				c-1.755,0.093-3.626-0.155-5.229-0.999c-1.645-0.781-2.853-2.307-4.087-3.613c-1.22-1.334-2.707-2.275-4.18-3.316
				c-1.507-1.001-3.062-1.969-4.899-2.781l-0.008-0.004c-0.051-0.022-0.108-0.027-0.164-0.01c-0.125,0.037-0.195,0.169-0.157,0.294
				c0.599,1.972,1.689,3.6,2.938,5.067c1.288,1.421,2.695,2.794,4.512,3.57c1.806,0.803,3.783,1.182,5.482,1.982
				c1.742,0.733,3.38,1.743,5.258,2.546c1.9,0.801,3.797,1.067,5.811,1.217c1.994,0.124,4.088,0.027,6.087-0.66
				C328.186,245.026,330.088,243.881,331.531,242.314z M350.032,217.843c-0.487,0.578-1.032,1.254-1.45,1.638
				c-0.461,0.428-0.998,0.754-1.586,0.998c-1.179,0.491-2.564,0.628-3.973,0.555c-2.537-0.144-5.237-0.916-7.626-1.929
				c-0.044-0.253-0.089-0.506-0.144-0.758c-0.585-2.537-1.879-5.22-4.301-6.771c-1.174-0.779-2.477-1.3-3.75-1.648
				c-1.275-0.367-2.541-0.616-3.803-0.739c-2.5-0.24-4.998-0.412-7.547-0.388c-2.549,0.012-5.061,0.515-7.542,1.249
				c-1.237,0.385-2.47,0.836-3.677,1.423c-1.232,0.612-2.311,1.331-3.352,2.148c-4.062,3.327-7.093,7.807-8.094,12.83
				c-0.014,0.073,0.009,0.153,0.069,0.208c0.09,0.081,0.231,0.074,0.313-0.017l0.012-0.015c3.31-3.671,6.672-6.867,10.402-9.331
				c1.87-1.249,3.674-2.321,5.789-3.237c2.084-0.92,4.305-1.604,6.547-2.367c2.242-0.736,4.619-1.325,6.965-1.191
				c1.159,0.056,2.291,0.357,3.238,0.979c0.953,0.618,1.703,1.463,2.287,2.359c1.125,1.797,2.164,3.552,3.086,5.608
				c0.243,0.533,0.475,1.078,0.7,1.633c-0.461-0.524-0.94-1.032-1.463-1.501c-0.726-0.685-1.546-1.279-2.487-1.722
				c-0.933-0.454-1.992-0.74-3.078-0.967c-0.547-0.103-1.098-0.21-1.678-0.267c-0.273-0.02-0.605-0.061-0.951-0.066l-0.379,0.02
				c-0.232-0.005-0.326,0.027-0.48,0.045c-2.063,0.374-3.902,0.591-5.955,0.628c-2.031,0.037-4.084,0.225-6.012,0.898
				c-1.911,0.589-3.801,1.221-5.514,2.192c-1.707,0.975-3.271,2.188-4.717,3.551c-0.606,0.603-1.194,1.229-1.755,1.889
				c-0.388,0.22-0.789,0.428-1.212,0.611c-1.442,0.626-3.043,1.034-4.693,1.279c-1.508,0.288-3.205,0.099-4.888-0.223
				c-1.683-0.332-3.945-1.262-5.594-1.848c1.479,0.941,3.606,2.246,5.237,2.974c1.628,0.703,3.377,1.371,5.359,1.444
				c1.822,0.074,3.695-0.023,5.576-0.44c0.941-0.209,1.883-0.497,2.814-0.901c0.465-0.203,0.928-0.434,1.387-0.708
				c0.049-0.029,0.099-0.066,0.147-0.097c0.944-0.301,1.859-0.636,2.756-0.995c0.283,2.458,1.142,5.755,3.549,8.437
				c2.678,2.981,6.543,4.493,11.489,4.493h0.018c4.208-0.002,7.498-1.373,9.779-4.073c2.362-2.798,3.018-6.429,3.128-9.152
				c0.813,0.372,1.671,0.707,2.617,0.97l0.009,0.003c0.053,0.015,0.112,0.016,0.172,0c0.176-0.046,0.28-0.228,0.233-0.403
				c-0.193-0.731-0.461-1.399-0.756-2.043c0.131-0.516,0.22-1.037,0.284-1.561c0.776,0.198,1.553,0.365,2.357,0.512
				c1.667,0.291,3.377,0.461,5.131,0.383c1.744-0.086,3.574-0.413,5.254-1.313c0.833-0.448,1.613-1.039,2.248-1.757
				c0.671-0.767,1.013-1.41,1.471-2.099c1.729-2.731,3.24-5.563,4.607-8.446c1.359-2.888,2.111-4.707,3.155-7.703
				c-1.418,2.836-2.524,4.457-4.22,7.112C353.844,212.886,352.02,215.448,350.032,217.843z M325.443,232.009
				c-1.148,1.36-2.905,2.023-5.37,2.024h-0.015c-3.221,0-5.635-0.858-7.172-2.553c-2.49-2.744-2.238-7.019-2.201-7.48
				c0.517-0.317,1.032-0.634,1.553-0.94c1.564-0.826,3.102-1.904,4.722-2.924c1.6-0.982,3.467-1.725,5.197-1.63
				c0.085,0.013,0.229,0.027,0.232,0.054c0.107,0.031,0.253,0.049,0.331,0.093c0.119,0.083,0.251,0.148,0.428,0.284
				c0.322,0.237,0.644,0.514,0.941,0.849c0.603,0.645,1.145,1.391,1.764,2.03c0.379,0.404,0.794,0.767,1.226,1.114
				c-0.02,0.236-0.021,0.477,0.021,0.722C327.334,225.035,327.531,229.537,325.443,232.009z M359.421,202.865l-0.01,0.008
				c-1.422,1.29-2.942,2.444-4.514,3.348c-1.574,0.889-3.231,1.503-4.763,1.549c-0.764,0.03-1.487-0.09-2.164-0.327
				c-0.787-0.265-1.553-0.606-2.37-1.008c-1.597-0.798-3.2-1.723-4.818-2.678c-3.238-1.913-6.616-3.839-10.185-5.538
				c-3.537-1.723-7.441-3.112-11.549-3.324c-2.041-0.127-4.092,0.056-6.057,0.511c-1.907,0.466-3.789,1.037-5.643,1.652
				c-3.697,1.235-7.5,2.53-10.946,4.533c-3.431,2.013-6.397,4.693-9.06,7.58c-2.629,2.921-5.018,6.07-6.697,9.665
				c-0.035,0.075-0.027,0.169,0.031,0.236c0.08,0.093,0.219,0.103,0.311,0.023l0.008-0.007c2.956-2.539,5.781-5.076,8.675-7.499
				c2.879-2.44,5.847-4.691,8.766-7.016c2.907-2.317,5.89-4.759,9.403-6.208c1.744-0.736,3.57-1.228,5.434-1.518
				c1.811-0.281,3.661-0.074,5.416,0.389c1.766,0.455,3.441,1.207,5.097,1.989c1.651,0.802,3.288,1.668,4.903,2.612
				c3.236,1.882,6.368,4.064,9.818,5.942c1.73,0.93,3.52,1.826,5.468,2.521c0.956,0.342,1.997,0.668,3.069,0.888
				c1.189,0.228,2.422,0.193,3.562-0.045c2.296-0.495,4.153-1.741,5.629-3.16c1.482-1.433,2.669-3.063,3.531-4.862
				c0.036-0.078,0.025-0.175-0.035-0.242C359.649,202.791,359.512,202.784,359.421,202.865z M310.758,176.516
				c3.574-0.309,7.465,0.308,11.39,1.18c3.943,0.88,7.925,2.036,12.127,3.146c-3.011-3.179-6.682-5.589-10.677-7.431
				c-4.004-1.776-8.495-3.028-13.324-2.645c-4.664,0.39-9.007,2.077-12.764,4.405c-3.739,2.366-7.051,5.341-9.414,9.037
				c3.923-1.865,7.663-3.581,11.428-4.97C303.275,177.854,307.039,176.833,310.758,176.516z M197.832,201.183
				c2.862,0.905,5.861,2.581,8.788,4.43c2.957,1.863,5.895,3.93,9.111,5.984c-1.371-3.595-3.579-6.729-6.236-9.496
				c-2.701-2.727-5.897-5.138-9.997-6.443c-3.997-1.229-8.224-1.056-11.98-0.057c-3.765,1.034-7.269,2.788-10.058,5.443
				c3.777-0.479,7.308-0.889,10.733-0.97C191.611,199.99,194.851,200.258,197.832,201.183z M375.517,188.751
				c0.937,0.019,1.978,0.08,2.693,0.164c0.831,0.095,1.724,0.309,2.67,0.557c1.902,0.512,3.924,1.245,6.308,1.951
				c-0.703-2.424-2.209-4.407-4.189-5.966c-0.997-0.775-2.15-1.416-3.457-1.852c-1.419-0.45-2.587-0.563-3.846-0.622
				c-2.472-0.07-4.847,0.382-7.054,1.204c-2.195,0.851-4.279,2.021-5.986,3.869c2.457,0.423,4.65,0.518,6.784,0.583L375.517,188.751
				z M354.676,270.43c-0.803-0.81-1.63-1.576-2.479-2.301s-1.45-1.916-2.615-2.046c-0.563-0.103-1.168-0.127-1.846-0.012
				c-0.668,0.098-1.392,0.295-2.262,0.769c-0.178,0.099-0.291,0.295-0.27,0.511c0.092,0.985,0.332,1.694,0.623,2.305
				c0.284,0.628,0.643,1.114,1.042,1.524c0.759,0.894,2.081,0.727,3.157,1.026c1.075,0.3,2.173,0.557,3.293,0.771
				c1.129,0.199,2.252,0.407,3.429,0.518c0.079,0.007,0.161-0.016,0.228-0.07c0.134-0.109,0.153-0.307,0.043-0.44
				C356.272,272.07,355.473,271.254,354.676,270.43z M346.736,273.288c-0.467-0.748-0.902-1.312-1.288-1.813
				c-0.378-0.516-0.71-0.943-0.942-1.302c-0.24-0.362-0.389-0.557-0.601-0.691c-0.057-0.026-0.111-0.093-0.153-0.101
				c-0.019-0.006-0.039,0.028-0.068-0.016l-0.084-0.238c-0.079-0.073-0.15-0.455-0.191-0.698c-0.137-1.126-0.126-2.411-0.075-3.701
				c0.017-1.184,0.144-2.377,0.251-3.589c1.307-1.817,2.742-3.628,4.27-5.552l0.008-0.01c0.041-0.052,0.059-0.12,0.043-0.188
				c-0.025-0.124-0.146-0.202-0.27-0.175c-1.834,0.396-3.496,1.215-5.041,2.214c-1.555,0.998-2.95,2.242-4.199,3.65
				c-1.226,1.424-2.229,3.073-2.885,4.87l-0.813,2.473c-0.283,0.767-0.6,1.529-0.941,2.285c-1.441,2.992-3.252,5.884-5.223,8.678
				c-1.952,2.813-4.137,5.494-6.43,8.085c-0.066,0.075-0.077,0.196-0.014,0.279c0.072,0.096,0.209,0.115,0.305,0.042
				c2.793-2.112,5.344-4.511,7.81-7.03c2.426-2.554,4.685-5.309,6.587-8.388c0.489-0.763,0.956-1.545,1.396-2.354
				c0.455-0.813,0.863-1.678,1.229-2.305c0.412-0.735,0.842-1.458,1.283-2.179c-0.322,0.871-0.592,1.779-0.752,2.776
				c-0.061,0.415-0.126,0.692-0.156,1.275l-0.025,0.252c-0.001,0.118,0.018,0.313,0.033,0.468c0.038,0.31,0.078,0.561,0.156,0.835
				c0.3,1.083,1.03,1.922,1.813,2.385c0.791,0.473,1.611,0.7,2.434,0.726c0.816,0.034,1.629-0.096,2.445-0.542
				c0.004-0.002,0.01-0.005,0.014-0.008c0.134-0.083,0.174-0.258,0.09-0.392L346.736,273.288z"/>
		</g>
	</g>
	<g id="&#x424;&#x438;&#x433;&#x443;&#x440;&#x430;_334">
		<g>
			<path style="fill-rule:evenodd;clip-rule:evenodd;fill:#92D4EB;" d="M269.057,107.404c-5.849-9.747-5.357-25.348-5.357-25.348
				s-11.334,3.891-17.619,10.286c-7.342,7.471-9.8,17.614-9.8,17.614s-4.968-5.719-7.862-4.526
				c-4.787,1.971-8.493,11.261-8.493,11.261s-10.854-6.302-17.304-5.989c-7.981,0.386-11.888,7.402-11.888,7.402
				s-13.887,2.047-20.381-5.92c-6.494-7.968,5.799-22.431,5.799-22.431s-15.008-0.499-24.208,12.879
				c-9.2,13.379-1.768,24.641-1.768,24.641s-7.165,1.756-12.009-1.767c-5.673-4.126-7.172-12.724-7.172-12.724
				s-17.021,26.821,4.551,34.512l-0.281,0.663c0,0-8.139,16.159-23.261,14.776c-15.122-1.383-11.854-18.144-11.854-18.144
				s-11.167,10.699-4.944,25.07c6.223,14.371,20.788,12.36,20.788,12.36s-4.419,5.148-3.95,10.248
				c0.507,5.513,5.904,11.007,5.904,11.007s-2.475,4.191-7.003,5.529c-5.877,1.736-14.162,0.725-14.162,0.725
				s4.448,11.066,12.9,14.187c7.055,2.604,13.617-1.379,16.202-3.394c2.586-2.015,5.733-10.415,7.16-20.05
				c1.882-12.702,2.252-19.995,7.81-31.347c6.039-12.336,21.559-6.388,21.559-6.388l0.424-0.668
				c1.229,2.334,2.173,4.128,3.694,4.366c1.913,0.3,7.097-3.056,13.381-7.278l0.088,0.093c0,0,0.022-0.07,0.06-0.192
				c8.807-5.922,19.733-13.498,26.878-15.141c12.296-2.825,27.028,7.667,27.028,7.667s-7.035,5.441-16.325,15.663
				c-3.407,3.748-0.128,18.847,3.841,23.2c9.578,10.505,21.68,10.588,25.134,20.331c4.045,11.409-13.521,16.026-13.521,16.026
				s3.653,2.541,8.335,4.05c4.696,1.514,10.966-1.682,13.511-8.39c9.253-24.388-12.929-32.618-12.406-39.674
				c1.022-13.8,12.822-8.106,18.94-19.528c4.426-8.26,2.676-16.038,3.367-19.195c0.02-0.084,0.076-0.163,0.102-0.246l0.199,0.006
				l-0.068-0.326c1.185-2.871,6.148-5.16,7.615-9.956C274.252,128.236,277.457,121.403,269.057,107.404z"/>
		</g>
	</g>
	<g id="&#x424;&#x438;&#x433;&#x443;&#x440;&#x430;_334_&#x43A;&#x43E;&#x43F;&#x438;&#x44F;">
		<g>
			<path style="fill-rule:evenodd;clip-rule:evenodd;fill:#5E61A6;" d="M242.534,182.593c0.18-2.421,0.696-4.232,1.449-5.65
				c-4.921,0.982-11.547,1.784-17.93,0.882c-6.096-0.862-7.931-6-8.23-10.973c-0.062,0.067-0.121,0.13-0.182,0.197
				c-3.407,3.748-0.128,18.847,3.841,23.2c9.578,10.505,21.68,10.588,25.134,20.331c0.741,2.089-1.103,7.071-1.103,7.071
				s9.757-1.335,11.097-11.916C253.844,193.521,242.153,187.74,242.534,182.593z M243.822,147.689
				c12.734-8.006,3.21-12.039,3.21-12.039s-3.702,2.322-7.013,4.672c-4.199,2.979-9.525,8.501-9.525,8.501l2.13,3.656
				C232.625,152.479,236.314,152.41,243.822,147.689z M254.992,104.114c-7.602-3.592-18.059,4.991-18.059,4.991
				s-0.859,6.777-5.713,10.308c-4.082,2.969-10.332,0.164-10.332,0.164s0.768,5.264-1.86,6.841
				c-2.371,1.423-6.557,0.998-8.742,0.645c0.934,3.642-3.701,7.716-7.361,8.777c-5.478,1.59-10.994-2.166-10.994-2.166
				s-0.213,5.125-3.985,9.259c-3.296,3.611-7.464,5.025-7.464,5.025s2.834-19.869-6.709-21.653
				c-11.882-1.178-14.299-6.453-13.977-18.998c0.175-6.81,7.371-13.184,14.527-17.479c-4.261,0.338-15.115,2.243-22.378,12.805
				c-7.204,10.477-2.578,23.117-2.578,23.117s26.889-0.793,23.403,11.818c-2.755,9.967-16.185,14.051-23.735,11.532
				c-9.246-3.084-13.77-1.143-13.77-1.143s-2.231,4.386-6.49,8.394c0.824,5.204,0.382,11.257-5.369,15.947
				c-6.497,5.299-15.192,6.432-22.499,5.194c6.075,5.097,13.42,4.69,14.824,4.555l8.469-2.822c0,0-2.277,6.251-2.769,12.89
				c-0.47,6.343,0.243,14.559,0.243,14.559l-13.61,2.75c0,0,3.856,6.035,7.812,8.594c5.235,3.385,10.261-0.357,10.261-0.357
				s3.66,4.529,6.907-17.387c1.882-12.702,2.252-19.995,7.81-31.347c8.662-17.693,25.677-2.689,25.677-2.689l12.9-8.301
				l23.659-14.578l14.106,0.558c0,0,10.153-21.086,25.354-23.902c12.207-2.263,20.198,7.976,24.498,16.044
				c1.067,0.477,2.104,0.997,3.049,1.609c1.088-1.216,2.067-2.604,2.593-4.32c0.8-2.615,2.02-5.69,1.904-9.938
				C270.033,118.001,262.863,107.834,254.992,104.114z"/>
		</g>
	</g>
	<g id="&#x424;&#x438;&#x433;&#x443;&#x440;&#x430;_342">
		<g>
			<path style="fill-rule:evenodd;clip-rule:evenodd;fill:#DDF4FC;" d="M240.084,158.24c-14.461,0.571-22.849,15.784-10.432,15.272
				C238.181,173.162,251.448,157.791,240.084,158.24z M270.367,112.508c-6.412-10.417-8.346-23.168-8.592-29.488
				c0,0-6.793,4.437-9.771,10.259c-2.189,4.278-0.36,10.906-0.36,10.906s5.101,3.048,9.579,6.716
				c5.115,4.189,10.084,13.758,10.084,13.758S274.641,119.449,270.367,112.508z M193.439,123.636
				c-3.067,0.722-1.323,9.741,8.208,8.93C211.177,131.754,196.506,122.915,193.439,123.636z M246.082,126.943
				c-7.486-0.181-22.759,7.877-14.281,9.229C240.28,137.526,253.568,127.124,246.082,126.943z M152.101,134.94
				c-15.874,5.772,5.321,15.093,12.597,5.382C171.973,130.611,167.975,129.168,152.101,134.94z M110.729,162.405
				c-7.652-1.178-14.428-10.599-14.428-10.599s-1.49,17.185,12.821,19.38c14.311,2.194,18.446-14.569,18.446-14.569
				S118.704,163.632,110.729,162.405z"/>
		</g>
	</g>
	<g id="&#x417;&#x430;&#x43B;&#x438;&#x432;&#x43A;&#x430;_&#x446;&#x432;&#x435;&#x442;&#x43E;&#x43C;_202">
		<g>
			<path style="fill-rule:evenodd;clip-rule:evenodd;fill:#4D4F7E;" d="M271.564,105.26c-5.222-8.702-4.85-23.234-4.846-23.381
				l0.156-5.216l-4.934,1.693c-0.496,0.17-12.217,4.246-19.021,11.168c-4.455,4.534-7.253,9.903-8.871,13.828
				c-1.614-1.103-3.485-1.982-5.348-1.982c-0.787,0-1.542,0.146-2.243,0.436c-3.956,1.629-6.993,6.231-8.78,9.626
				c-4.066-2.02-10.809-4.882-15.818-4.623c-7.261,0.353-11.777,5.001-13.735,7.575c-0.539,0.033-1.199,0.061-1.945,0.061
				c-3.616,0-10.192-0.628-13.616-4.829c-3.733-4.579,3.075-14.65,5.751-17.814l4.785-5.653l-7.414-0.288l-0.33-0.005
				c-2.846,0-17.517,0.696-26.972,14.445c-6.577,9.564-5.736,18.226-4.118,23.472c-1.482-0.115-3.212-0.488-4.564-1.471
				c-4.392-3.195-5.729-10.364-5.74-10.427l-1.602-9.182l-4.998,7.867c-0.46,0.726-11.219,17.916-5.026,30.425
				c1.597,3.225,4.109,5.786,7.499,7.682c-2.767,3.985-9.003,11.028-18.09,10.186c-3.13-0.286-5.353-1.353-6.793-3.26
				c-3.038-4.019-1.859-10.548-1.849-10.601l2.177-11.164l-8.213,7.869c-0.53,0.508-12.897,12.625-5.758,29.109
				c4.077,9.414,11.655,13.171,17.866,14.279c-0.897,2.107-1.55,4.618-1.311,7.226c0.392,4.266,2.899,8.259,4.798,10.727
				c-0.832,0.789-1.961,1.615-3.327,2.019c-5.073,1.499-12.63,0.611-12.705,0.604l-6.056-0.73l2.274,5.657
				c0.206,0.513,5.158,12.592,14.999,16.226c2.083,0.77,4.114,1.08,6.035,1.08c6.569,0,11.863-3.634,13.632-5.011
				c4.058-3.161,7.2-13.513,8.514-22.369c0.266-1.797,0.502-3.485,0.727-5.094c1.343-9.609,2.23-15.957,6.754-25.195
				c4.235-8.651,15.142-5.261,16.82-4.678c1.189,1.947,2.652,3.59,5.058,3.967c0.254,0.04,0.524,0.063,0.815,0.063
				c2.932,0,6.922-2.414,14.371-7.399c0.591-0.202,1.12-0.559,1.539-1.033c0.351-0.236,0.697-0.469,1.063-0.715
				c7.995-5.388,17.945-12.094,23.987-13.481c1.131-0.26,2.357-0.392,3.645-0.392c6.071,0,12.431,2.835,16.422,5.015
				c-3.029,2.685-7.574,6.968-12.842,12.764c-5.291,5.822-0.653,23.124,3.845,28.057c4.549,4.988,9.332,7.564,13.174,9.635
				c4.84,2.607,8.038,4.329,9.765,9.424c0.597,1.759,0.519,3.289-0.244,4.813c-2.005,4.007-8.167,6.755-10.365,7.474l-6.678,2.152
				l5.635,4.179c0.38,0.282,3.872,2.789,9.184,3.84c0.868,0.171,1.79,0.259,2.74,0.259c5.851-0.001,13.443-3.414,16.287-10.908
				c6.694-17.649-2.037-28.561-7.814-35.78c-2.305-2.881-4.688-5.859-4.411-7.435c0.958-5.453,2.642-5.867,6.33-6.772
				c3.658-0.898,8.668-2.129,12.236-8.792c3.677-6.859,4.385-14.246,4.806-18.659c0.074-0.779,0.147-1.512,0.223-2.099
				c0.236-0.401,0.395-0.846,0.461-1.32c0.286-0.326,0.71-0.719,1.103-1.082c1.584-1.47,3.754-3.48,4.893-7.205
				c0.108-0.354,0.226-0.719,0.346-1.094C277.609,127.693,280.196,119.645,271.564,105.26z M202.209,114.017
				c4.506-0.201,12.614,3.939,15.32,5.507l3.614,2.095l1.547-3.879c1.204-3.016,3.924-7.805,6.167-9.09
				c0.928,0.359,2.807,1.89,4.113,3.384l1.978,2.273l1.246,5.19c-1.514,0.607-3.028,1.322-4.525,2.149
				c-7.82,4.322-13.316,11.843-15.862,15.872c0.611-4.017,0.659-9.918-3.123-13.858c-4.27-4.448-10.347-7.019-14.813-8.415
				C199.081,114.59,200.522,114.098,202.209,114.017z M123.08,217.188c-1.544,1.204-7.024,4.965-12.733,2.855
				c-3.377-1.247-6.051-4.218-7.894-6.909c2.811-0.041,6.08-0.316,8.928-1.158c2.725-0.806,4.833-2.339,6.337-3.785l7.781,4.563
				C124.544,215.18,123.645,216.734,123.08,217.188z M129.609,194.421c-0.222,1.589-0.455,3.259-0.719,5.034
				c-0.333,2.244-0.75,4.319-1.207,6.216l-6.208-3.641l-1.541-1.57c-1.167-1.188-4.567-5.354-4.885-8.81
				c-0.197-2.15,1.086-4.667,2.147-6.277c1.75-0.225,10.293-1.623,15.649-8.009c0.035-0.041,0.069-0.077,0.104-0.117
				C131.229,182.864,130.495,188.082,129.609,194.421z M137.762,165.701c-2.333,0.67-6.6,2.446-10.444,7.027
				c-2.372,2.829-5.9,4.239-8.354,4.919l-4.03,0.509c-0.486,0.064-11.985,1.374-17.004-10.216c-1.984-4.582-1.863-8.72-0.951-12.089
				c0.518,1.395,1.226,2.771,2.184,4.05c2.698,3.596,6.71,5.66,11.926,6.138c14.062,1.277,22.67-9.98,25.646-14.724
				c2.123,0.53,4.438,0.91,6.96,1.126c5.637,0.483,9.034,2.41,11.343,4.789C148.947,156.921,141.899,158.672,137.762,165.701z
				 M165.448,159.91c-2.648-5.033-7.08-13.455-21.137-14.659c-8.177-0.7-13.392-3.209-15.502-7.458
				c-2.289-4.61-0.878-11.046,1.118-16.195c1.294,2.359,3.086,4.758,5.533,6.538c2.604,1.894,6.047,2.895,9.955,2.895
				c2.748,0,4.809-0.486,5.036-0.541l3.235-0.811c6.443-0.296,17.339,0.191,21.691,4.664c4.509,4.635,2.456,16.561,0.993,21.966
				c-3.731,2.493-7.752,5.097-9.657,5.855C166.333,161.593,165.837,160.65,165.448,159.91z M189.375,147.716
				c-1.487,0.93-2.98,1.896-4.465,2.874c0.907-6.532,0.889-14.986-3.615-20.442c2.576,0.407,5.03,1.405,6.36,3.545
				C190.677,138.553,189.956,144.794,189.375,147.716z M205.543,139.915c-2.942,0.676-6.333,2.184-9.911,4.125
				c0.188-3.958-0.325-8.972-3.075-13.394c-4.746-7.637-15.708-6.782-20.075-6.094c-7.72-2.612-17.042-2.277-21.014-1.974
				c-1.284-3.493-2.529-10.353,2.861-18.191c3.987-5.798,9.236-8.629,13.521-10.008c-3.177,5.755-5.811,13.746-0.881,19.795
				c5.308,6.512,14.313,7.484,19.209,7.484c2.558,0,4.303-0.246,4.493-0.274l1.415-0.226c3.72,0.794,11.177,3.108,15.39,7.498
				c2.249,2.342,1.318,8.292,0.508,10.846C207.15,139.598,206.334,139.734,205.543,139.915z M261.691,145.132
				c-0.395,4.124-0.991,10.356-3.982,15.939c-2.052,3.83-4.378,4.4-7.597,5.191c-4.196,1.031-9.944,2.442-11.717,12.531
				c-0.841,4.787,2.425,8.869,5.884,13.191c5.595,6.991,11.936,14.916,6.702,28.714c-1.558,4.104-5.979,6.25-9.541,6.251
				c-0.366,0-0.713-0.024-1.039-0.07c2.658-1.763,5.365-4.188,6.962-7.36c1.625-3.232,1.847-6.824,0.639-10.387
				c-2.639-7.784-7.996-10.67-13.177-13.46c-3.708-1.998-7.543-4.063-11.264-8.145c-3.271-3.586-5.471-16.062-3.837-18.342
				c6.146-6.762,11.312-11.407,13.959-13.664c0.063-0.027,0.128-0.041,0.191-0.072l0.033-0.016c1.771-0.876,3.41-1.774,5.076-2.735
				c1.653-0.963,3.284-1.974,4.87-3.112c0.79-0.579,1.578-1.17,2.322-1.875c0.763-0.733,1.398-1.531,1.937-2.375
				c1.063-1.688,1.747-3.521,2.012-5.365c-0.883,1.629-2.11,3.008-3.478,4.049c-1.372,1.055-2.868,1.603-4.553,2.181
				c-1.237,0.403-2.518,0.737-3.808,1.047c0.417-0.613,0.843-1.219,1.281-1.814c1.699-2.299,3.558-4.481,5.673-6.271
				c2.091-1.767,4.533-3.104,7.339-3.7c2.779-0.591,5.817-0.528,8.699,0.329c-2.637-1.469-5.715-2.263-8.891-2.299
				c-3.163-0.035-6.503,0.813-9.325,2.475c-2.829,1.604-5.305,3.62-7.615,5.76c-1.153,1.075-2.263,2.189-3.335,3.338l-0.577,0.638
				c-2.424-1.374-5.79-3.06-9.616-4.353c2.142-3.387,6.819-9.843,13.239-13.391c7.595-4.199,14.026-4.255,17.51-2.902
				c2.101,0.814,6.474,4.792,7.793,7.085c0.483,0.907,1.275,4.892,1.798,8.917c-0.027,0.103-0.063,0.198-0.087,0.305
				C261.957,142.355,261.84,143.581,261.691,145.132z M269.029,130.813c-0.131,0.407-0.258,0.804-0.377,1.19
				c-0.12,0.392-0.267,0.738-0.428,1.063c-0.416-1.836-0.917-3.497-1.502-4.513c-1.943-3.373-7.479-8.686-11.445-10.223
				c-4.25-1.647-9.507-1.672-14.962-0.208l-1.475-6.146l0.358-1.452c0.023-0.093,2.352-9.311,8.868-15.942
				c3.205-3.26,8.021-5.855,11.572-7.488c0.367,5.785,1.619,15.014,5.738,21.878C272.325,120.552,270.498,126.241,269.029,130.813z"
				/>
		</g>
	</g>
	<g id="&#x424;&#x438;&#x433;&#x443;&#x440;&#x430;_335_&#x43A;&#x43E;&#x43F;&#x438;&#x44F;">
		<g>
			<path style="fill-rule:evenodd;clip-rule:evenodd;fill:#C34A5E;" d="M414.082,159.924c0,0,7.926-9.923,6.606-18.17
				c-1.017-6.356-9.793-10.632-9.793-10.632s3.001,15.446-10.168,14.244c-13.168-1.202-15.087-15.808-15.087-15.808
				s15.677-14.083,4.042-26.95c-11.635-12.868-26.891-8.525-26.891-8.525s8.044,3.443,9.216,12.162
				c1.173,8.719-8.734,11.89-8.734,11.89s-0.532-10.422-11.506-12.195c-10.973-1.773-16.574,2.694-20.994,3.355
				c-4.42,0.662-7.516-0.271-10.191-3.607s-2.713-10.501-17.504-7.194c-14.793,3.308-18.544,10.081-21.1,14.35
				c-2.555,4.27-8.135,3.305-11.318,8.078c-3.533,5.3-1.52,9.931-2.15,12.125c-0.631,2.195-10.223,6.893-9.527,16.313
				c0.948,12.879,17.494,17.66,11.211,31.55c-2.453,5.424-10.407,4.322-9.806,19.985c0.335,8.723,6.631,12.817,12.466,13.268
				c4.643,0.358,6.239-3.159,6.239-3.159s-10.979-1.518-6.379-12.461c4.601-10.943,17.724-14.135,19.58-22.526
				c1.618-7.318-9.176-21.821-7.879-27.684c1.76-7.956,15.482-5.695,15.482-5.695s24.464-2.642,33.59,11.89
				c18.55,29.535,33.153,12.192,33.153,12.192s-6.254-4.629-5.893-10.04c0.36-5.412,2.284-8.961,2.284-8.961
				s4.966,2.389,9.239,5.713c6.188,4.813,9.491,8.177,13.7,16.985c2.212,4.63,3.034,10.817,4.183,18.765
				c1.037,7.177,6.123,11.962,7.292,23.128c1.036,9.902,2.583,15.184,13.192,11.65c7.316-2.438,7.562-14.519,7.562-14.519
				s-4.96,3.099-9.229-5.35s-1.052-11.577,2.706-16.898s6.851-6.616,8.828-15.185C422.092,165.13,414.082,159.924,414.082,159.924z"
				/>
		</g>
	</g>
	<g id="&#x424;&#x438;&#x433;&#x443;&#x440;&#x430;_335">
		<g>
			<path style="fill-rule:evenodd;clip-rule:evenodd;fill:#F99F8B;" d="M337.576,119.855c4.076-3.878,8.443-4.038,13.225-3.687
				c7.416,0.545,11.236,2.155,11.236,2.155s5.018-7.325-10.27-12.385c-10.553-3.493-16.574,2.694-20.994,3.355
				c-1.71,0.256-3.219,0.266-4.584-0.002c-2.729,1.788-6.726,4.242-12.094,7.124c-7.587,4.072-0.984,15.683-0.984,15.683
				s-3.424-1.792-7.465-4.001c-5.137-2.809-10.908-6.764-7.959-13.723c1.914-4.516,11.406-9.031,22.69-9.211
				c-1.837-3.206-4.895-10.221-17.3-6.672c-14.572,4.169-18.544,10.081-21.1,14.35c-2.555,4.27-8.135,3.305-11.318,8.078
				c-3.533,5.3-1.52,9.931-2.15,12.125c-0.356,1.24-3.652,3.164-4.969,5.636c-1.317,2.471-1.674,8.727,2.438,13.507
				s8.676,1.926,12.471,8.364c8.11,13.76-0.171,18.711-10.669,24.791c-2.987,2.415-7.605,6.034-8.26,14.018
				c-0.713,8.699,5.423,14.387,11.257,14.837c4.644,0.358,8.314-3.195,8.314-3.195s-10.979-1.518-6.379-12.461
				c4.601-10.943,17.724-14.135,19.58-22.526c1.618-7.318-8.943-22.705-7.879-27.684c0.554-2.594,2.888-5.951,12.281-6.848
				c8.637-0.824,22.476-1.447,33.315,8.898c-1.441-5.369-1.564-11.284-0.789-16.033C330.25,128.048,333.499,123.734,337.576,119.855
				z M389.683,102.608c-7.588-8.393-16.691-9.455-22.124-9.186c11.189,6.962,24.391,18.316,6.731,25.555
				c-9.751,3.998-15.394,2.44-18.044,1.001c-3.855,1.455-9.277,4.289-12.895,9.524c-3.217,4.657-6.221,6.241-6.148,10.968
				c0.072,4.726,3.316,9.737,8.834,12.401c12.223,5.901,15.515-0.36,14.884-3.156c-0.632-2.796,4.098-9.404,5.867-11.314
				c5.124-5.529,13.529-7.736,20.209-10.213C390.537,124.35,399.148,113.077,389.683,102.608z M414.082,159.924
				c0,0,7.926-9.923,6.606-18.17c-1.017-6.356-9.793-10.632-9.793-10.632s3.001,15.446-10.168,14.244
				c-6.294-0.575-10-4.213-12.173-7.854c-0.658,2.502-1.005,5.173-0.662,7.785c2.732,20.833,22.312,15.375,22.312,15.375
				s-10.612,5.694-11.41,9.127c-1.488,6.404-3.374,10.923,1.155,15.809c2.374,2.563,7.117,4.355,10.4,2.154
				c3.283-2.2,9.118-11.262,10.155-15.755C422.092,165.13,414.082,159.924,414.082,159.924z"/>
		</g>
	</g>
	<g id="&#x424;&#x438;&#x433;&#x443;&#x440;&#x430;_343">
		<g>
			<path style="fill-rule:evenodd;clip-rule:evenodd;fill:#FFDDDD;" d="M348.604,132.467c-2.423,4.369-4.512,9.899,0.059,13.868
				c6.578,5.713,5.689-2.29,10.096-9.87c2.972-5.111,8.233-6.817,7.101-8.83C364.431,125.097,352.126,126.113,348.604,132.467z
				 M329.682,119.73c-4.997-1.17-5.462-6.857-5.462-6.857s-6.374,0.725-9.779,4.519c-4.776,5.322-3.6,11.506-3.6,11.506
				c11.063-11.425,18.279,6.554,18.279,6.554s0.7-6.231,4.224-11.015c3.193-4.335,9.245-7.265,9.245-7.265
				S333.779,120.689,329.682,119.73z M296.545,107.341c-3.127-2.001,0.646-7.997,0.646-7.997s-8.67,2.865-12.073,6.836
				c-3.792,4.423-4.342,4.979-5.063,10.512c-0.721,5.532,8.658,11.545,8.658,11.545s-0.723-7.314,2.192-8.455
				c2.598-1.017,8.872,4.126,8.872,4.126s-3.728-4.206-2.406-7.414c1.928-4.684,9.141-8.941,9.141-8.941
				S299.421,109.182,296.545,107.341z M281.498,131.604c0,0-8.058-1.684-11.364-0.512c-3.308,1.173-6.915,8.208-6.915,8.208
				s6.193-0.544,10.82,2.189c5.478,3.236,9.533,9.836,9.533,9.836s-0.37-4.101,1.449-6.499c2.164-2.854,5.616-2.46,5.616-2.46
				S273.951,140.231,281.498,131.604z M407.708,161.397c6.435-0.902,2.706-19.692,2.706-19.692s-2.937,3.339-6.551,3.441
				c-4.668,0.134-10.285-2.961-10.285-2.961S399.188,162.592,407.708,161.397z M400.794,167.681
				c-3.428,3.728,9.019,19.722,13.979,14.101C419.734,176.159,404.221,163.952,400.794,167.681z"/>
		</g>
	</g>
	<g id="&#x417;&#x430;&#x43B;&#x438;&#x432;&#x43A;&#x430;_&#x446;&#x432;&#x435;&#x442;&#x43E;&#x43C;_203">
		<g>
			<path style="fill-rule:evenodd;clip-rule:evenodd;fill:#8E2C3C;" d="M419.028,158.674c2.568-3.956,6.388-11.221,5.288-18.092
				c-1.336-8.359-10.766-11.866-11.166-12.012l-5.666-2.053l0.868,5.965c0.005,0.046,0.57,4.684-1.538,7.12
				c-1.123,1.3-2.994,1.815-5.693,1.567c-7.875-0.719-10.63-7.774-11.491-11.047c2.589-2.791,7.604-9.135,7.999-16.744
				c0.261-5.044-1.489-9.685-5.204-13.793c-7.786-8.611-16.671-10.419-22.753-10.419c-3.954,0-6.61,0.772-6.901,0.86l-8.802,2.674
				l8.272,4.022c0.054,0.026,5.366,2.783,6.257,9.399c0.376,2.801-1.136,4.776-2.77,6.062c-1.772-4.37-5.707-9.18-13.318-10.409
				c-1.888-0.305-3.756-0.46-5.551-0.46c-5.742,0-9.951,1.562-13.026,2.702c-1.403,0.521-2.616,0.97-3.528,1.106
				c-3.28,0.493-5.037-0.044-6.844-2.296c-0.295-0.368-0.627-0.984-0.979-1.637c-1.563-2.902-4.177-7.761-12.685-7.761
				c-2.185,0-4.62,0.308-7.444,0.939c-15.975,3.571-20.52,11.184-23.234,15.731l-0.172,0.286c-0.617,1.031-1.718,1.531-3.611,2.328
				c-2.402,1.011-5.39,2.268-7.611,5.601c-3.119,4.678-2.845,9.061-2.682,11.678c0.024,0.377,0.055,0.85,0.065,1.158
				c-0.324,0.328-0.847,0.804-1.258,1.178c-3.155,2.872-9.026,8.219-8.401,16.691c0.482,6.56,4.182,11.193,7.444,15.282
				c4.464,5.593,6.673,8.779,4.077,14.517c-0.37,0.818-1.3,1.501-2.785,2.546c-3.688,2.595-9.263,6.517-8.781,19.063
				c0.409,10.641,8.352,17.594,15.792,18.17c0.295,0.022,0.583,0.033,0.868,0.033c0.002,0,0.002,0,0.002,0
				c5.926,0,9.566-4.567,9.963-5.088l3.394-4.466l-5.471-1.236c-0.03-0.007-3.133-0.827-4.251-3.001
				c-0.698-1.354-0.562-3.207,0.404-5.505c1.97-4.686,5.998-7.853,9.891-10.915c4.273-3.358,8.691-6.832,9.884-12.229
				c1.112-5.022-1.705-11.37-4.431-17.509c-1.514-3.411-3.803-8.566-3.445-10.177c0.359-1.626,1.117-3.214,5.979-3.214
				c1.233,0,2.499,0.104,3.615,0.197c0.85,0.07,1.618,0.131,2.265,0.149c1.367,0.038,2.888,0.007,4.516-0.029
				c1.148-0.024,2.356-0.052,3.601-0.052c8.342,0,16.844,1.246,22.519,10.282c7.894,12.568,16.341,18.94,25.107,18.94
				c8.425,0,13.644-6.084,13.861-6.344l2.444-2.925l-3.049-2.29c-1.212-0.911-4.634-4.138-4.449-6.908
				c0.104-1.542,0.355-2.908,0.642-4.037c1.533,0.903,3.367,2.072,5.067,3.396c5.586,4.345,8.655,7.309,12.66,15.694
				c1.88,3.932,2.691,9.565,3.719,16.697l0.148,1.027c0.52,3.59,1.837,6.507,3.232,9.597c1.689,3.738,3.436,7.604,4.042,13.392
				c0.439,4.198,1.607,15.352,12.8,15.352c1.439,0,2.985-0.18,4.729-0.549c3.68-0.78,6.591-2.71,8.42-5.578
				c3.394-5.327,1.992-11.971,1.82-12.711l-0.791-5.479l-4.291,3.023c-0.048,0.007-0.114,0.015-0.193,0.015
				c-0.963,0-2.561-1.128-4.16-4.295c-2.919-5.774-1.722-7.43,1.475-11.853c0.313-0.433,0.634-0.878,0.958-1.337
				c0.937-1.327,1.852-2.405,2.735-3.448c2.586-3.051,5.028-5.933,6.661-13.008C425.475,166.199,421.842,161.377,419.028,158.674z
				 M332.435,146.737c-0.018-0.018-0.035-0.036-0.053-0.054c-0.171-2.962-0.254-5.754-0.081-8.432
				c0.123-2.131,0.236-4.209,0.777-6.23c0.274-1.029,0.644-1.936,1.074-3.017c0.44-1.034,0.861-2.169,1.393-3.232
				c1.021-2.157,2.496-4.148,4.494-5.403c0.988-0.631,2.124-1.023,3.229-1.2c0.276-0.043,0.551-0.078,0.819-0.096l0.865-0.059
				l1.649-0.063c1.103-0.049,2.178-0.153,3.274-0.298l2.364-0.226c-4.255,2.418-8.83,5.698-11.661,9.729
				C335.463,135.441,333.218,141.7,332.435,146.737z M336.343,110.782c2.845-1.055,6.069-2.252,10.517-2.252
				c1.411,0,2.891,0.124,4.399,0.367c4.911,0.794,6.978,3.831,7.848,6.135c-0.288,0.124-0.593,0.257-0.906,0.396
				c-1.476-0.767-3.066-1.263-4.695-1.583c-2.577-0.452-5.356-0.543-7.942,0.403c-0.621,0.23-1.299,0.539-1.889,0.882l-0.868,0.535
				c-0.306,0.19-0.592,0.399-0.871,0.61c-1.118,0.842-2.054,1.771-3.017,2.606c-1.897,1.7-3.832,3.265-5.851,4.927
				c-4.142,3.007-7.081,8.877-6.931,14.361c0.035,1.439,0.229,2.849,0.55,4.215c-2.635-1.471-5.391-2.422-8.146-3.025
				c-0.301-1.588-0.782-3.143-1.396-4.653c-0.52-1.328-1.186-2.603-1.943-3.834c-0.373-0.619-0.798-1.209-1.225-1.802l-0.334-0.434
				l-0.365-0.444c-0.342-0.38-0.646-0.683-0.964-0.974c-0.372-0.32-0.75-0.606-1.129-0.873v-0.019
				c0.028-2.308,0.872-4.479,2.233-6.021c1.387-1.617,2.948-2.581,4.977-3.229c1-0.325,2.096-0.466,3.17-0.648
				c1.078-0.171,2.127-0.478,3.178-0.902c1.956-0.786,3.942-1.688,5.979-3.191c0.218-0.027,0.426-0.042,0.651-0.076
				C333.025,112.013,334.637,111.415,336.343,110.782z M317.832,107.342c1.008,1.256,2.104,2.271,3.295,3.064
				c-0.44,0.13-0.876,0.279-1.301,0.471c-1.188,0.53-2.326,1.212-3.47,1.904c-1.139,0.696-2.272,1.483-3.288,2.518
				c-1.023,1.062-1.697,2.218-2.26,3.483c-0.94,2.316-1.121,4.839-0.406,7.049c-2.059-1.267-4.147-1.896-5.975-2.51
				c-1.207-0.38-2.328-0.771-3.173-1.239c-0.861-0.483-1.316-0.936-1.546-1.579c-0.5-1.314,0.234-4.053,1.332-5.917
				c1.111-1.975,2.918-3.587,5.099-4.717c3.414-1.803,7.472-2.551,11.565-2.699C317.749,107.227,317.787,107.286,317.832,107.342z
				 M273.728,122.319c0.968-1.453,2.306-2.068,4.405-2.952c0.592-0.249,1.22-0.515,1.859-0.824
				c-0.294,1.366-0.314,2.874,0.111,4.395c0.487,1.787,1.674,3.47,3.137,4.608c0.35,0.287,0.764,0.563,1.104,0.77l0.871,0.555
				c0.531,0.337,1.104,0.695,1.63,1.059c2.138,1.438,4.179,2.884,5.648,4.569c0.734,0.845,1.319,1.743,1.646,2.852
				c0.069,0.232,0.116,0.481,0.157,0.734c-0.032,0-0.064-0.001-0.097-0.001c-1.168-1.063-2.358-2.107-3.6-3.108
				c-1.871-1.496-3.811-2.931-5.992-4.184c-0.266-0.156-0.574-0.313-0.859-0.468c-0.244-0.129-0.53-0.288-0.867-0.418
				c-0.637-0.264-1.284-0.49-1.932-0.67c-1.299-0.367-2.606-0.597-3.907-0.733c-1.302-0.14-2.596-0.184-3.888-0.164
				c-0.328,0.008-0.649,0.018-0.969,0.031C272.116,126.481,272.265,124.513,273.728,122.319z M280.957,146.95
				c-0.868,3.927,1.34,8.901,3.898,14.662c2.039,4.597,4.578,10.317,3.979,13.022c-0.636,2.878-3.724,5.305-7.298,8.115
				c-4.402,3.46-9.391,7.383-12.084,13.791c-1.832,4.357-1.889,8.262-0.168,11.604c0.678,1.317,1.559,2.392,2.508,3.264
				c-0.014-0.001-0.025-0.002-0.04-0.003c-4.292-0.332-8.884-4.632-9.14-11.253c-0.33-8.625,2.476-10.6,5.724-12.885
				c1.878-1.321,4.009-2.819,5.208-5.475c4.535-10.027-0.758-16.66-5.012-21.99c-2.863-3.589-5.568-6.979-5.889-11.313
				c-0.366-4.971,3.351-8.354,6.063-10.825c0.784-0.713,1.461-1.333,2.011-1.958c0.084-0.025,0.168-0.036,0.251-0.067
				c1.779-0.679,3.999-1.211,6.027-1.444c1.032-0.119,2.06-0.165,3.058-0.11c0.502,0.024,0.989,0.082,1.467,0.164l0.791,0.146
				l0.772,0.164c2.145,0.504,4.33,1.286,6.479,2.163c1.069,0.44,2.135,0.906,3.192,1.397
				C284.577,138.538,281.81,143.092,280.957,146.95z M304.22,138.398c-1.497,0.032-2.897,0.064-4.157,0.029
				c-0.534-0.015-1.168-0.07-1.87-0.128c-0.458-0.038-0.945-0.076-1.445-0.111c0.091-0.24,0.173-0.485,0.236-0.738
				c0.437-1.727,0.132-3.627-0.544-5.218c-1.41-3.218-3.89-5.437-6.416-7.117c-0.654-0.41-1.28-0.803-1.973-1.171l-1.661-0.845
				c-0.849-0.483-1.54-1.055-2.12-1.89c-0.771-1.083-1.244-2.617-1.51-4.382c0.875-0.71,1.695-1.592,2.38-2.736l0.175-0.293
				c2.392-4.007,5.668-9.494,18.615-12.388c2.27-0.508,4.243-0.766,5.868-0.766c4.196,0,5,1.492,6.332,3.965
				c0.234,0.436,0.475,0.879,0.736,1.319c-1.212-0.104-2.433-0.152-3.662-0.126c-2.734,0.063-5.526,0.433-8.234,1.428
				c-2.684,0.999-5.289,2.736-7.121,5.222c-0.901,1.225-1.62,2.646-2.108,4.039c-0.508,1.459-0.908,3.157-0.516,5.114
				c0.369,1.985,1.788,3.679,3.114,4.676c1.352,1.045,2.694,1.713,3.947,2.336c2.505,1.196,4.831,2.03,6.401,3.095l0.518,0.363
				l0.644,0.598c0.44,0.417,0.872,0.849,1.298,1.293c0.857,0.884,1.672,1.828,2.496,2.796c0.532,0.65,1.049,1.342,1.569,2.025
				C311.322,138.284,307.538,138.326,304.22,138.398z M355.604,167.567c-4.709,0-9.744-3.293-14.769-9.573
				c-0.09-0.345-0.215-0.686-0.414-1.004c-0.053-0.084-4.994-8.943,6.063-24.687c3.097-4.411,9.822-8.125,14.584-10.258l3.368-1.078
				c4.424-1.415,12.458-6.541,11.212-15.806c-0.479-3.568-1.772-6.412-3.285-8.621c4.345,0.515,9.782,2.435,14.709,7.884
				c9.045,10.002-3.256,21.374-3.777,21.847l-0.447,0.402c-1.706,1.306-5.34,3.741-9.649,4.553
				c-13.103,2.469-14.91,18.002-14.982,18.662c0,0.003,0,0.006,0,0.009c-0.447,1.624-0.848,3.629-1.002,5.938
				c-0.277,4.153,1.961,7.717,4.051,10.097C359.838,166.784,357.903,167.567,355.604,167.567z M366.978,145.073
				c1.292-2.905,3.578-6.006,7.557-6.755c3.513-0.662,6.627-2.072,9.042-3.471c2.309,5.884,7.413,12.645,16.889,13.509
				c6.463,0.588,9.997-1.94,11.808-4.032c1.608-1.858,2.477-4.046,2.928-6.088c0.971,0.945,1.771,2.113,1.991,3.485
				c0.799,4.997-3.191,11.713-5.337,14.652c-0.019,0.014-0.039,0.023-0.057,0.038l-0.013,0.011
				c-1.298,1.059-2.929,2.162-4.494,3.098c-1.593,0.949-3.242,1.795-4.93,2.472c-1.686,0.676-3.416,1.185-5.134,1.399
				c-0.858,0.104-1.712,0.137-2.545,0.07c-0.843-0.078-1.779-0.243-2.664-0.459c-2.535-0.613-5.022-1.672-7.414-2.984
				c-2.796-3.984-5.829-6.751-10.052-10.036C371.854,147.881,368.941,146.152,366.978,145.073z M389.292,168.259
				c-0.602-1.26-1.19-2.413-1.774-3.49c1.079,0.612,2.197,1.175,3.372,1.66c1.002,0.407,1.991,0.752,3.105,1.031
				c1.126,0.269,2.267,0.4,3.395,0.437c0.29,0.008,0.575-0.006,0.862-0.009c-0.102,0.152-0.204,0.301-0.306,0.455
				c-1.17,1.775-2.274,3.599-3.251,5.507c-0.982,1.876-1.787,4.062-2.074,6.184c-0.008,0.059-0.013,0.118-0.021,0.177
				C391.822,175.58,390.904,171.631,389.292,168.259z M414.892,213.24c-0.05,1.406-0.332,2.987-1.121,4.211
				c-0.785,1.22-2.033,1.997-3.816,2.374c-1.228,0.261-2.315,0.393-3.231,0.393c-2.091,0-4.692,0-5.624-8.888
				c-0.333-3.184-0.976-5.901-1.735-8.301c0.313-1.212,0.726-2.39,1.214-3.516c0.457-1.042,0.985-2.042,1.574-2.992
				c0.296-0.486,0.587-0.897,0.935-1.406c0.147-0.213,0.313-0.439,0.485-0.665c-0.454,2.858,0.021,6.264,2.244,10.664
				C408.703,210.828,412.131,212.762,414.892,213.24z M417.056,170.592c-1.24,5.369-2.79,7.197-5.137,9.966
				c-0.04,0.047-0.083,0.099-0.124,0.147c-0.185,0.093-0.362,0.203-0.529,0.338c-1.968,1.601-3.713,3.227-5.428,5.005
				c-1.69,1.779-3.308,3.665-4.635,5.869c-0.331,0.563-0.626,1.121-0.912,1.758c-0.191,0.529-0.427,1.162-0.601,1.748
				c-0.366,1.185-0.646,2.386-0.84,3.592c-0.097,0.618-0.171,1.239-0.225,1.859c-0.713-1.916-1.474-3.615-2.17-5.154
				c-1.229-2.726-2.294-5.077-2.666-7.657l-0.147-1.025c-0.158-1.098-0.313-2.154-0.466-3.188c0.145-1.192,0.471-2.349,0.902-3.432
				c0.373-0.912,0.83-1.778,1.358-2.592c0.518-0.815,1.119-1.551,1.765-2.333c1.278-1.524,2.674-2.968,4.12-4.355
				c1.442-1.376,2.975-2.745,4.475-3.955c0.162-0.131,0.326-0.293,0.46-0.464c0.057-0.072,0.096-0.152,0.146-0.228
				c1.247-0.383,2.473-0.819,3.672-1.305c1.233-0.509,2.409-1.039,3.596-1.637C415.332,165.049,417.709,167.763,417.056,170.592z"/>
		</g>
	</g>
</g>
</svg>
