<?xml version="1.0" encoding="iso-8859-1"?>
<!-- Generator: Adobe Illustrator 15.0.0, SVG Export Plug-In . SVG Version: 6.00 Build 0)  -->
<!DOCTYPE svg PUBLIC "-//W3C//DTD SVG 1.1//EN" "http://www.w3.org/Graphics/SVG/1.1/DTD/svg11.dtd" [
	<!ENTITY ns_extend "http://ns.adobe.com/Extensibility/1.0/">
	<!ENTITY ns_ai "http://ns.adobe.com/AdobeIllustrator/10.0/">
	<!ENTITY ns_graphs "http://ns.adobe.com/Graphs/1.0/">
	<!ENTITY ns_vars "http://ns.adobe.com/Variables/1.0/">
	<!ENTITY ns_imrep "http://ns.adobe.com/ImageReplacement/1.0/">
	<!ENTITY ns_sfw "http://ns.adobe.com/SaveForWeb/1.0/">
	<!ENTITY ns_custom "http://ns.adobe.com/GenericCustomNamespace/1.0/">
	<!ENTITY ns_adobe_xpath "http://ns.adobe.com/XPath/1.0/">
]>
<svg version="1.1" xmlns:x="&ns_extend;" xmlns:i="&ns_ai;" xmlns:graph="&ns_graphs;"
	 xmlns="http://www.w3.org/2000/svg" xmlns:xlink="http://www.w3.org/1999/xlink" x="0px" y="0px" width="512px" height="512px"
	 viewBox="0 0 512 512" style="enable-background:new 0 0 512 512;" xml:space="preserve">
<metadata>
	<sfw  xmlns="&ns_sfw;">
		<slices></slices>
		<sliceSourceBounds  x="94" y="94" width="512" height="512" bottomLeftOrigin="true"></sliceSourceBounds>
	</sfw>
</metadata>
<g id="&#x418;&#x437;&#x43E;&#x431;&#x440;&#x430;&#x436;&#x435;&#x43D;&#x438;&#x435;_xA0_17_1_">
	<g id="&#x417;&#x430;&#x43B;&#x438;&#x432;&#x43A;&#x430;_&#x446;&#x432;&#x435;&#x442;&#x43E;&#x43C;_1">
		<g>
			<rect x="3.699" y="4.439" style="fill-rule:evenodd;clip-rule:evenodd;fill:#B17D7B;" width="503.121" height="503.121"/>
		</g>
	</g>
	<g id="&#x417;&#x430;&#x43B;&#x438;&#x432;&#x43A;&#x430;_&#x446;&#x432;&#x435;&#x442;&#x43E;&#x43C;_5">
		<g>
			<path style="fill-rule:evenodd;clip-rule:evenodd;fill:#F3D4C3;" d="M484.624,25.156l20.717-20.717H3.699l20.717,20.717H484.624z
				 M24.416,486.844L3.699,507.561h501.642l-20.717-20.717H24.416z"/>
		</g>
	</g>
	
		<g id="&#x417;&#x430;&#x43B;&#x438;&#x432;&#x43A;&#x430;_&#x446;&#x432;&#x435;&#x442;&#x43E;&#x43C;_1_&#x43A;&#x43E;&#x43F;&#x438;&#x44F;_2">
		<g>
			<radialGradient id="SVGID_1_" cx="256.7402" cy="256" r="228.0762" gradientUnits="userSpaceOnUse">
				<stop  offset="0" style="stop-color:#7D7193"/>
				<stop  offset="0.2" style="stop-color:#7C7193"/>
				<stop  offset="0.4" style="stop-color:#6C6382"/>
				<stop  offset="0.5939" style="stop-color:#554E6B"/>
				<stop  offset="0.7515" style="stop-color:#3E3A53"/>
				<stop  offset="0.897" style="stop-color:#29273A"/>
				<stop  offset="1" style="stop-color:#232132"/>
			</radialGradient>
			<polygon style="fill-rule:evenodd;clip-rule:evenodd;fill:url(#SVGID_1_);" points="432.765,27.924 78.856,27.924 28.664,78.116 
				28.664,435.769 76.972,484.076 433.367,484.076 484.816,432.627 484.816,79.976 			"/>
		</g>
	</g>
	
		<g id="&#x417;&#x430;&#x43B;&#x438;&#x432;&#x43A;&#x430;_&#x446;&#x432;&#x435;&#x442;&#x43E;&#x43C;_1_&#x43A;&#x43E;&#x43F;&#x438;&#x44F;">
		<g>
			<path style="fill-rule:evenodd;clip-rule:evenodd;fill:#F2D2C0;" d="M25.109,24.37v463.26h463.26V24.37H25.109z M466.659,418.566
				l-47.353,47.353H91.283l-44.462-44.462V92.277l46.196-46.196h325.734l47.908,47.907V418.566z"/>
		</g>
	</g>
	<g id="&#x424;&#x438;&#x433;&#x443;&#x440;&#x430;_3">
		<g>
			<path style="fill-rule:evenodd;clip-rule:evenodd;fill:#A18180;" d="M429.873,25.156l-344.047-1.48l-62.15,62.891v342.566
				l59.931,59.19l344.046-0.739l59.931-59.191V84.347L429.873,25.156z M477.226,423.954l-56.231,54.751H91.006l-56.231-54.751
				V88.046l54.012-54.012h334.428l54.751,56.231L477.226,423.954z"/>
		</g>
	</g>
	<g id="&#x417;&#x430;&#x43B;&#x438;&#x432;&#x43A;&#x430;_&#x446;&#x432;&#x435;&#x442;&#x43E;&#x43C;_6">
		<g>
			<path style="fill-rule:evenodd;clip-rule:evenodd;fill:#C7907F;" d="M23.676,86.566l62.52-62.752l-62.52-0.139V86.566z
				 M487.584,23.63l-62.521,0.139l62.521,62.752V23.63z M22.196,488.37l62.521-0.139l-62.521-62.752V488.37z M425.803,488.971
				l62.521,0.139v-62.89L425.803,488.971z"/>
		</g>
	</g>
	
		<g id="&#x417;&#x430;&#x43B;&#x438;&#x432;&#x43A;&#x430;_&#x446;&#x432;&#x435;&#x442;&#x43E;&#x43C;_6_&#x43A;&#x43E;&#x43F;&#x438;&#x44F;">
		<g>
			<path style="fill-rule:evenodd;clip-rule:evenodd;fill:#FDECE7;" d="M27.964,485.886l56.753,2.346L55.27,458.579L27.964,485.886z
				 M54.694,55.434l31.502-31.619l-59.314,3.562L54.694,55.434z M485.117,26.582l-60.054-2.813l31.376,31.491L485.117,26.582z
				 M425.803,488.971l59.314-3.113l-28.158-28.158L425.803,488.971z"/>
		</g>
	</g>
	<g id="&#x424;&#x438;&#x433;&#x443;&#x440;&#x430;_1">
		<g>
			<path style="fill-rule:evenodd;clip-rule:evenodd;fill:#C7907F;" d="M34.774,487.769l0.093-9.156h-8.417L34.774,487.769z
				 M477.04,477.873l0.093,9.155l8.323-9.155H477.04z M476.393,25.804l-0.092,9.156h8.416L476.393,25.804z M26.451,34.96h8.417
				l-0.093-9.156L26.451,34.96z"/>
		</g>
	</g>
	<g id="&#x424;&#x438;&#x433;&#x443;&#x440;&#x430;_2">
		<g>
			<path style="fill-rule:evenodd;clip-rule:evenodd;fill:#FDECE7;" d="M22.597,480.813L9.026,497.72l-1.627,10.285l22.418-0.296
				l0.532-18.644l-3.492-6.957L22.597,480.813z M508.448,495.817l-18.855-14.581l-4.261,4.043l-3.068,4.209l2.646,16.529
				l23.688,1.353L508.448,495.817z M21.002,31.648l4.26-1.295l3.492-6.956L28.222,4.754L5.803,4.458l1.628,10.284L21.002,31.648z
				 M487.997,31.226l18.856-14.581l0.147-11.553l-23.687,1.353l-2.646,16.53l3.069,4.208L487.997,31.226z"/>
		</g>
	</g>
	<g id="&#x417;&#x430;&#x43B;&#x438;&#x432;&#x43A;&#x430;_&#x446;&#x432;&#x435;&#x442;&#x43E;&#x43C;_2">
		<g>
			<path style="fill-rule:evenodd;clip-rule:evenodd;fill:#2F181B;" d="M0,0v512h512V0H0z M503.121,503.121H8.878V8.879h494.243
				V503.121z"/>
		</g>
	</g>
	<g id="&#x417;&#x430;&#x43B;&#x438;&#x432;&#x43A;&#x430;_&#x446;&#x432;&#x435;&#x442;&#x43E;&#x43C;_3">
		<g>
			<path style="fill-rule:evenodd;clip-rule:evenodd;fill:#40292E;" d="M482.33,20.67H29.346l-9.369,9.369v397.468
				c-0.119,0.585-0.119,1.188,0,1.771v53.925l9.606,9.605h453.025l9.507-9.507V30.455L482.33,20.67z M28.855,34.183l4.633-4.634
				h40.974L28.855,75.156V34.183z M33.726,483.931l-4.871-4.871v-39.857l44.728,44.729H33.726z M483.237,479.158l-4.772,4.772
				H437.63l45.607-45.607V479.158z M483.237,425.769l-58.162,58.162H86.139l-57.283-57.283V87.711l58.162-58.162h338.058
				l58.162,58.162V425.769z M483.237,75.156L437.63,29.549h40.558l5.05,5.05V75.156z"/>
		</g>
	</g>
	
		<g id="&#x417;&#x430;&#x43B;&#x438;&#x432;&#x43A;&#x430;_&#x446;&#x432;&#x435;&#x442;&#x43E;&#x43C;_4_&#x43A;&#x43E;&#x43F;&#x438;&#x44F;" style="opacity:0.502;">
		<g>
			<path style="fill-rule:evenodd;clip-rule:evenodd;fill:#876867;" d="M465.59,92.913l-47.243-47.244
				c-0.685-0.685-1.612-1.068-2.579-1.068H94.545c-0.968,0-1.896,0.384-2.58,1.068L46.409,91.227
				c-0.684,0.684-1.069,1.611-1.069,2.579v324.619c0,0.968,0.385,1.896,1.069,2.579l43.847,43.847
				c0.684,0.684,1.612,1.068,2.579,1.068h323.479c0.968,0,1.896-0.385,2.579-1.068l46.696-46.696
				c0.685-0.685,1.069-1.612,1.069-2.58V95.493C466.659,94.525,466.274,93.598,465.59,92.913z M459.363,414.063l-44.56,44.56H94.346
				l-41.709-41.709V95.316l43.419-43.419h318.201l45.106,45.106V414.063z"/>
		</g>
	</g>
	<g id="&#x417;&#x430;&#x43B;&#x438;&#x432;&#x43A;&#x430;_&#x446;&#x432;&#x435;&#x442;&#x43E;&#x43C;_4">
		<g>
			<path style="fill-rule:evenodd;clip-rule:evenodd;fill:#40292E;" d="M468.534,90.633l-47.907-47.907
				c-0.693-0.694-1.635-1.084-2.615-1.084H92.277c-0.981,0-1.922,0.39-2.616,1.084L43.465,88.922
				c-0.693,0.693-1.083,1.635-1.083,2.615v329.18c0,0.981,0.39,1.922,1.083,2.615l44.463,44.463
				c0.694,0.693,1.634,1.084,2.615,1.084h328.023c0.981,0,1.922-0.391,2.615-1.084l47.353-47.353
				c0.694-0.694,1.084-1.635,1.084-2.616V93.248C469.618,92.268,469.229,91.326,468.534,90.633z M462.22,416.295l-45.186,45.185
				H92.075L49.78,419.185V93.07l44.029-44.03h322.67l45.74,45.741V416.295z"/>
		</g>
	</g>
</g>
<g id="&#x413;&#x440;&#x443;&#x43F;&#x43F;&#x430;_69_&#x43A;&#x43E;&#x43F;&#x438;&#x44F;_2_1_">
	<g id="&#x424;&#x438;&#x433;&#x443;&#x440;&#x430;_383" style="opacity:0.502;">
		<g>
			<path style="fill-rule:evenodd;clip-rule:evenodd;fill:#181621;" d="M398.306,311.826c8.992-8.992,10.748-25.948,10.748-25.948
				l-110.09-45.331v-38.855c0,0,16.659-21.333,32.856-26.592c9.877-3.207,22.549,8.604,22.549,8.604s-12.021-17.721-19.955-18.331
				c-16.617-1.278-36.17,14.014-36.17,14.014l-16.549,6.476l-7.195-33.818c0,0,17.926-7.605,21.344-12.058
				s-4.075-19.603-4.075-19.603l-39.575-51.088c0,0-10.128-5.059-19.363-4.272c-7.491,0.638-14.456,7.151-14.456,7.151
				s-9.129-0.63-13.267,4.856c-4.138,5.486-4.947,31.165-7.6,29.682c-2.653-1.484-5.24-6.175-4.737-14.715
				c0.572-9.73,6.896-21.982,6.896-21.982s-8.949,3.823-12.952,7.915c-4.002,4.093-11.603,23.925-9.354,31.66
				s17.134,25.634,17.134,25.634s-17.224-13.582-23.61-12.683c-6.386,0.9-32.469,12.277-34.538,19.428
				c-2.068,7.15-0.719,35.258-0.719,35.258s6.431-20.147,7.915-25.184c1.484-5.037,15.515-12.232,20.147-12.232
				c4.632,0,9.804,1.169,10.074,4.317c0.27,3.147-7.105,16.055-7.915,20.866c-0.81,4.813,7.42,16.864,6.476,21.587
				c-0.944,4.722-18.213,9.219-22.396,14.615c-4.182,5.396,2.608,11.288,2.608,11.288s-21.092,1.934-25.543,5.756
				c-4.453,3.823-14.031,23.655-14.031,23.655s24.015-16.864,28.152-17.943s14.75,10.658,14.75,10.658s-26.82-0.184-31.048,4.26
				c-4.695,4.935-8.976,18.945-8.976,18.945s-4.453-2.833-6.836,0.72c-2.384,3.553-2.878,10.073-2.878,10.073
				s8.853,3.946,6.875,7.814c-1.979,3.867-11.192,5.857-11.192,5.857l-2.159,15.11c0,0,9.472-2.326,9.427,5.589
				c-0.045,7.915-5.11,8.082-5.11,8.082s2.519,14.661,7.196,19.428s23.745,3.598,23.745,3.598s-9.669,13.177-10.793,18.708
				s3.418,37.236,3.418,37.236s6.757-26.587,11.119-35.132c4.362-8.544,19.282-7.141,19.282-7.141s-6.971,16.864-9.354,28.781
				s7.42,44.972,7.42,44.972s5.962-15.908,7.854-32.793c1.209-10.793,12.068-10.021,12.068-10.021s-6.834,8.59-5.973,15.172
				c1.296,9.901,6.378,23.863,6.378,23.863s-0.915-26.422,12.62-34.443c15.875-9.408,18.365,6.472,18.365,6.472
				s-19.141,15.408-22.119,22.311c-4.581,10.62-2.796,23.471-2.796,23.471s10.253-18.664,19.428-22.307s5.377,24.097,11.468,29.412
				c9.534,8.319,48.254,8.004,48.254,8.004l28.063-12.231c0,0,20.147-16.235,30.221-18.708c10.073-2.474,48.659,14.75,48.659,14.75
				s-4.486-8.053-11.883-15.56c-8.162-8.284-19.311-16.098-19.311-16.098s-24.616-9.042-21.019-15.607s13.37-18.282,22.416-16.474
				c8.942,1.789,18.553,13.73,18.553,13.73s2.972-9.628,2.704-22.287c-0.188-8.888-7.422-15.656-2.074-24.123
				C362.523,330.687,383.584,326.548,398.306,311.826z"/>
		</g>
	</g>
	<g id="&#x424;&#x438;&#x433;&#x443;&#x440;&#x430;_380_&#x43A;&#x43E;&#x43F;&#x438;&#x44F;">
		<g>
			<path style="fill-rule:evenodd;clip-rule:evenodd;fill:#517554;" d="M320.365,386.84c-23.979,16.165-26.438,50.861-26.438,50.861
				s15.522-26.432,34.104-40.016c16.003-11.698,36.65-14.19,36.65-14.19S345.987,369.567,320.365,386.84z M344.535,342.481
				c6.476,0.96,9.834,16.07,9.834,16.07s6.643-7.929,2.158-21.106c-3.763-11.058-14.23-11.901-22.306-9.595
				c-10.073,2.879-23.505,16.55-23.505,16.55l5.516,21.106C316.232,365.507,338.059,341.522,344.535,342.481z M198.609,316.097
				c-6.911-2.872-14.453-3.543-21.163-2.387c-6.256,1.079-17.099,6.776-21.254,12.12c-6.385,8.21-5.213,17.611-5.213,17.611
				s9.353-10.313,19.095-13.48c10.32-3.355,15.922,2.207,15.922,2.207s-15.258,3.995-20.144,14.162
				c-3.646,7.588-7.715,17.37-7.428,24.696c0.307,7.81,3.108,12.229,3.108,12.229s2.494-11.249,7.57-19.254
				c4.192-6.611,9.335-11.874,16.654-10.247c8.635,1.918,21.827,8.154,21.827,8.154l-0.96-22.546l13.911-7.915
				C220.534,331.448,210.936,321.22,198.609,316.097z"/>
		</g>
	</g>
	
		<g id="&#x417;&#x430;&#x43B;&#x438;&#x432;&#x43A;&#x430;_&#x446;&#x432;&#x435;&#x442;&#x43E;&#x43C;_213_&#x43A;&#x43E;&#x43F;&#x438;&#x44F;_8">
		<g>
			<path style="fill-rule:evenodd;clip-rule:evenodd;fill:#2B3D2D;" d="M316.237,369.682c0.112-0.104,2.886-2.652,12.72-12.193
				c8.434-8.182,11.65-11.006,14.079-11.597c0.519-0.127,1.005-0.191,1.447-0.191c2.997,0,3.979,3.396,4.298,5.419
				c0.912,5.797,1.498,11.292,1.503,11.347l0.937,8.804l4.42-7.669c0.143-0.248,3.504-6.105,5.052-11.093
				c1.987-6.4-1.115-14.461-2.283-17.495l-0.058-0.146c-1.968-5.12-5.481-10.409-16.605-10.837
				c-4.092-0.183-11.143,1.403-17.098,5.126c-8.127,5.078-14.445,12.486-14.712,12.798l-0.778,0.921l2.794,30.733L316.237,369.682z
				 M327.699,334.037c4.477-2.8,10.158-4.263,13.456-4.263l0.368,0.006c8.16,0.314,10.075,3.563,11.455,7.152l0.058,0.148
				c0.879,2.282,3.553,9.229,2.159,13.721c-0.133,0.424-0.28,0.858-0.441,1.299c-0.092-0.616-0.188-1.243-0.287-1.875
				c-0.998-6.343-4.822-10.282-9.983-10.282c-0.902,0-1.847,0.12-2.812,0.354c-3.817,0.932-6.995,3.62-16.723,13.059
				c-3.696,3.587-6.397,6.185-8.328,8.033l-1.508-16.595C316.968,342.768,321.903,337.658,327.699,334.037z M374.343,383.607
				c-0.449-0.319-11.192-7.831-27.239-7.831c-4.886,0-9.793,0.708-14.587,2.106c-26.979,7.866-38.06,43.179-39.577,46.776
				s-5.4,22.205-5.4,22.205l5.437-3.135l6.114-3.14c0.125-0.326,12.862-32.858,36.586-44.679c12.664-6.31,25.733-7.252,32.397-7.252
				c2.686,0,4.301,0.156,4.313,0.157l10.808,1.087L374.343,383.607z M333.109,390.759c-16.939,8.44-28.404,25.834-34.421,37.152
				l-0.103-1.989c1.46-4.266,13-35.94,35.541-42.513c4.271-1.245,8.637-1.876,12.977-1.876c4.796,0,9.079,0.771,12.649,1.794
				C352.316,384.072,342.627,386.016,333.109,390.759z M205.366,315.447c-7.281-3.442-14.396-5.188-21.145-5.188
				c-0.956,0-1.928,0.034-2.89,0.103c-6.542,0.468-17.051,3.914-25.139,12.092c-8.863,8.962-8.839,24.331-8.834,24.981l0.108,13.295
				l5.4-12.149c0.034-0.077,3.518-7.716,14.375-14.565c1.252-0.789,5.129-1.641,10.682-1.641c0.516,0,1.024,0.021,1.535,0.035
				c-4.188,1.761-12.222,5.526-15.335,9.677c-3.769,5.025-9.302,29.122-8.452,34.221c0.816,4.901,4.801,10.083,5.253,10.658
				l5.115,6.507l0.025-8.28c0-0.047,0.034-4.71,1.668-9.939c1.838-5.885,8.683-17.047,13.014-18.67
				c3.168-1.188,13.667,2.265,19.768,4.973c1.451,0.644,3.151-0.009,3.797-1.464c0.646-1.451-0.008-3.151-1.46-3.797
				c-2.884-1.281-17.599-7.553-24.125-5.103c-6.967,2.612-14.546,16.131-16.488,22.344c-0.277,0.888-0.514,1.758-0.718,2.6
				c-0.072-0.264-0.129-0.522-0.171-0.775c-0.59-3.546,4.674-26.213,7.378-29.819c2.316-3.087,10.394-6.921,15.23-8.735
				c1.536-0.466,9.055,0.26,15.119,1.217c0.262,0.041,0.518,0.033,0.769,0.005c3.346,1.808,5.462,3.378,5.502,3.407l1.44,1.087
				l18.723-9.602l-2.126-2.742C223.076,329.777,215.664,320.316,205.366,315.447z M207.308,335.785
				c-3.027-2.021-10.275-6.376-18.849-8.156c-3.182-0.661-6.824-1.011-10.534-1.011c-2.93,0-10.137,0.247-13.754,2.529
				c-3.928,2.479-7.02,5.078-9.413,7.479c1.043-3.553,2.745-7.311,5.527-10.125c7.448-7.529,16.992-10.077,21.457-10.396
				c0.763-0.055,1.591-0.088,2.479-0.088c5.891,0,12.179,1.558,18.686,4.635c5.901,2.791,10.866,7.475,13.616,10.409
				L207.308,335.785z"/>
		</g>
	</g>
	<g id="&#x424;&#x438;&#x433;&#x443;&#x440;&#x430;_374_&#x43A;&#x43E;&#x43F;&#x438;&#x44F;">
		<g>
			<polygon style="fill-rule:evenodd;clip-rule:evenodd;fill:#3C2725;" points="290.569,302.667 286.252,229.273 280.976,167.872 
				280.976,131.896 304.48,113.428 283.374,107.911 283.414,107.668 283.613,107.671 283.424,107.614 287.691,82.007 
				276.178,74.332 264.186,79.608 255.551,68.576 242.6,77.21 230.127,73.853 220.054,83.446 228.449,107.191 211.899,112.468 
				236.364,135.732 236.364,158.758 239.722,248.461 233.965,311.302 227.729,370.783 228.209,438.9 251.714,448.494 
				276.658,448.494 300.643,436.502 283.374,353.035 			"/>
		</g>
	</g>
	<g id="&#x424;&#x438;&#x433;&#x443;&#x440;&#x430;_384_&#x43A;&#x43E;&#x43F;&#x438;&#x44F;_2">
		<g>
			<path style="fill-rule:evenodd;clip-rule:evenodd;fill:#212D35;" d="M239.194,103.907l-8.586-29.575l-10.553,8.155l7.772,24.688
				l-12.569,3.613l11.033,14.87l12.996-4.177l-2.442,41.113l11.033,3.358l0.841-47.503l4.436-1.426l0.479-17.27L239.194,103.907z
				 M227.441,384.215L226.77,438.9l23.889,10.073l-0.288-53.63L227.441,384.215z"/>
		</g>
	</g>
	<g id="&#x424;&#x438;&#x433;&#x443;&#x440;&#x430;_387_&#x43A;&#x43E;&#x43F;&#x438;&#x44F;_2">
		<g>
			<polygon style="fill-rule:evenodd;clip-rule:evenodd;fill:#724531;" points="283.374,108.87 286.252,81.527 274.26,74.332 
				263.227,77.21 254.592,66.657 253.153,116.065 257.471,125.659 257.471,166.434 279.057,170.271 279.057,122.302 288.171,125.18 
				301.123,113.188 			"/>
		</g>
	</g>
	<g id="&#x424;&#x438;&#x433;&#x443;&#x440;&#x430;_388_&#x43A;&#x43E;&#x43F;&#x438;&#x44F;_2">
		<g>
			<path style="fill-rule:evenodd;clip-rule:evenodd;fill:#724531;" d="M297.045,418.273c0,0-13.671-20.627-23.265,3.357
				c-5.479-23.471-18.827-9.771-17.297,4.801c0.846,8.053,3.386,23.022,3.386,23.022l14.592-1.078l24.743-14.032L297.045,418.273z"
				/>
		</g>
	</g>
	<g id="&#x424;&#x438;&#x433;&#x443;&#x440;&#x430;_386_&#x43A;&#x43E;&#x43F;&#x438;&#x44F;_2">
		<g>
			<path style="fill-rule:evenodd;clip-rule:evenodd;fill:#BF753F;" d="M282.895,107.431l4.797-25.423l-11.992-8.635l-4.173,31.061
				l-8.73-2.696l0.911-25.486l-8.635-7.675v30.7l-1.798-0.479v15.83l48.929-0.72L282.895,107.431z M272.82,169.072l7.676,1.199
				v-39.335l-7.676-2.998V169.072z M256.031,166.434l11.033,2.878v-41.733l-11.033-2.878V166.434z"/>
		</g>
	</g>
	<g id="&#x424;&#x438;&#x433;&#x443;&#x440;&#x430;_385_&#x43A;&#x43E;&#x43F;&#x438;&#x44F;_2">
		<g>
			<path style="fill-rule:evenodd;clip-rule:evenodd;fill:#28202B;" d="M242.477,100.151l-0.836-25.819l-11.033-0.479l8.155,30.221
				L242.477,100.151z M252.674,116.065l-27.823,11.033l10.554,8.635l17.279-8.573l27.812,7.134l8.635-9.594L252.674,116.065z"/>
		</g>
	</g>
	
		<g id="&#x417;&#x430;&#x43B;&#x438;&#x432;&#x43A;&#x430;_&#x446;&#x432;&#x435;&#x442;&#x43E;&#x43C;_209_&#x43A;&#x43E;&#x43F;&#x438;&#x44F;_2">
		<g>
			<path style="fill-rule:evenodd;clip-rule:evenodd;fill:#261917;" d="M308.468,111.828c-0.335-1.605-1.549-2.883-3.136-3.297
				l-17.293-4.521l3.67-22.013c0.279-1.677-0.449-3.359-1.863-4.302l-11.514-7.676c-1.228-0.819-2.785-0.952-4.133-0.359
				l-8.921,3.925l-6.567-8.391c-1.393-1.778-3.918-2.183-5.794-0.932l-11.323,7.549l-10.583-2.849
				c-1.452-0.393-3.008,0.003-4.099,1.042l-10.074,9.595c-1.232,1.174-1.66,2.961-1.093,4.565l6.911,19.546l-12.306,3.923
				c-1.454,0.464-2.555,1.66-2.896,3.146c-0.341,1.487,0.127,3.044,1.232,4.096l23.123,21.988v21.174c0,0.054,0,0.107,0.002,0.161
				l3.347,89.425l-5.726,62.506l-6.236,59.483c-0.016,0.159-0.024,0.319-0.023,0.48l0.479,68.116
				c0.012,1.743,1.071,3.307,2.686,3.967l23.505,9.594c0.518,0.212,1.072,0.32,1.631,0.32h24.944c0.671,0,1.332-0.156,1.932-0.455
				l23.983-11.993c1.751-0.876,2.692-2.819,2.297-4.736l-17.116-82.729l7.089-49.621c0.04-0.285,0.054-0.575,0.036-0.863
				l-4.325-73.509l-5.261-61.217v-33.693l21.855-17.172C308.196,115.089,308.801,113.434,308.468,111.828z M276.932,79.465
				l5.801,3.866l-3.514,21.089l-6.982-2.14L276.932,79.465z M264.529,83.153c0.391-0.054,0.78-0.147,1.155-0.313l7.696-3.387
				l-1.548,22.703l-7.802-2.391L264.529,83.153z M257.471,77.619l3.076,3.931c0.069,0.09,0.152,0.164,0.229,0.246l2.709,17.803
				l-6.014-1.843V77.619z M244.123,80.412c0.216-0.097,0.432-0.196,0.632-0.329l8.398-5.599v22.188
				c-0.228,0.019-0.457,0.041-0.678,0.115l-9.153,3.079L244.123,80.412z M240.353,80.422l2.124,19.729l-3.913,1.316l-5.032-22.884
				L240.353,80.422z M229.972,79.015l8.198,22.585l-6.349,2.136l-7.005-19.811L229.972,79.015z M229.313,122.579l-9.393-8.933
				l7.734-2.467c0.091-0.021,0.182-0.031,0.272-0.062l1.413-0.476l0.181-0.058c0.011-0.003,0.021-0.01,0.032-0.014l21.682-7.293
				v11.729L229.313,122.579z M232.837,125.93l4.726-1.633v6.127L232.837,125.93z M285.993,301.767l-7.134,49.938
				c-0.07,0.494-0.055,0.997,0.047,1.484l16.596,80.216l-18.68,9.342c0.051-4.053-0.201-8.063-0.545-12.061
				c-0.446-5.479-1.76-10.838-2.706-16.249l-2.921-16.219c-1.047-5.396-2.031-10.802-3.133-16.189
				c-0.021-0.105-0.119-0.182-0.229-0.173c-0.119,0.01-0.209,0.112-0.199,0.231c0.418,5.485,0.951,10.952,1.424,16.429l1.637,16.399
				c0.574,5.462,0.779,10.976,1.852,16.369c0.793,4.082,1.684,8.151,2.908,12.173h-22.534c0.492-3.846,0.681-7.684,0.776-11.518
				c0.156-5.268-0.564-10.507-0.912-15.757l-1.127-15.752c-0.451-5.247-0.838-10.498-1.343-15.744
				c-0.01-0.105-0.098-0.19-0.208-0.195c-0.119-0.004-0.219,0.09-0.224,0.21c-0.185,5.268-0.253,10.53-0.383,15.796l-0.167,15.789
				c-0.027,5.263-0.428,10.537,0.048,15.783c0.301,3.503,0.683,7.004,1.302,10.497l-17.873-7.295l-0.458-64.996l6.216-59.301
				l5.756-62.839c0.017-0.185,0.022-0.37,0.016-0.556l-3.354-89.623V123.74c0-0.145-0.028-0.282-0.068-0.414l7.241-2.501
				c-0.806,4.789-1.174,9.579-1.417,14.368c-0.317,5.736,0.245,11.473,0.431,17.209l0.648,17.209
				c0.291,5.736,0.519,11.473,0.864,17.209c0.006,0.107,0.092,0.196,0.203,0.203c0.119,0.007,0.221-0.084,0.229-0.203
				c0.345-5.736,0.572-11.473,0.863-17.209l0.648-17.209c0.187-5.736,0.748-11.473,0.432-17.209
				c-0.251-4.951-0.632-9.902-1.496-14.854l4.492-1.552l12.514,2.895c-0.938,4.443-1.34,8.887-1.6,13.331
				c-0.316,4.957,0.244,9.914,0.431,14.87l0.647,14.87c0.291,4.958,0.52,9.914,0.863,14.871c0.009,0.106,0.093,0.193,0.201,0.201
				c0.119,0.008,0.224-0.082,0.232-0.201c0.344-4.957,0.571-9.913,0.862-14.871l0.647-14.87c0.188-4.956,0.748-9.913,0.432-14.87
				c-0.255-4.354-0.643-8.706-1.539-13.059l9.215,2.131v6.85c0,0.03,0.008,0.058,0.01,0.087c-0.002,0.052-0.01,0.102-0.01,0.153
				v35.978c0,0.123,0.006,0.246,0.016,0.369l5.268,61.285L285.993,301.767z M279.297,126.816v-2.064l2.029,0.47L279.297,126.816z
				 M285.684,121.798l-30.132-6.97v-11.64l25.66,7.862c0.262,0.131,0.536,0.24,0.829,0.316l12.695,3.318L285.684,121.798z"/>
		</g>
	</g>
	<g id="&#x424;&#x438;&#x433;&#x443;&#x440;&#x430;_379_&#x43A;&#x43E;&#x43F;&#x438;&#x44F;">
		<g>
			<path style="fill-rule:evenodd;clip-rule:evenodd;fill:#724531;" d="M320.91,365.027l-9.354-1.439v-6.476l6.116-0.72
				c0,0-2.762-8.614-3.017-16.533c-0.282-8.768,1.938-16.926,1.938-16.926s-32.351-1.586-55.056-2.651
				c-11.487-0.54-21.576-0.946-21.576-0.946s-8.521,6.533-18.175,11.896c-12.612,7.007-28.235,12.928-28.235,12.928l10.074,2.519
				l-6.116,6.476l8.634,6.836l-4.677,5.757l10.223,3.172l-0.149,0.065c0,0,0.139-0.002,0.336-0.007l0.023,0.007
				c0,0,6.829,5.75,13.301,11.863c6.479,6.119,12.603,12.602,12.603,12.602s14.553,2.283,33.475,4.597
				c13.307,1.627,26.248,6.196,26.248,6.196s5.734-5.727,12.893-9.118c6.479-3.068,14.449-3.833,14.449-3.833L320.91,365.027z"/>
		</g>
	</g>
	<g id="&#x424;&#x438;&#x433;&#x443;&#x440;&#x430;_402_&#x43A;&#x43E;&#x43F;&#x438;&#x44F;">
		<g>
			<path style="fill-rule:evenodd;clip-rule:evenodd;fill:#212D35;" d="M250.179,366.37c0.288-2.59,1.684-8.001-1.016-12.532
				c-3.624-6.081-11.569-9.258-14.083-16.395c-2.458-6.978,0.804-12.71,0.804-12.71l-36.937,18.708l3.358,4.317l-3.358,4.797
				l7.195,7.195l-1.918,6.235l10.553,3.838l23.025,24.465l14.871-11.992C252.674,382.297,258.525,370.976,250.179,366.37z"/>
		</g>
	</g>
	<g id="&#x424;&#x438;&#x433;&#x443;&#x440;&#x430;_403_&#x43A;&#x43E;&#x43F;&#x438;&#x44F;">
		<g>
			<path style="fill-rule:evenodd;clip-rule:evenodd;fill:#28202B;" d="M234.637,331.929c0,0-8.257,6.154-17.49,11.063
				c-8.894,4.729-18.487,8.508-18.487,8.508l5.468,12.088l33.315-21.919L234.637,331.929z M250.691,358.552
				c-0.317-1.815-2.941-6.302-2.941-6.302s-6.698,6.635-15.169,10.197c-9.592,4.035-20.106,5.171-20.106,5.171l17.269,17.557
				l20.435-18.996C250.179,366.179,250.982,360.219,250.691,358.552z"/>
		</g>
	</g>
	<g id="&#x424;&#x438;&#x433;&#x443;&#x440;&#x430;_404_&#x43A;&#x43E;&#x43F;&#x438;&#x44F;">
		<g>
			<path style="fill-rule:evenodd;clip-rule:evenodd;fill:#2F2123;" d="M311.196,365.891v-11.225c0,0-5.604-1.724-12.4-2.01
				c-6.876-0.289-14.942,0.858-14.942,0.858l-8.059-12.664l-1.727,13.815h-14.967c0,0,14.326,3.414,27.426,6.237
				C299.475,363.692,311.196,365.891,311.196,365.891z M290.852,384.73c-17.385-2.145-37.794-2.722-37.794-2.722l-12.088,11.225
				c0,0,17.225,1.557,32.539,4.526c12.633,2.449,23.873,6.411,23.873,6.411l21.012-14.967
				C318.393,389.204,305.977,386.596,290.852,384.73z"/>
		</g>
	</g>
	<g id="&#x424;&#x438;&#x433;&#x443;&#x440;&#x430;_405_&#x43A;&#x43E;&#x43F;&#x438;&#x44F;">
		<g>
			<path style="fill-rule:evenodd;clip-rule:evenodd;fill:#3C2725;" d="M321.366,379.802l-58.198-12.641l-14.043-0.003
				c0,0,5.604,2.471,5.542,5.353c-0.096,4.447-3.481,10.793-3.481,10.793s23.742-1.437,42.084,1.513
				c15.958,2.564,30.015,6.402,30.015,6.402L321.366,379.802z"/>
		</g>
	</g>
	<g id="&#x424;&#x438;&#x433;&#x443;&#x440;&#x430;_406_&#x43A;&#x43E;&#x43F;&#x438;&#x44F;">
		<g>
			<path style="fill-rule:evenodd;clip-rule:evenodd;fill:#BF753F;" d="M305.8,331.568c0.72,1.08,1.438,13.312,0.72,14.751
				c-0.72,1.439-15.471,0.72-17.988-0.359c-2.519-1.08-12.247-6.194-12.247-6.194l9.009,13.029l30.221,2.159
				c0,0-0.889-7.438-1.063-15.103c-0.186-8.15,0.343-16.558,0.343-16.558l-76.991-3.598l-0.36,6.116c0,0,15.388,1.709,30.912,2.883
				C286.585,330.073,305.411,330.985,305.8,331.568z M258.088,354.806c-1.971-0.358-7.909-1.181-7.909-1.181l0.216,8.164
				c0,0,10.076-0.201,25.603,1.475c19.034,2.054,43.113,4.282,43.113,4.282S262.046,355.525,258.088,354.806z"/>
		</g>
	</g>
	
		<g id="&#x417;&#x430;&#x43B;&#x438;&#x432;&#x43A;&#x430;_&#x446;&#x432;&#x435;&#x442;&#x43E;&#x43C;_217_&#x43A;&#x43E;&#x43F;&#x438;&#x44F;">
		<g>
			<path style="fill-rule:evenodd;clip-rule:evenodd;fill:#261917;" d="M329.312,390.25l-3.958-24.824
				c-0.26-1.625-1.42-2.963-2.994-3.446l-5.009-1.541l1.006-0.118c1.28-0.15,2.426-0.867,3.124-1.951
				c0.699-1.083,0.876-2.424,0.483-3.652c-0.024-0.081-2.581-8.162-2.814-15.356c-0.256-7.974,1.769-15.581,1.788-15.652
				c0.346-1.263,0.098-2.612-0.671-3.671s-1.976-1.712-3.282-1.775c0,0-32.356-1.586-55.065-2.653
				c-11.503-0.539-21.603-0.947-21.603-0.947c-1.026-0.02-2,0.274-2.801,0.889c-0.083,0.063-8.377,6.399-17.646,11.549
				c-12.18,6.766-27.515,12.606-27.668,12.665c-1.765,0.669-2.89,2.406-2.78,4.289c0.111,1.885,1.432,3.479,3.263,3.936l2.916,0.729
				l-1.05,1.112c-0.832,0.88-1.255,2.067-1.168,3.274c0.087,1.209,0.677,2.323,1.626,3.075l5.207,4.121l-1.92,2.363
				c-0.904,1.112-1.197,2.6-0.781,3.973c0.415,1.372,1.482,2.448,2.852,2.873l9.591,2.977c1.853,1.578,7.3,6.268,12.458,11.141
				c6.31,5.957,12.369,12.362,12.429,12.426c0.656,0.695,1.524,1.152,2.469,1.302c0.146,0.022,14.842,2.321,33.62,4.616
				c12.656,1.547,25.21,5.939,25.335,5.982c0.47,0.166,0.954,0.246,1.435,0.246c1.126,0,2.229-0.44,3.053-1.262
				c0.053-0.053,5.28-5.235,11.689-8.272c5.688-2.694,12.947-3.431,13.014-3.438c1.187-0.113,2.273-0.712,3.004-1.655
				C329.191,392.629,329.498,391.428,329.312,390.25z M213.359,364.501l-4.338-1.347l0.652-0.802
				c0.017-0.021,0.028-0.046,0.044-0.067l23.229-17.766l-22.968,12.843c-0.26-0.42-0.58-0.805-0.975-1.117l-4.941-3.912l0.519-0.55
				c3.651-2.127,7.282-4.271,10.903-6.45c2.244-1.353,4.458-2.767,6.606-4.264c2.142-1.504,4.258-3.058,6.178-4.824
				c-2.14,1.482-4.427,2.719-6.73,3.902c-2.309,1.175-4.66,2.256-7.038,3.276c-2.126,0.905-4.26,1.803-6.396,2.694
				c-0.016-0.338-0.059-0.678-0.156-1.011c-0.228-0.779-0.665-1.462-1.247-1.989c5.251-2.301,11.581-5.262,17.36-8.473
				c2.602-1.444,5.107-2.963,7.399-4.421c-0.253,2.332-0.114,4.76,0.631,7.192c0.204,0.624,0.63,1.779,1.015,2.545
				c0.412,0.826,0.858,1.623,1.357,2.367c0.991,1.489,2.115,2.814,3.297,4.014c2.354,2.404,4.962,4.348,7.332,6.238
				c0.441,0.354,0.859,0.707,1.254,1.058c-2.344,1.826-4.796,3.5-7.333,5.006c-2.773,1.624-5.64,3.05-8.673,3.948
				c-3.028,0.938-6.147,1.559-9.284,1.955c-2.188,0.271-4.431,0.439-6.62,0.485C214.101,364.813,213.746,364.621,213.359,364.501z
				 M240.092,389.046c-2.025-2.112-6.749-6.977-11.749-11.697c-3.635-3.433-7.341-6.72-9.947-8.988
				c1.084-0.219,2.164-0.453,3.246-0.72c3.217-0.809,6.377-1.847,9.4-3.198c3.04-1.347,5.879-3.056,8.502-4.991
				c2.415-1.78,4.695-3.714,6.851-5.77c0.113,0.102,0.234,0.203,0.34,0.303c0.533,0.504,0.76,0.764,1.226,1.483
				c0.84,1.25,1.453,2.314,1.599,3.516c0.171,1.212-0.082,2.644-0.468,4.065c-0.195,0.715-0.429,1.433-0.682,2.148l-0.109,0.327
				l-0.044,0.141l-0.056,0.234c-0.076,0.324-0.085,0.605-0.062,0.933c0.058,0.652,0.408,1.264,0.784,1.637
				c0.771,0.751,1.55,1.055,2.26,1.4c0.711,0.329,1.393,0.63,1.945,1.015c0.545,0.371,0.95,0.86,0.981,1.442
				c0.076,0.667-0.004,1.434-0.125,2.176c-0.348,1.954-0.922,3.892-1.579,5.808c-0.176,0.152-0.319,0.338-0.439,0.539l-11.677,8.227
				C240.228,389.066,240.151,389.055,240.092,389.046z M308.75,390.862c-5.195,2.461-9.648,5.988-12.095,8.123
				c-4.49-1.433-14.405-4.329-24.674-5.585c-10.349-1.265-19.432-2.529-25.496-3.407l8.336-5.873
				c3.924,0.105,18.377,0.593,33.542,2.312c7.67,0.87,15.887,2.266,22.518,3.517C310.164,390.232,309.449,390.531,308.75,390.862z
				 M319.975,387.35c-6.915-1.437-19.615-3.902-31.125-5.207c-16.407-1.861-32.006-2.295-34.609-2.356
				c-0.052-0.002-0.104-0.006-0.155-0.004c-0.143-0.003-0.223-0.005-0.233-0.005h-0.041c-0.321,0-0.623,0.075-0.897,0.201
				c0.767-1.704,1.462-3.445,1.984-5.278c0.203-0.776,0.384-1.562,0.378-2.451c0.024-1.014-0.586-1.904-1.25-2.479
				c-0.667-0.59-1.381-0.998-2.038-1.405c-0.324-0.197-0.645-0.401-0.922-0.604l12.1-0.599l-11.785-3.041
				c0.036-0.085,0.078-0.163,0.113-0.249c0.6-1.514,1.164-3.156,1.154-5.07c0.01-1.943-0.809-3.765-1.539-5.175
				c-0.201-0.381-0.326-0.661-0.642-1.167c-0.276-0.416-0.561-0.799-0.845-1.133c-0.568-0.682-1.137-1.274-1.699-1.852
				c-2.253-2.272-4.422-4.353-6.175-6.637c-1.761-2.295-3.032-4.611-3.477-7.152c-0.358-2.163,0.077-4.718,1.124-7.051
				c0.519-1.182,1.169-2.341,1.923-3.447c0.375-0.554,0.774-1.094,1.192-1.613c0.045-0.057,0.096-0.116,0.144-0.174
				c3.743,0.155,10.964,0.462,18.859,0.834c17.228,0.809,40.007,1.916,49.992,2.403c-0.582,3.393-1.145,8.089-0.985,13.001
				c0.147,4.566,1.046,9.275,1.856,12.69l-0.602,0.071c-0.016-0.008-0.031-0.015-0.048-0.022c-0.637-0.275-1.274-0.516-1.921-0.729
				c-1.292-0.428-2.615-0.739-3.962-0.935c-1.453-0.213-2.596-0.227-3.79-0.284c-1.195-0.048-2.384-0.076-3.571-0.09
				c-2.374-0.025-4.735,0.005-7.095,0.081c-1.975,0.066-3.931,0.166-5.914,0.298l-8.133-10.29l-0.098-0.125
				c-0.229-0.288-0.566-0.49-0.96-0.539c-0.801-0.103-1.533,0.464-1.636,1.265l-1.528,11.985l-14.085,1.482l-0.863-0.117
				c-0.106-0.014-0.211,0.054-0.238,0.16c-0.029,0.115,0.039,0.233,0.154,0.265c4.951,1.313,9.93,2.493,14.904,3.711
				c4.986,1.152,9.979,2.274,14.988,3.36l7.486,1.658c2.361,0.572,4.73,1.247,7.141,1.866c3.537,0.918,7.086,1.934,10.74,2.839
				l3.902,1.2l2.851,17.884C320.061,387.332,320.016,387.342,319.975,387.35z M307.419,358.116v4.575
				c-1.151-0.516-2.321-0.994-3.511-1.434c-2.464-0.906-5.043-1.555-7.717-1.867c-2.595-0.261-5.084-0.554-7.629-0.878
				l-28.645-3.895l14.084,0.197c0.408,0.006,0.777-0.275,0.867-0.688l0.02-0.095l1.9-8.799l5.666,9.271
				c0.365,0.587,1.021,0.995,1.764,1.006l0.264,0.004c2.248,0.033,4.565,0.125,6.846,0.255c2.285,0.131,4.564,0.305,6.826,0.532
				c1.132,0.114,2.259,0.243,3.379,0.389c1.115,0.15,2.295,0.293,3.127,0.506c0.938,0.224,1.86,0.531,2.744,0.913
				C307.41,358.111,307.414,358.114,307.419,358.116z"/>
		</g>
	</g>
	<g id="&#x424;&#x438;&#x433;&#x443;&#x440;&#x430;_378_&#x43A;&#x43E;&#x43F;&#x438;&#x44F;_7">
		<g>
			<path style="fill-rule:evenodd;clip-rule:evenodd;fill:#517554;" d="M231.327,155.641c0,0-20.761-34.475-21.48-42.03
				c-0.719-7.555,2.053-35.681,2.053-35.681s-10.658,22.641-12.097,29.837c-1.439,7.195,9.578,29.885,9.578,29.885
				s-1.099-1.624-10.766-10.428c-4.866-4.431-11.003-2.882-14.778-0.725c-1.649,0.942-4.224,3.57-5.489,7.163
				c-2.598,7.376-3.146,17.661-3.146,17.661s6.461-14.149,14.75-14.751c6.499-0.471,26.263,25.185,26.263,25.185l15.83,2.878
				L231.327,155.641z"/>
		</g>
	</g>
	
		<g id="&#x417;&#x430;&#x43B;&#x438;&#x432;&#x43A;&#x430;_&#x446;&#x432;&#x435;&#x442;&#x43E;&#x43C;_213_&#x43A;&#x43E;&#x43F;&#x438;&#x44F;_9">
		<g>
			<path style="fill-rule:evenodd;clip-rule:evenodd;fill:#2B3D2D;" d="M234.819,154.075l-0.349-0.58
				c-7.897-13.113-20.603-35.79-21.081-40.818c-0.685-7.192,2.024-34.847,2.052-35.125l1.637-16.602l-7.105,15.093
				c-0.441,0.938-10.825,23.044-12.315,30.498c-0.774,3.872,1.212,11.137,3.624,17.942c-0.017-0.016-0.034-0.033-0.05-0.049
				c-2.582-2.35-5.782-3.593-9.257-3.593c-3.931,0-7.256,1.565-8.888,2.498c-2.312,1.321-5.304,4.525-6.776,8.706
				c-2.703,7.677-3.281,18.026-3.304,18.463l-0.802,15.068l6.293-13.717c1.5-3.27,6.987-12.689,12.31-13.077
				c2.95,0.128,13.853,11.15,23.807,24.069l0.673,0.872l17.113,3.17l-0.046-0.077c0.121,0.016,0.242,0.035,0.367,0.035
				c0.077,0,0.155-0.003,0.233-0.01c1.584-0.126,2.765-1.514,2.639-3.099L234.819,154.075z M218.498,158.466
				c-6.463-8.311-20.64-25.438-27.686-25.438c-0.131,0-0.262,0.005-0.389,0.014c-3.867,0.28-7.259,2.688-9.987,5.584
				c0.359-1.608,0.79-3.206,1.304-4.668c1.034-2.936,3.127-5.005,4.203-5.62c1.136-0.649,3.431-1.738,6.032-1.738
				c2.075,0,3.834,0.685,5.381,2.093c8.059,7.34,18.104,22.128,23.306,30.175L218.498,158.466z M229.069,161.402
				c-0.443-0.731-7.831-12.86-16.298-23.893c-0.032-0.092-0.053-0.185-0.094-0.275c-4.415-9.668-10.242-25.231-9.375-29.564
				c0.539-2.694,2.621-8.085,4.963-13.651c-0.543,7.559-0.954,15.556-0.606,19.204c0.722,7.579,17.329,35.658,21.531,42.66
				l0.527,6.587L229.069,161.402z"/>
		</g>
	</g>
	<g id="&#x424;&#x438;&#x433;&#x443;&#x440;&#x430;_381_&#x43A;&#x43E;&#x43F;&#x438;&#x44F;">
		<g>
			<path style="fill-rule:evenodd;clip-rule:evenodd;fill:#517554;" d="M185.303,226.621c-0.69-5.111-17.791-12.235-25.382-15.085
				c-8.53-3.202-23.334,7.903-23.334,7.903s16.535,0.283,24.2,4.77c12.303,7.2,18.013,19.936,18.013,19.936l-4.317,0.959
				c0,0-16.165-17.261-24.777-16.159c-7.212,0.922-6.643,17.599-6.643,17.599s4.317-7.195,7.436-7.676
				c3.118-0.479,9.87,5.731,21.165,13.289c3.694,2.472,8.576-1.057,8.576-1.057l4.797,0.24
				C185.037,251.34,186.775,237.518,185.303,226.621z"/>
		</g>
	</g>
	
		<g id="&#x417;&#x430;&#x43B;&#x438;&#x432;&#x43A;&#x430;_&#x446;&#x432;&#x435;&#x442;&#x43E;&#x43C;_216_&#x43A;&#x43E;&#x43F;&#x438;&#x44F;">
		<g>
			<path style="fill-rule:evenodd;clip-rule:evenodd;fill:#2B3D2D;" d="M187.273,223.302c-3.539-6.193-25.308-15.402-29.555-15.827
				c-3.381-0.339-7.053,1.042-11.751,2.845c-1.278,0.492-2.643,1.017-4.104,1.542c-6.847,2.461-11.241,10.438-11.425,10.776
				l-5.188,9.559l9.239-5.743c1.415-0.88,5.774-3.162,8.911-3.162c10.204,0,18.15,2.713,22.98,7.849
				c2.277,2.421,4.282,5.052,6.013,7.619c-1.845-1.721-3.744-3.383-5.57-4.792c-6.44-4.966-11.834-8.272-17.223-8.272
				c-0.656,0-1.317,0.049-1.961,0.148c-6.149,0.946-7.324,13.421-7.477,20.772l-0.179,8.576l5.315-6.732
				c2.133-2.701,4.88-5.89,6.066-6.948c1.666,0.403,6.459,3.098,12.186,8.634c4.972,4.806,14.994,5.815,14.994,5.815l9.115-0.618
				l0.333-2.946C188.433,248.514,190.457,228.873,187.273,223.302z M167.552,246.004c-4.917-4.753-12.196-10.303-16.523-10.303
				c-0.854,0-1.619,0.198-2.273,0.592c-0.553,0.332-1.269,0.959-2.051,1.74c0.535-3.276,1.274-5.807,2.019-6.529
				c3.422-0.425,7.463,1.529,14.585,7.022c4.125,3.181,8.803,7.894,12.107,11.408C172.886,249.491,170.033,248.403,167.552,246.004z
				 M182.869,245.309c-2.393-4.794-6.525-11.979-12.294-18.112c-5.946-6.321-15.342-9.662-27.174-9.662
				c-0.075,0-0.15,0.002-0.225,0.003c0.209-0.097,0.421-0.183,0.634-0.26c1.504-0.541,2.907-1.079,4.221-1.584
				c3.951-1.517,6.963-2.718,9.114-2.49c3.429,0.346,23.041,9.298,25.13,12.955C183.462,228.234,183.493,236.736,182.869,245.309z"
				/>
		</g>
	</g>
	<g id="&#x424;&#x438;&#x433;&#x443;&#x440;&#x430;_377">
		<g>
			<path style="fill-rule:evenodd;clip-rule:evenodd;fill:#724531;" d="M323.234,212.925l-10.285-2.393l-0.824-13.214l-14.668-0.77
				l1.799-7.101l9.753-1.432l-5.89-6.683l-1.319-12.463l-101.136-15.186l-0.277-0.563l0.209,0.553l-1.289-0.193l-14.031,8.635
				l6.422,16.082c0,0-3.327,3.976-2.608,7.933c0.72,3.958,9.66,2.356,9.66,2.356l3.076,6.728l-31.336,7.808l-3.31,10.127
				l15.992-0.323l2.824,5.055l12.664,12.897l-1.077,6.342l10.341,13.546l116.943-12.638l7.556-11.513L323.234,212.925z"/>
		</g>
	</g>
	<g id="&#x424;&#x438;&#x433;&#x443;&#x440;&#x430;_407">
		<g>
			<path style="fill-rule:evenodd;clip-rule:evenodd;fill:#212D35;" d="M188.874,187.061l7.675,2.878l3.358,4.797l15.35-1.919
				l0.48-7.675l12.952-8.635l-18.229-0.479l-10.553-23.505l-16.31,9.594l8.155,16.31L188.874,187.061z M208.915,226.699
				c-5.721,3.457-11.886,8.811-11.886,8.811l10.554,14.391l14.87-11.992l-2.398-16.31
				C220.054,221.599,214.707,223.2,208.915,226.699z M201.826,194.735l-30.701,7.195l-3.358,11.033l15.83-0.959l0.959,6.716
				l21.586-6.716L201.826,194.735z"/>
		</g>
	</g>
	<g id="&#x424;&#x438;&#x433;&#x443;&#x440;&#x430;_408">
		<g>
			<path style="fill-rule:evenodd;clip-rule:evenodd;fill:#28202B;" d="M207.431,186.358c12.097-1.23,19.819-9.371,19.819-9.371
				s-13.245-1.298-23.678,0.947c-8.259,1.777-14.218,7.207-14.218,7.207S198.634,187.253,207.431,186.358z M237.778,213.221
				c-14.752-1.462-33.074-2.655-33.074-2.655l-20.147,6.716l13.911,16.789l20.147-11.513l39.335-6.716
				C257.95,215.842,249.225,214.355,237.778,213.221z"/>
		</g>
	</g>
	<g id="&#x424;&#x438;&#x433;&#x443;&#x440;&#x430;_409">
		<g>
			<path style="fill-rule:evenodd;clip-rule:evenodd;fill:#2F2123;" d="M297.285,184.662l-36.457,6.716l36.457,7.195V184.662z
				 M301.615,227.9c-8.434,1.705-15.725,7.203-25.471,8.247c-26.363,2.824-52.732,1.281-52.732,1.281l-12.472,11.513
				c0,0,30.821-3.177,59.806-6.261c27.331-2.907,52.922-5.731,52.922-5.731l6.717-11.513
				C330.385,225.437,316.846,224.821,301.615,227.9z"/>
		</g>
	</g>
	<g id="&#x424;&#x438;&#x433;&#x443;&#x440;&#x430;_410">
		<g>
			<path style="fill-rule:evenodd;clip-rule:evenodd;fill:#3C2725;" d="M278.816,209.606l-16.262-18.853l21.299-4.893l-56.124-6.716
				l-12.952,6.716v8.635c0,0,14.379,0.725,28.144,3.973C260.666,202.655,278.816,209.606,278.816,209.606z M280.05,221.281
				c-9.47-3.625-22.388-5.919-22.388-5.919l-37.992,7.771l3.166,16.117c0,0,37.081-1.871,57.029-4.595
				c6.39-0.873,14.638-5.19,14.638-5.19S288.985,224.702,280.05,221.281z"/>
		</g>
	</g>
	<g id="&#x424;&#x438;&#x433;&#x443;&#x440;&#x430;_411">
		<g>
			<path style="fill-rule:evenodd;clip-rule:evenodd;fill:#BF753F;" d="M300.164,176.027l-0.48-6.716l-99.776-16.31l11.033,23.505
				l7.675,0.48l-5.756-13.432L300.164,176.027z M293.447,198.098c-14.25-2.767-31.659-7.199-31.659-7.199s11.677,6.741,24.392,11.7
				c11.169,4.355,23.578,7.008,23.578,7.008l1.438-9.114C311.196,200.492,302.879,199.93,293.447,198.098z"/>
		</g>
	</g>
	<g id="&#x417;&#x430;&#x43B;&#x438;&#x432;&#x43A;&#x430;_&#x446;&#x432;&#x435;&#x442;&#x43E;&#x43C;_220">
		<g>
			<path style="fill-rule:evenodd;clip-rule:evenodd;fill:#261917;" d="M335.1,223.714l-9.188-13.591
				c-0.61-0.901-1.538-1.541-2.599-1.787l-7.179-1.669l-0.604-8.596c-0.15-2.154-1.87-3.864-4.024-4.005l-8.653-0.566l-0.392-1.553
				l4.206,0.004h0.004c1.591,0,3.054-0.875,3.806-2.278s0.67-3.106-0.212-4.432l-3.864-5.8l-1.207-11.406
				c-0.206-1.955-1.709-3.523-3.652-3.815l-102.492-15.391c-1.004-0.151-2.036,0.058-2.903,0.594l-14.031,8.634
				c-1.905,1.173-2.599,3.606-1.599,5.607l7.527,15.055l-4.044,6.2c-0.796,1.22-0.923,2.76-0.337,4.094
				c0.586,1.335,1.805,2.284,3.243,2.522l5.75,0.959l-22.301,5.711c-1.367,0.35-2.477,1.345-2.972,2.666l-4.317,11.513
				c-0.525,1.401-0.288,2.973,0.626,4.155c0.916,1.186,2.379,1.82,3.864,1.654l13.097-1.363l0.165,1.238
				c0.123,0.921,0.539,1.776,1.187,2.442l12.026,12.342l-0.366,1.58c-0.256,1.107-0.066,2.27,0.529,3.236l9.154,14.877
				c0.791,1.286,2.188,2.055,3.676,2.055c0.154,0,0.309-0.008,0.465-0.025l116.943-12.638c1.283-0.138,2.438-0.845,3.146-1.925
				l7.556-11.513C336.088,227.045,336.075,225.157,335.1,223.714z M190.006,163.338l9.321-5.734l0.161,0.023l9.935,20.171
				c0.351,0.711,1.063,1.174,1.855,1.203l11.375,0.429l-8.748,4.884c-0.736,0.41-1.166,1.21-1.101,2.05l0.458,5.947
				c-3.027-0.313-6.063-0.592-9.102-0.855l-1.798-4.109c-0.585-1.338-1.806-2.287-3.246-2.528l-4.279-0.714l1.789-2.743
				c0.838-1.284,0.931-2.917,0.245-4.289L190.006,163.338z M188.656,211.531c-0.309-2.316-2.401-3.98-4.727-3.724l-10.33,1.075
				l1.077-2.871l25.456-6.52c0.228,1.411,0.464,2.82,0.702,4.229c0.467,2.575,0.983,5.14,1.573,7.688l-13.353,3.116L188.656,211.531
				z M201.86,228.516l-9.959-10.221l13.849-3.231c0.004,0,0.008,0.001,0.012,0l8.171-0.558c2.739-0.17,5.483-0.26,8.227-0.334
				c5.489-0.108,10.982-0.066,16.459,0.205c4.779,0.241,9.561,0.682,14.341,1.235c-0.61,0.024-1.223,0.027-1.826,0.087l-6.249,0.645
				c-4.142,0.351-8.35,0.895-12.499,1.455c-4.165,0.575-8.303,1.2-12.466,1.901c-0.044,0.009-0.095,0.019-0.139,0.028
				c-0.042,0.01-0.072,0.04-0.113,0.052c-0.072,0.024-0.145,0.042-0.216,0.074c-0.226,0.103-5.582,2.575-10.966,5.665
				c-1.847,1.061-4.116,2.449-6.104,3.688C202.227,228.966,202.065,228.727,201.86,228.516z M209.272,245.698l-6.796-11.045
				l0.11-0.477c2.285-1.442,5.591-3.502,8.049-4.913c2.976-1.709,5.978-3.236,8.023-4.241l2.213,12.726l-11.228,7.91
				L209.272,245.698z M321.479,233.572l-102.98,11.129l5.444-3.836c1.998-0.127,19.792-1.236,46.367-2.335
				c6.693-0.276,11.77-1.934,16.682-3.536c2.999-0.979,5.834-1.902,8.865-2.442c12.302-2.183,22.811-3.174,28.656-3.603
				L321.479,233.572z M295.101,228.303c-3.329,0.59-6.44,1.605-9.449,2.587c-4.634,1.512-9.425,3.075-15.52,3.326
				c-23.506,0.972-40.136,1.952-45.1,2.256l-2.257-12.981c3.385-0.783,6.79-1.547,10.2-2.247c4.087-0.864,8.149-1.549,12.29-2.334
				l6.14-1.285c2.013-0.407,4.02-0.608,6.093-0.631c2.092-0.019,4.197,0.048,6.307,0.149c2.527,0.414,5.051,0.859,7.564,1.354
				c0.143,0.027,0.292-0.054,0.336-0.195c0.048-0.152-0.035-0.313-0.188-0.361c-5.301-1.671-10.686-3.024-16.119-4.225
				c-5.43-1.21-10.93-2.179-16.487-2.819c-5.547-0.653-11.113-1.07-16.685-1.341c-2.786-0.154-5.574-0.243-8.365-0.34
				c-1.956-0.063-3.905-0.098-5.867-0.095c-0.483-2.219-1.009-4.428-1.581-6.627c-0.486-1.79-0.982-3.577-1.492-5.361
				c3.43,0.132,6.861,0.294,10.295,0.491c0.152,0.033,0.297,0.088,0.458,0.088c0.056,0,0.111-0.002,0.168-0.008
				c0.062-0.004,0.118-0.021,0.177-0.031c2.058,0.121,4.119,0.229,6.171,0.376c6.868,0.534,13.803,1.081,20.368,2.484
				c6.736,1.463,13.486,3.174,20.218,4.874l20.177,5.256l-19.669-6.948c-6.58-2.271-13.141-4.542-19.843-6.604
				c-1.663-0.495-3.42-1.035-5.181-1.359c-1.738-0.353-3.472-0.656-5.207-0.938c-3.469-0.562-6.936-1.028-10.405-1.457
				c-1.674-0.204-3.347-0.372-5.02-0.559l-0.415-5.388l14.264-7.961c0.846-0.471,1.273-1.448,1.047-2.39
				c-0.226-0.939-1.05-1.616-2.018-1.652l-17.782-0.671l-8.042-16.328l92.273,13.855l0.967,9.142
				c0.05,0.476,0.205,0.926,0.406,1.357c-3.058,0.366-6.072,0.781-9.119,1.313c-3.559,0.595-6.895,1.545-10.252,2.355l-20.111,5.165
				l20.693-1.449c3.457-0.198,6.904-0.492,10.211-0.542c1.063-0.016,2.139,0,3.212,0.009l1.47,5.817
				c-1.813-0.271-3.621-0.563-5.442-0.809c-3.345-0.48-6.788-0.776-10.098-1.085l-20.046-1.941l19.594,4.687
				c3.303,0.761,6.476,1.529,9.674,2.493c3.195,0.933,6.398,1.923,9.566,2.935l0.022,0.008c0.131,0.041,0.266,0.073,0.406,0.096
				c0.2,0.032,0.399,0.042,0.595,0.033c0.148,0.025,0.295,0.056,0.448,0.065l8.026,0.525l0.514,7.311
				c-1.645,0.041-3.287,0.078-4.933,0.135c-1.204,0.061-2.403,0.048-3.614,0.186c-1.221,0.126-2.426,0.269-3.633,0.431
				c-2.41,0.329-4.809,0.714-7.165,1.243c2.409,0.108,4.797,0.364,7.169,0.674c2.369,0.317,4.711,0.747,7.094,0.98
				c3.398,0.413,6.796,0.876,10.184,1.359l6.91,1.607l5.547,8.205C319.548,224.961,308.322,225.956,295.101,228.303z
				 M270.518,179.272c3.186-0.025,6.379-0.229,9.559-0.989c-3.089-1.046-6.155-1.738-9.217-2.39
				c-3.058-0.628-6.109-1.165-9.141-1.672c-3.088-0.544-6.29-0.89-9.477-0.939c-3.191-0.013-6.426,0.149-9.582,1.043
				c3.123,0.905,6.15,1.63,9.193,2.319c3.049,0.67,6.052,1.283,9.143,1.831C264.154,179.013,267.334,179.267,270.518,179.272z"/>
		</g>
	</g>
	<g id="&#x417;&#x430;&#x43B;&#x438;&#x432;&#x43A;&#x430;_&#x446;&#x432;&#x435;&#x442;&#x43E;&#x43C;_219">
		<g>
			<path style="fill-rule:evenodd;clip-rule:evenodd;fill:#517554;" d="M351.158,186.218c-8.219-3.812-21.502-1.189-36.198,12.714
				c-5.334,5.047-13.297,13.709-14.413,23.192c-0.791,6.718-0.863,10.867-0.863,10.867s-4.713-14.753-15.908-22.963
				c-17.436-12.783-24.746-23.808-24.746-23.808s-0.859,13.004,9.994,29.912c2.877,4.479,1.879,4.267,1.879,4.267
				s-11.645-10.427-28.506-20.222c-10.917-6.342-22.237-4.258-22.237-4.258s7.87,1.94,35.35,32.088
				c9.672,10.61,26.905,12.898,26.905,12.898l23.025-1.079c0,0,4.542-16.4,23.011-34.554c5.175-5.088,15.216-11.291,22.334-12.098
				c5.67-0.642,8.98,3.479,8.98,3.479S356.553,188.719,351.158,186.218z"/>
		</g>
	</g>
	<g id="&#x417;&#x430;&#x43B;&#x438;&#x432;&#x43A;&#x430;_&#x446;&#x432;&#x435;&#x442;&#x43E;&#x43C;_218">
		<g>
			<path style="fill-rule:evenodd;clip-rule:evenodd;fill:#2B3D2D;" d="M362.719,192.56c-0.386-0.782-3.959-7.718-10.317-10.666
				c-2.747-1.272-5.833-1.919-9.175-1.919c-6.777,0-17.659,2.651-31.012,15.283c-4.959,4.693-12.404,14.415-14.921,23.918
				c-2.74-4.464-6.569-9.373-11.663-13.108c-16.617-12.186-23.808-22.796-23.875-22.896l-5.886-8.874l-0.702,10.626
				c-0.03,0.464-0.524,9.438,5.135,22.098c-4.846-3.318-10.364-6.9-16.056-10.206c-11.689-6.789-26.389-6.285-27.008-6.255
				l-19.542,0.807l18.598,6.217c0.111,0.037,11.438,4.036,34.814,30.315c12.844,14.439,36.428,15.578,43.544,15.578
				c1.153,0,1.874-0.029,2.049-0.038c0.26-0.012,0.512-0.055,0.755-0.119l0.011,0.058l10.528-1.345l0.638-2.307
				c0.044-0.154,4.489-15.671,22.064-32.948c4.889-4.804,14.18-10.404,20.219-11.087c0.448-0.051,0.897-0.077,1.333-0.077
				c3.156,0,4.954,1.32,4.979,1.336l12.78,10.351L362.719,192.56z M256.486,223.117c-9.949-11.186-17.842-18.551-23.81-23.388
				c2.68,0.771,5.422,1.835,7.956,3.309c14.076,8.175,27.458,18.392,31.096,21.225c4.107,4.17,9.027,8.179,13.225,11.345
				C275.979,234.456,263.815,231.355,256.486,223.117z M278.053,220.415c-0.217-0.376-0.5-0.722-0.859-1.009
				c-0.07-0.057-0.32-0.256-0.716-0.565c-1.87-1.933-3.513-3.868-4.696-5.713c-3.848-5.992-6.131-11.468-7.485-15.939
				c4.068,4.152,9.69,9.263,17.079,14.682c10.082,7.391,14.567,21.022,14.611,21.159h0.001c0.057,0.178,0.138,0.341,0.219,0.503
				c0.021,0.465,0.046,0.913,0.075,1.337C292.654,232.402,284.401,226.558,278.053,220.415z M325.656,201.645
				c-13.234,13.011-19.576,25.152-22.26,31.526c-0.119-2.586-0.104-5.877,0.316-9.453c1.014-8.615,8.787-18.824,13.447-23.233
				c9.076-8.586,18.333-13.314,26.066-13.314c2.288,0,4.357,0.421,6.147,1.25c0.114,0.054,0.228,0.11,0.341,0.169
				C341.891,189.645,331.404,195.997,325.656,201.645z"/>
		</g>
	</g>
	<g id="&#x424;&#x438;&#x433;&#x443;&#x440;&#x430;_376_&#x43A;&#x43E;&#x43F;&#x438;&#x44F;">
		<g>
			<path style="fill-rule:evenodd;clip-rule:evenodd;fill:#5E4137;" d="M415.26,268.654l-0.112-9.558c0,0-13.536-6.431-17.809-9.961
				s-18.622-13.561-41.778-14.188c-5.799-0.157-27.26,1.668-53.32,4.835c-31.215,3.792-65.157,9.398-65.157,9.398
				s-38.97,3.142-71.562,5.467c-17.877,1.275-32.052,2.448-32.052,2.448v7.195l17.988,3.958l-11.872,6.835l-1.08,8.995l8.994-0.36
				l-8.634,13.672l6.116,2.878l-3.238,8.994h77.711c0,0,15.678,5.394,35.605,5.893c46.439,1.164,115.858-2.295,115.858-2.295
				l30.468-26.511l8.725-4.52l-1.597-5.486L415.26,268.654z"/>
		</g>
	</g>
	<g id="&#x424;&#x438;&#x433;&#x443;&#x440;&#x430;_392">
		<g>
			<path style="fill-rule:evenodd;clip-rule:evenodd;fill:#494140;" d="M362.572,273.988c0.971-4.152,4.838-8.46,4.838-8.46
				s-31.393-0.449-64.726,3.313c-34.81,3.929-78.837,11.613-110.8,14.295C166.695,285.25,146.421,283,146.421,283l-7.915,13.671
				l7.196,4.317l-5.037,10.073c0,0,62.788-3.978,115.276-6.281c61.553-2.701,104.274-4.804,104.274-4.804s-2.681-5.819-1.377-10.914
				c0.975-3.812,4.57-6.423,4.57-6.423S361.544,278.385,362.572,273.988z"/>
		</g>
	</g>
	<g id="&#x424;&#x438;&#x433;&#x443;&#x440;&#x430;_393">
		<g>
			<path style="fill-rule:evenodd;clip-rule:evenodd;fill:#2F2123;" d="M369.907,307.414c-0.344-2.96-10.569-8.675-10.569-8.675
				s-24.773,1.852-58.912,3.463c-40.139,1.896-79.172,5.262-79.172,5.262s9.702,8.021,34.488,9.084
				c44.604,1.912,116.616-2.608,116.616-2.608S370.34,311.135,369.907,307.414z"/>
		</g>
	</g>
	<g id="&#x424;&#x438;&#x433;&#x443;&#x440;&#x430;_394">
		<g>
			<path style="fill-rule:evenodd;clip-rule:evenodd;fill:#BF753F;" d="M415.764,269.112l-0.414-9.601l-40.941-23.066
				c0,0,6.018,9.791,4.083,15.722c-1.475,4.522-3.549,7.938-15.101,20.264c-2.591,2.763,0.425,7.362-0.405,10.849
				c-0.83,3.487-5.674,3.715-4.978,7.526c1.107,6.065,3.956,8.583,6.883,11.306c4.086,3.8,8.332,6.279,10.219,6.468
				c3.238,0.324,25.904-22.539,25.904-22.539l11.063-3.778l-3.157-6.512L415.764,269.112z"/>
		</g>
	</g>
	<g id="&#x424;&#x438;&#x433;&#x443;&#x440;&#x430;_395">
		<g>
			<path style="fill-rule:evenodd;clip-rule:evenodd;fill:#F4CE87;" d="M414.541,258.805l-35.348-15.35l-0.038,6.199l29.629,17.365
				L414.541,258.805z M371.901,262.688c-2.868,3.782-4.796,7.791-4.796,7.791s10.455,8.364,22.403,11.591
				c8.922,2.408,18.184-0.282,19.965-1.948c-9.804-6.955-34.058-23.175-34.058-23.175S374.474,259.295,371.901,262.688z
				 M358.83,289.147c-0.854,3.237,0.756,8.146,0.756,8.146l15.89,13.048l11.992-12.951l-22.126-13.779
				C365.342,283.611,359.838,285.33,358.83,289.147z"/>
		</g>
	</g>
	
		<g id="&#x417;&#x430;&#x43B;&#x438;&#x432;&#x43A;&#x430;_&#x446;&#x432;&#x435;&#x442;&#x43E;&#x43C;_211_&#x43A;&#x43E;&#x43F;&#x438;&#x44F;_3">
		<g>
			<path style="fill-rule:evenodd;clip-rule:evenodd;fill:#261917;" d="M421.691,256.645c-0.153-0.059-15.478-5.928-27.646-12.716
				c-9.259-5.166-17.542-11.518-17.625-11.581c-0.8-0.615-1.773-0.911-2.799-0.894c0,0-10.102,0.39-21.605,0.908
				c-22.711,1.025-34.749,1.763-51.556,3.804c-29.785,3.619-62.445,8.95-65.161,9.396c-2.903,0.233-40.262,3.232-71.345,5.449
				c-12.461,0.889-23.1,1.021-28.332,1.021c-2.115,0-3.31-0.022-3.332-0.022c-1.311-0.029-2.489,0.514-3.326,1.47
				c-0.838,0.955-1.213,2.23-1.024,3.486l1.079,7.195c0.255,1.695,1.486,3.079,3.14,3.527l7.941,2.153l-2.146,0.767
				c-1.549,0.554-2.648,1.938-2.837,3.571l-1.079,9.354c-0.138,1.188,0.225,2.382,1.001,3.293s1.896,1.46,3.091,1.515l0.619,0.028
				l-4.107,6.719c-0.652,1.069-0.809,2.369-0.429,3.563c0.381,1.194,1.261,2.163,2.413,2.657l2.909,1.247l-3.422,5.436
				c-0.847,1.347-0.886,3.048-0.102,4.432c0.784,1.383,2.294,2.226,3.855,2.185l76.833-1.777c3.772,1.457,18.895,6.858,36.995,7.311
				c6.373,0.16,13.547,0.24,21.324,0.24c43.385,0,94.348-2.514,94.748-2.535l-26.919,0.86c18.781-2.261,33.481-4.532,33.628-4.555
				c0.944-0.147,1.813-0.603,2.472-1.297c0.061-0.063,6.131-6.458,12.451-12.403c5.168-4.863,10.624-9.543,12.479-11.118
				l9.597-2.959c1.369-0.422,2.439-1.496,2.856-2.867c0.419-1.372,0.128-2.86-0.774-3.975l-1.915-2.367l5.215-4.11
				c0.949-0.75,1.542-1.863,1.631-3.072c0.09-1.207-0.331-2.396-1.161-3.276l-1.048-1.115l2.917-0.724
				c1.832-0.453,3.156-2.045,3.271-3.93C424.576,259.056,423.455,257.316,421.691,256.645z M217.476,304.177
				c-0.033,0-0.067,0-0.1,0.001l-69.675,1.612l1.833-2.911c0.673-1.068,0.845-2.379,0.469-3.584
				c-0.376-1.206-1.261-2.188-2.421-2.685l-2.972-1.273l5.315-8.696c0.16-0.262,0.268-0.544,0.367-0.827
				c9.695,0.774,19.338,0.947,29.027,0.601c12.251-0.39,24.387-2.218,36.334-4.269l17.915-3.081
				c5.965-0.999,11.958-1.851,17.958-2.683c12.002-1.641,22.997-4.44,35.065-5.564c-12.107,0.631-23.16,2.939-35.237,4.091
				c-6.036,0.588-12.078,1.196-18.104,1.953l-18.037,2.35c-12.009,1.56-23.977,2.849-35.984,2.803
				c-11.977-0.011-24.08-0.851-35.805-2.63l-0.099-0.016c-0.031-0.005-0.063-0.009-0.095-0.013c-0.007,0-0.014,0.001-0.021,0
				l0.175-1.518l12.582-4.493c1.777-0.635,2.936-2.349,2.862-4.234s-1.363-3.504-3.184-3.998l-16.458-4.464
				c5.923-0.059,15.041-0.286,25.381-1.024c32.24-2.299,71.212-5.438,71.603-5.47c0.12-0.01,0.239-0.023,0.357-0.044
				c0.339-0.056,34.207-5.635,64.974-9.372c16.768-2.037,33.676-2.973,50.904-3.75c7.654-0.346,14.679-0.633,18.513-0.786
				c0.043,0.054,0.089,0.108,0.132,0.161c0.416,0.521,0.814,1.061,1.188,1.615c0.751,1.107,1.399,2.268,1.916,3.451
				c1.043,2.335,1.474,4.891,1.111,7.053c-0.449,2.54-1.725,4.854-3.489,7.146c-1.757,2.281-3.931,4.357-6.188,6.626
				c-0.563,0.575-1.134,1.167-1.702,1.848c-0.285,0.334-0.571,0.716-0.847,1.131c-0.317,0.506-0.443,0.787-0.645,1.167
				c-0.733,1.408-1.555,3.229-1.549,5.172c-0.013,1.914,0.547,3.558,1.145,5.072c0.035,0.086,0.077,0.164,0.112,0.249l-11.791,3.02
				l12.1,0.62c-0.278,0.203-0.6,0.406-0.924,0.604c-0.657,0.406-1.373,0.813-2.04,1.401c-0.664,0.574-1.568,1.405-2.041,3.579
				c-0.472,2.174,1.088,6.66,0.272,7.147c-1.672,0.996-24.749,2.144-24.749,2.144s-22.689,0.812-31.811,1.114
				c-23.602,0.782-41.156,1.365-82.703,3.768C218.108,304.221,217.794,304.177,217.476,304.177z M368.261,309.385
				c-7.055,0.337-53.265,2.362-93.245,2.362c-7.705,0-14.807-0.08-21.108-0.237c-9.219-0.23-17.698-1.899-23.983-3.55
				c33.644-1.873,50.02-2.417,71.34-3.124c9.126-0.303,19.156-0.636,31.83-1.114c12.017-0.456,25.085-1.976,26.809-1.346
				s8.268,5.26,8.268,5.26C368.7,308.419,368.682,309.163,368.261,309.385z M385.479,294.163
				c-4.054,3.813-10.112,9.652-12.276,11.741c0,0-10.604-7.443-11.278-8.545c-0.675-1.103-2.079-4.032-2.442-6.09
				c-0.119-0.742-0.197-1.509-0.121-2.176c0.032-0.582,0.438-1.07,0.984-1.44c0.553-0.384,1.234-0.684,1.946-1.011
				c0.71-0.345,1.489-0.646,2.263-1.397c0.377-0.371,0.729-0.982,0.787-1.634c0.076-1.023-0.269-1.637-0.269-1.637
				c-0.252-0.716-0.483-1.435-0.678-2.148c-0.384-1.423-0.634-2.855-0.46-4.066c0.148-1.201,0.763-2.265,1.605-3.514
				c0.467-0.719,0.694-0.978,1.229-1.48c0.1-0.094,0.23-0.191,0.336-0.287c2.151,2.058,4.436,3.984,6.845,5.768
				c2.62,1.939,5.456,3.653,8.493,5.006c3.021,1.357,6.18,2.401,9.395,3.216c1.179,0.292,2.355,0.548,3.538,0.783
				C392.77,287.513,389.091,290.765,385.479,294.163z M404.858,273.095c-0.442,0.35-0.805,0.78-1.078,1.261l-24.719-15.224
				l25.479,20.592l-4.055,1.619c-0.393,0.122-0.755,0.316-1.097,0.542c-2.296-0.038-4.66-0.22-6.961-0.51
				c-3.137-0.401-6.254-1.028-9.28-1.972c-3.031-0.903-5.896-2.335-8.666-3.963c-2.53-1.509-4.978-3.187-7.315-5.014
				c0.397-0.353,0.803-0.706,1.248-1.062c2.372-1.886,4.984-3.825,7.343-6.226c1.184-1.196,2.311-2.52,3.304-4.008
				c0.501-0.742,0.949-1.538,1.362-2.363c0.387-0.766,0.814-1.92,1.02-2.544c0.78-2.532,0.859-5.05,0.566-7.471
				c2.406,1.547,5.063,3.172,7.828,4.714c5.773,3.223,12.098,6.194,17.345,8.505c-0.582,0.526-1.021,1.208-1.25,1.986
				c-0.112,0.382-0.164,0.771-0.17,1.158c-2.25-0.943-4.498-1.895-6.738-2.854c-2.376-1.024-4.726-2.11-7.032-3.289
				c-2.301-1.188-7.808-4.139-9.945-5.626c1.916,1.771,7.253,5.039,9.392,6.547c2.146,1.501,4.357,2.919,6.599,4.276
				c3.884,2.346,7.774,4.653,11.694,6.94l0.075,0.08L404.858,273.095z"/>
		</g>
	</g>
	<g id="&#x442;&#x443;&#x434;&#x430;">
		<g>
			<path style="fill-rule:evenodd;clip-rule:evenodd;fill:#EBDACE;" d="M232.238,276.993c1.383-0.257,2.802-0.313,4.134-0.511
				c0.008-0.025,0.114-0.665,0.122-0.69c0.268-1.364,0.66-3.125,1.158-5.287c0.497-2.162,0.955-4.053,1.381-5.67
				c0.078-0.366,0.128-0.689,0.15-0.968c0.021-0.278-0.021-0.522-0.127-0.732c-0.107-0.209-0.286-0.411-0.537-0.605
				c-0.251-0.193-0.596-0.391-1.035-0.591c-0.793-0.409-1.722-0.767-2.788-1.072c-1.066-0.306-2.064-0.526-2.994-0.666
				c-0.847-0.202-1.481-0.197-1.904,0.014s-0.728,0.761-0.922,1.646c-0.254,2.298-0.535,4.802-0.842,7.509
				c-0.308,2.708-0.585,5.277-0.806,7.712c-0.011,0.126,0.064,0.431,0.059,0.552C228.986,277.352,230.467,277.322,232.238,276.993z
				 M200.645,288.449c-0.27,1.783-0.444,3.28-0.525,4.495c-0.113,0.484-0.097,0.893,0.05,1.228c0.146,0.335,0.386,0.622,0.719,0.861
				c0.333,0.24,0.745,0.439,1.235,0.599c0.49,0.159,1.039,0.304,1.644,0.435c0.605,0.131,1.152,0.251,1.643,0.361
				c0.49,0.11,0.922,0.166,1.296,0.166c0.373,0,0.667-0.062,0.88-0.185s0.345-0.365,0.398-0.727c0.375-1.89,0.833-3.93,1.374-6.123
				c0.437-1.779,1.302-4.785,1.8-6.656c-3.803,0.504-7.343,1.301-9.896,1.515C201.059,285.563,200.806,287.382,200.645,288.449z
				 M253.341,274.174c0.828-3.506,1.599-7.396,2.219-11.666c0.077-0.38,0.119-0.706,0.125-0.979
				c0.007-0.272-0.043-0.517-0.151-0.735c-0.108-0.217-0.28-0.42-0.517-0.609c-0.237-0.188-0.576-0.401-1.018-0.639
				c-0.852-0.42-1.811-0.768-2.876-1.046c-1.066-0.276-2.035-0.477-2.907-0.603c-0.901-0.122-1.584-0.064-2.049,0.172
				c-0.464,0.236-0.761,0.782-0.898,1.638c-0.185,1.786-0.436,3.785-0.761,5.996c-0.325,2.21-0.711,4.448-1.149,6.713
				c-0.167,0.901-0.466,2.474-0.648,3.363c3.842-0.358,7.495-0.758,10.524-1.183C253.27,274.452,253.307,274.319,253.341,274.174z
				 M319.447,252.597c-0.267-0.557-0.854-0.962-1.758-1.218c-0.669-0.119-1.33-0.255-1.986-0.407
				c-0.656-0.151-1.371-0.28-2.14-0.385c-0.771-0.105-1.618-0.176-2.544-0.213c-0.927-0.038-1.979-0.02-3.159,0.054
				c-1.356,0.03-2.363,0.354-3.025,0.968c-0.662,0.615-1.19,1.369-1.587,2.265c-1.111,2.488-2.314,5.307-3.619,8.447
				c-1.306,3.141-2.623,6.297-3.925,9.467c-1.304,3.171-2.534,6.22-3.665,9.152c-1.133,2.932-2.043,5.462-2.727,7.606
				c-0.172,0.651-0.248,1.167-0.231,1.549c0.017,0.383,0.099,0.692,0.243,0.932c0.146,0.239,0.35,0.438,0.609,0.597
				s0.564,0.354,0.912,0.586c0.462,0.229,0.917,0.435,1.365,0.617c0.448,0.184,0.859,0.346,1.235,0.487
				c0.664,0.224,1.161,0.284,1.489,0.18c0.329-0.104,0.604-0.425,0.826-0.96c0.389-1.006,0.795-2.038,1.221-3.099
				c0.426-1.06,0.926-2.211,1.504-3.456c1.638-0.549,3.527-1.045,5.668-1.486c2.14-0.442,4.288-0.881,6.443-1.316
				c0.078,1.306,0.161,2.506,0.248,3.604c0.086,1.098,0.19,2.107,0.313,3.029c0.121,0.89,0.323,1.505,0.601,1.846
				c0.277,0.342,0.763,0.611,1.455,0.811c0.665,0.232,1.313,0.363,1.946,0.389c0.632,0.026,1.321,0.026,2.068,0.001
				c0.746-0.026,1.226-0.157,1.438-0.391c0.211-0.234,0.313-0.643,0.306-1.226c-0.063-2.785-0.073-5.809-0.036-9.069
				c0.035-3.261,0.112-6.516,0.203-9.765c0.09-3.249,0.197-6.371,0.302-9.366c0.104-2.994,0.208-5.65,0.316-7.971
				C319.816,253.906,319.712,253.152,319.447,252.597z M306.336,275.974c-1.309,0.247-2.609,0.523-3.904,0.829
				c1.382-3.076,2.756-6.074,4.104-8.988s2.58-5.594,3.697-8.032c-0.023,2.555-0.031,5.13-0.014,7.727
				c0.018,2.598,0.033,5.203,0.063,7.815C308.959,275.511,307.645,275.728,306.336,275.974z M223.225,263.367
				c-0.399-0.677-0.9-1.286-1.502-1.83c-0.303-0.312-0.652-0.518-1.047-0.618s-1.038-0.099-1.927,0.004
				c-1.691,0.249-3.603,0.568-5.733,0.956c-2.131,0.389-4.305,0.813-6.519,1.27c-2.215,0.458-4.387,0.933-6.515,1.424
				c-2.128,0.491-4.033,0.979-5.716,1.463c-0.54,0.185-0.894,0.378-1.059,0.582c-0.042,0.052-0.066,0.113-0.075,0.185
				c-0.002,0.018-0.003,0.036-0.003,0.056c0,0.019,0.001,0.039,0.003,0.06c0.004,0.04,0.012,0.084,0.024,0.13
				c0.049,0.185,0.165,0.409,0.345,0.676c0.333,0.512,0.759,1.139,1.277,1.884s1.081,1.352,1.69,1.817
				c0.581,0.47,1.1,0.74,1.561,0.811c0.46,0.069,1.049-0.005,1.766-0.224c0.516-0.174,1.161-0.343,1.936-0.505
				s1.577-0.347,2.409-0.554c-0.412,1.771-0.839,3.686-1.28,5.74c-0.273,1.271-0.534,2.815-0.785,4.066
				c2.665-0.195,6.091-0.55,9.92-1.216c0.352-1.287,0.697-2.561,1.055-3.866c0.657-2.395,1.275-4.719,1.844-6.971
				c1.405-0.269,2.767-0.528,4.086-0.778s2.538-0.484,3.656-0.703c0.889-0.143,1.411-0.335,1.564-0.577
				c0.153-0.242,0.138-0.662-0.05-1.257C223.932,264.719,223.624,264.044,223.225,263.367z M283.418,284.877
				c-0.014,0.001-0.028,0.001-0.043,0.002c0.002-0.211,0.017-0.439,0.047-0.684c0.164-3.218,0.377-6.358,0.607-9.421
				c0.232-3.063,0.482-6,0.73-8.815c0.25-2.814,0.427-5.309,0.539-7.48c0.063-0.888-0.041-1.593-0.305-2.111
				c-0.265-0.519-0.85-0.895-1.754-1.127c-0.668-0.107-1.33-0.229-1.984-0.367c-0.656-0.137-1.369-0.252-2.139-0.344
				c-0.77-0.093-1.617-0.153-2.542-0.181c-0.926-0.028-1.978-0.003-3.157,0.074c-1.356,0.039-2.364,0.35-3.027,0.928
				c-0.664,0.579-1.194,1.287-1.594,2.127c-1.117,2.332-2.254,4.965-3.417,7.892c-1.164,2.927-1.322,3.391-2.38,6.34
				c-0.088,0.246-0.531,1.494-0.723,1.89c3.379-0.333,8.676-0.849,8.676-0.849s-5.621,1.246-8.949,1.938
				c-0.852,2.371-2.23,5.793-3.023,8.022c-0.591,1.85-1.076,3.528-1.453,5.039c-2.468,0.354-3.91,1.579-4.301,3.67
				c-0.281,1.064-0.457,2.086-0.527,3.068c-0.071,0.982-0.097,1.728-0.084,2.238c-0.028,1.164,0.028,1.984,0.16,2.464
				c0.132,0.479,0.422,0.911,0.87,1.299c0.851,0.406,1.931,0.42,3.236,0.033c1.306-0.388,2.204-0.761,2.694-1.118
				c0.488-0.357,0.891-0.973,1.211-1.849c0.149-0.783,0.273-1.322,0.367-1.613c0.094-0.293,0.205-0.773,0.338-1.443
				c2.323-0.284,5.199-0.547,8.629-0.788c3.43-0.242,5.834-0.36,7.213-0.35c-0.188,0.933-0.356,1.797-0.51,2.593
				c-0.152,0.795-0.26,1.581-0.318,2.357c0.191,0.562,0.408,0.958,0.647,1.191c0.239,0.232,0.919,0.337,2.04,0.311
				c1.12-0.025,2.257-0.321,3.414-0.893c0.871-0.535,1.478-1.073,1.821-1.612c0.343-0.54,0.683-1.437,1.03-2.693
				c0.321-1.165,0.615-2.247,0.879-3.247c0.262-0.999,0.465-2.082,0.607-3.248C287.285,285.786,286.118,284.702,283.418,284.877z
				 M275.089,273.328c-0.133,2.287-0.269,5.086-0.386,8.395c-0.045,1.55-0.067,2.845-0.072,3.886
				c-2.441,0.276-4.912,0.582-7.41,0.914c1.401-5.14,2.848-9.476,4.25-12.981c1.763-4.627,3.182-8.105,4.299-10.392
				C275.482,267.65,275.219,271.041,275.089,273.328z M232,279.334c-1.341,0.249-2.824,0.439-4.104,0.706
				c0.366,0.475,1.12,1.948,1.689,2.288c1.797,1.072,4.074,1.494,6.832,1.244c1.953-0.201,3.549-0.562,4.789-1.083
				c-0.208,0.734-0.461,1.553-0.755,2.455c-0.617,1.641-1.219,2.963-1.809,3.97c-0.59,1.008-1.185,1.509-1.788,1.509
				c-0.689-0.051-1.106-0.291-1.25-0.723c-0.144-0.431-0.272-0.917-0.384-1.459c-0.082-1.035-1.798-1.986-5.149-2.82
				c-1.031-0.266-1.778-0.247-2.239,0.048c-0.462,0.297-0.768,0.852-0.917,1.665c-0.089,0.381-0.106,0.825-0.05,1.332
				c0.055,0.508,0.283,1.02,0.685,1.538c0.286,0.604,0.632,1.181,1.037,1.729c0.404,0.548,0.91,1.053,1.517,1.515
				c0.607,0.462,1.323,0.868,2.146,1.218s1.797,0.627,2.921,0.834c2.162,0.388,3.937,0.434,5.325,0.122
				c1.388-0.311,2.579-0.776,3.577-1.398c1.253-0.827,2.416-2.133,3.504-3.925c1.088-1.792,2.109-4.015,3.067-6.675
				c0.719-2,1.66-4.764,2.313-7.243C247.147,276.902,240.164,277.816,232,279.334z"/>
		</g>
	</g>
	<g id="&#x424;&#x438;&#x433;&#x443;&#x440;&#x430;_382_&#x43A;&#x43E;&#x43F;&#x438;&#x44F;">
		<g>
			<path style="fill-rule:evenodd;clip-rule:evenodd;fill:#517554;" d="M269.072,381.259c-11.267,17.289-5.605,51.646-5.605,51.646
				s-6.4-15.252-18.924-29.782c-8.178-9.49-22-18.313-32.062-22.737c-6.615-2.908-19.185-3.651-25.735,0.109
				c-7.114,4.084-8.666,13.314-8.666,13.314s14.485-4.886,28.922-0.193c14.344,4.661,28.641,18.902,28.641,18.902
				s-20.799-5.883-31.396,0.766c-11.127,6.98-7.939,19.381-7.939,19.381s14.915-10.251,33.137-4.921
				c16.538,4.837,27.544,23.149,27.544,23.149l16.55-0.24c0,0-1.058-31.441,8.835-57.19c6.006-15.633,23.064-30.833,23.064-30.833
				S284.063,358.257,269.072,381.259z"/>
		</g>
	</g>
	
		<g id="&#x417;&#x430;&#x43B;&#x438;&#x432;&#x43A;&#x430;_&#x446;&#x432;&#x435;&#x442;&#x43E;&#x43C;_214_&#x43A;&#x43E;&#x43F;&#x438;&#x44F;">
		<g>
			<path style="fill-rule:evenodd;clip-rule:evenodd;fill:#2B3D2D;" d="M307.052,359.364c-0.438-0.106-9.866-2.187-22.574,4.454
				c-8.409,4.395-18.122,14.999-21.649,23.638c-4.406,10.789-3.213,24.88-1.717,37.057c-2.146-5.679-5.647-12.903-11.239-20.052
				c-7.795-9.967-18.284-18.473-29.529-23.946c-6.832-3.324-20.216-8.16-33.093-3.192c-12.121,4.678-12.192,18.104-12.188,18.674
				l0.071,13.94l5.456-12.83c0.02-0.046,4.236-4.258,23.279-1.16c7.898,1.285,17.017,6.794,24.722,12.523
				c-0.515-0.083-1.023-0.177-1.55-0.238c-14.136-1.642-24.135,1.065-29.629,7.973c-6.359,7.998-4.029,18.479-3.927,18.92
				l1.154,4.948l3.658-3.534c0.075-0.073,7.606-7.208,20.287-7.208c2.787,0,5.659,0.343,8.54,1.021
				c17.746,4.174,25.643,19.898,25.726,20.068l1.505,1.672h11.897l10.529-0.019l-0.275-3.84c-0.027-0.281-2.592-27.008,6.303-49.383
				c7.338-18.455,25.289-34.366,25.469-34.525l4.169-3.662L307.052,359.364z M204.791,390.266
				c-11.392-1.855-18.423-1.367-22.765-0.127c1.109-2.799,3.231-5.877,7.295-7.445c10.847-4.189,22.511,0.08,28.502,2.996
				c10.476,5.101,20.248,13.026,27.516,22.318c4.895,6.257,8.062,12.646,10.068,17.774c-1.508-1.929-3.167-3.823-4.979-5.619
				c-0.137-0.368-0.347-0.716-0.641-1.015C248.759,418.1,224.362,393.448,204.791,390.266z M257.64,447.289
				c-2.863-4.912-12.169-18.535-29.199-22.542c-3.313-0.778-6.629-1.174-9.858-1.174c-8.99,0-15.75,2.998-19.834,5.505
				c0.114-2.785,0.813-6.329,3.167-9.292c4.162-5.233,12.508-7.219,24.46-5.838c19.952,2.317,30.991,24.424,34.575,33.075
				L257.64,447.289z M277.458,396.723c-7.589,19.091-7.357,41.426-6.926,49.969l-0.599-0.068c-0.463-2.327-1.194-6.363-1.587-10.313
				c-0.254-2.552-0.61-5.323-0.986-8.258c-1.587-12.363-3.562-27.749,0.797-38.421c3.036-7.437,11.73-16.921,18.986-20.712
				c4.807-2.511,8.985-3.589,12.22-3.993C293.142,371.307,282.834,383.199,277.458,396.723z"/>
		</g>
	</g>
</g>
</svg>
