<?xml version="1.0" encoding="iso-8859-1"?>
<!-- Generator: Adobe Illustrator 15.0.0, SVG Export Plug-In . SVG Version: 6.00 Build 0)  -->
<!DOCTYPE svg PUBLIC "-//W3C//DTD SVG 1.1//EN" "http://www.w3.org/Graphics/SVG/1.1/DTD/svg11.dtd" [
	<!ENTITY ns_extend "http://ns.adobe.com/Extensibility/1.0/">
	<!ENTITY ns_ai "http://ns.adobe.com/AdobeIllustrator/10.0/">
	<!ENTITY ns_graphs "http://ns.adobe.com/Graphs/1.0/">
	<!ENTITY ns_vars "http://ns.adobe.com/Variables/1.0/">
	<!ENTITY ns_imrep "http://ns.adobe.com/ImageReplacement/1.0/">
	<!ENTITY ns_sfw "http://ns.adobe.com/SaveForWeb/1.0/">
	<!ENTITY ns_custom "http://ns.adobe.com/GenericCustomNamespace/1.0/">
	<!ENTITY ns_adobe_xpath "http://ns.adobe.com/XPath/1.0/">
]>
<svg version="1.1" xmlns:x="&ns_extend;" xmlns:i="&ns_ai;" xmlns:graph="&ns_graphs;"
	 xmlns="http://www.w3.org/2000/svg" xmlns:xlink="http://www.w3.org/1999/xlink" x="0px" y="0px" width="512px" height="512px"
	 viewBox="0 0 512 512" style="enable-background:new 0 0 512 512;" xml:space="preserve">
<metadata>
	<sfw  xmlns="&ns_sfw;">
		<slices></slices>
		<sliceSourceBounds  x="94" y="94" width="512" height="512" bottomLeftOrigin="true"></sliceSourceBounds>
	</sfw>
</metadata>
<g id="&#x418;&#x437;&#x43E;&#x431;&#x440;&#x430;&#x436;&#x435;&#x43D;&#x438;&#x435;_xA0_17_1_">
	<g id="&#x417;&#x430;&#x43B;&#x438;&#x432;&#x43A;&#x430;_&#x446;&#x432;&#x435;&#x442;&#x43E;&#x43C;_1">
		<g>
			<rect x="3.699" y="4.439" style="fill-rule:evenodd;clip-rule:evenodd;fill:#B17D7B;" width="503.121" height="503.121"/>
		</g>
	</g>
	<g id="&#x417;&#x430;&#x43B;&#x438;&#x432;&#x43A;&#x430;_&#x446;&#x432;&#x435;&#x442;&#x43E;&#x43C;_5">
		<g>
			<path style="fill-rule:evenodd;clip-rule:evenodd;fill:#F3D4C3;" d="M484.624,25.156l20.717-20.717H3.699l20.717,20.717H484.624z
				 M24.416,486.844L3.699,507.561h501.642l-20.717-20.717H24.416z"/>
		</g>
	</g>
	
		<g id="&#x417;&#x430;&#x43B;&#x438;&#x432;&#x43A;&#x430;_&#x446;&#x432;&#x435;&#x442;&#x43E;&#x43C;_1_&#x43A;&#x43E;&#x43F;&#x438;&#x44F;_2">
		<g>
			<radialGradient id="SVGID_1_" cx="256.7402" cy="256" r="228.0762" gradientUnits="userSpaceOnUse">
				<stop  offset="0" style="stop-color:#7D7193"/>
				<stop  offset="0.2" style="stop-color:#7C7193"/>
				<stop  offset="0.4" style="stop-color:#6C6382"/>
				<stop  offset="0.5939" style="stop-color:#554E6B"/>
				<stop  offset="0.7515" style="stop-color:#3E3A53"/>
				<stop  offset="0.897" style="stop-color:#29273A"/>
				<stop  offset="1" style="stop-color:#232132"/>
			</radialGradient>
			<polygon style="fill-rule:evenodd;clip-rule:evenodd;fill:url(#SVGID_1_);" points="432.765,27.924 78.856,27.924 28.664,78.116 
				28.664,435.769 76.972,484.076 433.367,484.076 484.816,432.627 484.816,79.976 			"/>
		</g>
	</g>
	
		<g id="&#x417;&#x430;&#x43B;&#x438;&#x432;&#x43A;&#x430;_&#x446;&#x432;&#x435;&#x442;&#x43E;&#x43C;_1_&#x43A;&#x43E;&#x43F;&#x438;&#x44F;">
		<g>
			<path style="fill-rule:evenodd;clip-rule:evenodd;fill:#F2D2C0;" d="M25.109,24.37v463.26h463.26V24.37H25.109z M466.659,418.566
				l-47.353,47.353H91.283l-44.462-44.462V92.277l46.196-46.196h325.734l47.908,47.907V418.566z"/>
		</g>
	</g>
	<g id="&#x424;&#x438;&#x433;&#x443;&#x440;&#x430;_3">
		<g>
			<path style="fill-rule:evenodd;clip-rule:evenodd;fill:#A18180;" d="M429.873,25.156l-344.047-1.48l-62.15,62.891v342.566
				l59.931,59.19l344.046-0.739l59.931-59.191V84.347L429.873,25.156z M477.226,423.954l-56.231,54.751H91.006l-56.231-54.751
				V88.046l54.012-54.012h334.428l54.751,56.231L477.226,423.954z"/>
		</g>
	</g>
	<g id="&#x417;&#x430;&#x43B;&#x438;&#x432;&#x43A;&#x430;_&#x446;&#x432;&#x435;&#x442;&#x43E;&#x43C;_6">
		<g>
			<path style="fill-rule:evenodd;clip-rule:evenodd;fill:#C7907F;" d="M23.676,86.566l62.52-62.752l-62.52-0.139V86.566z
				 M487.584,23.63l-62.521,0.139l62.521,62.752V23.63z M22.196,488.37l62.521-0.139l-62.521-62.752V488.37z M425.803,488.971
				l62.521,0.139v-62.89L425.803,488.971z"/>
		</g>
	</g>
	
		<g id="&#x417;&#x430;&#x43B;&#x438;&#x432;&#x43A;&#x430;_&#x446;&#x432;&#x435;&#x442;&#x43E;&#x43C;_6_&#x43A;&#x43E;&#x43F;&#x438;&#x44F;">
		<g>
			<path style="fill-rule:evenodd;clip-rule:evenodd;fill:#FDECE7;" d="M27.964,485.886l56.753,2.346L55.27,458.579L27.964,485.886z
				 M54.694,55.434l31.502-31.619l-59.314,3.562L54.694,55.434z M485.117,26.582l-60.054-2.813l31.376,31.491L485.117,26.582z
				 M425.803,488.971l59.314-3.113l-28.158-28.158L425.803,488.971z"/>
		</g>
	</g>
	<g id="&#x424;&#x438;&#x433;&#x443;&#x440;&#x430;_1">
		<g>
			<path style="fill-rule:evenodd;clip-rule:evenodd;fill:#C7907F;" d="M34.774,487.769l0.093-9.156h-8.417L34.774,487.769z
				 M477.04,477.873l0.093,9.155l8.323-9.155H477.04z M476.393,25.804l-0.092,9.156h8.416L476.393,25.804z M26.451,34.96h8.417
				l-0.093-9.156L26.451,34.96z"/>
		</g>
	</g>
	<g id="&#x424;&#x438;&#x433;&#x443;&#x440;&#x430;_2">
		<g>
			<path style="fill-rule:evenodd;clip-rule:evenodd;fill:#FDECE7;" d="M22.597,480.813L9.026,497.72l-1.627,10.285l22.418-0.296
				l0.532-18.644l-3.492-6.957L22.597,480.813z M508.448,495.817l-18.855-14.581l-4.261,4.043l-3.068,4.209l2.646,16.529
				l23.688,1.353L508.448,495.817z M21.002,31.648l4.26-1.295l3.492-6.956L28.222,4.754L5.803,4.458l1.628,10.284L21.002,31.648z
				 M487.997,31.226l18.856-14.581l0.147-11.553l-23.687,1.353l-2.646,16.53l3.069,4.208L487.997,31.226z"/>
		</g>
	</g>
	<g id="&#x417;&#x430;&#x43B;&#x438;&#x432;&#x43A;&#x430;_&#x446;&#x432;&#x435;&#x442;&#x43E;&#x43C;_2">
		<g>
			<path style="fill-rule:evenodd;clip-rule:evenodd;fill:#2F181B;" d="M0,0v512h512V0H0z M503.121,503.121H8.878V8.879h494.243
				V503.121z"/>
		</g>
	</g>
	<g id="&#x417;&#x430;&#x43B;&#x438;&#x432;&#x43A;&#x430;_&#x446;&#x432;&#x435;&#x442;&#x43E;&#x43C;_3">
		<g>
			<path style="fill-rule:evenodd;clip-rule:evenodd;fill:#40292E;" d="M482.33,20.67H29.346l-9.369,9.369v397.468
				c-0.119,0.585-0.119,1.188,0,1.771v53.925l9.606,9.605h453.025l9.507-9.507V30.455L482.33,20.67z M28.855,34.183l4.633-4.634
				h40.974L28.855,75.156V34.183z M33.726,483.931l-4.871-4.871v-39.857l44.728,44.729H33.726z M483.237,479.158l-4.772,4.772
				H437.63l45.607-45.607V479.158z M483.237,425.769l-58.162,58.162H86.139l-57.283-57.283V87.711l58.162-58.162h338.058
				l58.162,58.162V425.769z M483.237,75.156L437.63,29.549h40.558l5.05,5.05V75.156z"/>
		</g>
	</g>
	
		<g id="&#x417;&#x430;&#x43B;&#x438;&#x432;&#x43A;&#x430;_&#x446;&#x432;&#x435;&#x442;&#x43E;&#x43C;_4_&#x43A;&#x43E;&#x43F;&#x438;&#x44F;" style="opacity:0.502;">
		<g>
			<path style="fill-rule:evenodd;clip-rule:evenodd;fill:#876867;" d="M465.59,92.913l-47.243-47.244
				c-0.685-0.685-1.612-1.068-2.579-1.068H94.545c-0.968,0-1.896,0.384-2.58,1.068L46.409,91.227
				c-0.684,0.684-1.069,1.611-1.069,2.579v324.619c0,0.968,0.385,1.896,1.069,2.579l43.847,43.847
				c0.684,0.684,1.612,1.068,2.579,1.068h323.479c0.968,0,1.896-0.385,2.579-1.068l46.696-46.696
				c0.685-0.685,1.069-1.612,1.069-2.58V95.493C466.659,94.525,466.274,93.598,465.59,92.913z M459.363,414.063l-44.56,44.56H94.346
				l-41.709-41.709V95.316l43.419-43.419h318.201l45.106,45.106V414.063z"/>
		</g>
	</g>
	<g id="&#x417;&#x430;&#x43B;&#x438;&#x432;&#x43A;&#x430;_&#x446;&#x432;&#x435;&#x442;&#x43E;&#x43C;_4">
		<g>
			<path style="fill-rule:evenodd;clip-rule:evenodd;fill:#40292E;" d="M468.534,90.633l-47.907-47.907
				c-0.693-0.694-1.635-1.084-2.615-1.084H92.277c-0.981,0-1.922,0.39-2.616,1.084L43.465,88.922
				c-0.693,0.693-1.083,1.635-1.083,2.615v329.18c0,0.981,0.39,1.922,1.083,2.615l44.463,44.463
				c0.694,0.693,1.634,1.084,2.615,1.084h328.023c0.981,0,1.922-0.391,2.615-1.084l47.353-47.353
				c0.694-0.694,1.084-1.635,1.084-2.616V93.248C469.618,92.268,469.229,91.326,468.534,90.633z M462.22,416.295l-45.186,45.185
				H92.075L49.78,419.185V93.07l44.029-44.03h322.67l45.74,45.741V416.295z"/>
		</g>
	</g>
</g>
<g id="&#x418;&#x437;&#x43E;&#x431;&#x440;&#x430;&#x436;&#x435;&#x43D;&#x438;&#x435;_xA0_1035_1_">
	<g id="&#x424;&#x438;&#x433;&#x443;&#x440;&#x430;_383_&#x43A;&#x43E;&#x43F;&#x438;&#x44F;" style="opacity:0.502;">
		<g>
			<path style="fill-rule:evenodd;clip-rule:evenodd;fill:#181621;" d="M397.379,306.069c8.993-8.992,10.748-25.948,10.748-25.948
				l-65.373-43.785l19.35-30.746l24.354-9.894c0,0-11.81-13.461-28.359-4.106c-4.045,2.286-14.248,12.677-14.248,12.677
				l-28.714-17.888l-4.146-4.115c0,0,3.708-7.662,19.905-12.921c9.877-3.207,22.548,8.604,22.548,8.604s-12.021-17.72-19.955-18.33
				c-16.618-1.278-36.169,14.013-36.169,14.013l-16.55,6.476l-7.196-33.818c0,0,17.927-7.605,21.345-12.058
				s-4.075-19.603-4.075-19.603l-39.575-51.087c0,0-10.128-5.06-19.363-4.273c-7.491,0.638-14.456,7.151-14.456,7.151
				s-9.129-0.63-13.267,4.856c-4.138,5.487-4.947,31.166-7.6,29.682s-5.24-6.174-4.737-14.715
				c0.572-9.729,6.896-21.981,6.896-21.981s-8.949,3.822-12.952,7.915c-4.002,4.092-11.603,23.925-9.354,31.659
				c2.249,7.735,17.134,25.634,17.134,25.634s-17.224-13.581-23.61-12.682c-6.386,0.899-32.469,12.277-34.538,19.428
				s-0.72,35.258-0.72,35.258s6.431-20.147,7.915-25.185c1.484-5.037,15.515-12.232,20.147-12.232c4.632,0,9.804,1.17,10.074,4.317
				c0.27,3.148-7.105,16.055-7.915,20.867c-0.81,4.812,7.42,16.864,6.476,21.586s-18.213,9.219-22.396,14.616
				c-4.183,5.396,2.608,11.287,2.608,11.287s-21.091,1.934-25.543,5.757c-4.452,3.822-14.031,23.654-14.031,23.654
				s24.015-16.864,28.152-17.943c4.138-1.079,14.751,10.658,14.751,10.658s-26.82-0.184-31.048,4.26
				c-4.695,4.936-8.976,18.945-8.976,18.945s-4.453-2.833-6.836,0.72s-2.878,10.074-2.878,10.074s8.853,3.945,6.875,7.813
				c-1.979,3.867-11.192,5.857-11.192,5.857l-2.159,15.11c0,0,9.472-2.326,9.427,5.589s-5.109,8.082-5.109,8.082
				s2.518,14.661,7.195,19.428c4.677,4.768,23.745,3.598,23.745,3.598s-9.669,13.177-10.793,18.709
				c-1.124,5.531,3.418,37.235,3.418,37.235s6.757-26.587,11.12-35.132c4.362-8.544,19.281-7.141,19.281-7.141
				s-6.971,16.864-9.354,28.781c-2.384,11.918,7.42,44.972,7.42,44.972s5.963-15.908,7.854-32.793
				c1.209-10.792,12.068-10.02,12.068-10.02s-6.834,8.59-5.973,15.171c1.296,9.901,6.378,23.864,6.378,23.864
				s-0.915-26.423,12.62-34.444c15.875-9.408,18.365,6.472,18.365,6.472s-19.141,15.408-22.118,22.312
				c-4.582,10.619-2.796,23.47-2.796,23.47s10.253-18.663,19.428-22.306c9.174-3.643,5.377,24.096,11.467,29.411
				c9.534,8.319,48.254,8.005,48.254,8.005l28.063-12.232c0,0,20.146-16.234,30.221-18.708
				c10.073-2.474,48.659,14.751,48.659,14.751s-4.486-8.054-11.883-15.561c-8.162-8.283-19.312-16.097-19.312-16.097
				s-24.615-9.042-21.018-15.608c3.598-6.565,13.371-18.282,22.416-16.473c8.942,1.788,18.553,13.729,18.553,13.729
				s2.972-9.628,2.704-22.287c-0.187-8.888-7.422-15.655-2.074-24.123C361.597,324.931,382.657,320.791,397.379,306.069z"/>
		</g>
	</g>
	<g id="&#x424;&#x438;&#x433;&#x443;&#x440;&#x430;_374">
		<g>
			<polygon style="fill-rule:evenodd;clip-rule:evenodd;fill:#3C2725;" points="291.082,304.105 286.765,230.713 281.488,169.312 
				281.488,133.335 304.993,114.866 283.887,109.35 283.928,109.107 284.126,109.11 283.936,109.054 288.203,83.446 276.691,75.771 
				264.699,81.048 256.064,70.015 243.113,78.649 230.64,75.291 220.567,84.886 228.962,108.63 212.412,113.907 236.876,137.172 
				236.876,160.197 240.234,249.9 234.478,312.74 228.242,372.223 228.722,440.34 252.227,449.934 277.171,449.934 301.156,437.941 
				283.887,354.474 			"/>
		</g>
	</g>
	<g id="&#x424;&#x438;&#x433;&#x443;&#x440;&#x430;_384_&#x43A;&#x43E;&#x43F;&#x438;&#x44F;">
		<g>
			<path style="fill-rule:evenodd;clip-rule:evenodd;fill:#212D35;" d="M227.954,385.654l-0.671,54.686l23.889,10.073l-0.288-53.63
				L227.954,385.654z M239.707,105.347l-8.586-29.575l-10.553,8.154l7.772,24.688l-12.569,3.614l11.033,14.87l12.996-4.177
				l-2.442,41.113l11.033,3.357l0.841-47.503l4.436-1.426l0.479-17.269L239.707,105.347z"/>
		</g>
	</g>
	<g id="&#x424;&#x438;&#x433;&#x443;&#x440;&#x430;_387_&#x43A;&#x43E;&#x43F;&#x438;&#x44F;">
		<g>
			<polygon style="fill-rule:evenodd;clip-rule:evenodd;fill:#724531;" points="283.887,110.31 286.765,82.967 274.772,75.771 
				263.74,78.649 255.105,68.096 253.666,117.505 257.983,127.099 257.983,167.873 279.569,171.71 279.569,123.741 288.684,126.619 
				301.635,114.627 			"/>
		</g>
	</g>
	<g id="&#x424;&#x438;&#x433;&#x443;&#x440;&#x430;_388_&#x43A;&#x43E;&#x43F;&#x438;&#x44F;">
		<g>
			<path style="fill-rule:evenodd;clip-rule:evenodd;fill:#724531;" d="M274.293,423.07c-5.479-23.472-18.827-9.771-17.297,4.8
				c0.846,8.054,3.386,23.022,3.386,23.022l14.87-2.878l21.586-34.059C296.838,413.956,283.887,399.086,274.293,423.07z"/>
		</g>
	</g>
	<g id="&#x424;&#x438;&#x433;&#x443;&#x440;&#x430;_386_&#x43A;&#x43E;&#x43F;&#x438;&#x44F;">
		<g>
			<path style="fill-rule:evenodd;clip-rule:evenodd;fill:#BF753F;" d="M283.406,108.87l4.798-25.424l-11.993-8.635l-4.172,31.062
				l-8.73-2.696l0.91-25.486l-8.634-7.676v30.701l-1.798-0.48v15.83l48.929-0.72L283.406,108.87z M273.334,170.511l7.674,1.199
				v-39.335l-7.674-2.998V170.511z M256.544,167.873l11.033,2.878v-41.733l-11.033-2.878V167.873z"/>
		</g>
	</g>
	<g id="&#x424;&#x438;&#x433;&#x443;&#x440;&#x430;_385_&#x43A;&#x43E;&#x43F;&#x438;&#x44F;">
		<g>
			<path style="fill-rule:evenodd;clip-rule:evenodd;fill:#28202B;" d="M243.667,105l-1.513-29.229l-11.033-0.48l8.155,30.222
				L243.667,105z M253.187,117.505l-27.823,11.033l10.553,8.634l17.28-8.572l27.811,7.134l8.635-9.594L253.187,117.505z"/>
		</g>
	</g>
	
		<g id="&#x417;&#x430;&#x43B;&#x438;&#x432;&#x43A;&#x430;_&#x446;&#x432;&#x435;&#x442;&#x43E;&#x43C;_209_&#x43A;&#x43E;&#x43F;&#x438;&#x44F;">
		<g>
			<path style="fill-rule:evenodd;clip-rule:evenodd;fill:#261917;" d="M308.98,113.267c-0.335-1.604-1.549-2.882-3.135-3.297
				l-17.294-4.52l3.67-22.014c0.279-1.676-0.45-3.359-1.864-4.302l-11.512-7.675c-1.229-0.819-2.786-0.952-4.134-0.36l-8.921,3.925
				l-6.567-8.391c-1.392-1.778-3.919-2.182-5.794-0.931l-11.323,7.549l-10.583-2.85c-1.452-0.392-3.008,0.003-4.099,1.043
				L217.35,81.04c-1.232,1.174-1.661,2.961-1.093,4.565l6.911,19.545l-12.306,3.924c-1.454,0.464-2.555,1.659-2.896,3.146
				c-0.342,1.486,0.127,3.044,1.232,4.095l23.122,21.989v21.173c0,0.055,0.001,0.107,0.003,0.162l3.347,89.425l-5.725,62.506
				l-6.236,59.483c-0.016,0.158-0.024,0.319-0.023,0.48l0.479,68.116c0.013,1.742,1.072,3.307,2.686,3.966l23.505,9.595
				c0.518,0.212,1.073,0.32,1.632,0.32h24.945c0.67,0,1.33-0.156,1.931-0.455l23.983-11.994c1.752-0.875,2.693-2.818,2.297-4.735
				l-17.116-82.729l7.089-49.622c0.041-0.285,0.053-0.574,0.036-0.862l-4.325-73.51l-5.26-61.217v-33.693l21.854-17.172
				C308.709,116.528,309.313,114.872,308.98,113.267z M277.445,80.904l5.801,3.866l-3.516,21.089l-6.981-2.14L277.445,80.904z
				 M265.042,84.592c0.392-0.053,0.78-0.147,1.155-0.312l7.695-3.387l-1.547,22.702l-7.801-2.391L265.042,84.592z M257.982,79.058
				l3.076,3.932c0.07,0.089,0.152,0.163,0.229,0.246l2.709,17.802l-6.014-1.843V79.058z M244.635,81.852
				c0.216-0.097,0.432-0.196,0.632-0.33l8.398-5.599v22.188c-0.229,0.02-0.458,0.042-0.678,0.116l-9.154,3.079L244.635,81.852z
				 M240.865,81.86l2.124,19.73l-3.913,1.316l-5.032-22.884L240.865,81.86z M230.484,80.454l8.199,22.585l-6.349,2.136
				l-7.004-19.812L230.484,80.454z M229.826,124.019l-9.393-8.934l7.734-2.466c0.091-0.021,0.182-0.031,0.272-0.063l1.413-0.475
				l0.18-0.058c0.012-0.004,0.021-0.011,0.033-0.014l21.682-7.293v11.728L229.826,124.019z M233.35,127.369l4.726-1.633v6.127
				L233.35,127.369z M286.506,303.206l-7.134,49.938c-0.069,0.493-0.055,0.996,0.046,1.484l16.596,80.216l-18.68,9.342
				c0.051-4.053-0.199-8.063-0.543-12.061c-0.447-5.479-1.762-10.839-2.707-16.249l-2.92-16.219
				c-1.047-5.397-2.033-10.802-3.135-16.19c-0.021-0.105-0.117-0.181-0.227-0.173c-0.12,0.01-0.211,0.112-0.2,0.232
				c0.417,5.484,0.951,10.951,1.423,16.429l1.638,16.398c0.573,5.463,0.778,10.976,1.851,16.37c0.793,4.082,1.684,8.15,2.91,12.173
				h-22.535c0.492-3.846,0.681-7.684,0.776-11.519c0.157-5.267-0.564-10.506-0.911-15.757l-1.127-15.751
				c-0.45-5.248-0.838-10.498-1.343-15.744c-0.01-0.105-0.098-0.191-0.208-0.195c-0.119-0.004-0.219,0.09-0.224,0.209
				c-0.185,5.268-0.253,10.53-0.384,15.797l-0.167,15.789c-0.027,5.263-0.428,10.537,0.048,15.783
				c0.301,3.503,0.683,7.003,1.302,10.497l-17.873-7.296l-0.458-64.996l6.216-59.3l5.756-62.84c0.017-0.184,0.022-0.369,0.016-0.555
				l-3.354-89.623V125.18c0-0.146-0.028-0.282-0.068-0.414l7.241-2.502c-0.806,4.79-1.174,9.579-1.417,14.369
				c-0.317,5.736,0.245,11.473,0.431,17.209l0.648,17.208c0.291,5.737,0.519,11.474,0.864,17.21
				c0.006,0.107,0.092,0.195,0.203,0.203c0.119,0.007,0.221-0.084,0.229-0.203c0.345-5.736,0.572-11.473,0.863-17.21l0.648-17.208
				c0.187-5.736,0.748-11.473,0.431-17.209c-0.251-4.951-0.631-9.903-1.496-14.854l4.492-1.552l12.514,2.895
				c-0.937,4.444-1.338,8.888-1.6,13.332c-0.316,4.957,0.244,9.913,0.432,14.87l0.648,14.87c0.291,4.957,0.518,9.914,0.862,14.87
				c0.009,0.106,0.093,0.193,0.201,0.201c0.119,0.009,0.224-0.081,0.231-0.201c0.345-4.956,0.572-9.913,0.863-14.87l0.648-14.87
				c0.186-4.957,0.747-9.913,0.431-14.87c-0.255-4.354-0.643-8.706-1.539-13.06l9.216,2.132v6.85c0,0.029,0.006,0.058,0.008,0.087
				c-0.002,0.051-0.008,0.102-0.008,0.153v35.977c0,0.124,0.005,0.247,0.015,0.37l5.268,61.285L286.506,303.206z M279.809,128.255
				v-2.063l2.03,0.469L279.809,128.255z M286.195,123.237l-30.131-6.97v-11.641l25.66,7.863c0.262,0.13,0.536,0.24,0.829,0.316
				l12.694,3.318L286.195,123.237z"/>
		</g>
	</g>
	<g id="&#x424;&#x438;&#x433;&#x443;&#x440;&#x430;_378_&#x43A;&#x43E;&#x43F;&#x438;&#x44F;_5">
		<g>
			<path style="fill-rule:evenodd;clip-rule:evenodd;fill:#517554;" d="M392.298,195.215c-4.317-1.079-14.16-3.386-26.479,4.738
				c-10.511,6.933-17.851,17.176-21.737,23.571l0.006-0.247c0,0,0.893-17.791-2.976-28.253
				c-4.043-10.934-15.013-15.279-15.013-15.279s5.744,6.962,7.034,15.385c1.977,12.899,1.96,29.946,1.96,29.946l5.859,12.151
				l7.452,0.081c0,0,11.579-19.864,25.948-27.252c16.521-8.493,29.097,0.269,29.097,0.269S396.615,196.295,392.298,195.215z
				 M334.734,160.317c2.518,1.079,7.389,5.761,11.968,11.436c3.567,4.42,4.581,9.071,4.581,9.071s3.362-11.677-1.368-18.778
				c-6.038-9.064-11.942-15.76-11.942-15.76l-8.995-0.72c0,0-9.585,3.087-17.324,10.052c-6.394,5.755-11.749,13.764-13.961,17.292
				c0.985-2.934,3.583-11.329,3.583-18.349c0-8.784-3.598-16.91-3.598-16.91s-2.603,9.442-7.051,17.895
				c-4.545,8.635-10.938,16.284-10.938,16.284l29.861,4.677c0,0,7.738-8.649,15.074-13.366
				C329.21,160.193,332.216,159.238,334.734,160.317z"/>
		</g>
	</g>
	
		<g id="&#x417;&#x430;&#x43B;&#x438;&#x432;&#x43A;&#x430;_&#x446;&#x432;&#x435;&#x442;&#x43E;&#x43C;_213_&#x43A;&#x43E;&#x43F;&#x438;&#x44F;_5">
		<g>
			<path style="fill-rule:evenodd;clip-rule:evenodd;fill:#2B3D2D;" d="M406.716,208.404c-2.232-4.582-7.972-15.374-13.042-16.643
				c-1.723-0.431-4.931-1.231-9.021-1.231c-6.699,0-13.342,2.14-19.74,6.36c-7.248,4.779-13.014,10.999-17.259,16.587
				c-0.218-6.158-0.962-14.155-3.164-20.111c-4.437-12.002-16.155-16.761-16.652-16.958l-9.73-3.852
				c2.576-2.727,5.725-5.71,8.753-7.656c2.927-1.881,5.026-2.796,6.419-2.796c0.368,0,0.686,0.063,0.999,0.198
				c1.712,0.733,6.102,4.696,10.862,10.597c3.035,3.762,3.987,7.782,4.011,7.886l2.426,11.119l3.151-10.944
				c0.151-0.529,3.667-13.053-1.739-21.171c-6.076-9.121-11.934-15.788-12.18-16.067l-0.771-0.872l-10.722-0.858l-0.544,0.175
				c-0.414,0.134-10.263,3.359-18.368,10.653c-2.162,1.946-4.156,4.166-5.939,6.411c0.227-1.824,0.366-3.634,0.366-5.33
				c0-9.286-3.688-17.72-3.844-18.074l-3.265-7.372l-2.142,7.772c-0.024,0.091-2.569,9.234-6.824,17.318
				c-4.34,8.248-10.538,15.705-10.6,15.779l-3.09,3.701l22.532,4.598l13.814,2.844l1.098-1.429c0.04-0.053,2.268-2.933,5.381-6.252
				l6.662,8.127c0.053,0.063,5.262,6.49,6.412,13.992c1.92,12.525,1.927,29.34,1.927,29.508c-0.001,1.589,1.286,2.879,2.875,2.881
				c0.001,0,0.001,0,0.003,0c1.588,0,2.877-1.287,2.879-2.876c0-0.704-0.006-17.416-1.995-30.385
				c-0.263-1.719-0.69-3.377-1.212-4.936c1.439,1.74,2.742,3.819,3.646,6.265c3.292,8.903,2.92,23.885,2.82,26.632
				c-1.865,3.137-2.873,5.271-2.992,5.526l-0.277,0.594l0.146,11.299l11.938,0.131l0.844-1.446
				c0.112-0.192,11.312-19.219,24.777-26.143c4.374-2.247,8.849-3.387,13.302-3.387c7.679,0,12.795,3.431,12.834,3.458l9.078,6.324
				L406.716,208.404z M295.993,171.421l-10.5-2.144c2.332-3.127,5.644-7.894,8.356-13.051c1.766-3.353,3.24-6.828,4.392-9.849
				c0.479,2.292,0.834,4.88,0.834,7.522C299.075,159.753,297.102,167.519,295.993,171.421z M309.078,174.11l-6.725-1.385
				c2.285-4.019,6.606-10.862,11.902-15.628c6.185-5.566,13.764-8.546,15.773-9.274l7.209,0.576
				c1.754,2.071,6.333,7.637,10.959,14.582c1.35,2.025,1.892,4.585,2.021,7.075c-0.192-0.258-0.393-0.515-0.599-0.772
				c-3.979-4.93-9.503-10.742-13.074-12.273c-1.027-0.439-2.126-0.662-3.268-0.662c-2.636,0-5.486,1.109-9.53,3.71
				C317.693,163.95,311.557,171.07,309.078,174.11z M389.648,202.812c-5.378,0-10.738,1.354-15.933,4.024
				c-12.799,6.58-23.205,22.071-26.239,26.916l-3.006-0.033l-0.057-4.336c1.578-3.136,9.832-18.563,23.668-27.688
				c5.441-3.59,11.017-5.409,16.57-5.409c3.383,0,6.038,0.664,7.609,1.057c1.054,0.35,3.138,2.953,5.347,6.482
				C395.335,203.236,392.653,202.812,389.648,202.812z"/>
		</g>
	</g>
	<g id="&#x424;&#x438;&#x433;&#x443;&#x440;&#x430;_378_&#x43A;&#x43E;&#x43F;&#x438;&#x44F;_4">
		<g>
			<path style="fill-rule:evenodd;clip-rule:evenodd;fill:#517554;" d="M230.4,157.079c0,0-20.761-34.475-21.481-42.029
				c-0.719-7.556,2.053-35.681,2.053-35.681s-10.658,22.641-12.097,29.836c-1.439,7.195,9.578,29.886,9.578,29.886
				s-1.099-1.624-10.766-10.428c-4.866-4.431-11.004-2.882-14.778-0.726c-1.65,0.943-4.224,3.571-5.489,7.163
				c-2.598,7.377-3.146,17.662-3.146,17.662s6.461-14.149,14.75-14.751c6.499-0.472,26.264,25.184,26.264,25.184l15.83,2.878
				L230.4,157.079z"/>
		</g>
	</g>
	
		<g id="&#x417;&#x430;&#x43B;&#x438;&#x432;&#x43A;&#x430;_&#x446;&#x432;&#x435;&#x442;&#x43E;&#x43C;_213_&#x43A;&#x43E;&#x43F;&#x438;&#x44F;_4">
		<g>
			<path style="fill-rule:evenodd;clip-rule:evenodd;fill:#2B3D2D;" d="M233.543,154.934c-7.896-13.112-20.603-35.79-21.081-40.817
				c-0.685-7.193,2.024-34.848,2.052-35.126l1.637-16.601l-7.105,15.092c-0.441,0.938-10.825,23.045-12.315,30.499
				c-0.774,3.872,1.212,11.137,3.624,17.941c-0.016-0.015-0.034-0.033-0.05-0.048c-2.582-2.351-5.782-3.593-9.257-3.593
				c-3.932,0-7.256,1.564-8.888,2.497c-2.312,1.322-5.304,4.526-6.776,8.706c-2.704,7.678-3.281,18.026-3.304,18.464l-0.802,15.067
				l6.293-13.716c1.5-3.27,6.987-12.69,12.31-13.077c2.951,0.128,13.853,11.15,23.807,24.068l0.673,0.873l17.113,3.169l-0.047-0.077
				c0.121,0.016,0.242,0.035,0.367,0.035c0.077,0,0.155-0.003,0.233-0.009c1.584-0.127,2.766-1.515,2.639-3.099l3.5-1.6
				L233.543,154.934z M217.571,159.904c-6.463-8.311-20.64-25.438-27.687-25.438c-0.131,0-0.261,0.004-0.389,0.014
				c-3.867,0.28-7.259,2.688-9.987,5.584c0.359-1.609,0.79-3.206,1.304-4.668c1.034-2.936,3.127-5.005,4.203-5.62
				c1.136-0.649,3.43-1.739,6.032-1.739c2.074,0,3.834,0.686,5.381,2.093c8.059,7.341,18.104,22.128,23.307,30.176L217.571,159.904z
				 M228.79,163.909l-0.647-1.068c-0.443-0.73-7.831-12.86-16.298-23.892c-0.031-0.092-0.053-0.186-0.094-0.275
				c-4.414-9.668-10.242-25.231-9.375-29.565c0.539-2.693,2.62-8.085,4.963-13.65c-0.543,7.559-0.954,15.555-0.606,19.203
				c0.723,7.58,20.187,39.67,24.388,46.672L228.79,163.909z"/>
		</g>
	</g>
	<g id="&#x424;&#x438;&#x433;&#x443;&#x440;&#x430;_377_1_">
		<g>
			<path style="fill-rule:evenodd;clip-rule:evenodd;fill:#724531;" d="M336.533,228.314l-5.396-10.074l-10.793-0.72v-10.913
				c0,0-7.161,0.439-17.764-1.244c-9.566-1.52-24.21-11.827-24.21-11.827s13.378,1.56,22.786,1.56c8.928,0,16.309-0.12,16.309-0.12
				l-0.359-4.797l-6.476-1.799l4.317-2.159l-1.439-7.915c0,0-50.928-8.822-108.693-16.629
				c-41.825-5.653-83.481-12.426-91.411-13.727l-0.288-0.584l0.217,0.572c-0.841-0.138-1.296-0.213-1.296-0.213l-14.031,8.635
				l8.155,14.391c0,0-2.519,5.036-1.799,8.994c0.72,3.957,9.114,5.396,9.114,5.396l1.079,4.317l-28.542,4.917l-3.837,14.391
				l13.911,0.359l2.638,2.999l13.671,14.03l-0.897,3.878l9.154,14.877c0,0,40.766-0.816,62.264-0.222
				c29.169,0.809,56.119,2.334,56.119,2.334l104.334-10.793L336.533,228.314z"/>
		</g>
	</g>
	<g id="&#x424;&#x438;&#x433;&#x443;&#x440;&#x430;_391_&#x43A;&#x43E;&#x43F;&#x438;&#x44F;">
		<g>
			<path style="fill-rule:evenodd;clip-rule:evenodd;fill:#BF753F;" d="M131.823,171.71l-4.317-12.472l185.162,25.424l1.439-6.236
				l-199.553-31.66l9.354,23.445L131.823,171.71z M287.244,195.695l-13.432-3.838c0,0,8.838,14.689,21.511,18.456
				c5.737,1.706,25.501,6.407,25.501,6.407l-0.48-7.594c0,0-11.193-0.553-20.438-4.304
				C292.923,201.989,287.244,195.695,287.244,195.695z M252.727,238.02c-26.216-1.611-54.195-8.956-54.195-8.956l2.818,8.035
				c0,0,38.206,5.397,55.192,6.157c15.034,0.674,44.375-4.508,44.375-4.508S276.117,239.456,252.727,238.02z M333.775,218.24
				l-20.627,0.48c0,0-3.513-5.574-7.89-5.364c-4.378,0.21-2.934,7.043-6.442,7.073c-3.507,0.029-31.946-5.983-84.451-16.608
				c-20.782-3.613-43.627-9.746-60.655-12.119c-23.451-3.268-37.657-2.513-37.657-2.513l2.818,16.579l8.372,0.353l-1.287-10.92
				c0,0,53.204,5.972,104.867,17.821c26.396,6.054,65.952,14.392,70.089,14.212s2.915-5.41,5.373-5.89
				c2.459-0.479,5.903,4.781,8.902,4.871c2.998,0.09,18.887-0.63,18.887-0.63L333.775,218.24z"/>
		</g>
	</g>
	<g id="&#x424;&#x438;&#x433;&#x443;&#x440;&#x430;_389_&#x43A;&#x43E;&#x43F;&#x438;&#x44F;">
		<g>
			<path style="fill-rule:evenodd;clip-rule:evenodd;fill:#3C2725;" d="M169.554,220.399l24.15-7.195c0,0-21.395-1.642-38.173-1.028
				c-11.847,0.434-20.604,1.658-20.604,1.658l1.214,20.236c0,0,30.113,0.44,58.96,3.301c24.813,2.461,48.971,7.402,48.971,7.402
				s-14.627-7.168-33.375-12.635C191.894,226.655,169.554,220.399,169.554,220.399z M273.619,185.045
				c-25.033-1.421-53.652-5.255-53.652-5.255l27.703,10.389l-96.869-13.312l-7.465,6.116c0,0,41.604,6.416,80.364,12.394
				c33.798,5.213,56.708,10.541,56.708,10.541l-35.842-11.107l38.361-0.314l30.221-0.72l0.494-5.352
				C313.643,188.425,295.054,186.261,273.619,185.045z"/>
		</g>
	</g>
	<g id="&#x424;&#x438;&#x433;&#x443;&#x440;&#x430;_390_&#x43A;&#x43E;&#x43F;&#x438;&#x44F;_2">
		<g>
			<path style="fill-rule:evenodd;clip-rule:evenodd;fill:#212D35;" d="M101.603,180.824l13.671,6.477l15.65,2.158l-2.023-8.725
				l13.716-9.264l-17.269-0.72l-12.232-23.745l-15.83,10.073l8.635,14.392L101.603,180.824z M208.688,239.571
				c-30.41-3.234-71.828-6.221-71.828-6.221l-2.159-20.146c0,0,11.731-0.271,25.184-0.271c12.794,0,27.343,0.271,27.343,0.271
				s-12.098-3.778-27.293-5.476c-18.328-2.048-40.343-2.08-40.343-2.08l-3.598-14.75l-30.94,3.598l-4.317,13.671h12.232l7.196,6.476
				l10.523,12.772l9.624,18.168l120.973-1.124C241.284,244.459,227.732,241.598,208.688,239.571z"/>
		</g>
	</g>
	<g id="&#x424;&#x438;&#x433;&#x443;&#x440;&#x430;_390_&#x43A;&#x43E;&#x43F;&#x438;&#x44F;_3">
		<g>
			<path style="fill-rule:evenodd;clip-rule:evenodd;fill:#28202B;" d="M130.23,179.836l12.386-8.365l-17.269-0.72l-0.193-0.375
				l-20.587,4.024l-2.965,6.424l2.942,1.395L130.23,179.836z M208.688,239.571c-28.354-3.016-66.262-5.814-71.261-6.179
				l-13.508,12.157l117.365-1.091C241.284,244.459,227.732,241.598,208.688,239.571z M159.885,212.934l27.343,0.271
				c0,0-12.098-3.778-27.293-5.476c-15.751-1.76-34.187-2.03-39.07-2.071l-24.134,5.896l14.679,17.226l22.813-16.295
				L159.885,212.934z"/>
		</g>
	</g>
	
		<g id="&#x417;&#x430;&#x43B;&#x438;&#x432;&#x43A;&#x430;_&#x446;&#x432;&#x435;&#x442;&#x43E;&#x43C;_212_&#x43A;&#x43E;&#x43F;&#x438;&#x44F;">
		<g>
			<path style="fill-rule:evenodd;clip-rule:evenodd;fill:#261917;" d="M175.707,168.848c-3.089-0.543-6.291-0.889-9.478-0.938
				c-3.191-0.014-6.426,0.147-9.582,1.042c3.123,0.905,6.149,1.63,9.193,2.319c3.048,0.671,6.052,1.283,9.144,1.832
				c3.159,0.535,6.336,0.789,9.522,0.795c3.185-0.023,6.377-0.229,9.558-0.988c-3.089-1.047-6.156-1.738-9.216-2.389
				C181.789,169.893,178.737,169.355,175.707,168.848z M347.154,236.481l-7.537-9.831l-0.949-8.869
				c-0.225-2.098-1.934-3.727-4.041-3.85l-8.459-0.498l-0.439-5.945c-0.152-2.047-1.725-3.703-3.76-3.964
				c-0.059-0.007-6.034-0.773-16.432-2.425c-1.925-0.306-3.744-1.03-5.393-1.947c1.262,0.013,2.602,0.021,4.009,0.021
				c8.222,0,12.683,0.965,12.713,0.972c1.327,0.304,2.72-0.039,3.755-0.921c1.037-0.881,1.598-2.2,1.513-3.558l-0.36-5.756
				c-0.086-1.371-0.818-2.62-1.975-3.362l-1.012-0.651c0.734-1,1.004-2.272,0.734-3.49l-1.439-6.476
				c-0.389-1.75-1.82-3.078-3.595-3.336c-0.511-0.074-51.608-7.477-108.734-15.196c-45.881-6.201-92.189-13.854-92.652-13.932
				c-1.027-0.173-2.08,0.035-2.968,0.582l-14.031,8.635c-1.932,1.188-2.614,3.668-1.563,5.678l7.288,13.933l-2.861,8.186
				c-0.414,1.185-0.292,2.491,0.334,3.578c0.626,1.088,1.694,1.849,2.927,2.086l2.724,0.524l-20.214,3.204
				c-1.638,0.26-2.983,1.436-3.459,3.024l-4.317,14.391c-0.398,1.327-0.135,2.765,0.708,3.865c0.842,1.099,2.145,1.71,3.547,1.69
				l11.392-0.316l3.584,2.816l11.826,12.138l-0.365,1.58c-0.256,1.106-0.065,2.269,0.529,3.234l9.153,14.878
				c0.803,1.303,2.219,2.076,3.764,2.054c0.218-0.004,22.07-0.438,41.952-0.438c8.171,0,14.935,0.073,20.106,0.217
				c28.768,0.795,55.725,2.312,55.994,2.327c0.081,0.005,0.163,0.007,0.244,0.007c0.109,0,0.217-0.004,0.327-0.013l104.333-7.915
				c1.58-0.119,2.968-1.096,3.614-2.542C348.316,239.423,348.119,237.739,347.154,236.481z M104.056,157.928l9.229-5.68
				c0.061,0.01,0.14,0.022,0.204,0.032l9.921,20.144c0.351,0.712,1.063,1.174,1.855,1.204l11.375,0.43l-8.748,4.883
				c-0.736,0.41-1.165,1.21-1.1,2.05l0.448,5.826c-3.032-0.277-6.066-0.529-9.106-0.768l-1.783-4.076
				c-0.57-1.303-1.745-2.24-3.14-2.509l-4.445-0.855l1.829-5.233c0.394-1.127,0.304-2.367-0.25-3.426L104.056,157.928z
				 M102.176,209.112c-0.133-0.137-0.275-0.265-0.424-0.382l-5.037-3.958c-0.793-0.624-1.781-0.95-2.788-0.921l-6.979,0.194
				l1.82-6.07l25.365-4.021c0.235,1.464,0.443,2.933,0.69,4.394c0.466,2.576,0.982,5.141,1.573,7.688l-14.028,3.273L102.176,209.112
				z M115.847,223.143l-9.959-10.221l13.844-3.23c3.063-0.058,6.149-0.209,9.228-0.321c3.125-0.093,6.251-0.179,9.376-0.221
				c6.235-0.063,12.541-0.171,18.716,0.005c6.179,0.263,12.38,0.877,18.546,1.804c4.859,0.739,9.709,1.639,14.52,2.709
				c-8.513-1.325-17.083-2.363-25.741-2.963c-4.998-0.368-10.091-0.417-15.094-0.297c-5.025,0.114-10.002,0.338-15.04,0.668
				c-0.134,0.01-0.29,0.028-0.426,0.054c-0.646,0.12-1.209,0.417-1.674,0.816c-0.176,0.066-0.348,0.148-0.507,0.263l-15.542,11.262
				C116.008,223.363,115.944,223.242,115.847,223.143z M122.599,239.251l-6.135-9.971l0.208-0.897l14.481-10.492l2.166,13.808
				L122.599,239.251z M183.396,240.374c-5.25-0.146-12.095-0.22-20.345-0.22c-10.458,0-21.436,0.119-29.571,0.233l4.955-3.49
				c7.545-0.141,33.107-0.36,58.858,2.365c8.133,0.861,15.816,1.697,22.863,2.479C209.997,241.279,196.9,240.748,183.396,240.374z
				 M255.642,241.461c-9.12-1.084-31.213-3.667-57.896-6.491c-23.738-2.512-47.286-2.546-57.012-2.425l-2.338-14.902
				c3.76-0.666,7.544-1.293,11.323-1.832c4.884-0.704,9.709-1.225,14.634-1.472c9.354-0.496,18.791-0.476,28.22-0.104
				c0.468,0.11,0.938,0.211,1.406,0.324c0.143,0.035,0.299-0.043,0.348-0.186c0.051-0.15-0.03-0.313-0.181-0.365
				c-5.959-2.016-12.035-3.64-18.182-5.018c-6.148-1.364-12.375-2.482-18.698-3.062c-6.333-0.53-12.555-0.899-18.842-1.244
				l-9.412-0.501c-2.336-0.132-4.67-0.254-7.011-0.339c-0.489-2.251-1.022-4.493-1.601-6.725c-0.485-1.785-1.011-3.562-1.52-5.342
				c9.943,0.488,19.937,1.144,29.727,2.402c5.358,0.757,10.893,1.835,16.349,2.865l16.459,3.141
				c5.499,1.016,11.014,1.986,16.557,2.81c5.539,0.787,11.031,1.609,16.534,2.537c10.991,1.861,22.173,2.961,33.151,5.01
				c-10.717-3.136-21.418-4.653-32.574-6.835c-5.48-1.072-11.531-2.245-17-3.292c-5.454-1.08-10.583-2.104-16.007-3.379
				l-16.27-3.922l-8.17-1.936l-4.113-0.921c-1.408-0.29-2.809-0.543-4.208-0.775c-5.915-0.94-11.813-1.655-17.713-2.25l-0.4-5.198
				l14.264-7.961c0.845-0.472,1.273-1.448,1.047-2.389c-0.226-0.941-1.051-1.617-2.018-1.653l-17.782-0.671l-7.995-16.231
				c14.724,2.377,50.414,8.031,85.876,12.824c49.254,6.657,94.023,13.076,105.703,14.759l0.345,1.547l-1.587,1.983
				c-0.763,0.954-1.086,2.188-0.889,3.395s0.897,2.272,1.926,2.934l0.224,0.145c-1.788-0.107-3.845-0.178-6.164-0.178
				c-9.159,0-15.524-0.35-15.588-0.354c-0.192-0.012-0.382-0.007-0.569,0.007c-3.281-0.04-6.656-0.133-9.992-0.228
				c-3.627-0.088-7.248-0.275-10.871-0.441c-7.246-0.344-14.494-0.714-21.742-1.144c7.037,1.793,14.091,3.528,21.154,5.24
				l10.6,2.583c2.904,0.72,5.79,1.429,8.732,2.119c2.482,2.891,9.3,9.875,18.305,11.305c5.922,0.94,10.38,1.592,13.193,1.987
				l0.336,4.536l-3.744-0.232c-0.273-0.408-0.568-0.802-0.895-1.182c-0.682-0.789-1.5-1.524-2.484-2.105
				c-0.979-0.584-2.145-0.983-3.321-1.087c-0.603-0.058-1.142-0.049-1.769,0.034c-0.286,0.041-1.099,0.179-1.602,0.369
				c-1.106,0.353-2.199,1.041-3.01,1.94c-0.812,0.903-1.326,1.948-1.635,2.955c-0.273,0.903-0.391,1.784-0.438,2.646
				c-3.055-1.077-6.096-1.866-9.219-2.536c-2.055-0.432-4.122-0.782-6.198-1.052c-2.094-0.287-4.151-0.415-6.162-0.653
				c-8.117-0.97-16.338-1.997-24.589-3.69c7.772,2.749,16.121,4.053,24.269,5.722c2.054,0.424,4.097,0.715,6.063,1.128
				c1.985,0.409,3.955,0.894,5.897,1.454c3.854,1.116,7.752,2.532,11.18,4.271c0.306,0.154,0.666,0.232,1.033,0.202
				c1.066-0.088,1.858-1.022,1.771-2.087l-0.016-0.186c-0.102-1.237,0.031-2.793,0.468-3.841c0.462-1.104,1.052-1.605,1.95-1.812
				c0.273-0.063,0.273-0.056,0.797-0.103c0.185-0.006,0.469-0.008,0.677,0.034c0.448,0.068,0.858,0.232,1.269,0.509
				c0.41,0.272,0.811,0.657,1.17,1.123c0.18,0.233,0.352,0.483,0.504,0.744c0.141,0.235,0.32,0.594,0.361,0.71
				c0.294,0.838,1.055,1.474,1.996,1.561l0.193,0.019l18.282,1.696l0.649,6.071c0.086,0.788,0.385,1.538,0.867,2.167l3.424,4.465
				L255.642,241.461z"/>
		</g>
	</g>
	<g id="&#x441;&#x44E;&#x434;&#x430;_&#x43A;&#x43E;&#x43F;&#x438;&#x44F;">
		<g>
			<path style="fill-rule:evenodd;clip-rule:evenodd;fill:#EBDACE;" d="M163.411,205.409c-0.288-1.574-0.489-3.152-0.589-4.731
				c-0.046-1.313-0.014-2.521,0.14-4.009c-4.193-0.854-7.847-1.448-10.516-1.9c-0.042,1.156-0.004,1.553,0.092,2.75
				c0.182,2.256,0.575,4.462,1.135,6.61c0.136,0.521,0.281,1.034,0.435,1.54c2.486,0.289,5.856,0.719,9.625,1.301
				C163.618,206.464,163.509,205.947,163.411,205.409z M287.836,189.29c-0.678-0.204-1.347-0.421-2.008-0.652
				c-0.662-0.23-1.381-0.453-2.154-0.667s-1.626-0.414-2.557-0.602s-1.99-0.352-3.179-0.494c-1.363-0.207-2.39-0.112-3.069,0.288
				c-0.678,0.401-1.213,0.946-1.59,1.638c-0.194,0.352-0.381,0.724-0.566,1.096l16.556,0.271
				C288.934,189.844,288.496,189.544,287.836,189.29z M164.075,191.029c0.465-1.426,1.018-2.569,1.625-3.435
				c0.609-0.864,1.232-1.181,1.842-0.956c0.623,0.288,1.062,0.844,1.338,1.666c0.276,0.823,0.511,1.736,0.714,2.739
				c0.13,0.565,0.32,1.181,0.571,1.846c0.116,0.296,0.337,1.046,0.469,1.316l8.742,2.107c-0.004-0.069-0.031-0.569-0.035-0.641
				c-0.044-0.692-0.119-1.416-0.223-2.172s-0.223-1.521-0.354-2.293s-0.283-1.516-0.452-2.23c-0.152-0.621-0.317-1.205-0.497-1.753
				c-0.18-0.546-0.416-1.074-0.706-1.584c-0.291-0.509-0.646-1.016-1.067-1.521c-0.421-0.504-0.931-1.022-1.528-1.557
				c-0.618-0.443-1.303-0.885-2.055-1.324c-0.752-0.439-1.541-0.853-2.368-1.238s-1.678-0.729-2.554-1.026
				c-0.876-0.299-1.721-0.525-2.533-0.68c-1.103-0.177-2.274-0.14-3.51,0.113c-1.235,0.254-2.445,0.902-3.576,1.954
				c-1.399,1.316-2.552,2.887-3.414,4.71c-0.651,1.377-1.32,3.437-1.662,4.975l10.816,2.486
				C163.756,192.177,163.965,191.367,164.075,191.029z M158.666,215.204c0.642,0.895,1.41,1.683,2.313,2.362
				c0.918,0.69,1.793,1.218,2.635,1.584c0.921,0.337,1.958,0.697,3.112,1.083c1.153,0.385,2.407,0.636,3.768,0.753
				c0.639,0.074,1.29,0.085,1.951,0.033c0.66-0.053,1.284-0.151,1.871-0.299c0.586-0.146,1.136-0.341,1.646-0.582
				c0.511-0.241,0.938-0.499,1.283-0.773c0.676-0.612,1.314-1.38,1.903-2.301c0.312-0.488,0.565-1.008,0.776-1.551
				C174.66,216.234,165.202,215.715,158.666,215.204z M223.749,192.674c-0.501-1.292-1.077-2.454-1.741-3.488
				c-0.666-1.035-1.593-2.039-2.789-3.017c-1.067-0.853-2.357-1.61-3.884-2.272s-3.114-1.188-4.774-1.573
				c-1.282-0.3-2.59-0.303-3.921-0.004c-1.33,0.3-2.481,0.813-3.43,1.544c-1.398,1.23-2.477,2.587-3.226,4.065
				c-0.75,1.479-1.301,3.235-1.618,5.272c-0.267,1.891-0.318,3.769-0.188,5.629c-1.214,0.029-2.391,0.092-3.529,0.187
				c-0.191-2.653-0.296-4.794-0.36-6.431c-0.065-1.636-0.02-3.302,0.165-4.994c0.023-0.387,0.028-0.73,0.014-1.03
				c-0.015-0.3-0.088-0.573-0.221-0.822c-0.133-0.248-0.336-0.501-0.61-0.76c-0.274-0.258-0.643-0.538-1.105-0.84
				c-0.837-0.599-1.8-1.17-2.89-1.715c-1.091-0.545-2.103-0.989-3.042-1.331c-0.856-0.396-1.495-0.52-1.922-0.368
				c-0.426,0.15-0.738,0.705-0.893,1.666c-0.146,2.541-0.057,5.332,0.277,8.374c0.234,2.152,0.448,4.68,0.813,6.85
				c0,0,8.926,1.862,11.902,2.483c2.816,0.588,11.252,2.062,11.252,2.062c-0.014-0.289-0.015-0.287-0.018-0.571
				c-0.022-1.419,0.076-2.457,0.306-3.961s0.579-2.857,1.04-4.062c0.461-1.205,1.01-2.144,1.622-2.822
				c0.612-0.677,1.249-0.891,1.893-0.647c0.611,0.214,1.147,0.852,1.64,1.912c0.494,1.063,0.917,2.328,1.29,3.802
				c0.365,1.444,0.674,2.994,0.924,4.651s0.407,3.174,0.451,4.549c0.002,0.032,0.001,0.063,0.003,0.097l0.054,0.014
				c0,0-0.044-0.004-0.054-0.005c0.069,1.627,0.03,3.136-0.133,4.522c-0.167,1.418-0.45,2.606-0.842,3.567s-0.863,1.672-1.4,2.131
				c-0.538,0.459-1.135,0.577-1.789,0.354c-0.711-0.226-1.354-0.807-1.943-1.744c-0.59-0.937-1.099-2.06-1.532-3.365
				s-0.794-2.714-1.077-4.222c-0.134-0.716-0.214-1.238-0.289-1.927c-6.229-0.968-14.635-2.154-22.474-3.542
				c0.481,2.631,0.933,5.464,1.329,7.915c0.462,2.835,0.732,5.314,0.81,7.438c0.02,0.801,0.217,1.429,0.6,1.883
				c0.383,0.454,0.937,0.857,1.663,1.209c0.612,0.351,1.315,0.64,2.114,0.868c0.798,0.229,1.574,0.457,2.328,0.684
				c0.776,0.196,1.272,0.22,1.488,0.072c0.215-0.149,0.333-0.481,0.347-0.999c-0.056-1.461-0.143-3.455-0.336-5.981
				c-0.192-2.524-0.427-4.986-0.632-7.381c1.143-0.168,2.271-0.29,3.384-0.368c0.201,0.008,0.393-0.015,0.576-0.067
				c0.582,2.125,1.176,3.814,1.785,5.066c0.593,1.493,1.463,2.933,2.604,4.313c0.641,0.858,1.393,1.634,2.261,2.328
				c0.867,0.694,1.726,1.259,2.584,1.693c1.047,0.529,2.164,0.931,3.354,1.205c1.19,0.273,2.339,0.479,3.447,0.617
				c1.673,0.118,3.112,0.031,4.313-0.256c1.2-0.287,2.288-0.877,3.241-1.765c1.367-1.493,2.35-3.321,2.917-5.483
				c0.569-2.163,0.799-4.462,0.733-6.903c-0.066-2.44-0.395-4.898-0.918-7.379C225.166,197.12,224.513,194.813,223.749,192.674z
				 M296.76,221.547c-0.478-2.252-1.101-4.698-1.833-7.338c-0.732-2.639-1.511-5.273-2.235-7.898
				c-0.31-1.123-0.329-1.139-0.598-2.222l-6.217-5.767l-4.493-1.076c0.348,1.957,0.476,2.206,1.046,4.207
				c0.62,2.173,1.316,4.354,2.031,6.543c-1.299,0.025-2.582,0.079-3.851,0.16s-2.521,0.19-3.758,0.327
				c0.579-2.512,1.181-4.919,1.878-7.222c0.653-2.167,0.349-1.517,1.08-3.297l0.37-1.013l-9.423-2.327
				c-0.144,0.413-0.146,0.408-0.281,0.839c-0.797,2.527-1.401,5.113-1.902,7.754s-0.881,5.222-1.233,7.735
				c-0.351,2.514-0.634,4.717-0.856,6.599c-0.031,0.573-0.002,1.032,0.091,1.376c0.093,0.345,0.233,0.628,0.424,0.851
				c0.191,0.224,0.431,0.413,0.72,0.568c0.289,0.157,0.627,0.348,1.015,0.574c0.502,0.229,0.991,0.435,1.468,0.62
				c0.478,0.186,0.914,0.35,1.311,0.493c0.697,0.229,1.203,0.307,1.517,0.23c0.313-0.075,0.544-0.343,0.684-0.8
				c0.231-0.862,0.456-1.743,0.674-2.644s0.475-1.872,0.769-2.914c1.525-0.362,3.316-0.652,5.375-0.872
				c2.058-0.22,4.125-0.429,6.201-0.629c0.393,1.095,0.745,2.101,1.063,3.021c0.317,0.919,0.616,1.765,0.9,2.537
				c0.278,0.745,0.574,1.267,0.904,1.563c0.33,0.297,0.854,0.544,1.574,0.741c0.697,0.223,1.362,0.359,1.998,0.41
				c0.636,0.05,1.325,0.082,2.069,0.095c0.743,0.013,1.206-0.071,1.386-0.25C296.807,222.343,296.854,222.018,296.76,221.547z
				 M259.705,213.987c-0.014,0-0.028-0.001-0.043-0.001c-0.053-0.194-0.098-0.402-0.131-0.624c-0.686-2.943-1.404-5.811-2.032-8.597
				c-0.631-2.785-1.157-5.446-1.507-7.981c-0.351-2.534-0.553-4.771-0.64-6.718c-0.02-0.793-0.168-1.445-0.461-1.958
				c-0.293-0.513-0.895-0.952-1.813-1.32c-0.678-0.214-1.347-0.44-2.009-0.682c-0.662-0.24-1.381-0.473-2.155-0.695
				c-0.775-0.223-1.627-0.432-2.558-0.625c-0.931-0.194-1.991-0.363-3.179-0.509c-1.364-0.213-2.391-0.109-3.068,0.317
				c-0.677,0.427-1.211,1.004-1.585,1.734c-1.048,2.029-1.91,4.381-2.528,7.06c-0.621,2.681-0.992,5.421-1.207,8.219
				c-0.214,2.797-0.349,5.525-0.505,8.179c-0.037,1.8-0.039,3.448-0.014,4.94c-2.407,0.162-3.512,1.301-3.424,3.414
				c-0.041,1.068-0.011,2.104,0.088,3.104s0.175,1.761,0.252,2.283c0.118,1.188,0.234,2.026,0.397,2.521
				c0.163,0.492,0.471,0.943,0.928,1.352c0.858,0.44,1.93,0.483,3.22,0.136s2.168-0.689,2.636-1.028s0.833-0.935,1.066-1.788
				c0.073-0.771,0.125-1.299,0.182-1.583c0.055-0.285,0.101-0.756,0.125-1.412c2.279-0.16,5.116-0.266,8.511-0.316
				c3.395-0.051,5.784-0.034,7.167,0.047c-0.037,0.863-0.088,1.664-0.15,2.402c-0.062,0.737-0.097,1.47-0.107,2.194
				c0.227,0.532,0.458,0.91,0.704,1.136c0.246,0.225,0.925,0.343,2.038,0.353s2.239-0.23,3.366-0.716
				c0.843-0.461,1.415-0.93,1.714-1.408s0.563-1.28,0.748-2.405c0.168-1.043,0.287-2.01,0.369-2.901s0.066-1.859-0.051-2.905
				C263.868,215.114,262.389,214.043,259.705,213.987z M243.746,214.27c0.024-4.891,0.082-8.933,0.536-12.126
				c0.473-4.226,1.188-7.306,1.955-9.281c0.484,4.186,1.199,7.367,1.695,9.518c0.506,2.15,1.22,4.791,2.062,7.919
				c0.404,1.466,0.739,2.691,1.009,3.678C248.604,214.046,246.186,214.143,243.746,214.27z"/>
		</g>
	</g>
	<g id="&#x424;&#x438;&#x433;&#x443;&#x440;&#x430;_381">
		<g>
			<path style="fill-rule:evenodd;clip-rule:evenodd;fill:#517554;" d="M182.938,226.621c-0.69-5.111-17.79-12.235-25.382-15.085
				c-8.529-3.202-23.334,7.903-23.334,7.903s16.535,0.283,24.2,4.77c12.303,7.2,18.013,19.936,18.013,19.936l-4.317,0.959
				c0,0-16.165-17.261-24.777-16.16c-7.212,0.923-6.643,17.6-6.643,17.6s4.317-7.195,7.435-7.676
				c3.118-0.479,9.87,5.731,21.165,13.29c3.694,2.471,8.576-1.058,8.576-1.058l4.797,0.24
				C182.671,251.34,184.41,237.518,182.938,226.621z"/>
		</g>
	</g>
	<g id="&#x417;&#x430;&#x43B;&#x438;&#x432;&#x43A;&#x430;_&#x446;&#x432;&#x435;&#x442;&#x43E;&#x43C;_216">
		<g>
			<path style="fill-rule:evenodd;clip-rule:evenodd;fill:#2B3D2D;" d="M184.908,223.302c-3.539-6.193-25.308-15.402-29.555-15.827
				c-3.381-0.339-7.053,1.042-11.751,2.845c-1.278,0.492-2.643,1.016-4.104,1.542c-6.847,2.461-11.241,10.438-11.425,10.776
				l-5.187,9.559l9.239-5.743c1.415-0.88,5.774-3.162,8.911-3.162c10.205,0,18.15,2.713,22.98,7.849
				c2.277,2.421,4.282,5.052,6.013,7.619c-1.845-1.721-3.744-3.383-5.57-4.792c-6.441-4.966-11.834-8.273-17.223-8.273
				c-0.656,0-1.317,0.05-1.961,0.149c-6.148,0.946-7.323,13.421-7.476,20.772l-0.179,8.575l5.315-6.731
				c2.133-2.701,4.88-5.89,6.066-6.948c1.666,0.403,6.459,3.098,12.186,8.634c4.972,4.806,14.994,5.815,14.994,5.815l9.115-0.618
				l0.333-2.946C186.067,248.514,188.091,228.873,184.908,223.302z M165.187,246.004c-4.917-4.753-12.196-10.303-16.523-10.303
				c-0.854,0-1.619,0.198-2.274,0.592c-0.552,0.332-1.268,0.959-2.051,1.74c0.535-3.276,1.274-5.808,2.019-6.529
				c3.422-0.425,7.462,1.528,14.585,7.022c4.125,3.18,8.803,7.894,12.107,11.408C170.521,249.491,167.668,248.403,165.187,246.004z
				 M180.503,245.309c-2.394-4.794-6.525-11.979-12.294-18.112c-5.946-6.321-15.342-9.662-27.174-9.662
				c-0.074,0-0.149,0.002-0.225,0.003c0.209-0.097,0.421-0.183,0.634-0.26c1.504-0.541,2.907-1.079,4.221-1.584
				c3.952-1.517,6.963-2.718,9.115-2.49c3.429,0.346,23.041,9.298,25.13,12.954C181.097,228.234,181.127,236.735,180.503,245.309z"
				/>
		</g>
	</g>
	<g id="&#x424;&#x438;&#x433;&#x443;&#x440;&#x430;_376_&#x43A;&#x43E;&#x43F;&#x438;&#x44F;_2">
		<g>
			<path style="fill-rule:evenodd;clip-rule:evenodd;fill:#5E4137;" d="M415.772,270.094l-0.112-9.558
				c0,0-13.536-6.431-17.809-9.961s-18.623-13.561-41.778-14.188c-5.799-0.157-27.26,1.668-53.32,4.834
				c-31.216,3.793-65.157,9.399-65.157,9.399s-38.97,3.142-71.562,5.466c-17.877,1.275-32.052,2.449-32.052,2.449v7.195
				l17.988,3.957l-11.872,6.836l-1.08,8.994l8.994-0.359l-8.634,13.671l6.116,2.878l-3.238,8.995h77.71
				c0,0,15.678,5.394,35.605,5.893c46.439,1.164,115.858-2.295,115.858-2.295l30.468-26.511l8.725-4.52l-1.597-5.486
				L415.772,270.094z"/>
		</g>
	</g>
	<g id="&#x424;&#x438;&#x433;&#x443;&#x440;&#x430;_392_&#x43A;&#x43E;&#x43F;&#x438;&#x44F;">
		<g>
			<path style="fill-rule:evenodd;clip-rule:evenodd;fill:#494140;" d="M364.5,286.375c0,0-2.444-6.552-1.416-10.947
				c0.972-4.153,4.839-8.461,4.839-8.461s-31.394-0.448-64.726,3.313c-34.809,3.929-78.836,11.614-110.8,14.296
				c-25.189,2.113-45.463-0.138-45.463-0.138l-7.915,13.671l7.195,4.317l-5.037,10.074c0,0,62.789-3.978,115.276-6.281
				c61.555-2.702,104.274-4.805,104.274-4.805s-2.681-5.818-1.378-10.914C360.325,286.69,364.5,286.375,364.5,286.375z"/>
		</g>
	</g>
	<g id="&#x424;&#x438;&#x433;&#x443;&#x440;&#x430;_393_&#x43A;&#x43E;&#x43F;&#x438;&#x44F;">
		<g>
			<path style="fill-rule:evenodd;clip-rule:evenodd;fill:#2F2123;" d="M370.42,308.854c-0.344-2.96-10.569-8.675-10.569-8.675
				s-24.772,1.851-58.911,3.463c-40.139,1.896-79.173,5.262-79.173,5.262s9.702,8.021,34.488,9.084
				c44.604,1.911,116.616-2.608,116.616-2.608S370.853,312.574,370.42,308.854z"/>
		</g>
	</g>
	<g id="&#x424;&#x438;&#x433;&#x443;&#x440;&#x430;_394_&#x43A;&#x43E;&#x43F;&#x438;&#x44F;">
		<g>
			<path style="fill-rule:evenodd;clip-rule:evenodd;fill:#BF753F;" d="M416.276,270.552l-0.414-9.602l-40.941-23.066
				c0,0,6.018,9.792,4.083,15.723c-1.475,4.522-3.549,7.938-15.101,20.263c-2.591,2.764,0.425,7.363-0.405,10.85
				c-0.83,3.487-5.674,3.715-4.978,7.525c1.107,6.066,3.956,8.584,6.883,11.306c4.086,3.801,8.332,6.28,10.219,6.469
				c3.238,0.323,25.904-22.54,25.904-22.54l11.063-3.777l-3.157-6.512L416.276,270.552z"/>
		</g>
	</g>
	<g id="&#x424;&#x438;&#x433;&#x443;&#x440;&#x430;_395_&#x43A;&#x43E;&#x43F;&#x438;&#x44F;">
		<g>
			<path style="fill-rule:evenodd;clip-rule:evenodd;fill:#F4CE87;" d="M415.054,260.244l-35.348-15.351l-0.038,6.199l29.629,17.366
				L415.054,260.244z M372.413,264.127c-2.867,3.781-4.794,7.791-4.794,7.791s10.455,8.364,22.402,11.59
				c8.922,2.409,18.184-0.281,19.965-1.947c-9.804-6.956-33.361-21.586-33.361-21.586S374.986,260.734,372.413,264.127z
				 M359.344,290.586c-0.854,3.237,0.755,8.147,0.755,8.147l15.89,13.048l11.992-12.952l-22.263-13.191
				C365.718,285.638,360.351,286.769,359.344,290.586z"/>
		</g>
	</g>
	
		<g id="&#x417;&#x430;&#x43B;&#x438;&#x432;&#x43A;&#x430;_&#x446;&#x432;&#x435;&#x442;&#x43E;&#x43C;_211_&#x43A;&#x43E;&#x43F;&#x438;&#x44F;_4">
		<g>
			<path style="fill-rule:evenodd;clip-rule:evenodd;fill:#261917;" d="M422.204,258.084c-0.153-0.06-15.478-5.928-27.646-12.716
				c-9.26-5.166-17.542-11.519-17.625-11.582c-0.8-0.615-1.773-0.91-2.799-0.893c0,0-10.102,0.389-21.605,0.907
				c-22.711,1.025-34.75,1.763-51.557,3.805c-29.784,3.618-62.444,8.95-65.16,9.396c-2.903,0.234-40.262,3.233-71.345,5.45
				c-12.46,0.888-23.099,1.021-28.332,1.021c-2.115,0-3.309-0.022-3.333-0.022c-1.311-0.029-2.488,0.513-3.326,1.469
				c-0.838,0.955-1.213,2.231-1.024,3.487l1.079,7.195c0.254,1.695,1.486,3.079,3.14,3.527l7.941,2.153l-2.146,0.767
				c-1.549,0.553-2.648,1.938-2.837,3.571l-1.079,9.354c-0.138,1.189,0.225,2.383,1.001,3.294c0.776,0.911,1.896,1.459,3.091,1.515
				l0.619,0.027l-4.107,6.719c-0.652,1.07-0.809,2.37-0.429,3.563c0.381,1.195,1.261,2.163,2.413,2.658l2.909,1.246l-3.423,5.437
				c-0.847,1.346-0.886,3.048-0.102,4.431s2.294,2.227,3.855,2.186l76.833-1.777c3.772,1.457,18.895,6.857,36.994,7.311
				c6.374,0.16,13.548,0.24,21.323,0.24c43.385,0,94.35-2.515,94.75-2.536l-26.92,0.861c18.782-2.261,33.481-4.533,33.628-4.555
				c0.944-0.147,1.813-0.603,2.472-1.297c0.061-0.063,6.131-6.458,12.451-12.404c5.168-4.862,10.624-9.542,12.479-11.117
				l9.598-2.959c1.369-0.422,2.439-1.496,2.856-2.867c0.419-1.372,0.128-2.861-0.774-3.975l-1.915-2.367l5.214-4.111
				c0.95-0.75,1.543-1.863,1.632-3.071c0.09-1.207-0.331-2.396-1.161-3.277l-1.048-1.114l2.917-0.725
				c1.832-0.453,3.156-2.044,3.271-3.929C425.089,260.495,423.968,258.756,422.204,258.084z M217.988,305.615
				c-0.033,0-0.067,0-0.1,0.002l-69.675,1.611l1.833-2.91c0.673-1.069,0.845-2.379,0.469-3.585c-0.376-1.205-1.26-2.187-2.421-2.685
				l-2.972-1.272l5.315-8.696c0.16-0.262,0.268-0.544,0.367-0.827c9.695,0.774,19.338,0.946,29.027,0.601
				c12.251-0.39,24.387-2.218,36.334-4.27l17.915-3.08c5.965-0.999,11.958-1.851,17.958-2.684
				c12.002-1.64,24.654-3.867,35.348-5.601c-10.693,0.074-23.442,2.977-35.519,4.128c-6.036,0.588-12.078,1.195-18.104,1.953
				l-18.037,2.349c-12.009,1.561-23.977,2.85-35.984,2.804c-11.977-0.011-24.08-0.852-35.805-2.631l-0.099-0.015
				c-0.032-0.005-0.063-0.009-0.095-0.013c-0.007-0.001-0.014,0-0.021,0l0.175-1.518l12.582-4.494
				c1.777-0.634,2.936-2.349,2.862-4.234c-0.074-1.885-1.363-3.504-3.184-3.998l-16.458-4.463c5.923-0.06,15.04-0.287,25.381-1.024
				c32.239-2.3,71.211-5.438,71.602-5.47c0.12-0.01,0.239-0.024,0.357-0.044c0.338-0.057,34.206-5.635,64.974-9.373
				c16.767-2.037,33.676-2.973,50.903-3.749c7.655-0.347,14.68-0.634,18.514-0.786c0.043,0.054,0.09,0.108,0.132,0.16
				c0.416,0.521,0.814,1.062,1.188,1.616c0.751,1.107,1.399,2.268,1.916,3.45c1.043,2.335,1.474,4.891,1.111,7.053
				c-0.449,2.54-1.725,4.854-3.49,7.146c-1.756,2.282-3.93,4.358-6.187,6.627c-0.563,0.575-1.134,1.167-1.702,1.848
				c-0.285,0.334-0.57,0.716-0.848,1.131c-0.316,0.505-0.442,0.786-0.644,1.167c-0.733,1.408-1.555,3.228-1.549,5.171
				c-0.014,1.914,0.548,3.559,1.145,5.073c0.035,0.086,0.077,0.164,0.112,0.249l-11.791,3.02l12.1,0.62
				c-0.277,0.203-0.6,0.406-0.924,0.604c-0.657,0.406-1.373,0.813-2.04,1.401c-0.664,0.573-1.568,1.405-2.041,3.578
				c-0.472,2.174,1.088,6.661,0.271,7.147c-1.671,0.997-24.749,2.144-24.749,2.144s-22.689,0.813-31.81,1.115
				c-23.602,0.781-41.157,1.365-82.703,3.768C218.622,305.659,218.307,305.615,217.988,305.615z M368.773,310.824
				c-7.055,0.337-53.265,2.362-93.246,2.362c-7.703,0-14.807-0.08-21.106-0.237c-9.22-0.23-17.698-1.9-23.983-3.551
				c33.643-1.872,50.02-2.416,71.34-3.124c9.126-0.302,19.156-0.635,31.83-1.114c12.017-0.455,25.085-1.975,26.809-1.345
				c1.724,0.629,8.268,5.259,8.268,5.259C369.213,309.857,369.194,310.602,368.773,310.824z M385.992,295.603
				c-4.054,3.813-10.111,9.651-12.276,11.741c0,0-10.604-7.444-11.278-8.546s-2.079-4.031-2.442-6.089
				c-0.119-0.742-0.198-1.509-0.121-2.176c0.032-0.582,0.438-1.07,0.984-1.44c0.553-0.385,1.234-0.684,1.946-1.012
				c0.711-0.344,1.489-0.646,2.263-1.396c0.377-0.372,0.729-0.982,0.787-1.635c0.076-1.022-0.269-1.636-0.269-1.636
				c-0.252-0.716-0.483-1.435-0.678-2.149c-0.384-1.423-0.634-2.855-0.461-4.066c0.148-1.201,0.764-2.264,1.606-3.513
				c0.467-0.719,0.694-0.979,1.228-1.48c0.101-0.095,0.231-0.192,0.338-0.287c2.15,2.058,4.435,3.983,6.844,5.767
				c2.62,1.94,5.456,3.654,8.493,5.006c3.021,1.358,6.18,2.402,9.395,3.216c1.179,0.293,2.355,0.548,3.538,0.783
				C393.282,288.952,389.604,292.204,385.992,295.603z M405.371,274.534c-0.442,0.349-0.805,0.779-1.078,1.261l-25.326-14.36
				l26.087,19.729l-4.055,1.619c-0.393,0.122-0.755,0.316-1.097,0.542c-2.296-0.038-4.661-0.22-6.961-0.51
				c-3.137-0.402-6.254-1.029-9.28-1.972c-3.031-0.903-5.896-2.335-8.665-3.964c-2.531-1.509-4.979-3.186-7.316-5.014
				c0.397-0.352,0.803-0.705,1.248-1.062c2.372-1.886,4.984-3.824,7.343-6.225c1.184-1.196,2.311-2.52,3.304-4.008
				c0.501-0.742,0.949-1.539,1.362-2.364c0.387-0.765,0.814-1.92,1.02-2.543c0.78-2.532,0.859-5.05,0.566-7.471
				c2.405,1.547,5.063,3.172,7.828,4.714c5.773,3.222,12.098,6.194,17.345,8.505c-0.583,0.525-1.021,1.208-1.25,1.986
				c-0.112,0.381-0.164,0.771-0.17,1.158c-2.25-0.943-4.499-1.895-6.738-2.854c-2.376-1.025-4.726-2.11-7.032-3.289
				c-2.301-1.188-7.809-4.14-9.945-5.626c1.916,1.77,7.253,5.04,9.392,6.547c2.146,1.5,4.356,2.918,6.599,4.275
				c3.884,2.346,7.774,4.653,11.694,6.941l0.075,0.08L405.371,274.534z"/>
		</g>
	</g>
	<g id="&#x442;&#x443;&#x434;&#x430;_&#x43A;&#x43E;&#x43F;&#x438;&#x44F;">
		<g>
			<path style="fill-rule:evenodd;clip-rule:evenodd;fill:#EBDACE;" d="M232.737,278.44c0.008-0.026-0.009-1.184,0-1.21
				c0.269-1.364,0.66-3.124,1.158-5.287c0.497-2.161,0.955-4.052,1.381-5.669c0.079-0.366,0.128-0.689,0.15-0.968
				c0.021-0.278-0.021-0.522-0.128-0.732c-0.107-0.21-0.286-0.411-0.537-0.605c-0.251-0.193-0.596-0.391-1.035-0.591
				c-0.793-0.41-1.722-0.768-2.788-1.073c-1.066-0.305-2.064-0.526-2.994-0.665c-0.847-0.202-1.481-0.197-1.904,0.014
				c-0.423,0.211-0.728,0.76-0.923,1.646c-0.253,2.298-0.534,4.801-0.842,7.509c-0.308,2.707-0.585,5.277-0.806,7.712
				c-0.012,0.129-0.014,1.004-0.02,1.129c1.703-0.24,3.581-0.432,5.356-0.697C230.249,278.736,231.405,278.638,232.737,278.44z
				 M249.583,275.613c0.828-3.507,1.599-7.397,2.219-11.667c0.078-0.379,0.119-0.705,0.126-0.979
				c0.006-0.272-0.044-0.518-0.151-0.735c-0.108-0.217-0.28-0.421-0.517-0.609c-0.237-0.188-0.576-0.401-1.017-0.639
				c-0.853-0.42-1.812-0.769-2.877-1.046c-1.066-0.277-2.035-0.477-2.907-0.604c-0.901-0.121-1.584-0.063-2.048,0.172
				c-0.465,0.237-0.762,0.782-0.899,1.639c-0.185,1.785-0.436,3.785-0.761,5.995c-0.325,2.211-0.711,4.449-1.149,6.713
				c-0.167,0.902-0.619,2.957-0.802,3.847c3.887-0.391,7.496-0.801,10.575-1.095C249.41,276.462,249.549,275.758,249.583,275.613z
				 M196.887,289.889c-0.27,1.783-0.444,3.28-0.525,4.495c-0.113,0.484-0.097,0.893,0.05,1.228c0.146,0.334,0.386,0.622,0.719,0.861
				c0.333,0.239,0.744,0.439,1.235,0.598c0.49,0.159,1.039,0.305,1.644,0.435c0.605,0.131,1.152,0.251,1.643,0.362
				c0.49,0.11,0.922,0.165,1.296,0.166c0.373-0.001,0.667-0.062,0.88-0.185s0.345-0.365,0.398-0.728
				c0.375-1.889,0.833-3.929,1.374-6.123c0.437-1.779,1.058-4.057,1.555-5.927c-3.803,0.503-7.077,1.007-9.659,1.354
				C197.294,287.57,197.048,288.821,196.887,289.889z M228.416,281.479c-1.29,0.228-2.915,0.454-4.185,0.719
				c0.365,0.47,1.032,1.232,1.597,1.57c1.796,1.072,4.074,1.494,6.831,1.244c1.953-0.202,3.55-0.562,4.789-1.083
				c-0.208,0.734-0.461,1.553-0.755,2.455c-0.617,1.641-1.219,2.963-1.809,3.97c-0.591,1.008-1.185,1.509-1.788,1.509
				c-0.689-0.051-1.106-0.292-1.249-0.723c-0.144-0.431-0.272-0.917-0.384-1.459c-0.083-1.035-1.798-1.987-5.149-2.821
				c-1.031-0.265-1.778-0.246-2.239,0.049c-0.462,0.296-0.768,0.851-0.917,1.665c-0.088,0.381-0.106,0.824-0.05,1.331
				c0.055,0.508,0.283,1.021,0.686,1.538c0.286,0.605,0.631,1.182,1.036,1.729c0.404,0.549,0.91,1.054,1.517,1.516
				c0.607,0.462,1.323,0.868,2.146,1.217c0.823,0.351,1.797,0.628,2.921,0.834c2.162,0.389,3.937,0.434,5.325,0.123
				c1.388-0.312,2.579-0.776,3.577-1.399c1.253-0.827,2.416-2.132,3.505-3.924c1.087-1.792,2.108-4.015,3.066-6.675
				c0.719-2,1.382-4.129,2.035-6.607C243.111,278.977,236.22,280.101,228.416,281.479z M315.689,254.035
				c-0.266-0.556-0.854-0.961-1.758-1.217c-0.668-0.12-1.33-0.255-1.986-0.407c-0.656-0.151-1.37-0.28-2.14-0.386
				c-0.771-0.104-1.618-0.176-2.544-0.213s-1.979-0.019-3.159,0.054c-1.356,0.031-2.363,0.354-3.025,0.969s-1.19,1.369-1.587,2.264
				c-1.111,2.488-2.314,5.308-3.619,8.448c-1.306,3.141-2.622,6.296-3.925,9.467c-1.304,3.171-2.534,6.22-3.665,9.151
				c-1.133,2.932-2.043,5.463-2.727,7.607c-0.172,0.65-0.248,1.167-0.231,1.549c0.018,0.382,0.099,0.692,0.243,0.932
				c0.146,0.239,0.35,0.438,0.609,0.596c0.26,0.159,0.564,0.354,0.912,0.586c0.462,0.229,0.918,0.435,1.365,0.618
				c0.448,0.184,0.859,0.346,1.235,0.487c0.665,0.223,1.161,0.283,1.489,0.179c0.329-0.104,0.604-0.424,0.826-0.959
				c0.389-1.006,0.795-2.039,1.221-3.1c0.426-1.06,0.926-2.211,1.504-3.455c1.638-0.549,3.527-1.045,5.668-1.487
				c2.14-0.441,4.288-0.88,6.443-1.315c0.078,1.306,0.161,2.506,0.248,3.604c0.086,1.098,0.191,2.107,0.313,3.028
				c0.121,0.89,0.323,1.505,0.602,1.847c0.276,0.342,0.762,0.61,1.455,0.811c0.664,0.232,1.313,0.362,1.945,0.389
				c0.632,0.026,1.322,0.026,2.068,0c0.746-0.025,1.227-0.156,1.438-0.39c0.212-0.234,0.313-0.644,0.306-1.227
				c-0.063-2.784-0.073-5.808-0.036-9.068c0.035-3.261,0.112-6.516,0.203-9.766c0.09-3.248,0.197-6.37,0.303-9.365
				c0.104-2.995,0.207-5.651,0.315-7.971C316.059,255.346,315.954,254.592,315.689,254.035z M302.578,277.413
				c-1.309,0.247-2.609,0.523-3.904,0.829c1.382-3.077,2.756-6.074,4.104-8.988s2.58-5.595,3.697-8.033
				c-0.023,2.556-0.031,5.13-0.014,7.728s0.033,5.203,0.063,7.815C305.201,276.949,303.887,277.167,302.578,277.413z
				 M279.66,286.315c-0.014,0.001-0.028,0.002-0.043,0.003c0.002-0.212,0.018-0.439,0.047-0.684
				c0.164-3.218,0.377-6.359,0.608-9.421c0.231-3.063,0.481-6.001,0.729-8.815c0.25-2.814,0.427-5.309,0.539-7.48
				c0.063-0.889-0.041-1.593-0.305-2.111c-0.265-0.52-0.85-0.895-1.754-1.127c-0.668-0.107-1.33-0.229-1.984-0.367
				c-0.656-0.137-1.369-0.252-2.138-0.345c-0.771-0.092-1.618-0.152-2.542-0.181c-0.927-0.027-1.979-0.002-3.158,0.075
				c-1.356,0.038-2.363,0.349-3.027,0.927c-0.664,0.58-1.194,1.288-1.594,2.127c-1.117,2.332-2.254,4.965-3.417,7.892
				c-1.164,2.928-2.143,5.467-3.2,8.417c-0.088,0.245-0.049,0.134-0.136,0.378c3.151-0.149,4.542-0.259,4.542-0.259
				s-1.891,0.828-5.047,1.675c-0.852,2.372-1.766,4.901-2.558,7.132c-0.591,1.85-1.076,3.528-1.453,5.039
				c-2.469,0.354-3.911,1.578-4.302,3.669c-0.281,1.064-0.457,2.087-0.527,3.069c-0.07,0.981-0.097,1.728-0.084,2.238
				c-0.028,1.164,0.028,1.984,0.16,2.464c0.132,0.479,0.422,0.911,0.87,1.299c0.852,0.406,1.931,0.42,3.236,0.033
				c1.307-0.388,2.205-0.762,2.694-1.119c0.489-0.357,0.891-0.973,1.211-1.848c0.149-0.784,0.273-1.322,0.367-1.614
				s0.205-0.772,0.338-1.442c2.323-0.284,5.199-0.548,8.629-0.789s5.834-0.359,7.213-0.35c-0.188,0.934-0.355,1.798-0.51,2.593
				c-0.152,0.796-0.259,1.581-0.318,2.358c0.191,0.561,0.408,0.958,0.648,1.191c0.238,0.232,0.919,0.337,2.039,0.311
				c1.12-0.025,2.258-0.321,3.414-0.893c0.871-0.535,1.479-1.073,1.821-1.612c0.343-0.54,0.683-1.437,1.03-2.693
				c0.321-1.165,0.615-2.248,0.879-3.248c0.263-0.999,0.465-2.081,0.607-3.247C283.527,287.225,282.36,286.141,279.66,286.315z
				 M271.332,274.768c-0.134,2.286-0.269,5.085-0.387,8.394c-0.044,1.55-0.067,2.845-0.072,3.886
				c-2.441,0.277-4.911,0.582-7.41,0.915c1.401-5.14,2.848-9.477,4.25-12.982c1.763-4.626,3.182-8.105,4.299-10.391
				C271.725,269.089,271.461,272.48,271.332,274.768z M219.468,264.807c-0.399-0.677-0.9-1.287-1.502-1.831
				c-0.303-0.311-0.652-0.517-1.047-0.617c-0.395-0.101-1.038-0.1-1.927,0.003c-1.691,0.249-3.602,0.568-5.733,0.957
				c-2.132,0.389-4.305,0.813-6.52,1.27c-2.215,0.457-4.387,0.933-6.515,1.423c-2.128,0.492-4.033,0.979-5.715,1.463
				c-0.541,0.185-0.894,0.379-1.06,0.583c-0.042,0.051-0.066,0.112-0.075,0.184c-0.002,0.019-0.003,0.037-0.003,0.056
				c0,0.02,0.001,0.039,0.003,0.06c0.004,0.041,0.012,0.085,0.024,0.131c0.049,0.184,0.165,0.409,0.346,0.676
				c0.332,0.512,0.759,1.139,1.277,1.884c0.518,0.745,1.081,1.351,1.69,1.817c0.581,0.469,1.1,0.74,1.561,0.81
				c0.459,0.069,1.049-0.004,1.766-0.223c0.516-0.175,1.161-0.343,1.936-0.506c0.774-0.162,1.577-0.346,2.409-0.554
				c-0.412,1.772-0.839,3.686-1.28,5.74c-0.272,1.272-0.65,3.235-0.902,4.486c2.665-0.195,6.049-0.593,9.934-1.021
				c0.352-1.287,0.799-3.174,1.157-4.479c0.657-2.396,1.275-4.72,1.844-6.971c1.405-0.27,2.767-0.529,4.086-0.779
				c1.319-0.25,2.538-0.484,3.656-0.703c0.889-0.142,1.41-0.334,1.564-0.577c0.153-0.242,0.137-0.661-0.05-1.257
				C220.174,266.158,219.866,265.483,219.468,264.807z"/>
		</g>
	</g>
	<g id="&#x424;&#x438;&#x433;&#x443;&#x440;&#x430;_380">
		<g>
			<path style="fill-rule:evenodd;clip-rule:evenodd;fill:#517554;" d="M342.17,339.604c6.476,0.959,9.833,16.07,9.833,16.07
				s6.644-7.929,2.159-21.107c-3.763-11.057-14.23-11.9-22.306-9.594c-10.073,2.878-23.505,16.55-23.505,16.55l5.516,21.106
				C313.867,362.629,335.693,338.645,342.17,339.604z M196.243,313.219c-6.911-2.872-14.453-3.544-21.163-2.387
				c-6.257,1.079-17.099,6.775-21.255,12.119c-6.385,8.21-5.213,17.611-5.213,17.611s9.353-10.313,19.095-13.48
				c10.321-3.354,15.923,2.208,15.923,2.208s-15.258,3.995-20.144,14.162c-3.647,7.588-7.715,17.37-7.428,24.695
				c0.307,7.81,3.107,12.23,3.107,12.23s2.494-11.249,7.571-19.254c4.192-6.611,9.335-11.874,16.654-10.248
				c8.634,1.919,21.826,8.155,21.826,8.155l-0.959-22.546l13.911-7.915C218.168,328.57,208.57,318.342,196.243,313.219z
				 M318,383.962c-23.98,16.165-25.125,47.538-25.125,47.538s14.209-23.108,32.792-36.692c16.002-11.698,36.649-14.19,36.649-14.19
				S343.622,366.689,318,383.962z"/>
		</g>
	</g>
	
		<g id="&#x417;&#x430;&#x43B;&#x438;&#x432;&#x43A;&#x430;_&#x446;&#x432;&#x435;&#x442;&#x43E;&#x43C;_213_&#x43A;&#x43E;&#x43F;&#x438;&#x44F;_7">
		<g>
			<path style="fill-rule:evenodd;clip-rule:evenodd;fill:#2B3D2D;" d="M313.872,366.803c0.112-0.104,2.886-2.651,12.72-12.192
				c8.434-8.183,11.65-11.006,14.078-11.598c0.52-0.126,1.006-0.19,1.448-0.19c2.997,0,3.979,3.395,4.298,5.419
				c0.912,5.797,1.498,11.292,1.504,11.347l0.936,8.803l4.42-7.669c0.143-0.247,3.504-6.104,5.052-11.093
				c1.987-6.399-1.115-14.461-2.283-17.495l-0.058-0.146c-1.968-5.12-5.481-10.41-16.605-10.837
				c-4.092-0.183-11.143,1.402-17.098,5.125c-8.127,5.079-14.445,12.487-14.712,12.799l-0.778,0.921l2.794,30.733L313.872,366.803z
				 M325.334,331.159c4.477-2.8,10.158-4.263,13.456-4.263l0.368,0.006c8.16,0.314,10.075,3.563,11.455,7.151l0.058,0.149
				c0.879,2.282,3.553,9.229,2.158,13.721c-0.132,0.424-0.279,0.858-0.44,1.298c-0.092-0.615-0.188-1.242-0.287-1.874
				c-0.998-6.343-4.823-10.282-9.983-10.282c-0.902,0-1.847,0.12-2.812,0.354c-3.818,0.932-6.996,3.62-16.723,13.059
				c-3.697,3.586-6.397,6.185-8.328,8.033l-1.509-16.595C314.603,339.889,319.538,334.78,325.334,331.159z M371.978,380.729
				c-0.45-0.318-11.192-7.83-27.239-7.83c-4.886,0-9.793,0.708-14.587,2.106c-26.979,7.866-39.662,42.872-39.577,46.776
				c0.209,9.642,2.778,24.049,2.778,24.049l5.25-2.626l4.243-2.122c0.126-0.326,6.741-36.229,30.465-48.049
				c12.664-6.311,25.733-7.252,32.397-7.252c2.686,0,4.301,0.156,4.313,0.157l10.808,1.086L371.978,380.729z M330.744,387.881
				c-16.939,8.44-28.404,25.833-34.421,37.152l-0.103-1.989c1.46-4.267,13-35.94,35.541-42.513
				c4.271-1.246,8.637-1.877,12.977-1.877c4.796,0,9.079,0.771,12.648,1.795C349.951,381.194,340.262,383.138,330.744,387.881z
				 M203,312.568c-7.281-3.441-14.396-5.187-21.145-5.187c-0.956,0-1.928,0.033-2.89,0.103c-6.542,0.468-17.051,3.914-25.139,12.092
				c-8.863,8.962-8.839,24.331-8.834,24.981l0.109,13.295l5.4-12.149c0.034-0.077,3.518-7.716,14.375-14.565
				c1.252-0.79,5.129-1.642,10.682-1.642c0.516,0,1.024,0.021,1.535,0.036c-4.188,1.76-12.223,5.525-15.335,9.677
				c-3.769,5.025-9.302,29.121-8.452,34.22c0.817,4.902,4.801,10.084,5.253,10.658l5.116,6.507l0.025-8.28
				c0-0.046,0.034-4.709,1.668-9.938c1.838-5.886,8.682-17.047,13.014-18.67c3.167-1.188,13.667,2.264,19.768,4.972
				c1.45,0.645,3.151-0.008,3.797-1.463c0.646-1.451-0.008-3.152-1.46-3.797c-2.883-1.282-17.599-7.553-24.125-5.103
				c-6.966,2.612-14.545,16.13-16.488,22.344c-0.277,0.888-0.514,1.758-0.718,2.6c-0.071-0.265-0.129-0.522-0.171-0.775
				c-0.59-3.546,4.674-26.213,7.378-29.819c2.316-3.088,10.394-6.921,15.229-8.735c1.536-0.466,9.055,0.26,15.119,1.217
				c0.262,0.041,0.517,0.033,0.769,0.005c3.346,1.808,5.462,3.378,5.502,3.407l1.44,1.086l18.724-9.601l-2.126-2.742
				C220.711,326.899,213.299,317.438,203,312.568z M204.942,332.907c-3.027-2.021-10.274-6.376-18.849-8.157
				c-3.182-0.66-6.824-1.01-10.534-1.01c-2.931,0-10.137,0.247-13.754,2.529c-3.928,2.479-7.02,5.078-9.413,7.479
				c1.042-3.554,2.745-7.312,5.527-10.125c7.449-7.529,16.992-10.077,21.458-10.396c0.763-0.055,1.591-0.089,2.479-0.089
				c5.891,0,12.179,1.559,18.686,4.635c5.901,2.791,10.866,7.476,13.616,10.41L204.942,332.907z"/>
		</g>
	</g>
	<g id="&#x424;&#x438;&#x433;&#x443;&#x440;&#x430;_379">
		<g>
			<path style="fill-rule:evenodd;clip-rule:evenodd;fill:#724531;" d="M321.423,366.466l-9.354-1.438v-6.476l6.116-0.72
				c0,0-2.761-8.615-3.017-16.534c-0.283-8.767,1.938-16.925,1.938-16.925s-32.352-1.587-55.056-2.652
				c-11.487-0.539-21.576-0.945-21.576-0.945s-8.521,6.533-18.175,11.896c-12.612,7.007-28.235,12.928-28.235,12.928l10.074,2.519
				l-6.116,6.476l8.634,6.836l-4.677,5.756l10.223,3.173l-0.149,0.065c0,0,0.139-0.003,0.336-0.007l0.023,0.007
				c0,0,6.829,5.75,13.301,11.862c6.479,6.119,12.602,12.603,12.602,12.603s14.553,2.283,33.474,4.596
				c13.309,1.627,26.248,6.197,26.248,6.197s5.735-5.728,12.894-9.118c6.479-3.069,14.449-3.834,14.449-3.834L321.423,366.466z"/>
		</g>
	</g>
	<g id="&#x424;&#x438;&#x433;&#x443;&#x440;&#x430;_402">
		<g>
			<path style="fill-rule:evenodd;clip-rule:evenodd;fill:#212D35;" d="M250.692,367.81c0.288-2.59,1.684-8.001-1.016-12.532
				c-3.624-6.082-11.569-9.259-14.083-16.395c-2.458-6.979,0.804-12.711,0.804-12.711L199.46,344.88l3.358,4.317l-3.358,4.797
				l7.195,7.195l-1.918,6.236l10.553,3.838l23.025,24.464l14.871-11.992C253.187,383.735,259.039,372.415,250.692,367.81z"/>
		</g>
	</g>
	<g id="&#x424;&#x438;&#x433;&#x443;&#x440;&#x430;_403">
		<g>
			<path style="fill-rule:evenodd;clip-rule:evenodd;fill:#28202B;" d="M235.15,333.367c0,0-8.257,6.154-17.49,11.063
				c-8.894,4.729-18.487,8.509-18.487,8.509l5.468,12.088l32.609-21.402L235.15,333.367z M248.75,353.125
				c0,0-7.186,7.198-15.656,10.762c-9.592,4.034-20.106,5.17-20.106,5.17l17.269,17.557l20.435-18.995L248.75,353.125z"/>
		</g>
	</g>
	<g id="&#x424;&#x438;&#x433;&#x443;&#x440;&#x430;_404">
		<g>
			<path style="fill-rule:evenodd;clip-rule:evenodd;fill:#2F2123;" d="M311.709,367.33v-11.225c0,0-5.605-1.724-12.4-2.01
				c-6.875-0.29-14.941,0.858-14.941,0.858l-8.06-12.664l-1.728,13.815h-14.966c0,0,14.326,3.414,27.425,6.236
				C299.987,365.132,311.709,367.33,311.709,367.33z M291.364,386.17c-17.384-2.145-37.794-2.723-37.794-2.723l-12.088,11.226
				c0,0,17.225,1.557,32.539,4.525c12.634,2.449,23.874,6.411,23.874,6.411l21.01-14.966
				C318.904,390.644,306.489,388.035,291.364,386.17z"/>
		</g>
	</g>
	<g id="&#x424;&#x438;&#x433;&#x443;&#x440;&#x430;_405">
		<g>
			<path style="fill-rule:evenodd;clip-rule:evenodd;fill:#3C2725;" d="M321.879,381.241l-71.763-13.768
				c0,0,3.451,2.771,4.362,6.617c1.025,4.327-2.779,10.652-2.779,10.652s23.742-1.437,42.084,1.512
				c15.957,2.565,30.014,6.403,30.014,6.403L321.879,381.241z"/>
		</g>
	</g>
	<g id="&#x424;&#x438;&#x433;&#x443;&#x440;&#x430;_406">
		<g>
			<path style="fill-rule:evenodd;clip-rule:evenodd;fill:#BF753F;" d="M306.313,333.008c0.72,1.079,1.439,13.312,0.72,14.751
				c-0.72,1.438-15.47,0.719-17.989-0.36c-2.518-1.079-12.231-5.036-12.231-5.036l8.994,11.872l30.221,2.158
				c0,0-0.889-7.438-1.063-15.103c-0.185-8.149,0.344-16.557,0.344-16.557l-76.991-3.598l-0.36,6.115c0,0,15.388,1.709,30.913,2.883
				C287.098,331.513,305.924,332.425,306.313,333.008z M261.461,356.992c-1.971-0.358-10.157-0.724-10.157-0.724l-0.396,6.96
				c0,0,10.075-0.201,25.603,1.474c19.034,2.055,43.113,4.283,43.113,4.283S265.418,357.712,261.461,356.992z"/>
		</g>
	</g>
	<g id="&#x417;&#x430;&#x43B;&#x438;&#x432;&#x43A;&#x430;_&#x446;&#x432;&#x435;&#x442;&#x43E;&#x43C;_217">
		<g>
			<path style="fill-rule:evenodd;clip-rule:evenodd;fill:#261917;" d="M329.824,391.689l-3.957-24.825
				c-0.261-1.624-1.422-2.962-2.996-3.445l-5.008-1.542l1.006-0.118c1.28-0.15,2.426-0.866,3.124-1.95s0.876-2.424,0.483-3.652
				c-0.025-0.082-2.582-8.162-2.814-15.356c-0.256-7.975,1.77-15.581,1.789-15.653c0.344-1.262,0.097-2.612-0.672-3.67
				c-0.77-1.059-1.977-1.712-3.283-1.775c0,0-32.355-1.587-55.064-2.653c-11.503-0.54-21.604-0.947-21.604-0.947
				c-1.026-0.02-2,0.274-2.8,0.888c-0.083,0.063-8.377,6.4-17.646,11.55c-12.18,6.766-27.516,12.606-27.669,12.665
				c-1.765,0.669-2.889,2.406-2.779,4.289c0.111,1.885,1.432,3.479,3.263,3.936l2.916,0.729l-1.05,1.113
				c-0.832,0.88-1.255,2.067-1.168,3.274c0.087,1.209,0.678,2.323,1.626,3.075l5.207,4.12l-1.92,2.364
				c-0.904,1.111-1.197,2.6-0.781,3.973c0.415,1.372,1.483,2.448,2.852,2.872l9.592,2.978c1.852,1.578,7.299,6.268,12.458,11.14
				c6.311,5.957,12.369,12.363,12.429,12.427c0.656,0.695,1.525,1.152,2.469,1.301c0.146,0.022,14.842,2.321,33.619,4.617
				c12.657,1.547,25.211,5.938,25.336,5.982c0.47,0.165,0.954,0.246,1.436,0.246c1.125,0,2.229-0.44,3.052-1.263
				c0.052-0.052,5.28-5.234,11.69-8.271c5.688-2.694,12.945-3.431,13.014-3.438c1.186-0.114,2.273-0.713,3.002-1.655
				C329.705,394.068,330.011,392.867,329.824,391.689z M213.872,365.94l-4.338-1.347l0.652-0.803
				c0.017-0.021,0.027-0.046,0.044-0.066l23.229-17.766l-22.968,12.843c-0.261-0.421-0.581-0.806-0.976-1.118l-4.941-3.911
				l0.52-0.55c3.651-2.128,7.282-4.271,10.903-6.45c2.245-1.354,4.458-2.767,6.606-4.264c2.142-1.504,4.258-3.059,6.178-4.825
				c-2.14,1.483-4.427,2.72-6.73,3.903c-2.309,1.175-4.66,2.255-7.038,3.275c-2.126,0.906-4.26,1.804-6.396,2.695
				c-0.016-0.339-0.059-0.679-0.156-1.012c-0.227-0.778-0.665-1.461-1.246-1.988c5.251-2.301,11.582-5.262,17.36-8.473
				c2.601-1.445,5.106-2.963,7.399-4.421c-0.253,2.332-0.114,4.76,0.631,7.192c0.204,0.624,0.63,1.778,1.015,2.545
				c0.412,0.826,0.859,1.623,1.358,2.366c0.991,1.49,2.115,2.815,3.297,4.014c2.354,2.405,4.962,4.349,7.332,6.238
				c0.44,0.354,0.859,0.708,1.253,1.058c-2.343,1.826-4.796,3.501-7.333,5.007c-2.772,1.623-5.639,3.05-8.672,3.947
				c-3.028,0.938-6.147,1.559-9.284,1.955c-2.188,0.271-4.431,0.439-6.62,0.485C214.614,366.251,214.258,366.061,213.872,365.94z
				 M240.605,390.484c-2.025-2.112-6.749-6.976-11.749-11.696c-3.635-3.434-7.34-6.72-9.946-8.989
				c1.084-0.218,2.164-0.453,3.246-0.719c3.217-0.809,6.378-1.847,9.4-3.199c3.04-1.346,5.879-3.055,8.502-4.99
				c2.415-1.78,4.694-3.714,6.851-5.77c0.113,0.101,0.234,0.203,0.34,0.303c0.533,0.503,0.76,0.763,1.226,1.482
				c0.84,1.251,1.453,2.314,1.599,3.517c0.171,1.211-0.082,2.644-0.468,4.065c-0.195,0.714-0.429,1.433-0.682,2.147l-0.11,0.327
				l-0.043,0.141l-0.056,0.234c-0.076,0.325-0.086,0.606-0.062,0.934c0.058,0.652,0.408,1.264,0.784,1.636
				c0.771,0.752,1.55,1.056,2.26,1.401c0.711,0.329,1.393,0.63,1.945,1.015c0.545,0.371,0.95,0.86,0.98,1.442
				c0.076,0.667-0.004,1.434-0.125,2.175c-0.349,1.955-0.922,3.893-1.58,5.808c-0.176,0.153-0.319,0.339-0.439,0.54l-11.677,8.227
				C240.741,390.505,240.664,390.493,240.605,390.484z M309.262,392.302c-5.195,2.461-9.646,5.988-12.094,8.123
				c-4.49-1.434-14.405-4.33-24.674-5.585c-10.348-1.265-19.432-2.529-25.496-3.408l8.336-5.873
				c3.923,0.106,18.378,0.593,33.542,2.313c7.67,0.87,15.886,2.265,22.517,3.517C310.676,391.672,309.962,391.971,309.262,392.302z
				 M320.488,388.789c-6.916-1.437-19.617-3.902-31.126-5.207c-16.408-1.862-32.007-2.296-34.609-2.357
				c-0.052-0.001-0.103-0.006-0.155-0.003c-0.142-0.004-0.223-0.005-0.233-0.006h-0.041c-0.321,0-0.623,0.076-0.897,0.202
				c0.767-1.704,1.463-3.446,1.985-5.279c0.202-0.775,0.383-1.562,0.378-2.451c0.024-1.013-0.586-1.904-1.25-2.479
				c-0.666-0.591-1.381-0.998-2.038-1.405c-0.323-0.198-0.645-0.401-0.922-0.605l12.101-0.598l-11.786-3.042
				c0.036-0.084,0.078-0.162,0.112-0.248c0.6-1.514,1.164-3.156,1.154-5.07c0.01-1.944-0.808-3.766-1.539-5.175
				c-0.201-0.381-0.326-0.662-0.642-1.168c-0.275-0.416-0.561-0.798-0.845-1.133c-0.568-0.682-1.137-1.274-1.699-1.851
				c-2.253-2.272-4.423-4.353-6.175-6.638c-1.761-2.295-3.031-4.61-3.477-7.151c-0.358-2.163,0.077-4.718,1.124-7.051
				c0.519-1.182,1.169-2.342,1.923-3.447c0.375-0.554,0.774-1.094,1.191-1.613c0.046-0.057,0.096-0.116,0.144-0.175
				c3.743,0.156,10.964,0.463,18.86,0.835c17.227,0.808,40.006,1.916,49.99,2.403c-0.582,3.393-1.144,8.089-0.984,13.001
				c0.147,4.566,1.045,9.275,1.855,12.69l-0.601,0.07c-0.017-0.007-0.031-0.014-0.048-0.021c-0.637-0.275-1.274-0.516-1.921-0.729
				c-1.292-0.427-2.616-0.739-3.962-0.935c-1.453-0.212-2.596-0.226-3.79-0.283c-1.194-0.048-2.384-0.076-3.571-0.091
				c-2.373-0.025-4.736,0.006-7.094,0.082c-1.976,0.065-3.932,0.166-5.915,0.298l-8.134-10.29l-0.097-0.125
				c-0.229-0.288-0.565-0.49-0.96-0.54c-0.801-0.103-1.533,0.464-1.636,1.266l-1.528,11.985l-14.086,1.482l-0.861-0.117
				c-0.107-0.015-0.211,0.053-0.239,0.16c-0.03,0.115,0.039,0.233,0.154,0.264c4.951,1.314,9.931,2.493,14.903,3.712
				c4.986,1.152,9.98,2.273,14.988,3.36l7.488,1.658c2.361,0.572,4.729,1.247,7.139,1.866c3.537,0.917,7.088,1.934,10.742,2.839
				l3.902,1.2l2.85,17.883C320.573,388.771,320.528,388.78,320.488,388.789z M307.932,359.556v4.575
				c-1.151-0.516-2.321-0.994-3.511-1.435c-2.464-0.906-5.042-1.554-7.717-1.866c-2.595-0.262-5.085-0.554-7.628-0.878
				l-28.645-3.895l14.083,0.196c0.407,0.006,0.777-0.275,0.867-0.688l0.02-0.094l1.901-8.8l5.665,9.272
				c0.366,0.587,1.021,0.994,1.765,1.006l0.262,0.004c2.249,0.032,4.566,0.125,6.846,0.255c2.285,0.13,4.564,0.305,6.828,0.532
				c1.131,0.114,2.258,0.243,3.378,0.388c1.116,0.15,2.295,0.294,3.127,0.506c0.937,0.224,1.86,0.531,2.745,0.914
				C307.922,359.551,307.927,359.554,307.932,359.556z"/>
		</g>
	</g>
	<g id="&#x424;&#x438;&#x433;&#x443;&#x440;&#x430;_382">
		<g>
			<path style="fill-rule:evenodd;clip-rule:evenodd;fill:#517554;" d="M269.585,382.698c-11.267,17.289-5.605,51.646-5.605,51.646
				s-6.4-15.252-18.923-29.783c-8.179-9.49-22-18.313-32.062-22.736c-6.615-2.908-19.185-3.651-25.735,0.108
				c-7.114,4.085-8.666,13.315-8.666,13.315s14.485-4.886,28.923-0.194c14.343,4.662,28.641,18.902,28.641,18.902
				s-20.799-5.882-31.396,0.767c-11.127,6.979-7.938,19.381-7.938,19.381s14.915-10.251,33.137-4.922
				c16.538,4.837,27.545,23.15,27.545,23.15l16.549-0.24c0,0-1.057-31.441,8.836-57.19c6.006-15.633,23.064-30.833,23.064-30.833
				S284.574,359.696,269.585,382.698z"/>
		</g>
	</g>
	<g id="&#x417;&#x430;&#x43B;&#x438;&#x432;&#x43A;&#x430;_&#x446;&#x432;&#x435;&#x442;&#x43E;&#x43C;_214">
		<g>
			<path style="fill-rule:evenodd;clip-rule:evenodd;fill:#2B3D2D;" d="M307.564,360.804c-0.438-0.107-9.867-2.188-22.574,4.453
				c-8.41,4.395-18.122,15-21.649,23.639c-4.405,10.789-3.214,24.879-1.717,37.056c-2.147-5.679-5.647-12.902-11.239-20.051
				c-7.795-9.967-18.284-18.473-29.529-23.946c-6.832-3.325-20.216-8.161-33.093-3.193c-12.121,4.679-12.192,18.105-12.189,18.675
				l0.072,13.939l5.456-12.829c0.02-0.047,4.236-4.259,23.278-1.161c7.898,1.286,17.018,6.794,24.723,12.523
				c-0.515-0.082-1.023-0.177-1.55-0.237c-14.136-1.642-24.135,1.064-29.629,7.972c-6.359,7.998-4.029,18.479-3.927,18.921
				l1.154,4.948l3.658-3.534c0.075-0.073,7.606-7.208,20.286-7.208c2.787,0,5.66,0.343,8.541,1.021
				c17.746,4.174,25.643,19.897,25.726,20.068l0.785,1.672h22.786l0.084-3.858c-0.025-0.281-2.591-27.009,6.304-49.383
				c7.337-18.455,25.29-34.367,25.47-34.525l4.168-3.662L307.564,360.804z M205.304,391.704
				c-11.392-1.854-18.423-1.367-22.766-0.126c1.109-2.8,3.231-5.878,7.295-7.445c10.847-4.189,22.511,0.08,28.502,2.996
				c10.476,5.1,20.247,13.025,27.516,22.318c4.895,6.257,8.062,12.646,10.068,17.774c-1.508-1.93-3.167-3.824-4.979-5.619
				c-0.137-0.369-0.347-0.717-0.641-1.016C249.271,419.539,224.875,394.888,205.304,391.704z M258.152,448.729
				c-2.863-4.912-12.169-18.535-29.199-22.542c-3.313-0.779-6.629-1.174-9.859-1.174c-8.99,0-15.75,2.998-19.833,5.505
				c0.114-2.785,0.812-6.33,3.167-9.292c4.161-5.233,12.508-7.22,24.46-5.838c19.952,2.317,30.99,24.424,34.574,33.075
				L258.152,448.729z M277.971,398.162c-7.59,19.091-7.357,41.426-6.926,49.969l-0.599-0.069c-0.462-2.327-1.194-6.363-1.587-10.313
				c-0.254-2.552-0.609-5.323-0.986-8.258c-1.586-12.362-3.561-27.748,0.797-38.421c3.035-7.436,11.73-16.92,18.986-20.712
				c4.807-2.51,8.986-3.588,12.22-3.992C293.654,372.746,283.348,384.639,277.971,398.162z"/>
		</g>
	</g>
</g>
</svg>
