<?xml version="1.0" encoding="iso-8859-1"?>
<!-- Generator: Adobe Illustrator 15.0.0, SVG Export Plug-In . SVG Version: 6.00 Build 0)  -->
<!DOCTYPE svg PUBLIC "-//W3C//DTD SVG 1.1//EN" "http://www.w3.org/Graphics/SVG/1.1/DTD/svg11.dtd" [
	<!ENTITY ns_extend "http://ns.adobe.com/Extensibility/1.0/">
	<!ENTITY ns_ai "http://ns.adobe.com/AdobeIllustrator/10.0/">
	<!ENTITY ns_graphs "http://ns.adobe.com/Graphs/1.0/">
	<!ENTITY ns_vars "http://ns.adobe.com/Variables/1.0/">
	<!ENTITY ns_imrep "http://ns.adobe.com/ImageReplacement/1.0/">
	<!ENTITY ns_sfw "http://ns.adobe.com/SaveForWeb/1.0/">
	<!ENTITY ns_custom "http://ns.adobe.com/GenericCustomNamespace/1.0/">
	<!ENTITY ns_adobe_xpath "http://ns.adobe.com/XPath/1.0/">
]>
<svg version="1.1" xmlns:x="&ns_extend;" xmlns:i="&ns_ai;" xmlns:graph="&ns_graphs;"
	 xmlns="http://www.w3.org/2000/svg" xmlns:xlink="http://www.w3.org/1999/xlink" x="0px" y="0px" width="512px" height="512px"
	 viewBox="0 0 512 512" style="enable-background:new 0 0 512 512;" xml:space="preserve">
<metadata>
	<sfw  xmlns="&ns_sfw;">
		<slices></slices>
		<sliceSourceBounds  x="94" y="94" width="512" height="512" bottomLeftOrigin="true"></sliceSourceBounds>
	</sfw>
</metadata>
<g id="&#x418;&#x437;&#x43E;&#x431;&#x440;&#x430;&#x436;&#x435;&#x43D;&#x438;&#x435;_xA0_17_1_">
	<g id="&#x417;&#x430;&#x43B;&#x438;&#x432;&#x43A;&#x430;_&#x446;&#x432;&#x435;&#x442;&#x43E;&#x43C;_1">
		<g>
			<rect x="3.699" y="4.439" style="fill-rule:evenodd;clip-rule:evenodd;fill:#B17D7B;" width="503.121" height="503.121"/>
		</g>
	</g>
	<g id="&#x417;&#x430;&#x43B;&#x438;&#x432;&#x43A;&#x430;_&#x446;&#x432;&#x435;&#x442;&#x43E;&#x43C;_5">
		<g>
			<path style="fill-rule:evenodd;clip-rule:evenodd;fill:#F3D4C3;" d="M484.624,25.156l20.717-20.717H3.699l20.717,20.717H484.624z
				 M24.416,486.844L3.699,507.561h501.642l-20.717-20.717H24.416z"/>
		</g>
	</g>
	
		<g id="&#x417;&#x430;&#x43B;&#x438;&#x432;&#x43A;&#x430;_&#x446;&#x432;&#x435;&#x442;&#x43E;&#x43C;_1_&#x43A;&#x43E;&#x43F;&#x438;&#x44F;_2">
		<g>
			<radialGradient id="SVGID_1_" cx="256.7402" cy="256" r="228.0762" gradientUnits="userSpaceOnUse">
				<stop  offset="0" style="stop-color:#7D7193"/>
				<stop  offset="0.2" style="stop-color:#7C7193"/>
				<stop  offset="0.4" style="stop-color:#6C6382"/>
				<stop  offset="0.5939" style="stop-color:#554E6B"/>
				<stop  offset="0.7515" style="stop-color:#3E3A53"/>
				<stop  offset="0.897" style="stop-color:#29273A"/>
				<stop  offset="1" style="stop-color:#232132"/>
			</radialGradient>
			<polygon style="fill-rule:evenodd;clip-rule:evenodd;fill:url(#SVGID_1_);" points="432.765,27.924 78.856,27.924 28.664,78.116 
				28.664,435.769 76.972,484.076 433.367,484.076 484.816,432.627 484.816,79.976 			"/>
		</g>
	</g>
	
		<g id="&#x417;&#x430;&#x43B;&#x438;&#x432;&#x43A;&#x430;_&#x446;&#x432;&#x435;&#x442;&#x43E;&#x43C;_1_&#x43A;&#x43E;&#x43F;&#x438;&#x44F;">
		<g>
			<path style="fill-rule:evenodd;clip-rule:evenodd;fill:#F2D2C0;" d="M25.109,24.37v463.26h463.26V24.37H25.109z M466.659,418.566
				l-47.353,47.353H91.283l-44.462-44.462V92.277l46.196-46.196h325.734l47.908,47.907V418.566z"/>
		</g>
	</g>
	<g id="&#x424;&#x438;&#x433;&#x443;&#x440;&#x430;_3">
		<g>
			<path style="fill-rule:evenodd;clip-rule:evenodd;fill:#A18180;" d="M429.873,25.156l-344.047-1.48l-62.15,62.891v342.566
				l59.931,59.19l344.046-0.739l59.931-59.191V84.347L429.873,25.156z M477.226,423.954l-56.231,54.751H91.006l-56.231-54.751
				V88.046l54.012-54.012h334.428l54.751,56.231L477.226,423.954z"/>
		</g>
	</g>
	<g id="&#x417;&#x430;&#x43B;&#x438;&#x432;&#x43A;&#x430;_&#x446;&#x432;&#x435;&#x442;&#x43E;&#x43C;_6">
		<g>
			<path style="fill-rule:evenodd;clip-rule:evenodd;fill:#C7907F;" d="M23.676,86.566l62.52-62.752l-62.52-0.139V86.566z
				 M487.584,23.63l-62.521,0.139l62.521,62.752V23.63z M22.196,488.37l62.521-0.139l-62.521-62.752V488.37z M425.803,488.971
				l62.521,0.139v-62.89L425.803,488.971z"/>
		</g>
	</g>
	
		<g id="&#x417;&#x430;&#x43B;&#x438;&#x432;&#x43A;&#x430;_&#x446;&#x432;&#x435;&#x442;&#x43E;&#x43C;_6_&#x43A;&#x43E;&#x43F;&#x438;&#x44F;">
		<g>
			<path style="fill-rule:evenodd;clip-rule:evenodd;fill:#FDECE7;" d="M27.964,485.886l56.753,2.346L55.27,458.579L27.964,485.886z
				 M54.694,55.434l31.502-31.619l-59.314,3.562L54.694,55.434z M485.117,26.582l-60.054-2.813l31.376,31.491L485.117,26.582z
				 M425.803,488.971l59.314-3.113l-28.158-28.158L425.803,488.971z"/>
		</g>
	</g>
	<g id="&#x424;&#x438;&#x433;&#x443;&#x440;&#x430;_1">
		<g>
			<path style="fill-rule:evenodd;clip-rule:evenodd;fill:#C7907F;" d="M34.774,487.769l0.093-9.156h-8.417L34.774,487.769z
				 M477.04,477.873l0.093,9.155l8.323-9.155H477.04z M476.393,25.804l-0.092,9.156h8.416L476.393,25.804z M26.451,34.96h8.417
				l-0.093-9.156L26.451,34.96z"/>
		</g>
	</g>
	<g id="&#x424;&#x438;&#x433;&#x443;&#x440;&#x430;_2">
		<g>
			<path style="fill-rule:evenodd;clip-rule:evenodd;fill:#FDECE7;" d="M22.597,480.813L9.026,497.72l-1.627,10.285l22.418-0.296
				l0.532-18.644l-3.492-6.957L22.597,480.813z M508.448,495.817l-18.855-14.581l-4.261,4.043l-3.068,4.209l2.646,16.529
				l23.688,1.353L508.448,495.817z M21.002,31.648l4.26-1.295l3.492-6.956L28.222,4.754L5.803,4.458l1.628,10.284L21.002,31.648z
				 M487.997,31.226l18.856-14.581l0.147-11.553l-23.687,1.353l-2.646,16.53l3.069,4.208L487.997,31.226z"/>
		</g>
	</g>
	<g id="&#x417;&#x430;&#x43B;&#x438;&#x432;&#x43A;&#x430;_&#x446;&#x432;&#x435;&#x442;&#x43E;&#x43C;_2">
		<g>
			<path style="fill-rule:evenodd;clip-rule:evenodd;fill:#2F181B;" d="M0,0v512h512V0H0z M503.121,503.121H8.878V8.879h494.243
				V503.121z"/>
		</g>
	</g>
	<g id="&#x417;&#x430;&#x43B;&#x438;&#x432;&#x43A;&#x430;_&#x446;&#x432;&#x435;&#x442;&#x43E;&#x43C;_3">
		<g>
			<path style="fill-rule:evenodd;clip-rule:evenodd;fill:#40292E;" d="M482.33,20.67H29.346l-9.369,9.369v397.468
				c-0.119,0.585-0.119,1.188,0,1.771v53.925l9.606,9.605h453.025l9.507-9.507V30.455L482.33,20.67z M28.855,34.183l4.633-4.634
				h40.974L28.855,75.156V34.183z M33.726,483.931l-4.871-4.871v-39.857l44.728,44.729H33.726z M483.237,479.158l-4.772,4.772
				H437.63l45.607-45.607V479.158z M483.237,425.769l-58.162,58.162H86.139l-57.283-57.283V87.711l58.162-58.162h338.058
				l58.162,58.162V425.769z M483.237,75.156L437.63,29.549h40.558l5.05,5.05V75.156z"/>
		</g>
	</g>
	
		<g id="&#x417;&#x430;&#x43B;&#x438;&#x432;&#x43A;&#x430;_&#x446;&#x432;&#x435;&#x442;&#x43E;&#x43C;_4_&#x43A;&#x43E;&#x43F;&#x438;&#x44F;" style="opacity:0.502;">
		<g>
			<path style="fill-rule:evenodd;clip-rule:evenodd;fill:#876867;" d="M465.59,92.913l-47.243-47.244
				c-0.685-0.685-1.612-1.068-2.579-1.068H94.545c-0.968,0-1.896,0.384-2.58,1.068L46.409,91.227
				c-0.684,0.684-1.069,1.611-1.069,2.579v324.619c0,0.968,0.385,1.896,1.069,2.579l43.847,43.847
				c0.684,0.684,1.612,1.068,2.579,1.068h323.479c0.968,0,1.896-0.385,2.579-1.068l46.696-46.696
				c0.685-0.685,1.069-1.612,1.069-2.58V95.493C466.659,94.525,466.274,93.598,465.59,92.913z M459.363,414.063l-44.56,44.56H94.346
				l-41.709-41.709V95.316l43.419-43.419h318.201l45.106,45.106V414.063z"/>
		</g>
	</g>
	<g id="&#x417;&#x430;&#x43B;&#x438;&#x432;&#x43A;&#x430;_&#x446;&#x432;&#x435;&#x442;&#x43E;&#x43C;_4">
		<g>
			<path style="fill-rule:evenodd;clip-rule:evenodd;fill:#40292E;" d="M468.534,90.633l-47.907-47.907
				c-0.693-0.694-1.635-1.084-2.615-1.084H92.277c-0.981,0-1.922,0.39-2.616,1.084L43.465,88.922
				c-0.693,0.693-1.083,1.635-1.083,2.615v329.18c0,0.981,0.39,1.922,1.083,2.615l44.463,44.463
				c0.694,0.693,1.634,1.084,2.615,1.084h328.023c0.981,0,1.922-0.391,2.615-1.084l47.353-47.353
				c0.694-0.694,1.084-1.635,1.084-2.616V93.248C469.618,92.268,469.229,91.326,468.534,90.633z M462.22,416.295l-45.186,45.185
				H92.075L49.78,419.185V93.07l44.029-44.03h322.67l45.74,45.741V416.295z"/>
		</g>
	</g>
</g>
<g id="&#x418;&#x437;&#x43E;&#x431;&#x440;&#x430;&#x436;&#x435;&#x43D;&#x438;&#x435;_xA0_1076_1_">
	<g id="&#x424;&#x438;&#x433;&#x443;&#x440;&#x430;_383_&#x43A;&#x43E;&#x43F;&#x438;&#x44F;_2" style="opacity:0.502;">
		<g>
			<path style="fill-rule:evenodd;clip-rule:evenodd;fill:#181621;" d="M409.379,307.509c8.993-8.992,10.749-25.948,10.749-25.948
				l-65.374-43.786l19.35-30.745l24.354-9.894c0,0-11.811-13.461-28.36-4.107c-4.044,2.286-14.249,12.677-14.249,12.677
				l-28.713-17.887l-4.146-4.116c0,0,3.708-7.661,19.905-12.92c9.877-3.207,22.548,8.603,22.548,8.603s-12.021-17.72-19.955-18.33
				c-16.618-1.278-36.169,14.014-36.169,14.014l-16.55,6.476l-7.195-33.818c0,0,17.926-7.605,21.344-12.058
				s-4.075-19.603-4.075-19.603l-39.574-51.088c0,0-10.129-5.059-19.363-4.272c-7.492,0.638-14.456,7.151-14.456,7.151
				s-9.129-0.63-13.267,4.856c-4.137,5.486-4.947,31.165-7.6,29.682c-2.653-1.484-5.24-6.175-4.737-14.715
				c0.572-9.73,6.896-21.982,6.896-21.982s-8.949,3.823-12.952,7.915c-4.002,4.093-11.603,23.925-9.354,31.66
				s17.134,25.634,17.134,25.634s-17.224-13.582-23.61-12.683s-32.469,12.277-34.538,19.428s-0.72,35.258-0.72,35.258
				s6.431-20.147,7.915-25.184c1.484-5.037,15.515-12.232,20.147-12.232c4.632,0,9.804,1.169,10.073,4.317
				c0.27,3.147-7.105,16.055-7.915,20.866c-0.81,4.813,7.42,16.864,6.476,21.587c-0.944,4.722-18.213,9.219-22.396,14.615
				c-4.183,5.396,2.608,11.288,2.608,11.288s-21.092,1.934-25.544,5.756c-4.452,3.823-14.031,23.655-14.031,23.655
				s24.015-16.864,28.152-17.943c4.137-1.079,14.75,10.658,14.75,10.658s-26.82-0.184-31.048,4.26
				c-4.696,4.935-8.977,18.945-8.977,18.945s-4.452-2.833-6.836,0.72c-2.383,3.553-2.878,10.073-2.878,10.073
				s8.854,3.946,6.875,7.814c-1.979,3.867-11.192,5.857-11.192,5.857l-2.159,15.11c0,0,9.472-2.326,9.427,5.589
				s-5.109,8.082-5.109,8.082l7.195,19.428c0,0-37.27,53.911-35.831,59.668c1.439,5.756,34.395,36.081,40.871,38.239
				c6.476,2.159,65.393-10.567,65.393-10.567l0.802,17.713c0,0,10.253-18.663,19.428-22.306c9.174-3.643,5.377,24.097,11.467,29.412
				c9.534,8.319,48.254,8.004,48.254,8.004l28.063-12.231c0,0,20.146-16.235,30.221-18.708c10.074-2.474,48.659,14.75,48.659,14.75
				s-4.486-8.053-11.883-15.56c-8.162-8.284-19.311-16.098-19.311-16.098s-24.616-9.042-21.019-15.607
				c3.598-6.566,13.371-18.282,22.416-16.474c8.942,1.789,18.553,13.73,18.553,13.73s2.972-9.628,2.704-22.287
				c-0.187-8.888-7.422-15.656-2.074-24.123C373.597,326.369,394.657,322.23,409.379,307.509z"/>
		</g>
	</g>
	<g id="&#x424;&#x438;&#x433;&#x443;&#x440;&#x430;_374_1_">
		<g>
			<polygon style="fill-rule:evenodd;clip-rule:evenodd;fill:#3C2725;" points="304.521,302.667 300.204,229.273 294.928,167.872 
				294.928,131.896 318.432,113.427 297.325,107.91 297.366,107.668 297.565,107.671 297.375,107.614 301.643,82.007 290.13,74.332 
				278.139,79.608 269.503,68.575 256.552,77.21 244.079,73.853 234.006,83.446 242.401,107.191 225.851,112.468 250.315,135.732 
				250.315,158.758 253.673,248.461 247.917,311.302 241.681,370.783 242.161,438.9 265.666,448.494 290.609,448.494 
				314.595,436.502 297.325,353.035 			"/>
		</g>
	</g>
	<g id="&#x424;&#x438;&#x433;&#x443;&#x440;&#x430;_384">
		<g>
			<path style="fill-rule:evenodd;clip-rule:evenodd;fill:#212D35;" d="M240.722,438.9l23.025,10.073l2.878-52.767l-24.944,0.96
				L240.722,438.9z M253.146,103.907l-8.586-29.575l-10.553,8.155l7.772,24.688l-12.569,3.613l11.033,14.87l12.996-4.177
				l-2.442,41.113l11.033,3.358l0.841-47.503l4.437-1.426l0.479-17.27L253.146,103.907z"/>
		</g>
	</g>
	<g id="&#x424;&#x438;&#x433;&#x443;&#x440;&#x430;_387">
		<g>
			<path style="fill-rule:evenodd;clip-rule:evenodd;fill:#724531;" d="M271.422,166.434l21.586,3.838v-47.97l9.115,2.878
				l12.951-11.992l-17.748-4.317l2.878-27.343l-11.993-7.195l-11.032,2.878l-8.635-10.553l-1.438,49.408l4.316,9.594V166.434z
				 M287.732,421.631c-5.479-23.471-18.826-9.771-17.297,4.801c0.846,8.053,3.385,23.022,3.385,23.022l14.871-2.879l21.586-34.058
				C310.277,412.518,297.326,397.646,287.732,421.631z"/>
		</g>
	</g>
	<g id="&#x424;&#x438;&#x433;&#x443;&#x440;&#x430;_386">
		<g>
			<path style="fill-rule:evenodd;clip-rule:evenodd;fill:#BF753F;" d="M269.983,166.434l11.032,2.878v-41.733l-11.032-2.878
				V166.434z M296.846,107.431l4.797-25.423l-11.992-8.635l-4.172,31.061l-8.73-2.696l0.91-25.486l-8.635-7.675v30.7l-1.799-0.479
				v15.83l48.93-0.72L296.846,107.431z M286.772,169.072l7.675,1.199v-39.335l-7.675-2.998V169.072z"/>
		</g>
	</g>
	<g id="&#x424;&#x438;&#x433;&#x443;&#x440;&#x430;_385">
		<g>
			<path style="fill-rule:evenodd;clip-rule:evenodd;fill:#28202B;" d="M257.167,103.25l-1.575-28.918l-11.033-0.479l8.155,30.221
				L257.167,103.25z M266.625,116.065l-27.822,11.033l10.553,8.635l17.279-8.573l27.812,7.134l8.635-9.594L266.625,116.065z"/>
		</g>
	</g>
	<g id="&#x417;&#x430;&#x43B;&#x438;&#x432;&#x43A;&#x430;_&#x446;&#x432;&#x435;&#x442;&#x43E;&#x43C;_209">
		<g>
			<path style="fill-rule:evenodd;clip-rule:evenodd;fill:#261917;" d="M322.42,111.828c-0.335-1.605-1.549-2.883-3.136-3.297
				l-17.293-4.521l3.669-22.013c0.28-1.677-0.449-3.359-1.863-4.302l-11.512-7.676c-1.229-0.819-2.786-0.952-4.134-0.359
				l-8.921,3.925l-6.568-8.391c-1.391-1.778-3.918-2.183-5.793-0.931l-11.324,7.549l-10.583-2.85
				c-1.452-0.393-3.008,0.003-4.099,1.043l-10.074,9.594c-1.232,1.174-1.661,2.961-1.093,4.565l6.911,19.546l-12.306,3.923
				c-1.454,0.464-2.555,1.66-2.896,3.146c-0.341,1.487,0.127,3.044,1.232,4.096l23.123,21.988v21.174c0,0.054,0,0.107,0.003,0.161
				l3.347,89.425l-5.726,62.506l-6.235,59.483c-0.016,0.159-0.024,0.319-0.023,0.48l0.479,68.116
				c0.013,1.743,1.072,3.307,2.686,3.967l23.506,9.594c0.518,0.212,1.072,0.32,1.631,0.32h24.944c0.671,0,1.331-0.155,1.931-0.455
				l23.984-11.993c1.751-0.876,2.693-2.819,2.297-4.736l-17.116-82.729l7.089-49.621c0.041-0.285,0.053-0.575,0.036-0.863
				l-4.325-73.509l-5.261-61.217v-33.693l21.854-17.172C322.148,115.089,322.753,113.434,322.42,111.828z M290.885,79.465l5.8,3.866
				l-3.515,21.089l-6.981-2.14L290.885,79.465z M278.481,83.153c0.392-0.054,0.78-0.147,1.155-0.313l7.695-3.387l-1.547,22.703
				l-7.801-2.391L278.481,83.153z M271.422,77.619l3.076,3.931c0.07,0.09,0.152,0.164,0.229,0.246l2.709,17.803l-6.014-1.843V77.619
				z M258.074,80.412c0.217-0.097,0.432-0.195,0.633-0.329l8.398-5.599v22.188c-0.229,0.019-0.458,0.041-0.678,0.115l-9.154,3.079
				L258.074,80.412z M254.305,80.422l2.123,19.729l-3.913,1.316l-5.032-22.883L254.305,80.422z M243.923,79.015l8.199,22.585
				l-6.349,2.136l-7.004-19.811L243.923,79.015z M243.266,122.579l-9.393-8.933l7.734-2.467c0.091-0.021,0.182-0.031,0.272-0.062
				l1.412-0.476l0.181-0.058c0.011-0.003,0.021-0.01,0.033-0.014l21.682-7.292v11.728L243.266,122.579z M246.789,125.93l4.726-1.632
				v6.126L246.789,125.93z M299.945,301.767l-7.134,49.938c-0.07,0.494-0.055,0.997,0.046,1.484l16.596,80.217l-18.68,9.341
				c0.051-4.053-0.2-8.063-0.543-12.061c-0.447-5.479-1.762-10.838-2.707-16.249l-2.92-16.219
				c-1.048-5.396-2.033-10.802-3.135-16.189c-0.021-0.105-0.118-0.182-0.228-0.173c-0.12,0.01-0.21,0.112-0.2,0.231
				c0.418,5.485,0.952,10.952,1.424,16.429l1.638,16.399c0.573,5.462,0.778,10.976,1.851,16.369
				c0.793,4.082,1.684,8.151,2.91,12.173h-22.535c0.492-3.846,0.681-7.683,0.775-11.518c0.157-5.268-0.564-10.507-0.911-15.757
				l-1.127-15.752c-0.45-5.247-0.838-10.498-1.343-15.744c-0.01-0.104-0.098-0.19-0.208-0.195c-0.118-0.004-0.22,0.091-0.224,0.21
				c-0.185,5.268-0.253,10.53-0.383,15.796l-0.168,15.789c-0.027,5.264-0.428,10.538,0.049,15.783
				c0.301,3.503,0.683,7.004,1.301,10.497l-17.872-7.295l-0.458-64.996l6.216-59.301l5.756-62.839
				c0.018-0.185,0.022-0.37,0.016-0.556l-3.355-89.623V123.74c0-0.145-0.028-0.282-0.067-0.414l7.241-2.501
				c-0.807,4.789-1.174,9.579-1.416,14.369c-0.318,5.735,0.244,11.472,0.431,17.208l0.647,17.209
				c0.291,5.736,0.52,11.473,0.864,17.209c0.007,0.107,0.092,0.196,0.202,0.203c0.119,0.007,0.223-0.084,0.229-0.203
				c0.346-5.736,0.573-11.473,0.864-17.209l0.647-17.209c0.188-5.736,0.748-11.473,0.432-17.208
				c-0.251-4.952-0.631-9.903-1.496-14.854l4.492-1.552l12.514,2.895c-0.937,4.443-1.338,8.887-1.6,13.331
				c-0.316,4.957,0.244,9.914,0.432,14.87l0.647,14.87c0.292,4.958,0.519,9.914,0.863,14.871c0.009,0.106,0.093,0.193,0.201,0.201
				c0.119,0.008,0.224-0.082,0.231-0.201c0.345-4.957,0.572-9.913,0.863-14.871l0.648-14.87c0.186-4.956,0.747-9.913,0.431-14.87
				c-0.255-4.354-0.644-8.706-1.54-13.059l9.216,2.131v6.85c0,0.03,0.007,0.058,0.009,0.087c-0.002,0.052-0.009,0.102-0.009,0.153
				v35.978c0,0.123,0.006,0.246,0.016,0.369l5.268,61.285L299.945,301.767z M293.248,126.816v-2.064l2.03,0.47L293.248,126.816z
				 M299.635,121.798l-30.131-6.97v-11.64l25.66,7.862c0.262,0.131,0.536,0.24,0.829,0.316l12.694,3.318L299.635,121.798z"/>
		</g>
	</g>
	<g id="&#x424;&#x438;&#x433;&#x443;&#x440;&#x430;_378_&#x43A;&#x43E;&#x43F;&#x438;&#x44F;_3">
		<g>
			<path style="fill-rule:evenodd;clip-rule:evenodd;fill:#517554;" d="M243.839,155.641c0,0-20.761-34.475-21.48-42.03
				c-0.719-7.555,2.053-35.681,2.053-35.681s-10.658,22.642-12.097,29.837c-1.439,7.195,9.578,29.885,9.578,29.885
				s-1.099-1.624-10.766-10.428c-4.866-4.431-11.003-2.882-14.778-0.725c-1.649,0.942-4.224,3.57-5.489,7.162
				c-2.598,7.377-3.146,17.662-3.146,17.662s6.462-14.149,14.751-14.751c6.499-0.472,26.263,25.185,26.263,25.185l15.83,2.878
				L243.839,155.641z"/>
		</g>
	</g>
	
		<g id="&#x417;&#x430;&#x43B;&#x438;&#x432;&#x43A;&#x430;_&#x446;&#x432;&#x435;&#x442;&#x43E;&#x43C;_213_&#x43A;&#x43E;&#x43F;&#x438;&#x44F;_3">
		<g>
			<path style="fill-rule:evenodd;clip-rule:evenodd;fill:#2B3D2D;" d="M246.983,153.495c-7.897-13.113-20.603-35.79-21.081-40.818
				c-0.685-7.192,2.024-34.847,2.052-35.125l1.637-16.602l-7.105,15.093c-0.441,0.938-10.825,23.044-12.315,30.498
				c-0.774,3.872,1.212,11.137,3.624,17.942c-0.017-0.016-0.034-0.033-0.05-0.049c-2.582-2.351-5.782-3.593-9.257-3.593
				c-3.931,0-7.256,1.565-8.888,2.498c-2.312,1.321-5.304,4.525-6.776,8.706c-2.703,7.677-3.281,18.026-3.304,18.463l-0.802,15.068
				l6.293-13.717c1.5-3.27,6.987-12.689,12.31-13.077c2.95,0.128,13.853,11.15,23.807,24.069l0.673,0.872l17.113,3.17l-0.047-0.077
				c0.122,0.016,0.242,0.035,0.368,0.035c0.077,0,0.155-0.003,0.233-0.01c1.584-0.126,2.765-1.515,2.639-3.099l2.728-2.911
				L246.983,153.495z M231.01,158.466c-6.462-8.311-20.64-25.438-27.686-25.438c-0.132,0-0.262,0.005-0.389,0.014
				c-3.867,0.28-7.259,2.688-9.987,5.584c0.359-1.608,0.79-3.206,1.304-4.668c1.034-2.936,3.127-5.005,4.203-5.62
				c1.136-0.649,3.431-1.738,6.032-1.738c2.075,0,3.834,0.685,5.381,2.093c8.058,7.34,18.104,22.128,23.306,30.175L231.01,158.466z
				 M242.229,162.47l-0.647-1.067c-0.443-0.731-7.831-12.86-16.298-23.893c-0.032-0.092-0.053-0.185-0.094-0.275
				c-4.415-9.668-10.242-25.231-9.375-29.564c0.539-2.694,2.621-8.085,4.963-13.651c-0.543,7.559-0.954,15.556-0.606,19.204
				c0.722,7.579,19.96,40.025,24.163,47.027L242.229,162.47z"/>
		</g>
	</g>
	<g id="&#x424;&#x438;&#x433;&#x443;&#x440;&#x430;_378_&#x43A;&#x43E;&#x43F;&#x438;&#x44F;">
		<g>
			<path style="fill-rule:evenodd;clip-rule:evenodd;fill:#517554;" d="M348.174,158.878c2.518,1.079,7.388,5.761,11.968,11.436
				c3.567,4.421,4.581,9.072,4.581,9.072s3.362-11.677-1.369-18.779c-6.037-9.064-11.942-15.76-11.942-15.76l-8.994-0.719
				c0,0-9.585,3.086-17.325,10.052c-6.394,5.754-11.748,13.764-13.961,17.292c0.986-2.935,3.584-11.33,3.584-18.35
				c0-8.784-3.598-16.909-3.598-16.909s-2.604,9.441-7.052,17.895c-4.544,8.635-10.938,16.283-10.938,16.283l29.861,4.678
				c0,0,7.739-8.65,15.075-13.366C342.649,158.755,345.654,157.799,348.174,158.878z M405.737,193.776
				c-4.317-1.08-14.16-3.387-26.479,4.737c-10.512,6.933-17.851,17.176-21.737,23.571l0.006-0.246c0,0,0.893-17.792-2.976-28.253
				c-4.043-10.935-15.013-15.28-15.013-15.28s5.744,6.962,7.034,15.385c1.977,12.899,1.96,29.946,1.96,29.946l5.858,12.151
				l7.453,0.081c0,0,11.579-19.864,25.948-27.251c16.521-8.494,29.097,0.269,29.097,0.269S410.054,194.855,405.737,193.776z"/>
		</g>
	</g>
	
		<g id="&#x417;&#x430;&#x43B;&#x438;&#x432;&#x43A;&#x430;_&#x446;&#x432;&#x435;&#x442;&#x43E;&#x43C;_213_&#x43A;&#x43E;&#x43F;&#x438;&#x44F;">
		<g>
			<path style="fill-rule:evenodd;clip-rule:evenodd;fill:#2B3D2D;" d="M420.154,206.965c-2.231-4.581-7.971-15.374-13.041-16.642
				c-1.724-0.431-4.931-1.232-9.021-1.232c-6.699,0-13.343,2.14-19.741,6.36c-7.248,4.78-13.014,10.999-17.258,16.587
				c-0.219-6.158-0.962-14.155-3.165-20.111c-4.437-12.001-16.154-16.761-16.652-16.957l-9.729-3.853
				c2.575-2.726,5.725-5.709,8.752-7.655c2.927-1.882,5.026-2.796,6.42-2.796c0.368,0,0.686,0.063,0.999,0.197
				c1.712,0.733,6.101,4.696,10.861,10.597c3.036,3.763,3.987,7.782,4.012,7.887l2.426,11.118l3.15-10.944
				c0.151-0.529,3.668-13.052-1.738-21.17c-6.077-9.122-11.935-15.789-12.181-16.067l-0.77-0.873l-10.722-0.858l-0.544,0.176
				c-0.415,0.133-10.263,3.358-18.368,10.652c-2.163,1.946-4.157,4.166-5.939,6.411c0.227-1.824,0.365-3.634,0.365-5.33
				c0-9.285-3.688-17.72-3.843-18.074l-3.265-7.372l-2.142,7.772c-0.025,0.092-2.569,9.234-6.825,17.319
				c-4.34,8.247-10.537,15.704-10.599,15.778l-3.091,3.701l22.533,4.599l13.814,2.844l1.097-1.43
				c0.041-0.053,2.269-2.933,5.382-6.252l6.661,8.127c0.054,0.063,5.263,6.49,6.413,13.992c1.919,12.526,1.926,29.34,1.926,29.508
				c-0.001,1.59,1.287,2.88,2.876,2.881c0.001,0,0.001,0,0.003,0c1.588,0,2.876-1.286,2.878-2.875
				c0-0.705-0.006-17.417-1.994-30.386c-0.263-1.719-0.69-3.376-1.213-4.936c1.44,1.74,2.743,3.82,3.646,6.266
				c3.293,8.902,2.921,23.884,2.821,26.631c-1.866,3.137-2.873,5.271-2.992,5.526l-0.277,0.595l0.146,11.299l11.938,0.131
				l0.843-1.447c0.113-0.191,11.313-19.218,24.778-26.142c4.373-2.248,8.849-3.388,13.302-3.388c7.679,0,12.794,3.432,12.834,3.459
				l9.078,6.323L420.154,206.965z M309.432,169.981l-10.499-2.143c2.331-3.128,5.643-7.895,8.356-13.052
				c1.765-3.353,3.24-6.828,4.392-9.849c0.479,2.292,0.833,4.881,0.833,7.522C312.514,158.313,310.541,166.08,309.432,169.981z
				 M322.518,172.671l-6.725-1.385c2.285-4.018,6.606-10.862,11.901-15.628c6.185-5.565,13.765-8.546,15.774-9.273l7.209,0.576
				c1.754,2.07,6.332,7.636,10.959,14.581c1.35,2.025,1.892,4.585,2.021,7.076c-0.193-0.258-0.393-0.516-0.6-0.772
				c-3.979-4.93-9.503-10.743-13.074-12.273c-1.027-0.44-2.126-0.663-3.267-0.663c-2.636,0-5.487,1.109-9.531,3.71
				C331.132,162.511,324.996,169.631,322.518,172.671z M403.088,201.373c-5.378,0-10.738,1.354-15.933,4.023
				c-12.799,6.58-23.205,22.072-26.239,26.916l-3.006-0.033l-0.057-4.336c1.578-3.135,9.832-18.563,23.668-27.688
				c5.441-3.589,11.017-5.408,16.57-5.408c3.383,0,6.037,0.663,7.608,1.056c1.054,0.351,3.139,2.953,5.348,6.482
				C408.773,201.797,406.093,201.373,403.088,201.373z"/>
		</g>
	</g>
	<g id="&#x424;&#x438;&#x433;&#x443;&#x440;&#x430;_377_2_">
		<g>
			<path style="fill-rule:evenodd;clip-rule:evenodd;fill:#724531;" d="M349.973,226.875l-5.396-10.073l-10.793-0.72l-0.24-9.234
				c0,0-8.84-3.639-19.442-5.322c-9.567-1.52-24.69-9.429-24.69-9.429s14.577,1.8,23.985,1.8c8.929,0,17.509,0.6,17.509,0.6
				l-0.359-5.757l-6.477-1.799l4.317-2.158l-1.438-7.915c0,0-50.928-8.822-108.694-16.63c-41.825-5.653-83.481-12.425-91.411-13.726
				l-0.288-0.585l0.217,0.573c-0.841-0.139-1.296-0.214-1.296-0.214l-14.031,8.635l7.195,15.71c0,0-1.799,7.315-1.079,11.273
				c0.719,3.957,9.354,1.798,9.354,1.798l1.08,4.317l-29.382,5.577l-3.358,12.802l13.312-0.689l3.598,4.977l13.671,14.031
				l-0.898,3.877l9.154,14.877c0,0,40.767-0.816,62.264-0.221c29.169,0.808,56.119,2.333,56.119,2.333l104.333-10.793
				L349.973,226.875z"/>
		</g>
	</g>
	<g id="&#x424;&#x438;&#x433;&#x443;&#x440;&#x430;_391">
		<g>
			<path style="fill-rule:evenodd;clip-rule:evenodd;fill:#BF753F;" d="M145.262,170.271l-4.317-12.473l185.162,25.424l1.439-6.235
				l-199.553-31.66l9.354,23.445L145.262,170.271z M300.684,194.256l-13.432-3.838c0,0,8.837,14.689,21.51,18.457
				c5.738,1.705,25.501,6.406,25.501,6.406l-0.479-7.594c0,0-11.193-0.552-20.438-4.304
				C306.362,200.551,300.684,194.256,300.684,194.256z M347.214,216.802l-20.626,0.479c0,0-3.514-5.573-7.891-5.363
				s-2.934,7.042-6.441,7.072s-32.184-5.87-84.547-16.365c-20.62-4.133-43.531-9.989-60.559-12.362
				c-23.45-3.268-37.657-2.513-37.657-2.513l2.818,16.579l8.372,0.354l-1.287-10.921c0,0,53.204,5.972,104.867,17.821
				c26.396,6.054,65.951,14.393,70.089,14.213c4.137-0.181,2.914-5.41,5.373-5.891c2.459-0.479,5.903,4.781,8.901,4.871
				s18.888-0.63,18.888-0.63L347.214,216.802z M266.166,236.58c-26.217-1.611-54.196-8.955-54.196-8.955l2.818,8.034
				c0,0,38.206,5.397,55.192,6.158c15.033,0.673,44.375-4.509,44.375-4.509S289.557,238.018,266.166,236.58z"/>
		</g>
	</g>
	<g id="&#x424;&#x438;&#x433;&#x443;&#x440;&#x430;_389">
		<g>
			<path style="fill-rule:evenodd;clip-rule:evenodd;fill:#3C2725;" d="M182.993,218.96l24.15-7.195c0,0-21.395-1.642-38.173-1.028
				c-11.847,0.434-20.604,1.658-20.604,1.658l1.214,20.237c0,0,30.113,0.439,58.96,3.3c24.813,2.461,48.972,7.403,48.972,7.403
				s-14.628-7.168-33.375-12.636C205.333,225.217,182.993,218.96,182.993,218.96z M287.059,183.605
				c-25.033-1.421-53.652-5.255-53.652-5.255l27.703,10.389l-96.869-13.312l-7.465,6.116c0,0,41.604,6.417,80.363,12.395
				c33.799,5.212,56.709,10.541,56.709,10.541l-35.842-11.108l38.36-0.314l30.222-0.72l0.494-5.352
				C327.082,186.985,308.492,184.822,287.059,183.605z"/>
		</g>
	</g>
	<g id="&#x424;&#x438;&#x433;&#x443;&#x440;&#x430;_390">
		<g>
			<path style="fill-rule:evenodd;clip-rule:evenodd;fill:#212D35;" d="M115.042,179.386l13.671,6.476l15.65,2.158l-2.023-8.725
				l13.716-9.264l-17.269-0.72l-12.232-23.745l-15.83,10.074l8.634,14.391L115.042,179.386z M222.127,238.133
				c-30.41-3.235-71.828-6.221-71.828-6.221l-2.159-20.147c0,0,11.731-0.27,25.184-0.27c12.793,0,27.342,0.27,27.342,0.27
				s-12.098-3.778-27.293-5.476c-18.328-2.047-40.343-2.079-40.343-2.079l-3.598-14.751l-30.94,3.598l-4.317,13.671h12.232
				l7.195,6.477l10.523,12.771l9.624,18.169l120.973-1.125C254.723,243.02,241.171,240.158,222.127,238.133z"/>
		</g>
	</g>
	<g id="&#x424;&#x438;&#x433;&#x443;&#x440;&#x430;_390_&#x43A;&#x43E;&#x43F;&#x438;&#x44F;">
		<g>
			<path style="fill-rule:evenodd;clip-rule:evenodd;fill:#28202B;" d="M143.669,178.396l12.386-8.365l-17.269-0.72l-0.193-0.375
				l-20.586,4.024l-2.965,6.425l2.943,1.394L143.669,178.396z M173.325,211.495l27.342,0.27c0,0-12.098-3.778-27.293-5.476
				c-15.751-1.76-34.187-2.03-39.07-2.071l-24.134,5.896l14.679,17.226l22.813-16.295L173.325,211.495z M222.127,238.133
				c-28.354-3.017-66.261-5.814-71.261-6.18l-13.508,12.157l117.365-1.091C254.723,243.02,241.171,240.158,222.127,238.133z"/>
		</g>
	</g>
	<g id="&#x417;&#x430;&#x43B;&#x438;&#x432;&#x43A;&#x430;_&#x446;&#x432;&#x435;&#x442;&#x43E;&#x43C;_212">
		<g>
			<path style="fill-rule:evenodd;clip-rule:evenodd;fill:#261917;" d="M360.594,235.042l-7.537-9.831l-0.949-8.869
				c-0.226-2.098-1.935-3.726-4.041-3.85l-8.459-0.498l-0.439-5.944c-0.152-2.047-1.725-3.704-3.76-3.964
				c-0.059-0.007-6.034-0.773-16.433-2.425c-1.924-0.306-3.743-1.031-5.392-1.948c1.262,0.014,2.601,0.021,4.009,0.021
				c8.222,0,12.683,0.965,12.713,0.972c1.327,0.304,2.72-0.04,3.755-0.921c1.037-0.882,1.597-2.201,1.512-3.559l-0.359-5.756
				c-0.086-1.371-0.818-2.62-1.975-3.362l-1.012-0.65c0.734-1.001,1.004-2.272,0.734-3.49l-1.439-6.477
				c-0.39-1.75-1.82-3.078-3.596-3.335c-0.51-0.075-51.607-7.477-108.734-15.197c-45.881-6.201-92.189-13.854-92.652-13.932
				c-1.028-0.173-2.081,0.035-2.968,0.582l-14.031,8.635c-1.932,1.189-2.614,3.669-1.563,5.679l7.288,13.932l-2.86,8.187
				c-0.414,1.185-0.292,2.49,0.334,3.578c0.626,1.087,1.694,1.849,2.926,2.085l2.725,0.524l-20.214,3.205
				c-1.638,0.259-2.983,1.435-3.459,3.023l-4.317,14.391c-0.398,1.327-0.135,2.766,0.708,3.865c0.843,1.1,2.146,1.711,3.548,1.691
				l11.392-0.317l3.584,2.816l11.826,12.138l-0.365,1.581c-0.256,1.105-0.065,2.268,0.529,3.234l9.153,14.878
				c0.802,1.303,2.219,2.075,3.764,2.054c0.218-0.005,22.069-0.438,41.952-0.438c8.171,0,14.936,0.072,20.107,0.216
				c28.768,0.796,55.725,2.313,55.994,2.327c0.081,0.005,0.162,0.008,0.244,0.008c0.109,0,0.218-0.005,0.327-0.013l104.333-7.915
				c1.581-0.12,2.968-1.096,3.614-2.543C361.757,237.984,361.558,236.3,360.594,235.042z M117.496,156.488l9.229-5.68
				c0.061,0.01,0.14,0.022,0.204,0.033l9.921,20.144c0.351,0.712,1.063,1.173,1.855,1.203l11.375,0.43l-8.748,4.883
				c-0.736,0.41-1.165,1.211-1.101,2.051l0.448,5.825c-3.032-0.277-6.066-0.529-9.107-0.768l-1.783-4.076
				c-0.57-1.302-1.744-2.24-3.14-2.509l-4.444-0.854l1.829-5.234c0.394-1.127,0.304-2.367-0.25-3.425L117.496,156.488z
				 M115.615,207.673c-0.133-0.137-0.275-0.265-0.425-0.382l-5.037-3.957c-0.793-0.624-1.781-0.951-2.788-0.922l-6.979,0.194
				l1.82-6.069l25.365-4.021c0.235,1.463,0.443,2.933,0.69,4.393c0.467,2.576,0.983,5.141,1.573,7.689l-14.027,3.272
				L115.615,207.673z M129.286,221.704l-9.958-10.222l13.844-3.229c3.063-0.059,6.149-0.21,9.228-0.321
				c3.125-0.094,6.251-0.18,9.376-0.221c6.236-0.064,12.541-0.171,18.716,0.005c6.179,0.263,12.38,0.877,18.545,1.803
				c4.86,0.74,9.709,1.64,14.521,2.709c-8.513-1.325-17.083-2.363-25.741-2.963c-4.998-0.367-10.091-0.417-15.094-0.297
				c-5.025,0.114-10.002,0.339-15.04,0.668c-0.134,0.01-0.291,0.028-0.426,0.054c-0.646,0.12-1.209,0.418-1.675,0.817
				c-0.175,0.065-0.347,0.147-0.506,0.263l-15.542,11.262C129.447,221.924,129.383,221.804,129.286,221.704z M136.038,237.813
				l-6.135-9.972l0.207-0.896l14.482-10.493l2.166,13.809L136.038,237.813z M196.835,238.935c-5.25-0.146-12.095-0.219-20.346-0.219
				c-10.457,0-21.436,0.119-29.571,0.233l4.955-3.491c7.545-0.141,33.107-0.359,58.858,2.366c8.133,0.86,15.816,1.697,22.863,2.478
				C223.436,239.84,210.339,239.309,196.835,238.935z M269.082,240.021c-9.12-1.083-31.214-3.667-57.896-6.491
				c-23.737-2.512-47.286-2.546-57.011-2.425l-2.338-14.902c3.759-0.665,7.544-1.292,11.323-1.831
				c4.884-0.705,9.709-1.225,14.634-1.472c9.353-0.496,18.791-0.477,28.22-0.105c0.468,0.11,0.938,0.211,1.406,0.325
				c0.143,0.034,0.299-0.044,0.348-0.186c0.051-0.151-0.03-0.314-0.181-0.365c-5.959-2.017-12.035-3.641-18.183-5.019
				c-6.147-1.363-12.375-2.482-18.697-3.062c-6.333-0.53-12.555-0.899-18.842-1.244l-9.412-0.501
				c-2.336-0.131-4.67-0.254-7.011-0.339c-0.489-2.251-1.022-4.492-1.602-6.724c-0.485-1.785-1.011-3.563-1.52-5.342
				c9.944,0.488,19.937,1.143,29.727,2.401c5.358,0.757,10.893,1.835,16.348,2.866l16.459,3.14c5.5,1.017,11.014,1.987,16.558,2.81
				c5.539,0.788,11.031,1.609,16.534,2.538c10.991,1.86,22.561,2.669,33.413,5.287c-10.717-3.136-22.189-4.473-33.108-6.866
				c-5.455-1.193-11.074-2.419-16.543-3.467c-5.454-1.079-10.768-2.175-16.191-3.449l-16.27-3.923l-8.17-1.935l-4.113-0.922
				c-1.408-0.289-2.809-0.543-4.208-0.774c-5.916-0.94-11.813-1.655-17.713-2.25l-0.4-5.199l14.264-7.961
				c0.846-0.472,1.273-1.447,1.047-2.389c-0.226-0.94-1.051-1.616-2.018-1.653l-17.782-0.671l-7.995-16.231
				c14.724,2.377,50.414,8.031,85.876,12.825c49.254,6.656,94.023,13.075,105.703,14.759l0.345,1.547l-1.587,1.982
				c-0.764,0.955-1.086,2.188-0.89,3.395c0.198,1.207,0.897,2.272,1.927,2.934l0.224,0.145c-1.788-0.107-3.845-0.178-6.164-0.178
				c-9.159,0-15.524-0.35-15.588-0.353c-0.192-0.012-0.382-0.007-0.569,0.006c-3.281-0.04-6.656-0.133-9.992-0.227
				c-3.627-0.088-7.249-0.275-10.871-0.442c-7.246-0.344-14.494-0.714-21.742-1.143c7.037,1.792,14.091,3.527,21.154,5.239
				l10.599,2.584c2.905,0.72,5.791,1.428,8.733,2.119c2.481,2.89,9.3,9.875,18.305,11.305c5.922,0.94,10.38,1.592,13.193,1.986
				l0.336,4.537l-3.744-0.233c-0.273-0.407-0.568-0.802-0.895-1.181c-0.682-0.789-1.5-1.524-2.485-2.106
				c-0.978-0.584-2.144-0.983-3.321-1.087c-0.602-0.057-1.141-0.048-1.768,0.034c-0.286,0.041-1.099,0.179-1.602,0.369
				c-1.106,0.353-2.199,1.042-3.011,1.941c-0.811,0.902-1.325,1.947-1.634,2.954c-0.273,0.903-0.391,1.785-0.438,2.646
				c-3.055-1.077-6.096-1.867-9.219-2.536c-2.055-0.433-4.122-0.782-6.198-1.053c-2.094-0.287-4.151-0.414-6.163-0.653
				c-8.116-0.969-16.29-2.09-24.257-4.183c7.772,2.749,15.79,4.546,23.938,6.215c2.053,0.425,4.097,0.715,6.063,1.129
				c1.985,0.408,3.954,0.894,5.897,1.453c3.853,1.117,7.752,2.533,11.179,4.271c0.307,0.154,0.667,0.233,1.034,0.203
				c1.066-0.088,1.858-1.022,1.771-2.088l-0.016-0.185c-0.102-1.237,0.031-2.793,0.468-3.841c0.462-1.104,1.052-1.605,1.95-1.812
				c0.273-0.063,0.273-0.057,0.797-0.103c0.185-0.006,0.469-0.008,0.676,0.033c0.449,0.068,0.859,0.232,1.27,0.509
				c0.409,0.272,0.81,0.658,1.17,1.124c0.18,0.232,0.351,0.482,0.504,0.744c0.141,0.234,0.32,0.594,0.361,0.71
				c0.293,0.837,1.055,1.473,1.996,1.561l0.193,0.018l18.282,1.697l0.649,6.071c0.086,0.787,0.385,1.537,0.867,2.166l3.424,4.465
				L269.082,240.021z M189.146,167.408c-3.089-0.543-6.291-0.889-9.478-0.937c-3.191-0.014-6.426,0.147-9.582,1.042
				c3.123,0.904,6.15,1.63,9.193,2.318c3.048,0.671,6.051,1.283,9.143,1.832c3.159,0.536,6.337,0.79,9.522,0.795
				c3.185-0.023,6.378-0.228,9.558-0.988c-3.089-1.046-6.156-1.738-9.216-2.389C195.228,168.453,192.176,167.917,189.146,167.408z"
				/>
		</g>
	</g>
	<g id="&#x441;&#x44E;&#x434;&#x430;">
		<g>
			<path style="fill-rule:evenodd;clip-rule:evenodd;fill:#EBDACE;" d="M192.807,194.515l-0.039-0.007
				c0.01,0.161,0.019,0.312,0.027,0.437C192.8,195.015,192.803,194.444,192.807,194.515z M177.53,189.668
				c0.464-1.426,1.017-2.568,1.625-3.434c0.609-0.865,1.232-1.182,1.842-0.957c0.623,0.289,1.063,0.844,1.338,1.666
				c0.276,0.824,0.512,1.736,0.714,2.739c0.13,0.565,0.32,1.182,0.571,1.846c0.116,0.296,0.376,1.056,0.508,1.326l8.639,1.653
				c-0.044-0.73-0.108-1.747-0.193-2.368c-0.104-0.756-0.223-1.52-0.354-2.293c-0.132-0.772-0.283-1.516-0.452-2.23
				c-0.151-0.621-0.316-1.205-0.497-1.752c-0.18-0.547-0.415-1.075-0.706-1.585c-0.291-0.509-0.646-1.016-1.067-1.521
				c-0.421-0.504-0.931-1.022-1.528-1.557c-0.618-0.442-1.303-0.884-2.054-1.324c-0.752-0.439-1.542-0.853-2.368-1.238
				c-0.828-0.386-1.678-0.728-2.555-1.026c-0.876-0.298-1.72-0.525-2.533-0.68c-1.103-0.176-2.275-0.139-3.51,0.113
				c-1.235,0.254-2.445,0.902-3.576,1.955c-1.399,1.316-2.551,2.886-3.414,4.71c-0.651,1.377-1.258,3.448-1.6,4.987l10.831,2.491
				C177.287,190.834,177.42,190.006,177.53,189.668z M176.866,204.049c-0.287-1.575-0.489-3.152-0.589-4.732
				c-0.046-1.313,0.162-2.562,0.316-4.051c-4.255-0.971-8.22-1.323-10.825-1.956c-0.041,1.156,0.129,1.65,0.226,2.849
				c0.181,2.255,0.574,4.461,1.135,6.609c0.136,0.521,0.233,0.969,0.386,1.476c2.702,0.256,5.699,0.512,9.596,1.011
				C176.995,204.748,176.963,204.587,176.866,204.049z M301.29,187.93c-0.677-0.205-1.347-0.422-2.008-0.653
				c-0.661-0.229-1.38-0.452-2.153-0.666c-0.774-0.214-1.627-0.415-2.557-0.603c-0.932-0.188-1.99-0.352-3.18-0.493
				c-1.363-0.207-2.39-0.113-3.068,0.288c-0.678,0.401-1.214,0.946-1.591,1.637c-0.193,0.352-0.233,0.538-0.419,0.909l16.409,0.458
				C302.389,188.483,301.951,188.183,301.29,187.93z M310.214,220.186c-0.478-2.251-1.1-4.698-1.833-7.337
				c-0.731-2.64-1.511-5.274-2.234-7.899c-0.31-1.123-0.329-1.139-0.598-2.222l-6.232-5.844l-4.546-1.071
				c0.348,1.958,0.543,2.278,1.114,4.279c0.619,2.173,1.315,4.355,2.031,6.544c-1.299,0.025-2.583,0.078-3.852,0.159
				c-1.268,0.082-2.52,0.19-3.758,0.328c0.579-2.512,1.182-4.92,1.878-7.223c0.653-2.166,0.529-2.02,1.262-3.8l0.218-0.576
				l-9.452-2.261c-0.144,0.412-0.146,0.409-0.28,0.839c-0.797,2.528-1.401,5.113-1.902,7.754c-0.502,2.641-0.881,5.222-1.233,7.735
				c-0.351,2.515-0.634,4.718-0.857,6.599c-0.03,0.573-0.001,1.032,0.091,1.377c0.094,0.344,0.234,0.628,0.425,0.851
				c0.191,0.223,0.431,0.412,0.72,0.568c0.288,0.156,0.627,0.348,1.014,0.573c0.502,0.229,0.992,0.435,1.469,0.621
				c0.477,0.186,0.914,0.35,1.311,0.493c0.697,0.229,1.202,0.306,1.517,0.23c0.313-0.076,0.544-0.343,0.683-0.801
				c0.232-0.862,0.457-1.743,0.674-2.644c0.219-0.899,0.475-1.872,0.77-2.914c1.525-0.361,3.316-0.652,5.375-0.871
				c2.057-0.22,4.125-0.43,6.201-0.63c0.392,1.095,0.744,2.102,1.063,3.021c0.316,0.919,0.615,1.766,0.9,2.537
				c0.277,0.746,0.574,1.267,0.904,1.563c0.329,0.298,0.854,0.544,1.574,0.741c0.696,0.223,1.361,0.359,1.998,0.41
				c0.636,0.051,1.325,0.082,2.068,0.095s1.206-0.07,1.387-0.25S310.308,220.657,310.214,220.186z M273.16,212.627
				c-0.014-0.001-0.029-0.001-0.043-0.002c-0.054-0.194-0.098-0.402-0.131-0.624c-0.686-2.942-1.404-5.811-2.033-8.596
				c-0.631-2.786-1.156-5.447-1.506-7.981c-0.352-2.535-0.553-4.772-0.641-6.718c-0.02-0.794-0.168-1.446-0.461-1.958
				c-0.293-0.514-0.895-0.952-1.813-1.321c-0.678-0.213-1.348-0.439-2.01-0.681s-1.381-0.473-2.154-0.696
				c-0.775-0.223-1.627-0.431-2.558-0.625s-1.99-0.363-3.179-0.509c-1.364-0.213-2.391-0.108-3.069,0.317
				c-0.677,0.427-1.211,1.004-1.584,1.735c-1.049,2.029-1.91,4.38-2.529,7.06c-0.621,2.68-0.992,5.421-1.206,8.218
				s-0.349,5.525-0.505,8.179c-0.037,1.8-0.04,3.448-0.015,4.941c-2.407,0.161-3.511,1.3-3.424,3.413
				c-0.041,1.069-0.011,2.104,0.088,3.104s0.175,1.762,0.252,2.283c0.118,1.188,0.234,2.027,0.397,2.521s0.471,0.943,0.928,1.352
				c0.858,0.44,1.93,0.483,3.22,0.136c1.289-0.348,2.167-0.689,2.636-1.028c0.467-0.338,0.833-0.935,1.066-1.788
				c0.072-0.771,0.125-1.299,0.181-1.583c0.055-0.285,0.101-0.756,0.125-1.412c2.279-0.16,5.116-0.266,8.511-0.315
				c3.395-0.052,5.785-0.035,7.168,0.046c-0.037,0.863-0.088,1.664-0.15,2.402s-0.098,1.47-0.107,2.195
				c0.227,0.531,0.457,0.909,0.703,1.135s0.926,0.343,2.039,0.353s2.238-0.229,3.366-0.716c0.843-0.461,1.414-0.93,1.714-1.407
				c0.299-0.479,0.562-1.281,0.747-2.406c0.169-1.043,0.287-2.01,0.37-2.901c0.082-0.891,0.065-1.859-0.052-2.905
				C277.323,213.753,275.844,212.682,273.16,212.627z M257.201,212.908c0.023-4.891,0.082-8.933,0.535-12.126
				c0.473-4.226,1.188-7.306,1.955-9.281c0.483,4.187,1.198,7.367,1.695,9.518c0.506,2.15,1.219,4.791,2.061,7.919
				c0.404,1.466,0.739,2.692,1.01,3.679C262.059,212.685,259.641,212.782,257.201,212.908z M174.434,216.205
				c0.918,0.69,1.793,1.219,2.635,1.585c0.921,0.336,1.958,0.696,3.112,1.082c1.153,0.385,2.407,0.636,3.767,0.754
				c0.639,0.073,1.29,0.084,1.951,0.032c0.66-0.052,1.284-0.151,1.871-0.298c0.586-0.147,1.136-0.342,1.646-0.582
				c0.51-0.242,0.938-0.5,1.283-0.774c0.676-0.611,1.314-1.379,1.902-2.301c0.312-0.488,0.813-2.638,1.023-3.18
				c-5.54,0.032-14.958,0.144-21.784,0.806C172.482,214.224,173.53,215.525,174.434,216.205z M237.204,191.313
				c-0.501-1.291-1.076-2.453-1.741-3.488c-0.666-1.034-1.594-2.038-2.789-3.016c-1.067-0.854-2.357-1.61-3.884-2.273
				c-1.527-0.661-3.114-1.187-4.775-1.573c-1.282-0.299-2.59-0.303-3.921-0.003c-1.33,0.299-2.481,0.813-3.43,1.543
				c-1.398,1.23-2.477,2.587-3.226,4.065c-0.75,1.479-1.301,3.236-1.618,5.272c-0.267,1.892-0.318,3.77-0.188,5.629
				c-1.214,0.03-2.391,0.093-3.529,0.188c-0.191-2.654-0.296-4.795-0.36-6.432c-0.065-1.635-0.02-3.301,0.165-4.993
				c0.023-0.387,0.028-0.73,0.014-1.03c-0.015-0.3-0.088-0.574-0.22-0.822c-0.133-0.248-0.337-0.501-0.61-0.76
				c-0.275-0.259-0.643-0.539-1.105-0.841c-0.837-0.599-1.8-1.169-2.891-1.715c-1.091-0.545-2.103-0.989-3.042-1.33
				c-0.855-0.396-1.494-0.52-1.922-0.369c-0.425,0.151-0.738,0.706-0.893,1.667c-0.146,2.541-0.056,5.332,0.277,8.373
				c0.234,2.153,0.67,4.732,1.035,6.902l22.978,4.781c-0.015-0.288-0.061-0.72-0.063-1.003c-0.022-1.419,0.076-2.313,0.306-3.817
				c0.23-1.503,0.579-2.857,1.04-4.062s1.01-2.144,1.622-2.821c0.612-0.678,1.249-0.892,1.893-0.647
				c0.612,0.213,1.147,0.851,1.64,1.912s0.917,2.328,1.29,3.802c0.365,1.444,0.675,2.994,0.924,4.65
				c0.249,1.658,0.406,3.174,0.451,4.549c0.001,0.033,0.001,0.064,0.002,0.098l0.054,0.013c0,0-0.044-0.004-0.054-0.004
				c0.069,1.627,0.03,3.136-0.133,4.522c-0.167,1.417-0.45,2.606-0.842,3.567c-0.393,0.96-0.863,1.672-1.4,2.13
				c-0.539,0.459-1.136,0.578-1.789,0.354c-0.711-0.226-1.354-0.806-1.943-1.744c-0.59-0.937-1.099-2.059-1.532-3.365
				c-0.433-1.306-0.794-2.714-1.077-4.222c-0.134-0.716-0.215-1.238-0.29-1.927c-6.189-0.658-14.7-2.166-22.539-3.553
				c0.481,2.631,0.998,5.476,1.394,7.927c0.462,2.835,0.732,5.314,0.81,7.438c0.02,0.801,0.217,1.429,0.6,1.882
				c0.383,0.454,0.937,0.857,1.663,1.209c0.612,0.351,1.316,0.64,2.114,0.868s1.575,0.457,2.328,0.684
				c0.776,0.197,1.271,0.221,1.487,0.072c0.215-0.149,0.333-0.481,0.347-0.998c-0.056-1.462-0.143-3.456-0.336-5.981
				c-0.192-2.525-0.427-4.986-0.632-7.382c1.143-0.168,2.271-0.29,3.384-0.367c0.201,0.007,0.393-0.015,0.576-0.068
				c0.582,2.125,1.176,3.814,1.786,5.067c0.593,1.492,1.463,2.932,2.604,4.313c0.641,0.857,1.393,1.634,2.26,2.327
				c0.867,0.694,1.726,1.259,2.584,1.694c1.047,0.529,2.164,0.93,3.355,1.204c1.19,0.274,2.339,0.48,3.446,0.618
				c1.673,0.117,3.112,0.031,4.313-0.257c1.2-0.287,2.288-0.876,3.241-1.764c1.367-1.494,2.35-3.322,2.918-5.484
				c0.569-2.162,0.799-4.462,0.732-6.902s-0.395-4.898-0.918-7.38C238.62,195.759,237.968,193.452,237.204,191.313z"/>
		</g>
	</g>
	<g id="&#x424;&#x438;&#x433;&#x443;&#x440;&#x430;_376_&#x43A;&#x43E;&#x43F;&#x438;&#x44F;_3">
		<g>
			<path style="fill-rule:evenodd;clip-rule:evenodd;fill:#5E4137;" d="M429.212,268.654l-0.112-9.558
				c0,0-13.537-6.431-17.809-9.961c-4.272-3.53-18.623-13.561-41.779-14.188c-5.799-0.157-27.26,1.668-53.32,4.835
				c-31.215,3.792-65.157,9.398-65.157,9.398s-38.97,3.142-71.562,5.467c-17.877,1.275-32.052,2.448-32.052,2.448v7.195
				l17.988,3.958l-11.872,6.835l-1.08,8.995l8.994-0.36l-8.634,13.672l6.116,2.878l-3.238,8.994h77.711
				c0,0,15.678,5.394,35.605,5.893c46.439,1.164,115.858-2.295,115.858-2.295l30.468-26.511l8.725-4.52l-1.597-5.486
				L429.212,268.654z"/>
		</g>
	</g>
	<g id="&#x424;&#x438;&#x433;&#x443;&#x440;&#x430;_392_&#x43A;&#x43E;&#x43F;&#x438;&#x44F;_2">
		<g>
			<path style="fill-rule:evenodd;clip-rule:evenodd;fill:#494140;" d="M376.523,273.988c0.972-4.152,4.839-8.46,4.839-8.46
				s-31.394-0.449-64.726,3.313c-34.81,3.929-78.837,11.613-110.801,14.295c-25.189,2.113-45.463-0.138-45.463-0.138l-7.916,13.672
				l7.196,4.317l-5.037,10.073c0,0,62.789-3.978,115.276-6.281c61.555-2.701,104.274-4.804,104.274-4.804s-2.682-5.819-1.378-10.914
				c0.976-3.812,4.571-6.423,4.571-6.423S375.495,278.385,376.523,273.988z"/>
		</g>
	</g>
	<g id="&#x424;&#x438;&#x433;&#x443;&#x440;&#x430;_393_&#x43A;&#x43E;&#x43F;&#x438;&#x44F;_2">
		<g>
			<path style="fill-rule:evenodd;clip-rule:evenodd;fill:#2F2123;" d="M383.859,307.414c-0.345-2.96-10.569-8.675-10.569-8.675
				s-24.773,1.852-58.911,3.464c-40.14,1.895-79.174,5.261-79.174,5.261s9.702,8.021,34.488,9.084
				c44.604,1.911,116.616-2.608,116.616-2.608S384.292,311.135,383.859,307.414z"/>
		</g>
	</g>
	<g id="&#x424;&#x438;&#x433;&#x443;&#x440;&#x430;_394_&#x43A;&#x43E;&#x43F;&#x438;&#x44F;_2">
		<g>
			<path style="fill-rule:evenodd;clip-rule:evenodd;fill:#BF753F;" d="M429.716,269.112l-0.415-9.601l-40.94-23.066
				c0,0,6.017,9.791,4.083,15.722c-1.475,4.522-3.549,7.938-15.102,20.263c-2.59,2.764,0.426,7.363-0.404,10.85
				c-0.831,3.487-5.674,3.715-4.979,7.526c1.108,6.065,3.957,8.583,6.883,11.306c4.087,3.8,8.333,6.279,10.22,6.468
				c3.238,0.324,25.903-22.54,25.903-22.54l11.063-3.777l-3.157-6.512L429.716,269.112z"/>
		</g>
	</g>
	<g id="&#x424;&#x438;&#x433;&#x443;&#x440;&#x430;_395_&#x43A;&#x43E;&#x43F;&#x438;&#x44F;_2">
		<g>
			<path style="fill-rule:evenodd;clip-rule:evenodd;fill:#F4CE87;" d="M428.492,258.805l-35.348-15.351l-0.037,6.2l29.629,17.365
				L428.492,258.805z M385.853,262.688c-2.867,3.782-4.795,7.791-4.795,7.791s10.455,8.364,22.402,11.591
				c8.922,2.408,18.184-0.282,19.966-1.948c-9.804-6.955-31.194-19.886-31.194-19.886S388.426,259.295,385.853,262.688z
				 M372.782,289.147c-0.854,3.236,0.756,8.146,0.756,8.146l15.889,13.048l11.993-12.951l-23.295-13.141
				C378.125,284.25,373.789,285.33,372.782,289.147z"/>
		</g>
	</g>
	
		<g id="&#x417;&#x430;&#x43B;&#x438;&#x432;&#x43A;&#x430;_&#x446;&#x432;&#x435;&#x442;&#x43E;&#x43C;_211_&#x43A;&#x43E;&#x43F;&#x438;&#x44F;_5">
		<g>
			<path style="fill-rule:evenodd;clip-rule:evenodd;fill:#261917;" d="M435.643,256.645c-0.153-0.059-15.478-5.928-27.646-12.716
				c-9.259-5.166-17.541-11.518-17.624-11.581c-0.8-0.615-1.773-0.911-2.8-0.894c0,0-10.101,0.39-21.604,0.908
				c-22.711,1.025-34.75,1.763-51.557,3.804c-29.785,3.619-62.444,8.95-65.161,9.396c-2.903,0.233-40.262,3.232-71.345,5.449
				c-12.46,0.889-23.099,1.021-28.332,1.021c-2.115,0-3.309-0.021-3.332-0.022c-1.311-0.029-2.489,0.514-3.326,1.469
				c-0.838,0.955-1.213,2.231-1.024,3.487l1.079,7.196c0.254,1.694,1.486,3.078,3.14,3.526l7.941,2.153l-2.146,0.767
				c-1.549,0.554-2.648,1.938-2.837,3.571l-1.079,9.354c-0.138,1.188,0.225,2.382,1.001,3.293c0.775,0.911,1.895,1.46,3.091,1.515
				l0.618,0.027l-4.107,6.72c-0.652,1.069-0.809,2.369-0.429,3.563c0.381,1.194,1.262,2.163,2.413,2.657l2.909,1.247l-3.423,5.436
				c-0.847,1.347-0.886,3.048-0.102,4.432c0.784,1.382,2.294,2.226,3.855,2.185l76.833-1.777c3.772,1.457,18.895,6.858,36.995,7.311
				c6.373,0.16,13.548,0.24,21.323,0.24c43.385,0,94.349-2.514,94.749-2.535l-26.919,0.86c18.781-2.261,33.481-4.532,33.627-4.555
				c0.945-0.147,1.814-0.603,2.472-1.297c0.061-0.063,6.131-6.458,12.452-12.403c5.168-4.863,10.623-9.543,12.479-11.117l9.597-2.96
				c1.37-0.422,2.439-1.496,2.857-2.867c0.418-1.372,0.127-2.86-0.774-3.974l-1.915-2.368l5.214-4.11
				c0.95-0.75,1.542-1.863,1.632-3.072c0.089-1.207-0.331-2.396-1.162-3.276l-1.048-1.115l2.918-0.724
				c1.832-0.453,3.156-2.045,3.27-3.929S437.406,257.316,435.643,256.645z M231.428,304.177c-0.033,0-0.067,0-0.1,0.001
				l-69.675,1.612l1.833-2.911c0.673-1.068,0.845-2.379,0.469-3.584c-0.376-1.206-1.261-2.188-2.422-2.685l-2.971-1.273l5.315-8.696
				c0.16-0.262,0.268-0.544,0.367-0.827c9.695,0.774,19.337,0.947,29.027,0.601c12.251-0.39,24.387-2.218,36.334-4.27l17.916-3.08
				c5.965-0.998,11.958-1.851,17.958-2.683c12.001-1.641,24.062-4.58,36.13-5.703c-12.106,0.631-24.226,3.078-36.302,4.229
				c-6.036,0.588-12.078,1.196-18.104,1.953l-18.037,2.35c-12.009,1.56-23.977,2.849-35.984,2.803
				c-11.977-0.011-24.08-0.852-35.805-2.63l-0.099-0.016c-0.031-0.005-0.063-0.009-0.095-0.012c-0.007-0.001-0.014,0-0.021-0.001
				l0.175-1.518l12.582-4.493c1.777-0.635,2.936-2.35,2.862-4.234c-0.074-1.886-1.363-3.504-3.184-3.998l-16.458-4.464
				c5.923-0.059,15.04-0.286,25.381-1.024c32.239-2.299,71.211-5.438,71.603-5.47c0.119-0.01,0.239-0.023,0.357-0.043
				c0.338-0.057,34.206-5.636,64.973-9.373c16.768-2.037,33.676-2.973,50.904-3.749c7.655-0.347,14.68-0.634,18.513-0.787
				c0.044,0.054,0.09,0.108,0.132,0.161c0.417,0.521,0.814,1.061,1.189,1.615c0.751,1.107,1.399,2.269,1.916,3.451
				c1.042,2.335,1.474,4.891,1.111,7.053c-0.45,2.54-1.726,4.854-3.49,7.146c-1.757,2.281-3.93,4.357-6.188,6.626
				c-0.563,0.575-1.133,1.167-1.702,1.848c-0.284,0.334-0.57,0.716-0.847,1.131c-0.317,0.506-0.442,0.787-0.645,1.167
				c-0.732,1.408-1.555,3.229-1.548,5.172c-0.014,1.914,0.547,3.558,1.145,5.072c0.034,0.086,0.076,0.164,0.111,0.249l-11.79,3.02
				l12.099,0.62c-0.277,0.203-0.6,0.406-0.923,0.604c-0.657,0.406-1.373,0.813-2.04,1.401c-0.665,0.574-1.569,1.405-2.041,3.579
				c-0.473,2.174,1.088,6.66,0.271,7.146c-1.671,0.997-24.749,2.145-24.749,2.145s-22.689,0.812-31.811,1.114
				c-23.602,0.782-41.156,1.365-82.703,3.769C232.061,304.221,231.746,304.177,231.428,304.177z M382.213,309.385
				c-7.055,0.337-53.266,2.362-93.246,2.362c-7.704,0-14.807-0.08-21.107-0.237c-9.219-0.23-17.698-1.899-23.982-3.55
				c33.643-1.873,50.02-2.417,71.34-3.124c9.126-0.303,19.156-0.636,31.83-1.114c12.017-0.456,25.084-1.976,26.809-1.346
				c1.724,0.63,8.268,5.26,8.268,5.26C382.652,308.419,382.634,309.163,382.213,309.385z M399.431,294.163
				c-4.053,3.813-10.111,9.652-12.275,11.741c0,0-10.604-7.443-11.278-8.545c-0.675-1.103-2.079-4.032-2.442-6.09
				c-0.119-0.742-0.198-1.509-0.121-2.176c0.032-0.582,0.438-1.07,0.983-1.44c0.553-0.384,1.235-0.684,1.947-1.011
				c0.71-0.345,1.489-0.646,2.262-1.397c0.378-0.371,0.729-0.982,0.787-1.634c0.077-1.023-0.268-1.637-0.268-1.637
				c-0.252-0.716-0.483-1.435-0.678-2.148c-0.384-1.423-0.635-2.855-0.461-4.066c0.148-1.201,0.764-2.265,1.606-3.514
				c0.466-0.719,0.694-0.979,1.228-1.48c0.101-0.094,0.23-0.191,0.337-0.287c2.151,2.058,4.435,3.984,6.845,5.768
				c2.62,1.939,5.455,3.653,8.493,5.006c3.021,1.357,6.179,2.401,9.395,3.216c1.178,0.292,2.355,0.548,3.538,0.783
				C406.721,287.513,403.043,290.765,399.431,294.163z M418.811,273.095c-0.443,0.35-0.806,0.78-1.078,1.261l-25.501-14.12
				l26.262,19.488l-4.055,1.619c-0.394,0.122-0.755,0.316-1.098,0.542c-2.296-0.038-4.66-0.22-6.961-0.51
				c-3.136-0.401-6.253-1.028-9.28-1.972c-3.031-0.903-5.896-2.335-8.665-3.963c-2.531-1.509-4.978-3.187-7.315-5.014
				c0.397-0.353,0.803-0.706,1.247-1.062c2.373-1.886,4.984-3.825,7.343-6.226c1.185-1.196,2.312-2.52,3.305-4.008
				c0.5-0.742,0.948-1.538,1.362-2.364c0.386-0.765,0.814-1.919,1.02-2.543c0.78-2.532,0.858-5.05,0.566-7.471
				c2.405,1.547,5.063,3.172,7.828,4.715c5.773,3.221,12.097,6.193,17.345,8.504c-0.583,0.526-1.021,1.208-1.25,1.986
				c-0.112,0.382-0.165,0.771-0.17,1.158c-2.251-0.943-4.499-1.895-6.738-2.854c-2.376-1.025-4.726-2.11-7.032-3.289
				c-2.302-1.188-7.808-4.139-9.945-5.626c1.917,1.771,7.252,5.039,9.392,6.547c2.146,1.501,4.356,2.919,6.598,4.276
				c3.885,2.346,7.775,4.653,11.694,6.94l0.076,0.08L418.811,273.095z"/>
		</g>
	</g>
	<g id="&#x442;&#x443;&#x434;&#x430;_&#x43A;&#x43E;&#x43F;&#x438;&#x44F;_2">
		<g>
			<path style="fill-rule:evenodd;clip-rule:evenodd;fill:#EBDACE;" d="M210.279,288.449c-0.27,1.783-0.444,3.28-0.525,4.495
				c-0.113,0.484-0.096,0.894,0.05,1.228c0.146,0.335,0.386,0.622,0.719,0.861c0.333,0.24,0.744,0.439,1.235,0.599
				c0.49,0.159,1.039,0.304,1.644,0.435c0.605,0.13,1.152,0.251,1.643,0.361c0.49,0.11,0.922,0.166,1.296,0.166
				c0.373,0,0.667-0.062,0.88-0.185c0.214-0.123,0.346-0.365,0.398-0.727c0.375-1.89,0.833-3.93,1.373-6.123
				c0.438-1.779,1.058-4.057,1.556-5.928c-3.803,0.504-7.173,1.146-9.726,1.361C210.62,286.139,210.441,287.382,210.279,288.449z
				 M262.976,274.174c0.827-3.506,1.599-7.396,2.219-11.666c0.077-0.38,0.118-0.706,0.126-0.979
				c0.007-0.272-0.044-0.517-0.151-0.734c-0.108-0.218-0.28-0.421-0.517-0.61c-0.238-0.188-0.576-0.401-1.018-0.639
				c-0.853-0.42-1.812-0.768-2.877-1.046c-1.065-0.276-2.035-0.477-2.906-0.603c-0.902-0.122-1.584-0.064-2.049,0.172
				s-0.762,0.782-0.899,1.638c-0.185,1.786-0.436,3.785-0.761,5.996c-0.325,2.21-0.711,4.448-1.148,6.713
				c-0.167,0.901-0.615,2.961-0.798,3.851c3.843-0.358,7.426-0.794,10.479-1.1C262.71,275.022,262.941,274.319,262.976,274.174z
				 M232.86,263.367c-0.399-0.677-0.9-1.286-1.502-1.83c-0.303-0.312-0.652-0.518-1.047-0.618c-0.395-0.101-1.038-0.099-1.927,0.004
				c-1.691,0.249-3.602,0.568-5.733,0.956c-2.132,0.389-4.305,0.813-6.52,1.27c-2.215,0.458-4.387,0.933-6.514,1.424
				c-2.128,0.491-4.034,0.979-5.716,1.463c-0.54,0.185-0.894,0.378-1.06,0.582c-0.042,0.052-0.066,0.113-0.075,0.185
				c-0.002,0.018-0.003,0.036-0.003,0.056c0,0.019,0.001,0.039,0.003,0.06c0.004,0.041,0.013,0.084,0.025,0.13
				c0.049,0.185,0.165,0.409,0.345,0.676c0.333,0.512,0.759,1.139,1.277,1.884s1.081,1.352,1.69,1.817
				c0.58,0.47,1.1,0.74,1.561,0.81c0.46,0.07,1.049-0.004,1.766-0.223c0.516-0.174,1.161-0.343,1.936-0.505
				c0.775-0.162,1.577-0.347,2.409-0.554c-0.412,1.771-0.839,3.686-1.28,5.74c-0.272,1.271-0.615,3.231-0.866,4.482
				c2.665-0.195,6.037-0.592,9.922-1.021c0.352-1.287,0.775-3.172,1.133-4.478c0.657-2.395,1.275-4.719,1.844-6.971
				c1.405-0.269,2.767-0.528,4.086-0.778c1.319-0.25,2.538-0.484,3.656-0.703c0.889-0.143,1.411-0.335,1.564-0.577
				c0.153-0.242,0.138-0.662-0.05-1.257C233.566,264.719,233.258,264.044,232.86,263.367z M245.994,277.019
				c0.008-0.025,0.126-1.201,0.135-1.227c0.268-1.364,0.66-3.125,1.158-5.287c0.497-2.162,0.955-4.053,1.381-5.67
				c0.079-0.366,0.128-0.688,0.15-0.968c0.021-0.278-0.021-0.522-0.128-0.732c-0.107-0.209-0.286-0.411-0.537-0.605
				c-0.251-0.193-0.596-0.391-1.035-0.591c-0.792-0.409-1.722-0.767-2.788-1.073c-1.066-0.305-2.064-0.525-2.994-0.665
				c-0.847-0.202-1.482-0.197-1.904,0.014c-0.423,0.211-0.728,0.761-0.923,1.646c-0.253,2.298-0.534,4.802-0.841,7.509
				c-0.308,2.708-0.586,5.277-0.807,7.712c-0.012,0.129-0.056,1.011-0.063,1.136c1.693-0.28,3.364-0.341,5.128-0.668
				C243.312,277.292,244.663,277.217,245.994,277.019z M242.145,279.988c-1.321,0.298-3.236,0.511-4.506,0.775
				c0.364,0.471,1.016,1.228,1.582,1.564c1.796,1.072,4.074,1.494,6.831,1.244c1.954-0.201,3.55-0.561,4.789-1.083
				c-0.208,0.734-0.46,1.553-0.755,2.455c-0.616,1.641-1.219,2.963-1.809,3.97c-0.591,1.008-1.185,1.509-1.788,1.509
				c-0.689-0.051-1.106-0.291-1.249-0.723c-0.144-0.431-0.272-0.917-0.384-1.459c-0.083-1.035-1.798-1.986-5.149-2.82
				c-1.031-0.266-1.778-0.247-2.239,0.048c-0.462,0.297-0.768,0.852-0.917,1.665c-0.088,0.381-0.106,0.825-0.05,1.332
				c0.055,0.508,0.284,1.02,0.686,1.538c0.286,0.604,0.632,1.181,1.036,1.729c0.404,0.548,0.91,1.053,1.517,1.515
				c0.607,0.463,1.323,0.868,2.146,1.218s1.797,0.627,2.921,0.834c2.162,0.388,3.937,0.434,5.325,0.122
				c1.388-0.311,2.579-0.776,3.577-1.398c1.253-0.827,2.417-2.132,3.505-3.925c1.088-1.792,2.109-4.015,3.066-6.675
				c0.719-2,1.428-4.128,2.08-6.606C256.549,277.539,250.057,278.53,242.145,279.988z M329.081,252.597
				c-0.266-0.557-0.853-0.962-1.757-1.218c-0.669-0.119-1.331-0.255-1.986-0.407c-0.656-0.151-1.371-0.28-2.141-0.385
				c-0.77-0.105-1.617-0.176-2.543-0.214c-0.927-0.037-1.979-0.019-3.16,0.055c-1.355,0.03-2.363,0.354-3.025,0.968
				c-0.662,0.615-1.189,1.369-1.586,2.265c-1.111,2.488-2.314,5.308-3.62,8.447c-1.306,3.141-2.622,6.297-3.925,9.467
				c-1.303,3.171-2.533,6.22-3.665,9.152c-1.132,2.932-2.042,5.462-2.727,7.606c-0.171,0.651-0.247,1.167-0.231,1.549
				c0.018,0.383,0.1,0.692,0.244,0.932c0.146,0.239,0.35,0.438,0.609,0.596c0.26,0.159,0.563,0.354,0.911,0.587
				c0.463,0.229,0.918,0.434,1.366,0.617c0.447,0.184,0.859,0.346,1.235,0.487c0.664,0.224,1.161,0.284,1.489,0.18
				s0.604-0.425,0.826-0.96c0.388-1.006,0.795-2.039,1.221-3.099s0.926-2.211,1.504-3.456c1.637-0.549,3.526-1.045,5.667-1.486
				c2.141-0.442,4.289-0.881,6.444-1.316c0.078,1.306,0.161,2.506,0.248,3.604c0.086,1.098,0.19,2.107,0.313,3.029
				c0.121,0.89,0.322,1.505,0.601,1.846c0.276,0.342,0.763,0.611,1.455,0.811c0.665,0.233,1.313,0.363,1.946,0.39
				c0.631,0.025,1.321,0.025,2.068,0c0.746-0.026,1.226-0.156,1.438-0.391c0.211-0.234,0.313-0.643,0.305-1.226
				c-0.063-2.785-0.072-5.809-0.035-9.068c0.035-3.261,0.112-6.517,0.203-9.766c0.09-3.249,0.197-6.371,0.302-9.366
				c0.104-2.994,0.208-5.65,0.315-7.971C329.451,253.906,329.346,253.152,329.081,252.597z M315.971,275.974
				c-1.309,0.247-2.61,0.523-3.904,0.829c1.381-3.076,2.756-6.074,4.104-8.988s2.58-5.594,3.696-8.032
				c-0.022,2.555-0.03,5.13-0.013,7.727c0.018,2.598,0.033,5.203,0.063,7.815C318.594,275.511,317.278,275.728,315.971,275.974z
				 M293.053,284.877c-0.014,0-0.029,0.001-0.043,0.002c0.001-0.212,0.017-0.439,0.047-0.684c0.164-3.218,0.376-6.358,0.607-9.421
				c0.232-3.063,0.482-6,0.73-8.815c0.25-2.814,0.426-5.309,0.539-7.48c0.063-0.889-0.041-1.593-0.305-2.111
				c-0.266-0.519-0.85-0.895-1.754-1.127c-0.668-0.107-1.33-0.229-1.985-0.366s-1.368-0.253-2.138-0.345
				c-0.77-0.093-1.617-0.153-2.542-0.181c-0.926-0.028-1.978-0.003-3.158,0.074c-1.355,0.039-2.363,0.35-3.027,0.928
				c-0.664,0.579-1.194,1.287-1.593,2.127c-1.117,2.332-2.254,4.965-3.417,7.892c-1.164,2.927-2.137,5.447-3.193,8.396
				c-0.088,0.246-0.067,0.19-0.155,0.434c2.688-0.155,4.751-0.157,4.751-0.157s-2.044,0.597-5.189,1.468
				c-0.851,2.371-1.819,4.972-2.612,7.201c-0.591,1.85-1.076,3.528-1.453,5.039c-2.469,0.354-3.91,1.579-4.302,3.67
				c-0.28,1.064-0.456,2.086-0.527,3.068c-0.07,0.982-0.097,1.728-0.085,2.238c-0.027,1.164,0.029,1.984,0.16,2.464
				c0.133,0.479,0.423,0.911,0.87,1.299c0.852,0.406,1.931,0.42,3.236,0.033c1.306-0.388,2.204-0.761,2.694-1.118
				c0.488-0.357,0.891-0.974,1.21-1.849c0.149-0.783,0.274-1.322,0.368-1.614s0.205-0.772,0.338-1.442
				c2.322-0.284,5.199-0.547,8.629-0.788c3.429-0.242,5.834-0.36,7.213-0.35c-0.188,0.933-0.356,1.797-0.51,2.593
				c-0.152,0.795-0.26,1.581-0.318,2.357c0.191,0.561,0.408,0.958,0.647,1.191c0.239,0.232,0.919,0.337,2.04,0.311
				c1.12-0.025,2.257-0.321,3.414-0.893c0.871-0.535,1.478-1.073,1.82-1.612c0.343-0.54,0.683-1.437,1.031-2.693
				c0.32-1.165,0.615-2.247,0.878-3.247c0.263-0.999,0.465-2.082,0.607-3.248C296.92,285.786,295.752,284.702,293.053,284.877z
				 M284.724,273.328c-0.134,2.287-0.269,5.086-0.387,8.395c-0.044,1.55-0.067,2.845-0.071,3.886
				c-2.441,0.276-4.912,0.582-7.41,0.914c1.401-5.14,2.848-9.476,4.25-12.981c1.763-4.627,3.181-8.105,4.298-10.392
				C285.117,267.649,284.854,271.041,284.724,273.328z"/>
		</g>
	</g>
	<g id="&#x424;&#x438;&#x433;&#x443;&#x440;&#x430;_378_&#x43A;&#x43E;&#x43F;&#x438;&#x44F;_2">
		<g>
			<path style="fill-rule:evenodd;clip-rule:evenodd;fill:#517554;" d="M203.762,285.098c-3.397-1.649-14.589-5.264-19.84-4.677
				c-4.583,0.513-7.933,2.561-9.066,3.338c4.639-5.536,11.137-12.531,17.664-17.607c6.645-5.169,12.465-1.5,12.465-1.5
				s-4.794-6.389-13.28-5.551c-5.332,0.526-12.67,4.513-16.469,7.836c-6.384,5.586-12.391,12.496-15.894,20.444
				c-1.663,3.771-2.566,4.973-2.566,4.973s-14.031-20.147-17.988-21.587c-3.958-1.438-8.526-1.251-22.397,8.501
				c-10.111,7.108-16.818,19.562-16.818,19.562s14.442-8.392,26.37-5.71c11.258,2.531,20.966,17.095,20.966,17.095l11.41-1.594
				l5.653-1.876c0,0,6.552-11.572,15.088-18.279c1.916-1.505,8.375-3.344,12.557-1.446c11.888,5.394,20.693,9.229,20.693,9.229
				S212.265,289.226,203.762,285.098z"/>
		</g>
	</g>
	
		<g id="&#x417;&#x430;&#x43B;&#x438;&#x432;&#x43A;&#x430;_&#x446;&#x432;&#x435;&#x442;&#x43E;&#x43C;_213_&#x43A;&#x43E;&#x43F;&#x438;&#x44F;_2">
		<g>
			<path style="fill-rule:evenodd;clip-rule:evenodd;fill:#2B3D2D;" d="M208.335,284.885c-1.798-1.254-5.339-2.212-8.838-2.905
				l-3.776-1.624c-0.245-0.105-5.876-2.483-11.81-2.346c3.447-3.644,7.268-7.306,11.051-10.248c1.839-1.431,3.756-2.156,5.696-2.156
				c2.049,0,3.467,0.82,3.468,0.82l13.201,8.316l-9.365-12.479c-0.221-0.296-5.868-7.68-15.866-6.688
				c-5.875,0.58-13.807,4.795-18.082,8.534c-7.753,6.785-13.349,14.002-16.631,21.45c-0.099,0.225-0.177,0.449-0.271,0.674
				c-5.099-7.094-13.057-17.519-16.667-18.831c-5.322-1.938-10.887-1.097-25.037,8.849c-10.546,7.416-17.41,20.021-17.696,20.553
				l-4.814,8.942l8.792-5.087c0.134-0.077,13.628-7.786,24.295-5.393c9.955,2.239,18.173,14.771,18.254,14.898
				c0.552,0.85,1.477,1.313,2.42,1.313c0.535,0,1.077-0.148,1.559-0.461c1.334-0.862,1.718-2.642,0.857-3.976
				c-0.385-0.598-9.562-14.634-21.828-17.392c-6.573-1.474-13.686,0.03-19.155,1.906c2.729-3.556,6.378-7.608,10.627-10.596
				c14.376-10.106,17.614-8.93,19.705-8.171c2.193,1.066,10.328,11.457,16.626,20.494c-1.4,7.695-0.133,14.105-0.06,14.458
				l0.54,2.628l9.994-1.332l0.474-1.896c0.007-0.026,0.204-0.799,0.554-1.99c2.693-3.603,8.5-10.924,14.514-15.649
				c1.205-0.946,2.537-1.709,3.885-2.336c0.01,0.005,0.019,0.012,0.029,0.017c0.112,0.051,2.832,1.271,11.37,4.074
				c9.074,2.981,14.672,7.773,14.726,7.819l4.504,3.926l-0.956-5.898C214.482,296.201,213.063,288.185,208.335,284.885z
				 M160.937,303.842l-0.649,0.087c-0.299-3.499-0.333-9.929,2.365-16.047c2.941-6.674,8.039-13.215,15.155-19.44
				c3.529-3.087,10.34-6.691,14.856-7.139c0.425-0.041,0.84-0.062,1.242-0.062c0.224,0,0.443,0.007,0.66,0.019
				c-1.072,0.514-2.119,1.167-3.136,1.958c-10.397,8.088-20.738,20.851-24.116,25.766
				C164.147,293.587,161.9,300.516,160.937,303.842z M178.402,286.107c-1.909,1.5-3.776,3.226-5.54,5.005
				c1.328-1.82,3.339-4.376,5.781-7.236c1.489-0.74,3.327-1.472,4.848-1.555c0.612-0.033,1.227-0.031,1.836,0.001
				C183.004,283.192,180.563,284.409,178.402,286.107z M197.701,287.156c-2.477-0.813-4.45-1.49-6.001-2.038
				c5.044,0.629,12.144,1.897,14.166,3.309c1.13,0.788,2.039,2.186,2.739,3.693C205.885,290.497,202.194,288.632,197.701,287.156z"
				/>
		</g>
	</g>
	<g id="&#x424;&#x438;&#x433;&#x443;&#x440;&#x430;_375">
		<g>
			<path style="fill-rule:evenodd;clip-rule:evenodd;fill:#724531;" d="M382.711,370.784l-11.513-1.8v-6.476h5.757
				c0,0-3.862-9.485-3.77-17.994c0.087-8.026,2.689-15.824,2.689-15.824s-78.07-2.519-96.418-5.037
				c-15.105-2.073-19.428-8.635-28.782-10.793s-112.609-1.799-112.609-1.799s-2.914,7.373-11.883,14.696
				c-15.271,12.468-27.901,19.632-27.901,19.632s4.15,5.308,3.791,8.546c-0.36,3.237-7.299,7.015-7.299,7.015l13.072,6.596
				l-2.519,5.756l11.513,1.08l16.55,14.03l4.317,13.672c0,0,14.498-0.583,38.839-1.284c27.468-0.791,67.143-3.072,99.344-1.544
				c47.539,2.256,81.996,11.822,81.996,11.822s6.584-7.789,13.98-11.639c5.424-2.824,12.283-2.032,12.283-2.032L382.711,370.784z"/>
		</g>
	</g>
	<g id="&#x424;&#x438;&#x433;&#x443;&#x440;&#x430;_396">
		<g>
			<path style="fill-rule:evenodd;clip-rule:evenodd;fill:#212D35;" d="M157.495,372.942c0,0-3.292-3.026-4.468-6.424
				c-1.888-5.452,0.398-8.237-1.423-12.262c-1.821-4.025-11.07-6.402-15.457-15.907c-4.246-9.198-2.396-21.531-2.396-21.531
				L98.492,345.6l3.598,6.836l-6.476,7.195l12.232,6.476l-1.079,5.757l12.952,2.519l13.663,12.611l5.765,13.651l23.745-17.629
				L157.495,372.942z"/>
		</g>
	</g>
	<g id="&#x424;&#x438;&#x433;&#x443;&#x440;&#x430;_397">
		<g>
			<path style="fill-rule:evenodd;clip-rule:evenodd;fill:#28202B;" d="M134.469,330.85l-37.056,30.939l10.073,6.477l30.94-27.703
				L134.469,330.85z M152.75,356.834c0,0-5.877,2.474-14.333,6.25c-9.271,4.141-21.198,8.308-22.822,8.729
				c1.867,0.802,16.716,16.599,16.716,16.599l21.227-20.146L152.75,356.834z M115.401,371.863c0,0,0.074-0.02,0.193-0.05
				C115.469,371.76,115.401,371.772,115.401,371.863z"/>
		</g>
	</g>
	<g id="&#x417;&#x430;&#x43B;&#x438;&#x432;&#x43A;&#x430;_&#x446;&#x432;&#x435;&#x442;&#x43E;&#x43C;_221">
		<g>
			<path style="fill-rule:evenodd;clip-rule:evenodd;fill:#2F2123;" d="M371.679,368.865l-0.479-7.195l-33.579-5.277l-9.114-10.073
				l-4.316,11.513l-37.846-0.488c0,0,23.727,6.548,47.99,10.567C349.961,370.5,371.679,368.865,371.679,368.865z M271.064,385.422
				c-53.485,1.088-109.095-1.776-109.095-1.776l-22.328,17.292c0,0,79.835-4.369,142.016-1.566
				c41.062,1.851,75.511,9.908,75.511,9.908s6.557-6.207,12.897-10.161c5.303-3.307,10.577-4.478,10.577-4.478
				S325.212,384.32,271.064,385.422z"/>
		</g>
	</g>
	<g id="&#x424;&#x438;&#x433;&#x443;&#x440;&#x430;_401">
		<g>
			<polygon style="fill-rule:evenodd;clip-rule:evenodd;fill:#5E4137;" points="153.417,351.596 162.532,384.215 197.549,384.695 
				213.859,368.865 240.242,354.954 			"/>
		</g>
	</g>
	<g id="&#x424;&#x438;&#x433;&#x443;&#x440;&#x430;_398">
		<g>
			<path style="fill-rule:evenodd;clip-rule:evenodd;fill:#3C2725;" d="M228.316,352.217c-36.396-2.269-72.98-2.659-72.98-2.659
				l-5.037,0.719l1.799,8.635c0,0,22.45-2.28,49.287-2.424c38.344-0.205,86.707,1.345,86.707,1.345S257.492,354.035,228.316,352.217
				z M276.939,324.014l-22.307-11.513l-117.285-2.159c0,0-4.468,9.823-3.914,18.684c0.525,8.396,6.073,15.854,6.073,15.854
				s26.328-9.327,55.436-14.204C233.267,324.256,276.939,324.014,276.939,324.014z"/>
		</g>
	</g>
	<g id="&#x424;&#x438;&#x433;&#x443;&#x440;&#x430;_399">
		<g>
			<path style="fill-rule:evenodd;clip-rule:evenodd;fill:#494140;" d="M250.316,312.501c0,0-39.221-2.637-71.224-3.042
				c-23.511-0.298-42.464,1.603-42.464,1.603s-3.292,4.383-3.757,10.119c-0.598,7.368,6.491,19.382,6.491,19.382
				s3.31-17.7,6.908-19.14c2.985-1.193,115.283-3.733,115.283-3.733L250.316,312.501z M153.417,359.031
				c-1.199,1.439-2.389,11.169,5.641,12.588c-0.127,6.22,3.953,13.076,3.953,13.076s2.953-9.992,9.566-17.772
				c5.519-6.493,17.537-9.811,17.537-9.811S154.856,354.475,153.417,359.031z"/>
		</g>
	</g>
	<g id="&#x424;&#x438;&#x433;&#x443;&#x440;&#x430;_400">
		<g>
			<path style="fill-rule:evenodd;clip-rule:evenodd;fill:#BF753F;" d="M362.564,336.246c1.439,1.438,1.799,14.391,0.72,15.11
				c-1.079,0.719-15.11,0.719-18.708-0.72c-3.598-1.439-15.83-7.195-15.83-7.195l9.354,14.391l37.417,2.878
				c0,0-2.48-9.542-2.819-17.334c-0.378-8.706,1.38-15.765,1.38-15.765l-92.102-4.317c0,0,20.141,7.536,41.311,8.669
				C347.619,333.266,361.125,334.807,362.564,336.246z M324.189,356.393l1.918-5.756c0,0-27.857,1.086-82.064-1.244
				c-24.711-1.063-55.956-5.909-75.266-6.172c-18.012-0.245-28.312,1.659-28.312,1.659l7.675,4.317c0,0,52.946,1.808,100.744,4.118
				C292.109,355.404,324.189,356.393,324.189,356.393z M382.232,394.769l-0.48-25.903c0,0-25.215,1.704-50.887-1.616
				c-22.299-2.885-29.915-3.719-43.613-6.539c-6.582-1.355-34.931-4.604-59.968-4.992c-36.997-0.575-73.147,2.114-73.147,2.114
				l-1.316,3.095c0,0,60.976-1.79,87.796-0.53c20.51,0.964,36.02,3,43.725,4.386c7.787,1.401,23.367,5.633,48.654,9.734
				c21.776,3.533,41.561,2.982,41.561,2.982v15.83L382.232,394.769z"/>
		</g>
	</g>
	<g id="&#x417;&#x430;&#x43B;&#x438;&#x432;&#x43A;&#x430;_&#x446;&#x432;&#x435;&#x442;&#x43E;&#x43C;_210">
		<g>
			<path style="fill-rule:evenodd;clip-rule:evenodd;fill:#261917;" d="M386.844,369.482c-0.111-2.036-1.631-3.717-3.646-4.032
				l-3.787-0.592c0.363-0.279,0.682-0.618,0.944-1.008c0.803-1.189,0.96-2.703,0.421-4.034c-0.035-0.087-3.533-8.816-3.452-16.323
				c0.079-7.215,2.445-14.436,2.468-14.503c0.432-1.295,0.227-2.716-0.553-3.834c-0.778-1.12-2.04-1.805-3.403-1.849
				c-0.778-0.025-78.052-2.539-95.97-4.999c-8.158-1.121-12.803-3.637-17.295-6.07c-3.3-1.789-6.713-3.639-11.104-4.652
				c-6.919-1.598-56.731-1.932-97.3-1.932c-9.835,0-16.294,0.021-16.294,0.021c-1.767,0.006-3.352,1.088-4,2.731
				c-0.024,0.063-2.722,6.507-10.6,12.938c-14.876,12.146-26.812,19.836-26.931,19.911c-1.009,0.648-1.701,1.69-1.914,2.87
				c-0.213,1.181,0.076,2.398,0.795,3.358c1.129,1.51,2.206,3.661,2.362,4.646c-0.765,1.04-3.519,3.088-5.997,4.43
				c-1.455,0.782-2.334,2.328-2.266,3.979c0.069,1.65,1.074,3.117,2.589,3.778l10.068,4.389l-0.786,1.796
				c-0.555,1.27-0.467,2.728,0.236,3.921c0.703,1.194,1.937,1.979,3.316,2.108l10.16,0.951l14.563,12.348l3.942,12.483
				c0.586,1.858,2.356,3.059,4.291,3.015c0.145-0.007,14.756-0.592,38.789-1.283c6.245-0.18,13.12-0.437,20.395-0.708
				c16.947-0.633,36.156-1.35,54.518-1.35c8.981,0,16.865,0.168,24.104,0.512c46.447,2.204,80.708,11.575,81.048,11.669
				c0.381,0.105,0.769,0.157,1.152,0.157c1.252,0,2.467-0.545,3.298-1.53c0.061-0.072,6.11-7.179,12.678-10.597
				c2.751-1.432,6.205-1.646,8.02-1.646c1.076,0,1.775,0.074,1.775,0.074c1.271,0.142,2.526-0.274,3.452-1.146
				c0.927-0.871,1.421-2.106,1.354-3.377L386.844,369.482z M137.327,386.045c-0.245-0.776-0.705-1.468-1.325-1.993l-14.137-11.985
				l29.209-14.295l-35.872,11.068l-3.437-0.321l23.425-25.059l-24.066,20.463c-0.446-0.604-1.033-1.098-1.733-1.402l-6.295-2.744
				l27.394-25.604l-24.304,18.34c0.026-2.213-0.729-4.471-1.658-6.334c4.704-3.203,13.659-9.534,24.206-18.145
				c0.528-0.432,1.009-0.862,1.5-1.294c-0.363,2.775-0.271,5.685,0.535,8.551c1.405,4.81,4.361,8.344,7.352,11.485
				c3.058,3.138,6.185,5.897,9.781,8.418l0.224,0.157c0.075,0.052,0.161,0.094,0.253,0.121c0.134,0.038,0.526,0.238,0.78,0.396
				c0.282,0.173,0.55,0.366,0.792,0.569c0.493,0.403,0.874,0.856,1.124,1.334c0.246,0.479,0.369,1.001,0.359,1.604
				c0.012,0.492-0.276,1.54-0.354,2.638c-0.192,2.08,0.149,4.324,1.174,6.231c0.507,0.948,1.155,1.811,1.91,2.537
				c0.676,0.641,1.375,1.15,2.235,1.613c0.267,0.504,0.543,1.004,0.81,1.508l0.014,0.113l0.04-0.013
				c1.381,2.603,2.776,5.198,4.184,7.789c-0.034,0.016-0.065,0.038-0.099,0.055c-0.056,0.03-0.113,0.059-0.166,0.093
				c-0.021,0.013-0.043,0.021-0.063,0.035l-20.561,14.303L137.327,386.045z M369.695,394.541
				c-5.674,2.953-10.789,7.861-13.423,10.63c-8.923-2.257-39.72-9.368-80.356-11.296c-7.377-0.35-15.395-0.52-24.514-0.52
				c-18.523,0-37.817,0.72-54.839,1.355c-7.249,0.271-14.099,0.525-20.321,0.704c-11.936,0.344-21.482,0.659-28.168,0.894
				l14.909-10.371c4.309,0.202,28.911,1.319,60.503,1.993c12.089,0.257,25.217,0.304,37.911,0.347
				c22.92,0.08,46.619,0.163,66.314,1.466c16.316,1.079,31.752,3.14,42.122,4.732C369.787,394.499,369.741,394.518,369.695,394.541z
				 M327.996,385.435c-19.83-1.31-43.6-1.393-66.584-1.475c-12.676-0.043-25.784-0.09-37.835-0.347
				c-34.588-0.736-60.858-2.01-61.12-2.022c-0.013,0-0.025,0.003-0.038,0.002c-1.021-2.754-2.057-5.501-3.105-8.243l9.154-2.914
				l-11.427-0.682c-0.831-0.779-1.542-1.805-1.903-2.839c-0.507-1.394-0.535-2.896-0.234-4.396c0.114-0.708,0.443-1.384,0.674-2.692
				c0.187-1.197,0.085-2.525-0.348-3.729c-0.224-0.628-0.526-1.209-0.875-1.746c3.264-0.702,6.886-0.963,10.574-1.233
				c5.557-0.356,11.149-0.694,16.729-0.964c11.173-0.541,19.248-0.94,31.534-0.448c-11.504-2.669-20.265-3.009-31.462-3.928
				c-5.605-0.458-11.2-0.863-16.831-1.193c-2.829-0.157-5.68-0.304-8.67-0.247c-2.884,0.048-6.082,0.378-9.099,1.254
				c-1.516-1.551-2.955-3.188-4.202-4.893c-2.25-3.088-3.988-6.472-4.996-9.51c-1.019-3.129-1.278-6.7-0.988-10.488
				c0.078-1.169,0.222-2.354,0.391-3.547c1.426-1.884,2.491-3.563,3.215-4.851c2.766-0.007,7.547-0.016,13.616-0.016
				c55.068,0,90.716,0.64,95.358,1.711c3.249,0.75,5.883,2.177,8.933,3.829c4.93,2.672,10.518,5.7,20.232,7.034
				c15.733,2.16,73.28,4.27,91.441,4.894c-0.7,3.164-1.396,7.354-1.442,11.645c-0.053,4.872,1.031,9.938,2.098,13.712l-31.22-3.579
				l-8.732-9.528l-0.123-0.136c-0.357-0.386-0.821-0.683-1.365-0.836c-1.568-0.443-3.199,0.47-3.643,2.038l-2.955,10.459
				c-0.223-0.036-0.443-0.071-0.674-0.107c-1.047-0.155-2.086-0.283-3.123-0.392c-2.074-0.217-4.137-0.355-6.195-0.45
				c-4.07-0.241-8.402-0.062-12.416,0.364c-4.034,0.412-7.931,0.686-11.914,0.573c-3.988-0.08-7.926-0.484-11.993-0.923
				c-8.099-0.795-16.202-1.231-24.303-1.506c-8.102-0.263-16.089-0.83-24.185-0.744c8.088,0.346,16.051,1.345,24.107,2.037
				c8.054,0.704,16.094,1.568,24.058,2.781c2.175,0.349,4.395,0.707,6.632,1.018c13.136,2.911,26.183,6.176,39.085,9.829
				c7.897,2.346,16.173,3.782,24.445,4.449c4.145,0.335,8.308,0.483,12.479,0.451c3.982-0.046,7.845-0.207,11.969-0.672l7.69,1.202
				l0.985,18.216C370.794,390.173,350.213,386.904,327.996,385.435z M364.04,364.686c-1.883,0.267-3.795,0.491-5.675,0.677
				c-3.93,0.379-7.889,0.585-11.849,0.616c-7.937,0.058-15.839-0.595-23.688-2.185c-9.412-1.781-18.847-3.34-28.3-4.729
				c2.043,0.008,4.077-0.048,6.07-0.136c2.018-0.075,3.988-0.128,5.943-0.075c1.945,0.046,3.9,0.211,5.896,0.384
				c1.978,0.183,3.946,0.409,5.887,0.704c0.97,0.147,1.934,0.311,2.88,0.499c0.913,0.182,1.954,0.413,2.656,0.63
				c1.326,0.404,2.752-0.308,3.21-1.629l0.032-0.096l2.539-7.325l5.709,6.969c0.462,0.563,1.126,0.974,1.901,1.105l0.186,0.032
				L364.04,364.686z"/>
		</g>
	</g>
	<g id="&#x432;&#x43E;&#x442;_&#x442;&#x430;&#x43C;">
		<g>
			<path style="fill-rule:evenodd;clip-rule:evenodd;fill:#DEC6BF;" d="M218.63,341.468c-0.375-1.308-0.842-2.478-1.411-3.51
				c-0.569-1.032-1.401-2.019-2.499-2.96c-0.981-0.821-2.189-1.529-3.633-2.125c-1.444-0.596-2.957-1.046-4.548-1.35
				c-1.229-0.235-2.531-0.161-3.908,0.227s-2.567,0.975-3.558,1.761c-1.473,1.315-2.733,2.81-3.759,4.482
				c-1.027,1.674-1.824,3.451-2.39,5.331c-0.566,1.881-1,4.962-1.008,5.255c1.982,0.19,3.94,0.402,6.001,0.568
				c1.281,0.104,2.856,0.413,4.27,0.51c0.177-1.195,0.239-1.221,0.587-2.483c0.422-1.531,0.933-2.919,1.529-4.161
				c0.595-1.242,1.239-2.222,1.912-2.939s1.321-0.966,1.932-0.747c0.581,0.188,1.047,0.814,1.425,1.876
				c0.377,1.063,0.662,2.337,0.865,3.826c0.2,1.46,0.325,3.029,0.371,4.709c0.015,0.564,0.019,0.912,0.016,1.443
				c0.722,0.174,2.368,0.525,2.368,0.525s4.763,0.205,6.842,0.293c-0.027-1.094-0.068-2.379-0.178-3.479
				C219.603,345.987,219.188,343.638,218.63,341.468z M230.828,361.367c0.109,2.065,0.213,3.806,0.329,5.223
				c-0.036,0.561,0.043,1.04,0.241,1.439c0.198,0.398,0.481,0.746,0.853,1.042c0.371,0.296,0.816,0.548,1.336,0.755
				c0.52,0.208,1.097,0.4,1.73,0.578c0.633,0.179,1.205,0.341,1.719,0.489c0.512,0.147,0.959,0.229,1.341,0.245
				c0.381,0.015,0.675-0.043,0.881-0.175c0.205-0.132,0.314-0.404,0.325-0.815c0.158-2.144,0.278-4.45,0.374-6.916
				c0.095-2.465,0.154-4.995,0.226-7.589c0.001-0.054,0.058-2.334,0.06-2.388c-3.055-0.164-6.475-0.615-9.836-0.785
				C230.493,354.712,230.721,359.35,230.828,361.367z M210.687,354.354c-0.138,1.695-0.379,3.264-0.733,4.706
				s-0.795,2.654-1.317,3.636c-0.523,0.981-1.092,1.71-1.698,2.185c-0.607,0.476-1.23,0.607-1.867,0.395
				c-0.696-0.212-1.274-0.783-1.748-1.713s-0.836-2.047-1.092-3.351c-0.256-1.303-0.422-2.71-0.495-4.222
				c-0.036-0.76-0.011-3.772,0.015-4.506c-3.438-0.017-6.856,0.111-9.875,0.211c0.044,0.502,0.194,2.83,0.263,3.327
				c0.266,1.926,0.701,3.764,1.294,5.51c0.594,1.748,1.317,3.315,2.174,4.7c0.533,0.844,1.208,1.598,2.032,2.26
				c0.822,0.663,1.644,1.206,2.468,1.627c1.006,0.513,2.102,0.897,3.291,1.153c1.188,0.257,2.341,0.446,3.462,0.567
				c1.68,0.183,3.152,0.117,4.415-0.193c1.261-0.311,2.438-0.926,3.509-1.846c1.561-1.542,2.768-3.425,3.597-5.646
				c0.831-2.222,1.336-4.582,1.557-7.084c0.047-0.531,0.042-3.35,0.065-3.883c-3.118-0.142-6.21-0.223-9.261-0.344
				C210.731,351.936,210.696,354.264,210.687,354.354z M187.55,355.339c-0.572-0.722-1.955-2.826-2.675-3.34
				c-0.174,0.002-0.477,0.028-0.646,0.031c-8.353,0.314-15.354,0.839-21.214,1.23c0.022,1.051,0.05,2.68,0.073,3.697
				c0.057,2.396,0.134,4.54,0.224,6.433c-0.002,0.29,0.007,0.554,0.028,0.79s0.053,0.446,0.098,0.63
				c0.089,0.367,0.217,0.695,0.385,0.986c0.168,0.291,0.385,0.566,0.65,0.826c0.266,0.261,0.572,0.574,0.915,0.941
				c0.919,0.705,1.715,1.278,2.394,1.722c0.678,0.443,1.463,0.863,2.355,1.261c0.478,0.274,0.894,0.473,1.249,0.595
				s0.715,0.198,1.083,0.229c0.366,0.031,0.747,0.017,1.14-0.044s0.865-0.165,1.415-0.316c1.043-0.271,2.139-0.61,3.287-1.017
				c1.147-0.407,2.28-0.865,3.397-1.377c1.116-0.511,2.165-1.082,3.142-1.713c0.977-0.63,1.805-1.29,2.486-1.981
				c1.006-0.899,1.692-1.822,2.063-2.77c0.371-0.946,0.387-2.098,0.048-3.455C189.049,357.551,188.415,356.432,187.55,355.339z
				 M180.094,359.192c-0.337,0.617-0.901,1.234-1.694,1.85s-1.782,1.2-2.967,1.755c-1.186,0.555-2.516,1.025-3.988,1.413
				c0.085-1.215,0.179-2.408,0.289-3.577c0.108-1.169,0.193-2.392,0.26-3.666c1.103-0.385,2.12-0.642,3.053-0.77
				s1.765-0.144,2.499-0.046c0.732,0.098,1.332,0.27,1.798,0.516c0.466,0.247,0.792,0.521,0.978,0.825
				C180.505,358.009,180.431,358.575,180.094,359.192z M189.833,336.606c-0.702-1.215-1.531-2.359-2.495-3.434
				c-0.744-0.798-1.687-1.414-2.845-1.847s-2.439-0.711-3.85-0.833c-1.411-0.123-2.909-0.111-4.494,0.035
				c-1.586,0.146-3.158,0.399-4.714,0.76c-1.557,0.36-3.052,0.799-4.484,1.316c-1.432,0.518-2.692,1.085-3.777,1.703
				c-0.109,2.346-0.176,4.819-0.22,7.423c-0.026,1.535-0.018,3.225-0.014,4.75c2.225,0.021,5.809,0.342,9.989,0.625
				c0.118-1.008,0.146-1.3,0.24-2.229c0.143-1.422,0.37-2.782,0.682-4.08c1.18-0.585,2.289-1.02,3.321-1.304
				c1.032-0.284,1.951-0.441,2.756-0.473c0.805-0.031,1.467,0.057,1.989,0.262c0.521,0.206,0.85,0.506,0.991,0.9
				c0.146,0.484,0.022,1.123-0.363,1.916c-0.386,0.793-1.023,1.627-1.913,2.504c-0.89,0.878-1.308,1.291-2.646,2.149
				c-0.526,0.338-0.541,0.343-1.13,0.643c3.915,0.274,8.046,0.637,12.729,0.998c0.04-0.035,0.395-0.442,0.852-1.082
				s0.52-0.878,0.799-1.625c0.278-0.746,0.452-1.524,0.522-2.333c0.07-0.81-0.003-1.65-0.216-2.525
				C191.097,339.229,190.534,337.822,189.833,336.606z M248.988,335.395c-0.416-0.795-0.912-1.532-1.491-2.216
				c-0.291-0.385-0.624-0.662-1.005-0.831c-0.381-0.168-1.006-0.263-1.875-0.282c-1.657,0.021-3.53,0.089-5.622,0.203
				c-2.092,0.114-4.226,0.265-6.402,0.452c-2.177,0.188-4.312,0.406-6.403,0.655c-2.092,0.25-3.965,0.535-5.619,0.854
				c-0.531,0.138-0.879,0.314-1.042,0.533c-0.162,0.219-0.064,0.672,0.308,1.359c0.343,0.657,0.794,1.464,1.368,2.42
				s1.201,1.75,1.866,2.381c0.637,0.631,1.196,1.017,1.667,1.157c0.471,0.141,1.05,0.128,1.738-0.037
				c0.493-0.14,1.116-0.254,1.869-0.345c0.753-0.09,1.532-0.201,2.337-0.335c-0.178,1.996-0.271,4.163-0.289,6.501
				c-0.011,1.458,0.039,3.031,0.075,4.474c3.407,0.119,6.658,0.164,9.774,0.257c0.054-1.568,0.155-3.207,0.248-4.789
				c0.153-2.631,0.358-5.172,0.656-7.621c1.37-0.121,2.699-0.236,3.986-0.344c1.286-0.108,2.475-0.21,3.565-0.307
				c0.87-0.042,1.368-0.186,1.495-0.431c0.126-0.244,0.066-0.703-0.169-1.377C249.75,336.967,249.403,336.188,248.988,335.395z
				 M338.956,343.518c-0.355-0.892-0.587-1.512-0.712-1.86c-0.123-0.348-0.213-0.646-0.268-0.897
				c-0.232-0.529-0.438-1.004-0.621-1.423s-0.42-0.804-0.709-1.156c-0.291-0.352-0.657-0.678-1.102-0.979
				c-0.443-0.3-1.021-0.582-1.736-0.847c-1.129-0.412-2.238-0.769-3.328-1.07c-1.092-0.302-2.408-0.581-3.95-0.838
				c-0.999-0.161-1.717-0.129-2.153,0.099c-0.436,0.228-0.729,0.814-0.847,1.76c-0.065,1.311-0.065,2.824,0.026,4.542
				s0.264,3.543,0.508,5.474c0.109,0.859,0.314,2.084,0.45,2.955c0,0,0.559-1.943,1.133-3.763c0.478-1.514,1.258-2.273,2.169-2.498
				c1.965-0.484,3.78,1.934,5.918,4.154c2.933,3.047,5.832,6.363,5.832,6.363l3.997,0.458c-1.216-2.514-2.315-5.172-2.985-6.67
				C339.842,345.678,339.313,344.409,338.956,343.518z M284.484,358.57c-3.637-0.729-6.965-1.189-9.58-1.587
				c0.137,1.483,0.311,3.303,0.447,4.68c0.203,2.018,0.386,3.72,0.566,5.104c-0.011,0.548,0.09,1.017,0.307,1.407
				c0.217,0.39,0.516,0.729,0.901,1.019c0.385,0.289,0.842,0.536,1.372,0.738c0.529,0.203,1.115,0.391,1.756,0.565
				c0.642,0.174,1.222,0.332,1.742,0.478c0.52,0.145,0.97,0.224,1.353,0.239c0.382,0.015,0.673-0.042,0.872-0.171
				s0.295-0.395,0.287-0.796c0.058-2.096,0.072-4.35,0.055-6.759C284.553,362.033,284.512,360.069,284.484,358.57z M363.703,355.594
				c-0.108-1.892-0.224-3.188-0.291-5.022c-0.066-1.832-0.089-3.581-0.055-5.246c0.034-1.664,0.11-3.136,0.21-4.416
				c0.084-0.898-0.028-1.602-0.353-2.113c-0.323-0.511-0.931-0.966-1.822-1.367c-1.349-0.573-2.693-1.08-4.041-1.521
				c-1.349-0.439-2.618-0.823-3.813-1.151c-1.022-0.297-1.843-0.425-2.467-0.385c-0.624,0.041-1.162,0.27-1.605,0.686
				c-0.443,0.417-0.842,1.026-1.178,1.83c-0.336,0.805-0.7,1.836-1.067,3.095c-0.405,1.094-0.792,2.257-1.157,3.491
				c-0.367,1.233-0.689,2.47-0.975,3.708c-0.285,1.237-0.541,2.45-0.777,3.636c-0.185,0.924-0.436,2.388-0.557,3.196l9.027,1.035
				c0.04-0.169,0.119-0.605,0.158-0.775c0.392-1.676,0.779-3.226,1.173-4.649c0.04,1.623,0.156,3.302,0.332,5.038
				c0.013,0.124,0.045,0.461,0.058,0.584l9.193,1.094C363.691,356.248,363.708,355.686,363.703,355.594z M319.951,367.482
				c-0.3-0.074-1.203-0.342-1.52-0.423c0.016,0.042,0.283,1.188,0.299,1.229c0.298,0.791,0.613,1.342,0.957,1.652
				c0.344,0.312,0.887,0.565,1.629,0.764c0.719,0.227,1.403,0.362,2.056,0.405c0.651,0.044,1.358,0.065,2.118,0.067
				c0.761,0.001,1.23-0.097,1.408-0.293c0.153-0.169,0.2-1.07,0.138-1.47C324.62,368.948,322.467,368.102,319.951,367.482z
				 M322.926,354.902c-0.027-0.098-0.383-1.287-0.41-1.385c-0.785-2.811-1.478-5.507-2.021-8.091
				c-0.547-2.582-0.895-4.868-1.071-6.858c-0.058-0.812-0.236-1.473-0.548-1.982c-0.313-0.511-0.92-0.929-1.829-1.257
				c-0.668-0.183-1.328-0.378-1.982-0.589c-0.653-0.21-1.361-0.409-2.122-0.594c-0.76-0.186-1.595-0.352-2.504-0.499
				c-0.91-0.146-1.941-0.261-3.096-0.344c-1.328-0.142-2.312,0.019-2.946,0.484c-0.634,0.466-1.126,1.075-1.462,1.831
				c-0.941,2.098-1.804,4.504-2.551,7.22c-0.748,2.718-1.352,5.478-1.881,8.279c-0.195,1.037-0.559,3.055-0.731,4.07l9.354-0.692
				c0.439-1.927,0.964-4.033,1.451-5.854c0.665-2.485,1.345-4.747,2.051-6.788c0.413,2.258,0.964,4.537,1.612,6.839
				c0.524,1.869,1.174,4.073,1.761,5.951l8.749,0.887L322.926,354.902z M292.307,336.289c-0.454-0.776-0.985-1.498-1.598-2.166
				c-0.311-0.376-0.656-0.646-1.046-0.813c-0.389-0.164-1.019-0.257-1.888-0.276c-1.653,0.02-3.521,0.085-5.605,0.195
				c-2.083,0.111-4.207,0.257-6.372,0.438c-2.165,0.183-4.286,0.396-6.363,0.638c-2.077,0.243-3.936,0.521-5.571,0.833
				c-0.524,0.134-0.863,0.307-1.016,0.521c-0.151,0.213-0.032,0.656,0.372,1.328c0.374,0.643,0.864,1.432,1.481,2.366
				s1.281,1.71,1.976,2.328c0.666,0.616,1.242,0.993,1.72,1.131c0.477,0.138,1.055,0.125,1.734-0.036
				c0.486-0.135,1.104-0.247,1.852-0.335s1.521-0.196,2.319-0.326c-0.085,1.95-0.079,4.067,0.01,6.353
				c0.071,1.864,0.198,4.121,0.343,5.959l9.781,0.913c-0.026-1.885-0.061-5.022-0.036-6.927c0.033-2.57,0.121-5.053,0.303-7.446
				c1.363-0.118,2.686-0.229,3.966-0.334c1.28-0.105,2.463-0.204,3.548-0.298c0.867-0.041,1.358-0.181,1.474-0.42
				c0.114-0.239,0.032-0.688-0.236-1.346C293.145,337.825,292.762,337.065,292.307,336.289z M296.126,366.205
				c-0.041,0.599-0.019,1.077,0.071,1.434c0.09,0.357,0.229,0.65,0.42,0.879c0.193,0.229,0.435,0.423,0.729,0.58
				c0.293,0.157,0.637,0.351,1.031,0.579c0.511,0.23,1.01,0.438,1.496,0.624c0.488,0.186,0.934,0.35,1.34,0.493
				c0.713,0.229,1.23,0.302,1.552,0.217c0.32-0.085,0.555-0.369,0.696-0.852c0.234-0.909,0.465-1.839,0.689-2.79
				c0.225-0.942,0.61-2.774,0.912-3.869c-2.706-0.776-5.487-1.305-8.224-2.048C296.611,362.991,296.293,364.944,296.126,366.205z"/>
		</g>
	</g>
	<g id="&#x424;&#x438;&#x433;&#x443;&#x440;&#x430;_378">
		<g>
			<path style="fill-rule:evenodd;clip-rule:evenodd;fill:#517554;" d="M263.627,417.194l16.55,17.629
				c0,0-2.388-15.091-13.801-29.682c-8.072-10.32-18.366-18.188-28.522-23.132c-7.396-3.601-19.55-7.435-30.798-3.095
				c-10.407,4.016-8.906,15.974-8.906,15.974s1.412-6.707,24.952-2.876C241.966,395.082,263.627,417.194,263.627,417.194z
				 M245.478,409.997c-36.81-4.274-30.42,23.387-30.42,23.387s11.775-11.565,31.495-6.927c19.364,4.555,28.228,22.757,28.228,22.757
				l8.994-0.72C283.774,448.494,272.405,413.124,245.478,409.997z M349.476,379.868c-25.813,7.527-37.64,44.881-37.64,44.881
				l0.721,14.031c0,0,12.946-33.745,37.989-46.224c18.757-9.346,38.281-7.382,38.281-7.382S372.097,373.272,349.476,379.868z"/>
		</g>
	</g>
	<g id="&#x417;&#x430;&#x43B;&#x438;&#x432;&#x43A;&#x430;_&#x446;&#x432;&#x435;&#x442;&#x43E;&#x43C;_213">
		<g>
			<path style="fill-rule:evenodd;clip-rule:evenodd;fill:#2B3D2D;" d="M391.173,382.168c-0.449-0.319-11.192-7.83-27.239-7.83
				c-4.886,0-9.793,0.708-14.586,2.106c-26.979,7.865-38.061,43.178-39.578,46.775s-5.188,22.276-5.188,22.276l5.334-2.667l5.8-2.9
				c0.125-0.326,13.067-33.636,36.791-45.457c12.664-6.31,25.733-7.251,32.398-7.251c2.685,0,4.3,0.156,4.313,0.157l10.808,1.086
				L391.173,382.168z M349.939,389.32c-16.939,8.44-28.404,25.833-34.421,37.151l-0.103-1.988c1.46-4.267,13-35.94,35.542-42.514
				c4.271-1.245,8.636-1.876,12.976-1.876c4.796,0,9.079,0.771,12.649,1.795C369.146,382.634,359.457,384.577,349.939,389.32z
				 M284.92,441.123c-0.959-5.139-5.221-25.146-15.6-38.416c-7.795-9.966-18.283-18.472-29.53-23.945
				c-6.831-3.326-20.214-8.164-33.094-3.193c-9.893,3.818-11.342,14.11-10.726,19.018l2.137,17.021l3.466-16.457
				c0.502-0.532,4.386-3.777,21.743-0.958c7.898,1.285,17.016,6.794,24.721,12.523c-0.515-0.082-1.023-0.177-1.55-0.238
				c-14.138-1.641-24.135,1.067-29.629,7.973c-6.359,7.998-4.029,18.479-3.927,18.921l1.155,4.948l3.658-3.535
				c0.075-0.072,7.605-7.208,20.286-7.208c2.787,0,5.661,0.344,8.541,1.022c17.708,4.164,26.184,20.979,26.301,21.218l0.893,2.275
				h14.384l-0.956-5.14C287.078,446.598,286.338,444.362,284.92,441.123z M224.241,388.512c-11.214-1.825-17.985-1.352-22.077-0.094
				c0.764-2.788,2.547-5.912,6.604-7.479c10.849-4.188,22.513,0.081,28.503,2.996c10.476,5.101,20.248,13.026,27.517,22.319
				c3.721,4.758,6.613,10.598,8.809,16.22c-1.162-1.394-2.402-2.76-3.727-4.072c-0.137-0.365-0.342-0.711-0.633-1.008
				C268.207,416.347,243.811,391.695,224.241,388.512z M277.088,445.535c-2.863-4.911-12.169-18.535-29.199-22.541
				c-3.312-0.779-6.629-1.174-9.859-1.174c-8.99,0-15.75,2.998-19.833,5.505c0.114-2.785,0.813-6.33,3.167-9.292
				c4.162-5.232,12.503-7.22,24.46-5.838c18.375,2.134,29.186,21.045,33.579,30.78c0.03,0.167,0.046,0.267,0.048,0.28
				c0.094,0.573,0.355,1.073,0.719,1.473c0.078,0.183,0.157,0.369,0.229,0.542L277.088,445.535z"/>
		</g>
	</g>
</g>
</svg>
