<?xml version="1.0" encoding="iso-8859-1"?>
<!-- Generator: Adobe Illustrator 15.0.0, SVG Export Plug-In . SVG Version: 6.00 Build 0)  -->
<!DOCTYPE svg PUBLIC "-//W3C//DTD SVG 1.1//EN" "http://www.w3.org/Graphics/SVG/1.1/DTD/svg11.dtd" [
	<!ENTITY ns_extend "http://ns.adobe.com/Extensibility/1.0/">
	<!ENTITY ns_ai "http://ns.adobe.com/AdobeIllustrator/10.0/">
	<!ENTITY ns_graphs "http://ns.adobe.com/Graphs/1.0/">
	<!ENTITY ns_vars "http://ns.adobe.com/Variables/1.0/">
	<!ENTITY ns_imrep "http://ns.adobe.com/ImageReplacement/1.0/">
	<!ENTITY ns_sfw "http://ns.adobe.com/SaveForWeb/1.0/">
	<!ENTITY ns_custom "http://ns.adobe.com/GenericCustomNamespace/1.0/">
	<!ENTITY ns_adobe_xpath "http://ns.adobe.com/XPath/1.0/">
]>
<svg version="1.1" xmlns:x="&ns_extend;" xmlns:i="&ns_ai;" xmlns:graph="&ns_graphs;"
	 xmlns="http://www.w3.org/2000/svg" xmlns:xlink="http://www.w3.org/1999/xlink" x="0px" y="0px" width="512px" height="512px"
	 viewBox="0 0 512 512" style="enable-background:new 0 0 512 512;" xml:space="preserve">
<metadata>
	<sfw  xmlns="&ns_sfw;">
		<slices></slices>
		<sliceSourceBounds  height="512" width="512" x="94" y="94" bottomLeftOrigin="true"></sliceSourceBounds>
	</sfw>
</metadata>
<g id="&#x418;&#x437;&#x43E;&#x431;&#x440;&#x430;&#x436;&#x435;&#x43D;&#x438;&#x435;_xA0_17_1_">
	<g id="&#x417;&#x430;&#x43B;&#x438;&#x432;&#x43A;&#x430;_&#x446;&#x432;&#x435;&#x442;&#x43E;&#x43C;_1">
		<g>
			<rect x="3.699" y="4.439" style="fill-rule:evenodd;clip-rule:evenodd;fill:#B17D7B;" width="503.121" height="503.121"/>
		</g>
	</g>
	<g id="&#x417;&#x430;&#x43B;&#x438;&#x432;&#x43A;&#x430;_&#x446;&#x432;&#x435;&#x442;&#x43E;&#x43C;_5">
		<g>
			<path style="fill-rule:evenodd;clip-rule:evenodd;fill:#F3D4C3;" d="M484.624,25.156l20.717-20.717H3.699l20.717,20.717H484.624z
				 M24.416,486.844L3.699,507.561h501.642l-20.717-20.717H24.416z"/>
		</g>
	</g>
	
		<g id="&#x417;&#x430;&#x43B;&#x438;&#x432;&#x43A;&#x430;_&#x446;&#x432;&#x435;&#x442;&#x43E;&#x43C;_1_&#x43A;&#x43E;&#x43F;&#x438;&#x44F;_2">
		<g>
			<radialGradient id="SVGID_1_" cx="256.7402" cy="256" r="228.0762" gradientUnits="userSpaceOnUse">
				<stop  offset="0" style="stop-color:#7D7193"/>
				<stop  offset="0.2" style="stop-color:#7C7193"/>
				<stop  offset="0.4" style="stop-color:#6C6382"/>
				<stop  offset="0.5939" style="stop-color:#554E6B"/>
				<stop  offset="0.7515" style="stop-color:#3E3A53"/>
				<stop  offset="0.897" style="stop-color:#29273A"/>
				<stop  offset="1" style="stop-color:#232132"/>
			</radialGradient>
			<polygon style="fill-rule:evenodd;clip-rule:evenodd;fill:url(#SVGID_1_);" points="432.765,27.924 78.856,27.924 28.664,78.116 
				28.664,435.769 76.972,484.076 433.367,484.076 484.816,432.627 484.816,79.976 			"/>
		</g>
	</g>
	
		<g id="&#x417;&#x430;&#x43B;&#x438;&#x432;&#x43A;&#x430;_&#x446;&#x432;&#x435;&#x442;&#x43E;&#x43C;_1_&#x43A;&#x43E;&#x43F;&#x438;&#x44F;">
		<g>
			<path style="fill-rule:evenodd;clip-rule:evenodd;fill:#F2D2C0;" d="M25.109,24.37v463.26h463.26V24.37H25.109z M466.659,418.566
				l-47.353,47.353H91.283l-44.462-44.462V92.277l46.196-46.196h325.734l47.908,47.907V418.566z"/>
		</g>
	</g>
	<g id="&#x424;&#x438;&#x433;&#x443;&#x440;&#x430;_3">
		<g>
			<path style="fill-rule:evenodd;clip-rule:evenodd;fill:#A18180;" d="M429.873,25.156l-344.047-1.48l-62.15,62.891v342.566
				l59.931,59.19l344.046-0.739l59.931-59.191V84.347L429.873,25.156z M477.226,423.954l-56.231,54.751H91.006l-56.231-54.751
				V88.046l54.012-54.012h334.428l54.751,56.231L477.226,423.954z"/>
		</g>
	</g>
	<g id="&#x417;&#x430;&#x43B;&#x438;&#x432;&#x43A;&#x430;_&#x446;&#x432;&#x435;&#x442;&#x43E;&#x43C;_6">
		<g>
			<path style="fill-rule:evenodd;clip-rule:evenodd;fill:#C7907F;" d="M23.676,86.566l62.52-62.752l-62.52-0.139V86.566z
				 M487.584,23.63l-62.521,0.139l62.521,62.752V23.63z M22.196,488.37l62.521-0.139l-62.521-62.752V488.37z M425.803,488.971
				l62.521,0.139v-62.89L425.803,488.971z"/>
		</g>
	</g>
	
		<g id="&#x417;&#x430;&#x43B;&#x438;&#x432;&#x43A;&#x430;_&#x446;&#x432;&#x435;&#x442;&#x43E;&#x43C;_6_&#x43A;&#x43E;&#x43F;&#x438;&#x44F;">
		<g>
			<path style="fill-rule:evenodd;clip-rule:evenodd;fill:#FDECE7;" d="M54.694,55.434l31.502-31.619l-59.314,3.562L54.694,55.434z
				 M27.964,485.886l56.753,2.346L55.27,458.579L27.964,485.886z M425.803,488.971l59.314-3.113l-28.158-28.158L425.803,488.971z
				 M485.117,26.582l-60.054-2.813l31.376,31.491L485.117,26.582z"/>
		</g>
	</g>
	<g id="&#x424;&#x438;&#x433;&#x443;&#x440;&#x430;_1">
		<g>
			<path style="fill-rule:evenodd;clip-rule:evenodd;fill:#C7907F;" d="M34.774,487.769l0.093-9.156h-8.417L34.774,487.769z
				 M477.04,477.873l0.093,9.155l8.323-9.155H477.04z M476.393,25.804l-0.092,9.156h8.416L476.393,25.804z M26.451,34.96h8.417
				l-0.093-9.156L26.451,34.96z"/>
		</g>
	</g>
	<g id="&#x424;&#x438;&#x433;&#x443;&#x440;&#x430;_2">
		<g>
			<path style="fill-rule:evenodd;clip-rule:evenodd;fill:#FDECE7;" d="M22.597,480.813L9.026,497.72l-1.627,10.285l22.418-0.296
				l0.532-18.644l-3.492-6.957L22.597,480.813z M508.448,495.817l-18.855-14.581l-4.261,4.043l-3.068,4.209l2.646,16.529
				l23.688,1.353L508.448,495.817z M21.002,31.648l4.26-1.295l3.492-6.956L28.222,4.754L5.803,4.458l1.628,10.284L21.002,31.648z
				 M487.997,31.226l18.856-14.581l0.147-11.553l-23.687,1.353l-2.646,16.53l3.069,4.208L487.997,31.226z"/>
		</g>
	</g>
	<g id="&#x417;&#x430;&#x43B;&#x438;&#x432;&#x43A;&#x430;_&#x446;&#x432;&#x435;&#x442;&#x43E;&#x43C;_2">
		<g>
			<path style="fill-rule:evenodd;clip-rule:evenodd;fill:#2F181B;" d="M0,0v512h512V0H0z M503.121,503.121H8.878V8.879h494.243
				V503.121z"/>
		</g>
	</g>
	<g id="&#x417;&#x430;&#x43B;&#x438;&#x432;&#x43A;&#x430;_&#x446;&#x432;&#x435;&#x442;&#x43E;&#x43C;_3">
		<g>
			<path style="fill-rule:evenodd;clip-rule:evenodd;fill:#40292E;" d="M482.33,20.67H29.346l-9.369,9.369v397.468
				c-0.119,0.585-0.119,1.188,0,1.771v53.925l9.606,9.605h453.025l9.507-9.507V30.455L482.33,20.67z M28.855,34.183l4.633-4.634
				h40.974L28.855,75.156V34.183z M33.726,483.931l-4.871-4.871v-39.857l44.728,44.729H33.726z M483.237,479.158l-4.772,4.772
				H437.63l45.607-45.607V479.158z M483.237,425.769l-58.162,58.162H86.139l-57.283-57.283V87.711l58.162-58.162h338.058
				l58.162,58.162V425.769z M483.237,75.156L437.63,29.549h40.558l5.05,5.05V75.156z"/>
		</g>
	</g>
	
		<g id="&#x417;&#x430;&#x43B;&#x438;&#x432;&#x43A;&#x430;_&#x446;&#x432;&#x435;&#x442;&#x43E;&#x43C;_4_&#x43A;&#x43E;&#x43F;&#x438;&#x44F;" style="opacity:0.502;">
		<g>
			<path style="fill-rule:evenodd;clip-rule:evenodd;fill:#876867;" d="M465.59,92.913l-47.243-47.244
				c-0.685-0.685-1.612-1.068-2.579-1.068H94.545c-0.968,0-1.896,0.384-2.58,1.068L46.409,91.227
				c-0.684,0.684-1.069,1.611-1.069,2.579v324.619c0,0.968,0.385,1.896,1.069,2.579l43.847,43.847
				c0.684,0.684,1.612,1.068,2.579,1.068h323.479c0.968,0,1.896-0.385,2.579-1.068l46.696-46.696
				c0.685-0.685,1.069-1.612,1.069-2.58V95.493C466.659,94.525,466.274,93.598,465.59,92.913z M459.363,414.063l-44.56,44.56H94.346
				l-41.709-41.709V95.316l43.419-43.419h318.201l45.106,45.106V414.063z"/>
		</g>
	</g>
	<g id="&#x417;&#x430;&#x43B;&#x438;&#x432;&#x43A;&#x430;_&#x446;&#x432;&#x435;&#x442;&#x43E;&#x43C;_4">
		<g>
			<path style="fill-rule:evenodd;clip-rule:evenodd;fill:#40292E;" d="M468.534,90.633l-47.907-47.907
				c-0.693-0.694-1.635-1.084-2.615-1.084H92.277c-0.981,0-1.922,0.39-2.616,1.084L43.465,88.922
				c-0.693,0.693-1.083,1.635-1.083,2.615v329.18c0,0.981,0.39,1.922,1.083,2.615l44.463,44.463
				c0.694,0.693,1.634,1.084,2.615,1.084h328.023c0.981,0,1.922-0.391,2.615-1.084l47.353-47.353
				c0.694-0.694,1.084-1.635,1.084-2.616V93.248C469.618,92.268,469.229,91.326,468.534,90.633z M462.22,416.295l-45.186,45.185
				H92.075L49.78,419.185V93.07l44.029-44.03h322.67l45.74,45.741V416.295z"/>
		</g>
	</g>
</g>
<g id="&#x418;&#x437;&#x43E;&#x431;&#x440;&#x430;&#x436;&#x435;&#x43D;&#x438;&#x435;_xA0_1098_1_">
	<g id="&#x424;&#x438;&#x433;&#x443;&#x440;&#x430;_433_&#x43A;&#x43E;&#x43F;&#x438;&#x44F;" style="opacity:0.502;">
		<g>
			<path style="fill-rule:evenodd;clip-rule:evenodd;fill:#191825;" d="M181.471,412.822c-9.84-9.841-98.403-213.458-98.403-213.458
				s-1.11-17.679,6.187-30.963c7.462-13.584,23.334-22.78,23.334-22.78l7.449-13.221l68.245-12.516c0,0-65.097-3.027-70.396-0.757
				c-5.298,2.271-28.764,16.652-33.306,25.736c-4.542,9.083-24.979,91.59-23.465,99.159c1.514,7.569,86.184,157.167,93.104,168.042
				c10.597,16.652,52.229,10.597,52.229,10.597S192.565,423.917,181.471,412.822z M432.775,318.961l-15.896,21.194l14.382,34.063
				l-85.787,22.456c0,0,78.674-0.972,103.888-9.531c4.317-1.466,6.578-5.603,7.131-7.374
				C459.429,370.377,432.775,318.961,432.775,318.961z"/>
		</g>
	</g>
	<g id="&#x424;&#x438;&#x433;&#x443;&#x440;&#x430;_412">
		<g>
			<path style="fill-rule:evenodd;clip-rule:evenodd;fill:#A55E3A;" d="M431.767,322.241l8.736-2.523l4.51-7.223
				c0,0-73.908-113.22-111.58-173.983c-12.696-20.48-16.892-27.998-19.414-29.512c-2.523-1.515-14.556,0.816-33.673,3.06
				c-94.885,11.136-155.614,19.432-158.138,21.955c-2.523,2.522-4.384,14.003-4.384,14.003l-7.614,3.881
				c0,0-8.677,4.838-17.997,19.357c-8.382,13.058-7.253,32.177-7.253,32.177l66.26,144.464c-0.007,0.021-0.027,0.081-0.027,0.081
				l0.044-0.044l10.545,22.99c0.004,0.161,0.009,0.267,0.009,0.267l0.077-0.081l18.09,39.441c0,0,5.092,7.161,12.884,10.194
				c6.465,2.517,15.88,1.003,15.88,1.003l14.129-1.609c0,0,114.921-18.747,177.117-31.83c21.027-4.424,37.455-6.098,38.99-9.297
				c1.881-3.919-3.947-13.062-6.93-19.28c-3.625-7.561-10.858-18.819-10.858-18.819s0.192-0.839,0.686-2.34
				c1.281-3.055,2.343-5.229,2.343-5.229l-0.405,0.15c0.287-0.667,0.602-1.373,0.947-2.116
				C426.959,326.605,431.767,322.241,431.767,322.241z"/>
		</g>
	</g>
	<g id="&#x424;&#x438;&#x433;&#x443;&#x440;&#x430;_415">
		<g>
			<path style="fill-rule:evenodd;clip-rule:evenodd;fill:#DBB995;" d="M430.253,322.241l-214.468,37.343
				c0,0-10.104,0.505-18.465,7.318c-4.926,4.015-9.576,12.855-10.309,17.983c-0.81,5.669,1.882,16.883,6.756,21.955
				c5.966,6.208,14.449,5.729,14.449,5.729l211.439-41.885c0,0-4.263-14.272-1.979-26.454
				C419.935,332.192,430.253,322.241,430.253,322.241z"/>
		</g>
	</g>
	<g id="&#x424;&#x438;&#x433;&#x443;&#x440;&#x430;_416">
		<g>
			<path style="fill-rule:evenodd;clip-rule:evenodd;fill:#A96F57;" d="M416.88,346.211l-216.107,38.226l0.378,6.435l215.305-38.801
				L416.88,346.211z M200.772,397.305v6.813l217.125-39.114l-1.774-5.545L200.772,397.305z M200.772,371.947l0.183,6.972
				l217.061-38.385l0.757-6.813L200.772,371.947z"/>
		</g>
	</g>
	<g id="&#x424;&#x438;&#x433;&#x443;&#x440;&#x430;_415_&#x43A;&#x43E;&#x43F;&#x438;&#x44F;_2">
		<g>
			<path style="fill-rule:evenodd;clip-rule:evenodd;fill:#A96F57;" d="M215.785,359.584c0,0-10.104,0.505-18.465,7.318
				c-4.926,4.015-9.576,12.855-10.309,17.983c-0.81,5.669,1.882,16.883,6.756,21.955c5.966,6.208,14.449,5.729,14.449,5.729
				l42.356-8.034l12.27-17.828l20.689-2.776l14.004-16.4l29.646-4.92l16.779-15.265l77.077-12.483
				c3.841-7.419,9.215-12.622,9.215-12.622L215.785,359.584z"/>
		</g>
	</g>
	<g id="&#x424;&#x438;&#x433;&#x443;&#x440;&#x430;_415_&#x43A;&#x43E;&#x43F;&#x438;&#x44F;">
		<g>
			<path style="fill-rule:evenodd;clip-rule:evenodd;fill:#7F5544;" d="M215.785,359.584c0,0-10.104,0.505-18.465,7.318
				c-4.926,4.015-9.576,12.855-10.309,17.983c-0.81,5.669,1.882,16.883,6.756,21.955c5.966,6.208,14.449,5.729,14.449,5.729
				l10.942-2.356l11.892-18.208l15.77-2.396l9.84-15.266l24.727-4.541l17.536-14.509l63.831-10.969l9.593-11.865L215.785,359.584z"
				/>
		</g>
	</g>
	<g id="&#x417;&#x430;&#x43B;&#x438;&#x432;&#x43A;&#x430;_&#x446;&#x432;&#x435;&#x442;&#x43E;&#x43C;_227">
		<g>
			<path style="fill-rule:evenodd;clip-rule:evenodd;fill:#482821;" d="M423.811,333.178c-0.224-1.233-1.413-2.046-2.639-1.832
				l-217.597,39.258v-6.366c0-1.253-1.017-2.271-2.271-2.271c-1.255,0-2.271,1.018-2.271,2.271v46.553
				c0,1.253,1.016,2.271,2.271,2.271c1.254,0,2.271-1.018,2.271-2.271v-10.9l213.858-38.337c1.235-0.222,2.057-1.401,1.835-2.636
				c-0.22-1.234-1.401-2.051-2.636-1.835l-213.058,38.193v-8.633l214.996-38.715c1.234-0.223,2.055-1.402,1.833-2.638
				c-0.224-1.235-1.41-2.041-2.638-1.833l-214.191,38.569v-6.807l218.403-39.403C423.213,335.594,424.032,334.412,423.811,333.178z"
				/>
		</g>
	</g>
	<g id="&#x424;&#x438;&#x433;&#x443;&#x440;&#x430;_417">
		<g>
			<path style="fill-rule:evenodd;clip-rule:evenodd;fill:#3B1918;" d="M219.822,409.542c0,0-11.805,4.032-22.408-0.609
				c-6.744-2.951-10.206-13.083-10.296-20.093c-0.068-5.236,1.796-15.376,9.867-21.831c9.557-7.643,21.323-7.93,21.323-7.93
				L116.374,147.135c0,0-19.172,5.359-28.278,24.999c-5.811,12.534-5.532,28.996-5.532,28.996l87.301,195.797
				c0,0,6.828,16.909,17.872,21.721c14.07,6.129,33.095,0.482,33.095,0.482L219.822,409.542z"/>
		</g>
	</g>
	<g id="&#x424;&#x438;&#x433;&#x443;&#x440;&#x430;_417_&#x43A;&#x43E;&#x43F;&#x438;&#x44F;">
		<g>
			<path style="fill-rule:evenodd;clip-rule:evenodd;fill:#230D11;" d="M219.822,409.542c0,0-11.805,4.032-22.408-0.609
				c-6.744-2.951-10.206-13.083-10.296-20.093c-0.017-1.275,0.084-2.845,0.359-4.578L87.586,173.329
				c-5.267,12.361-5.022,27.801-5.022,27.801l87.301,195.797c0,0,6.828,16.909,17.872,21.721c14.07,6.129,33.095,0.482,33.095,0.482
				L219.822,409.542z"/>
		</g>
	</g>
	<g id="&#x424;&#x438;&#x433;&#x443;&#x440;&#x430;_418">
		<g>
			<path style="fill-rule:evenodd;clip-rule:evenodd;fill:#7D3A27;" d="M124.447,181.954l8.074-0.505l-9.083-18.166l-7.569,0.505
				c0,0-12.679,6.478-20.018,18.342c-7.787,12.589-7.484,33.13-7.484,33.13l12.868,26.241c0,0,1.102-22.641,7.506-37.148
				C114.683,190.893,124.447,181.954,124.447,181.954z M183.489,305.084h9.083l-5.046-10.598l-8.074,1.01
				c0,0-15.004,5.978-23.829,16.848c-8.582,10.572-12,24.531-12,24.531l5.551,13.625c0,0,4.152-17.415,13.094-28.948
				C170.723,310.646,183.489,305.084,183.489,305.084z M160.276,257.144h8.579l-14.13-28.764l-8.074,1.515
				c0,0-14.407,5.766-21.799,17.669c-7.494,12.065-7.974,30.271-7.974,30.271l14.13,28.764c0,0,0.147-21.039,7.916-32.567
				C146.798,262.347,160.276,257.144,160.276,257.144z M201.151,342.931l9.083-1.514l-7.065-14.634h-9.083
				c0,0-17.97,2.66-26.926,15.305c-8.164,11.526-7.389,33.14-7.389,33.14l8.074,13.625c0,0,1.606-17.449,10.759-29.652
				C186.81,348.26,201.151,342.931,201.151,342.931z M219.822,410.047c0,0-13.889,4.274-23.249-0.945
				c-6.931-3.865-9-15.852-9.264-21.272c-0.249-5.12,2.819-14.694,8.532-19.559c9.056-7.711,22.466-9.696,22.466-9.696
				l-6.561-11.606c0,0-15.53,1.903-25.917,13.463c-7.638,8.501-10.873,19.645-11.356,33.018
				c-0.354,9.806,7.571,21.182,16.387,25.557c12.986,6.443,29.969,0.125,29.969,0.125L219.822,410.047z"/>
		</g>
	</g>
	<g id="&#x424;&#x438;&#x433;&#x443;&#x440;&#x430;_419">
		<g>
			<path style="fill-rule:evenodd;clip-rule:evenodd;fill:#BF733C;" d="M105.484,171.05l9.972,21.522
				c1.462-2.084,2.887-3.904,4.162-5.422l-9.235-19.933C108.896,168.266,107.224,169.54,105.484,171.05z M135.685,236.229
				l12.872,27.779c1.777-1.363,3.503-2.515,5.071-3.46L140.8,232.865C139.245,233.774,137.493,234.896,135.685,236.229z
				 M185.413,329.148c-1.743,0.639-3.629,1.435-5.553,2.418l8.507,18.36c1.784-1.271,3.538-2.365,5.15-3.287L185.413,329.148z
				 M166.455,302.638l4.683,10.107c1.747-1.378,3.453-2.574,5.015-3.582l-4.527-9.771
				C170.012,300.316,168.254,301.4,166.455,302.638z"/>
		</g>
	</g>
	<g id="&#x424;&#x438;&#x433;&#x443;&#x440;&#x430;_420">
		<g>
			<path style="fill-rule:evenodd;clip-rule:evenodd;fill:#54261D;" d="M89.135,203.859l12.907,28.699
				c0.378-3.211,0.923-7.011,1.692-11.001l-12.589-27.991C90.182,197.12,89.545,200.675,89.135,203.859z M117.943,267.916
				l13.643,30.334c0.352-3.148,0.926-6.868,1.847-10.657l-13.227-29.41C119.158,261.585,118.436,264.946,117.943,267.916z
				 M162.522,352.275c-1,3.428-1.639,6.961-2.05,10.205l8.601,19.125c0.578-2.619,1.412-5.73,2.586-9.014L162.522,352.275z
				 M145.858,329.986l5.69,12.652c0.814-2.352,1.851-5.057,3.1-7.872l-5.507-12.246
				C147.778,325.212,146.694,327.778,145.858,329.986z"/>
		</g>
	</g>
	<g id="&#x424;&#x438;&#x433;&#x443;&#x440;&#x430;_421">
		<g>
			<path style="fill-rule:evenodd;clip-rule:evenodd;fill:#4E1F1D;" d="M219.822,410.552l-10.597,2.019
				c0,0-9.441,0.235-15.394-5.276c-5.67-5.252-7.887-16.093-6.782-22.646c1.338-7.935,5.801-14.21,11.105-18.269
				c9.092-6.955,20.153-7.301,20.153-7.301l-7.065-12.111c0,0-13.529,1.162-24.055,11.776c-8.762,8.835-14.978,26.39-13.888,35.166
				c0.933,7.517,8.274,20.958,18.487,25.183c13.066,5.404,28.54,1.047,28.54,1.047L219.822,410.552z"/>
		</g>
	</g>
	<g id="&#x424;&#x438;&#x433;&#x443;&#x440;&#x430;_422">
		<g>
			<path style="fill-rule:evenodd;clip-rule:evenodd;fill:#743223;" d="M421.422,340.912c0,0-4.066,3.364-4.387,9.772
				c-0.423,8.446,2.873,20.506,2.873,20.506l-199.833,38.604v9.084c0,0,215.729-34.819,217.243-41.632
				S421.422,340.912,421.422,340.912z"/>
		</g>
	</g>
	<g id="&#x424;&#x438;&#x433;&#x443;&#x440;&#x430;_423">
		<g>
			<path style="fill-rule:evenodd;clip-rule:evenodd;fill:#D5844E;" d="M313.179,107.773l-192.264,24.728l-5.046,16.147
				l12.616,26.746l90.329,183.685l215.981-37.343l7.065-12.615L313.179,107.773z M395.434,309.625l-141.296,24.728l-10.597-19.176
				l-15.139,1.514l-77.713-157.949l18.167-1.514l-9.083-20.689L283.91,119.38l10.598,18.167l22.203-2.019l90.833,147.352
				l-24.222,4.542L395.434,309.625z"/>
		</g>
	</g>
	<g id="&#x424;&#x438;&#x433;&#x443;&#x440;&#x430;_423_&#x43A;&#x43E;&#x43F;&#x438;&#x44F;">
		<g>
			<polygon style="fill-rule:evenodd;clip-rule:evenodd;fill:#7D3A27;" points="398.461,318.204 254.137,341.922 223.859,347.473 
				211.244,318.204 134.54,162.273 120.764,133.69 115.869,148.648 128.484,175.395 218.813,359.079 434.794,321.736 
				439.128,312.234 			"/>
		</g>
	</g>
	<g id="&#x424;&#x438;&#x433;&#x443;&#x440;&#x430;_425">
		<g>
			<path style="fill-rule:evenodd;clip-rule:evenodd;fill:#F6A858;" d="M216.974,321.727l36.297,18.139l-8.722-25.193
				L216.974,321.727z M125.952,136.286l39.264,18.54l-10.491-29.391L125.952,136.286z M285.234,115.022l37.98,16.273l-10.541-25.036
				L285.234,115.022z M423.188,280.357l-36.104,9.191l50.224,20.051L423.188,280.357z"/>
		</g>
	</g>
	<g id="&#x424;&#x438;&#x433;&#x443;&#x440;&#x430;_422_&#x43A;&#x43E;&#x43F;&#x438;&#x44F;">
		<g>
			<path style="fill-rule:evenodd;clip-rule:evenodd;fill:#9C5836;" d="M220.075,409.794v9.084c0,0,63.457-10.243,121.781-20.704
				l2.185-12.327L220.075,409.794z"/>
		</g>
	</g>
	<g id="&#x424;&#x438;&#x433;&#x443;&#x440;&#x430;_422_&#x43A;&#x43E;&#x43F;&#x438;&#x44F;_2">
		<g>
			<path style="fill-rule:evenodd;clip-rule:evenodd;fill:#C78040;" d="M260.221,402.039l-5.082,11.069
				c17.259-2.876,39.191-6.58,61.812-10.53l5.798-12.618L260.221,402.039z"/>
		</g>
	</g>
	<g id="&#x424;&#x438;&#x433;&#x443;&#x440;&#x430;_424">
		<g>
			<polygon style="fill-rule:evenodd;clip-rule:evenodd;fill:#703526;" points="389.378,301.047 248.082,324.26 253.632,334.353 
				394.929,310.13 			"/>
		</g>
	</g>
	<g id="&#x424;&#x438;&#x433;&#x443;&#x440;&#x430;_435">
		<g>
			<path style="fill-rule:evenodd;clip-rule:evenodd;fill:#854931;" d="M254.137,201.635l-44.66-71.909l-15.139,3.027
				c0,0,16.009,22.619,33.555,42.829C238.29,187.558,254.137,201.635,254.137,201.635z M168.603,154.704l-17.41,5.299l28.764,56.771
				l28.007,30.278L168.603,154.704z M368.436,219.045l-52.986-83.265h-21.193l-10.598-16.652l-6.813,3.785l6.713,15.263
				L368.436,219.045z M380.166,287.584l14.153-2.746c0,0-33.757-45.926-47.4-61.73c-15.021-17.399-42.066-24.5-42.066-24.5
				s6.519,4.57,16.316,14.542c-5.846-5.154-11.019-7.729-11.019-7.729s11.988,27.787,20.896,54.901
				c9.092,27.673,17.708,46.528,17.708,46.528l-7.569-69.639c0,0-2.955-4.352-7.092-9.677c2.088,2.525,4.229,5.201,6.424,8.087
				C363.756,266.167,380.166,287.584,380.166,287.584z M180.713,219.802l47.688,94.618l16.653-0.758l-15.139-16.652L180.713,219.802
				z M245.054,124.427l-18.167,3.784c0,0,12.563,39.689,33.447,81.027c25.494,50.464,47.547,104.424,47.547,104.424
				s-8.873-48.801-39.003-109.879C249.576,164.655,245.054,124.427,245.054,124.427z M230.672,218.287
				c-7.569-15.896-55.257-83.264-55.257-83.264l-9.083,1.515c0,0,9.185,19.998,22.434,42.866
				c10.765,18.58,24.471,37.768,36.046,60.007c21.924,42.121,37.651,81.821,37.651,81.821s0.463-18.218-5.655-39.803
				C249.421,255.372,238.241,234.184,230.672,218.287z"/>
		</g>
	</g>
	<g id="&#x424;&#x438;&#x433;&#x443;&#x440;&#x430;_434">
		<g>
			<path style="fill-rule:evenodd;clip-rule:evenodd;fill:#CD8857;" d="M181.471,166.815c0,0,25.367,43.557,39.738,68.998
				c13.615,24.103,32.171,62.71,32.171,62.71s-9.476-39.196-23.486-63.999C215.897,209.747,181.471,166.815,181.471,166.815z
				 M151.193,160.003l31.035,62.826l-20.438-63.583L151.193,160.003z M222.078,179.47c13.925,15.473,25.247,22.922,29.032,27.464
				c3.785,4.541,22.709,32.549,22.709,32.549l-17.41-36.334c0,0-14.357-12.274-28.431-28.213
				c-14.217-16.102-28.627-35.19-33.029-41.097l28.154,1.941l20.169,34.961c0.528,1.234,1.061,2.474,1.601,3.722
				c10.342,23.88,22.889,49.88,22.889,49.88l-32.548-89.319l42.25-7.161c4.673,14.067,16.004,47.623,23.5,65.168
				c2.822,6.605,8.432,10.118,8.432,10.118s6.689,3.719,13.807,11.954c15.652,18.112,57.346,72.824,57.346,72.824
				s-13.407-25.969-33.364-52.37c-15.915-21.055-34.761-34.679-38.546-42.248c-3.784-7.569-27.25-73.424-27.25-73.424l-6.055,1.514
				c0,0,0.057,0.176,0.152,0.468l-49.354,6.345c0,0,0.031,0.084,0.089,0.237l-32.638,3.548l-27.25,4.542c0,0,19.681,0,24.222,3.027
				C195.096,142.593,205.568,161.126,222.078,179.47z M315.449,135.023l-6.055,0.757l91.59,147.604h6.056L315.449,135.023z
				 M350,307.5l36.75-6.021C366.313,294.666,350,307.5,350,307.5z M278.359,248.565c0,0,18.924,57.527,18.166,59.799
				c-0.695,2.086-31.389,6.724-36.385,7.465l-10.545-21.09c0,0-12.937-16.923-26.938-32.025
				c-18.928-20.417-40.43-40.642-40.43-40.642l59.798,75.694l18.734,20.816l0.947,1.892l0.666-0.1l0.09,0.1l3.064,0.919
				l41.057-6.644c0,0-6.466-18.653-13.926-35.536C285.758,263.597,278.359,248.565,278.359,248.565z M312.422,210.718
				c0,0,4.875,29.225,12.303,56.303c3.916,14.27,13.46,34.504,12.676,35.288c-2.271,2.271-32.548,4.541-32.548,4.541l3.708,7.475
				l40.951-6.717c0,0-11.102-18.458-19.301-46.32C322.961,236.646,312.422,210.718,312.422,210.718z"/>
		</g>
	</g>
	
		<g id="&#x417;&#x430;&#x43B;&#x438;&#x432;&#x43A;&#x430;_&#x446;&#x432;&#x435;&#x442;&#x43E;&#x43C;_224_&#x43A;&#x43E;&#x43F;&#x438;&#x44F;">
		<g>
			<path style="fill-rule:evenodd;clip-rule:evenodd;fill:#562619;" d="M243.433,272.132c-1.858-3.89-3.796-7.741-5.767-11.575
				c-1.952-3.842-3.966-7.655-6.01-11.451c-4.106-7.631-8.491-15.079-12.992-22.436c-8.995-14.718-18.543-29.033-27.283-43.802
				c-23.376-39.581-18.865-47.409-18.865-47.409l-10.183,1.041c0,0,16.517,32.058,24.512,46.686
				c8.374,15.092,18.738,29.637,27.311,44.509c4.294,7.429,9.95,15.691,13.735,23.353l11.306,23.142
				c1.75,3.539,3.482,7.091,5.227,10.635c-2.015-2.171-4.346-4.776-5.675-6.581c-5.358-7.299-11.688-13.825-18.055-20.255
				c-6.472-6.337-12.895-12.52-19.239-18.905c-6.186-6.087-23.728-25.715-23.728-25.715l4.361,10.012
				c0,0,13.188,12.156,17.72,17.268c5.997,6.68,12.201,13.288,18.25,19.842c5.997,6.614,11.328,13.787,17.13,20.573
				c5.172,6.108,10.982,12.459,16.483,18.562c3.359,6.912,6.719,15.456,9.998,22.404c0.252,6.063-1.617,11.303-1.617,11.303
				l6.617-0.263l1.655-7.327c0,0-3.538-5.483-3.569-5.572C264.754,320.168,258.859,304.696,243.433,272.132z M345.09,245.386
				c5.759,7.817,11.221,15.862,17.411,23.346c6.16,7.508,19.365,21.844,19.365,21.844s-3.766-7.902-15.781-24.598
				c-5.645-7.905-12.016-15.252-18.089-22.826l-17.818-24.198c-3.215-3.729-7.256-5.636-11.002-8.778
				c-2.223-1.857-5.992-4.477-8.703-6.309c-0.184-0.251-0.355-0.517-0.542-0.764c-2.563-3.368-5.253-6.373-7.114-9.86
				c-0.475-0.873-0.895-1.745-1.28-2.657l-1.144-2.854l-2.263-5.759l-4.481-11.539c-5.963-15.392-16.56-49.179-16.56-49.179
				l-3.583,0.439c0,0,7.064,26.699,14.348,47.587l6.684,13.568l0.354,5.067l0.325,4.689c0.392,1.001,1.599,3.518,2.086,4.47
				c3.964,3.373,7.762,4.623,10.098,7.886c1.171,1.64,2.237,3.308,3.127,5.061c0.907,1.742,1.571,3.573,2.304,5.536
				c5.793,15.417,10.732,31.166,16.199,46.745c2.779,7.775,5.629,15.534,8.693,23.232c1.513,3.849,3.148,7.705,4.957,11.461
				c0.892,1.886,1.865,3.737,2.876,5.567c1.024,1.841,2.066,3.611,3.372,5.371l-1.715,10.168l4.296-0.656l-1.168-10.499
				c-1.903-3.48-3.496-7.326-4.969-11.118c-1.479-3.82-2.786-7.682-4.095-11.592c-2.594-7.816-5.145-15.664-7.802-23.481
				c-5.397-15.607-11.272-31.074-17.414-46.455c-0.608-1.511-1.28-3.107-2.051-4.664c3.022,3.26,7.349,7.77,13.618,14.055
				L345.09,245.386z M309.315,313.734c-6.077-15.799-10.786-31.364-17.676-46.804c-1.731-3.854-5.423-7.685-7.231-11.498
				l-5.421-11.445l-8.193-24.824c-3.625-7.623-10.202-13.365-14.267-20.691c-3.807-7.459-6.446-15.591-9.891-23.289
				c-6.847-15.437-18.185-47.223-18.185-47.223l-5.04,0.899l9.897,34.293c0,0,16.117,26.616,19.155,33.224
				c-0.619-0.661-1.244-1.283-1.87-1.819c-2.657-3.096-6.137-4.857-8.888-7.853c-5.478-6.006-11.556-11.443-17.198-17.295
				c-5.646-5.799-8.746-11.642-13.933-17.897c-4.398-5.24-13.531-19.708-13.531-19.708l-5.319,0.288c0,0,8.197,11.351,14.834,20.531
				c4.853,6.581,9.943,13.002,15.342,19.189c5.426,6.111,10.603,12.464,16.534,18.098c2.955,2.824,5.976,5.581,9.106,8.223
				c1.809,1.534,5.132,5.927,8.889,9.359c2.453,4.962,6.313,9.94,8.572,15.021c6.886,15.383,13.338,31.069,20.462,46.376
				c15.315,32.699,19.511,44.776,19.511,44.776c0.009,3.513,1.191,11.171,1.191,11.171l6.383-0.456c0,0-2.188-7.896-3.2-10.555
				L309.315,313.734z"/>
		</g>
	</g>
	<g id="&#x417;&#x430;&#x43B;&#x438;&#x432;&#x43A;&#x430;_&#x446;&#x432;&#x435;&#x442;&#x43E;&#x43C;_228">
		<g>
			<path style="fill-rule:evenodd;clip-rule:evenodd;fill:#2D1214;" d="M143.8,272.278c6.604-8.896,16.088-12.611,17.89-13.256
				h7.191c1.254,0,2.271-1.017,2.271-2.271c0-1.255-1.017-2.271-2.271-2.271h-7.569c-0.23,0-0.459,0.035-0.678,0.104
				c-0.498,0.156-12.282,3.945-20.48,14.985c-11.985,16.14-10.931,34.978-10.881,35.771c0.077,1.202,1.076,2.125,2.264,2.125
				c0.047,0,0.096-0.002,0.144-0.005c1.25-0.078,2.201-1.156,2.125-2.406C133.794,304.875,132.835,287.043,143.8,272.278z
				 M126.405,183.833h6.648c1.254,0,2.271-1.017,2.271-2.271c0-1.255-1.016-2.271-2.271-2.271h-7.57
				c-0.574,0-1.127,0.218-1.548,0.609c-0.508,0.474-12.524,11.766-18.021,25.746c-6.273,15.958-5.932,34.239-5.914,35.009
				c0.028,1.236,1.039,2.22,2.269,2.22c0.017,0,0.035-0.001,0.052-0.001c1.254-0.029,2.248-1.067,2.219-2.321
				c-0.003-0.181-0.331-18.157,5.6-33.244C114.567,196.052,123.902,186.315,126.405,183.833z M116.847,166.208l6.457,0.462
				c1.271,0.089,2.338-0.853,2.427-2.104c0.089-1.251-0.853-2.337-2.103-2.427l-7.065-0.505c-0.37-0.025-0.74,0.038-1.079,0.188
				c-0.508,0.225-12.545,5.669-21.724,20.821c-8.991,14.845-5.966,31.917-5.833,32.637c0.203,1.093,1.157,1.858,2.231,1.858
				c0.137,0,0.276-0.013,0.416-0.039c1.233-0.228,2.047-1.413,1.82-2.646c-0.03-0.159-2.854-16.076,5.252-29.457
				C105.057,172.759,114.631,167.343,116.847,166.208z M148.18,231.268h7.581c1.254,0,2.271-1.017,2.271-2.271
				c0-1.255-1.017-2.271-2.271-2.271h-8.074c-0.305,0-0.607,0.062-0.888,0.181c-0.593,0.252-14.635,6.337-23.98,20.783
				c-7.73,11.951-6.713,29.17-6.666,29.897c0.078,1.202,1.077,2.124,2.264,2.124c0.049,0,0.098-0.001,0.148-0.006
				c1.25-0.079,2.2-1.159,2.121-2.409c-0.01-0.164-0.958-16.466,5.946-27.139C134.359,238.212,145.902,232.342,148.18,231.268z
				 M180.154,297.893l7.762,0.486c1.228,0.076,2.33-0.872,2.408-2.124c0.079-1.252-0.873-2.33-2.125-2.408l-8.074-0.506
				c-0.181-0.011-0.361-0.002-0.541,0.031c-0.488,0.087-12.095,2.287-24.126,15.761c-9.301,10.417-11.921,25.331-12.028,25.961
				c-0.21,1.236,0.622,2.408,1.859,2.618c0.129,0.022,0.257,0.033,0.383,0.033c1.087,0,2.048-0.784,2.236-1.892
				c0.023-0.141,2.499-14.244,10.937-23.695C168.861,300.941,178.558,298.27,180.154,297.893z M213.019,341.238
				c-0.161-1.245-1.297-2.125-2.543-1.961l-8.545,1.106c-0.151,0.02-0.301,0.055-0.445,0.104
				c-0.408,0.141-10.09,3.525-19.709,12.475c-14.485,13.476-15.624,32.556-15.666,33.361c-0.064,1.253,0.897,2.317,2.149,2.384
				c0.041,0.001,0.081,0.003,0.122,0.003c1.198,0,2.2-0.939,2.265-2.149c0.01-0.181,1.119-18.083,14.223-30.272
				c8.15-7.583,16.509-10.915,17.893-11.434l8.296-1.073C212.302,343.62,213.179,342.481,213.019,341.238z M171.699,342.115
				c9.769-12.883,22.876-12.901,23.396-12.95c0.057-0.004,0.118-0.001,0.178-0.004l7.569-0.504c1.251-0.085,2.198-1.167,2.115-2.418
				c-0.083-1.252-1.181-2.187-2.417-2.115l-7.492,0.5c-1.482,0.006-16.119,0.438-26.969,14.747
				c-10.317,13.603-9.576,30.334-9.54,31.04c0.063,1.213,1.065,2.151,2.266,2.151c0.039,0,0.078-0.002,0.117-0.003
				c1.251-0.063,2.216-1.13,2.153-2.382C163.068,370.021,162.409,354.363,171.699,342.115z M184.87,307.467h7.225
				c1.254,0,2.271-1.017,2.271-2.271s-1.017-2.271-2.271-2.271h-7.569c-0.21,0-0.419,0.03-0.621,0.088
				c-0.459,0.13-11.341,3.306-19.769,12.831c-9.447,10.68-15.814,29.717-16.08,30.521c-0.394,1.191,0.251,2.475,1.442,2.869
				c0.236,0.079,0.477,0.116,0.713,0.116c0.953,0,1.84-0.604,2.155-1.558c0.063-0.188,6.346-18.963,15.171-28.939
				C174.351,311.151,183.202,308.008,184.87,307.467z"/>
		</g>
	</g>
	<g id="&#x417;&#x430;&#x43B;&#x438;&#x432;&#x43A;&#x430;_&#x446;&#x432;&#x435;&#x442;&#x43E;&#x43C;_229" style="opacity:0.6;">
		<g>
			<path style="fill-rule:evenodd;clip-rule:evenodd;fill:#230D11;" d="M206.758,347.611l-94.871-197.813
				c-0.542-1.133-1.899-1.607-3.029-1.065c-1.131,0.542-1.608,1.898-1.066,3.028l94.871,197.814c0.39,0.814,1.203,1.289,2.049,1.289
				c0.33,0,0.664-0.071,0.98-0.224C206.823,350.099,207.301,348.742,206.758,347.611z"/>
		</g>
	</g>
	<g id="&#x417;&#x430;&#x43B;&#x438;&#x432;&#x43A;&#x430;_&#x446;&#x432;&#x435;&#x442;&#x43E;&#x43C;_222">
		<g>
			<path style="fill-rule:evenodd;clip-rule:evenodd;fill:#2D1214;" d="M447.833,309.115
				c-0.737-1.133-74.311-113.87-111.522-173.893c-2.665-4.301-4.957-8.029-6.935-11.25c-8.495-13.825-11.059-17.998-14.003-19.765
				c-1.302-0.782-2.967-1.13-5.396-1.13c-3.569,0-9.061,0.729-16.66,1.736c-4.254,0.564-9.073,1.203-14.481,1.838
				c-155.856,18.29-159.085,21.519-160.821,23.254c-2.652,2.652-4.334,9.308-5.255,14.198l-5.593,2.851
				c-0.05,0.025-0.1,0.053-0.149,0.08c-0.395,0.22-9.785,5.568-19.606,20.871c-9.077,14.14-8.015,34.056-7.965,34.896
				c0.032,0.554,0.166,1.096,0.394,1.602l93.483,207.119c0.2,0.443,0.471,0.853,0.801,1.21c0.298,0.324,7.417,7.972,16.089,11.349
				c3.005,1.169,6.743,1.763,11.112,1.763h0c3.542,0,6.4-0.399,7.017-0.493l14.041-1.598c0.072-0.008,0.146-0.018,0.217-0.029
				c1.15-0.188,115.736-18.915,177.32-31.869c6.478-1.361,12.517-2.461,17.847-3.433c15.732-2.865,22.245-4.051,24.303-8.343
				c2.476-5.152-1.083-11.947-4.851-19.14c-0.749-1.433-1.474-2.813-2.077-4.069c-3.042-6.346-7.595-15.364-8.979-18.098
				c0.011-0.943,0.224-3.176,1.713-6.378c1.247-2.68,3.781-5.529,5.246-7l7.658-2.212c1.076-0.311,1.999-1.007,2.594-1.957
				l4.51-7.224C448.819,312.504,448.8,310.596,447.833,309.115z M328.591,140.008c24.204,39.04,63.719,100.276,88.667,138.745
				l-8.516,1.317l-88.525-142.324l6.501-0.765C327.321,137.958,327.943,138.965,328.591,140.008z M294.509,113.818
				c6.983-0.926,12.499-1.657,15.468-1.657c0.421,0,0.719,0.016,0.916,0.033c1.566,1.597,5.467,7.947,10.744,16.534
				c0.505,0.822,1.031,1.679,1.578,2.567l-26.568,3.125l-11.412-19.398C288.576,114.604,291.681,114.194,294.509,113.818z
				 M292.429,139.194c0.549,0.931,1.545,1.492,2.608,1.492c0.118,0,0.236-0.007,0.354-0.021l19.841-2.334l88.632,142.493
				l-21.987,3.401c-0.068,0.011-0.13,0.036-0.197,0.051c-0.105,0.023-0.211,0.046-0.314,0.082c-0.108,0.036-0.209,0.085-0.311,0.133
				c-0.059,0.027-0.119,0.044-0.177,0.075c-0.013,0.007-0.019,0.02-0.03,0.025c-0.325,0.186-0.606,0.428-0.839,0.712
				c-0.021,0.024-0.045,0.046-0.064,0.072c-0.218,0.282-0.379,0.604-0.486,0.948c-0.009,0.028-0.022,0.055-0.03,0.084
				c-0.092,0.331-0.12,0.682-0.093,1.04c0.003,0.045,0.002,0.087,0.007,0.131c0.004,0.034,0,0.067,0.006,0.102
				c0.046,0.3,0.162,0.566,0.287,0.826c0.026,0.057,0.023,0.118,0.054,0.173l0.016,0.027c0.002,0.003,0.003,0.006,0.005,0.01
				l11.171,20.246l-134.703,22.855l-8.861-18.829c-0.574-1.22-1.888-1.914-3.214-1.701l-14.021,2.225l-75.446-151.383l15.601-1.782
				c0.985-0.113,1.854-0.701,2.323-1.574c0.47-0.874,0.481-1.923,0.032-2.807l-8.617-16.946l118.966-15.959L292.429,139.194z
				 M416.92,369.041l-208.745,40.164c-0.04,0.008-0.074,0.024-0.113,0.034c-1.758,0.073-6.377-0.084-10.312-3.278
				c-4.216-3.422-6.592-9.362-7.062-17.655c-1.324-23.391,27.613-25.51,28.845-25.588c0.051-0.003,0.098-0.019,0.147-0.024
				c0.064-0.007,0.128-0.005,0.193-0.017l200.544-35.589c-0.271,0.487-0.544,0.974-0.778,1.478c-1.104,2.375-1.73,4.444-2.099,6.207
				c-1.499,4.143-3.723,11.354-4.156,18.693C413.089,358.462,415.317,365.036,416.92,369.041z M139.414,163.87l10.419-1.19
				l75.545,151.58l-11.565,1.836L139.414,163.87z M209.217,320.389l-2.499,7.27l-72.956-150.942c0.07-0.158,0.166-0.301,0.209-0.476
				l1.607-6.427l73.476,150.337C209.099,320.239,209.167,320.306,209.217,320.389z M226.734,344.216l-9.76-22.489l25.831-4.1
				l10.466,22.238L226.734,344.216z M251.398,346.309l-1.639,4.916l-26.17,4.644l2.091-5.344L251.398,346.309z M213.045,327.883
				l8.738,20.135l-2.337,5.973l-8.985-18.589L213.045,327.883z M394.342,325.566l-137.797,24.454l1.932-5.798l137.774-22.475
				L394.342,325.566z M259.08,337.989l-0.896-1.904l135.02-22.91l1.485,2.693L259.08,337.989z M278.678,115.816l1.764,2.998
				l-118.649,15.917l-2.008-3.95C184.493,127.287,222.922,122.365,278.678,115.816z M153.452,131.688l11.764,23.138l-28.186,3.222
				l-11.079-21.762C130.067,135.318,138.896,133.806,153.452,131.688z M121.325,147.848c0.283-1.743,0.658-3.558,1.057-5.229
				l9.224,18.118l-1.898,7.59l-9.067-18.76C120.975,149.049,121.223,148.474,121.325,147.848z M172.64,387.934L88.483,201.478
				c-0.087-3.564-0.018-18.401,6.57-28.665c8.144-12.688,15.727-17.445,16.345-17.82l4.123-2.101l93.332,193.1
				c-6.199,1.379-18.785,5.349-26.521,15.808C175.411,371.153,173.046,380.358,172.64,387.934z M207.225,416.338
				c-0.065,0.008-0.137,0.017-0.202,0.027c-0.025,0.004-2.539,0.396-5.699,0.396c-3.191,0-5.895-0.396-7.817-1.144
				c-5.595-2.178-10.688-7.004-12.232-8.553l-2.812-6.229c-1.671-6.454-3.629-21.267,7.521-36.337
				c7.27-9.827,19.903-13.265,24.913-14.281l3.403,7.04c-12.855,2.232-30.83,10.649-29.656,31.392
				c0.569,10.064,3.695,17.472,9.29,22.013c4.938,4.009,10.488,4.646,13.514,4.646c0.432,0,0.79-0.015,1.11-0.032l0.352,0.871
				L207.225,416.338z M213.59,415.613l-0.48-1.191l4.6-0.885l0.594,1.539L213.59,415.613z M426.95,360.798
				c0.645,1.345,1.418,2.825,2.221,4.357c1.423,2.715,4.218,8.052,4.598,10.494c-2.828,1.142-10.645,2.565-17.631,3.837
				c-5.386,0.981-11.49,2.093-18.087,3.481c-57.173,12.024-160.306,29.063-175.115,31.497l-0.694-1.8l199.527-38.391
				c0.921-0.177,1.709-0.773,2.132-1.611c0.422-0.838,0.432-1.824,0.025-2.672c-1.35-2.816-4.79-11.212-4.497-16.167
				c0.13-2.196,0.453-4.397,0.87-6.505C422.266,351.237,424.944,356.613,426.95,360.798z M427.731,317.981
				c-0.203,0.184-0.993,0.918-2.027,2.02l-25.789,4.576l1.501-3.002l28.029-4.562C428.811,317.209,428.223,317.533,427.731,317.981z
				 M401.372,315.449l-14.289-25.9l33.788-5.227c7.379,11.37,13.184,20.287,16.436,25.277L401.372,315.449z"/>
		</g>
	</g>
	<g id="&#x417;&#x430;&#x43B;&#x438;&#x432;&#x43A;&#x430;_&#x446;&#x432;&#x435;&#x442;&#x43E;&#x43C;_231">
		<g>
			<path style="fill-rule:evenodd;clip-rule:evenodd;fill:#562619;" d="M333.811,229.529c-0.369-3.884-1.765-8.118-4.265-12.949
				l-7.587-14.662c-2.379-4.599-5.132-8.472-8.182-11.513c-3.147-3.142-6.646-5.582-10.392-7.252
				c-3.698-1.646-7.671-2.639-11.813-2.948c-1.149-0.085-2.323-0.128-3.492-0.128c-2.788,0-5.688,0.244-8.618,0.727l-11.678,1.926
				c-4.271,0.705-8.041,1.825-11.203,3.329c-3.872,1.841-6.843,4.414-8.83,7.649c-0.734,1.191-1.257,2.487-1.683,3.828
				c-1.91-2.788-4.285-4.982-7.095-6.529c-2.865-1.579-5.929-2.38-9.103-2.38c-1.038,0-2.097,0.088-3.146,0.261
				c-5.092,0.84-9.243,3.644-12.006,8.108l-8.022,12.751c-0.017,0.025-0.032,0.051-0.047,0.076
				c-1.433,2.337-2.142,4.846-2.108,7.454c0.03,2.346,0.617,4.642,1.744,6.822c0.928,1.792,2.186,3.436,3.74,4.889
				c1.471,1.382,3.172,2.544,5.042,3.443c1.767,0.853,3.683,1.473,5.684,1.839c1.143,0.211,2.315,0.319,3.478,0.319
				c0.897,0,1.806-0.064,2.706-0.192l8.831,17.064c2.15,4.16,5.606,7.244,9.992,8.914c2.731,1.043,5.52,1.574,8.279,1.574
				c1.177,0,2.364-0.098,3.529-0.289c4.672-0.771,8.286-2.787,10.744-5.991c0.84-1.095,2.182-3.309,2.42-6.409
				c1.592,1.072,3.238,2.012,4.943,2.771c3.695,1.646,7.672,2.639,11.816,2.946c1.141,0.086,2.318,0.13,3.492,0.13
				c2.781,0,5.678-0.245,8.61-0.729l11.68-1.927c4.274-0.704,8.044-1.824,11.206-3.328c3.863-1.836,6.834-4.408,8.823-7.644
				C333.397,238.085,334.241,234.063,333.811,229.529z M262.307,251.062c-1.257,1.638-3.246,2.681-5.969,3.13
				c-0.763,0.126-1.528,0.188-2.299,0.188c-1.84,0-3.703-0.359-5.585-1.079c-2.67-1.017-4.657-2.791-5.964-5.319l-11.857-22.911
				c-1.292,0.914-2.784,1.51-4.475,1.789c-0.645,0.106-1.287,0.159-1.928,0.159c-0.706,0-1.411-0.064-2.113-0.194
				c-1.339-0.245-2.596-0.65-3.77-1.217c-1.174-0.563-2.227-1.281-3.152-2.15c-0.928-0.867-1.656-1.813-2.185-2.835
				c-0.584-1.13-0.884-2.276-0.899-3.442c-0.015-1.164,0.316-2.298,0.994-3.403l8.051-12.797c1.608-2.6,3.876-4.142,6.802-4.624
				c0.646-0.106,1.284-0.16,1.914-0.16c1.891,0,3.708,0.48,5.452,1.441c2.326,1.28,4.197,3.291,5.617,6.034l21.249,41.062
				C263.525,247.314,263.563,249.425,262.307,251.062z M324.857,237.514c-1.218,1.979-3.094,3.57-5.629,4.775
				c-2.535,1.206-5.598,2.104-9.186,2.694l-11.678,1.927c-2.537,0.418-4.996,0.628-7.381,0.628c-0.99,0-1.967-0.036-2.932-0.109
				c-3.286-0.243-6.385-1.014-9.297-2.312c-2.914-1.299-5.623-3.196-8.129-5.698c-2.508-2.5-4.775-5.713-6.804-9.633l-7.587-14.662
				c-2.028-3.92-3.179-7.314-3.452-10.183c-0.272-2.87,0.2-5.294,1.418-7.272c1.215-1.979,3.093-3.569,5.63-4.775
				c2.533-1.205,5.596-2.104,9.186-2.696l11.678-1.925c2.537-0.419,4.998-0.627,7.386-0.627c0.987,0,1.964,0.035,2.926,0.107
				c3.285,0.246,6.386,1.017,9.298,2.313c2.912,1.298,5.623,3.197,8.128,5.698c2.508,2.5,4.775,5.711,6.804,9.631l7.588,14.662
				c2.027,3.92,3.178,7.316,3.451,10.185C326.548,233.113,326.076,235.538,324.857,237.514z M296.133,208.948
				c-1.171-2.265-2.326-3.714-3.461-4.347c-0.779-0.434-1.705-0.65-2.778-0.65c-0.491,0-1.013,0.046-1.565,0.137l-10.664,1.758
				c-1.761,0.291-2.817,0.876-3.17,1.753c-0.354,0.88,0.057,2.45,1.228,4.716l7.204,13.921c1.172,2.267,2.326,3.716,3.461,4.347
				c0.779,0.435,1.705,0.651,2.776,0.651c0.491,0,1.015-0.046,1.569-0.137l10.662-1.759c1.76-0.29,2.816-0.873,3.171-1.753
				c0.353-0.877-0.056-2.449-1.228-4.716L296.133,208.948z M290.076,223.533c-0.125-0.211-0.267-0.467-0.426-0.775l-5.35-10.334
				l4.682-0.772c0.125,0.21,0.267,0.466,0.426,0.773l5.352,10.336L290.076,223.533z"/>
		</g>
	</g>
	<g id="_x31_0_&#x43A;&#x43E;&#x43F;&#x438;&#x44F;">
		<g>
			<path style="fill-rule:evenodd;clip-rule:evenodd;fill:#F6A858;" d="M326.275,230.243c-0.271-2.869-1.423-6.265-3.451-10.185
				l-7.588-14.662c-2.029-3.92-4.296-7.131-6.803-9.631c-2.506-2.501-5.217-4.4-8.129-5.698c-2.913-1.297-6.012-2.068-9.298-2.314
				c-3.286-0.244-6.724-0.071-10.312,0.521l-11.678,1.926c-3.59,0.592-6.651,1.49-9.187,2.695c-2.536,1.206-4.413,2.797-5.629,4.775
				c-1.218,1.979-1.689,4.402-1.417,7.271s1.423,6.264,3.452,10.185l7.587,14.661c2.028,3.921,4.297,7.132,6.804,9.633
				c2.506,2.501,5.215,4.4,8.128,5.697c2.912,1.298,6.011,2.068,9.298,2.313c3.286,0.246,6.723,0.072,10.313-0.52l11.678-1.926
				c3.588-0.592,6.65-1.489,9.186-2.695c2.535-1.205,4.412-2.796,5.63-4.775C326.075,235.537,326.549,233.112,326.275,230.243z
				 M304.565,227.585c-0.354,0.88-1.411,1.463-3.171,1.753l-10.662,1.759c-1.762,0.29-3.209,0.119-4.344-0.514
				c-1.137-0.633-2.289-2.081-3.463-4.348l-7.203-13.921c-1.172-2.265-1.582-3.836-1.229-4.716c0.354-0.878,1.41-1.462,3.171-1.753
				l10.663-1.758c1.76-0.29,3.207-0.118,4.344,0.514c1.135,0.634,2.289,2.082,3.462,4.347l7.204,13.921
				C304.51,225.136,304.919,226.707,304.565,227.585z M240.941,203.672c-1.419-2.743-3.292-4.755-5.616-6.035
				c-2.325-1.28-4.779-1.707-7.365-1.28c-2.926,0.482-5.193,2.024-6.802,4.624l-8.052,12.797c-0.678,1.105-1.009,2.239-0.994,3.403
				c0.015,1.166,0.315,2.313,0.899,3.442c0.529,1.021,1.256,1.968,2.184,2.835c0.927,0.869,1.979,1.587,3.152,2.151
				c1.175,0.565,2.432,0.971,3.771,1.217c1.34,0.246,2.686,0.257,4.041,0.034c1.691-0.279,3.184-0.876,4.475-1.789l11.856,22.911
				c1.309,2.528,3.296,4.302,5.965,5.32c2.67,1.02,5.298,1.315,7.884,0.889c2.722-0.449,4.712-1.491,5.969-3.129
				c1.258-1.638,1.219-3.747-0.117-6.329L240.941,203.672z"/>
		</g>
	</g>
	<g id="_x31_0_&#x43A;&#x43E;&#x43F;&#x438;&#x44F;_2">
		<g>
			<path style="fill-rule:evenodd;clip-rule:evenodd;fill:#FFC36D;" d="M308.434,195.766c-2.506-2.501-5.217-4.4-8.129-5.698
				c-2.913-1.297-6.012-2.068-9.298-2.314c-3.286-0.244-6.724-0.071-10.312,0.521l-1.232,0.203l32.701,11.802
				C310.984,198.584,309.744,197.072,308.434,195.766z M235.325,197.637c-2.325-1.28-4.779-1.707-7.365-1.28
				c-1.273,0.21-2.414,0.633-3.438,1.244l15.049,3.876C238.378,199.836,236.971,198.544,235.325,197.637z M274.931,210.584
				c-0.535-1.349-0.691-2.353-0.437-2.985c0.354-0.878,1.41-1.462,3.171-1.753l10.663-1.758c1.76-0.29,3.207-0.118,4.344,0.514
				c1.135,0.634,2.289,2.082,3.462,4.347l4.237,8.188l23.969,6.174c-0.439-1.044-0.93-2.12-1.516-3.252l-5.664-10.943l-54.83-17.233
				c-0.877,0.313-1.722,0.643-2.499,1.013c-2.536,1.206-4.413,2.797-5.629,4.775c-1.209,1.964-1.678,4.369-1.419,7.21
				L274.931,210.584z M217.882,206.187l-4.776,7.591c-0.678,1.105-1.009,2.239-0.994,3.403c0.012,0.986,0.274,1.955,0.694,2.915
				l41.561,9.521l-8.52-16.464L217.882,206.187z M304.457,227.751c-0.42,0.781-1.424,1.316-3.063,1.587l-10.662,1.759
				c-1.762,0.29-3.209,0.119-4.344-0.514c-1.137-0.633-2.289-2.081-3.463-4.348l-2.285-4.416l-24.039-5.988l7.222,13.956
				c0.413,0.799,0.844,1.548,1.276,2.288l50.561,11.583c1.279-0.403,2.482-0.852,3.568-1.368c2.535-1.205,4.412-2.796,5.63-4.775
				c0.774-1.259,1.212-2.718,1.384-4.337L304.457,227.751z"/>
		</g>
	</g>
</g>
</svg>
