<?xml version="1.0" encoding="iso-8859-1"?>
<!-- Generator: Adobe Illustrator 15.0.0, SVG Export Plug-In . SVG Version: 6.00 Build 0)  -->
<!DOCTYPE svg PUBLIC "-//W3C//DTD SVG 1.1//EN" "http://www.w3.org/Graphics/SVG/1.1/DTD/svg11.dtd" [
	<!ENTITY ns_extend "http://ns.adobe.com/Extensibility/1.0/">
	<!ENTITY ns_ai "http://ns.adobe.com/AdobeIllustrator/10.0/">
	<!ENTITY ns_graphs "http://ns.adobe.com/Graphs/1.0/">
	<!ENTITY ns_vars "http://ns.adobe.com/Variables/1.0/">
	<!ENTITY ns_imrep "http://ns.adobe.com/ImageReplacement/1.0/">
	<!ENTITY ns_sfw "http://ns.adobe.com/SaveForWeb/1.0/">
	<!ENTITY ns_custom "http://ns.adobe.com/GenericCustomNamespace/1.0/">
	<!ENTITY ns_adobe_xpath "http://ns.adobe.com/XPath/1.0/">
]>
<svg version="1.1" xmlns:x="&ns_extend;" xmlns:i="&ns_ai;" xmlns:graph="&ns_graphs;"
	 xmlns="http://www.w3.org/2000/svg" xmlns:xlink="http://www.w3.org/1999/xlink" x="0px" y="0px" width="512px" height="512px"
	 viewBox="0 0 512 512" style="enable-background:new 0 0 512 512;" xml:space="preserve">
<metadata>
	<sfw  xmlns="&ns_sfw;">
		<slices></slices>
		<sliceSourceBounds  height="512" width="512" x="94" y="94" bottomLeftOrigin="true"></sliceSourceBounds>
	</sfw>
</metadata>
<g id="&#x418;&#x437;&#x43E;&#x431;&#x440;&#x430;&#x436;&#x435;&#x43D;&#x438;&#x435;_xA0_17_1_">
	<g id="&#x417;&#x430;&#x43B;&#x438;&#x432;&#x43A;&#x430;_&#x446;&#x432;&#x435;&#x442;&#x43E;&#x43C;_1">
		<g>
			<rect x="3.699" y="4.439" style="fill-rule:evenodd;clip-rule:evenodd;fill:#B17D7B;" width="503.121" height="503.121"/>
		</g>
	</g>
	<g id="&#x417;&#x430;&#x43B;&#x438;&#x432;&#x43A;&#x430;_&#x446;&#x432;&#x435;&#x442;&#x43E;&#x43C;_5">
		<g>
			<path style="fill-rule:evenodd;clip-rule:evenodd;fill:#F3D4C3;" d="M484.624,25.156l20.717-20.717H3.699l20.717,20.717H484.624z
				 M24.416,486.844L3.699,507.561h501.642l-20.717-20.717H24.416z"/>
		</g>
	</g>
	
		<g id="&#x417;&#x430;&#x43B;&#x438;&#x432;&#x43A;&#x430;_&#x446;&#x432;&#x435;&#x442;&#x43E;&#x43C;_1_&#x43A;&#x43E;&#x43F;&#x438;&#x44F;_2">
		<g>
			<radialGradient id="SVGID_1_" cx="256.7402" cy="256" r="228.0762" gradientUnits="userSpaceOnUse">
				<stop  offset="0" style="stop-color:#7D7193"/>
				<stop  offset="0.2" style="stop-color:#7C7193"/>
				<stop  offset="0.4" style="stop-color:#6C6382"/>
				<stop  offset="0.5939" style="stop-color:#554E6B"/>
				<stop  offset="0.7515" style="stop-color:#3E3A53"/>
				<stop  offset="0.897" style="stop-color:#29273A"/>
				<stop  offset="1" style="stop-color:#232132"/>
			</radialGradient>
			<polygon style="fill-rule:evenodd;clip-rule:evenodd;fill:url(#SVGID_1_);" points="432.765,27.924 78.856,27.924 28.664,78.116 
				28.664,435.769 76.972,484.076 433.367,484.076 484.816,432.627 484.816,79.976 			"/>
		</g>
	</g>
	
		<g id="&#x417;&#x430;&#x43B;&#x438;&#x432;&#x43A;&#x430;_&#x446;&#x432;&#x435;&#x442;&#x43E;&#x43C;_1_&#x43A;&#x43E;&#x43F;&#x438;&#x44F;">
		<g>
			<path style="fill-rule:evenodd;clip-rule:evenodd;fill:#F2D2C0;" d="M25.109,24.37v463.26h463.26V24.37H25.109z M466.659,418.566
				l-47.353,47.353H91.283l-44.462-44.462V92.277l46.196-46.196h325.734l47.908,47.907V418.566z"/>
		</g>
	</g>
	<g id="&#x424;&#x438;&#x433;&#x443;&#x440;&#x430;_3">
		<g>
			<path style="fill-rule:evenodd;clip-rule:evenodd;fill:#A18180;" d="M429.873,25.156l-344.047-1.48l-62.15,62.891v342.566
				l59.931,59.19l344.046-0.739l59.931-59.191V84.347L429.873,25.156z M477.226,423.954l-56.231,54.751H91.006l-56.231-54.751
				V88.046l54.012-54.012h334.428l54.751,56.231L477.226,423.954z"/>
		</g>
	</g>
	<g id="&#x417;&#x430;&#x43B;&#x438;&#x432;&#x43A;&#x430;_&#x446;&#x432;&#x435;&#x442;&#x43E;&#x43C;_6">
		<g>
			<path style="fill-rule:evenodd;clip-rule:evenodd;fill:#C7907F;" d="M23.676,86.566l62.52-62.752l-62.52-0.139V86.566z
				 M487.584,23.63l-62.521,0.139l62.521,62.752V23.63z M22.196,488.37l62.521-0.139l-62.521-62.752V488.37z M425.803,488.971
				l62.521,0.139v-62.89L425.803,488.971z"/>
		</g>
	</g>
	
		<g id="&#x417;&#x430;&#x43B;&#x438;&#x432;&#x43A;&#x430;_&#x446;&#x432;&#x435;&#x442;&#x43E;&#x43C;_6_&#x43A;&#x43E;&#x43F;&#x438;&#x44F;">
		<g>
			<path style="fill-rule:evenodd;clip-rule:evenodd;fill:#FDECE7;" d="M54.694,55.434l31.502-31.619l-59.314,3.562L54.694,55.434z
				 M27.964,485.886l56.753,2.346L55.27,458.579L27.964,485.886z M425.803,488.971l59.314-3.113l-28.158-28.158L425.803,488.971z
				 M485.117,26.582l-60.054-2.813l31.376,31.491L485.117,26.582z"/>
		</g>
	</g>
	<g id="&#x424;&#x438;&#x433;&#x443;&#x440;&#x430;_1">
		<g>
			<path style="fill-rule:evenodd;clip-rule:evenodd;fill:#C7907F;" d="M34.774,487.769l0.093-9.156h-8.417L34.774,487.769z
				 M477.04,477.873l0.093,9.155l8.323-9.155H477.04z M476.393,25.804l-0.092,9.156h8.416L476.393,25.804z M26.451,34.96h8.417
				l-0.093-9.156L26.451,34.96z"/>
		</g>
	</g>
	<g id="&#x424;&#x438;&#x433;&#x443;&#x440;&#x430;_2">
		<g>
			<path style="fill-rule:evenodd;clip-rule:evenodd;fill:#FDECE7;" d="M22.597,480.813L9.026,497.72l-1.627,10.285l22.418-0.296
				l0.532-18.644l-3.492-6.957L22.597,480.813z M508.448,495.817l-18.855-14.581l-4.261,4.043l-3.068,4.209l2.646,16.529
				l23.688,1.353L508.448,495.817z M21.002,31.648l4.26-1.295l3.492-6.956L28.222,4.754L5.803,4.458l1.628,10.284L21.002,31.648z
				 M487.997,31.226l18.856-14.581l0.147-11.553l-23.687,1.353l-2.646,16.53l3.069,4.208L487.997,31.226z"/>
		</g>
	</g>
	<g id="&#x417;&#x430;&#x43B;&#x438;&#x432;&#x43A;&#x430;_&#x446;&#x432;&#x435;&#x442;&#x43E;&#x43C;_2">
		<g>
			<path style="fill-rule:evenodd;clip-rule:evenodd;fill:#2F181B;" d="M0,0v512h512V0H0z M503.121,503.121H8.878V8.879h494.243
				V503.121z"/>
		</g>
	</g>
	<g id="&#x417;&#x430;&#x43B;&#x438;&#x432;&#x43A;&#x430;_&#x446;&#x432;&#x435;&#x442;&#x43E;&#x43C;_3">
		<g>
			<path style="fill-rule:evenodd;clip-rule:evenodd;fill:#40292E;" d="M482.33,20.67H29.346l-9.369,9.369v397.468
				c-0.119,0.585-0.119,1.188,0,1.771v53.925l9.606,9.605h453.025l9.507-9.507V30.455L482.33,20.67z M28.855,34.183l4.633-4.634
				h40.974L28.855,75.156V34.183z M33.726,483.931l-4.871-4.871v-39.857l44.728,44.729H33.726z M483.237,479.158l-4.772,4.772
				H437.63l45.607-45.607V479.158z M483.237,425.769l-58.162,58.162H86.139l-57.283-57.283V87.711l58.162-58.162h338.058
				l58.162,58.162V425.769z M483.237,75.156L437.63,29.549h40.558l5.05,5.05V75.156z"/>
		</g>
	</g>
	
		<g id="&#x417;&#x430;&#x43B;&#x438;&#x432;&#x43A;&#x430;_&#x446;&#x432;&#x435;&#x442;&#x43E;&#x43C;_4_&#x43A;&#x43E;&#x43F;&#x438;&#x44F;" style="opacity:0.502;">
		<g>
			<path style="fill-rule:evenodd;clip-rule:evenodd;fill:#876867;" d="M465.59,92.913l-47.243-47.244
				c-0.685-0.685-1.612-1.068-2.579-1.068H94.545c-0.968,0-1.896,0.384-2.58,1.068L46.409,91.227
				c-0.684,0.684-1.069,1.611-1.069,2.579v324.619c0,0.968,0.385,1.896,1.069,2.579l43.847,43.847
				c0.684,0.684,1.612,1.068,2.579,1.068h323.479c0.968,0,1.896-0.385,2.579-1.068l46.696-46.696
				c0.685-0.685,1.069-1.612,1.069-2.58V95.493C466.659,94.525,466.274,93.598,465.59,92.913z M459.363,414.063l-44.56,44.56H94.346
				l-41.709-41.709V95.316l43.419-43.419h318.201l45.106,45.106V414.063z"/>
		</g>
	</g>
	<g id="&#x417;&#x430;&#x43B;&#x438;&#x432;&#x43A;&#x430;_&#x446;&#x432;&#x435;&#x442;&#x43E;&#x43C;_4">
		<g>
			<path style="fill-rule:evenodd;clip-rule:evenodd;fill:#40292E;" d="M468.534,90.633l-47.907-47.907
				c-0.693-0.694-1.635-1.084-2.615-1.084H92.277c-0.981,0-1.922,0.39-2.616,1.084L43.465,88.922
				c-0.693,0.693-1.083,1.635-1.083,2.615v329.18c0,0.981,0.39,1.922,1.083,2.615l44.463,44.463
				c0.694,0.693,1.634,1.084,2.615,1.084h328.023c0.981,0,1.922-0.391,2.615-1.084l47.353-47.353
				c0.694-0.694,1.084-1.635,1.084-2.616V93.248C469.618,92.268,469.229,91.326,468.534,90.633z M462.22,416.295l-45.186,45.185
				H92.075L49.78,419.185V93.07l44.029-44.03h322.67l45.74,45.741V416.295z"/>
		</g>
	</g>
</g>
<g id="&#x413;&#x440;&#x443;&#x43F;&#x43F;&#x430;_72_1_">
	<g id="&#x424;&#x438;&#x433;&#x443;&#x440;&#x430;_433_&#x43A;&#x43E;&#x43F;&#x438;&#x44F;_2" style="opacity:0.502;">
		<g>
			<path style="fill-rule:evenodd;clip-rule:evenodd;fill:#191825;" d="M434.29,321.989l-15.896,21.194l14.382,34.063
				l-85.787,22.456c0,0,78.675-0.972,103.888-9.531c4.317-1.466,6.578-5.604,7.132-7.374
				C460.942,373.404,434.29,321.989,434.29,321.989z M182.984,415.85c-9.84-9.84-98.403-213.458-98.403-213.458
				s-1.11-17.679,6.187-30.963c7.461-13.584,23.334-22.78,23.334-22.78l7.45-13.221l68.245-12.515c0,0-65.097-3.028-70.396-0.758
				c-5.299,2.271-28.764,16.653-33.306,25.736c-4.542,9.084-24.979,91.591-23.465,99.16s86.184,157.166,93.104,168.041
				c10.597,16.653,52.229,10.598,52.229,10.598S194.079,426.944,182.984,415.85z"/>
		</g>
	</g>
	<g id="&#x424;&#x438;&#x433;&#x443;&#x440;&#x430;_412_&#x43A;&#x43E;&#x43F;&#x438;&#x44F;">
		<g>
			<path style="fill-rule:evenodd;clip-rule:evenodd;fill:#7D8A8D;" d="M430.253,320.728l8.736-2.523l4.51-7.223
				c0,0-73.909-113.22-111.58-173.983c-12.697-20.48-16.892-27.998-19.415-29.513c-2.522-1.514-14.555,0.817-33.672,3.061
				c-94.886,11.135-155.615,19.432-158.138,21.954c-2.523,2.523-4.384,14.004-4.384,14.004l-7.614,3.88
				c0,0-8.677,4.839-17.997,19.358c-8.381,13.058-7.253,32.177-7.253,32.177l66.26,144.464c-0.007,0.021-0.027,0.08-0.027,0.08
				l0.044-0.043l10.545,22.99c0.004,0.161,0.008,0.267,0.008,0.267l0.077-0.081l18.09,39.441c0,0,5.092,7.161,12.884,10.194
				c6.465,2.517,15.879,1.002,15.879,1.002l14.129-1.608c0,0,114.922-18.747,177.117-31.83c21.027-4.424,37.455-6.098,38.99-9.297
				c1.881-3.919-3.947-13.062-6.93-19.28c-3.625-7.561-10.858-18.819-10.858-18.819s0.192-0.839,0.685-2.34
				c1.282-3.055,2.343-5.229,2.343-5.229l-0.404,0.15c0.287-0.667,0.602-1.373,0.947-2.116
				C425.445,325.091,430.253,320.728,430.253,320.728z"/>
		</g>
	</g>
	<g id="&#x424;&#x438;&#x433;&#x443;&#x440;&#x430;_415_&#x43A;&#x43E;&#x43F;&#x438;&#x44F;_3">
		<g>
			<path style="fill-rule:evenodd;clip-rule:evenodd;fill:#DBB995;" d="M430.253,322.241l-214.468,37.343
				c0,0-10.104,0.505-18.465,7.318c-4.926,4.015-9.576,12.855-10.309,17.983c-0.81,5.669,1.882,16.883,6.756,21.955
				c5.966,6.208,14.449,5.729,14.449,5.729l211.439-41.885c0,0-4.263-14.272-1.979-26.454
				C419.935,332.192,430.253,322.241,430.253,322.241z"/>
		</g>
	</g>
	<g id="&#x424;&#x438;&#x433;&#x443;&#x440;&#x430;_416_&#x43A;&#x43E;&#x43F;&#x438;&#x44F;">
		<g>
			<path style="fill-rule:evenodd;clip-rule:evenodd;fill:#A96F57;" d="M200.772,397.305v6.813l217.125-39.114l-1.774-5.545
				L200.772,397.305z M416.88,346.211l-216.107,38.226l0.378,6.435l215.305-38.801L416.88,346.211z M200.772,371.947l0.183,6.972
				l217.061-38.385l0.757-6.813L200.772,371.947z"/>
		</g>
	</g>
	<g id="&#x424;&#x438;&#x433;&#x443;&#x440;&#x430;_415_&#x43A;&#x43E;&#x43F;&#x438;&#x44F;_4">
		<g>
			<path style="fill-rule:evenodd;clip-rule:evenodd;fill:#A96F57;" d="M215.785,359.584c0,0-10.104,0.505-18.465,7.318
				c-4.926,4.015-9.576,12.855-10.309,17.983c-0.81,5.669,1.882,16.883,6.756,21.955c5.966,6.208,14.449,5.729,14.449,5.729
				l42.356-8.034l12.27-17.828l20.689-2.776l14.004-16.4l29.646-4.92l16.779-15.265l77.077-12.483
				c3.841-7.419,9.215-12.622,9.215-12.622L215.785,359.584z"/>
		</g>
	</g>
	<g id="&#x424;&#x438;&#x433;&#x443;&#x440;&#x430;_415_&#x43A;&#x43E;&#x43F;&#x438;&#x44F;_5">
		<g>
			<path style="fill-rule:evenodd;clip-rule:evenodd;fill:#7F5544;" d="M215.785,359.584c0,0-10.104,0.505-18.465,7.318
				c-4.926,4.015-9.576,12.855-10.309,17.983c-0.81,5.669,1.882,16.883,6.756,21.955c5.966,6.208,14.449,5.729,14.449,5.729
				l10.942-2.356l11.892-18.208l15.77-2.396l9.84-15.266l24.727-4.541l17.536-14.509l63.831-10.969l9.593-11.865L215.785,359.584z"
				/>
		</g>
	</g>
	
		<g id="&#x417;&#x430;&#x43B;&#x438;&#x432;&#x43A;&#x430;_&#x446;&#x432;&#x435;&#x442;&#x43E;&#x43C;_227_&#x43A;&#x43E;&#x43F;&#x438;&#x44F;">
		<g>
			<path style="fill-rule:evenodd;clip-rule:evenodd;fill:#482821;" d="M423.811,333.178c-0.224-1.233-1.413-2.046-2.639-1.832
				l-217.597,39.258v-6.366c0-1.253-1.017-2.271-2.271-2.271c-1.255,0-2.271,1.018-2.271,2.271v46.553
				c0,1.253,1.016,2.271,2.271,2.271c1.254,0,2.271-1.018,2.271-2.271v-10.9l213.858-38.337c1.235-0.222,2.057-1.401,1.835-2.636
				c-0.22-1.234-1.401-2.051-2.636-1.835l-213.058,38.193v-8.633l214.996-38.715c1.234-0.223,2.055-1.402,1.833-2.638
				c-0.224-1.235-1.41-2.041-2.638-1.833l-214.191,38.569v-6.807l218.403-39.403C423.213,335.594,424.032,334.412,423.811,333.178z"
				/>
		</g>
	</g>
	<g id="&#x424;&#x438;&#x433;&#x443;&#x440;&#x430;_417_&#x43A;&#x43E;&#x43F;&#x438;&#x44F;_2">
		<g>
			<path style="fill-rule:evenodd;clip-rule:evenodd;fill:#363A48;" d="M219.822,409.542c0,0-11.805,4.032-22.408-0.609
				c-6.744-2.951-10.206-13.083-10.296-20.093c-0.068-5.236,1.796-15.376,9.867-21.831c9.557-7.643,21.323-7.93,21.323-7.93
				L116.374,147.135c0,0-19.172,5.359-28.278,24.999c-5.811,12.534-5.532,28.996-5.532,28.996l87.301,195.797
				c0,0,6.828,16.909,17.872,21.721c14.07,6.129,33.095,0.482,33.095,0.482L219.822,409.542z"/>
		</g>
	</g>
	<g id="&#x424;&#x438;&#x433;&#x443;&#x440;&#x430;_417_&#x43A;&#x43E;&#x43F;&#x438;&#x44F;_3">
		<g>
			<path style="fill-rule:evenodd;clip-rule:evenodd;fill:#292F42;" d="M219.822,409.542c0,0-11.805,4.032-22.408-0.609
				c-6.744-2.951-10.206-13.083-10.296-20.093c-0.017-1.275,0.084-2.845,0.359-4.578L87.586,173.329
				c-5.267,12.361-5.022,27.801-5.022,27.801l87.301,195.797c0,0,6.828,16.909,17.872,21.721c14.07,6.129,33.095,0.482,33.095,0.482
				L219.822,409.542z"/>
		</g>
	</g>
	<g id="&#x424;&#x438;&#x433;&#x443;&#x440;&#x430;_426">
		<g>
			<polygon style="fill-rule:evenodd;clip-rule:evenodd;fill:#6C7072;" points="107.29,149.405 98.207,160.76 189.04,356.052 
				201.908,349.996 			"/>
		</g>
	</g>
	<g id="&#x424;&#x438;&#x433;&#x443;&#x440;&#x430;_418_&#x43A;&#x43E;&#x43F;&#x438;&#x44F;">
		<g>
			<path style="fill-rule:evenodd;clip-rule:evenodd;fill:#BD6826;" d="M160.276,257.144h8.579l-14.13-28.764l-8.074,1.515
				c0,0-14.407,5.766-21.799,17.669c-7.494,12.065-7.974,30.271-7.974,30.271l14.13,28.764c0,0,0.147-21.039,7.916-32.567
				C146.798,262.347,160.276,257.144,160.276,257.144z M124.447,181.954l8.074-0.505l-9.083-18.166l-7.569,0.505
				c0,0-12.679,6.478-20.018,18.342c-7.787,12.589-7.484,33.13-7.484,33.13l12.868,26.241c0,0,1.102-22.641,7.506-37.148
				C114.683,190.893,124.447,181.954,124.447,181.954z M183.489,305.084h9.083l-5.046-10.598l-8.074,1.01
				c0,0-15.004,5.978-23.829,16.848c-8.582,10.572-12,24.531-12,24.531l5.551,13.625c0,0,4.152-17.415,13.094-28.948
				C170.723,310.646,183.489,305.084,183.489,305.084z M219.822,410.047c0,0-13.889,4.274-23.249-0.945
				c-6.931-3.865-9-15.852-9.264-21.272c-0.249-5.12,2.819-14.694,8.532-19.559c9.056-7.711,22.466-9.696,22.466-9.696
				l-6.561-11.606c0,0-15.53,1.903-25.917,13.463c-7.638,8.501-10.873,19.645-11.356,33.018
				c-0.354,9.806,7.571,21.182,16.387,25.557c12.986,6.443,29.969,0.125,29.969,0.125L219.822,410.047z M201.151,342.931
				l9.083-1.514l-7.065-14.634h-9.083c0,0-17.97,2.66-26.926,15.305c-8.164,11.526-7.389,33.14-7.389,33.14l8.074,13.625
				c0,0,1.606-17.449,10.759-29.652C186.81,348.26,201.151,342.931,201.151,342.931z"/>
		</g>
	</g>
	<g id="&#x424;&#x438;&#x433;&#x443;&#x440;&#x430;_419_&#x43A;&#x43E;&#x43F;&#x438;&#x44F;">
		<g>
			<path style="fill-rule:evenodd;clip-rule:evenodd;fill:#E89F41;" d="M105.484,171.05l9.972,21.522
				c1.462-2.084,2.887-3.904,4.162-5.422l-9.235-19.933C108.896,168.266,107.224,169.54,105.484,171.05z M135.685,236.229
				l12.872,27.779c1.777-1.363,3.503-2.515,5.071-3.46L140.8,232.865C139.245,233.774,137.493,234.896,135.685,236.229z
				 M166.455,302.638l4.683,10.107c1.747-1.378,3.453-2.574,5.015-3.582l-4.527-9.771
				C170.012,300.316,168.254,301.4,166.455,302.638z M185.413,329.148c-1.743,0.639-3.629,1.435-5.553,2.418l8.507,18.36
				c1.784-1.271,3.538-2.365,5.15-3.287L185.413,329.148z"/>
		</g>
	</g>
	<g id="&#x424;&#x438;&#x433;&#x443;&#x440;&#x430;_420_&#x43A;&#x43E;&#x43F;&#x438;&#x44F;">
		<g>
			<path style="fill-rule:evenodd;clip-rule:evenodd;fill:#B59F80;" d="M89.135,203.859l12.907,28.699
				c0.378-3.211,0.923-7.011,1.692-11.001l-12.589-27.991C90.182,197.12,89.545,200.675,89.135,203.859z M117.943,267.916
				l13.643,30.334c0.352-3.148,0.926-6.868,1.847-10.657l-13.227-29.41C119.158,261.585,118.436,264.946,117.943,267.916z
				 M162.522,352.275c-1,3.428-1.639,6.961-2.05,10.205l8.601,19.125c0.578-2.619,1.412-5.73,2.586-9.014L162.522,352.275z
				 M145.858,329.986l5.69,12.652c0.814-2.352,1.851-5.057,3.1-7.872l-5.507-12.246
				C147.778,325.212,146.694,327.778,145.858,329.986z"/>
		</g>
	</g>
	<g id="&#x424;&#x438;&#x433;&#x443;&#x440;&#x430;_421_&#x43A;&#x43E;&#x43F;&#x438;&#x44F;">
		<g>
			<path style="fill-rule:evenodd;clip-rule:evenodd;fill:#393C49;" d="M219.822,410.552l-10.597,2.019
				c0,0-9.441,0.235-15.394-5.276c-5.67-5.252-7.887-16.093-6.782-22.646c1.338-7.935,5.801-14.21,11.105-18.269
				c9.092-6.955,20.153-7.301,20.153-7.301l-7.065-12.111c0,0-13.529,1.162-24.055,11.776c-8.762,8.835-14.978,26.39-13.888,35.166
				c0.933,7.517,8.274,20.958,18.487,25.183c13.066,5.404,28.54,1.047,28.54,1.047L219.822,410.552z"/>
		</g>
	</g>
	<g id="&#x424;&#x438;&#x433;&#x443;&#x440;&#x430;_422_&#x43A;&#x43E;&#x43F;&#x438;&#x44F;_3">
		<g>
			<path style="fill-rule:evenodd;clip-rule:evenodd;fill:#475460;" d="M421.422,340.912c0,0-4.066,3.364-4.387,9.772
				c-0.423,8.446,2.873,20.506,2.873,20.506l-199.833,38.604v9.084c0,0,215.729-34.819,217.243-41.632
				S421.422,340.912,421.422,340.912z"/>
		</g>
	</g>
	<g id="&#x424;&#x438;&#x433;&#x443;&#x440;&#x430;_422_&#x43A;&#x43E;&#x43F;&#x438;&#x44F;_4">
		<g>
			<path style="fill-rule:evenodd;clip-rule:evenodd;fill:#7D8A8D;" d="M220.075,409.794v9.084c0,0,63.457-10.243,121.781-20.704
				l2.185-12.327L220.075,409.794z"/>
		</g>
	</g>
	<g id="&#x424;&#x438;&#x433;&#x443;&#x440;&#x430;_422_&#x43A;&#x43E;&#x43F;&#x438;&#x44F;_5">
		<g>
			<path style="fill-rule:evenodd;clip-rule:evenodd;fill:#AAAE9E;" d="M260.221,402.039l-5.082,11.069
				c17.259-2.876,39.191-6.58,61.812-10.53l5.798-12.618L260.221,402.039z"/>
		</g>
	</g>
	<g id="&#x424;&#x438;&#x433;&#x443;&#x440;&#x430;_423_&#x43A;&#x43E;&#x43F;&#x438;&#x44F;_2">
		<g>
			<path style="fill-rule:evenodd;clip-rule:evenodd;fill:#AAAE9F;" d="M313.179,107.773l-192.264,24.728l-5.046,16.147
				l12.616,26.746l90.329,183.685l215.981-37.343l7.065-12.615L313.179,107.773z M395.434,309.625l-141.296,24.728l-10.597-19.176
				l-15.139,1.514l-77.713-157.949l18.167-1.514l-9.083-20.689L283.91,119.38l10.598,18.167l22.203-2.019l90.833,147.352
				l-24.222,4.542L395.434,309.625z"/>
		</g>
	</g>
	<g id="&#x424;&#x438;&#x433;&#x443;&#x440;&#x430;_423_&#x43A;&#x43E;&#x43F;&#x438;&#x44F;_3">
		<g>
			<polygon style="fill-rule:evenodd;clip-rule:evenodd;fill:#4C4B54;" points="398.461,318.204 254.137,341.922 223.859,347.473 
				211.244,318.204 134.54,162.273 120.764,133.69 115.869,148.648 128.484,175.395 218.813,359.079 434.794,321.736 
				439.128,312.234 			"/>
		</g>
	</g>
	<g id="&#x424;&#x438;&#x433;&#x443;&#x440;&#x430;_425_&#x43A;&#x43E;&#x43F;&#x438;&#x44F;">
		<g>
			<path style="fill-rule:evenodd;clip-rule:evenodd;fill:#D8DAD3;" d="M224.679,347.063l31.295-5.03l-12.276-28.275
				L224.679,347.063z M121.924,134.015l46.426,22.203l-13.625-30.782L121.924,134.015z M296.021,136.475l16.652-30.215
				l-30.939,5.906L296.021,136.475z M381.809,287.422l17.701,29.789l42.854-6.576L381.809,287.422z"/>
		</g>
	</g>
	
		<g id="&#x417;&#x430;&#x43B;&#x438;&#x432;&#x43A;&#x430;_&#x446;&#x432;&#x435;&#x442;&#x43E;&#x43C;_228_&#x43A;&#x43E;&#x43F;&#x438;&#x44F;">
		<g>
			<path style="fill-rule:evenodd;clip-rule:evenodd;fill:#24242A;" d="M148.18,231.268h7.581c1.254,0,2.271-1.017,2.271-2.271
				c0-1.255-1.017-2.271-2.271-2.271h-8.074c-0.305,0-0.607,0.062-0.888,0.181c-0.593,0.252-14.635,6.337-23.98,20.783
				c-7.73,11.951-6.713,29.17-6.666,29.897c0.078,1.202,1.077,2.124,2.264,2.124c0.049,0,0.098-0.001,0.148-0.006
				c1.25-0.079,2.2-1.159,2.121-2.409c-0.01-0.164-0.958-16.466,5.946-27.139C134.359,238.212,145.902,232.342,148.18,231.268z
				 M143.8,272.278c6.604-8.896,16.088-12.611,17.89-13.256h7.191c1.254,0,2.271-1.017,2.271-2.271c0-1.255-1.017-2.271-2.271-2.271
				h-7.569c-0.23,0-0.459,0.035-0.678,0.104c-0.498,0.156-12.282,3.945-20.48,14.985c-11.985,16.14-10.931,34.978-10.881,35.771
				c0.077,1.202,1.076,2.125,2.264,2.125c0.047,0,0.096-0.002,0.144-0.005c1.25-0.078,2.201-1.156,2.125-2.406
				C133.794,304.875,132.835,287.043,143.8,272.278z M116.847,166.208l6.457,0.462c1.271,0.089,2.338-0.853,2.427-2.104
				c0.089-1.251-0.853-2.337-2.103-2.427l-7.065-0.505c-0.37-0.025-0.74,0.038-1.079,0.188c-0.508,0.225-12.545,5.669-21.724,20.821
				c-8.991,14.845-5.966,31.917-5.833,32.637c0.203,1.093,1.157,1.858,2.231,1.858c0.137,0,0.276-0.013,0.416-0.039
				c1.233-0.228,2.047-1.413,1.82-2.646c-0.03-0.159-2.854-16.076,5.252-29.457C105.057,172.759,114.631,167.343,116.847,166.208z
				 M126.405,183.833h6.648c1.254,0,2.271-1.017,2.271-2.271c0-1.255-1.016-2.271-2.271-2.271h-7.57
				c-0.574,0-1.127,0.218-1.548,0.609c-0.508,0.474-12.524,11.766-18.021,25.746c-6.273,15.958-5.932,34.239-5.914,35.009
				c0.028,1.236,1.039,2.22,2.269,2.22c0.017,0,0.035-0.001,0.052-0.001c1.254-0.029,2.248-1.067,2.219-2.321
				c-0.003-0.181-0.331-18.157,5.6-33.244C114.567,196.052,123.902,186.315,126.405,183.833z M180.154,297.893l7.762,0.486
				c1.228,0.076,2.33-0.872,2.408-2.124c0.079-1.252-0.873-2.33-2.125-2.408l-8.074-0.506c-0.181-0.011-0.361-0.002-0.541,0.031
				c-0.488,0.087-12.095,2.287-24.126,15.761c-9.301,10.417-11.921,25.331-12.028,25.961c-0.21,1.236,0.622,2.408,1.859,2.618
				c0.129,0.022,0.257,0.033,0.383,0.033c1.087,0,2.048-0.784,2.236-1.892c0.023-0.141,2.499-14.244,10.937-23.695
				C168.861,300.941,178.558,298.27,180.154,297.893z M171.699,342.115c9.769-12.883,22.876-12.901,23.396-12.95
				c0.057-0.004,0.118-0.001,0.178-0.004l7.569-0.504c1.251-0.085,2.198-1.167,2.115-2.418c-0.083-1.252-1.181-2.187-2.417-2.115
				l-7.492,0.5c-1.482,0.006-16.119,0.438-26.969,14.747c-10.317,13.603-9.576,30.334-9.54,31.04
				c0.063,1.213,1.065,2.151,2.266,2.151c0.039,0,0.078-0.002,0.117-0.003c1.251-0.063,2.216-1.13,2.153-2.382
				C163.068,370.021,162.409,354.363,171.699,342.115z M213.019,341.238c-0.161-1.245-1.297-2.125-2.543-1.961l-8.545,1.106
				c-0.151,0.02-0.301,0.055-0.445,0.104c-0.408,0.141-10.09,3.525-19.709,12.475c-14.485,13.476-15.624,32.556-15.666,33.361
				c-0.064,1.253,0.897,2.317,2.149,2.384c0.041,0.001,0.081,0.003,0.122,0.003c1.198,0,2.2-0.939,2.265-2.149
				c0.01-0.181,1.119-18.083,14.223-30.272c8.15-7.583,16.509-10.915,17.893-11.434l8.296-1.073
				C212.302,343.62,213.179,342.481,213.019,341.238z M184.87,307.467h7.225c1.254,0,2.271-1.017,2.271-2.271
				s-1.017-2.271-2.271-2.271h-7.569c-0.21,0-0.419,0.03-0.621,0.088c-0.459,0.13-11.341,3.306-19.769,12.831
				c-9.447,10.68-15.814,29.717-16.08,30.521c-0.394,1.191,0.251,2.475,1.442,2.869c0.236,0.079,0.477,0.116,0.713,0.116
				c0.953,0,1.84-0.604,2.155-1.558c0.063-0.188,6.346-18.963,15.171-28.939C174.351,311.151,183.202,308.008,184.87,307.467z"/>
		</g>
	</g>
	
		<g id="&#x417;&#x430;&#x43B;&#x438;&#x432;&#x43A;&#x430;_&#x446;&#x432;&#x435;&#x442;&#x43E;&#x43C;_229_&#x43A;&#x43E;&#x43F;&#x438;&#x44F;" style="opacity:0.6;">
		<g>
			<path style="fill-rule:evenodd;clip-rule:evenodd;fill:#191D27;" d="M206.758,347.611l-94.871-197.813
				c-0.542-1.133-1.899-1.607-3.029-1.065c-1.131,0.542-1.608,1.898-1.066,3.028l94.871,197.814c0.39,0.814,1.203,1.289,2.049,1.289
				c0.33,0,0.664-0.071,0.98-0.224C206.823,350.099,207.301,348.742,206.758,347.611z"/>
		</g>
	</g>
	<g id="&#x424;&#x438;&#x433;&#x443;&#x440;&#x430;_437">
		<g>
			<path style="fill-rule:evenodd;clip-rule:evenodd;fill:#ACBBB9;" d="M329.074,202.392l36.334,21.194l-52.229-83.264
				l-23.466,2.271l-8.326-16.652l-49.958,5.299l36.333,21.194l36.147,5.164l-7.384,13.76l18.168,6.056L329.074,202.392z
				 M251.109,239.482l-19.681-19.681l-21.951,0.757l-14.382,15.139l35.576,12.111l9.083,22.708l32.548,25.736l18.924-17.41
				l-1.515-23.465L251.109,239.482z M296.525,171.357l-56.86-7.198l-7.48-32.163l-62.069,8.326l5.299,18.167l42.389,23.465
				l7.569,21.951l11.823-32.355l1.634,27.093l23.633,15.86h31.035l10.598-28.007L296.525,171.357z M367.679,225.857l-49.201-10.598
				l-22.708,31.792l46.173,5.298l37.848,31.792l20.438-5.299L367.679,225.857z"/>
		</g>
	</g>
	<g id="&#x424;&#x438;&#x433;&#x443;&#x440;&#x430;_438">
		<g>
			<path style="fill-rule:evenodd;clip-rule:evenodd;fill:#6B7577;" d="M229.201,306.011l-25.022-78.64l-9.84,9.083L229,307.222
				l-0.89,0.481l1.61,0.987l0.952,1.944l-0.606-1.904l16.502,1.904l13.824,15.896l-5.498-33.306L229.201,306.011z M161.79,163.788
				l32.548,72.666l13.625-18.167L161.79,163.788z M344.217,299.084l-34.822,7.766l-15.125-54.017l23.793-37.674l0.415,0.857
				l46.931,6.813l-42.389-13.625l-17.41-50.715l-8.576,11.434l-48.195-12.947l-16.653-26.493l8.327,34.063l56.23,5.767l-0.217,0.289
				l21.402,44.278l-30.484,20.818l-29.521-9.84l-19.681-28.008l-1.575-21.433l-11.293,24.461l4.542,18.924l22.708,20.438
				l36.816,16.604l-0.482,0.806c0,0,0.43,10.91,4.04,26.255c3.944,16.763,11.099,38.086,11.099,38.086l81.75-18.167L344.217,299.084
				z"/>
		</g>
	</g>
	<g id="&#x424;&#x438;&#x433;&#x443;&#x440;&#x430;_438_&#x43A;&#x43E;&#x43F;&#x438;&#x44F;">
		<g>
			<path style="fill-rule:evenodd;clip-rule:evenodd;fill:#90A09E;" d="M299.554,170.601l-46.173-16.653l-21.195-23.465
				l16.653,26.493L299.554,170.601z M365.408,222.829l-38.604-16.652l-7.569-12.868l-13.625-34.819l17.41,50.715L365.408,222.829z
				 M161.79,163.788l46.173,54.499l20.438,2.271L161.79,163.788z M344.684,293.6l-30.748,3.41l-20.438-46.931l15.896,56.771
				l34.822-7.766L385.846,303L344.684,293.6z M230.672,247.809l-22.418-7.632l33.308,32.147l13.333,20.9l18.167,3.028
				l-31.787-24.682L230.672,247.809z M286.686,228.128l-25.736-8.326l-18.166-21.952l-6.45-25.933l1.908,25.933l19.681,28.008
				l29.521,9.84l31.034-21.194L286.686,228.128z"/>
		</g>
	</g>
	<g id="&#x424;&#x438;&#x433;&#x443;&#x440;&#x430;_439">
		<g>
			<path style="fill-rule:evenodd;clip-rule:evenodd;fill:#CECFCF;" d="M145.137,185.739l30.278,59.041l30.278,26.493
				l-31.792-66.611L145.137,185.739z M380.547,212.232l-28.764-18.924l31.791,52.229l31.035,18.924L380.547,212.232z"/>
		</g>
	</g>
	<g id="&#x417;&#x430;&#x43B;&#x438;&#x432;&#x43A;&#x430;_&#x446;&#x432;&#x435;&#x442;&#x43E;&#x43C;_225">
		<g>
			<path style="fill-rule:evenodd;clip-rule:evenodd;fill:#3C4152;" d="M157.47,149.248c-3.725-2.15-7.848-3.469-11.802-5.142
				c-3.95-1.68-7.917-3.324-11.9-4.936c-4-1.574-7.973-3.209-11.998-4.731c-0.102-0.039-0.22,0.001-0.278,0.098
				c-0.063,0.108-0.026,0.248,0.082,0.312c3.712,2.178,7.478,4.245,11.215,6.371c3.754,2.089,7.525,4.145,11.312,6.165
				c3.784,2.028,7.398,4.411,11.41,5.961c4.001,1.574,8.079,2.986,12.488,3.707c0.077,0.012,0.159-0.014,0.214-0.076
				c0.087-0.098,0.079-0.246-0.018-0.334C164.867,153.662,161.208,151.375,157.47,149.248z M294.199,139.299
				c1.332-1.011,2.449-2.146,3.49-3.322c1.055-1.171,2-2.402,2.886-3.67c1.826-2.503,2.843-5.471,4.21-8.237
				c1.373-2.765,2.711-5.548,4.015-8.351c1.271-2.822,2.598-5.612,3.817-8.464c0.041-0.095,0.014-0.209-0.074-0.273
				c-0.101-0.075-0.244-0.054-0.319,0.048c-1.849,2.489-3.593,5.04-5.392,7.559c-1.766,2.538-3.496,5.095-5.195,7.671
				c-1.703,2.574-3.755,4.946-4.998,7.784c-0.649,1.403-1.238,2.841-1.719,4.342c-0.493,1.492-0.912,3.028-1.114,4.688
				c-0.007,0.062,0.007,0.126,0.049,0.18C293.936,139.36,294.092,139.381,294.199,139.299z M244.1,313.925
				c-2.886,2.409-5.111,5.21-7.182,8.103c-2.095,2.879-3.396,6.229-5.034,9.378c-1.646,3.146-3.258,6.31-4.839,9.494
				c-1.545,3.204-3.147,6.375-4.643,9.609c-0.045,0.097-0.017,0.213,0.071,0.279c0.101,0.074,0.245,0.054,0.319-0.048
				c2.12-2.864,4.134-5.79,6.206-8.684c2.036-2.912,4.04-5.845,6.01-8.798c1.978-2.947,4.294-5.696,5.815-8.914
				c1.545-3.205,2.936-6.501,3.667-10.189c0.013-0.068-0.003-0.144-0.051-0.201C244.354,313.853,244.202,313.839,244.1,313.925z
				 M360.225,220.446c-2.204-0.691-4.45-1.155-6.734-1.429c-2.284-0.266-4.595-0.397-6.876-0.676
				c-4.552-0.573-9.075-1.303-13.703-1.786c-4.292-0.438-7.63-2.409-11.94-2.722c-1.691-3.679-4.324-5.846-5.904-9.58l-4.776-11.332
				c-1.587-3.779-3.2-7.546-4.913-11.263c-1.692-3.728-3.445-7.424-5.3-11.069l-0.042-0.083c2.278-1.773,4.005-3.844,5.51-6.032
				c0.994-1.5,1.638-3.189,2.201-4.923c0.57-1.729,1.252-3.396,1.939-5.063c1.447-3.293,2.797-6.638,4.144-9.983
				c2.774-6.967,3.748-10.563,3.748-10.563s-2.556,2.754-6.829,8.909c-2.043,2.973-4.083,5.946-6.027,8.973
				c-1.008,1.493-2.021,2.984-3.146,4.415c-1.133,1.427-2.186,2.896-2.885,4.555c-0.984,2.44-1.744,5-1.971,7.847l-13.515-1.689
				c-4.782-0.488-9.549-1.088-14.343-1.48c-4.787-0.461-14.392-1.155-14.392-1.155s-10.038-0.865-11.173-1.149
				c-0.639-0.16-1.867-3.012-1.867-4.707c0.019-1.702-0.123-3.361-0.354-4.998c-0.239-1.635-0.659-3.224-1.254-4.767
				c-0.607-1.541-1.249-3.072-1.781-4.632c-1.06-3.12-2.17-6.229-3.328-9.323c-1.211-3.082-1.816-5.286-3.101-8.35
				c-0.051-0.121-0.271,0.037-0.409,0.052c-0.168,0.018-0.48,0.499-0.462,0.667c0.347,3.303,0.617,5.099,1.039,8.383
				c0.474,3.271,0.997,6.529,1.568,9.774c0.283,1.624,0.458,3.275,0.667,4.917c0.221,1.64,0.617,3.235,1.194,4.782
				c0.585,1.546,1.346,3.024,2.094,4.552c1.609,3.38,0.988,4.84,0.752,5.503c-0.237,0.662-1.968,5.774-7.326,17.653
				c-2.837,6.29-5.581,12.614-8.261,18.963c-0.232,0.549-0.293,1.177-0.134,1.799l0.076,0.295c0.737,2.883,1.556,5.742,2.338,8.612
				c0.672,2.409,0.876,5.526,0.876,5.526s-1.94,0.883-3.484,0.57c-1.945-0.378-3.893-0.707-5.85-0.881
				c-1.957-0.184-3.925-0.17-5.898-0.091l-0.853,0.034c-0.774,0.035-1.525,0.41-2.013,1.088c-1.468,2.033-2.986,4.019-4.577,5.934
				c-1.576,1.93-3.138,3.873-4.661,5.854c-1.547,1.957-3.042,3.964-4.548,5.961c-2.433,3.215-2.758,4.788-2.758,4.788
				s2.196-0.742,4.677-2.949c1.932-1.588,3.875-3.165,5.765-4.794c1.915-1.604,3.792-3.246,5.653-4.9
				c1.34-1.213,2.729-2.378,4.138-3.524c1.529,0.221,3.06,0.402,4.6,0.443c1.964,0.063,3.937-0.028,5.914-0.169
				c1.977-0.158,3.959-0.392,5.949-0.757c0.665-0.128,1.331-0.268,1.997-0.417c6.414,6.351,12.922,12.6,19.587,18.685l0.123,0.113
				c0.305,0.276,0.664,0.504,1.069,0.663l19.094,7.546l9.568,3.715c3.795,1.486,8.164,6.848,8.373,10.339
				c0.101,1.683-0.346,4.026-0.478,5.693c-0.141,1.668-0.208,3.334-0.241,5c-0.003,0.228,0.022,0.474,0.08,0.705l0.075,0.298
				c1.011,4.025,2.701,7.852,4.178,11.741l4.211,11.732c1.441,3.898,2.88,7.8,4.39,11.68c1.492,3.885,3.341,9.764,4.909,13.626
				c0.067,0.163,0.762,1.021,0.942,0.988c0.207-0.039,0.248-1.515,0.211-1.722c-0.75-4.101-2.402-9.639-3.228-13.718
				c-0.809-4.083-1.688-8.147-2.565-12.212l-2.743-12.158c-0.819-3.971-1.448-7.997-2.688-11.845
				c-0.104-1.429-0.221-2.858-0.41-4.284c-0.21-1.66-0.475-3.317-0.781-4.976c-0.514-2.52-0.241-6.519,0.664-8.428
				c2.508-5.29,9.67-11.752,14.254-18.577c2.305-3.401,4.043-7.56,6.46-10.88c3.452-4.826,6.739-10.152,6.13-8.526
				c3.979,1.4,7.219-0.137,11.201,1.211c2.205,0.692,4.379,1.46,6.6,2.104l6.691,1.923c2.227,0.648,4.428,1.419,6.659,2.042
				c2.233,0.615,4.506,1.025,6.822,1.196c4.628,0.367,15.67,1.238,15.67,1.238l-1.333-2.732
				C373.17,226.24,364.638,221.803,360.225,220.446z M309.041,223.738c-2.441,3.304-5.181,6.904-7.732,10.125
				c-4.639,5.806-7.518,12.65-12.246,18.391c-2.469-1.173-4.935-2.354-7.426-3.472l-9.354-4.232l-18.042-8.034
				c-6.578-6.438-13.304-12.719-20.141-18.884c-0.834-2.473-1.703-4.936-2.552-7.405c-0.876-2.503-1.737-5.012-2.64-7.507
				c2.002-6.161,3.952-12.342,5.814-18.554c1.949-6.505,6.063-17.137,6.725-17.657c0.663-0.521,7.931,0.295,12.526,1.337
				c4.708,1.005,9.421,1.986,14.148,2.865c4.718,0.948,9.465,1.688,14.196,2.541l12.464,1.956c1.569,3.132,3.193,6.235,4.877,9.311
				c1.946,3.6,3.992,7.15,6.063,10.688l6.199,10.62c1.94,3.333,2.456,6.527,4.292,9.913
				C314.01,218.893,311.352,220.664,309.041,223.738z M441.184,310.799c-4.81-2.271-9.663-4.429-14.493-6.648l-14.574-6.437
				c-4.869-2.118-9.595-4.603-14.658-6.226c-5.052-1.65-10.17-3.133-15.567-3.9c-0.084-0.012-0.173,0.024-0.225,0.098
				c-0.074,0.106-0.047,0.252,0.059,0.325c4.484,3.102,9.249,5.486,14.079,7.706c4.819,2.244,9.975,3.629,14.988,5.38l15.072,5.168
				c5.052,1.65,10.08,3.36,15.153,4.957c0.106,0.034,0.226-0.016,0.274-0.119C441.347,310.988,441.298,310.853,441.184,310.799z"/>
		</g>
	</g>
	<g id="&#x424;&#x438;&#x433;&#x443;&#x440;&#x430;_436">
		<g>
			<path style="fill-rule:evenodd;clip-rule:evenodd;fill:#3F4351;" d="M407.544,283.385l-90.833-148.361l-21.699,3.028
				L282.9,119.38l-123.129,17.662l8.579,19.681l-17.157,2.523l77.713,157.444l15.139-1.514l9.083,20.185l141.296-25.231
				l-10.093-22.708L407.544,283.385z M259.688,323.25c-2.018-4.036-6.055-14.634-10.092-17.157
				c-4.037-2.522-15.644,1.515-18.167-1.514c-2.523-3.027-63.583-131.203-63.583-135.745s12.616-4.542,13.12-7.064
				c0.505-2.523-8.074-15.14-6.56-17.662c1.514-2.523,100.421-16.148,104.963-15.14c4.541,1.01,5.551,14.635,12.11,17.158
				c6.561,2.522,17.157-2.523,21.194-0.505s81.246,126.662,80.741,129.689c-0.505,3.028-16.148,0.505-18.672,5.551
				c-2.522,5.047,5.552,17.662,5.552,21.194C380.295,305.589,261.707,327.287,259.688,323.25z"/>
		</g>
	</g>
	
		<g id="&#x417;&#x430;&#x43B;&#x438;&#x432;&#x43A;&#x430;_&#x446;&#x432;&#x435;&#x442;&#x43E;&#x43C;_222_&#x43A;&#x43E;&#x43F;&#x438;&#x44F;_3">
		<g>
			<path style="fill-rule:evenodd;clip-rule:evenodd;fill:#212530;" d="M447.833,309.115
				c-0.737-1.133-74.311-113.87-111.522-173.893c-2.665-4.301-4.957-8.029-6.935-11.25c-8.495-13.825-11.059-17.998-14.003-19.765
				c-1.302-0.782-2.967-1.13-5.396-1.13c-3.569,0-9.061,0.729-16.66,1.736c-4.254,0.564-9.073,1.203-14.481,1.838
				c-155.856,18.29-159.085,21.519-160.821,23.254c-2.652,2.652-4.334,9.308-5.255,14.198l-5.593,2.851
				c-0.05,0.025-0.1,0.053-0.149,0.08c-0.395,0.22-9.785,5.568-19.606,20.871c-9.077,14.14-8.015,34.056-7.965,34.896
				c0.032,0.554,0.166,1.096,0.394,1.602l93.483,207.119c0.2,0.443,0.471,0.853,0.801,1.21c0.298,0.324,7.417,7.972,16.089,11.349
				c3.005,1.169,6.743,1.763,11.112,1.763h0c3.542,0,6.4-0.399,7.017-0.493l14.041-1.598c0.072-0.008,0.146-0.018,0.217-0.029
				c1.15-0.188,115.736-18.915,177.32-31.869c6.478-1.361,12.517-2.461,17.847-3.433c15.732-2.865,22.245-4.051,24.303-8.343
				c2.476-5.152-1.083-11.947-4.851-19.14c-0.749-1.433-1.474-2.813-2.077-4.069c-3.042-6.346-7.595-15.364-8.979-18.098
				c0.011-0.943,0.224-3.176,1.713-6.378c1.247-2.68,3.781-5.529,5.246-7l7.658-2.212c1.076-0.311,1.999-1.007,2.594-1.957
				l4.51-7.224C448.819,312.504,448.8,310.596,447.833,309.115z M328.591,140.008c24.204,39.04,63.719,100.276,88.667,138.745
				l-8.516,1.317l-88.525-142.324l6.501-0.765C327.321,137.958,327.943,138.965,328.591,140.008z M294.509,113.818
				c6.983-0.926,12.499-1.657,15.468-1.657c0.421,0,0.719,0.016,0.916,0.033c1.566,1.597,5.467,7.947,10.744,16.534
				c0.505,0.822,1.031,1.679,1.578,2.567l-26.568,3.125l-11.412-19.398C288.576,114.604,291.681,114.194,294.509,113.818z
				 M292.429,139.194c0.549,0.931,1.545,1.492,2.608,1.492c0.118,0,0.236-0.007,0.354-0.021l19.841-2.334l88.632,142.493
				l-21.987,3.401c-0.068,0.011-0.13,0.036-0.197,0.051c-0.105,0.023-0.211,0.046-0.314,0.082c-0.108,0.036-0.209,0.085-0.311,0.133
				c-0.059,0.027-0.119,0.044-0.177,0.075c-0.013,0.007-0.019,0.02-0.03,0.025c-0.325,0.186-0.606,0.428-0.839,0.712
				c-0.021,0.024-0.045,0.046-0.064,0.072c-0.218,0.282-0.379,0.604-0.486,0.948c-0.009,0.028-0.022,0.055-0.03,0.084
				c-0.092,0.331-0.12,0.682-0.093,1.04c0.003,0.045,0.002,0.087,0.007,0.131c0.004,0.034,0,0.067,0.006,0.102
				c0.046,0.3,0.162,0.566,0.287,0.826c0.026,0.057,0.023,0.118,0.054,0.173l0.016,0.027c0.002,0.003,0.003,0.006,0.005,0.01
				l11.171,20.246l-134.703,22.855l-8.861-18.829c-0.574-1.22-1.888-1.914-3.214-1.701l-14.021,2.225l-75.446-151.383l15.601-1.782
				c0.985-0.113,1.854-0.701,2.323-1.574c0.47-0.874,0.481-1.923,0.032-2.807l-8.617-16.946l118.966-15.959L292.429,139.194z
				 M416.92,369.041l-208.745,40.164c-0.04,0.008-0.074,0.024-0.113,0.034c-1.758,0.073-6.377-0.084-10.312-3.278
				c-4.216-3.422-6.592-9.362-7.062-17.655c-1.324-23.391,27.613-25.51,28.845-25.588c0.051-0.003,0.098-0.019,0.147-0.024
				c0.064-0.007,0.128-0.005,0.193-0.017l200.544-35.589c-0.271,0.487-0.544,0.974-0.778,1.478c-1.104,2.375-1.73,4.444-2.099,6.207
				c-1.499,4.143-3.723,11.354-4.156,18.693C413.089,358.462,415.317,365.036,416.92,369.041z M139.414,163.87l10.419-1.19
				l75.545,151.58l-11.565,1.836L139.414,163.87z M209.217,320.389l-2.499,7.27l-72.956-150.942c0.07-0.158,0.166-0.301,0.209-0.476
				l1.607-6.427l73.476,150.337C209.099,320.239,209.167,320.306,209.217,320.389z M226.734,344.216l-9.76-22.489l25.831-4.1
				l10.466,22.238L226.734,344.216z M251.398,346.309l-1.639,4.916l-26.17,4.644l2.091-5.344L251.398,346.309z M213.045,327.883
				l8.738,20.135l-2.337,5.973l-8.985-18.589L213.045,327.883z M394.342,325.566l-137.797,24.454l1.932-5.798l137.774-22.475
				L394.342,325.566z M259.08,337.989l-0.896-1.904l135.02-22.91l1.485,2.693L259.08,337.989z M278.678,115.816l1.764,2.998
				l-118.649,15.917l-2.008-3.95C184.493,127.287,222.922,122.365,278.678,115.816z M153.452,131.688l11.764,23.138l-28.186,3.222
				l-11.079-21.762C130.067,135.318,138.896,133.806,153.452,131.688z M121.325,147.848c0.283-1.743,0.658-3.558,1.057-5.229
				l9.224,18.118l-1.898,7.59l-9.067-18.76C120.975,149.049,121.223,148.474,121.325,147.848z M172.64,387.934L88.483,201.478
				c-0.087-3.564-0.018-18.401,6.57-28.665c8.144-12.688,15.727-17.445,16.345-17.82l4.123-2.101l93.332,193.1
				c-6.199,1.379-18.785,5.349-26.521,15.808C175.411,371.153,173.046,380.358,172.64,387.934z M207.225,416.338
				c-0.065,0.008-0.137,0.017-0.202,0.027c-0.025,0.004-2.539,0.396-5.699,0.396c-3.191,0-5.895-0.396-7.817-1.144
				c-5.595-2.178-10.688-7.004-12.232-8.553l-2.812-6.229c-1.671-6.454-3.629-21.267,7.521-36.337
				c7.27-9.827,19.903-13.265,24.913-14.281l3.403,7.04c-12.855,2.232-30.83,10.649-29.656,31.392
				c0.569,10.064,3.695,17.472,9.29,22.013c4.938,4.009,10.488,4.646,13.514,4.646c0.432,0,0.79-0.015,1.11-0.032l0.352,0.871
				L207.225,416.338z M213.59,415.613l-0.48-1.191l4.6-0.885l0.594,1.539L213.59,415.613z M426.95,360.798
				c0.645,1.345,1.418,2.825,2.221,4.357c1.423,2.715,4.218,8.052,4.598,10.494c-2.828,1.142-10.645,2.565-17.631,3.837
				c-5.386,0.981-11.49,2.093-18.087,3.481c-57.173,12.024-160.306,29.063-175.115,31.497l-0.694-1.8l199.527-38.391
				c0.921-0.177,1.709-0.773,2.132-1.611c0.422-0.838,0.432-1.824,0.025-2.672c-1.35-2.816-4.79-11.212-4.497-16.167
				c0.13-2.196,0.453-4.397,0.87-6.505C422.266,351.237,424.944,356.613,426.95,360.798z M427.731,317.981
				c-0.203,0.184-0.993,0.918-2.027,2.02l-25.789,4.576l1.501-3.002l28.029-4.562C428.811,317.209,428.223,317.533,427.731,317.981z
				 M401.372,315.449l-14.289-25.9l33.788-5.227c7.379,11.37,13.184,20.287,16.436,25.277L401.372,315.449z"/>
		</g>
	</g>
	<g id="&#x417;&#x430;&#x43B;&#x438;&#x432;&#x43A;&#x430;_&#x446;&#x432;&#x435;&#x442;&#x43E;&#x43C;_232">
		<g>
			<path style="fill-rule:evenodd;clip-rule:evenodd;fill:#31343E;" d="M315.439,204.79c-1.172-2.266-2.326-3.714-3.462-4.348
				c-0.778-0.433-1.704-0.65-2.778-0.65c-0.49,0-1.012,0.046-1.564,0.137l-10.662,1.759c-1.764,0.29-2.818,0.875-3.172,1.752
				c-0.354,0.88,0.057,2.451,1.229,4.717l7.203,13.92c1.174,2.267,2.326,3.716,3.462,4.348c0.778,0.434,1.703,0.651,2.773,0.651
				c0.493,0,1.016-0.046,1.57-0.138l10.662-1.759c1.761-0.289,2.817-0.872,3.173-1.752c0.352-0.878-0.057-2.45-1.229-4.716
				L315.439,204.79z M309.383,219.374c-0.125-0.211-0.269-0.469-0.43-0.779l-5.345-10.33l4.681-0.772
				c0.126,0.211,0.27,0.467,0.429,0.777l5.348,10.332L309.383,219.374z M353.117,225.37c-0.368-3.88-1.762-8.115-4.264-12.949
				l-7.588-14.662c-2.381-4.601-5.134-8.474-8.181-11.513c-3.15-3.142-6.647-5.582-10.39-7.251
				c-3.703-1.647-7.676-2.639-11.817-2.948c-1.147-0.086-2.321-0.129-3.491-0.129c-2.787,0-5.686,0.244-8.615,0.728l-11.68,1.926
				c-4.267,0.703-8.037,1.823-11.203,3.327c-3.871,1.843-6.84,4.414-8.828,7.646c-0.857,1.395-1.451,2.919-1.889,4.516
				c-3.648-5.736-9.318-8.876-16.174-8.876c-1.333,0-2.729,0.118-4.15,0.353l-42.448,7c-6.115,1.009-9.729,5.789-8.791,11.626
				l0.193,1.197l0.558,1.078l14.743,28.491c1.361,2.626,3.396,4.646,5.887,5.854c0.54,0.263,1.094,0.486,1.66,0.67
				c-1.046,2.691-1.417,6.598,1.149,11.558c3.521,6.808,9.848,10.558,17.813,10.558c1.554,0,3.202-0.141,4.895-0.42l24.372-4.02
				c10.264-1.691,17.047-5.699,20.16-11.905c0.758-1.511,1.268-3.104,1.553-4.768c2.615,2.266,5.424,4.097,8.396,5.418
				c3.684,1.644,7.659,2.636,11.808,2.946c1.143,0.086,2.316,0.129,3.486,0.129c2.785,0,5.686-0.246,8.62-0.729l11.678-1.925
				c4.27-0.703,8.04-1.824,11.207-3.329c3.863-1.835,6.833-4.407,8.824-7.645C352.705,233.921,353.548,229.9,353.117,225.37z
				 M266.614,209.52c0.143,0.368,0.261,0.725,0.419,1.1c-0.286-0.12-0.57-0.243-0.861-0.355
				C266.336,210.029,266.467,209.768,266.614,209.52z M263.646,251.661l-24.371,4.019c-1.293,0.213-2.515,0.32-3.663,0.32
				c-5.163,0-8.86-2.155-11.091-6.468c-1.363-2.635-1.449-4.752-0.254-6.35c1.193-1.599,3.517-2.681,6.969-3.251l23.763-3.918
				c3.656-0.604,4.927-1.979,3.814-4.131c-0.896-1.732-2.568-2.598-5.015-2.598c-0.668,0-1.396,0.063-2.181,0.194l-29.957,4.94
				c-0.351,0.058-0.692,0.086-1.026,0.086c-0.831,0-1.613-0.178-2.346-0.535c-1.032-0.5-1.851-1.34-2.463-2.52l-14.743-28.492
				c-0.265-1.644,0.585-2.63,2.549-2.953l42.448-7c1.02-0.168,1.993-0.252,2.918-0.252c4.727,0,8.226,2.192,10.494,6.577
				c2.714,5.243,0.889,8.391-5.475,9.44l-27.114,4.471l2.964,5.727l16.756-2.762c2.401-0.396,4.682-0.595,6.843-0.595
				c4.115,0,7.799,0.719,11.045,2.153c4.955,2.189,8.949,6.215,11.981,12.077C282.756,241.943,278.475,249.215,263.646,251.661z
				 M344.166,233.355c-1.219,1.979-3.096,3.572-5.631,4.775c-2.536,1.206-5.598,2.105-9.186,2.696l-11.679,1.925
				c-2.538,0.419-5.001,0.629-7.389,0.629c-0.987,0-1.962-0.036-2.923-0.108c-3.287-0.245-6.385-1.016-9.298-2.315
				c-2.914-1.295-5.622-3.196-8.128-5.696s-4.774-5.711-6.803-9.632l-7.588-14.662c-2.029-3.92-3.18-7.314-3.453-10.184
				c-0.271-2.869,0.2-5.293,1.418-7.272c1.217-1.978,3.095-3.568,5.63-4.775c2.536-1.204,5.597-2.104,9.186-2.694l11.679-1.927
				c2.537-0.419,4.998-0.627,7.385-0.627c0.988,0,1.964,0.035,2.926,0.107c3.287,0.246,6.386,1.017,9.3,2.313
				c2.913,1.299,5.62,3.198,8.128,5.698s4.773,5.711,6.803,9.632l7.588,14.662c2.029,3.92,3.18,7.315,3.451,10.185
				S345.383,231.376,344.166,233.355z"/>
		</g>
	</g>
	<g id="_x35_0_&#x43A;&#x43E;&#x43F;&#x438;&#x44F;">
		<g>
			<path style="fill-rule:evenodd;clip-rule:evenodd;fill:#F1AC54;" d="M345.58,226.085c-0.272-2.869-1.424-6.265-3.452-10.186
				l-7.587-14.662c-2.029-3.92-4.297-7.13-6.803-9.631s-5.217-4.399-8.129-5.698c-2.913-1.297-6.013-2.067-9.299-2.313
				c-3.286-0.245-6.724-0.072-10.311,0.52l-11.679,1.926c-3.589,0.592-6.651,1.491-9.187,2.695
				c-2.535,1.206-4.412,2.798-5.629,4.775c-1.218,1.979-1.689,4.403-1.417,7.272s1.423,6.264,3.452,10.184l7.587,14.662
				c2.028,3.92,4.297,7.132,6.804,9.633c2.506,2.5,5.215,4.399,8.127,5.696c2.913,1.299,6.012,2.069,9.299,2.314
				c3.285,0.246,6.723,0.071,10.312-0.521l11.679-1.926c3.587-0.591,6.649-1.489,9.186-2.695c2.535-1.204,4.412-2.796,5.629-4.775
				C345.38,231.378,345.853,228.954,345.58,226.085z M323.869,223.427c-0.354,0.879-1.41,1.462-3.17,1.753l-10.663,1.758
				c-1.761,0.29-3.208,0.12-4.344-0.514c-1.136-0.632-2.289-2.081-3.462-4.347l-7.204-13.921c-1.172-2.266-1.582-3.837-1.228-4.716
				c0.354-0.878,1.41-1.463,3.171-1.753l10.663-1.759c1.76-0.29,3.207-0.118,4.344,0.514c1.135,0.634,2.289,2.082,3.461,4.348
				l7.205,13.921C323.814,220.978,324.223,222.549,323.869,223.427z M264.51,217.766c-4.953-2.188-10.917-2.709-17.89-1.56
				l-16.755,2.764l-2.964-5.728l27.114-4.472c6.363-1.049,8.189-4.195,5.476-9.439c-2.714-5.243-7.186-7.352-13.414-6.325l-42.448,7
				c-1.964,0.324-2.813,1.31-2.549,2.954l14.743,28.491c0.611,1.18,1.431,2.02,2.462,2.52c1.03,0.501,2.154,0.649,3.373,0.448
				l29.958-4.939c3.656-0.604,6.055,0.198,7.195,2.403c1.113,2.151-0.158,3.528-3.814,4.131l-23.763,3.918
				c-3.453,0.569-5.776,1.653-6.97,3.251c-1.195,1.598-1.108,3.715,0.255,6.35c2.728,5.271,7.646,7.319,14.754,6.147l24.372-4.019
				c14.826-2.445,19.109-9.718,12.847-21.818C273.458,223.981,269.463,219.956,264.51,217.766z"/>
		</g>
	</g>
	<g id="_x35_0_&#x43A;&#x43E;&#x43F;&#x438;&#x44F;_2">
		<g>
			<path style="fill-rule:evenodd;clip-rule:evenodd;fill:#F5CB7F;" d="M259.49,199.331c-2.714-5.243-7.186-7.352-13.414-6.325
				l-5.849,0.965l19.575,12.078C261.051,204.434,260.979,202.211,259.49,199.331z M327.738,191.606
				c-2.506-2.501-5.217-4.399-8.129-5.698c-2.913-1.297-6.013-2.067-9.299-2.313c-2.425-0.181-4.934-0.13-7.523,0.145l30.048,14.478
				C331.262,195.64,329.565,193.43,327.738,191.606z M214.386,228.673l1.438,2.778c0.611,1.18,1.431,2.02,2.462,2.52
				c1.03,0.501,2.154,0.649,3.373,0.448l2.099-0.346L214.386,228.673z M247.473,216.089c-0.286,0.042-0.563,0.069-0.853,0.117
				l-16.755,2.764l-2.964-5.728l12.37-2.04l-22.446-13.372l-13.195,2.176c-1.964,0.324-2.813,1.31-2.549,2.954l5.926,11.452
				l34.847,16.677l9.762-1.609c3.656-0.604,6.055,0.198,7.195,2.403c1.113,2.151-0.158,3.528-3.814,4.131l-2.122,0.35l22.6,10.816
				c3.686-2.98,4.649-7.206,2.953-12.649L247.473,216.089z M231.234,239.932c-3.453,0.569-5.776,1.653-6.97,3.251
				c-1.195,1.598-1.108,3.715,0.255,6.35c2.728,5.271,7.646,7.319,14.754,6.147l17.088-2.817l-23.036-13.275L231.234,239.932z
				 M323.072,224.329c-0.551,0.385-1.32,0.677-2.373,0.851l-10.663,1.758c-1.761,0.29-3.208,0.12-4.344-0.514
				c-1.136-0.632-2.289-2.081-3.462-4.347l-7.204-13.921c-0.147-0.286-0.247-0.528-0.371-0.792l-21.617-12.905
				c-0.843,1.794-1.181,3.889-0.949,6.324c0.272,2.869,1.423,6.264,3.452,10.184l3.643,7.04l39.763,24.535l10.401-1.716
				c3.587-0.591,6.649-1.489,9.186-2.695c1.423-0.676,2.615-1.487,3.623-2.407L323.072,224.329z"/>
		</g>
	</g>
</g>
</svg>
