<?xml version="1.0" encoding="iso-8859-1"?>
<!-- Generator: Adobe Illustrator 15.0.0, SVG Export Plug-In . SVG Version: 6.00 Build 0)  -->
<!DOCTYPE svg PUBLIC "-//W3C//DTD SVG 1.1//EN" "http://www.w3.org/Graphics/SVG/1.1/DTD/svg11.dtd" [
	<!ENTITY ns_extend "http://ns.adobe.com/Extensibility/1.0/">
	<!ENTITY ns_ai "http://ns.adobe.com/AdobeIllustrator/10.0/">
	<!ENTITY ns_graphs "http://ns.adobe.com/Graphs/1.0/">
	<!ENTITY ns_vars "http://ns.adobe.com/Variables/1.0/">
	<!ENTITY ns_imrep "http://ns.adobe.com/ImageReplacement/1.0/">
	<!ENTITY ns_sfw "http://ns.adobe.com/SaveForWeb/1.0/">
	<!ENTITY ns_custom "http://ns.adobe.com/GenericCustomNamespace/1.0/">
	<!ENTITY ns_adobe_xpath "http://ns.adobe.com/XPath/1.0/">
]>
<svg version="1.1" xmlns:x="&ns_extend;" xmlns:i="&ns_ai;" xmlns:graph="&ns_graphs;"
	 xmlns="http://www.w3.org/2000/svg" xmlns:xlink="http://www.w3.org/1999/xlink" x="0px" y="0px" width="512px" height="512px"
	 viewBox="0 0 512 512" style="enable-background:new 0 0 512 512;" xml:space="preserve">
<metadata>
	<sfw  xmlns="&ns_sfw;">
		<slices></slices>
		<sliceSourceBounds  height="512" width="512" x="94" y="94" bottomLeftOrigin="true"></sliceSourceBounds>
	</sfw>
</metadata>
<g id="&#x418;&#x437;&#x43E;&#x431;&#x440;&#x430;&#x436;&#x435;&#x43D;&#x438;&#x435;_xA0_17_1_">
	<g id="&#x417;&#x430;&#x43B;&#x438;&#x432;&#x43A;&#x430;_&#x446;&#x432;&#x435;&#x442;&#x43E;&#x43C;_1">
		<g>
			<rect x="3.699" y="4.439" style="fill-rule:evenodd;clip-rule:evenodd;fill:#B17D7B;" width="503.121" height="503.121"/>
		</g>
	</g>
	<g id="&#x417;&#x430;&#x43B;&#x438;&#x432;&#x43A;&#x430;_&#x446;&#x432;&#x435;&#x442;&#x43E;&#x43C;_5">
		<g>
			<path style="fill-rule:evenodd;clip-rule:evenodd;fill:#F3D4C3;" d="M484.624,25.156l20.717-20.717H3.699l20.717,20.717H484.624z
				 M24.416,486.844L3.699,507.561h501.642l-20.717-20.717H24.416z"/>
		</g>
	</g>
	
		<g id="&#x417;&#x430;&#x43B;&#x438;&#x432;&#x43A;&#x430;_&#x446;&#x432;&#x435;&#x442;&#x43E;&#x43C;_1_&#x43A;&#x43E;&#x43F;&#x438;&#x44F;_2">
		<g>
			<radialGradient id="SVGID_1_" cx="256.7402" cy="256" r="228.0762" gradientUnits="userSpaceOnUse">
				<stop  offset="0" style="stop-color:#7D7193"/>
				<stop  offset="0.2" style="stop-color:#7C7193"/>
				<stop  offset="0.4" style="stop-color:#6C6382"/>
				<stop  offset="0.5939" style="stop-color:#554E6B"/>
				<stop  offset="0.7515" style="stop-color:#3E3A53"/>
				<stop  offset="0.897" style="stop-color:#29273A"/>
				<stop  offset="1" style="stop-color:#232132"/>
			</radialGradient>
			<polygon style="fill-rule:evenodd;clip-rule:evenodd;fill:url(#SVGID_1_);" points="432.765,27.924 78.856,27.924 28.664,78.116 
				28.664,435.769 76.972,484.076 433.367,484.076 484.816,432.627 484.816,79.976 			"/>
		</g>
	</g>
	
		<g id="&#x417;&#x430;&#x43B;&#x438;&#x432;&#x43A;&#x430;_&#x446;&#x432;&#x435;&#x442;&#x43E;&#x43C;_1_&#x43A;&#x43E;&#x43F;&#x438;&#x44F;">
		<g>
			<path style="fill-rule:evenodd;clip-rule:evenodd;fill:#F2D2C0;" d="M25.109,24.37v463.26h463.26V24.37H25.109z M466.659,418.566
				l-47.353,47.353H91.283l-44.462-44.462V92.277l46.196-46.196h325.734l47.908,47.907V418.566z"/>
		</g>
	</g>
	<g id="&#x424;&#x438;&#x433;&#x443;&#x440;&#x430;_3">
		<g>
			<path style="fill-rule:evenodd;clip-rule:evenodd;fill:#A18180;" d="M429.873,25.156l-344.047-1.48l-62.15,62.891v342.566
				l59.931,59.19l344.046-0.739l59.931-59.191V84.347L429.873,25.156z M477.226,423.954l-56.231,54.751H91.006l-56.231-54.751
				V88.046l54.012-54.012h334.428l54.751,56.231L477.226,423.954z"/>
		</g>
	</g>
	<g id="&#x417;&#x430;&#x43B;&#x438;&#x432;&#x43A;&#x430;_&#x446;&#x432;&#x435;&#x442;&#x43E;&#x43C;_6">
		<g>
			<path style="fill-rule:evenodd;clip-rule:evenodd;fill:#C7907F;" d="M23.676,86.566l62.52-62.752l-62.52-0.139V86.566z
				 M487.584,23.63l-62.521,0.139l62.521,62.752V23.63z M22.196,488.37l62.521-0.139l-62.521-62.752V488.37z M425.803,488.971
				l62.521,0.139v-62.89L425.803,488.971z"/>
		</g>
	</g>
	
		<g id="&#x417;&#x430;&#x43B;&#x438;&#x432;&#x43A;&#x430;_&#x446;&#x432;&#x435;&#x442;&#x43E;&#x43C;_6_&#x43A;&#x43E;&#x43F;&#x438;&#x44F;">
		<g>
			<path style="fill-rule:evenodd;clip-rule:evenodd;fill:#FDECE7;" d="M54.694,55.434l31.502-31.619l-59.314,3.562L54.694,55.434z
				 M27.964,485.886l56.753,2.346L55.27,458.579L27.964,485.886z M425.803,488.971l59.314-3.113l-28.158-28.158L425.803,488.971z
				 M485.117,26.582l-60.054-2.813l31.376,31.491L485.117,26.582z"/>
		</g>
	</g>
	<g id="&#x424;&#x438;&#x433;&#x443;&#x440;&#x430;_1">
		<g>
			<path style="fill-rule:evenodd;clip-rule:evenodd;fill:#C7907F;" d="M34.774,487.769l0.093-9.156h-8.417L34.774,487.769z
				 M477.04,477.873l0.093,9.155l8.323-9.155H477.04z M476.393,25.804l-0.092,9.156h8.416L476.393,25.804z M26.451,34.96h8.417
				l-0.093-9.156L26.451,34.96z"/>
		</g>
	</g>
	<g id="&#x424;&#x438;&#x433;&#x443;&#x440;&#x430;_2">
		<g>
			<path style="fill-rule:evenodd;clip-rule:evenodd;fill:#FDECE7;" d="M22.597,480.813L9.026,497.72l-1.627,10.285l22.418-0.296
				l0.532-18.644l-3.492-6.957L22.597,480.813z M508.448,495.817l-18.855-14.581l-4.261,4.043l-3.068,4.209l2.646,16.529
				l23.688,1.353L508.448,495.817z M21.002,31.648l4.26-1.295l3.492-6.956L28.222,4.754L5.803,4.458l1.628,10.284L21.002,31.648z
				 M487.997,31.226l18.856-14.581l0.147-11.553l-23.687,1.353l-2.646,16.53l3.069,4.208L487.997,31.226z"/>
		</g>
	</g>
	<g id="&#x417;&#x430;&#x43B;&#x438;&#x432;&#x43A;&#x430;_&#x446;&#x432;&#x435;&#x442;&#x43E;&#x43C;_2">
		<g>
			<path style="fill-rule:evenodd;clip-rule:evenodd;fill:#2F181B;" d="M0,0v512h512V0H0z M503.121,503.121H8.878V8.879h494.243
				V503.121z"/>
		</g>
	</g>
	<g id="&#x417;&#x430;&#x43B;&#x438;&#x432;&#x43A;&#x430;_&#x446;&#x432;&#x435;&#x442;&#x43E;&#x43C;_3">
		<g>
			<path style="fill-rule:evenodd;clip-rule:evenodd;fill:#40292E;" d="M482.33,20.67H29.346l-9.369,9.369v397.468
				c-0.119,0.585-0.119,1.188,0,1.771v53.925l9.606,9.605h453.025l9.507-9.507V30.455L482.33,20.67z M28.855,34.183l4.633-4.634
				h40.974L28.855,75.156V34.183z M33.726,483.931l-4.871-4.871v-39.857l44.728,44.729H33.726z M483.237,479.158l-4.772,4.772
				H437.63l45.607-45.607V479.158z M483.237,425.769l-58.162,58.162H86.139l-57.283-57.283V87.711l58.162-58.162h338.058
				l58.162,58.162V425.769z M483.237,75.156L437.63,29.549h40.558l5.05,5.05V75.156z"/>
		</g>
	</g>
	
		<g id="&#x417;&#x430;&#x43B;&#x438;&#x432;&#x43A;&#x430;_&#x446;&#x432;&#x435;&#x442;&#x43E;&#x43C;_4_&#x43A;&#x43E;&#x43F;&#x438;&#x44F;" style="opacity:0.502;">
		<g>
			<path style="fill-rule:evenodd;clip-rule:evenodd;fill:#876867;" d="M465.59,92.913l-47.243-47.244
				c-0.685-0.685-1.612-1.068-2.579-1.068H94.545c-0.968,0-1.896,0.384-2.58,1.068L46.409,91.227
				c-0.684,0.684-1.069,1.611-1.069,2.579v324.619c0,0.968,0.385,1.896,1.069,2.579l43.847,43.847
				c0.684,0.684,1.612,1.068,2.579,1.068h323.479c0.968,0,1.896-0.385,2.579-1.068l46.696-46.696
				c0.685-0.685,1.069-1.612,1.069-2.58V95.493C466.659,94.525,466.274,93.598,465.59,92.913z M459.363,414.063l-44.56,44.56H94.346
				l-41.709-41.709V95.316l43.419-43.419h318.201l45.106,45.106V414.063z"/>
		</g>
	</g>
	<g id="&#x417;&#x430;&#x43B;&#x438;&#x432;&#x43A;&#x430;_&#x446;&#x432;&#x435;&#x442;&#x43E;&#x43C;_4">
		<g>
			<path style="fill-rule:evenodd;clip-rule:evenodd;fill:#40292E;" d="M468.534,90.633l-47.907-47.907
				c-0.693-0.694-1.635-1.084-2.615-1.084H92.277c-0.981,0-1.922,0.39-2.616,1.084L43.465,88.922
				c-0.693,0.693-1.083,1.635-1.083,2.615v329.18c0,0.981,0.39,1.922,1.083,2.615l44.463,44.463
				c0.694,0.693,1.634,1.084,2.615,1.084h328.023c0.981,0,1.922-0.391,2.615-1.084l47.353-47.353
				c0.694-0.694,1.084-1.635,1.084-2.616V93.248C469.618,92.268,469.229,91.326,468.534,90.633z M462.22,416.295l-45.186,45.185
				H92.075L49.78,419.185V93.07l44.029-44.03h322.67l45.74,45.741V416.295z"/>
		</g>
	</g>
</g>
<g id="&#x413;&#x440;&#x443;&#x43F;&#x43F;&#x430;_70_1_">
	<g id="&#x424;&#x438;&#x433;&#x443;&#x440;&#x430;_433" style="opacity:0.502;">
		<g>
			<path style="fill-rule:evenodd;clip-rule:evenodd;fill:#191825;" d="M211.714,421.487c-13,1.071-21.293,0.284-28.729-7.151
				c-9.84-9.84-98.403-213.458-98.403-213.458s-1.11-17.679,6.187-30.963c7.461-13.584,23.334-22.78,23.334-22.78l7.45-13.221
				l68.245-12.516c0,0-65.097-3.027-70.396-0.757c-5.299,2.271-28.764,16.653-33.306,25.736
				c-4.542,9.083-24.979,91.59-23.465,99.159c1.514,7.57,87.806,164.257,96.132,174.098c8.327,9.84,125.653,27.25,125.653,27.25
				l-23.466-33.306C260.949,413.579,233.202,419.715,211.714,421.487z M434.29,320.475l-15.896,21.194l14.382,34.063l-85.787,22.456
				c0,0,78.675-0.971,103.888-9.53c4.317-1.466,6.578-5.604,7.132-7.374C460.942,371.891,434.29,320.475,434.29,320.475z"/>
		</g>
	</g>
	<g id="&#x424;&#x438;&#x433;&#x443;&#x440;&#x430;_412_&#x43A;&#x43E;&#x43F;&#x438;&#x44F;_2">
		<g>
			<path style="fill-rule:evenodd;clip-rule:evenodd;fill:#77516E;" d="M430.253,320.728l8.736-2.523l4.51-7.223
				c0,0-73.909-113.22-111.58-173.983c-12.697-20.48-16.892-27.998-19.415-29.513c-2.522-1.514-14.555,0.817-33.672,3.061
				c-94.886,11.135-155.615,19.432-158.138,21.954c-2.523,2.523-4.384,14.004-4.384,14.004l-7.614,3.88
				c0,0-8.677,4.839-17.997,19.358c-8.381,13.058-7.253,32.177-7.253,32.177l66.26,144.464c-0.007,0.021-0.027,0.08-0.027,0.08
				l0.044-0.043l10.545,22.99c0.004,0.161,0.008,0.267,0.008,0.267l0.077-0.081l18.09,39.441c0,0,5.092,7.161,12.884,10.194
				c6.465,2.517,15.879,1.002,15.879,1.002l14.129-1.608c0,0,114.922-18.747,177.117-31.83c21.027-4.424,37.455-6.098,38.99-9.297
				c1.881-3.919-3.947-13.062-6.93-19.28c-3.625-7.561-10.858-18.819-10.858-18.819s0.192-0.839,0.685-2.34
				c1.282-3.055,2.343-5.229,2.343-5.229l-0.404,0.15c0.287-0.667,0.602-1.373,0.947-2.116
				C425.445,325.091,430.253,320.728,430.253,320.728z"/>
		</g>
	</g>
	<g id="&#x424;&#x438;&#x433;&#x443;&#x440;&#x430;_415_&#x43A;&#x43E;&#x43F;&#x438;&#x44F;_6">
		<g>
			<path style="fill-rule:evenodd;clip-rule:evenodd;fill:#DBB995;" d="M430.253,322.241l-214.468,37.343
				c0,0-10.104,0.505-18.465,7.318c-4.926,4.015-9.576,12.855-10.309,17.983c-0.81,5.669,1.882,16.883,6.756,21.955
				c5.966,6.208,14.449,5.729,14.449,5.729l211.439-41.885c0,0-4.263-14.272-1.979-26.454
				C419.935,332.192,430.253,322.241,430.253,322.241z"/>
		</g>
	</g>
	<g id="&#x424;&#x438;&#x433;&#x443;&#x440;&#x430;_416_&#x43A;&#x43E;&#x43F;&#x438;&#x44F;_2">
		<g>
			<path style="fill-rule:evenodd;clip-rule:evenodd;fill:#A96F57;" d="M200.772,397.305v6.813l217.125-39.114l-1.774-5.545
				L200.772,397.305z M200.772,371.947l0.183,6.972l217.061-38.385l0.757-6.813L200.772,371.947z M416.88,346.211l-216.107,38.226
				l0.378,6.435l215.305-38.801L416.88,346.211z"/>
		</g>
	</g>
	<g id="&#x424;&#x438;&#x433;&#x443;&#x440;&#x430;_415_&#x43A;&#x43E;&#x43F;&#x438;&#x44F;_7">
		<g>
			<path style="fill-rule:evenodd;clip-rule:evenodd;fill:#A96F57;" d="M215.785,359.584c0,0-10.104,0.505-18.465,7.318
				c-4.926,4.015-9.576,12.855-10.309,17.983c-0.81,5.669,1.882,16.883,6.756,21.955c5.966,6.208,14.449,5.729,14.449,5.729
				l42.356-8.034l12.27-17.828l20.689-2.776l14.004-16.4l29.646-4.92l16.779-15.265l77.077-12.483
				c3.841-7.419,9.215-12.622,9.215-12.622L215.785,359.584z"/>
		</g>
	</g>
	<g id="&#x424;&#x438;&#x433;&#x443;&#x440;&#x430;_415_&#x43A;&#x43E;&#x43F;&#x438;&#x44F;_8">
		<g>
			<path style="fill-rule:evenodd;clip-rule:evenodd;fill:#7F5544;" d="M215.785,359.584c0,0-10.104,0.505-18.465,7.318
				c-4.926,4.015-9.576,12.855-10.309,17.983c-0.81,5.669,1.882,16.883,6.756,21.955c5.966,6.208,14.449,5.729,14.449,5.729
				l10.942-2.356l11.892-18.208l15.77-2.396l9.84-15.266l24.727-4.541l17.536-14.509l63.831-10.969l9.593-11.865L215.785,359.584z"
				/>
		</g>
	</g>
	
		<g id="&#x417;&#x430;&#x43B;&#x438;&#x432;&#x43A;&#x430;_&#x446;&#x432;&#x435;&#x442;&#x43E;&#x43C;_227_&#x43A;&#x43E;&#x43F;&#x438;&#x44F;_2">
		<g>
			<path style="fill-rule:evenodd;clip-rule:evenodd;fill:#482821;" d="M423.811,333.178c-0.224-1.233-1.413-2.046-2.639-1.832
				l-217.597,39.258v-6.366c0-1.253-1.017-2.271-2.271-2.271c-1.255,0-2.271,1.018-2.271,2.271v46.553
				c0,1.253,1.016,2.271,2.271,2.271c1.254,0,2.271-1.018,2.271-2.271v-10.9l213.858-38.337c1.235-0.222,2.057-1.401,1.835-2.636
				c-0.22-1.234-1.401-2.051-2.636-1.835l-213.058,38.193v-8.633l214.996-38.715c1.234-0.223,2.055-1.402,1.833-2.638
				c-0.224-1.235-1.41-2.041-2.638-1.833l-214.191,38.569v-6.807l218.403-39.403C423.213,335.594,424.032,334.412,423.811,333.178z"
				/>
		</g>
	</g>
	<g id="&#x424;&#x438;&#x433;&#x443;&#x440;&#x430;_417_&#x43A;&#x43E;&#x43F;&#x438;&#x44F;_4">
		<g>
			<path style="fill-rule:evenodd;clip-rule:evenodd;fill:#462D52;" d="M219.822,409.542c0,0-11.805,4.032-22.408-0.609
				c-6.744-2.951-10.206-13.083-10.296-20.093c-0.068-5.236,1.796-15.376,9.867-21.831c9.557-7.643,21.323-7.93,21.323-7.93
				L116.374,147.135c0,0-19.172,5.359-28.278,24.999c-5.811,12.534-5.532,28.996-5.532,28.996l87.301,195.797
				c0,0,6.828,16.909,17.872,21.721c14.07,6.129,33.095,0.482,33.095,0.482L219.822,409.542z"/>
		</g>
	</g>
	<g id="&#x424;&#x438;&#x433;&#x443;&#x440;&#x430;_417_&#x43A;&#x43E;&#x43F;&#x438;&#x44F;_5">
		<g>
			<path style="fill-rule:evenodd;clip-rule:evenodd;fill:#301E3D;" d="M219.822,409.542c0,0-11.805,4.032-22.408-0.609
				c-6.744-2.951-10.206-13.083-10.296-20.093c-0.017-1.275,0.084-2.845,0.359-4.578L87.586,173.329
				c-5.267,12.361-5.022,27.801-5.022,27.801l87.301,195.797c0,0,6.828,16.909,17.872,21.721c14.07,6.129,33.095,0.482,33.095,0.482
				L219.822,409.542z"/>
		</g>
	</g>
	<g id="&#x424;&#x438;&#x433;&#x443;&#x440;&#x430;_427">
		<g>
			<polygon style="fill-rule:evenodd;clip-rule:evenodd;fill:#5E476A;" points="108.804,152.686 97.702,159.751 190.049,356.052 
				203.169,349.996 			"/>
		</g>
	</g>
	<g id="&#x424;&#x438;&#x433;&#x443;&#x440;&#x430;_418_&#x43A;&#x43E;&#x43F;&#x438;&#x44F;_2">
		<g>
			<path style="fill-rule:evenodd;clip-rule:evenodd;fill:#AF3C34;" d="M160.276,257.144h8.579l-14.13-28.764l-8.074,1.515
				c0,0-14.407,5.766-21.799,17.669c-7.494,12.065-7.974,30.271-7.974,30.271l14.13,28.764c0,0,0.147-21.039,7.916-32.567
				C146.798,262.347,160.276,257.144,160.276,257.144z M183.489,305.084h9.083l-5.046-10.598l-8.074,1.01
				c0,0-15.004,5.978-23.829,16.848c-8.582,10.572-12,24.531-12,24.531l5.551,13.625c0,0,4.152-17.415,13.094-28.948
				C170.723,310.646,183.489,305.084,183.489,305.084z M124.447,181.954l8.074-0.505l-9.083-18.166l-7.569,0.505
				c0,0-12.679,6.478-20.018,18.342c-7.787,12.589-7.484,33.13-7.484,33.13l12.868,26.241c0,0,1.102-22.641,7.506-37.148
				C114.683,190.893,124.447,181.954,124.447,181.954z M201.151,342.931l9.083-1.514l-7.065-14.634h-9.083
				c0,0-17.97,2.66-26.926,15.305c-8.164,11.526-7.389,33.14-7.389,33.14l8.074,13.625c0,0,1.606-17.449,10.759-29.652
				C186.81,348.26,201.151,342.931,201.151,342.931z M219.822,410.047c0,0-13.889,4.274-23.249-0.945
				c-6.931-3.865-9-15.852-9.264-21.272c-0.249-5.12,2.819-14.694,8.532-19.559c9.056-7.711,22.466-9.696,22.466-9.696
				l-6.561-11.606c0,0-15.53,1.903-25.917,13.463c-7.638,8.501-10.873,19.645-11.356,33.018
				c-0.354,9.806,7.571,21.182,16.387,25.557c12.986,6.443,29.969,0.125,29.969,0.125L219.822,410.047z"/>
		</g>
	</g>
	<g id="&#x424;&#x438;&#x433;&#x443;&#x440;&#x430;_419_&#x43A;&#x43E;&#x43F;&#x438;&#x44F;_2">
		<g>
			<path style="fill-rule:evenodd;clip-rule:evenodd;fill:#E9825E;" d="M135.685,236.229l12.872,27.779
				c1.777-1.363,3.503-2.515,5.071-3.46L140.8,232.865C139.245,233.774,137.493,234.896,135.685,236.229z M105.484,171.05
				l9.972,21.522c1.462-2.084,2.887-3.904,4.162-5.422l-9.235-19.933C108.896,168.266,107.224,169.54,105.484,171.05z
				 M166.455,302.638l4.683,10.107c1.747-1.378,3.453-2.574,5.015-3.582l-4.527-9.771
				C170.012,300.316,168.254,301.4,166.455,302.638z M185.413,329.148c-1.743,0.639-3.629,1.435-5.553,2.418l8.507,18.36
				c1.784-1.271,3.538-2.365,5.15-3.287L185.413,329.148z"/>
		</g>
	</g>
	<g id="&#x424;&#x438;&#x433;&#x443;&#x440;&#x430;_420_&#x43A;&#x43E;&#x43F;&#x438;&#x44F;_2">
		<g>
			<path style="fill-rule:evenodd;clip-rule:evenodd;fill:#D4515B;" d="M89.135,203.859l12.907,28.699
				c0.378-3.211,0.923-7.011,1.692-11.001l-12.589-27.991C90.182,197.12,89.545,200.675,89.135,203.859z M117.943,267.916
				l13.643,30.334c0.352-3.148,0.926-6.868,1.847-10.657l-13.227-29.41C119.158,261.585,118.436,264.946,117.943,267.916z
				 M145.858,329.986l5.69,12.652c0.814-2.352,1.851-5.057,3.1-7.872l-5.507-12.246
				C147.778,325.212,146.694,327.778,145.858,329.986z M162.522,352.275c-1,3.428-1.639,6.961-2.05,10.205l8.601,19.125
				c0.578-2.619,1.412-5.73,2.586-9.014L162.522,352.275z"/>
		</g>
	</g>
	<g id="&#x424;&#x438;&#x433;&#x443;&#x440;&#x430;_421_&#x43A;&#x43E;&#x43F;&#x438;&#x44F;_2">
		<g>
			<path style="fill-rule:evenodd;clip-rule:evenodd;fill:#55405F;" d="M219.822,410.552l-10.597,2.019
				c0,0-9.441,0.235-15.394-5.276c-5.67-5.252-7.887-16.093-6.782-22.646c1.338-7.935,5.801-14.21,11.105-18.269
				c9.092-6.955,20.153-7.301,20.153-7.301l-7.065-12.111c0,0-13.529,1.162-24.055,11.776c-8.762,8.835-14.978,26.39-13.888,35.166
				c0.933,7.517,8.274,20.958,18.487,25.183c13.066,5.404,28.54,1.047,28.54,1.047L219.822,410.552z"/>
		</g>
	</g>
	<g id="&#x424;&#x438;&#x433;&#x443;&#x440;&#x430;_422_&#x43A;&#x43E;&#x43F;&#x438;&#x44F;_6">
		<g>
			<path style="fill-rule:evenodd;clip-rule:evenodd;fill:#E58D34;" d="M421.422,340.912c0,0-4.066,3.364-4.387,9.772
				c-0.423,8.446,2.873,20.506,2.873,20.506l-199.833,38.604v9.084c0,0,215.729-34.819,217.243-41.632
				S421.422,340.912,421.422,340.912z"/>
		</g>
	</g>
	<g id="&#x424;&#x438;&#x433;&#x443;&#x440;&#x430;_422_&#x43A;&#x43E;&#x43F;&#x438;&#x44F;_7">
		<g>
			<path style="fill-rule:evenodd;clip-rule:evenodd;fill:#F7AF66;" d="M220.075,409.794v9.084c0,0,63.457-10.243,121.781-20.704
				l2.185-12.327L220.075,409.794z"/>
		</g>
	</g>
	<g id="&#x424;&#x438;&#x433;&#x443;&#x440;&#x430;_422_&#x43A;&#x43E;&#x43F;&#x438;&#x44F;_8">
		<g>
			<path style="fill-rule:evenodd;clip-rule:evenodd;fill:#F2B67A;" d="M260.221,402.039l-5.082,11.069
				c17.259-2.876,39.191-6.58,61.812-10.53l5.798-12.618L260.221,402.039z"/>
		</g>
	</g>
	<g id="&#x424;&#x438;&#x433;&#x443;&#x440;&#x430;_423_&#x43A;&#x43E;&#x43F;&#x438;&#x44F;_4">
		<g>
			<path style="fill-rule:evenodd;clip-rule:evenodd;fill:#EBA45C;" d="M313.179,107.773l-192.264,24.728l-5.046,16.147
				l12.616,26.746l90.329,183.685l215.981-37.343l7.065-12.615L313.179,107.773z M395.434,309.625l-141.296,24.728l-10.597-19.176
				l-15.139,1.514l-77.713-157.949l18.167-1.514l-9.083-20.689L283.91,119.38l10.598,18.167l22.203-2.019l90.833,147.352
				l-24.222,4.542L395.434,309.625z"/>
		</g>
	</g>
	<g id="&#x424;&#x438;&#x433;&#x443;&#x440;&#x430;_423_&#x43A;&#x43E;&#x43F;&#x438;&#x44F;_5">
		<g>
			<polygon style="fill-rule:evenodd;clip-rule:evenodd;fill:#B64637;" points="398.461,318.204 254.137,341.922 223.859,347.473 
				211.244,318.204 134.54,162.273 120.764,133.69 115.869,148.648 128.484,175.395 218.813,359.079 434.794,321.736 
				439.128,312.234 			"/>
		</g>
	</g>
	<g id="&#x424;&#x438;&#x433;&#x443;&#x440;&#x430;_432">
		<g>
			<path style="fill-rule:evenodd;clip-rule:evenodd;fill:#F9D086;" d="M141.605,175.898l37.342,78.218l27.25,17.662l-41.884-85.787
				L141.605,175.898z M380.295,212.232l-28.26-19.681l44.912,72.162l23.718,11.102L380.295,212.232z"/>
		</g>
	</g>
	<g id="&#x424;&#x438;&#x433;&#x443;&#x440;&#x430;_425_&#x43A;&#x43E;&#x43F;&#x438;&#x44F;_2">
		<g>
			<path style="fill-rule:evenodd;clip-rule:evenodd;fill:#F9D086;" d="M121.924,134.015l46.426,22.203l-13.625-30.782
				L121.924,134.015z M224.679,347.063l31.295-5.03l-12.276-28.275L224.679,347.063z M381.809,287.422l17.701,29.789l42.854-6.576
				L381.809,287.422z M296.021,136.475l16.652-30.215l-30.939,5.906L296.021,136.475z"/>
		</g>
	</g>
	
		<g id="&#x417;&#x430;&#x43B;&#x438;&#x432;&#x43A;&#x430;_&#x446;&#x432;&#x435;&#x442;&#x43E;&#x43C;_228_&#x43A;&#x43E;&#x43F;&#x438;&#x44F;_2">
		<g>
			<path style="fill-rule:evenodd;clip-rule:evenodd;fill:#391717;" d="M148.18,231.268h7.581c1.254,0,2.271-1.017,2.271-2.271
				c0-1.255-1.017-2.271-2.271-2.271h-8.074c-0.305,0-0.607,0.062-0.888,0.181c-0.593,0.252-14.635,6.337-23.98,20.783
				c-7.73,11.951-6.713,29.17-6.666,29.897c0.078,1.202,1.077,2.124,2.264,2.124c0.049,0,0.098-0.001,0.148-0.006
				c1.25-0.079,2.2-1.159,2.121-2.409c-0.01-0.164-0.958-16.466,5.946-27.139C134.359,238.212,145.902,232.342,148.18,231.268z
				 M126.405,183.833h6.648c1.254,0,2.271-1.017,2.271-2.271c0-1.255-1.016-2.271-2.271-2.271h-7.57
				c-0.574,0-1.127,0.218-1.548,0.609c-0.508,0.474-12.524,11.766-18.021,25.746c-6.273,15.958-5.932,34.239-5.914,35.009
				c0.028,1.236,1.039,2.22,2.269,2.22c0.017,0,0.035-0.001,0.052-0.001c1.254-0.029,2.248-1.067,2.219-2.321
				c-0.003-0.181-0.331-18.157,5.6-33.244C114.567,196.052,123.902,186.315,126.405,183.833z M143.8,272.278
				c6.604-8.896,16.088-12.611,17.89-13.256h7.191c1.254,0,2.271-1.017,2.271-2.271c0-1.255-1.017-2.271-2.271-2.271h-7.569
				c-0.23,0-0.459,0.035-0.678,0.104c-0.498,0.156-12.282,3.945-20.48,14.985c-11.985,16.14-10.931,34.978-10.881,35.771
				c0.077,1.202,1.076,2.125,2.264,2.125c0.047,0,0.096-0.002,0.144-0.005c1.25-0.078,2.201-1.156,2.125-2.406
				C133.794,304.875,132.835,287.043,143.8,272.278z M116.847,166.208l6.457,0.462c1.271,0.089,2.338-0.853,2.427-2.104
				c0.089-1.251-0.853-2.337-2.103-2.427l-7.065-0.505c-0.37-0.025-0.74,0.038-1.079,0.188c-0.508,0.225-12.545,5.669-21.724,20.821
				c-8.991,14.845-5.966,31.917-5.833,32.637c0.203,1.093,1.157,1.858,2.231,1.858c0.137,0,0.276-0.013,0.416-0.039
				c1.233-0.228,2.047-1.413,1.82-2.646c-0.03-0.159-2.854-16.076,5.252-29.457C105.057,172.759,114.631,167.343,116.847,166.208z
				 M213.019,341.238c-0.161-1.245-1.297-2.125-2.543-1.961l-8.545,1.106c-0.151,0.02-0.301,0.055-0.445,0.104
				c-0.408,0.141-10.09,3.525-19.709,12.475c-14.485,13.476-15.624,32.556-15.666,33.361c-0.064,1.253,0.897,2.317,2.149,2.384
				c0.041,0.001,0.081,0.003,0.122,0.003c1.198,0,2.2-0.939,2.265-2.149c0.01-0.181,1.119-18.083,14.223-30.272
				c8.15-7.583,16.509-10.915,17.893-11.434l8.296-1.073C212.302,343.62,213.179,342.481,213.019,341.238z M171.699,342.115
				c9.769-12.883,22.876-12.901,23.396-12.95c0.057-0.004,0.118-0.001,0.178-0.004l7.569-0.504c1.251-0.085,2.198-1.167,2.115-2.418
				c-0.083-1.252-1.181-2.187-2.417-2.115l-7.492,0.5c-1.482,0.006-16.119,0.438-26.969,14.747
				c-10.317,13.603-9.576,30.334-9.54,31.04c0.063,1.213,1.065,2.151,2.266,2.151c0.039,0,0.078-0.002,0.117-0.003
				c1.251-0.063,2.216-1.13,2.153-2.382C163.068,370.021,162.409,354.363,171.699,342.115z M184.87,307.467h7.225
				c1.254,0,2.271-1.017,2.271-2.271s-1.017-2.271-2.271-2.271h-7.569c-0.21,0-0.419,0.03-0.621,0.088
				c-0.459,0.13-11.341,3.306-19.769,12.831c-9.447,10.68-15.814,29.717-16.08,30.521c-0.394,1.191,0.251,2.475,1.442,2.869
				c0.236,0.079,0.477,0.116,0.713,0.116c0.953,0,1.84-0.604,2.155-1.558c0.063-0.188,6.346-18.963,15.171-28.939
				C174.351,311.151,183.202,308.008,184.87,307.467z M180.154,297.893l7.762,0.486c1.228,0.076,2.33-0.872,2.408-2.124
				c0.079-1.252-0.873-2.33-2.125-2.408l-8.074-0.506c-0.181-0.011-0.361-0.002-0.541,0.031
				c-0.488,0.087-12.095,2.287-24.126,15.761c-9.301,10.417-11.921,25.331-12.028,25.961c-0.21,1.236,0.622,2.408,1.859,2.618
				c0.129,0.022,0.257,0.033,0.383,0.033c1.087,0,2.048-0.784,2.236-1.892c0.023-0.141,2.499-14.244,10.937-23.695
				C168.861,300.941,178.558,298.27,180.154,297.893z"/>
		</g>
	</g>
	
		<g id="&#x417;&#x430;&#x43B;&#x438;&#x432;&#x43A;&#x430;_&#x446;&#x432;&#x435;&#x442;&#x43E;&#x43C;_229_&#x43A;&#x43E;&#x43F;&#x438;&#x44F;_2" style="opacity:0.6;">
		<g>
			<path style="fill-rule:evenodd;clip-rule:evenodd;fill:#271535;" d="M206.758,347.611l-94.871-197.813
				c-0.542-1.133-1.899-1.607-3.029-1.065c-1.131,0.542-1.608,1.898-1.066,3.028l94.871,197.814c0.39,0.814,1.203,1.289,2.049,1.289
				c0.33,0,0.664-0.071,0.98-0.224C206.823,350.099,207.301,348.742,206.758,347.611z"/>
		</g>
	</g>
	
		<g id="&#x417;&#x430;&#x43B;&#x438;&#x432;&#x43A;&#x430;_&#x446;&#x432;&#x435;&#x442;&#x43E;&#x43C;_225_&#x43A;&#x43E;&#x43F;&#x438;&#x44F;">
		<g>
			<path style="fill-rule:evenodd;clip-rule:evenodd;fill:#D5844E;" d="M157.47,149.248c-3.725-2.15-7.848-3.469-11.802-5.142
				c-3.95-1.68-7.917-3.324-11.9-4.936c-4-1.574-7.973-3.209-11.998-4.731c-0.102-0.039-0.22,0.001-0.278,0.098
				c-0.063,0.108-0.026,0.248,0.082,0.312c3.712,2.178,7.478,4.245,11.215,6.371c3.754,2.089,7.525,4.145,11.312,6.165
				c3.784,2.028,7.398,4.411,11.41,5.961c4.001,1.574,8.079,2.986,12.488,3.707c0.077,0.012,0.159-0.014,0.214-0.076
				c0.087-0.098,0.079-0.246-0.018-0.334C164.867,153.662,161.208,151.375,157.47,149.248z M244.1,313.925
				c-2.886,2.409-5.111,5.21-7.182,8.103c-2.095,2.879-3.396,6.229-5.034,9.378c-1.646,3.146-3.258,6.31-4.839,9.494
				c-1.545,3.204-3.147,6.375-4.643,9.609c-0.045,0.097-0.017,0.213,0.071,0.279c0.101,0.074,0.245,0.054,0.319-0.048
				c2.12-2.864,4.134-5.79,6.206-8.684c2.036-2.912,4.04-5.845,6.01-8.798c1.978-2.947,4.294-5.696,5.815-8.914
				c1.545-3.205,2.936-6.501,3.667-10.189c0.013-0.068-0.003-0.144-0.051-0.201C244.354,313.853,244.202,313.839,244.1,313.925z
				 M312.224,107.029c-1.849,2.489-3.593,5.04-5.392,7.559c-1.766,2.538-3.496,5.095-5.195,7.671
				c-1.703,2.574-3.755,4.946-4.998,7.784c-0.649,1.403-1.238,2.841-1.719,4.342c-0.493,1.492-0.912,3.028-1.114,4.688
				c-0.007,0.062,0.007,0.126,0.049,0.18c0.081,0.108,0.237,0.129,0.345,0.047c1.332-1.011,2.449-2.146,3.49-3.322
				c1.055-1.171,2-2.402,2.886-3.67c1.826-2.503,2.843-5.471,4.21-8.237c1.373-2.765,2.711-5.548,4.015-8.351
				c1.271-2.822,2.598-5.612,3.817-8.464c0.041-0.095,0.014-0.209-0.074-0.273C312.442,106.906,312.299,106.928,312.224,107.029z
				 M441.184,310.799c-4.81-2.271-9.663-4.429-14.493-6.648l-14.574-6.437c-4.869-2.118-9.595-4.603-14.658-6.226
				c-5.052-1.65-10.17-3.133-15.567-3.9c-0.084-0.012-0.173,0.024-0.225,0.098c-0.074,0.106-0.047,0.252,0.059,0.325
				c4.484,3.102,9.249,5.486,14.079,7.706c4.819,2.244,9.975,3.629,14.988,5.38l15.072,5.168c5.052,1.65,10.08,3.36,15.153,4.957
				c0.106,0.034,0.226-0.016,0.274-0.119C441.347,310.988,441.298,310.853,441.184,310.799z"/>
		</g>
	</g>
	<g id="&#x424;&#x438;&#x433;&#x443;&#x440;&#x430;_428">
		<g>
			<path style="fill-rule:evenodd;clip-rule:evenodd;fill:#5A3656;" d="M150.688,159.751l77.208,156.939l12.111-2.019
				l-76.704-156.436L150.688,159.751z M290.975,128.464l-7.568-8.579l-124.14,17.157l4.037,7.569L290.975,128.464z M249.596,325.269
				l4.037,9.084l140.792-24.728l-4.541-9.588L249.596,325.269z M315.702,135.023h-10.598l90.329,148.866l11.102-1.515
				L315.702,135.023z"/>
		</g>
	</g>
	<g id="&#x417;&#x430;&#x43B;&#x438;&#x432;&#x43A;&#x430;_&#x446;&#x432;&#x435;&#x442;&#x43E;&#x43C;_226">
		<g>
			<path style="fill-rule:evenodd;clip-rule:evenodd;fill:#D58B5B;" d="M280.077,132.83c-8.404,1.227-9.757,9.976-12.507,15.209
				l-0.351-0.155c-0.265-1.639-0.984-3.195-2.052-4.902c-1.061-1.697-5.827-6.92-12.528-5.94c-5.62,0.821-5.443,4.939-4.4,6.666
				c1.513,2.503,5.408,5.074,8.952,4.511c3.048-0.485,3.148-2.398,2.44-3.545c-0.822-1.332-2.11-2.591-3.976-2.307
				c-1.635,0.25-1.757,1.312-0.938,2.652c0.233,0.383,0.469,0.768,0.94,1.116c-0.94,0.146-3.656-0.063-5.289-2.753
				c-1.392-2.293,0.157-4.389,2.959-4.804c3.02-0.446,7.069,0.387,10.006,5.104c2.61,4.195,3.285,9.401-6.841,11.081
				c-3.584,0.595-14.215,0.164-19.328-8.516c-2.518-4.273-0.425-5.631,1.74-5.95c1.679-0.247,3.332,0.34,4.251,1.875
				c0.46,0.768,0.201,1.646-0.641,1.986c-0.461-0.772-1.402-1.47-2.363-1.325c-0.962,0.145-1.114,1.221-0.655,1.996
				c0.46,0.776,1.996,2.027,3.924,1.729c1.442-0.223,3.379-1.79,1.875-4.291c-1.84-3.057-5.035-3.624-7.188-3.31
				c-3.131,0.457-5.002,2.195-4.032,5.424l-0.245,0.037c-2.672-2.978-6.155-3.938-9.108-3.507c-2.477,0.361-4.655,1.739-2.859,4.885
				c1.47,2.574,4.787,3.143,6.28,2.912c1.985-0.307,2.04-1.604,1.584-2.39c-0.456-0.784-1.762-1.652-2.749-1.504
				c-0.745,0.112-1.035,1.009-0.581,1.797c-1.111-0.047-2.31-0.722-2.874-1.705c-0.789-1.375,0.253-2.377,1.986-2.633
				c1.97-0.291,5.235,0.28,7.743,4.574c5.094,8.722-3.461,12.346-7,12.934c-11.306,1.876-16.751-2.866-19.333-7.569
				c-2.664-4.853,0.175-6.792,3.5-7.284c3.052-0.451,6.838,0.918,8.186,3.303c1.583,2.798-0.359,3.758-1.376,3.917
				c-0.227-0.403-0.313-1.046-0.678-1.208c-0.789-1.406-2.116-2.29-3.903-2.018c-1.791,0.272-1.78,1.802-0.997,3.216
				c0.675,1.217,2.98,2.846,6.314,2.316c3.816-0.607,4.382-3.98,2.91-6.57c-1.126-1.981-5.516-5.393-11.593-4.504
				c-7.449,1.089-5.815,7.161-4.816,8.99c1.004,1.841,2.161,3.438,4.106,4.919l-0.148,0.248
				c-8.873-3.737-21.146-11.159-31.102-9.706c-9.605,1.402-7.938,7.686-7.089,9.376c1.068,2.128,4.664,6.877,12.997,5.529
				c3.294-0.533,4.919-3.088,3.713-5.398c-1.308-2.506-4.022-3.213-5.656-2.963c-1.636,0.25-2.958,1.133-2.096,2.813
				c0.866,1.689,2.349,1.685,2.733,1.853c0.05,0.677-0.558,1.232-1.383,1.363c-1.38,0.22-5.375,0.624-7.524-3.625
				c-1.914-3.785,0.613-6.407,4.988-7.054c7.029-1.041,13.528,1.97,31.775,10.292l-0.148,0.251c-2.436-0.279-5.148-0.52-6.47-0.305
				c-4.253,0.689-8.511,3.677-5.361,9.651c3.079,5.841,9.231,7.362,14.068,6.49c4.791-0.863,5.935-4.59,4.652-6.924
				c-1.274-2.321-3.541-3.315-5.908-2.913c-2.117,0.36-2.224,1.768-1.65,2.829c0.576,1.065,1.913,2.466,4.45,1.79
				c0.053,1.159-0.312,2.633-2.708,3.06c-3.751,0.667-8.414-0.878-10.466-4.749c-2.149-4.053-0.053-6.697,3.672-7.31
				c1.324-0.218,3.926-0.192,7.008,0.21c3.331,0.354,11.64,0.551,16.496-0.266c4.555-0.767,11.496-4.372,9.867-11.529l0.246-0.039
				l-0.123,0.02c6.421,6.362,15.853,7.42,20.406,6.652c4.271-0.72,10.102-3.426,12.17-4.624c1.82-1.155,3.646-1.878,4.788-2.065
				c3.183-0.523,7.112,0.937,9.441,4.582c2.224,3.48,0.515,5.954-2.456,6.483c-2.303,0.409-3.968-0.61-5.048-1.513
				c2.431-0.21,2.026-1.658,1.411-2.634c-0.613-0.974-2.035-2.022-3.876-1.709c-2.078,0.353-2.738,1.765-1.394,3.925
				c1.352,2.173,5.764,4.691,10.15,3.901c3.888-0.701,6.589-3.581,3.239-8.801c-3.431-5.346-8.923-6.547-12.556-5.958
				c-1.371,0.223-3.074,1.135-4.326,1.974l-0.35-0.156c4.725-11.139,6.393-15.028,12.133-15.878c3.495-0.517,7.511,0.876,9.67,4.149
				c2.421,3.671-0.51,4.341-1.604,4.515c-0.657,0.104-1.561-0.162-2.143-0.683c0.319-0.255,1.074-0.579,0.109-2.056
				c-0.842-1.286-2.637-1.82-3.956-1.619c-1.323,0.203-2.493,1.398-1.054,3.625c1.325,2.053,4.756,3.57,7.625,3.105
				c6.331-1.023,4.395-5.395,3.184-7.222C292.01,136.825,287.684,131.72,280.077,132.83z M291.601,130.511l-0.394-3.003
				l-125.818,16.464l0.394,3.002L291.601,130.511z M256.145,161.62c-3.623-0.706-6.759-2.383-8.569-3.623
				c-0.006,0.443,0.231,0.843,0.47,1.245c1.792,3.023,12.007,10.67,17.07,9.743c1.916-0.351,2.481-2.03,1.497-3.644
				C264.774,162.33,259.996,162.281,256.145,161.62z M237.737,159.648c-0.169,1.592-0.99,3.976-3.413,5.524
				c-2.467,2.024-6.597,3.665-4.821,6.823c0.951,1.69,3.333,2.896,5.383,2.521c5.346-0.979,5.584-10.633,3.808-13.691
				C238.457,160.418,238.222,160.014,237.737,159.648z M304.993,286.43c1.408,1.768,4.904,6.793,4.904,6.793
				s-1.286-5.391-1.586-7.342c-0.386-2.137,0.349-7.663-0.761-10.079c-1.025-2.231-3.374-6.047-8.074-5.27s-3.732,4.821-2.708,7.054
				C297.793,279.817,303.499,284.477,304.993,286.43z M286.008,281.366c-2.213,0.366-3.273,1.942-2.591,3.429
				c1.282,2.791,6.601,2.711,10.708,3.232c3.83,0.567,6.895,2.061,8.602,3.18c0.105-0.418-0.064-0.789-0.236-1.162
				C301.21,287.257,291.813,280.405,286.008,281.366z M313.785,289.378c0.508-1.485,1.867-3.711,4.754-5.188
				c2.998-1.897,7.635-3.464,6.353-6.255c-0.683-1.486-2.94-2.515-5.15-2.148c-5.808,0.961-8.026,9.732-6.745,12.521
				C313.167,288.681,313.337,289.051,313.785,289.378z M307.951,137.302l-2.58,1.582l90.951,148.385l2.581-1.582L307.951,137.302z
				 M250.59,324.253l0.541,2.981l139.183-25.264l-0.541-2.98L250.59,324.253z M255.295,180.779c4.215-0.816,2.34-5.365,0.859-7.861
				c-1.472-2.482-7.812-7.701-9.625-9.856c-1.686-1.943-5.977-7.414-5.977-7.414s2.321,5.807,3.016,7.926
				c0.819,2.338,1.333,8.419,2.912,11.139C247.948,177.239,251.042,181.604,255.295,180.779z M162.357,159.976l76.704,156.759
				l2.72-1.331l-76.704-156.758L162.357,159.976z M258.391,317.75c10.506-1.737,14.663-10.83,19.332-16.205l0.362,0.141
				c-0.144,1.626,0.261,3.158,1.03,4.833c0.769,1.673,4.905,6.792,12.924,5.466c6.636-1.099,7.415-5.229,6.646-6.903
				c-1.11-2.416-4.879-4.796-9.028-4.109c-3.595,0.595-4.208,2.499-3.696,3.615c0.598,1.3,1.75,2.51,3.963,2.144
				c1.933-0.319,2.338-1.387,1.74-2.688c-0.171-0.37-0.342-0.743-0.79-1.07c1.104-0.183,4.129-0.081,5.324,2.521
				c1.024,2.231-1.251,4.41-4.565,4.959c-3.595,0.595-8.066-0.067-10.201-4.718c-1.879-4.091-1.247-9.199,10.641-11.165
				c4.146-0.687,15.783-0.608,19.541,7.574c1.878,4.091-0.735,5.523-3.223,5.935c-1.936,0.32-3.66-0.194-4.344-1.683
				c-0.341-0.743,0.149-1.624,1.168-1.993c0.342,0.743,1.237,1.395,2.343,1.212c1.104-0.184,1.509-1.25,1.167-1.993
				c-0.34-0.743-1.77-1.908-3.98-1.543c-1.658,0.275-4.191,1.895-3.08,4.313c1.366,2.976,4.838,3.401,7.325,2.99
				c3.595-0.595,6.038-2.4,5.638-5.535l0.277-0.046c2.333,2.815,5.973,3.614,9.29,3.065c2.768-0.458,5.382-1.891,4.016-4.866
				c-1.11-2.418-4.579-2.844-6.237-2.569c-2.213,0.366-2.529,1.619-2.188,2.361c0.341,0.744,1.596,1.536,2.7,1.354
				c0.832-0.138,1.317-1.018,0.977-1.761c1.194,0.003,2.364,0.609,2.79,1.539c0.599,1.302-0.72,2.32-2.656,2.641
				c-2.209,0.365-5.678-0.062-7.557-4.152c-3.758-8.183,6.171-11.827,10.039-12.468c12.169-2.013,17.068,2.181,19.033,6.458
				c2.05,4.464-1.225,6.406-4.816,7.001c-3.318,0.549-7.129-0.623-8.154-2.855c-1.195-2.603,1.035-3.572,2.141-3.755
				c0.17,0.372,0.152,0.975,0.512,1.115c0.598,1.303,1.857,2.095,3.793,1.774c1.933-0.32,2.166-1.76,1.568-3.06
				c-0.512-1.116-2.664-2.563-6.259-1.968c-4.146,0.686-5.354,3.889-4.245,6.305c0.854,1.859,4.968,4.981,11.601,3.884
				c8.019-1.326,7.2-6.993,6.433-8.666c-0.77-1.676-1.729-3.116-3.518-4.422l0.191-0.232c8.601,3.18,20.207,9.665,30.435,7.973
				c9.678-1.601,8.583-7.223,7.9-8.709c-0.855-1.861-3.924-5.956-12.221-4.584c-3.317,0.549-5.227,2.867-4.287,4.913
				c1.024,2.231,3.665,2.796,5.324,2.521c1.656-0.274,3.058-1.108,2.375-2.595c-0.684-1.488-2.15-1.446-2.514-1.587
				c0.021-0.603,0.682-1.112,1.51-1.25c1.382-0.229,5.34-0.683,7.049,3.038c1.536,3.346-1.204,5.802-5.628,6.534
				c-7.187,1.188-13.425-1.382-30.968-8.484l0.191-0.232c2.466,0.191,5.214,0.339,6.595,0.11c4.423-0.731,9.101-3.509,6.709-8.716
				c-2.306-5.021-8.223-6.243-13.2-5.419c-4.978,0.823-6.737,4.114-5.798,6.16c0.939,2.045,3.111,2.888,5.598,2.476
				c2.213-0.366,2.529-1.619,2.102-2.549c-0.427-0.929-1.574-2.139-4.254-1.497c0.123-1.021,0.719-2.319,3.206-2.731
				c3.87-0.64,8.319,0.627,9.855,3.973c1.624,3.534-0.841,5.942-4.71,6.582c-1.381,0.229-4.042,0.271-7.148-0.019
				c-3.383-0.239-11.999-0.216-17.254,0.653c-4.978,0.824-13.162,4.378-12.883,11.136l-0.277,0.046l0.139-0.023
				c-5.668-5.865-15.816-6.588-21.07-5.719c-4.978,0.823-12.313,3.639-15.012,4.885c-2.422,1.203-4.742,1.985-6.125,2.214
				c-3.869,0.64-8.041-0.671-9.664-4.205c-1.536-3.346,1.204-5.802,4.797-6.396c2.767-0.458,4.385,0.476,5.365,1.313
				c-2.852,0.274-2.806,1.666-2.379,2.595c0.427,0.93,1.768,1.909,3.98,1.543c2.487-0.411,3.634-1.802,2.694-3.848
				s-5.262-4.331-10.516-3.462c-4.7,0.777-8.735,3.646-6.429,8.666c2.391,5.208,8.498,6.2,12.92,5.469
				c1.659-0.274,3.893-1.245,5.573-2.123l0.359,0.142c-8.722,11.447-11.884,15.572-19.075,16.763
				c-4.423,0.731-8.874-0.536-10.41-3.881c-1.709-3.721,2.079-4.548,3.46-4.776c0.828-0.137,1.83,0.099,2.363,0.609
				c-0.469,0.277-1.488,0.646-0.804,2.136c0.597,1.3,2.598,1.771,4.257,1.497c1.659-0.274,3.442-1.57,2.417-3.802
				c-0.939-2.046-4.558-3.45-8.154-2.855c-8.018,1.326-7.159,5.787-6.304,7.648C245.131,314.141,248.713,319.352,258.391,317.75z"/>
		</g>
	</g>
	<g id="&#x424;&#x438;&#x433;&#x443;&#x440;&#x430;_429" style="opacity:0.6588;">
		<g>
			<path style="fill-rule:evenodd;clip-rule:evenodd;fill:#352342;" d="M253.081,388.26c-5.907-7.936-14.083-9.879-14.083-9.879
				l-19.065,30.799l-0.236,9.698l44.659-6.435C264.355,412.443,259.801,397.285,253.081,388.26z"/>
		</g>
	</g>
	<g id="&#x417;&#x430;&#x43B;&#x438;&#x432;&#x43A;&#x430;_&#x446;&#x432;&#x435;&#x442;&#x43E;&#x43C;_234">
		<g>
			<path style="fill-rule:evenodd;clip-rule:evenodd;fill:#522828;" d="M160.805,139.426c0.101,0,0.203-0.007,0.305-0.021
				l124.139-16.652c1.244-0.167,2.115-1.311,1.949-2.553c-0.168-1.243-1.314-2.11-2.553-1.949l-124.138,16.652
				c-1.243,0.167-2.116,1.311-1.949,2.553C158.71,138.597,159.685,139.426,160.805,139.426z M152.747,158.346
				c-0.559-1.124-1.923-1.578-3.045-1.02c-1.123,0.559-1.579,1.922-1.02,3.045l77.713,155.931c0.397,0.797,1.2,1.258,2.034,1.258
				c0.341,0,0.686-0.076,1.011-0.237c1.123-0.561,1.579-1.924,1.02-3.046L152.747,158.346z M409.499,281.289L318.16,134.441
				c-0.662-1.064-2.063-1.392-3.127-0.729c-1.065,0.663-1.391,2.063-0.729,3.129l91.339,146.846c0.431,0.692,1.171,1.072,1.93,1.072
				c0.409,0,0.825-0.111,1.197-0.343C409.837,283.753,410.162,282.354,409.499,281.289z M393.566,308.508l-139.782,23.718
				c-1.237,0.21-2.069,1.383-1.859,2.618c0.188,1.107,1.149,1.892,2.236,1.892c0.126,0,0.254-0.011,0.383-0.033l139.782-23.718
				c1.236-0.21,2.068-1.383,1.858-2.618C395.975,309.132,394.812,308.295,393.566,308.508z"/>
		</g>
	</g>
	
		<g id="&#x417;&#x430;&#x43B;&#x438;&#x432;&#x43A;&#x430;_&#x446;&#x432;&#x435;&#x442;&#x43E;&#x43C;_222_&#x43A;&#x43E;&#x43F;&#x438;&#x44F;_4">
		<g>
			<path style="fill-rule:evenodd;clip-rule:evenodd;fill:#391717;" d="M447.833,309.115
				c-0.737-1.133-74.311-113.87-111.522-173.893c-2.665-4.301-4.957-8.029-6.935-11.25c-8.495-13.825-11.059-17.998-14.003-19.765
				c-1.302-0.782-2.967-1.13-5.396-1.13c-3.569,0-9.061,0.729-16.66,1.736c-4.254,0.564-9.073,1.203-14.481,1.838
				c-155.856,18.29-159.085,21.519-160.821,23.254c-2.652,2.652-4.334,9.308-5.255,14.198l-5.593,2.851
				c-0.05,0.025-0.1,0.053-0.149,0.08c-0.395,0.22-9.785,5.568-19.606,20.871c-9.077,14.14-8.015,34.056-7.965,34.896
				c0.032,0.554,0.166,1.096,0.394,1.602l93.483,207.119c0.2,0.443,0.471,0.853,0.801,1.21c0.298,0.324,7.417,7.972,16.089,11.349
				c3.005,1.169,6.743,1.763,11.112,1.763h0c3.542,0,6.4-0.399,7.017-0.493l14.041-1.598c0.072-0.008,0.146-0.018,0.217-0.029
				c1.15-0.188,115.736-18.915,177.32-31.869c6.478-1.361,12.517-2.461,17.847-3.433c15.732-2.865,22.245-4.051,24.303-8.343
				c2.476-5.152-1.083-11.947-4.851-19.14c-0.749-1.433-1.474-2.813-2.077-4.069c-3.042-6.346-7.595-15.364-8.979-18.098
				c0.011-0.943,0.224-3.176,1.713-6.378c1.247-2.68,3.781-5.529,5.246-7l7.658-2.212c1.076-0.311,1.999-1.007,2.594-1.957
				l4.51-7.224C448.819,312.504,448.8,310.596,447.833,309.115z M294.509,113.818c6.983-0.926,12.499-1.657,15.468-1.657
				c0.421,0,0.719,0.016,0.916,0.033c1.566,1.597,5.467,7.947,10.744,16.534c0.505,0.822,1.031,1.679,1.578,2.567l-26.568,3.125
				l-11.412-19.398C288.576,114.604,291.681,114.194,294.509,113.818z M278.678,115.816l13.751,23.378
				c0.549,0.931,1.545,1.492,2.608,1.492c0.118,0,0.236-0.007,0.354-0.021l31.326-3.685c0.604,0.977,1.226,1.983,1.873,3.026
				c24.204,39.04,63.719,100.276,88.667,138.745l-35.381,5.474c-0.068,0.011-0.13,0.036-0.197,0.051
				c-0.105,0.023-0.211,0.046-0.314,0.082c-0.108,0.036-0.209,0.085-0.311,0.133c-0.059,0.027-0.119,0.044-0.177,0.075
				c-0.013,0.007-0.019,0.02-0.03,0.025c-0.325,0.186-0.606,0.428-0.839,0.712c-0.021,0.024-0.045,0.046-0.064,0.072
				c-0.218,0.282-0.379,0.604-0.486,0.948c-0.009,0.028-0.022,0.055-0.03,0.084c-0.092,0.331-0.12,0.682-0.093,1.04
				c0.003,0.045,0.002,0.087,0.007,0.131c0.004,0.034,0,0.067,0.006,0.102c0.046,0.3,0.162,0.566,0.287,0.826
				c0.026,0.057,0.023,0.118,0.054,0.173l0.016,0.027c0.002,0.003,0.003,0.006,0.005,0.01l14.979,27.15L259.08,337.989
				l-11.765-24.999c-0.574-1.22-1.888-1.914-3.214-1.701l-30.288,4.807L139.414,163.87l30.821-3.521
				c0.985-0.113,1.854-0.701,2.323-1.574c0.47-0.874,0.481-1.923,0.032-2.807l-12.806-25.187
				C184.493,127.287,222.922,122.365,278.678,115.816z M416.92,369.041l-208.745,40.164c-0.04,0.008-0.074,0.024-0.113,0.034
				c-1.758,0.073-6.377-0.084-10.312-3.278c-4.216-3.422-6.592-9.362-7.062-17.655c-1.324-23.391,27.613-25.51,28.845-25.588
				c0.051-0.003,0.098-0.019,0.147-0.024c0.064-0.007,0.128-0.005,0.193-0.017l200.544-35.589c-0.271,0.487-0.544,0.974-0.778,1.478
				c-1.104,2.375-1.73,4.444-2.099,6.207c-1.499,4.143-3.723,11.354-4.156,18.693C413.089,358.462,415.317,365.036,416.92,369.041z
				 M226.734,344.216l-9.76-22.489l25.831-4.1l10.466,22.238L226.734,344.216z M251.398,346.309l-1.639,4.916l-26.17,4.644
				l2.091-5.344L251.398,346.309z M221.783,348.018l-2.337,5.973l-8.985-18.589l2.584-7.519L221.783,348.018z M394.342,325.566
				l-137.797,24.454l1.932-5.798l137.774-22.475L394.342,325.566z M209.217,320.389l-2.499,7.27l-72.956-150.942
				c0.07-0.158,0.166-0.301,0.209-0.476l1.607-6.427l73.476,150.337C209.099,320.239,209.167,320.306,209.217,320.389z
				 M153.452,131.688l11.764,23.138l-28.186,3.222l-11.079-21.762C130.067,135.318,138.896,133.806,153.452,131.688z
				 M121.325,147.848c0.283-1.743,0.658-3.558,1.057-5.229l9.224,18.118l-1.898,7.59l-9.067-18.76
				C120.975,149.049,121.223,148.474,121.325,147.848z M172.64,387.934L88.483,201.478c-0.087-3.564-0.018-18.401,6.57-28.665
				c8.144-12.688,15.727-17.445,16.345-17.82l4.123-2.101l93.332,193.1c-6.199,1.379-18.785,5.349-26.521,15.808
				C175.411,371.153,173.046,380.358,172.64,387.934z M207.225,416.338c-0.065,0.008-0.137,0.017-0.202,0.027
				c-0.025,0.004-2.539,0.396-5.699,0.396c-3.191,0-5.895-0.396-7.817-1.144c-5.595-2.178-10.688-7.004-12.232-8.553l-2.812-6.229
				c-1.671-6.454-3.629-21.267,7.521-36.337c7.27-9.827,19.903-13.265,24.913-14.281l3.403,7.04
				c-12.855,2.232-30.83,10.649-29.656,31.392c0.569,10.064,3.695,17.472,9.29,22.013c4.938,4.009,10.488,4.646,13.514,4.646
				c0.432,0,0.79-0.015,1.11-0.032l0.352,0.871L207.225,416.338z M213.59,415.613l-0.48-1.191l4.6-0.885l0.594,1.539L213.59,415.613
				z M426.95,360.798c0.645,1.345,1.418,2.825,2.221,4.357c1.423,2.715,4.218,8.052,4.598,10.494
				c-2.828,1.142-10.645,2.565-17.631,3.837c-5.386,0.981-11.49,2.093-18.087,3.481c-57.173,12.024-160.306,29.063-175.115,31.497
				l-0.694-1.8l199.527-38.391c0.921-0.177,1.709-0.773,2.132-1.611c0.422-0.838,0.432-1.824,0.025-2.672
				c-1.35-2.816-4.79-11.212-4.497-16.167c0.13-2.196,0.453-4.397,0.87-6.505C422.266,351.237,424.944,356.613,426.95,360.798z
				 M427.731,317.981c-0.203,0.184-0.993,0.918-2.027,2.02l-25.789,4.576l1.501-3.002l28.029-4.562
				C428.811,317.209,428.223,317.533,427.731,317.981z M401.372,315.449l-14.289-25.9l33.788-5.227
				c7.379,11.37,13.184,20.287,16.436,25.277L401.372,315.449z"/>
		</g>
	</g>
	<g id="&#x424;&#x438;&#x433;&#x443;&#x440;&#x430;_413">
		<g>
			<path style="fill-rule:evenodd;clip-rule:evenodd;fill:#E9825E;" d="M359.67,429.305c-8.834-5.604-15.835-7.399-15.835-7.399
				s5.958-4.363,12.389-6.379c6.245-1.957,12.969-1.568,12.969-1.568s-8.855-6.517-20.815-6.503
				c-16.84,0.021-13.294,3.782-25.973,6.384c-11.457,2.352-10.523-0.572-15.576-4.637c-4.223-3.397-13.078,2.254-12.407-1.537
				c0.761-4.296,5.194-10.321,4.366-20.669c-0.805-10.074-4.684-16.501-4.684-16.501l-49.367,8.79c0,0,6.898,9.393,10.623,21.482
				c3.738,12.132-2.76,16.146-1.365,23.361s10.7,18.081,28.616,20.664c18.629,2.686,42.869-2.375,63.193-3.339
				c22.78-1.079,27.102,0.037,27.102,0.037S368.435,434.865,359.67,429.305z"/>
		</g>
	</g>
	<g id="&#x424;&#x438;&#x433;&#x443;&#x440;&#x430;_430">
		<g>
			<path style="fill-rule:evenodd;clip-rule:evenodd;fill:#BD4B3B;" d="M296.506,409.257c-1.254-2.134,0.525-7.789,0.525-7.789
				s-7.256,8.301-17.376,11.503c-9.808,3.104-20.977-0.4-20.977-0.4c-10.597,12.11,0.505,16.147,0.505,16.147
				s22.531,2.734,28.697-1.134c5.182-3.25,14.196-17.537,14.196-17.537S297.774,411.412,296.506,409.257z M295.012,368.667
				l-50.967,11.102l6.687,8.958l48.697-7.696L295.012,368.667z"/>
		</g>
	</g>
	<g id="&#x424;&#x438;&#x433;&#x443;&#x440;&#x430;_431">
		<g>
			<path style="fill-rule:evenodd;clip-rule:evenodd;fill:#F8BA77;" d="M362.378,430.057c-6.296-4.854-14.884-7.898-14.884-7.898
				s4.334-4.69,8.881-6.964c5.018-2.509,10.295-2.624,10.295-2.624s-8.284-7.041-18.221-4.66
				c-17.771,4.259-34.766,7.183-34.766,7.183s-3.832-4.231-7.926-5.519c-4.695-1.476-9.736-0.032-9.736-0.032
				s5.287-13.388,4.525-23.172c-0.752-9.644-7.553-15.685-7.553-15.685l-8.074,0.505c0,0,6.055,8.409,6.576,18.746
				c0.51,10.119-5.546,19.122-1.53,24.147c3.563,4.46,8.074,3.532,11.606,4.037c3.532,0.504,8.578,5.551,12.111,6.055
				c3.532,0.505,24.727-6.055,24.727-6.055s-3.475,4.423-3.027,6.055c1.06,3.871,13.492,8.699,13.492,8.699
				s-79.696,11.284-82.122-8.194c-1.369-10.991,4.607-10.99,0.999-25.229c-3.101-12.231-10.082-22.205-10.082-22.205l-12.111,2.522
				c0,0,9.128,9.739,11.736,21.165c2.689,11.782-2.653,17.188-2.148,23.242c0.504,6.056,5.567,16.079,19.832,18.117
				c17.727,2.532,43.092,1.539,63.402,0.481c18.843-0.98,33.335-1.945,33.335-1.945S368.172,434.522,362.378,430.057z"/>
		</g>
	</g>
	<g id="&#x424;&#x438;&#x433;&#x443;&#x440;&#x430;_431_&#x43A;&#x43E;&#x43F;&#x438;&#x44F;">
		<g>
			<path style="fill-rule:evenodd;clip-rule:evenodd;fill:#D67144;" d="M267.844,414.149c-5.234-0.357-9.165-1.579-9.165-1.579
				c-0.612,0.699-1.136,1.366-1.61,2.013c-0.939,3.636-2.177,6.533-1.922,9.593c0.043,0.521,0.134,1.078,0.248,1.649
				c1.507,2.046,3.79,2.893,3.79,2.893s4.554,0.549,10.12,0.806c-1.412-1.355-2.315-2.952-2.551-4.843
				C266.132,419.693,267.021,416.968,267.844,414.149z M296.635,409.396c-0.364,0.081-0.613,0.146-0.613,0.146
				s0.107-0.276,0.279-0.742c-0.826-2.386,0.73-7.332,0.73-7.332s-3.242,3.695-8.4,7.106c-0.156,2.14,0.133,4.006,1.335,5.51
				c2.087,2.611,4.499,3.372,6.849,3.658c2.951-4.036,5.263-7.695,5.263-7.695S298.021,411.315,296.635,409.396z"/>
		</g>
	</g>
	<g id="&#x417;&#x430;&#x43B;&#x438;&#x432;&#x43A;&#x430;_&#x446;&#x432;&#x435;&#x442;&#x43E;&#x43C;_223">
		<g>
			<path style="fill-rule:evenodd;clip-rule:evenodd;fill:#482821;" d="M377.865,439.663c-0.201-0.298-5.022-7.35-14.347-13.267
				c-3.403-2.159-6.556-3.786-9.195-4.981c1.508-0.747,3.168-1.461,4.854-1.989c3.961-1.241,8.198-1.426,10.371-1.426
				c0.745,0,1.202,0.021,1.246,0.024c1.688,0.111,3.213-0.918,3.779-2.495c0.569-1.576,0.032-3.338-1.317-4.332
				c-0.4-0.296-9.985-7.238-23.063-7.238c-10.999,0.014-14.346,1.666-17.889,3.417c-2.094,1.034-4.258,2.104-8.841,3.044
				c-2.676,0.55-4.647,0.815-6.028,0.815c-1.775,0-2.024-0.243-3.643-1.831c-0.717-0.702-1.606-1.576-2.783-2.523
				c-1.419-1.142-3.171-1.722-5.205-1.722c-1.836,0-3.594,0.463-5.176,0.919c0.197-0.551,0.428-1.147,0.671-1.776
				c1.563-4.042,3.7-9.577,3.083-17.319c-0.758-9.496-6.094-17.203-7.855-19.513l-57.754,10.673
				c-0.042,1.054,0.351,2.096,1.126,2.854c0.103,0.101,10.262,10.131,13.665,21.174c1.858,6.029,0.789,9.449-0.342,13.068
				c-0.879,2.812-1.875,5.999-1.122,9.897c1.89,9.768,13.417,21.042,31.792,23.691c3.808,0.549,7.949,0.816,12.664,0.816
				c9.537,0,19.827-1.119,29.777-2.201c7.55-0.822,14.68-1.597,21.471-1.919c6.527-0.31,12.146-0.466,16.701-0.466
				c7.183,0,9.255,0.387,9.275,0.387c1.524,0.394,3.13-0.194,4.038-1.481C378.727,442.679,378.744,440.967,377.865,439.663z
				 M364.506,437.488c-4.673,0-10.414,0.159-17.059,0.475c-7.021,0.332-14.602,1.155-21.933,1.954
				c-9.749,1.06-19.83,2.157-28.958,2.157c-4.35,0-8.139-0.243-11.584-0.739c-16.508-2.381-24.365-12.08-25.439-17.636
				c-0.393-2.024,0.155-3.777,0.914-6.202c1.292-4.136,2.9-9.281,0.352-17.557c-2.35-7.625-7.233-14.607-10.918-19.124l41.545-7.485
				c1.79,2.632,4.914,8.029,5.41,14.255c0.48,6.02-1.154,10.253-2.598,13.988c-0.834,2.163-1.557,4.032-1.76,5.986
				c-0.223,2.12,0.232,3.823,1.345,5.06c0.706,0.781,1.989,1.713,4.104,1.713c1.419,0,2.836-0.411,4.333-0.847
				c1.217-0.355,2.598-0.758,3.544-0.758c0.328,0,0.457,0.051,0.461,0.051c0.886,0.713,1.567,1.381,2.225,2.027
				c2.004,1.966,4.076,3.999,8.945,3.999c1.923,0,4.322-0.308,7.551-0.97c5.539-1.138,8.385-2.543,10.672-3.673
				c3.081-1.522,5.309-2.623,14.581-2.635c2.32,0,4.52,0.281,6.536,0.719c-6.894,2.194-13.093,6.701-13.355,6.894
				c-1.179,0.863-1.751,2.329-1.477,3.763c0.273,1.436,1.352,2.586,2.766,2.954c0.064,0.018,6.605,1.761,14.756,6.932
				c2.426,1.539,4.502,3.175,6.214,4.702C365.302,437.489,364.911,437.488,364.506,437.488z"/>
		</g>
	</g>
	<g id="&#x417;&#x430;&#x43B;&#x438;&#x432;&#x43A;&#x430;_&#x446;&#x432;&#x435;&#x442;&#x43E;&#x43C;_233">
		<g>
			<path style="fill-rule:evenodd;clip-rule:evenodd;fill:#5F3A5B;" d="M350.093,226.114c-0.295-3.117-1.392-6.473-3.35-10.256
				l-5.541-10.707c-1.842-3.56-3.987-6.572-6.375-8.952c-2.481-2.479-5.256-4.413-8.239-5.744c-2.934-1.305-6.079-2.09-9.354-2.336
				c-0.895-0.066-1.807-0.1-2.715-0.1c-2.156,0-4.393,0.188-6.65,0.561l-8.527,1.406c-3.32,0.548-6.269,1.427-8.764,2.612
				c-3.217,1.53-5.694,3.688-7.371,6.413c-0.506,0.822-0.902,1.694-1.237,2.594c-1.586-1.181-3.25-2.189-4.995-2.969
				c-2.933-1.305-6.08-2.09-9.356-2.336c-0.896-0.066-1.807-0.1-2.715-0.1c-2.156,0-4.392,0.188-6.649,0.561l-8.526,1.406
				c-3.321,0.548-6.269,1.427-8.764,2.612c-3.174,1.508-5.625,3.637-7.303,6.319c-1.074-1.036-2.259-1.926-3.565-2.645
				c-2.415-1.333-5.008-2.01-7.7-2.01c-0.877,0-1.771,0.074-2.655,0.221c-4.358,0.719-7.91,3.113-10.271,6.925l-5.85,9.302
				l-0.021,0.034l-0.021,0.035c-1.255,2.04-1.899,4.334-1.868,6.633c0.022,2.036,0.535,4.049,1.523,5.955
				c0.785,1.52,1.854,2.921,3.171,4.152c1.249,1.168,2.672,2.14,4.23,2.891c1.469,0.706,3.054,1.22,4.705,1.522
				c0.961,0.178,1.951,0.269,2.933,0.269c0.236,0,0.473-0.005,0.711-0.016l5.775,11.156c1.821,3.521,4.746,6.13,8.455,7.546
				c2.249,0.859,4.547,1.297,6.829,1.297c0.979,0,1.968-0.082,2.937-0.244c4.948-0.816,7.744-3.275,9.219-5.194
				c0.433-0.564,1.004-1.479,1.471-2.645c0.427,0.22,0.85,0.455,1.286,0.649c2.931,1.305,6.078,2.091,9.354,2.337
				c0.889,0.066,1.8,0.1,2.709,0.1c2.15,0,4.389-0.188,6.649-0.561l8.533-1.407c3.313-0.546,6.263-1.424,8.763-2.612
				c3.213-1.526,5.694-3.686,7.373-6.417c0.505-0.82,0.902-1.691,1.236-2.59c1.588,1.182,3.252,2.191,4.999,2.97
				c2.925,1.303,6.073,2.09,9.354,2.335c0.891,0.066,1.804,0.1,2.712,0.1c2.154,0,4.39-0.188,6.648-0.561l8.527-1.405
				c3.323-0.549,6.273-1.429,8.769-2.614c3.211-1.527,5.69-3.686,7.367-6.414C349.731,233.296,350.454,229.904,350.093,226.114z
				 M246.081,250.229c-0.919,1.195-2.372,1.957-4.36,2.285c-0.557,0.092-1.116,0.139-1.678,0.139c-1.344,0-2.704-0.264-4.078-0.788
				c-1.95-0.744-3.4-2.04-4.355-3.886l-8.66-16.732c-0.943,0.667-2.034,1.103-3.268,1.307c-0.472,0.078-0.94,0.116-1.409,0.116
				c-0.515,0-1.029-0.047-1.542-0.142c-0.978-0.18-1.896-0.476-2.754-0.889c-0.857-0.412-1.624-0.936-2.302-1.57
				c-0.678-0.634-1.208-1.325-1.594-2.071c-0.428-0.825-0.648-1.662-0.657-2.513c-0.012-0.851,0.23-1.68,0.726-2.486l5.879-9.347
				c1.175-1.897,2.832-3.023,4.969-3.376c0.473-0.079,0.938-0.117,1.398-0.117c1.381,0,2.708,0.351,3.98,1.053
				c1.698,0.935,3.066,2.403,4.102,4.406l1.02,1.97c0.336,3.027,1.406,6.28,3.299,9.939l5.542,10.709
				c1.8,3.481,3.896,6.432,6.223,8.789C246.91,248.279,246.756,249.349,246.081,250.229z M291.763,240.334
				c-0.889,1.446-2.26,2.609-4.111,3.489s-4.087,1.537-6.709,1.968l-8.528,1.407c-1.854,0.304-3.653,0.458-5.397,0.458
				c-0.721,0-1.432-0.026-2.134-0.079c-2.398-0.179-4.663-0.742-6.79-1.69c-1.789-0.796-3.465-1.923-5.043-3.34
				c-0.079-0.165-0.118-0.317-0.205-0.485l-13.752-26.576c-0.007-1.633,0.334-3.059,1.068-4.25c0.889-1.444,2.258-2.607,4.111-3.488
				c1.852-0.88,4.087-1.536,6.709-1.968l8.529-1.407c1.853-0.306,3.648-0.457,5.392-0.457c0.722,0,1.435,0.026,2.138,0.078
				c2.4,0.18,4.664,0.742,6.791,1.689c2.128,0.948,4.107,2.335,5.937,4.162c0.614,0.612,1.201,1.305,1.776,2.033
				c0.543,2.322,1.479,4.785,2.869,7.471l5.541,10.707c0.863,1.669,1.799,3.206,2.789,4.626c0.014,0.111,0.046,0.233,0.057,0.343
				C292.999,237.12,292.651,238.891,291.763,240.334z M341.378,232.153c-0.889,1.445-2.26,2.607-4.109,3.487
				c-1.854,0.882-4.09,1.537-6.711,1.97l-8.527,1.405c-1.854,0.306-3.65,0.458-5.394,0.458c-0.722,0-1.435-0.025-2.138-0.078
				c-2.4-0.18-4.664-0.741-6.79-1.689c-2.128-0.947-4.106-2.335-5.937-4.161c-0.613-0.612-1.201-1.305-1.775-2.033
				c-0.543-2.322-1.479-4.785-2.869-7.473l-5.541-10.706c-0.865-1.67-1.801-3.206-2.789-4.625c-0.015-0.111-0.047-0.234-0.057-0.344
				c-0.199-2.095,0.146-3.865,1.035-5.311s2.26-2.606,4.111-3.488c1.852-0.88,4.087-1.535,6.709-1.968l8.528-1.406
				c1.853-0.306,3.65-0.458,5.394-0.458c0.722,0,1.434,0.026,2.138,0.078c2.399,0.18,4.663,0.742,6.79,1.689
				c2.127,0.948,4.107,2.335,5.936,4.162c1.832,1.826,3.488,4.171,4.969,7.033l5.542,10.708c1.482,2.863,2.323,5.344,2.522,7.439
				C342.613,228.938,342.267,230.708,341.378,232.153z M270.786,219.473c-0.856-1.654-1.7-2.712-2.529-3.175
				c-0.568-0.316-1.245-0.476-2.029-0.476c-0.358,0-0.739,0.033-1.143,0.101l-7.788,1.283c-1.287,0.213-2.058,0.639-2.315,1.281
				c-0.259,0.642,0.041,1.789,0.896,3.443l5.262,10.167c0.856,1.655,1.697,2.713,2.529,3.174c0.567,0.318,1.244,0.477,2.025,0.477
				c0.36,0,0.742-0.033,1.146-0.1l7.787-1.285c1.285-0.212,2.058-0.638,2.315-1.28c0.258-0.641-0.04-1.789-0.896-3.443
				L270.786,219.473z M320.4,211.291c-0.856-1.654-1.7-2.712-2.528-3.176c-0.569-0.316-1.246-0.474-2.029-0.474
				c-0.358,0-0.74,0.032-1.144,0.099l-7.786,1.285c-1.286,0.212-2.058,0.639-2.316,1.279c-0.26,0.643,0.04,1.79,0.897,3.444
				l5.261,10.167c0.855,1.655,1.698,2.713,2.528,3.175c0.567,0.317,1.243,0.476,2.026,0.476c0.359,0,0.741-0.034,1.146-0.101
				l7.786-1.284c1.285-0.212,2.058-0.638,2.317-1.279c0.258-0.643-0.041-1.789-0.898-3.444L320.4,211.291z"/>
		</g>
	</g>
	<g id="_x31_00">
		<g>
			<path style="fill-rule:evenodd;clip-rule:evenodd;fill:#E6A95A;" d="M230.477,215.739c-1.037-2.003-2.404-3.472-4.102-4.407
				c-1.697-0.935-3.49-1.246-5.379-0.935c-2.137,0.352-3.792,1.479-4.967,3.377l-5.88,9.346c-0.496,0.808-0.737,1.636-0.726,2.485
				c0.011,0.852,0.23,1.689,0.657,2.514c0.386,0.747,0.917,1.438,1.595,2.071c0.677,0.635,1.445,1.158,2.302,1.57
				c0.857,0.413,1.775,0.71,2.754,0.889c0.979,0.181,1.961,0.188,2.951,0.025c1.235-0.204,2.326-0.64,3.269-1.307l8.659,16.732
				c0.956,1.847,2.407,3.143,4.356,3.886c1.95,0.744,3.869,0.961,5.758,0.649c1.988-0.328,3.441-1.089,4.359-2.286
				c0.918-1.195,0.891-2.736-0.085-4.621L230.477,215.739z M290.278,227.707l-5.542-10.708c-1.48-2.862-3.137-5.207-4.968-7.033
				c-1.831-1.827-3.81-3.214-5.937-4.162c-2.127-0.947-4.391-1.51-6.791-1.689c-2.4-0.179-4.91-0.053-7.531,0.38l-8.528,1.406
				c-2.621,0.432-4.857,1.089-6.708,1.968c-1.852,0.882-3.223,2.044-4.111,3.488c-0.89,1.445-1.234,3.216-1.035,5.311
				c0.199,2.096,1.039,4.575,2.521,7.438l5.541,10.708c1.482,2.863,3.138,5.209,4.969,7.035s3.809,3.214,5.937,4.16
				c2.127,0.948,4.391,1.512,6.791,1.69c2.398,0.18,4.909,0.053,7.53-0.38l8.528-1.406c2.621-0.432,4.857-1.088,6.709-1.969
				c1.852-0.88,3.223-2.042,4.111-3.487c0.889-1.444,1.234-3.215,1.035-5.311C292.6,233.051,291.76,230.57,290.278,227.707z
				 M276.943,233.204c-0.259,0.643-1.03,1.068-2.315,1.28l-7.788,1.284c-1.285,0.212-2.342,0.088-3.172-0.375
				c-0.83-0.462-1.672-1.52-2.528-3.175l-5.261-10.167c-0.856-1.654-1.155-2.802-0.896-3.444c0.258-0.641,1.03-1.067,2.316-1.279
				l7.787-1.284c1.285-0.212,2.343-0.087,3.173,0.375c0.828,0.463,1.672,1.521,2.527,3.175l5.262,10.167
				C276.903,231.416,277.201,232.563,276.943,233.204z M342.414,226.964c-0.199-2.095-1.039-4.575-2.521-7.438l-5.541-10.708
				c-1.48-2.862-3.137-5.207-4.968-7.033s-3.81-3.214-5.937-4.162c-2.127-0.946-4.391-1.51-6.791-1.689
				c-2.4-0.179-4.91-0.053-7.531,0.38l-8.528,1.406c-2.621,0.432-4.857,1.089-6.708,1.969c-1.853,0.881-3.223,2.043-4.111,3.487
				c-0.891,1.445-1.234,3.216-1.035,5.311c0.199,2.096,1.039,4.575,2.521,7.438l5.541,10.708c1.481,2.863,3.138,5.209,4.969,7.035
				s3.809,3.214,5.937,4.161c2.127,0.948,4.391,1.511,6.79,1.689c2.399,0.18,4.909,0.053,7.531-0.38l8.528-1.406
				c2.621-0.432,4.857-1.088,6.709-1.969c1.852-0.88,3.223-2.042,4.111-3.487C342.268,230.83,342.613,229.06,342.414,226.964z
				 M326.559,225.022c-0.259,0.643-1.03,1.068-2.315,1.28l-7.788,1.284c-1.285,0.212-2.342,0.088-3.172-0.375
				c-0.83-0.462-1.672-1.52-2.528-3.175l-5.261-10.167c-0.856-1.654-1.156-2.802-0.896-3.444c0.258-0.641,1.029-1.067,2.315-1.279
				l7.787-1.284c1.285-0.212,2.343-0.087,3.173,0.375c0.828,0.463,1.672,1.521,2.527,3.175l5.262,10.167
				C326.519,223.234,326.816,224.382,326.559,225.022z"/>
		</g>
	</g>
	<g id="_x31_00_&#x43A;&#x43E;&#x43F;&#x438;&#x44F;">
		<g>
			<path style="fill-rule:evenodd;clip-rule:evenodd;fill:#F9D086;" d="M273.832,205.804c-2.127-0.947-4.391-1.51-6.791-1.689
				c-0.918-0.068-1.859-0.078-2.811-0.057l12.346,3.285C275.689,206.748,274.777,206.226,273.832,205.804z M341.982,224.752
				c-0.417-1.575-1.096-3.307-2.09-5.227l-0.854-1.65l-17.751-4.749l3.671,7.095L341.982,224.752z M289.173,210.696l17.022,4.53
				l-0.701-1.356c-0.856-1.654-1.156-2.802-0.896-3.444c0.237-0.591,0.933-0.991,2.045-1.218l-17.49-4.679
				c-0.406,1.158-0.551,2.472-0.41,3.956C288.808,209.176,288.969,209.923,289.173,210.696z M226.375,211.332
				c-1.697-0.935-3.49-1.246-5.379-0.935c-2.137,0.352-3.792,1.479-4.967,3.377l-5.88,9.346c-0.389,0.633-0.574,1.283-0.651,1.942
				l29.639,7.409l-8.659-16.732C229.44,213.736,228.073,212.268,226.375,211.332z M296.804,226.631
				c1.481,2.863,3.138,5.209,4.969,7.035s3.809,3.214,5.937,4.161c2.127,0.948,4.391,1.511,6.79,1.689
				c2.399,0.18,4.909,0.053,7.531-0.38l8.528-1.406c2.621-0.432,4.857-1.088,6.709-1.969c0.482-0.229,0.929-0.479,1.346-0.747
				l-43.152-10.979L296.804,226.631z M290.278,227.707l-2.974-5.746l-17.944-4.565c0.471,0.553,0.946,1.271,1.425,2.198
				l5.262,10.167c0.856,1.655,1.154,2.803,0.896,3.443c-0.259,0.643-1.03,1.068-2.315,1.28l-7.788,1.284
				c-1.285,0.212-2.342,0.088-3.172-0.375c-0.83-0.462-1.672-1.52-2.528-3.175l-5.261-10.167c-0.856-1.654-1.155-2.802-0.896-3.444
				c0.258-0.641,1.03-1.067,2.316-1.279l7.157-1.181l-23.403-5.954c-0.333,0.367-0.637,0.75-0.891,1.163
				c-0.89,1.445-1.234,3.216-1.035,5.311c0.199,2.096,1.039,4.575,2.521,7.438l5.347,10.332l39.607,9.902
				c0.34-0.138,0.733-0.244,1.051-0.396c1.852-0.88,3.223-2.042,4.111-3.487c0.889-1.444,1.234-3.215,1.035-5.311
				C292.6,233.051,291.76,230.57,290.278,227.707z"/>
		</g>
	</g>
</g>
</svg>
