<?xml version="1.0" encoding="iso-8859-1"?>
<!-- Generator: Adobe Illustrator 15.0.0, SVG Export Plug-In . SVG Version: 6.00 Build 0)  -->
<!DOCTYPE svg PUBLIC "-//W3C//DTD SVG 1.1//EN" "http://www.w3.org/Graphics/SVG/1.1/DTD/svg11.dtd" [
	<!ENTITY ns_extend "http://ns.adobe.com/Extensibility/1.0/">
	<!ENTITY ns_ai "http://ns.adobe.com/AdobeIllustrator/10.0/">
	<!ENTITY ns_graphs "http://ns.adobe.com/Graphs/1.0/">
	<!ENTITY ns_vars "http://ns.adobe.com/Variables/1.0/">
	<!ENTITY ns_imrep "http://ns.adobe.com/ImageReplacement/1.0/">
	<!ENTITY ns_sfw "http://ns.adobe.com/SaveForWeb/1.0/">
	<!ENTITY ns_custom "http://ns.adobe.com/GenericCustomNamespace/1.0/">
	<!ENTITY ns_adobe_xpath "http://ns.adobe.com/XPath/1.0/">
]>
<svg version="1.1" xmlns:x="&ns_extend;" xmlns:i="&ns_ai;" xmlns:graph="&ns_graphs;"
	 xmlns="http://www.w3.org/2000/svg" xmlns:xlink="http://www.w3.org/1999/xlink" x="0px" y="0px" width="512px" height="512px"
	 viewBox="0 0 512 512" style="enable-background:new 0 0 512 512;" xml:space="preserve">
<metadata>
	<sfw  xmlns="&ns_sfw;">
		<slices></slices>
		<sliceSourceBounds  x="94" y="94" width="512" height="512" bottomLeftOrigin="true"></sliceSourceBounds>
	</sfw>
</metadata>
<g id="&#x418;&#x437;&#x43E;&#x431;&#x440;&#x430;&#x436;&#x435;&#x43D;&#x438;&#x435;_xA0_17_1_">
	<g id="&#x417;&#x430;&#x43B;&#x438;&#x432;&#x43A;&#x430;_&#x446;&#x432;&#x435;&#x442;&#x43E;&#x43C;_1">
		<g>
			<rect x="3.699" y="4.439" style="fill-rule:evenodd;clip-rule:evenodd;fill:#B17D7B;" width="503.121" height="503.121"/>
		</g>
	</g>
	<g id="&#x417;&#x430;&#x43B;&#x438;&#x432;&#x43A;&#x430;_&#x446;&#x432;&#x435;&#x442;&#x43E;&#x43C;_5">
		<g>
			<path style="fill-rule:evenodd;clip-rule:evenodd;fill:#F3D4C3;" d="M484.624,25.156l20.717-20.717H3.699l20.717,20.717H484.624z
				 M24.416,486.844L3.699,507.561h501.642l-20.717-20.717H24.416z"/>
		</g>
	</g>
	
		<g id="&#x417;&#x430;&#x43B;&#x438;&#x432;&#x43A;&#x430;_&#x446;&#x432;&#x435;&#x442;&#x43E;&#x43C;_1_&#x43A;&#x43E;&#x43F;&#x438;&#x44F;_2">
		<g>
			<radialGradient id="SVGID_1_" cx="256.7402" cy="256" r="228.0762" gradientUnits="userSpaceOnUse">
				<stop  offset="0" style="stop-color:#7D7193"/>
				<stop  offset="0.2" style="stop-color:#7C7193"/>
				<stop  offset="0.4" style="stop-color:#6C6382"/>
				<stop  offset="0.5939" style="stop-color:#554E6B"/>
				<stop  offset="0.7515" style="stop-color:#3E3A53"/>
				<stop  offset="0.897" style="stop-color:#29273A"/>
				<stop  offset="1" style="stop-color:#232132"/>
			</radialGradient>
			<polygon style="fill-rule:evenodd;clip-rule:evenodd;fill:url(#SVGID_1_);" points="432.765,27.924 78.856,27.924 28.664,78.116 
				28.664,435.769 76.972,484.076 433.367,484.076 484.816,432.627 484.816,79.976 			"/>
		</g>
	</g>
	
		<g id="&#x417;&#x430;&#x43B;&#x438;&#x432;&#x43A;&#x430;_&#x446;&#x432;&#x435;&#x442;&#x43E;&#x43C;_1_&#x43A;&#x43E;&#x43F;&#x438;&#x44F;">
		<g>
			<path style="fill-rule:evenodd;clip-rule:evenodd;fill:#F2D2C0;" d="M25.109,24.37v463.26h463.26V24.37H25.109z M466.659,418.566
				l-47.353,47.353H91.283l-44.462-44.462V92.277l46.196-46.196h325.734l47.908,47.907V418.566z"/>
		</g>
	</g>
	<g id="&#x424;&#x438;&#x433;&#x443;&#x440;&#x430;_3">
		<g>
			<path style="fill-rule:evenodd;clip-rule:evenodd;fill:#A18180;" d="M429.873,25.156l-344.047-1.48l-62.15,62.891v342.566
				l59.931,59.19l344.046-0.739l59.931-59.191V84.347L429.873,25.156z M477.226,423.954l-56.231,54.751H91.006l-56.231-54.751
				V88.046l54.012-54.012h334.428l54.751,56.231L477.226,423.954z"/>
		</g>
	</g>
	<g id="&#x417;&#x430;&#x43B;&#x438;&#x432;&#x43A;&#x430;_&#x446;&#x432;&#x435;&#x442;&#x43E;&#x43C;_6">
		<g>
			<path style="fill-rule:evenodd;clip-rule:evenodd;fill:#C7907F;" d="M23.676,86.566l62.52-62.752l-62.52-0.139V86.566z
				 M487.584,23.63l-62.521,0.139l62.521,62.752V23.63z M22.196,488.37l62.521-0.139l-62.521-62.752V488.37z M425.803,488.971
				l62.521,0.139v-62.89L425.803,488.971z"/>
		</g>
	</g>
	
		<g id="&#x417;&#x430;&#x43B;&#x438;&#x432;&#x43A;&#x430;_&#x446;&#x432;&#x435;&#x442;&#x43E;&#x43C;_6_&#x43A;&#x43E;&#x43F;&#x438;&#x44F;">
		<g>
			<path style="fill-rule:evenodd;clip-rule:evenodd;fill:#FDECE7;" d="M54.694,55.434l31.502-31.619l-59.314,3.562L54.694,55.434z
				 M27.964,485.886l56.753,2.346L55.27,458.579L27.964,485.886z M425.803,488.971l59.314-3.113l-28.158-28.158L425.803,488.971z
				 M485.117,26.582l-60.054-2.813l31.376,31.491L485.117,26.582z"/>
		</g>
	</g>
	<g id="&#x424;&#x438;&#x433;&#x443;&#x440;&#x430;_1">
		<g>
			<path style="fill-rule:evenodd;clip-rule:evenodd;fill:#C7907F;" d="M34.774,487.769l0.093-9.156h-8.417L34.774,487.769z
				 M477.04,477.873l0.093,9.155l8.323-9.155H477.04z M476.393,25.804l-0.092,9.156h8.416L476.393,25.804z M26.451,34.96h8.417
				l-0.093-9.156L26.451,34.96z"/>
		</g>
	</g>
	<g id="&#x424;&#x438;&#x433;&#x443;&#x440;&#x430;_2">
		<g>
			<path style="fill-rule:evenodd;clip-rule:evenodd;fill:#FDECE7;" d="M22.597,480.813L9.026,497.72l-1.627,10.285l22.418-0.296
				l0.532-18.644l-3.492-6.957L22.597,480.813z M508.448,495.817l-18.855-14.581l-4.261,4.043l-3.068,4.209l2.646,16.529
				l23.688,1.353L508.448,495.817z M21.002,31.648l4.26-1.295l3.492-6.956L28.222,4.754L5.803,4.458l1.628,10.284L21.002,31.648z
				 M487.997,31.226l18.856-14.581l0.147-11.553l-23.687,1.353l-2.646,16.53l3.069,4.208L487.997,31.226z"/>
		</g>
	</g>
	<g id="&#x417;&#x430;&#x43B;&#x438;&#x432;&#x43A;&#x430;_&#x446;&#x432;&#x435;&#x442;&#x43E;&#x43C;_2">
		<g>
			<path style="fill-rule:evenodd;clip-rule:evenodd;fill:#2F181B;" d="M0,0v512h512V0H0z M503.121,503.121H8.878V8.879h494.243
				V503.121z"/>
		</g>
	</g>
	<g id="&#x417;&#x430;&#x43B;&#x438;&#x432;&#x43A;&#x430;_&#x446;&#x432;&#x435;&#x442;&#x43E;&#x43C;_3">
		<g>
			<path style="fill-rule:evenodd;clip-rule:evenodd;fill:#40292E;" d="M482.33,20.67H29.346l-9.369,9.369v397.468
				c-0.119,0.585-0.119,1.188,0,1.771v53.925l9.606,9.605h453.025l9.507-9.507V30.455L482.33,20.67z M28.855,34.183l4.633-4.634
				h40.974L28.855,75.156V34.183z M33.726,483.931l-4.871-4.871v-39.857l44.728,44.729H33.726z M483.237,479.158l-4.772,4.772
				H437.63l45.607-45.607V479.158z M483.237,425.769l-58.162,58.162H86.139l-57.283-57.283V87.711l58.162-58.162h338.058
				l58.162,58.162V425.769z M483.237,75.156L437.63,29.549h40.558l5.05,5.05V75.156z"/>
		</g>
	</g>
	
		<g id="&#x417;&#x430;&#x43B;&#x438;&#x432;&#x43A;&#x430;_&#x446;&#x432;&#x435;&#x442;&#x43E;&#x43C;_4_&#x43A;&#x43E;&#x43F;&#x438;&#x44F;" style="opacity:0.502;">
		<g>
			<path style="fill-rule:evenodd;clip-rule:evenodd;fill:#876867;" d="M465.59,92.913l-47.243-47.244
				c-0.685-0.685-1.612-1.068-2.579-1.068H94.545c-0.968,0-1.896,0.384-2.58,1.068L46.409,91.227
				c-0.684,0.684-1.069,1.611-1.069,2.579v324.619c0,0.968,0.385,1.896,1.069,2.579l43.847,43.847
				c0.684,0.684,1.612,1.068,2.579,1.068h323.479c0.968,0,1.896-0.385,2.579-1.068l46.696-46.696
				c0.685-0.685,1.069-1.612,1.069-2.58V95.493C466.659,94.525,466.274,93.598,465.59,92.913z M459.363,414.063l-44.56,44.56H94.346
				l-41.709-41.709V95.316l43.419-43.419h318.201l45.106,45.106V414.063z"/>
		</g>
	</g>
	<g id="&#x417;&#x430;&#x43B;&#x438;&#x432;&#x43A;&#x430;_&#x446;&#x432;&#x435;&#x442;&#x43E;&#x43C;_4">
		<g>
			<path style="fill-rule:evenodd;clip-rule:evenodd;fill:#40292E;" d="M468.534,90.633l-47.907-47.907
				c-0.693-0.694-1.635-1.084-2.615-1.084H92.277c-0.981,0-1.922,0.39-2.616,1.084L43.465,88.922
				c-0.693,0.693-1.083,1.635-1.083,2.615v329.18c0,0.981,0.39,1.922,1.083,2.615l44.463,44.463
				c0.694,0.693,1.634,1.084,2.615,1.084h328.023c0.981,0,1.922-0.391,2.615-1.084l47.353-47.353
				c0.694-0.694,1.084-1.635,1.084-2.616V93.248C469.618,92.268,469.229,91.326,468.534,90.633z M462.22,416.295l-45.186,45.185
				H92.075L49.78,419.185V93.07l44.029-44.03h322.67l45.74,45.741V416.295z"/>
		</g>
	</g>
</g>
<g id="&#x418;&#x437;&#x43E;&#x431;&#x440;&#x430;&#x436;&#x435;&#x43D;&#x438;&#x435;_xA0_1314_1_">
	<g id="&#x424;&#x438;&#x433;&#x443;&#x440;&#x430;_440_&#x43A;&#x43E;&#x43F;&#x438;&#x44F;_4" style="opacity:0.502;">
		<g>
			<path style="fill-rule:evenodd;clip-rule:evenodd;fill:#232132;" d="M395.667,222.521H118.802
				c-28.283,0-41.615,19.374-39.071,43.988l2.293,22.197l6.625,64.109l2.069,20.027c1.513,14.642,18.039,25.508,38.465,25.508h86.61
				l38.393,26.792c0.746,0.521,1.756,0.813,2.81,0.813c1.055,0,2.065-0.292,2.812-0.813l38.41-26.792h83.239
				c24.626,0,39.107-8.887,40.801-25.281l2.069-20.021l6.669-64.548l2.295-22.202C436.452,235.703,415.338,222.521,395.667,222.521z
				"/>
		</g>
	</g>
	<g id="&#x424;&#x438;&#x433;&#x443;&#x440;&#x430;_440_&#x43A;&#x43E;&#x43F;&#x438;&#x44F;_2_1_">
		<g>
			<path style="fill-rule:evenodd;clip-rule:evenodd;fill:#8384AE;" d="M394.848,162.681H118.027
				c-25.395,0-38.328,13.921-38.328,44.263v121.198c0,21.283,16.639,34.798,35.36,34.798h98.208l43.982,43.981l43.98-43.981h94.461
				c20.282,0,37.983-7.694,37.983-34.454V206.662C433.675,177.008,420.223,162.681,394.848,162.681z M169.34,306.72
				c-2.758,0-50.68-33.696-50.538-52.712c0.141-18.872,12.423-29.094,25.339-29.03c9.6,0.047,23.422,17.862,25.123,17.862
				c1.7,0,15.958-17.718,25.93-17.486c12.602,0.291,24.44,10.047,24.578,28.458C219.913,272.699,172.098,306.72,169.34,306.72z"/>
		</g>
	</g>
	<g id="&#x424;&#x438;&#x433;&#x443;&#x440;&#x430;_442_1_">
		<g>
			<path style="fill-rule:evenodd;clip-rule:evenodd;fill:#676890;" d="M122.802,207.793c-4.367,10.387-2.12,24.296-2.12,24.296
				s5.574-2.864,9.459-5.549c4.809-3.322,10.657-4.541,10.657-4.541l-0.5-28.487C140.299,193.512,126.974,197.871,122.802,207.793z
				 M95.956,326.988c-9.004-4.002-16.412-15.09-16.412-15.09s-2.494,23.846,5.518,35.083c7.727,10.84,25.25,13.147,25.25,13.147
				l-0.25-28.676C110.062,331.453,102.163,329.747,95.956,326.988z M180.92,201.714c-6.507,4.365-12.539,10.945-12.539,10.945
				l-0.156,27.489c0,0,6.886-5.775,13.286-10.254c6.185-4.327,11.891-7.364,11.891-7.364l-0.25-26.488
				C193.152,196.042,186.763,197.794,180.92,201.714z M256.75,403.423l41.42-40.14l0.063-28.332l-41.482,38.984V403.423z
				 M433.176,317.959c0,0-7.863,6.13-16.522,9.568c-8.327,3.307-17.464,3.926-17.464,3.926v29.987c0,0,18.17,1.001,27.092-10.415
				C434.304,340.762,433.176,317.959,433.176,317.959z"/>
		</g>
	</g>
	<g id="&#x417;&#x430;&#x43B;&#x438;&#x432;&#x43A;&#x430;_&#x446;&#x432;&#x435;&#x442;&#x43E;&#x43C;_236_1_">
		<g>
			<path style="fill-rule:evenodd;clip-rule:evenodd;fill:#4F4A6A;" d="M394.66,156.854H117.84
				c-28.417,0-42.826,16.405-42.826,48.761v121.199c0,22.402,17.135,39.295,39.857,39.295h96.346l42.664,42.665
				c0.844,0.844,1.987,1.318,3.181,1.318s2.337-0.475,3.181-1.318l42.664-42.665h92.597c27.394,0,42.481-13.832,42.481-38.951
				V205.334C437.985,165.265,414.424,156.854,394.66,156.854z M428.989,327.158c0,17.162-7.973,26.788-24.239,29.277v-39.43
				c0-2.485-2.014-4.498-4.498-4.498s-4.498,2.013-4.498,4.498v40.101c-0.086,0.001-0.164,0.007-0.25,0.007h-90.836v-35.609
				c0-2.485-2.014-4.498-4.498-4.498c-2.485,0-4.498,2.013-4.498,4.498v39.121l-34.486,34.485v-32.749
				c0-2.484-2.014-4.498-4.498-4.498c-2.484,0-4.498,2.014-4.498,4.498v31.999l-34.11-34.111v-38.745
				c0-2.485-2.014-4.498-4.498-4.498c-2.484,0-4.498,2.013-4.498,4.498v35.609h-94.211c-0.083,0-0.167-0.01-0.25-0.011v-32.601
				c0-2.484-2.014-4.498-4.498-4.498s-4.498,2.014-4.498,4.498v31.237c-11.604-3.431-21.616-13.313-21.616-28.925V205.615
				c0-27.501,10.433-39.765,33.83-39.765h276.82c23.1,0,34.329,12.915,34.329,39.483V327.158z M198.587,219.849v-32.464
				c0-2.483-2.015-4.498-4.499-4.498s-4.498,2.015-4.498,4.498v33.08c-5.42,1.86-10.89,6.27-16.193,11.178V198.48
				c0-2.483-2.014-4.498-4.498-4.498s-4.498,2.015-4.498,4.498v32.589c-6.01-5.733-12.226-10.71-18.292-11.72v-34.663
				c0-2.484-2.014-4.498-4.498-4.498c-2.484,0-4.498,2.014-4.498,4.498v35.313c-12.157,2.977-22.857,14.043-22.996,32.646
				c-0.058,7.755,5.515,17.167,17.039,28.778c11.67,11.758,33.292,28.466,37.997,28.466c4.891,0,27.017-17.665,37.589-28.315
				c11.727-11.814,17.398-21.341,17.34-29.125C223.931,232.136,211.341,221.699,198.587,219.849z M169.144,300.49
				c-9.269-5.088-46.135-33.748-46.03-47.777c0.125-16.878,10.829-24.565,20.72-24.565h0.098c4.904,0.024,13.856,8.959,17.68,12.774
				c3.814,3.807,5.1,5.089,7.464,5.089c2.305,0,3.576-1.223,7.349-4.852c4.266-4.101,13.141-12.637,18.477-12.637h0
				c9.959,0.23,20.063,7.739,20.184,23.994C215.19,266.54,178.396,295.361,169.144,300.49z"/>
		</g>
	</g>
	<g id="&#x424;&#x438;&#x433;&#x443;&#x440;&#x430;_440_1_">
		<g>
			<path style="fill-rule:evenodd;clip-rule:evenodd;fill:#B7B7E2;" d="M394.848,131.193H118.027
				c-25.395,0-38.328,13.922-38.328,44.263v121.199c0,21.282,16.639,34.798,35.36,34.798h98.208l43.982,43.981l43.98-43.981h94.461
				c20.282,0,37.983-7.694,37.983-34.454V175.175C433.675,145.521,420.223,131.193,394.848,131.193z M169.34,275.233
				c-2.758,0-50.68-33.696-50.538-52.713c0.141-18.871,12.423-29.094,25.339-29.03c9.6,0.047,23.422,17.863,25.123,17.863
				c1.7,0,15.958-17.718,25.93-17.487c12.602,0.292,24.44,10.047,24.578,28.458C219.913,241.212,172.098,275.233,169.34,275.233z"/>
		</g>
	</g>
	<g id="&#x417;&#x430;&#x43B;&#x438;&#x432;&#x43A;&#x430;_&#x446;&#x432;&#x435;&#x442;&#x43E;&#x43C;_235_1_">
		<g>
			<path style="fill-rule:evenodd;clip-rule:evenodd;fill:#4F4A6A;" d="M195.111,189.542l-0.299-0.004
				c-8.184,0-16.65,7.483-24.622,15.149c-0.343,0.33-0.71,0.683-1.07,1.026c-0.386-0.383-0.784-0.779-1.154-1.148
				c-7.788-7.771-16.055-15.362-23.99-15.401h-0.142c-14.643,0-29.552,11.505-29.716,33.494
				c-0.058,7.754,5.515,17.167,17.039,28.777c11.671,11.758,33.292,28.467,37.997,28.467c4.891,0,27.017-17.665,37.589-28.315
				c11.727-11.814,17.398-21.341,17.34-29.125C223.917,200.3,208.948,189.862,195.111,189.542z M169.144,270.503
				c-9.269-5.088-46.135-33.749-46.03-47.777c0.125-16.878,10.829-24.565,20.72-24.565h0.098c4.904,0.024,13.856,8.958,17.68,12.773
				c3.814,3.807,5.1,5.09,7.464,5.09c2.305,0,3.576-1.223,7.349-4.852c4.266-4.102,13.141-12.637,18.477-12.637h0
				c9.959,0.23,20.063,7.739,20.184,23.994C215.19,236.553,178.396,265.374,169.144,270.503z M394.66,126.867H117.84
				c-28.417,0-42.826,16.405-42.826,48.761v121.199c0,22.402,17.135,39.295,39.857,39.295h96.346l42.664,42.665
				c0.844,0.844,1.987,1.317,3.181,1.317s2.337-0.474,3.181-1.317l42.664-42.665h92.597c27.394,0,42.481-13.832,42.481-38.951
				V175.347C437.985,135.277,414.424,126.867,394.66,126.867z M428.989,297.171c0,20.156-10.954,29.955-33.485,29.955h-94.459
				c-1.193,0-2.337,0.475-3.18,1.318l-40.803,40.802l-40.801-40.802c-0.843-0.844-1.988-1.318-3.18-1.318h-98.209
				c-14.96,0-30.861-10.618-30.861-30.299V175.628c0-27.501,10.433-39.765,33.83-39.765h276.82c23.1,0,34.329,12.915,34.329,39.483
				V297.171z"/>
		</g>
	</g>
	<g id="_x35_00">
		<g>
			<path style="fill-rule:evenodd;clip-rule:evenodd;fill:#4F4A6A;" d="M264.492,224.951h-15.585v-6.706h25.22
				c5.919,0,8.88-3.07,8.88-9.21s-2.897-9.21-8.69-9.21h-39.484c-1.827,0-2.992,0.912-3.495,2.733v33.36
				c0,1.382,0.331,2.435,0.992,3.157c0.661,0.724,1.559,1.084,2.692,1.084h27.866c3.4,0,5.101,1.291,5.101,3.872
				c0,2.52-1.7,3.778-5.101,3.778h-22.104c-3.212,0-5.684,0.756-7.415,2.268c-1.733,1.512-2.598,3.811-2.598,6.896
				c0,6.172,3.306,9.257,9.918,9.257h22.671c13.791,0,20.687-7.084,20.687-21.253c0-6.863-1.638-11.917-4.912-15.161
				C275.859,226.573,270.979,224.951,264.492,224.951z M408.118,212.843c-1.039-3.144-2.52-5.675-4.439-7.594
				c-1.922-1.917-4.236-3.3-6.943-4.15c-2.708-0.849-5.73-1.273-9.067-1.273h-10.863c-3.339,0-6.361,0.425-9.068,1.273
				c-2.708,0.851-5.022,2.233-6.942,4.15c-1.922,1.919-3.401,4.45-4.44,7.594s-1.559,7.011-1.559,11.602v17.168
				c0,4.59,0.52,8.458,1.559,11.603c1.039,3.144,2.519,5.675,4.44,7.592c1.92,1.919,4.234,3.302,6.942,4.15
				c2.707,0.85,5.729,1.273,9.068,1.273h10.863c3.337,0,6.359-0.424,9.067-1.273c2.707-0.849,5.021-2.231,6.943-4.15
				c1.92-1.917,3.4-4.448,4.439-7.592c1.039-3.145,1.559-7.013,1.559-11.603v-17.168
				C409.677,219.854,409.157,215.986,408.118,212.843z M391.729,241.178c0,2.654-0.347,4.422-1.039,5.307
				c-0.694,0.886-1.858,1.326-3.495,1.326h-9.918c-1.639,0-2.804-0.44-3.495-1.326c-0.694-0.885-1.039-2.652-1.039-5.307v-16.3
				c0-2.652,0.345-4.421,1.039-5.306c0.691-0.885,1.856-1.327,3.495-1.327h9.918c1.637,0,2.801,0.442,3.495,1.327
				c0.692,0.885,1.039,2.653,1.039,5.306V241.178z M340.485,205.249c-1.921-1.917-4.235-3.3-6.942-4.15
				c-2.709-0.849-5.731-1.273-9.068-1.273h-10.863c-3.338,0-6.361,0.425-9.068,1.273c-2.708,0.851-5.021,2.233-6.942,4.15
				c-1.922,1.919-3.4,4.45-4.439,7.594s-1.559,7.011-1.559,11.602v17.168c0,4.59,0.52,8.458,1.559,11.603
				c1.039,3.144,2.518,5.675,4.439,7.592c1.921,1.919,4.234,3.302,6.942,4.15c2.707,0.85,5.73,1.273,9.068,1.273h10.863
				c3.337,0,6.359-0.424,9.068-1.273c2.707-0.849,5.021-2.231,6.942-4.15c1.921-1.917,3.401-4.448,4.44-7.592
				c1.039-3.145,1.559-7.013,1.559-11.603v-17.168c0-4.591-0.52-8.458-1.559-11.602S342.406,207.168,340.485,205.249z
				 M328.536,241.178c0,2.654-0.347,4.422-1.039,5.307c-0.693,0.886-1.858,1.326-3.495,1.326h-9.918
				c-1.639,0-2.803-0.44-3.495-1.326c-0.694-0.885-1.039-2.652-1.039-5.307v-16.3c0-2.652,0.345-4.421,1.039-5.306
				c0.692-0.885,1.856-1.327,3.495-1.327h9.918c1.637,0,2.802,0.442,3.495,1.327c0.692,0.885,1.039,2.653,1.039,5.306V241.178z"/>
		</g>
	</g>
</g>
</svg>
