<?xml version="1.0" encoding="iso-8859-1"?>
<!-- Generator: Adobe Illustrator 15.0.0, SVG Export Plug-In . SVG Version: 6.00 Build 0)  -->
<!DOCTYPE svg PUBLIC "-//W3C//DTD SVG 1.1//EN" "http://www.w3.org/Graphics/SVG/1.1/DTD/svg11.dtd" [
	<!ENTITY ns_extend "http://ns.adobe.com/Extensibility/1.0/">
	<!ENTITY ns_ai "http://ns.adobe.com/AdobeIllustrator/10.0/">
	<!ENTITY ns_graphs "http://ns.adobe.com/Graphs/1.0/">
	<!ENTITY ns_vars "http://ns.adobe.com/Variables/1.0/">
	<!ENTITY ns_imrep "http://ns.adobe.com/ImageReplacement/1.0/">
	<!ENTITY ns_sfw "http://ns.adobe.com/SaveForWeb/1.0/">
	<!ENTITY ns_custom "http://ns.adobe.com/GenericCustomNamespace/1.0/">
	<!ENTITY ns_adobe_xpath "http://ns.adobe.com/XPath/1.0/">
]>
<svg version="1.1" xmlns:x="&ns_extend;" xmlns:i="&ns_ai;" xmlns:graph="&ns_graphs;"
	 xmlns="http://www.w3.org/2000/svg" xmlns:xlink="http://www.w3.org/1999/xlink" x="0px" y="0px" width="512px" height="512px"
	 viewBox="0 0 512 512" style="enable-background:new 0 0 512 512;" xml:space="preserve">
<metadata>
	<sfw  xmlns="&ns_sfw;">
		<slices></slices>
		<sliceSourceBounds  height="512" width="512" x="94" y="94" bottomLeftOrigin="true"></sliceSourceBounds>
	</sfw>
</metadata>
<g id="&#x438;&#x433;&#x440;&#x43E;&#x432;&#x44B;&#x435;_1_">
	<g id="&#x417;&#x430;&#x43B;&#x438;&#x432;&#x43A;&#x430;_&#x446;&#x432;&#x435;&#x442;&#x43E;&#x43C;_1">
		<g>
			<rect x="3.699" y="4.439" style="fill-rule:evenodd;clip-rule:evenodd;fill:#B17D7B;" width="503.121" height="503.121"/>
		</g>
	</g>
	<g id="&#x417;&#x430;&#x43B;&#x438;&#x432;&#x43A;&#x430;_&#x446;&#x432;&#x435;&#x442;&#x43E;&#x43C;_5">
		<g>
			<path style="fill-rule:evenodd;clip-rule:evenodd;fill:#F3D4C3;" d="M484.624,25.156l20.717-20.717H3.699l20.717,20.717H484.624z
				 M24.416,486.844L3.699,507.561h501.642l-20.717-20.717H24.416z"/>
		</g>
	</g>
	
		<g id="&#x417;&#x430;&#x43B;&#x438;&#x432;&#x43A;&#x430;_&#x446;&#x432;&#x435;&#x442;&#x43E;&#x43C;_1_&#x43A;&#x43E;&#x43F;&#x438;&#x44F;_2">
		<g>
			<radialGradient id="SVGID_1_" cx="256.7402" cy="256" r="228.0762" gradientUnits="userSpaceOnUse">
				<stop  offset="0" style="stop-color:#99708E"/>
				<stop  offset="0.2" style="stop-color:#956D8B"/>
				<stop  offset="0.4182" style="stop-color:#886080"/>
				<stop  offset="0.6121" style="stop-color:#734E6D"/>
				<stop  offset="0.7636" style="stop-color:#573A54"/>
				<stop  offset="0.897" style="stop-color:#40293F"/>
				<stop  offset="1" style="stop-color:#331F32"/>
			</radialGradient>
			<polygon style="fill-rule:evenodd;clip-rule:evenodd;fill:url(#SVGID_1_);" points="432.765,27.924 78.856,27.924 28.664,78.116 
				28.664,435.769 76.972,484.076 433.367,484.076 484.816,432.627 484.816,79.976 			"/>
		</g>
	</g>
	
		<g id="&#x417;&#x430;&#x43B;&#x438;&#x432;&#x43A;&#x430;_&#x446;&#x432;&#x435;&#x442;&#x43E;&#x43C;_1_&#x43A;&#x43E;&#x43F;&#x438;&#x44F;">
		<g>
			<path style="fill-rule:evenodd;clip-rule:evenodd;fill:#F2D2C0;" d="M25.109,24.37v463.26h463.26V24.37H25.109z M466.659,418.566
				l-47.353,47.353H91.283l-44.462-44.462V92.277l46.196-46.196h325.734l47.908,47.907V418.566z"/>
		</g>
	</g>
	<g id="&#x424;&#x438;&#x433;&#x443;&#x440;&#x430;_3">
		<g>
			<path style="fill-rule:evenodd;clip-rule:evenodd;fill:#A18180;" d="M429.873,25.156l-344.047-1.48l-62.15,62.891v342.566
				l59.931,59.19l344.046-0.739l59.931-59.191V84.347L429.873,25.156z M477.226,423.954l-56.231,54.751H91.006l-56.231-54.751
				V88.046l54.012-54.012h334.428l54.751,56.231L477.226,423.954z"/>
		</g>
	</g>
	<g id="&#x417;&#x430;&#x43B;&#x438;&#x432;&#x43A;&#x430;_&#x446;&#x432;&#x435;&#x442;&#x43E;&#x43C;_6">
		<g>
			<path style="fill-rule:evenodd;clip-rule:evenodd;fill:#C7907F;" d="M23.676,86.566l62.52-62.752l-62.52-0.139V86.566z
				 M487.584,23.63l-62.521,0.139l62.521,62.752V23.63z M22.196,488.37l62.521-0.139l-62.521-62.752V488.37z M425.803,488.971
				l62.521,0.139v-62.89L425.803,488.971z"/>
		</g>
	</g>
	
		<g id="&#x417;&#x430;&#x43B;&#x438;&#x432;&#x43A;&#x430;_&#x446;&#x432;&#x435;&#x442;&#x43E;&#x43C;_6_&#x43A;&#x43E;&#x43F;&#x438;&#x44F;">
		<g>
			<path style="fill-rule:evenodd;clip-rule:evenodd;fill:#FDECE7;" d="M54.694,55.434l31.502-31.619l-59.314,3.562L54.694,55.434z
				 M27.964,485.886l56.753,2.346L55.27,458.579L27.964,485.886z M485.117,26.582l-60.054-2.813l31.376,31.491L485.117,26.582z
				 M425.803,488.971l59.314-3.113l-28.158-28.158L425.803,488.971z"/>
		</g>
	</g>
	<g id="&#x424;&#x438;&#x433;&#x443;&#x440;&#x430;_1">
		<g>
			<path style="fill-rule:evenodd;clip-rule:evenodd;fill:#C7907F;" d="M34.774,487.769l0.093-9.156h-8.417L34.774,487.769z
				 M477.04,477.873l0.093,9.155l8.323-9.155H477.04z M476.393,25.804l-0.092,9.156h8.416L476.393,25.804z M26.451,34.96h8.417
				l-0.093-9.156L26.451,34.96z"/>
		</g>
	</g>
	<g id="&#x424;&#x438;&#x433;&#x443;&#x440;&#x430;_2">
		<g>
			<path style="fill-rule:evenodd;clip-rule:evenodd;fill:#FDECE7;" d="M22.597,480.813L9.026,497.72l-1.627,10.285l22.418-0.296
				l0.532-18.644l-3.492-6.957L22.597,480.813z M508.448,495.817l-18.855-14.581l-4.261,4.043l-3.068,4.209l2.646,16.529
				l23.688,1.353L508.448,495.817z M21.002,31.648l4.26-1.295l3.492-6.956L28.222,4.754L5.803,4.458l1.628,10.284L21.002,31.648z
				 M487.997,31.226l18.856-14.581l0.147-11.553l-23.687,1.353l-2.646,16.53l3.069,4.208L487.997,31.226z"/>
		</g>
	</g>
	<g id="&#x417;&#x430;&#x43B;&#x438;&#x432;&#x43A;&#x430;_&#x446;&#x432;&#x435;&#x442;&#x43E;&#x43C;_2">
		<g>
			<path style="fill-rule:evenodd;clip-rule:evenodd;fill:#2F181B;" d="M0,0v512h512V0H0z M503.121,503.121H8.878V8.879h494.243
				V503.121z"/>
		</g>
	</g>
	<g id="&#x417;&#x430;&#x43B;&#x438;&#x432;&#x43A;&#x430;_&#x446;&#x432;&#x435;&#x442;&#x43E;&#x43C;_3">
		<g>
			<path style="fill-rule:evenodd;clip-rule:evenodd;fill:#40292E;" d="M482.33,20.67H29.346l-9.369,9.369v397.468
				c-0.119,0.585-0.119,1.188,0,1.771v53.925l9.606,9.605h453.025l9.507-9.507V30.455L482.33,20.67z M28.855,34.183l4.633-4.634
				h40.974L28.855,75.156V34.183z M33.726,483.931l-4.871-4.871v-39.857l44.728,44.729H33.726z M483.237,479.158l-4.772,4.772
				H437.63l45.607-45.607V479.158z M483.237,425.769l-58.162,58.162H86.139l-57.283-57.283V87.711l58.162-58.162h338.058
				l58.162,58.162V425.769z M483.237,75.156L437.63,29.549h40.558l5.05,5.05V75.156z"/>
		</g>
	</g>
	
		<g id="&#x417;&#x430;&#x43B;&#x438;&#x432;&#x43A;&#x430;_&#x446;&#x432;&#x435;&#x442;&#x43E;&#x43C;_4_&#x43A;&#x43E;&#x43F;&#x438;&#x44F;" style="opacity:0.502;">
		<g>
			<path style="fill-rule:evenodd;clip-rule:evenodd;fill:#876867;" d="M465.59,92.913l-47.243-47.244
				c-0.685-0.685-1.612-1.068-2.579-1.068H94.545c-0.968,0-1.896,0.384-2.58,1.068L46.409,91.227
				c-0.684,0.684-1.069,1.611-1.069,2.579v324.619c0,0.968,0.385,1.896,1.069,2.579l43.847,43.847
				c0.684,0.684,1.612,1.068,2.579,1.068h323.479c0.968,0,1.896-0.385,2.579-1.068l46.696-46.696
				c0.685-0.685,1.069-1.612,1.069-2.58V95.493C466.659,94.525,466.274,93.598,465.59,92.913z M459.363,414.063l-44.56,44.56H94.346
				l-41.709-41.709V95.316l43.419-43.419h318.201l45.106,45.106V414.063z"/>
		</g>
	</g>
	<g id="&#x417;&#x430;&#x43B;&#x438;&#x432;&#x43A;&#x430;_&#x446;&#x432;&#x435;&#x442;&#x43E;&#x43C;_4">
		<g>
			<path style="fill-rule:evenodd;clip-rule:evenodd;fill:#40292E;" d="M468.534,90.633l-47.907-47.907
				c-0.693-0.694-1.635-1.084-2.615-1.084H92.277c-0.981,0-1.922,0.39-2.616,1.084L43.465,88.922
				c-0.693,0.693-1.083,1.635-1.083,2.615v329.18c0,0.981,0.39,1.922,1.083,2.615l44.463,44.463
				c0.694,0.693,1.634,1.084,2.615,1.084h328.023c0.981,0,1.922-0.391,2.615-1.084l47.353-47.353
				c0.694-0.694,1.084-1.635,1.084-2.616V93.248C469.618,92.268,469.229,91.326,468.534,90.633z M462.22,416.295l-45.186,45.185
				H92.075L49.78,419.185V93.07l44.029-44.03h322.67l45.74,45.741V416.295z"/>
		</g>
	</g>
</g>
<g id="&#x418;&#x437;&#x43E;&#x431;&#x440;&#x430;&#x436;&#x435;&#x43D;&#x438;&#x435;_xA0_162_1_">
	<g id="&#x424;&#x438;&#x433;&#x443;&#x440;&#x430;_35_&#x43A;&#x43E;&#x43F;&#x438;&#x44F;_4" style="opacity:0.502;">
		<g>
			<path style="fill-rule:evenodd;clip-rule:evenodd;fill:#331F32;" d="M416.962,356.057c-0.077-1.726-0.195-3.446-0.351-5.154
				c-0.078-0.854-0.164-1.706-0.26-2.554s-0.2-1.692-0.313-2.532c-0.904-6.716-2.321-13.155-4.138-18.875
				c-3.038-9.835-13.024-19.194-16.527-23.98c-8.167-11.632-19.156-28.697-36.664-50.536c-0.528-0.663-1.081-1.362-1.634-2.062
				c2.768-3.732,5.552-7.414,8.455-11.049c12.896-16.4,23.807-30.098,31.413-37.302c4.008-3.809,10.704-11.036,13.601-18.391
				c2.185-5.593,3.813-11.822,4.802-18.306c0.123-0.811,0.236-1.625,0.339-2.442c0.104-0.817,0.195-1.639,0.277-2.462
				c0.163-1.647,0.283-3.305,0.358-4.966c0.151-3.322,0.121-6.66-0.108-9.964c-0.901-13.209-5.076-25.889-13.299-34.375
				c-6.942-7.21-17.119-10.989-28.393-12.017c-5.636-0.524-11.544-0.387-17.448,0.266c-0.738,0.082-1.477,0.172-2.214,0.27
				s-1.474,0.203-2.21,0.315c-1.471,0.227-2.937,0.482-4.394,0.768c-2.914,0.571-5.791,1.256-8.594,2.046
				c-12.831,3.649-24.334,11.53-30.357,16.188c-6.171,4.732-22.365,17.544-46.13,33.365c-2.124,1.429-4.276,2.834-6.454,4.24
				c-3.802-2.723-7.553-5.48-11.249-8.357c-17.851-13.706-32.487-25.314-40.258-33.17c-4.116-4.169-11.827-11.024-19.343-13.887
				c-5.721-2.166-12.021-3.727-18.566-4.593c-0.818-0.107-1.641-0.204-2.466-0.29c-0.825-0.086-1.654-0.16-2.485-0.223
				c-1.663-0.125-3.336-0.204-5.016-0.234c-3.358-0.059-6.739,0.078-10.098,0.433c-13.412,1.386-26.62,6.435-35.86,15.671
				c-7.834,7.79-12.285,18.777-13.705,30.446c-0.725,5.842-0.726,11.865-0.154,17.836c0.071,0.747,0.151,1.492,0.24,2.237
				c0.089,0.744,0.187,1.487,0.292,2.229c0.212,1.483,0.457,2.96,0.733,4.428c0.553,2.935,1.231,5.83,2.022,8.658
				c3.668,12.888,11.788,24.947,16.614,31.448c4.904,6.471,18.005,24.254,34.823,49.849c-14.123,17.279-25.212,30.964-33.561,40.878
				c-8.606,10.554-15.331,30.209-18.989,49.577c-0.445,2.429-0.833,4.859-1.155,7.276s-0.576,4.82-0.75,7.196
				c-0.348,4.754-0.377,9.398,0.041,13.825c0.832,8.851,3.479,16.85,9.043,23.013c7.764,8.64,21.111,13.099,35.281,14.226
				c3.539,0.282,7.126,0.358,10.692,0.243c1.783-0.057,3.56-0.162,5.324-0.313c0.882-0.075,1.76-0.162,2.634-0.26
				c0.874-0.099,1.744-0.207,2.607-0.328c6.913-0.963,13.477-2.621,19.207-4.894c9.794-3.879,18.376-16.881,23.164-21.142
				c9.663-8.536,24.902-18.223,43.442-32.2c25.998,18.177,42.594,29.578,53.81,40.973c9.008,8.766,26.932,16.042,46.006,18.885
				c2.394,0.338,4.812,0.595,7.239,0.759c2.427,0.164,4.864,0.235,7.297,0.202c4.863-0.067,9.708-0.556,14.389-1.553
				c9.355-1.987,18.062-6.038,24.639-12.565c9.286-9.181,13.507-22.655,14.296-36.402
				C417.109,362.98,417.117,359.508,416.962,356.057z"/>
		</g>
	</g>
	<g id="&#x424;&#x438;&#x433;&#x443;&#x440;&#x430;_35_&#x43A;&#x43E;&#x43F;&#x438;&#x44F;_3">
		<g>
			<path style="fill-rule:evenodd;clip-rule:evenodd;fill:#E8AF69;" d="M403.51,319.853c-2.8-7.905-14.293-13.434-18.009-17.072
				c-8.848-8.662-21.008-21.778-39.089-40.818c-11.544-12.154-28.26-33.146-45.31-50.511
				c-22.409-22.825-41.685-37.253-59.256-54.336c-15.143-14.721-26.973-26.644-32.877-34.62c-3.148-4.254-8.957-11.178-15.258-13.52
				c-19.225-7.146-48.675-0.957-66.695,17.063c-15.249,15.248-21.215,40.047-16.46,59.304c2.706,10.959,11.708,20.104,17.136,25.124
				s20.672,18.708,39.922,41.216c12.451,14.56,23.861,30.668,41.112,49.673c13.242,14.588,32.825,31.229,43.647,41.649
				c24.26,23.355,38.567,35.995,47.825,47.974c13.389,17.323,61.452,22.91,87.098-2.734
				C405.287,370.252,410.092,338.435,403.51,319.853z"/>
		</g>
	</g>
	<g id="&#x424;&#x438;&#x433;&#x443;&#x440;&#x430;_36">
		<g>
			<path style="fill-rule:evenodd;clip-rule:evenodd;fill:#DB8653;" d="M126.538,177.842c-4.792-24.03,1.605-52.995,1.605-52.995
				s-25.461,23.173-19.288,55.136c3.583,18.551,20.223,33.73,33.408,47.248c14.514,14.881,25.683,25.707,25.683,25.707l13.252-12.8
				C181.198,240.138,129.473,192.558,126.538,177.842z M225.801,143.301c-12.704-13.971-19.579-30.313-37.882-35
				c-31.535-8.075-59.402,15.682-59.402,15.682s29.295-4.652,52.996,1.569c14.514,3.811,58.912,58.291,58.912,58.291l13.57-12.462
				C253.995,171.381,239.786,158.68,225.801,143.301z M326.86,387.008c-14.531-3.745-59.764-56.938-59.764-56.938l-13.107,16.143
				c0,0,10.374,7.046,24.428,22.361c12.767,13.913,27.003,31.367,45.326,35.972c31.572,7.932,56.752-12.635,56.752-12.635
				S350.588,393.122,326.86,387.008z M403.897,326.674c-3.667-18.534-23.449-26.167-36.694-39.625
				c-14.582-14.814-26.342-31.287-26.342-31.287l-13.691,17.202c0,0,55.785,47.254,58.786,61.957
				c4.901,24.008-1.229,55.172-1.229,55.172S410.216,358.608,403.897,326.674z"/>
		</g>
	</g>
	<g id="&#x424;&#x438;&#x433;&#x443;&#x440;&#x430;_39_&#x43A;&#x43E;&#x43F;&#x438;&#x44F;">
		<g>
			<path style="fill-rule:evenodd;clip-rule:evenodd;fill:#D78E63;" d="M234.962,166.288c2.316-2.33,2.304-6.096-0.025-8.412
				c-2.33-2.315-6.096-2.304-8.412,0.026c-2.315,2.33-2.304,6.096,0.026,8.411C228.88,168.629,232.646,168.617,234.962,166.288z
				 M232.458,184.205c2.315-2.329,2.304-6.096-0.026-8.411c-2.33-2.315-6.096-2.304-8.411,0.026
				c-2.316,2.329-2.304,6.096,0.025,8.411C226.377,186.547,230.143,186.535,232.458,184.205z M229.469,210.601
				c-2.33-2.316-6.096-2.305-8.411,0.025c-2.316,2.33-2.304,6.096,0.025,8.411c2.33,2.315,6.096,2.304,8.412-0.025
				C231.81,216.682,231.799,212.916,229.469,210.601z M231.998,201.094c2.316-2.33,2.304-6.096-0.025-8.411
				c-2.33-2.315-6.096-2.305-8.412,0.025c-2.315,2.33-2.304,6.096,0.026,8.411C225.917,203.435,229.683,203.424,231.998,201.094z
				 M217.573,169.411c2.315-2.33,2.304-6.096-0.026-8.411c-2.33-2.315-6.096-2.304-8.411,0.025c-2.316,2.33-2.304,6.096,0.026,8.411
				C211.492,171.753,215.258,171.741,217.573,169.411z M219.064,228.03c-2.316,2.33-2.304,6.096,0.026,8.411
				c2.33,2.316,6.096,2.305,8.411-0.025s2.304-6.096-0.026-8.411C225.146,225.689,221.379,225.7,219.064,228.03z M220.077,151.493
				c2.315-2.329,2.304-6.096-0.026-8.411c-2.33-2.315-6.096-2.304-8.411,0.025c-2.316,2.33-2.304,6.096,0.025,8.412
				C213.996,153.835,217.761,153.823,220.077,151.493z M260.779,241.719c-2.33-2.315-6.096-2.304-8.412,0.026
				c-2.316,2.33-2.304,6.096,0.025,8.411c2.33,2.315,6.095,2.304,8.412-0.025C263.12,247.801,263.109,244.035,260.779,241.719z
				 M249.861,258.64c-2.316,2.329-2.304,6.096,0.025,8.411c2.33,2.315,6.096,2.304,8.412-0.026c2.315-2.329,2.304-6.096-0.026-8.411
				C255.942,256.298,252.176,256.31,249.861,258.64z M216.086,185.279c2.316-2.33,2.304-6.096-0.025-8.411
				c-2.33-2.316-6.096-2.305-8.412,0.025c-2.315,2.33-2.304,6.096,0.026,8.411S213.771,187.609,216.086,185.279z M250.874,182.103
				c2.316-2.33,2.304-6.096-0.025-8.411c-2.33-2.316-6.096-2.305-8.412,0.025c-2.315,2.33-2.304,6.096,0.026,8.411
				C244.792,184.443,248.558,184.432,250.874,182.103z M247.396,216.398c2.316-2.33,2.304-6.096-0.025-8.412
				c-2.33-2.315-6.096-2.304-8.412,0.026c-2.315,2.33-2.304,6.096,0.026,8.411C241.315,218.739,245.081,218.728,247.396,216.398z
				 M244.867,225.904c-2.33-2.315-6.096-2.304-8.411,0.026c-2.316,2.329-2.304,6.096,0.025,8.411
				c2.33,2.315,6.096,2.304,8.412-0.026C247.208,231.986,247.197,228.22,244.867,225.904z M248.37,200.021
				c2.315-2.33,2.304-6.096-0.026-8.412c-2.33-2.315-6.096-2.304-8.411,0.026c-2.316,2.33-2.304,6.096,0.025,8.411
				C242.289,202.361,246.054,202.35,248.37,200.021z M234.976,243.845c-2.315,2.33-2.304,6.096,0.026,8.411
				c2.33,2.316,6.096,2.305,8.411-0.025s2.304-6.096-0.026-8.411C241.057,241.504,237.291,241.516,234.976,243.845z
				 M167.388,157.283c2.315-2.329,2.304-6.096-0.026-8.411c-2.33-2.315-6.096-2.304-8.411,0.026
				c-2.315,2.329-2.304,6.096,0.026,8.411C161.306,159.625,165.072,159.613,167.388,157.283z M213.557,194.785
				c-2.33-2.315-6.096-2.304-8.411,0.026c-2.316,2.33-2.304,6.096,0.025,8.411c2.33,2.315,6.096,2.304,8.412-0.025
				C215.898,200.867,215.887,197.102,213.557,194.785z M172.869,182.117c-2.315,2.33-2.304,6.096,0.026,8.411
				c2.33,2.315,6.096,2.304,8.411-0.025c2.315-2.33,2.304-6.096-0.026-8.411C178.95,179.775,175.184,179.787,172.869,182.117z
				 M185.29,154.67c2.315-2.329,2.304-6.096-0.026-8.411c-2.33-2.315-6.096-2.304-8.412,0.025c-2.315,2.33-2.304,6.096,0.026,8.412
				C179.208,157.012,182.974,157,185.29,154.67z M186.263,138.292c2.315-2.329,2.304-6.096-0.026-8.411
				c-2.33-2.315-6.096-2.304-8.411,0.025c-2.315,2.33-2.304,6.096,0.026,8.412C180.182,140.634,183.948,140.622,186.263,138.292z
				 M263.309,232.213c2.315-2.33,2.304-6.096-0.025-8.411c-2.33-2.316-6.096-2.305-8.412,0.025c-2.315,2.33-2.304,6.096,0.026,8.411
				S260.992,234.543,263.309,232.213z M170.352,122.478c2.315-2.33,2.304-6.096-0.026-8.411c-2.33-2.315-6.096-2.304-8.411,0.025
				c-2.316,2.33-2.304,6.096,0.025,8.411C164.27,124.819,168.036,124.808,170.352,122.478z M169.892,139.366
				c2.315-2.33,2.304-6.096-0.026-8.412c-2.33-2.315-6.096-2.304-8.411,0.026c-2.316,2.329-2.304,6.096,0.025,8.411
				C163.81,141.707,167.576,141.695,169.892,139.366z M182.786,172.588c2.315-2.33,2.304-6.096-0.026-8.411
				c-2.33-2.315-6.096-2.304-8.411,0.025c-2.316,2.33-2.304,6.096,0.026,8.411C176.705,174.93,180.471,174.918,182.786,172.588z
				 M204.165,135.679c2.316-2.33,2.304-6.096-0.025-8.411c-2.33-2.315-6.096-2.304-8.412,0.025c-2.315,2.33-2.304,6.096,0.026,8.412
				C198.084,138.021,201.85,138.009,204.165,135.679z M188.767,120.374c2.315-2.329,2.304-6.096-0.026-8.411
				c-2.33-2.315-6.096-2.304-8.411,0.026c-2.316,2.329-2.304,6.096,0.025,8.411C182.686,122.716,186.451,122.704,188.767,120.374z
				 M203.666,212.726c-2.315,2.33-2.304,6.096,0.026,8.412c2.33,2.315,6.096,2.304,8.411-0.026s2.304-6.096-0.026-8.411
				C209.747,210.385,205.981,210.396,203.666,212.726z M201.662,153.597c2.315-2.33,2.304-6.096-0.026-8.411
				c-2.33-2.315-6.096-2.305-8.411,0.025c-2.316,2.33-2.304,6.096,0.025,8.411C195.58,155.938,199.346,155.927,201.662,153.597z
				 M201.202,170.484c2.315-2.329,2.304-6.096-0.026-8.411c-2.33-2.315-6.096-2.304-8.411,0.026
				c-2.316,2.329-2.304,6.096,0.025,8.411C195.12,172.826,198.886,172.814,201.202,170.484z M187.754,196.911
				c-2.316,2.33-2.304,6.096,0.025,8.411c2.33,2.316,6.096,2.305,8.412-0.025c2.315-2.33,2.304-6.096-0.026-8.411
				C193.835,194.57,190.069,194.582,187.754,196.911z M156.983,174.714c2.33,2.315,6.096,2.304,8.411-0.025
				c2.315-2.33,2.304-6.096-0.026-8.412c-2.33-2.315-6.096-2.304-8.411,0.026S154.653,172.398,156.983,174.714z M198.672,179.991
				c-2.33-2.315-6.096-2.304-8.411,0.025c-2.315,2.33-2.304,6.096,0.026,8.412c2.33,2.315,6.096,2.304,8.411-0.026
				S201.002,182.307,198.672,179.991z M263.769,215.324c2.315-2.329,2.304-6.096-0.026-8.411s-6.096-2.304-8.411,0.026
				c-2.316,2.329-2.304,6.096,0.025,8.411C257.688,217.666,261.453,217.654,263.769,215.324z M340.301,308.734
				c2.314-2.329,2.304-6.096-0.026-8.411c-2.329-2.315-6.096-2.304-8.411,0.026c-2.315,2.329-2.305,6.096,0.025,8.411
				S337.984,311.064,340.301,308.734z M329.359,318.267c-2.315,2.33-2.304,6.096,0.025,8.412c2.33,2.315,6.096,2.304,8.412-0.026
				c2.315-2.329,2.304-6.096-0.025-8.411C335.441,315.926,331.676,315.938,329.359,318.267z M328.379,259.135
				c2.316-2.33,2.305-6.096-0.025-8.411c-2.33-2.316-6.096-2.305-8.412,0.025c-2.314,2.33-2.304,6.096,0.026,8.411
				C322.297,261.476,326.063,261.465,328.379,259.135z M311.967,320.367c-2.314,2.33-2.303,6.096,0.026,8.411
				c2.33,2.315,6.096,2.305,8.411-0.025c2.316-2.33,2.305-6.096-0.025-8.411C318.049,318.025,314.283,318.037,311.967,320.367z
				 M325.415,293.94c2.315-2.33,2.304-6.096-0.025-8.411c-2.33-2.315-6.096-2.304-8.411,0.025c-2.316,2.33-2.305,6.096,0.025,8.411
				C319.334,296.282,323.1,296.271,325.415,293.94z M322.886,303.447c-2.33-2.315-6.096-2.305-8.411,0.025
				c-2.316,2.33-2.305,6.096,0.025,8.411s6.096,2.305,8.412-0.025C325.227,309.528,325.215,305.763,322.886,303.447z
				 M375.088,305.558c2.315-2.329,2.304-6.096-0.026-8.411s-6.096-2.304-8.411,0.026c-2.315,2.329-2.304,6.096,0.025,8.411
				C369.006,307.899,372.771,307.888,375.088,305.558z M341.787,292.867c2.315-2.33,2.304-6.096-0.025-8.411
				c-2.33-2.316-6.096-2.305-8.412,0.025c-2.315,2.33-2.304,6.096,0.025,8.411C335.705,295.208,339.471,295.197,341.787,292.867z
				 M406.285,336.77c-0.064-3.214-0.329-6.323-0.825-9.244c-2.316-1.535-5.466-1.279-7.499,0.766
				c-2.316,2.33-2.305,6.096,0.025,8.412C400.28,338.983,403.962,338.995,406.285,336.77z M359.176,289.743
				c2.315-2.329,2.304-6.096-0.025-8.411c-2.33-2.315-6.096-2.304-8.412,0.025c-2.314,2.33-2.304,6.096,0.026,8.412
				C353.095,292.085,356.86,292.073,359.176,289.743z M312.98,243.83c2.316-2.33,2.305-6.096-0.025-8.411s-6.096-2.304-8.412,0.025
				c-2.314,2.33-2.304,6.096,0.026,8.411C306.898,246.172,310.665,246.16,312.98,243.83z M344.291,274.949
				c2.315-2.33,2.304-6.096-0.025-8.411c-2.33-2.315-6.096-2.305-8.412,0.025c-2.315,2.33-2.304,6.096,0.025,8.411
				C338.209,277.291,341.975,277.279,344.291,274.949z M356.672,307.661c2.315-2.33,2.305-6.096-0.025-8.411
				s-6.096-2.304-8.412,0.025c-2.314,2.33-2.304,6.096,0.026,8.412C350.591,310.003,354.356,309.991,356.672,307.661z
				 M356.212,324.55c2.315-2.33,2.304-6.096-0.025-8.412c-2.33-2.315-6.096-2.304-8.411,0.026c-2.316,2.33-2.305,6.096,0.025,8.411
				S353.896,326.879,356.212,324.55z M325.875,277.053c2.316-2.33,2.305-6.096-0.025-8.412c-2.33-2.315-6.096-2.304-8.412,0.026
				c-2.314,2.33-2.303,6.096,0.026,8.411C319.794,279.394,323.56,279.382,325.875,277.053z M279.68,231.139
				c2.316-2.329,2.305-6.096-0.025-8.411s-6.096-2.304-8.411,0.026c-2.315,2.329-2.304,6.096,0.025,8.411
				C273.599,233.48,277.364,233.469,279.68,231.139z M282.184,213.222c2.316-2.33,2.305-6.096-0.025-8.412
				c-2.33-2.315-6.096-2.304-8.412,0.026c-2.314,2.33-2.303,6.096,0.026,8.411C276.103,215.563,279.868,215.551,282.184,213.222z
				 M278.193,247.007c2.316-2.33,2.305-6.096-0.025-8.411s-6.096-2.304-8.412,0.025c-2.314,2.33-2.304,6.096,0.026,8.411
				C272.111,249.349,275.878,249.337,278.193,247.007z M266.271,197.406c2.316-2.329,2.305-6.096-0.025-8.411
				s-6.096-2.304-8.411,0.026c-2.315,2.329-2.304,6.096,0.026,8.411C260.19,199.748,263.957,199.736,266.271,197.406z
				 M275.664,256.514c-2.33-2.315-6.096-2.305-8.412,0.025c-2.314,2.33-2.303,6.096,0.026,8.411c2.33,2.315,6.096,2.305,8.411-0.025
				C278.006,262.595,277.994,258.829,275.664,256.514z M281.171,289.758c-2.315,2.33-2.304,6.096,0.025,8.412
				c2.33,2.315,6.096,2.304,8.411-0.026c2.316-2.329,2.305-6.096-0.025-8.411S283.486,287.429,281.171,289.758z M265.772,274.454
				c-2.315,2.329-2.304,6.096,0.025,8.411c2.33,2.315,6.096,2.304,8.411-0.025c2.316-2.33,2.305-6.096-0.025-8.412
				C271.854,272.112,268.088,272.124,265.772,274.454z M297.068,228.016c2.316-2.33,2.305-6.096-0.025-8.411
				s-6.096-2.305-8.411,0.025s-2.304,6.096,0.026,8.411C290.987,230.357,294.754,230.346,297.068,228.016z M297.082,305.573
				c-2.315,2.329-2.304,6.096,0.026,8.411c2.329,2.315,6.095,2.304,8.411-0.026c2.315-2.329,2.305-6.096-0.025-8.411
				S299.398,303.243,297.082,305.573z M306.975,287.633c-2.33-2.316-6.096-2.305-8.412,0.025c-2.315,2.33-2.304,6.096,0.025,8.411
				c2.33,2.315,6.096,2.305,8.412-0.025C309.315,293.714,309.304,289.948,306.975,287.633z M309.504,278.126
				c2.315-2.33,2.304-6.096-0.026-8.411c-2.329-2.315-6.096-2.305-8.411,0.025s-2.305,6.096,0.025,8.411
				S307.188,280.456,309.504,278.126z M294.105,262.821c2.315-2.329,2.304-6.096-0.025-8.411c-2.33-2.315-6.096-2.304-8.412,0.025
				c-2.315,2.33-2.304,6.096,0.025,8.412C288.023,265.163,291.789,265.151,294.105,262.821z M310.477,261.748
				c2.316-2.33,2.305-6.096-0.025-8.411s-6.096-2.305-8.411,0.025s-2.304,6.096,0.025,8.411
				C304.396,264.089,308.161,264.078,310.477,261.748z M291.576,272.328c-2.33-2.315-6.096-2.304-8.412,0.025
				c-2.315,2.33-2.304,6.096,0.025,8.411c2.33,2.316,6.096,2.305,8.412-0.025C293.917,278.409,293.905,274.644,291.576,272.328z
				 M294.564,245.934c2.316-2.33,2.305-6.096-0.025-8.411c-2.33-2.316-6.096-2.305-8.411,0.025s-2.304,6.096,0.026,8.411
				S292.25,248.264,294.564,245.934z M278.207,324.564c-2.316,2.33-2.305,6.096,0.025,8.411s6.096,2.304,8.412-0.025
				c2.314-2.33,2.304-6.096-0.026-8.412C284.289,322.223,280.522,322.234,278.207,324.564z M309.004,355.173
				c-2.316,2.33-2.305,6.096,0.025,8.411c2.33,2.316,6.096,2.305,8.412-0.025c2.314-2.33,2.303-6.096-0.026-8.411
				C315.085,352.832,311.319,352.844,309.004,355.173z M309.464,338.285c-2.315,2.33-2.304,6.096,0.025,8.411
				c2.33,2.315,6.096,2.304,8.411-0.025c2.316-2.33,2.305-6.096-0.025-8.412C315.545,335.943,311.779,335.955,309.464,338.285z
				 M306.5,373.091c-2.315,2.33-2.305,6.096,0.025,8.411s6.096,2.305,8.412-0.025c2.314-2.33,2.304-6.096-0.026-8.411
				C312.582,370.75,308.815,370.761,306.5,373.091z M321.898,388.396c-2.315,2.33-2.305,6.096,0.025,8.411s6.096,2.304,8.412-0.025
				c2.314-2.33,2.304-6.096-0.026-8.412C327.98,386.054,324.214,386.065,321.898,388.396z M325.375,354.1
				c-2.315,2.33-2.304,6.096,0.026,8.411c2.329,2.315,6.096,2.304,8.411-0.025c2.315-2.33,2.305-6.096-0.025-8.411
				C331.457,351.758,327.691,351.77,325.375,354.1z M324.402,370.478c-2.316,2.33-2.305,6.096,0.025,8.411s6.096,2.305,8.412-0.025
				c2.314-2.33,2.303-6.096-0.026-8.411C330.483,368.136,326.718,368.147,324.402,370.478z M294.578,323.49
				c-2.314,2.33-2.304,6.096,0.026,8.412c2.329,2.315,6.096,2.304,8.411-0.026c2.315-2.329,2.305-6.096-0.025-8.411
				S296.895,321.161,294.578,323.49z M153.98,123.551c2.315-2.329,2.304-6.096-0.026-8.411c-2.33-2.315-6.096-2.304-8.411,0.026
				c-2.316,2.329-2.304,6.096,0.025,8.411C147.898,125.893,151.664,125.881,153.98,123.551z M262.295,308.75
				c-2.315,2.329-2.304,6.096,0.025,8.411c2.33,2.315,6.096,2.304,8.412-0.026c2.315-2.329,2.304-6.096-0.025-8.411
				C268.377,306.408,264.611,306.42,262.295,308.75z M263.269,292.372c-2.315,2.329-2.304,6.096,0.026,8.411
				c2.329,2.315,6.096,2.304,8.41-0.026c2.316-2.329,2.305-6.096-0.025-8.411S265.584,290.042,263.269,292.372z M259.791,326.668
				c-2.314,2.329-2.304,6.095,0.026,8.411c2.329,2.315,6.096,2.304,8.411-0.026c2.315-2.329,2.305-6.096-0.025-8.411
				S262.107,324.338,259.791,326.668z M336.291,336.156c-2.33-2.315-6.096-2.305-8.412,0.025c-2.315,2.33-2.304,6.096,0.025,8.411
				c2.33,2.315,6.096,2.305,8.412-0.025C338.632,342.237,338.62,338.472,336.291,336.156z M275.703,342.482
				c-2.315,2.329-2.305,6.096,0.025,8.411s6.096,2.304,8.412-0.026c2.315-2.329,2.304-6.096-0.026-8.411
				C281.785,340.141,278.019,340.152,275.703,342.482z M293.092,339.358c-2.315,2.33-2.304,6.096,0.025,8.411
				c2.33,2.315,6.096,2.305,8.412-0.025c2.315-2.33,2.304-6.096-0.025-8.411C299.174,337.018,295.408,337.028,293.092,339.358z
				 M278.667,307.676c-2.315,2.33-2.304,6.096,0.026,8.412c2.329,2.315,6.096,2.304,8.41-0.026c2.316-2.33,2.305-6.096-0.025-8.411
				S280.982,305.347,278.667,307.676z M343.277,351.486c-2.315,2.33-2.304,6.096,0.025,8.411c2.33,2.315,6.096,2.304,8.412-0.025
				c2.315-2.33,2.304-6.096-0.026-8.411C349.359,349.145,345.594,349.156,343.277,351.486z M379.085,347.283
				c-2.315,2.329-2.304,6.096,0.025,8.411c2.33,2.315,6.096,2.304,8.412-0.026c2.315-2.329,2.304-6.096-0.026-8.411
				S381.4,344.953,379.085,347.283z M376.581,365.2c-2.315,2.33-2.304,6.096,0.026,8.412c2.329,2.315,6.096,2.304,8.411-0.026
				c2.315-2.329,2.304-6.096-0.026-8.411C382.663,362.859,378.896,362.871,376.581,365.2z M364.146,315.09
				c-2.315,2.33-2.304,6.096,0.026,8.412c2.329,2.315,6.096,2.304,8.411-0.026c2.315-2.329,2.304-6.096-0.026-8.411
				C370.229,312.749,366.462,312.761,364.146,315.09z M363.174,331.469c-2.316,2.329-2.305,6.096,0.025,8.411
				s6.096,2.304,8.411-0.026c2.315-2.329,2.304-6.096-0.025-8.411C369.255,329.127,365.489,329.139,363.174,331.469z
				 M379.545,330.395c-2.315,2.33-2.304,6.096,0.025,8.411c2.33,2.316,6.096,2.305,8.412-0.025c2.315-2.33,2.304-6.096-0.026-8.411
				C385.627,328.054,381.86,328.064,379.545,330.395z M395.457,346.209c-2.316,2.33-2.305,6.096,0.025,8.412
				c2.33,2.315,6.096,2.304,8.411-0.026c0.35-0.352,0.629-0.744,0.872-1.151c0.281-1.41,0.533-2.818,0.736-4.224
				c-0.225-1.113-0.768-2.176-1.634-3.036C401.538,343.868,397.772,343.88,395.457,346.209z M382.049,312.477
				c-2.315,2.33-2.304,6.096,0.025,8.412c2.33,2.315,6.096,2.304,8.412-0.026c2.315-2.33,2.304-6.096-0.026-8.411
				S384.364,310.147,382.049,312.477z M340.773,369.404c-2.315,2.329-2.304,6.096,0.026,8.411c2.329,2.315,6.096,2.304,8.411-0.026
				c2.315-2.329,2.304-6.096-0.025-8.411C346.855,367.063,343.09,367.074,340.773,369.404z M337.811,404.21
				c-0.425,0.427-0.744,0.912-1.012,1.418c3.402,0.173,6.879,0.124,10.376-0.157c-0.261-0.458-0.562-0.897-0.954-1.286
				C343.892,401.868,340.125,401.88,337.811,404.21z M360.67,349.386c-2.316,2.33-2.305,6.096,0.025,8.411
				c2.33,2.316,6.096,2.305,8.411-0.025s2.305-6.096-0.025-8.411S362.985,347.057,360.67,349.386z M340.314,386.292
				c-2.316,2.33-2.305,6.096,0.025,8.411s6.096,2.305,8.411-0.025s2.304-6.096-0.026-8.411
				C346.396,383.951,342.629,383.962,340.314,386.292z M247.357,276.557c-2.315,2.33-2.304,6.096,0.026,8.412
				c2.33,2.315,6.096,2.304,8.411-0.026c2.315-2.329,2.304-6.096-0.026-8.411S249.672,274.228,247.357,276.557z M359.189,367.301
				c-2.315,2.33-2.305,6.096,0.025,8.411s6.096,2.305,8.411-0.025s2.305-6.096-0.025-8.411
				C365.271,364.959,361.505,364.971,359.189,367.301z M353.683,334.056c-2.33-2.315-6.096-2.304-8.411,0.026
				c-2.316,2.329-2.305,6.096,0.025,8.411s6.096,2.304,8.411-0.026C356.023,340.138,356.013,336.371,353.683,334.056z
				 M356.686,385.219c-2.315,2.33-2.304,6.096,0.025,8.411c2.33,2.315,6.096,2.304,8.411-0.025c2.316-2.33,2.305-6.096-0.025-8.412
				C362.767,382.877,359.001,382.889,356.686,385.219z M290.588,357.276c-2.315,2.33-2.304,6.096,0.026,8.411
				c2.329,2.315,6.096,2.305,8.411-0.025s2.305-6.096-0.025-8.411C296.67,354.935,292.904,354.946,290.588,357.276z
				 M138.082,185.294c-2.315,2.33-2.304,6.096,0.026,8.411c2.33,2.315,6.096,2.305,8.411-0.025s2.304-6.096-0.026-8.411
				C144.163,182.952,140.397,182.964,138.082,185.294z M135.578,203.212c-2.315,2.33-2.304,6.096,0.026,8.411
				c2.33,2.315,6.096,2.304,8.411-0.025c2.316-2.33,2.304-6.096-0.025-8.412C141.659,200.87,137.894,200.882,135.578,203.212z
				 M139.055,168.916c-2.315,2.33-2.304,6.096,0.026,8.411c2.33,2.315,6.096,2.304,8.411-0.025c2.316-2.33,2.304-6.096-0.025-8.411
				C145.136,166.574,141.371,166.586,139.055,168.916z M154.453,184.221c-2.315,2.329-2.304,6.096,0.026,8.411
				s6.096,2.304,8.411-0.026c2.316-2.329,2.304-6.096-0.025-8.411C160.535,181.879,156.769,181.891,154.453,184.221z
				 M123.143,153.102c-2.315,2.33-2.304,6.096,0.026,8.411c2.33,2.315,6.096,2.304,8.411-0.025c2.316-2.33,2.304-6.096-0.025-8.412
				C129.225,150.76,125.459,150.771,123.143,153.102z M151.489,219.026c-2.315,2.33-2.304,6.096,0.026,8.411
				c2.33,2.315,6.096,2.304,8.412-0.025c2.315-2.33,2.304-6.096-0.026-8.411C157.571,216.685,153.805,216.696,151.489,219.026z
				 M153.993,201.108c-2.315,2.33-2.304,6.096,0.026,8.411c2.33,2.315,6.096,2.305,8.411-0.025c2.316-2.33,2.304-6.096-0.026-8.411
				C160.075,198.768,156.309,198.778,153.993,201.108z M134.084,143.569c2.315-2.33,2.304-6.096-0.026-8.411
				c-2.33-2.316-6.096-2.305-8.411,0.025s-2.304,6.096,0.026,8.411C128.002,145.91,131.769,145.898,134.084,143.569z
				 M149.996,159.384c2.316-2.33,2.304-6.096-0.026-8.411c-2.33-2.315-6.096-2.305-8.411,0.025s-2.304,6.096,0.026,8.411
				C143.914,161.725,147.68,161.714,149.996,159.384z M166.375,233.82c-2.315,2.33-2.304,6.096,0.026,8.411
				c2.33,2.316,6.096,2.305,8.411-0.025c2.316-2.33,2.304-6.096-0.025-8.411C172.456,231.479,168.69,231.491,166.375,233.82z
				 M122.683,169.989c-2.315,2.33-2.304,6.096,0.026,8.411c2.33,2.316,6.096,2.305,8.411-0.025s2.304-6.096-0.026-8.411
				C128.765,167.648,124.999,167.659,122.683,169.989z M151.476,141.469c2.315-2.33,2.304-6.096-0.026-8.411
				c-2.33-2.315-6.096-2.304-8.411,0.025c-2.316,2.33-2.304,6.096,0.025,8.412C145.395,143.811,149.16,143.799,151.476,141.469z
				 M120.179,187.907c-2.315,2.33-2.304,6.096,0.026,8.411c2.33,2.315,6.096,2.305,8.411-0.025c2.316-2.33,2.304-6.096-0.025-8.411
				C126.261,185.566,122.495,185.577,120.179,187.907z M108.979,170.385c-0.08,3.991,0.216,7.911,0.89,11.668
				c1.039-0.248,2.028-0.761,2.836-1.574c2.316-2.33,2.304-6.096-0.025-8.411C111.645,171.039,110.326,170.497,108.979,170.385z
				 M111.789,152.496c-1.122,3.814-1.91,7.701-2.359,11.584c1.997,0.543,4.216,0.053,5.779-1.52c2.315-2.33,2.304-6.096-0.026-8.411
				C114.227,153.199,113.028,152.663,111.789,152.496z M244.393,311.363c-2.315,2.33-2.304,6.096,0.026,8.411
				c2.33,2.315,6.096,2.304,8.411-0.025c2.315-2.33,2.304-6.096-0.026-8.412C250.475,309.021,246.708,309.033,244.393,311.363z
				 M216.56,245.948c-2.315,2.33-2.304,6.096,0.026,8.411c2.33,2.315,6.096,2.305,8.411-0.025s2.304-6.096-0.026-8.411
				C222.642,243.606,218.876,243.618,216.56,245.948z M228.481,295.549c-2.315,2.329-2.304,6.096,0.026,8.411
				c2.33,2.315,6.096,2.304,8.411-0.026c2.315-2.329,2.304-6.096-0.026-8.411C234.563,293.207,230.797,293.219,228.481,295.549z
				 M216.1,262.836c-2.315,2.33-2.304,6.096,0.026,8.412c2.33,2.315,6.096,2.304,8.411-0.026c2.315-2.329,2.304-6.096-0.026-8.411
				C222.182,260.495,218.416,260.507,216.1,262.836z M230.985,277.631c-2.316,2.33-2.304,6.096,0.025,8.411
				c2.33,2.315,6.096,2.304,8.412-0.025c2.315-2.33,2.304-6.096-0.026-8.412C237.067,275.289,233.301,275.301,230.985,277.631z
				 M246.897,293.445c-2.316,2.33-2.304,6.096,0.026,8.411c2.33,2.315,6.096,2.304,8.411-0.025c2.315-2.33,2.305-6.096-0.026-8.411
				C252.979,291.104,249.212,291.115,246.897,293.445z M213.596,280.754c-2.315,2.33-2.304,6.096,0.026,8.411
				c2.33,2.316,6.096,2.305,8.411-0.025c2.316-2.33,2.304-6.096-0.025-8.411C219.678,278.413,215.912,278.425,213.596,280.754z
				 M232.472,261.763c-2.315,2.33-2.304,6.096,0.026,8.411c2.33,2.315,6.096,2.305,8.411-0.025c2.316-2.33,2.304-6.096-0.025-8.411
				C238.553,259.422,234.788,259.433,232.472,261.763z M201.162,230.644c-2.315,2.33-2.304,6.096,0.026,8.411
				c2.33,2.316,6.096,2.305,8.411-0.025c2.316-2.33,2.304-6.096-0.025-8.411C207.243,228.303,203.478,228.314,201.162,230.644z
				 M184.79,231.718c-2.315,2.329-2.304,6.096,0.026,8.411c2.33,2.315,6.096,2.304,8.411-0.026c2.315-2.329,2.304-6.096-0.026-8.411
				C190.872,229.376,187.105,229.388,184.79,231.718z M182.286,249.635c-2.315,2.33-2.304,6.096,0.026,8.412
				c2.33,2.315,6.096,2.304,8.411-0.026c2.316-2.33,2.304-6.096-0.025-8.411C188.368,247.294,184.602,247.306,182.286,249.635z
				 M170.365,200.035c-2.315,2.33-2.304,6.096,0.026,8.411c2.33,2.315,6.096,2.304,8.411-0.025c2.316-2.33,2.304-6.096-0.025-8.412
				C176.446,197.693,172.681,197.705,170.365,200.035z M168.878,215.902c-2.316,2.33-2.304,6.096,0.026,8.412
				c2.33,2.315,6.096,2.304,8.411-0.026c2.315-2.329,2.304-6.096-0.026-8.411C174.96,213.562,171.194,213.573,168.878,215.902z
				 M185.25,214.829c-2.315,2.33-2.304,6.096,0.026,8.411c2.33,2.315,6.096,2.305,8.411-0.025c2.316-2.33,2.304-6.096-0.026-8.411
				C191.332,212.488,187.565,212.499,185.25,214.829z M200.188,247.021c-2.315,2.33-2.304,6.096,0.026,8.411
				c2.33,2.316,6.096,2.305,8.411-0.025s2.304-6.096-0.026-8.411C206.27,244.681,202.504,244.692,200.188,247.021z M197.685,264.939
				c-2.315,2.33-2.304,6.096,0.026,8.411c2.33,2.315,6.096,2.305,8.411-0.025c2.316-2.33,2.304-6.096-0.026-8.411
				C203.766,262.599,200,262.609,197.685,264.939z"/>
		</g>
	</g>
	<g id="&#x424;&#x438;&#x433;&#x443;&#x440;&#x430;_38">
		<g>
			<path style="fill-rule:evenodd;clip-rule:evenodd;fill:#ECBD83;" d="M129.956,123.96c-34.42,32.701-21.035,67.872-19.181,69.094
				c18.183-1.674,9.363-37.044,28.359-56.04c18.996-18.996,58.301-5.292,63.547-22.298
				C203.768,113.585,162.278,93.253,129.956,123.96z M399.287,315.833c-18.01,3.009-6.608,37.633-24.153,57.977
				c-17.546,20.345-57.753,9.573-61.732,26.92c-0.999,1.207,47.156,16.894,73.928-13.944
				C413.979,356.089,401.227,316.915,399.287,315.833z"/>
		</g>
	</g>
	<g id="&#x424;&#x438;&#x433;&#x443;&#x440;&#x430;_40">
		<g>
			<path style="fill-rule:evenodd;clip-rule:evenodd;fill:#DB8653;" d="M153.14,150.634c-15.848,13.526-23.797,35.477-18.483,40.791
				c5.374,5.374,15.404-12.671,31.047-26.72c15.037-13.504,35.911-22.834,31.189-27.556
				C192.117,132.374,168.72,137.337,153.14,150.634z M374.861,321.977c-5.646-5.085-14.721,13.459-29.608,28.307
				c-14.311,14.271-34.667,24.68-29.706,29.148c5.02,4.52,28.125-1.66,42.989-15.753
				C373.655,349.342,380.446,327.006,374.861,321.977z"/>
		</g>
	</g>
	<g id="&#x424;&#x438;&#x433;&#x443;&#x440;&#x430;_37" style="opacity:0.502;">
		<g>
			<path style="fill-rule:evenodd;clip-rule:evenodd;fill:#5D3E7A;" d="M340.904,255.108c0,0-16.098,20.908-36.594,41.567
				c-24.393,24.588-52.147,47.399-52.147,47.399l18.77,18.499c0,0,16.276-33.756,37.659-54.788
				c22.721-22.349,50.811-30.65,50.811-30.65L340.904,255.108z M235.248,151.532c0,0-12.612,30.591-33.995,51.623
				c-22.721,22.348-50.811,30.65-50.811,30.65l17.775,19.268c0,0,20.395-23.079,40.89-43.738
				c24.394-24.588,44.82-39.032,44.82-39.032L235.248,151.532z"/>
		</g>
	</g>
	
		<g id="&#x417;&#x430;&#x43B;&#x438;&#x432;&#x43A;&#x430;_&#x446;&#x432;&#x435;&#x442;&#x43E;&#x43C;_34_&#x43A;&#x43E;&#x43F;&#x438;&#x44F;">
		<g>
			<path style="fill-rule:evenodd;clip-rule:evenodd;fill:#40292E;" d="M406.24,319.284c-2.361-6.665-9.347-11.54-14.447-15.101
				c-1.829-1.276-3.558-2.483-4.441-3.348c-6.455-6.32-14.58-14.916-25.825-26.813c-4.008-4.239-8.383-8.868-13.173-13.911
				c-4.744-4.995-10.519-11.671-16.632-18.736c-8.757-10.123-18.681-21.596-28.718-31.819
				c-13.042-13.282-24.801-23.544-36.173-33.468c-8.12-7.085-15.791-13.779-23.144-20.926c-15.4-14.972-26.818-26.515-32.49-34.18
				c-3.947-5.332-10.084-12.223-16.906-14.759c-21.51-7.994-52.484-0.134-70.515,17.897c-11.972,11.972-19.119,29.984-19.119,48.185
				c0,5.074,0.573,9.968,1.703,14.546c2.172,8.794,8.123,17.598,18.192,26.912l1.23,1.133c6.159,5.67,20.582,18.946,38.398,39.778
				c4.823,5.641,9.499,11.526,14.449,17.759c7.567,9.529,16.145,20.328,26.734,31.994c9.115,10.041,20.894,20.769,31.286,30.233
				c4.68,4.262,9.1,8.287,12.531,11.591c5.644,5.434,10.75,10.288,15.378,14.689c15.148,14.4,25.155,23.915,32.093,32.891
				c6.802,8.8,21.448,14.932,38.225,16.002c21.45,1.368,41.239-5.336,54.294-18.392c14.811-14.81,20.086-36.897,20.086-52.631
				C409.258,331.612,408.215,324.86,406.24,319.284z M384.056,386.326c-11.586,11.585-29.342,17.521-48.717,16.285
				c-14.538-0.928-27.476-6.11-32.958-13.205c-7.277-9.414-17.443-19.079-32.833-33.71c-4.619-4.392-9.715-9.235-15.347-14.658
				c-3.503-3.372-7.959-7.431-12.678-11.727c-10.272-9.356-21.917-19.962-30.8-29.747c-10.429-11.489-18.561-21.729-26.425-31.631
				c-4.993-6.285-9.708-12.223-14.617-17.963c-18.097-21.161-32.743-34.642-38.997-40.398l-1.217-1.121
				c-3.308-3.06-13.373-12.37-16.081-23.335c-0.99-4.011-1.493-8.319-1.493-12.811c0-16.079,6.514-32.582,16.999-43.068
				c18.071-18.07,46.161-22.442,62.876-16.229c4.022,1.494,8.856,5.856,13.61,12.28c5.963,8.057,17.61,19.844,33.264,35.063
				c7.493,7.283,15.234,14.038,23.429,21.189c11.27,9.834,22.922,20.002,35.767,33.086c9.877,10.06,19.724,21.44,28.41,31.482
				c6.169,7.131,11.997,13.868,16.858,18.985c4.785,5.039,9.155,9.663,13.16,13.899c11.3,11.956,19.466,20.595,26.021,27.013
				c1.312,1.284,3.188,2.595,5.362,4.111c4.297,2.999,10.182,7.106,11.768,11.582c1.703,4.809,2.603,10.726,2.603,17.111
				C402.021,353.096,397.302,373.078,384.056,386.326z"/>
		</g>
	</g>
	<g id="&#x424;&#x438;&#x433;&#x443;&#x440;&#x430;_35">
		<g>
			<path style="fill-rule:evenodd;clip-rule:evenodd;fill:#E8AF69;" d="M387.476,126.613c-15.249-15.248-40.048-21.215-59.304-16.46
				c-10.96,2.706-20.104,11.708-25.125,17.136c-5.02,5.428-18.707,20.673-41.215,39.922c-14.56,12.451-30.668,23.861-49.673,41.112
				c-14.588,13.241-31.23,32.824-41.649,43.647c-23.355,24.26-35.995,38.567-47.974,47.825
				c-17.323,13.388-22.91,61.452,2.735,87.097c17.992,17.992,49.81,22.798,68.392,16.215c7.905-2.8,13.434-14.293,17.072-18.009
				c8.663-8.848,21.779-21.008,40.818-39.089c12.155-11.544,33.146-28.26,50.511-45.31c22.825-22.409,37.254-41.684,54.336-59.256
				c14.722-15.144,26.645-26.974,34.62-32.877c4.254-3.148,11.178-8.957,13.521-15.259
				C411.685,174.083,405.496,144.634,387.476,126.613z"/>
		</g>
	</g>
	<g id="&#x424;&#x438;&#x433;&#x443;&#x440;&#x430;_36_&#x43A;&#x43E;&#x43F;&#x438;&#x44F;">
		<g>
			<path style="fill-rule:evenodd;clip-rule:evenodd;fill:#DB8653;" d="M387.591,126.882c0,0-23.278-25.365-55.214-19.061
				c-18.536,3.66-33.648,20.362-47.11,33.604c-14.82,14.575-25.601,25.788-25.601,25.788l12.854,13.199
				c0,0,47.366-51.921,62.069-54.917C358.6,120.604,387.591,126.882,387.591,126.882z M388.457,127.251
				c0,0,4.773,29.276-1.351,53.001c-3.75,14.53-58.047,59.153-58.047,59.153l12.519,13.519c0,0,12.642-14.262,27.963-28.31
				c13.918-12.762,30.232-19.704,34.843-38.026C412.329,155.019,388.457,127.251,388.457,127.251z M126.254,326.681
				c3.684-14.547,56.69-59.999,56.69-59.999l-16.196-13.039c0,0-7.004,10.401-22.261,24.52
				c-13.859,12.824-31.255,27.133-35.783,45.476c-7.802,31.604,12.869,56.698,12.869,56.698S120.238,350.434,126.254,326.681z
				 M178.585,385.561c-23.987,5-55.177-1.001-55.177-1.001s31.59,25.358,63.498,18.908c18.519-3.743,26.07-23.557,39.473-36.858
				c14.754-14.643,31.178-26.471,31.178-26.471l-17.258-13.62C240.298,326.519,193.275,382.499,178.585,385.561z"/>
		</g>
	</g>
	<g id="&#x424;&#x438;&#x433;&#x443;&#x440;&#x430;_37_&#x43A;&#x43E;&#x43F;&#x438;&#x44F;">
		<g>
			<path style="fill-rule:evenodd;clip-rule:evenodd;fill:#DB8653;" d="M217.338,296.935
				c-41.173-43.764-38.346-54.458-38.346-54.458l-28.353,30.143c0,0,34.01,15.739,55.379,36.786
				c22.706,22.363,31.452,50.317,31.452,50.317l28.583-28.638C266.054,331.085,251.293,333.025,217.338,296.935z M361.089,233.591
				c0,0-30.786-12.126-52.155-33.172c-22.705-22.364-31.452-50.318-31.452-50.318l-28.301,25.293c0,0,22.727,8.978,50.434,37.364
				c36.292,37.183,33.46,51.387,33.46,51.387L361.089,233.591z"/>
		</g>
	</g>
	<g id="&#x424;&#x438;&#x433;&#x443;&#x440;&#x430;_39_&#x43A;&#x43E;&#x43F;&#x438;&#x44F;_2">
		<g>
			<path style="fill-rule:evenodd;clip-rule:evenodd;fill:#D78E63;" d="M263.481,187.214c2.345-2.301,2.379-6.066,0.078-8.41
				c-2.301-2.345-6.067-2.38-8.411-0.079c-2.344,2.302-2.379,6.067-0.078,8.411C257.371,189.48,261.137,189.516,263.481,187.214z
				 M258.112,196.2c3.356,0,6.704,1.15,9.395,3.452c-0.229-1.064-0.737-2.081-1.556-2.916
				C263.825,194.571,260.463,194.402,258.112,196.2z M279.492,171.499c2.344-2.301,2.379-6.066,0.078-8.411
				c-2.302-2.344-6.067-2.379-8.412-0.078c-2.344,2.302-2.379,6.067-0.078,8.411C273.381,173.766,277.147,173.801,279.492,171.499z
				 M239.655,193.933c-2.344,2.302-2.379,6.067-0.078,8.411c1.201,1.224,2.801,1.803,4.39,1.764l4.215-3.977
				c0.481-0.454,0.993-0.854,1.517-1.23c0.212-1.735-0.313-3.545-1.632-4.89C245.765,191.667,241.999,191.632,239.655,193.933z
				 M227.336,219.795l6.406-6.042c-0.034-1.457-0.584-2.905-1.686-4.027c-2.301-2.344-6.067-2.379-8.411-0.078
				c-2.344,2.302-2.379,6.067-0.078,8.411C224.611,219.123,225.958,219.686,227.336,219.795z M273.034,181.45
				c-2.345,2.301-2.38,6.066-0.078,8.411c2.301,2.344,6.066,2.379,8.411,0.078c2.344-2.301,2.379-6.066,0.078-8.411
				C279.145,179.185,275.379,179.149,273.034,181.45z M124.88,343.539c2.344-2.301,2.379-6.066,0.078-8.41
				c-2.301-2.345-6.067-2.38-8.411-0.079c-2.345,2.302-2.379,6.067-0.079,8.411C118.771,345.806,122.536,345.841,124.88,343.539z
				 M282.316,197.912c-2.301-2.344-6.066-2.379-8.411-0.078c-2.3,2.257-2.363,5.916-0.194,8.268l0.21,0.223
				c2.309,2.255,6.003,2.271,8.317-0.001C284.582,204.022,284.617,200.257,282.316,197.912z M291.791,200.559
				c-2.345,2.302-2.38,6.067-0.078,8.411c2.301,2.345,6.066,2.38,8.41,0.078c2.344-2.301,2.379-6.066,0.078-8.41
				C297.9,198.293,294.135,198.258,291.791,200.559z M289.915,182.119c-2.345,2.301-2.379,6.066-0.078,8.411
				c2.302,2.344,6.067,2.379,8.411,0.078s2.379-6.066,0.078-8.411C296.025,179.854,292.26,179.818,289.915,182.119z
				 M211.813,234.439l6.905-6.514c-0.144-1.273-0.673-2.512-1.64-3.498c-2.301-2.344-6.067-2.379-8.411-0.078
				s-2.379,6.066-0.078,8.411C209.495,233.683,210.629,234.233,211.813,234.439z M294.469,156.799
				c2.344-2.302,2.379-6.067,0.078-8.411c-2.301-2.345-6.066-2.38-8.41-0.078c-2.345,2.301-2.38,6.066-0.079,8.41
				C288.359,159.064,292.125,159.1,294.469,156.799z M289.045,165.735c-2.345,2.301-2.38,6.066-0.079,8.411
				c2.302,2.344,6.067,2.379,8.411,0.078s2.379-6.066,0.078-8.411C295.154,163.47,291.389,163.435,289.045,165.735z
				 M198.376,250.022c0.679-2.473,2.006-4.8,4.008-6.688l0.251-0.237c-0.224-1.079-0.738-2.11-1.567-2.955
				c-2.301-2.344-6.067-2.379-8.411-0.078s-2.379,6.066-0.078,8.411C194.14,250.064,196.369,250.565,198.376,250.022z
				 M164.933,304.796c-2.344,2.302-2.379,6.067-0.078,8.411c2.301,2.345,6.066,2.38,8.411,0.078c2.344-2.301,2.379-6.066,0.079-8.41
				C171.042,302.53,167.277,302.495,164.933,304.796z M148.051,304.127c-2.344,2.302-2.379,6.067-0.078,8.411
				c2.301,2.345,6.067,2.38,8.411,0.078c2.344-2.301,2.379-6.066,0.078-8.41C154.162,301.861,150.396,301.826,148.051,304.127z
				 M164.062,288.412c-2.344,2.302-2.379,6.067-0.078,8.411c2.301,2.345,6.067,2.38,8.411,0.078c2.344-2.301,2.379-6.066,0.078-8.41
				C170.172,286.146,166.406,286.111,164.062,288.412z M123.005,325.1c2.344-2.301,2.379-6.067,0.079-8.411
				c-2.301-2.345-6.067-2.379-8.411-0.078s-2.379,6.066-0.079,8.411C116.895,327.365,120.661,327.4,123.005,325.1z M154.509,294.177
				c2.344-2.301,2.379-6.066,0.078-8.411c-2.301-2.344-6.066-2.379-8.411-0.078s-2.379,6.066-0.079,8.411
				C148.399,296.442,152.165,296.478,154.509,294.177z M169.486,279.476c2.344-2.301,2.379-6.066,0.078-8.411
				c-2.301-2.344-6.067-2.379-8.411-0.078s-2.379,6.066-0.078,8.411C163.376,281.741,167.142,281.776,169.486,279.476z
				 M182.818,307.521c-2.344,2.301-2.379,6.066-0.078,8.411c2.301,2.344,6.067,2.379,8.411,0.078s2.379-6.066,0.078-8.411
				C188.928,305.256,185.162,305.221,182.818,307.521z M179.91,290.096c-2.344,2.301-2.379,6.066-0.078,8.41
				c2.301,2.345,6.067,2.38,8.411,0.079c2.344-2.302,2.379-6.067,0.078-8.411C186.02,287.829,182.254,287.794,179.91,290.096z
				 M185.496,263.761c2.344-2.301,2.379-6.066,0.079-8.411c-2.301-2.344-6.067-2.379-8.411-0.078s-2.379,6.066-0.078,8.411
				C179.386,266.026,183.152,266.062,185.496,263.761z M179.039,273.712c-2.344,2.301-2.379,6.066-0.079,8.41
				c2.301,2.345,6.067,2.38,8.411,0.079c2.344-2.302,2.379-6.067,0.078-8.411C185.149,271.445,181.383,271.41,179.039,273.712z
				 M310.479,141.084c2.345-2.302,2.38-6.067,0.078-8.411c-2.301-2.345-6.066-2.38-8.41-0.079c-2.345,2.302-2.379,6.067-0.078,8.411
				C304.369,143.35,308.135,143.385,310.479,141.084z M324.662,187.56c-2.344,2.302-2.379,6.067-0.078,8.411
				c2.302,2.345,6.067,2.379,8.412,0.078c2.344-2.301,2.379-6.066,0.078-8.411C330.773,185.294,327.007,185.259,324.662,187.56z
				 M336.396,136.495c-2.344,2.301-2.379,6.066-0.078,8.411c2.301,2.344,6.066,2.379,8.41,0.078c2.345-2.301,2.38-6.066,0.078-8.411
				C342.506,134.229,338.74,134.194,336.396,136.495z M343.857,128.601c2.345-2.301,2.38-6.066,0.079-8.411
				c-2.302-2.344-6.067-2.379-8.411-0.078s-2.379,6.066-0.078,8.411S341.514,130.901,343.857,128.601z M197.795,292.82
				c-2.344,2.301-2.379,6.066-0.078,8.411c2.301,2.345,6.066,2.379,8.411,0.078s2.379-6.066,0.079-8.411
				C203.905,290.555,200.14,290.52,197.795,292.82z M322.777,170.144c-2.344,2.301-2.379,6.066-0.078,8.41
				c2.301,2.345,6.067,2.38,8.412,0.079c2.344-2.302,2.379-6.067,0.078-8.411C328.888,167.877,325.122,167.842,322.777,170.144z
				 M199.68,310.237c-2.344,2.301-2.379,6.066-0.078,8.411c2.301,2.344,6.066,2.379,8.411,0.078s2.379-6.067,0.079-8.411
				C205.79,307.971,202.024,307.937,199.68,310.237z M195.92,274.381c-2.344,2.301-2.379,6.066-0.078,8.41
				c2.301,2.345,6.067,2.38,8.411,0.079c2.344-2.302,2.379-6.067,0.078-8.411C202.03,272.114,198.264,272.079,195.92,274.381z
				 M378.625,131.995c2.344-2.302,2.379-6.067,0.078-8.411c-2.301-2.345-6.066-2.38-8.411-0.078
				c-2.344,2.301-2.379,6.066-0.078,8.411C372.515,134.261,376.28,134.296,378.625,131.995z M338.788,154.429
				c-2.345,2.301-2.38,6.066-0.078,8.41c2.301,2.345,6.066,2.38,8.411,0.079c2.344-2.302,2.379-6.067,0.078-8.411
				C344.898,152.162,341.133,152.127,338.788,154.429z M356.167,156.637c-2.345,2.302-2.38,6.067-0.078,8.411
				c2.301,2.345,6.066,2.38,8.41,0.078c2.345-2.301,2.38-6.066,0.079-8.41C362.276,154.371,358.511,154.336,356.167,156.637z
				 M198.075,256.409c-1.105,0.215-2.163,0.74-3.026,1.588c-2.344,2.301-2.379,6.066-0.078,8.41c2.301,2.345,6.067,2.38,8.411,0.079
				c0.168-0.165,0.299-0.354,0.443-0.532l-2.038-2.16C199.78,261.666,198.552,259.089,198.075,256.409z M360.739,129.27
				c2.344-2.301,2.379-6.066,0.078-8.411c-2.301-2.344-6.066-2.379-8.411-0.078c-2.344,2.301-2.379,6.066-0.078,8.411
				C354.629,131.535,358.395,131.57,360.739,129.27z M354.282,139.221c-2.345,2.301-2.38,6.066-0.079,8.411
				c2.302,2.344,6.067,2.379,8.411,0.078c2.345-2.302,2.38-6.067,0.078-8.411C360.392,136.954,356.626,136.919,354.282,139.221z
				 M304.021,151.034c-2.344,2.301-2.379,6.066-0.078,8.411c2.301,2.344,6.066,2.379,8.41,0.078c2.345-2.301,2.38-6.066,0.079-8.411
				C310.131,148.769,306.365,148.733,304.021,151.034z M320.902,151.703c-2.344,2.301-2.379,6.066-0.078,8.411
				c2.301,2.344,6.066,2.379,8.411,0.078s2.38-6.066,0.078-8.411C327.013,149.438,323.247,149.402,320.902,151.703z
				 M320.031,135.319c-2.344,2.301-2.379,6.066-0.078,8.411c2.301,2.344,6.066,2.379,8.411,0.078s2.38-6.066,0.079-8.411
				C326.142,133.054,322.376,133.019,320.031,135.319z M320.765,245.574c2.345-2.302,2.379-6.067,0.078-8.411
				c-2.301-2.345-6.067-2.38-8.411-0.078c-2.344,2.301-2.379,6.066-0.078,8.41C314.654,247.84,318.42,247.875,320.765,245.574z
				 M117.418,351.434c-2.344,2.302-2.379,6.067-0.078,8.411c2.301,2.345,6.067,2.38,8.411,0.078
				c2.344-2.301,2.379-6.066,0.078-8.411C123.528,349.168,119.763,349.133,117.418,351.434z M316.133,193.333
				c2.345-2.301,2.38-6.066,0.079-8.41c-2.302-2.345-6.067-2.38-8.411-0.079c-2.344,2.302-2.379,6.067-0.078,8.411
				C310.023,195.6,313.789,195.635,316.133,193.333z M304.893,167.418c-2.344,2.301-2.379,6.066-0.078,8.411
				c2.301,2.344,6.066,2.379,8.41,0.078c2.345-2.301,2.38-6.066,0.079-8.411C311.002,165.152,307.236,165.117,304.893,167.418z
				 M213.806,277.105c-2.344,2.301-2.379,6.066-0.079,8.411c2.301,2.344,6.067,2.379,8.411,0.078
				c0.039-0.038,0.064-0.083,0.101-0.121l-8.126-8.614C214.013,276.945,213.901,277.012,213.806,277.105z M319.894,229.19
				c2.345-2.302,2.38-6.067,0.078-8.411c-2.301-2.345-6.066-2.38-8.411-0.078c-2.344,2.301-2.379,6.066-0.078,8.411
				C313.783,231.456,317.549,231.491,319.894,229.19z M284.708,215.846c-0.952-0.97-2.158-1.522-3.407-1.699l5.062,5.366
				C286.251,218.18,285.719,216.875,284.708,215.846z M302.086,218.054c-2.301-2.344-6.066-2.379-8.41-0.078
				c-2.345,2.301-2.38,6.066-0.078,8.411c2.301,2.344,6.066,2.379,8.41,0.078C304.353,224.164,304.387,220.398,302.086,218.054z
				 M300.229,234.211l5.923,6.279c0.092-1.614-0.451-3.258-1.673-4.503C303.313,234.799,301.771,234.209,300.229,234.211z
				 M318.018,210.75c2.345-2.301,2.38-6.066,0.079-8.411c-2.302-2.344-6.067-2.379-8.411-0.078s-2.379,6.066-0.078,8.411
				C311.908,213.016,315.674,213.051,318.018,210.75z M325.973,125.876c2.344-2.302,2.379-6.067,0.078-8.411
				c-2.301-2.345-6.066-2.38-8.41-0.078c-2.345,2.301-2.38,6.066-0.079,8.41C319.863,128.142,323.629,128.177,325.973,125.876z
				 M335.904,213.476c2.344-2.302,2.379-6.067,0.078-8.411c-2.301-2.345-6.067-2.38-8.412-0.078
				c-2.344,2.301-2.379,6.066-0.078,8.41C329.794,215.741,333.56,215.776,335.904,213.476z M307.208,270.797l-8.635,8.145
				c0.059,0.065,0.101,0.14,0.162,0.202c2.301,2.345,6.066,2.379,8.411,0.078c2.344-2.301,2.379-6.066,0.078-8.411
				C307.22,270.806,307.213,270.802,307.208,270.797z M336.774,229.859c2.345-2.302,2.38-6.067,0.079-8.411
				c-2.302-2.345-6.067-2.38-8.412-0.078c-2.344,2.301-2.379,6.066-0.078,8.41C330.664,232.125,334.431,232.16,336.774,229.859z
				 M315.63,254.372c0.416,2.873-0.041,5.835-1.346,8.481c0.149,0.195,0.285,0.396,0.461,0.575c2.302,2.344,6.067,2.379,8.411,0.078
				s2.379-6.066,0.078-8.411C321.18,253.003,317.965,252.764,315.63,254.372z M349.006,180.334c2.344-2.301,2.379-6.066,0.078-8.411
				c-2.301-2.344-6.066-2.379-8.411-0.078c-2.345,2.302-2.38,6.067-0.078,8.411C342.896,182.601,346.662,182.635,349.006,180.334z
				 M330.317,239.81c-2.345,2.301-2.38,6.067-0.078,8.411c2.301,2.345,6.066,2.379,8.411,0.078c2.344-2.301,2.379-6.066,0.078-8.411
				C336.428,237.544,332.662,237.509,330.317,239.81z M241.593,305.989l-8.125-8.612c-2.224,2.311-2.231,5.979,0.03,8.281
				C235.702,307.904,239.237,308.007,241.593,305.989z M291.908,285.229l-8.573,8.088c0.139,0.178,0.262,0.363,0.423,0.527
				c2.301,2.344,6.066,2.379,8.411,0.078s2.38-6.066,0.078-8.411C292.142,285.404,292.02,285.327,291.908,285.229z M236.322,332.071
				c-2.344,2.301-2.379,6.066-0.079,8.411c2.301,2.344,6.067,2.379,8.411,0.078s2.379-6.066,0.078-8.411
				C242.432,329.806,238.667,329.771,236.322,332.071z M350.881,198.774c2.345-2.301,2.379-6.066,0.078-8.411
				c-2.301-2.344-6.066-2.379-8.41-0.078c-2.345,2.301-2.38,6.066-0.079,8.411C344.771,201.04,348.537,201.075,350.881,198.774z
				 M252.332,316.356c-2.344,2.301-2.379,6.066-0.078,8.411c2.301,2.344,6.066,2.379,8.411,0.078s2.38-6.066,0.078-8.411
				C258.442,314.091,254.677,314.056,252.332,316.356z M275.554,300.658l-8.508,8.025c0.205,0.307,0.435,0.603,0.702,0.876
				c2.301,2.344,6.066,2.379,8.41,0.078c2.345-2.301,2.38-6.066,0.078-8.411C276.024,301.011,275.788,300.835,275.554,300.658z
				 M242.779,322.12c2.344-2.301,2.379-6.066,0.079-8.411c-2.301-2.344-6.067-2.379-8.411-0.078
				c-2.344,2.302-2.379,6.067-0.078,8.411C236.669,324.387,240.435,324.422,242.779,322.12z M351.752,215.158
				c2.344-2.301,2.379-6.067,0.078-8.411c-2.301-2.345-6.066-2.379-8.41-0.078c-2.345,2.301-2.38,6.066-0.079,8.411
				C345.643,217.424,349.408,217.459,351.752,215.158z M398.395,152.137c2.345-2.301,2.38-6.066,0.079-8.411
				c-2.302-2.344-6.067-2.379-8.411-0.078c-2.345,2.301-2.38,6.066-0.078,8.411C392.285,154.402,396.051,154.438,398.395,152.137z
				 M383.256,184.235c2.344-2.301,2.379-6.066,0.078-8.411c-2.301-2.344-6.066-2.379-8.411-0.078
				c-2.344,2.301-2.379,6.066-0.078,8.411C377.146,186.501,380.911,186.536,383.256,184.235z M377.314,193.679
				c-2.344,2.302-2.379,6.067-0.078,8.411c2.301,2.345,6.067,2.38,8.411,0.078c2.345-2.301,2.38-6.066,0.078-8.41
				C383.425,191.413,379.659,191.378,377.314,193.679z M401.22,178.55c-2.301-2.345-6.066-2.38-8.411-0.079
				c-2.344,2.302-2.379,6.067-0.078,8.411c2.301,2.345,6.066,2.38,8.411,0.078C403.485,184.659,403.521,180.894,401.22,178.55z
				 M399.266,168.521c2.345-2.301,2.38-6.066,0.079-8.411c-2.302-2.344-6.067-2.379-8.411-0.078
				c-2.345,2.301-2.38,6.066-0.078,8.411C393.156,170.786,396.922,170.821,399.266,168.521z M382.385,167.852
				c2.345-2.301,2.379-6.066,0.078-8.411c-2.301-2.344-6.066-2.379-8.411-0.078c-2.344,2.301-2.379,6.066-0.078,8.411
				C376.274,170.117,380.041,170.152,382.385,167.852z M366.891,183.06c2.345-2.301,2.38-6.066,0.079-8.411
				c-2.302-2.344-6.067-2.379-8.411-0.078c-2.345,2.301-2.38,6.066-0.078,8.411C360.781,185.325,364.547,185.36,366.891,183.06z
				 M346.328,224.095c-2.345,2.301-2.38,6.067-0.079,8.411c2.302,2.345,6.066,2.379,8.411,0.078
				c2.344-2.301,2.379-6.066,0.078-8.411C352.438,221.829,348.672,221.794,346.328,224.095z M361.305,209.394
				c-2.344,2.302-2.379,6.067-0.078,8.411c2.301,2.345,6.066,2.38,8.411,0.078c2.344-2.301,2.379-6.066,0.078-8.41
				C367.415,207.128,363.649,207.093,361.305,209.394z M367.762,199.443c2.345-2.301,2.38-6.067,0.079-8.411
				c-2.302-2.345-6.067-2.379-8.411-0.078c-2.345,2.301-2.38,6.066-0.078,8.411C361.652,201.709,365.418,201.744,367.762,199.443z
				 M380.51,149.411c2.344-2.301,2.379-6.066,0.078-8.411c-2.301-2.344-6.066-2.379-8.411-0.078
				c-2.344,2.302-2.379,6.067-0.078,8.411C374.399,151.678,378.165,151.713,380.51,149.411z M137.189,371.576
				c-2.344,2.301-2.379,6.066-0.079,8.41c2.301,2.345,6.067,2.38,8.411,0.079c2.344-2.302,2.379-6.067,0.078-8.411
				C143.299,369.31,139.533,369.274,137.189,371.576z M163.407,382.79c2.344-2.301,2.379-6.066,0.078-8.411
				c-2.301-2.344-6.067-2.379-8.411-0.078s-2.379,6.066-0.078,8.411C157.297,385.056,161.063,385.091,163.407,382.79z
				 M161.532,364.351c2.344-2.302,2.379-6.067,0.078-8.411c-2.301-2.345-6.066-2.38-8.411-0.078
				c-2.344,2.301-2.379,6.066-0.079,8.41C155.422,366.616,159.188,366.651,161.532,364.351z M159.647,346.934
				c2.344-2.301,2.379-6.066,0.078-8.411c-2.301-2.344-6.067-2.379-8.411-0.078c-2.345,2.301-2.379,6.066-0.079,8.411
				C153.537,349.199,157.303,349.234,159.647,346.934z M155.945,390.685c-2.344,2.301-2.379,6.066-0.078,8.411
				c0.348,0.354,0.736,0.638,1.141,0.887c1.406,0.298,2.812,0.567,4.214,0.788c1.116-0.211,2.185-0.741,3.056-1.597
				c2.344-2.301,2.379-6.066,0.079-8.411C162.055,388.419,158.29,388.384,155.945,390.685z M177.025,349.143
				c2.344-2.302,2.379-6.067,0.078-8.411c-2.301-2.345-6.066-2.38-8.411-0.078c-2.344,2.301-2.379,6.066-0.079,8.41
				C170.916,351.408,174.681,351.443,177.025,349.143z M175.141,331.726c2.344-2.301,2.379-6.066,0.078-8.411
				c-2.301-2.344-6.066-2.379-8.411-0.078s-2.379,6.066-0.079,8.411C169.031,333.991,172.796,334.026,175.141,331.726z M157.255,329
				c2.345-2.301,2.379-6.066,0.079-8.41c-2.301-2.345-6.067-2.38-8.411-0.079c-2.344,2.302-2.379,6.067-0.078,8.411
				C151.145,331.267,154.911,331.302,157.255,329z M141.761,344.208c2.344-2.301,2.379-6.066,0.079-8.411
				c-2.301-2.344-6.067-2.379-8.411-0.078c-2.344,2.302-2.379,6.067-0.078,8.411C135.651,346.475,139.417,346.51,141.761,344.208z
				 M140.891,327.824c2.344-2.301,2.379-6.066,0.078-8.41c-2.301-2.345-6.067-2.38-8.411-0.079
				c-2.344,2.302-2.379,6.067-0.078,8.411C134.78,330.091,138.546,330.126,140.891,327.824z M143.637,362.648
				c2.344-2.301,2.379-6.066,0.078-8.411c-2.301-2.344-6.066-2.379-8.411-0.078s-2.379,6.066-0.079,8.411
				C137.527,364.914,141.292,364.949,143.637,362.648z M138.499,309.892c2.344-2.301,2.379-6.066,0.079-8.411
				c-2.301-2.344-6.067-2.379-8.411-0.078s-2.379,6.066-0.078,8.411C132.389,312.157,136.154,312.192,138.499,309.892z
				 M179.417,367.075c2.344-2.301,2.379-6.066,0.079-8.411c-2.301-2.344-6.067-2.379-8.411-0.078s-2.379,6.066-0.078,8.411
				C173.307,369.341,177.073,369.376,179.417,367.075z M195.782,368.251c2.344-2.301,2.379-6.066,0.079-8.411
				c-2.301-2.344-6.067-2.379-8.411-0.078s-2.379,6.066-0.078,8.411C189.672,370.518,193.438,370.552,195.782,368.251z
				 M224.023,303.012c2.344-2.301,2.379-6.067,0.079-8.411c-2.301-2.345-6.067-2.379-8.411-0.078s-2.379,6.066-0.078,8.411
				C217.913,305.277,221.679,305.313,224.023,303.012z M205.334,362.487c-2.344,2.301-2.379,6.066-0.078,8.411
				c2.301,2.344,6.067,2.379,8.411,0.078s2.379-6.067,0.078-8.411C211.445,360.221,207.679,360.186,205.334,362.487z
				 M211.792,352.536c2.344-2.301,2.379-6.066,0.078-8.411c-2.301-2.344-6.066-2.379-8.411-0.078s-2.379,6.066-0.079,8.411
				C205.682,354.802,209.448,354.837,211.792,352.536z M180.288,383.459c2.344-2.301,2.379-6.066,0.078-8.411
				c-2.301-2.344-6.066-2.379-8.411-0.078s-2.379,6.066-0.079,8.411C174.178,385.725,177.944,385.76,180.288,383.459z
				 M226.77,337.835c2.344-2.301,2.379-6.066,0.078-8.411c-2.301-2.344-6.067-2.379-8.411-0.078
				c-2.344,2.302-2.379,6.067-0.078,8.411C220.659,340.102,224.425,340.137,226.77,337.835z M210.921,336.152
				c2.344-2.301,2.379-6.066,0.079-8.411c-2.301-2.344-6.067-2.379-8.411-0.078s-2.379,6.067-0.078,8.411
				C204.811,338.419,208.577,338.453,210.921,336.152z M225.898,321.451c2.344-2.301,2.379-6.066,0.078-8.41
				c-2.301-2.345-6.066-2.38-8.411-0.079c-2.344,2.302-2.379,6.067-0.078,8.411C219.789,323.718,223.554,323.753,225.898,321.451z
				 M173.831,393.41c-2.309,2.266-2.366,5.946-0.169,8.297c3.215-0.024,6.327-0.25,9.254-0.711c1.564-2.297,1.347-5.449-0.673-7.508
				C179.941,391.144,176.175,391.108,173.831,393.41z M193.036,333.428c2.344-2.302,2.379-6.067,0.078-8.411
				c-2.301-2.345-6.066-2.38-8.411-0.078c-2.344,2.301-2.379,6.066-0.079,8.41C186.926,335.693,190.691,335.729,193.036,333.428z
				 M189.841,377.695c-2.344,2.301-2.379,6.066-0.078,8.41c2.301,2.345,6.067,2.38,8.411,0.079c2.344-2.302,2.379-6.067,0.078-8.411
				C195.951,375.429,192.185,375.394,189.841,377.695z M221.345,346.772c-2.344,2.301-2.379,6.066-0.078,8.411
				c2.301,2.344,6.067,2.379,8.411,0.078s2.379-6.067,0.078-8.411C227.455,344.506,223.689,344.471,221.345,346.772z
				 M194.911,351.867c2.344-2.301,2.379-6.066,0.078-8.411c-2.301-2.344-6.067-2.379-8.411-0.078s-2.379,6.067-0.078,8.411
				C188.801,354.134,192.566,354.168,194.911,351.867z"/>
		</g>
	</g>
	<g id="&#x424;&#x438;&#x433;&#x443;&#x440;&#x430;_38_&#x43A;&#x43E;&#x43F;&#x438;&#x44F;">
		<g>
			<path style="fill-rule:evenodd;clip-rule:evenodd;fill:#ECBD83;" d="M390.672,131.756c-32.233-34.857-67.582-21.947-68.828-20.11
				c1.429,18.204,36.914,9.861,55.652,29.112c18.739,19.251,4.506,58.367,21.439,63.843
				C400.052,205.701,420.941,164.489,390.672,131.756z M137.54,373.543c-20.106-17.818-8.793-57.877-26.084-62.09
				c-1.194-1.016-17.528,46.924,12.946,74.109c30.334,27.061,69.676,14.838,70.784,12.913
				C192.42,380.427,157.646,391.36,137.54,373.543z"/>
		</g>
	</g>
	<g id="&#x424;&#x438;&#x433;&#x443;&#x440;&#x430;_40_&#x43A;&#x43E;&#x43F;&#x438;&#x44F;">
		<g>
			<path style="fill-rule:evenodd;clip-rule:evenodd;fill:#DB8653;" d="M361.323,152.137
				c-13.679-15.717-35.705-23.453-40.968-18.088c-5.321,5.425,12.82,15.28,27.02,30.787c13.648,14.906,23.18,35.688,27.855,30.921
				C379.96,190.936,374.771,167.587,361.323,152.137z M163.541,346.171c-14.409-14.172-25.014-34.428-29.434-29.422
				c-4.471,5.062,1.932,28.107,16.168,42.834c14.482,14.979,36.882,21.555,41.857,15.921
				C197.163,369.809,178.532,360.914,163.541,346.171z"/>
		</g>
	</g>
	<g id="&#x417;&#x430;&#x43B;&#x438;&#x432;&#x43A;&#x430;_&#x446;&#x432;&#x435;&#x442;&#x43E;&#x43C;_36">
		<g>
			<path style="fill-rule:evenodd;clip-rule:evenodd;fill:#B66030;" d="M273.482,172.127c-4.795,4.795,62.989,73.062,68.025,68.025
				C346.543,235.117,278.276,167.333,273.482,172.127z M171.926,266.205c-4.041,4.04,64.98,73.966,69.473,69.473
				S175.967,262.164,171.926,266.205z"/>
		</g>
	</g>
	<g id="&#x424;&#x438;&#x433;&#x443;&#x440;&#x430;_42">
		<g>
			<path style="fill-rule:evenodd;clip-rule:evenodd;fill:#ECBD83;" d="M308.047,247.121l-40.221-42.637
				c-5.106-5.414-13.635-5.662-19.048-0.556l-42.637,40.222c-5.414,5.106-5.662,13.635-0.556,19.048l40.222,42.637
				c5.106,5.413,13.635,5.661,19.048,0.555l42.637-40.221C312.905,261.063,313.154,252.534,308.047,247.121z"/>
		</g>
	</g>
	<g id="&#x424;&#x438;&#x433;&#x443;&#x440;&#x430;_41">
		<g>
			<path style="fill-rule:evenodd;clip-rule:evenodd;fill:#EEC48F;" d="M181.696,240.635c56.944-22.569,71.644-66.578,71.644-66.578
				s-21.041,13.225-38.56,29.505C196.493,220.556,181.696,240.635,181.696,240.635z M267.813,328.924
				c0,0,16.826-12.504,33.465-28.769c15.527-15.178,30.943-34.191,30.943-34.191S280.703,278.944,267.813,328.924z"/>
		</g>
	</g>
	<g id="&#x417;&#x430;&#x43B;&#x438;&#x432;&#x43A;&#x430;_&#x446;&#x432;&#x435;&#x442;&#x43E;&#x43C;_34">
		<g>
			<path style="fill-rule:evenodd;clip-rule:evenodd;fill:#40292E;" d="M389.394,123.374
				c-11.972-11.972-29.985-19.118-48.186-19.118c-5.074,0-9.968,0.573-14.546,1.703c-8.794,2.172-17.597,8.123-26.911,18.192
				l-1.134,1.23c-5.67,6.158-18.945,20.581-39.778,38.398c-5.64,4.823-11.526,9.499-17.759,14.448
				c-9.529,7.567-20.328,16.146-31.994,26.734c-10.041,9.115-20.769,20.894-30.233,31.286c-4.262,4.68-8.288,9.1-11.591,12.531
				c-5.434,5.644-10.289,10.75-14.69,15.379c-14.4,15.147-23.914,25.154-32.89,32.092c-8.8,6.802-14.932,21.448-16.001,38.225
				c-1.368,21.45,5.335,41.24,18.391,54.294c14.81,14.811,36.897,20.087,52.631,20.087c7.199,0,13.951-1.044,19.527-3.019
				c6.665-2.361,11.54-9.347,15.101-14.447c1.277-1.829,2.483-3.558,3.348-4.441c6.32-6.455,14.917-14.579,26.813-25.824
				c4.24-4.009,8.868-8.384,13.912-13.174c4.996-4.744,11.671-10.519,18.736-16.632c10.123-8.756,21.597-18.681,31.82-28.718
				c13.281-13.042,23.543-24.8,33.467-36.173c7.086-8.12,13.779-15.791,20.926-23.144c14.973-15.399,26.515-26.818,34.18-32.49
				c5.333-3.947,12.223-10.084,14.759-16.906C415.284,172.379,407.424,141.404,389.394,123.374z M400.506,191.367
				c-1.494,4.022-5.856,8.856-12.28,13.61c-8.057,5.963-19.843,17.609-35.063,33.264c-7.284,7.492-14.038,15.233-21.19,23.429
				c-9.833,11.27-20.002,22.922-33.086,35.767c-10.059,9.877-21.439,19.724-31.482,28.41c-7.131,6.17-13.868,11.997-18.985,16.858
				c-5.039,4.785-9.663,9.156-13.899,13.16c-11.956,11.301-20.595,19.466-27.013,26.021c-1.285,1.312-2.595,3.188-4.112,5.362
				c-2.999,4.297-7.106,10.183-11.582,11.769c-4.809,1.703-10.726,2.602-17.111,2.602c-14.284,0-34.267-4.72-47.515-17.966
				c-11.585-11.586-17.521-29.342-16.286-48.717c0.928-14.538,6.111-27.476,13.205-32.958c9.414-7.276,19.079-17.443,33.71-32.833
				c4.392-4.619,9.236-9.715,14.658-15.347c3.373-3.504,7.431-7.959,11.727-12.678c9.356-10.272,19.961-21.916,29.747-30.8
				c11.489-10.429,21.729-18.561,31.63-26.425c6.286-4.993,12.223-9.708,17.963-14.617c21.162-18.097,34.642-32.743,40.398-38.997
				l1.121-1.217c3.061-3.308,12.37-13.373,23.336-16.08c4.01-0.99,8.319-1.493,12.81-1.493c16.079,0,32.582,6.514,43.068,16.999
				C402.348,146.563,406.719,174.651,400.506,191.367z"/>
		</g>
	</g>
	<g id="&#x417;&#x430;&#x43B;&#x438;&#x432;&#x43A;&#x430;_&#x446;&#x432;&#x435;&#x442;&#x43E;&#x43C;_35">
		<g>
			<path style="fill-rule:evenodd;clip-rule:evenodd;fill:#B66030;" d="M303.115,252.439l-41.291-43.558
				c-1.006-1.061-2.551-1.416-3.92-0.89c-1.367,0.523-2.283,1.819-2.322,3.282l-1.044,39.064l-41.235-1.103
				c-1.463-0.039-2.806,0.807-3.401,2.144c-0.596,1.337-0.328,2.9,0.679,3.963l43.653,46.051c0.673,0.711,1.588,1.103,2.53,1.128
				c0.465,0.013,0.938-0.065,1.391-0.238c1.365-0.523,2.283-1.82,2.322-3.282l1.102-41.234l39.064,1.044
				c0.009,0,0.02,0.001,0.029,0.001c1.997,0.053,3.66-1.522,3.713-3.521C304.416,254.153,303.918,253.124,303.115,252.439z
				 M253.476,290.075l-31.634-33.371l32.502,0.869L253.476,290.075z M261.771,250.532l0.811-30.332l29.522,31.143L261.771,250.532z"
				/>
		</g>
	</g>
</g>
</svg>
