<?xml version="1.0" encoding="iso-8859-1"?>
<!-- Generator: Adobe Illustrator 15.0.0, SVG Export Plug-In . SVG Version: 6.00 Build 0)  -->
<!DOCTYPE svg PUBLIC "-//W3C//DTD SVG 1.1//EN" "http://www.w3.org/Graphics/SVG/1.1/DTD/svg11.dtd" [
	<!ENTITY ns_extend "http://ns.adobe.com/Extensibility/1.0/">
	<!ENTITY ns_ai "http://ns.adobe.com/AdobeIllustrator/10.0/">
	<!ENTITY ns_graphs "http://ns.adobe.com/Graphs/1.0/">
	<!ENTITY ns_vars "http://ns.adobe.com/Variables/1.0/">
	<!ENTITY ns_imrep "http://ns.adobe.com/ImageReplacement/1.0/">
	<!ENTITY ns_sfw "http://ns.adobe.com/SaveForWeb/1.0/">
	<!ENTITY ns_custom "http://ns.adobe.com/GenericCustomNamespace/1.0/">
	<!ENTITY ns_adobe_xpath "http://ns.adobe.com/XPath/1.0/">
]>
<svg version="1.1" xmlns:x="&ns_extend;" xmlns:i="&ns_ai;" xmlns:graph="&ns_graphs;"
	 xmlns="http://www.w3.org/2000/svg" xmlns:xlink="http://www.w3.org/1999/xlink" x="0px" y="0px" width="512px" height="512px"
	 viewBox="0 0 512 512" style="enable-background:new 0 0 512 512;" xml:space="preserve">
<metadata>
	<sfw  xmlns="&ns_sfw;">
		<slices></slices>
		<sliceSourceBounds  x="94" y="94" width="512" height="512" bottomLeftOrigin="true"></sliceSourceBounds>
	</sfw>
</metadata>
<g id="&#x418;&#x437;&#x43E;&#x431;&#x440;&#x430;&#x436;&#x435;&#x43D;&#x438;&#x435;_xA0_17_1_">
	<g id="&#x417;&#x430;&#x43B;&#x438;&#x432;&#x43A;&#x430;_&#x446;&#x432;&#x435;&#x442;&#x43E;&#x43C;_1">
		<g>
			<rect x="3.699" y="4.439" style="fill-rule:evenodd;clip-rule:evenodd;fill:#B17D7B;" width="503.121" height="503.121"/>
		</g>
	</g>
	<g id="&#x417;&#x430;&#x43B;&#x438;&#x432;&#x43A;&#x430;_&#x446;&#x432;&#x435;&#x442;&#x43E;&#x43C;_5">
		<g>
			<path style="fill-rule:evenodd;clip-rule:evenodd;fill:#F3D4C3;" d="M484.624,25.156l20.717-20.717H3.699l20.717,20.717H484.624z
				 M24.416,486.844L3.699,507.561h501.642l-20.717-20.717H24.416z"/>
		</g>
	</g>
	
		<g id="&#x417;&#x430;&#x43B;&#x438;&#x432;&#x43A;&#x430;_&#x446;&#x432;&#x435;&#x442;&#x43E;&#x43C;_1_&#x43A;&#x43E;&#x43F;&#x438;&#x44F;_2">
		<g>
			<radialGradient id="SVGID_1_" cx="256.7402" cy="256" r="228.0762" gradientUnits="userSpaceOnUse">
				<stop  offset="0" style="stop-color:#7D7193"/>
				<stop  offset="0.2" style="stop-color:#7C7193"/>
				<stop  offset="0.4" style="stop-color:#6C6382"/>
				<stop  offset="0.5939" style="stop-color:#554E6B"/>
				<stop  offset="0.7515" style="stop-color:#3E3A53"/>
				<stop  offset="0.897" style="stop-color:#29273A"/>
				<stop  offset="1" style="stop-color:#232132"/>
			</radialGradient>
			<polygon style="fill-rule:evenodd;clip-rule:evenodd;fill:url(#SVGID_1_);" points="432.765,27.924 78.856,27.924 28.664,78.116 
				28.664,435.769 76.972,484.076 433.367,484.076 484.816,432.627 484.816,79.976 			"/>
		</g>
	</g>
	
		<g id="&#x417;&#x430;&#x43B;&#x438;&#x432;&#x43A;&#x430;_&#x446;&#x432;&#x435;&#x442;&#x43E;&#x43C;_1_&#x43A;&#x43E;&#x43F;&#x438;&#x44F;">
		<g>
			<path style="fill-rule:evenodd;clip-rule:evenodd;fill:#F2D2C0;" d="M25.109,24.37v463.26h463.26V24.37H25.109z M466.659,418.566
				l-47.353,47.353H91.283l-44.462-44.462V92.277l46.196-46.196h325.734l47.908,47.907V418.566z"/>
		</g>
	</g>
	<g id="&#x424;&#x438;&#x433;&#x443;&#x440;&#x430;_3">
		<g>
			<path style="fill-rule:evenodd;clip-rule:evenodd;fill:#A18180;" d="M429.873,25.156l-344.047-1.48l-62.15,62.891v342.566
				l59.931,59.19l344.046-0.739l59.931-59.191V84.347L429.873,25.156z M477.226,423.954l-56.231,54.751H91.006l-56.231-54.751
				V88.046l54.012-54.012h334.428l54.751,56.231L477.226,423.954z"/>
		</g>
	</g>
	<g id="&#x417;&#x430;&#x43B;&#x438;&#x432;&#x43A;&#x430;_&#x446;&#x432;&#x435;&#x442;&#x43E;&#x43C;_6">
		<g>
			<path style="fill-rule:evenodd;clip-rule:evenodd;fill:#C7907F;" d="M23.676,86.566l62.52-62.752l-62.52-0.139V86.566z
				 M487.584,23.63l-62.521,0.139l62.521,62.752V23.63z M22.196,488.37l62.521-0.139l-62.521-62.752V488.37z M425.803,488.971
				l62.521,0.139v-62.89L425.803,488.971z"/>
		</g>
	</g>
	
		<g id="&#x417;&#x430;&#x43B;&#x438;&#x432;&#x43A;&#x430;_&#x446;&#x432;&#x435;&#x442;&#x43E;&#x43C;_6_&#x43A;&#x43E;&#x43F;&#x438;&#x44F;">
		<g>
			<path style="fill-rule:evenodd;clip-rule:evenodd;fill:#FDECE7;" d="M54.694,55.434l31.502-31.619l-59.314,3.562L54.694,55.434z
				 M27.964,485.886l56.753,2.346L55.27,458.579L27.964,485.886z M425.803,488.971l59.314-3.113l-28.158-28.158L425.803,488.971z
				 M485.117,26.582l-60.054-2.813l31.376,31.491L485.117,26.582z"/>
		</g>
	</g>
	<g id="&#x424;&#x438;&#x433;&#x443;&#x440;&#x430;_1">
		<g>
			<path style="fill-rule:evenodd;clip-rule:evenodd;fill:#C7907F;" d="M34.774,487.769l0.093-9.156h-8.417L34.774,487.769z
				 M477.04,477.873l0.093,9.155l8.323-9.155H477.04z M476.393,25.804l-0.092,9.156h8.416L476.393,25.804z M26.451,34.96h8.417
				l-0.093-9.156L26.451,34.96z"/>
		</g>
	</g>
	<g id="&#x424;&#x438;&#x433;&#x443;&#x440;&#x430;_2">
		<g>
			<path style="fill-rule:evenodd;clip-rule:evenodd;fill:#FDECE7;" d="M22.597,480.813L9.026,497.72l-1.627,10.285l22.418-0.296
				l0.532-18.644l-3.492-6.957L22.597,480.813z M508.448,495.817l-18.855-14.581l-4.261,4.043l-3.068,4.209l2.646,16.529
				l23.688,1.353L508.448,495.817z M21.002,31.648l4.26-1.295l3.492-6.956L28.222,4.754L5.803,4.458l1.628,10.284L21.002,31.648z
				 M487.997,31.226l18.856-14.581l0.147-11.553l-23.687,1.353l-2.646,16.53l3.069,4.208L487.997,31.226z"/>
		</g>
	</g>
	<g id="&#x417;&#x430;&#x43B;&#x438;&#x432;&#x43A;&#x430;_&#x446;&#x432;&#x435;&#x442;&#x43E;&#x43C;_2">
		<g>
			<path style="fill-rule:evenodd;clip-rule:evenodd;fill:#2F181B;" d="M0,0v512h512V0H0z M503.121,503.121H8.878V8.879h494.243
				V503.121z"/>
		</g>
	</g>
	<g id="&#x417;&#x430;&#x43B;&#x438;&#x432;&#x43A;&#x430;_&#x446;&#x432;&#x435;&#x442;&#x43E;&#x43C;_3">
		<g>
			<path style="fill-rule:evenodd;clip-rule:evenodd;fill:#40292E;" d="M482.33,20.67H29.346l-9.369,9.369v397.468
				c-0.119,0.585-0.119,1.188,0,1.771v53.925l9.606,9.605h453.025l9.507-9.507V30.455L482.33,20.67z M28.855,34.183l4.633-4.634
				h40.974L28.855,75.156V34.183z M33.726,483.931l-4.871-4.871v-39.857l44.728,44.729H33.726z M483.237,479.158l-4.772,4.772
				H437.63l45.607-45.607V479.158z M483.237,425.769l-58.162,58.162H86.139l-57.283-57.283V87.711l58.162-58.162h338.058
				l58.162,58.162V425.769z M483.237,75.156L437.63,29.549h40.558l5.05,5.05V75.156z"/>
		</g>
	</g>
	
		<g id="&#x417;&#x430;&#x43B;&#x438;&#x432;&#x43A;&#x430;_&#x446;&#x432;&#x435;&#x442;&#x43E;&#x43C;_4_&#x43A;&#x43E;&#x43F;&#x438;&#x44F;" style="opacity:0.502;">
		<g>
			<path style="fill-rule:evenodd;clip-rule:evenodd;fill:#876867;" d="M465.59,92.913l-47.243-47.244
				c-0.685-0.685-1.612-1.068-2.579-1.068H94.545c-0.968,0-1.896,0.384-2.58,1.068L46.409,91.227
				c-0.684,0.684-1.069,1.611-1.069,2.579v324.619c0,0.968,0.385,1.896,1.069,2.579l43.847,43.847
				c0.684,0.684,1.612,1.068,2.579,1.068h323.479c0.968,0,1.896-0.385,2.579-1.068l46.696-46.696
				c0.685-0.685,1.069-1.612,1.069-2.58V95.493C466.659,94.525,466.274,93.598,465.59,92.913z M459.363,414.063l-44.56,44.56H94.346
				l-41.709-41.709V95.316l43.419-43.419h318.201l45.106,45.106V414.063z"/>
		</g>
	</g>
	<g id="&#x417;&#x430;&#x43B;&#x438;&#x432;&#x43A;&#x430;_&#x446;&#x432;&#x435;&#x442;&#x43E;&#x43C;_4">
		<g>
			<path style="fill-rule:evenodd;clip-rule:evenodd;fill:#40292E;" d="M468.534,90.633l-47.907-47.907
				c-0.693-0.694-1.635-1.084-2.615-1.084H92.277c-0.981,0-1.922,0.39-2.616,1.084L43.465,88.922
				c-0.693,0.693-1.083,1.635-1.083,2.615v329.18c0,0.981,0.39,1.922,1.083,2.615l44.463,44.463
				c0.694,0.693,1.634,1.084,2.615,1.084h328.023c0.981,0,1.922-0.391,2.615-1.084l47.353-47.353
				c0.694-0.694,1.084-1.635,1.084-2.616V93.248C469.618,92.268,469.229,91.326,468.534,90.633z M462.22,416.295l-45.186,45.185
				H92.075L49.78,419.185V93.07l44.029-44.03h322.67l45.74,45.741V416.295z"/>
		</g>
	</g>
</g>
<g id="&#x418;&#x437;&#x43E;&#x431;&#x440;&#x430;&#x436;&#x435;&#x43D;&#x438;&#x435;_xA0_1324_1_">
	<g id="&#x424;&#x438;&#x433;&#x443;&#x440;&#x430;_440_&#x43A;&#x43E;&#x43F;&#x438;&#x44F;_5" style="opacity:0.502;">
		<g>
			<path style="fill-rule:evenodd;clip-rule:evenodd;fill:#232132;" d="M367,222.667l-221.333-2
				c-22.61,0-32.513,21.228-30.479,45.842l1.833,22.197l5.296,64.109l1.654,20.027c1.209,14.642,14.421,25.508,30.75,25.508h69.237
				l30.692,26.792c0.597,0.521,1.404,0.813,2.246,0.813c0.844,0,1.651-0.292,2.248-0.813l30.705-26.792h66.543
				c19.687,0,31.264-8.887,32.617-25.281l1.654-20.021l5.332-64.548l1.833-22.202C400.356,235.703,382.726,222.667,367,222.667z"/>
		</g>
	</g>
	<g id="&#x424;&#x438;&#x433;&#x443;&#x440;&#x430;_440_&#x43A;&#x43E;&#x43F;&#x438;&#x44F;">
		<g>
			<path style="fill-rule:evenodd;clip-rule:evenodd;fill:#C07EA9;" d="M357.863,162.681H153.512
				c-25.396,0-38.328,13.921-38.328,44.263v121.198c0,21.283,16.639,34.798,35.36,34.798c24.711,0,24.542,0,62.723,0l43.982,43.981
				l43.98-43.981c36.419,0,33.174,0,57.477,0c20.282,0,37.983-7.694,37.983-34.454V206.662
				C396.69,177.008,383.238,162.681,357.863,162.681z M197.829,306.72c-2.758,0-50.681-33.696-50.538-52.713
				c0.14-18.87,12.423-29.093,25.338-29.029c9.601,0.047,23.422,17.862,25.123,17.862s15.958-17.717,25.93-17.486
				c12.602,0.291,24.44,10.047,24.577,28.457C248.4,272.698,200.586,306.72,197.829,306.72z"/>
		</g>
	</g>
	<g id="&#x424;&#x438;&#x433;&#x443;&#x440;&#x430;_443">
		<g>
			<path style="fill-rule:evenodd;clip-rule:evenodd;fill:#985E85;" d="M151.641,207.431c-5.041,10.332-1.596,24.721-1.596,24.721
				l19.46-10.184l-0.468-28.456C169.037,193.512,156.596,197.273,151.641,207.431z M130.761,326.349
				c-8.201-5.025-16.451-13.388-16.451-13.388s-3.035,21.926,5.223,34.51c7.443,11.341,26.264,13.47,26.264,13.47l-0.5-28.987
				C145.297,331.953,137.993,330.781,130.761,326.349z M197.244,213.565l0.25,28.426c0,0,6.871-6.813,13.184-11.752
				c5.802-4.54,11.087-7.24,11.087-7.24l0.5-28.988c0,0-6.023,2.388-11.706,6.024C203.834,204.338,197.244,213.565,197.244,213.565z
				 M256.75,373.436l0.125,29.519l43.356-40.015l-1.093-26.582L256.75,373.436z M395.691,317.959c0,0-7.327,6.076-15.339,9.111
				c-8.469,3.208-17.647,3.383-17.647,3.383l0.125,32.081c0,0,16.946-1.294,25.396-12.176
				C396.259,340.013,395.691,317.959,395.691,317.959z"/>
		</g>
	</g>
	<g id="&#x417;&#x430;&#x43B;&#x438;&#x432;&#x43A;&#x430;_&#x446;&#x432;&#x435;&#x442;&#x43E;&#x43C;_238">
		<g>
			<path style="fill-rule:evenodd;clip-rule:evenodd;fill:#885175;" d="M357.675,157.479h-204.35
				c-28.417,0-42.826,16.405-42.826,48.761v121.198c0,20.102,13.815,35.727,33.066,38.732c0.55,0.239,1.156,0.377,1.794,0.377
				c0.172,0,0.336-0.032,0.503-0.051c1.473,0.149,2.968,0.238,4.495,0.238h60.86l41.254,41.254c0.625,1.732,2.268,2.978,4.216,2.978
				c1.008,0,1.928-0.343,2.678-0.902c0.314-0.188,0.613-0.401,0.877-0.665l42.664-42.664h55.612
				c27.396,0,42.483-13.833,42.483-38.951V205.96C401.002,165.891,377.44,157.479,357.675,157.479z M392.005,327.784
				c0,17.272-8.071,26.915-24.552,29.327V324.19c0-2.484-2.014-4.498-4.498-4.498s-4.498,2.014-4.498,4.498v33.549h-53.79v-35.61
				c0-2.484-2.013-4.498-4.498-4.498s-4.498,2.014-4.498,4.498v39.12l-34.485,34.486v-32.749c0-2.484-2.014-4.498-4.498-4.498
				c-2.485,0-4.498,2.014-4.498,4.498v32l-34.111-34.111v-38.746c0-2.484-2.013-4.498-4.498-4.498s-4.498,2.014-4.498,4.498v35.61
				h-58.725c-0.166,0-0.333-0.02-0.5-0.022v-35.588c0-2.484-2.014-4.498-4.498-4.498s-4.498,2.014-4.498,4.498v34.157
				c-11.498-3.499-21.366-13.35-21.366-28.848V206.24c0-27.501,10.434-39.765,33.83-39.765h204.35
				c23.102,0,34.33,12.916,34.33,39.484V327.784z M227.23,220.498v-32.487c0-2.484-2.013-4.499-4.498-4.499
				s-4.498,2.015-4.498,4.499v33.03c-5.417,1.812-10.888,6.187-16.192,11.084v-33.019c0-2.484-2.014-4.498-4.499-4.498
				c-2.484,0-4.498,2.014-4.498,4.498v32.736c-5.975-5.714-12.168-10.712-18.292-11.828v-34.703c0-2.483-2.014-4.498-4.498-4.498
				s-4.498,2.015-4.498,4.498v35.273c-12.222,2.92-23.013,14.002-23.151,32.686c-0.058,7.755,5.515,17.167,17.038,28.778
				c11.671,11.758,33.293,28.466,37.998,28.466c4.89,0,27.015-17.663,37.586-28.313c11.727-11.816,17.399-21.344,17.342-29.128
				C252.419,232.845,239.932,222.412,227.23,220.498z M197.631,301.116c-9.269-5.089-46.135-33.749-46.03-47.778
				c0.125-16.878,10.829-24.565,20.818-24.565c4.904,0.024,13.856,8.958,17.678,12.772c3.816,3.809,5.101,5.092,7.466,5.092
				c2.305,0,3.575-1.223,7.35-4.853c4.265-4.103,13.141-12.638,18.476-12.638c9.959,0.231,20.063,7.74,20.184,23.995
				C243.678,267.165,206.883,295.986,197.631,301.116z"/>
		</g>
	</g>
	<g id="&#x424;&#x438;&#x433;&#x443;&#x440;&#x430;_440_2_">
		<g>
			<path style="fill-rule:evenodd;clip-rule:evenodd;fill:#E6B2D3;" d="M357.863,131.193H153.512
				c-25.396,0-38.328,13.922-38.328,44.263v121.199c0,21.282,16.639,34.798,35.36,34.798c24.711,0,24.542,0,62.723,0l43.982,43.981
				l43.98-43.981c36.419,0,33.174,0,57.477,0c20.282,0,37.983-7.694,37.983-34.454V175.175
				C396.69,145.521,383.238,131.193,357.863,131.193z M197.829,275.233c-2.758,0-50.681-33.696-50.538-52.713
				c0.14-18.871,12.423-29.094,25.338-29.03c9.601,0.047,23.422,17.863,25.123,17.863s15.958-17.718,25.93-17.487
				c12.602,0.292,24.44,10.047,24.577,28.458C248.4,241.212,200.586,275.233,197.829,275.233z"/>
		</g>
	</g>
	<g id="&#x424;&#x438;&#x433;&#x443;&#x440;&#x430;_441_2_">
		<g>
			<path style="fill-rule:evenodd;clip-rule:evenodd;fill:#ED6A60;" d="M223.682,193.866c-9.972-0.23-24.23,17.487-25.93,17.487
				s-15.522-17.816-25.123-17.863c-12.916-0.063-25.198,10.159-25.338,29.03c-0.143,19.017,47.78,52.713,50.538,52.713
				s50.572-34.021,50.43-52.909C248.122,203.913,236.283,194.158,223.682,193.866z"/>
		</g>
	</g>
	<g id="&#x417;&#x430;&#x43B;&#x438;&#x432;&#x43A;&#x430;_&#x446;&#x432;&#x435;&#x442;&#x43E;&#x43C;_237">
		<g>
			<path style="fill-rule:evenodd;clip-rule:evenodd;fill:#885175;" d="M357.675,126.117h-204.35
				c-28.417,0-42.826,16.405-42.826,48.761v121.198c0,22.402,17.135,39.297,39.858,39.297h60.86l42.665,42.664
				c0.844,0.844,1.987,1.318,3.181,1.318s2.337-0.475,3.18-1.318l42.664-42.664h55.612c27.396,0,42.483-13.833,42.483-38.951
				V174.598C401.002,134.528,377.44,126.117,357.675,126.117z M392.005,296.422c0,20.156-10.953,29.955-33.486,29.955h-57.476
				c-1.193,0-2.337,0.475-3.18,1.317l-40.801,40.802l-40.802-40.802c-0.844-0.843-1.987-1.317-3.18-1.317h-62.723
				c-14.961,0-30.862-10.62-30.862-30.301V174.878c0-27.501,10.434-39.765,33.83-39.765h204.35c23.102,0,34.33,12.916,34.33,39.484
				V296.422z M223.598,188.791l-0.297-0.003c-8.184,0-16.651,7.484-24.623,15.15c-0.343,0.329-0.71,0.683-1.07,1.026
				c-0.387-0.383-0.784-0.78-1.154-1.149c-7.787-7.771-16.054-15.362-24.131-15.401c-14.644,0-29.553,11.506-29.716,33.494
				c-0.058,7.755,5.515,17.167,17.038,28.778c11.671,11.758,33.293,28.466,37.998,28.466c4.89,0,27.015-17.663,37.586-28.313
				c11.727-11.816,17.399-21.344,17.342-29.128C252.405,199.551,237.436,189.112,223.598,188.791z M197.631,269.754
				c-9.269-5.089-46.135-33.749-46.03-47.778c0.125-16.878,10.829-24.565,20.818-24.565c4.904,0.024,13.856,8.959,17.678,12.772
				c3.816,3.809,5.101,5.092,7.466,5.092c2.305,0,3.575-1.223,7.35-4.853c4.265-4.103,13.141-12.638,18.476-12.637
				c9.959,0.23,20.063,7.739,20.184,23.994C243.678,235.803,206.883,264.624,197.631,269.754z"/>
		</g>
	</g>
	<g id="_x31_k_&#x43A;&#x43E;&#x43F;&#x438;&#x44F;">
		<g>
			<path style="fill-rule:evenodd;clip-rule:evenodd;fill:#8B5378;" d="M354.384,253.089l-15.491-19.837l15.396-17.381
				c0.756-0.755,1.29-1.637,1.605-2.645c0.314-1.007,0.473-2.046,0.473-3.117c0-2.645-0.835-4.832-2.503-6.565
				c-1.669-1.73-4.015-2.598-7.038-2.598c-1.638,0-3.008,0.253-4.108,0.756c-1.103,0.505-2.095,1.417-2.976,2.739l-15.02,21.254
				v-15.681c0-2.896-0.913-5.132-2.738-6.706c-1.828-1.573-3.968-2.362-6.424-2.362c-2.52,0-4.676,0.789-6.471,2.362
				c-1.795,1.574-2.691,3.811-2.691,6.706v48.931c0,3.022,0.896,5.306,2.691,6.849c1.795,1.544,3.951,2.313,6.471,2.313
				c2.456,0,4.596-0.77,6.424-2.313c1.825-1.543,2.738-3.826,2.738-6.849v-15.681l15.209,21.254
				c0.881,1.261,1.936,2.173,3.164,2.739s2.534,0.85,3.92,0.85c2.834,0,5.132-0.833,6.896-2.503c1.763-1.668,2.646-3.92,2.646-6.754
				C356.557,256.836,355.832,254.916,354.384,253.089z M290.96,200.663c-2.722,0-5.349,1.261-7.88,3.778l-12.576,12.375
				c-1.072,1.071-1.859,2.235-2.361,3.495c-0.506,1.26-0.756,2.55-0.756,3.872c0,1.197,0.203,2.347,0.613,3.448
				c0.409,1.103,0.992,2.063,1.748,2.881c0.756,0.819,1.652,1.48,2.691,1.983c1.039,0.505,2.188,0.756,3.448,0.756
				c1.573,0,3.117-0.378,4.628-1.134v26.827c0,2.961,0.917,5.228,2.753,6.801c1.837,1.575,3.957,2.361,6.362,2.361
				c2.531,0,4.7-0.77,6.504-2.313c1.803-1.543,2.707-3.826,2.707-6.849v-48.08c0-3.212-0.713-5.715-2.138-7.51
				S293.365,200.663,290.96,200.663z"/>
		</g>
	</g>
</g>
</svg>
