<?xml version="1.0" encoding="iso-8859-1"?>
<!-- Generator: Adobe Illustrator 15.0.0, SVG Export Plug-In . SVG Version: 6.00 Build 0)  -->
<!DOCTYPE svg PUBLIC "-//W3C//DTD SVG 1.1//EN" "http://www.w3.org/Graphics/SVG/1.1/DTD/svg11.dtd" [
	<!ENTITY ns_extend "http://ns.adobe.com/Extensibility/1.0/">
	<!ENTITY ns_ai "http://ns.adobe.com/AdobeIllustrator/10.0/">
	<!ENTITY ns_graphs "http://ns.adobe.com/Graphs/1.0/">
	<!ENTITY ns_vars "http://ns.adobe.com/Variables/1.0/">
	<!ENTITY ns_imrep "http://ns.adobe.com/ImageReplacement/1.0/">
	<!ENTITY ns_sfw "http://ns.adobe.com/SaveForWeb/1.0/">
	<!ENTITY ns_custom "http://ns.adobe.com/GenericCustomNamespace/1.0/">
	<!ENTITY ns_adobe_xpath "http://ns.adobe.com/XPath/1.0/">
]>
<svg version="1.1" xmlns:x="&ns_extend;" xmlns:i="&ns_ai;" xmlns:graph="&ns_graphs;"
	 xmlns="http://www.w3.org/2000/svg" xmlns:xlink="http://www.w3.org/1999/xlink" x="0px" y="0px" width="512px" height="512px"
	 viewBox="0 0 512 512" style="enable-background:new 0 0 512 512;" xml:space="preserve">
<metadata>
	<sfw  xmlns="&ns_sfw;">
		<slices></slices>
		<sliceSourceBounds  height="512" width="512" x="94" y="94" bottomLeftOrigin="true"></sliceSourceBounds>
	</sfw>
</metadata>
<g id="&#x438;&#x433;&#x440;&#x43E;&#x432;&#x44B;&#x435;_1_">
	<g id="&#x417;&#x430;&#x43B;&#x438;&#x432;&#x43A;&#x430;_&#x446;&#x432;&#x435;&#x442;&#x43E;&#x43C;_1">
		<g>
			<rect x="3.699" y="4.439" style="fill-rule:evenodd;clip-rule:evenodd;fill:#B17D7B;" width="503.121" height="503.121"/>
		</g>
	</g>
	<g id="&#x417;&#x430;&#x43B;&#x438;&#x432;&#x43A;&#x430;_&#x446;&#x432;&#x435;&#x442;&#x43E;&#x43C;_5">
		<g>
			<path style="fill-rule:evenodd;clip-rule:evenodd;fill:#F3D4C3;" d="M484.624,25.156l20.717-20.717H3.699l20.717,20.717H484.624z
				 M24.416,486.844L3.699,507.561h501.642l-20.717-20.717H24.416z"/>
		</g>
	</g>
	
		<g id="&#x417;&#x430;&#x43B;&#x438;&#x432;&#x43A;&#x430;_&#x446;&#x432;&#x435;&#x442;&#x43E;&#x43C;_1_&#x43A;&#x43E;&#x43F;&#x438;&#x44F;_2">
		<g>
			<radialGradient id="SVGID_1_" cx="256.7402" cy="256" r="228.0762" gradientUnits="userSpaceOnUse">
				<stop  offset="0" style="stop-color:#99708E"/>
				<stop  offset="0.2" style="stop-color:#956D8B"/>
				<stop  offset="0.4182" style="stop-color:#886080"/>
				<stop  offset="0.6121" style="stop-color:#734E6D"/>
				<stop  offset="0.7636" style="stop-color:#573A54"/>
				<stop  offset="0.897" style="stop-color:#40293F"/>
				<stop  offset="1" style="stop-color:#331F32"/>
			</radialGradient>
			<polygon style="fill-rule:evenodd;clip-rule:evenodd;fill:url(#SVGID_1_);" points="432.765,27.924 78.856,27.924 28.664,78.116 
				28.664,435.769 76.972,484.076 433.367,484.076 484.816,432.627 484.816,79.976 			"/>
		</g>
	</g>
	
		<g id="&#x417;&#x430;&#x43B;&#x438;&#x432;&#x43A;&#x430;_&#x446;&#x432;&#x435;&#x442;&#x43E;&#x43C;_1_&#x43A;&#x43E;&#x43F;&#x438;&#x44F;">
		<g>
			<path style="fill-rule:evenodd;clip-rule:evenodd;fill:#F2D2C0;" d="M25.109,24.37v463.26h463.26V24.37H25.109z M466.659,418.566
				l-47.353,47.353H91.283l-44.462-44.462V92.277l46.196-46.196h325.734l47.908,47.907V418.566z"/>
		</g>
	</g>
	<g id="&#x424;&#x438;&#x433;&#x443;&#x440;&#x430;_3">
		<g>
			<path style="fill-rule:evenodd;clip-rule:evenodd;fill:#A18180;" d="M429.873,25.156l-344.047-1.48l-62.15,62.891v342.566
				l59.931,59.19l344.046-0.739l59.931-59.191V84.347L429.873,25.156z M477.226,423.954l-56.231,54.751H91.006l-56.231-54.751
				V88.046l54.012-54.012h334.428l54.751,56.231L477.226,423.954z"/>
		</g>
	</g>
	<g id="&#x417;&#x430;&#x43B;&#x438;&#x432;&#x43A;&#x430;_&#x446;&#x432;&#x435;&#x442;&#x43E;&#x43C;_6">
		<g>
			<path style="fill-rule:evenodd;clip-rule:evenodd;fill:#C7907F;" d="M23.676,86.566l62.52-62.752l-62.52-0.139V86.566z
				 M487.584,23.63l-62.521,0.139l62.521,62.752V23.63z M22.196,488.37l62.521-0.139l-62.521-62.752V488.37z M425.803,488.971
				l62.521,0.139v-62.89L425.803,488.971z"/>
		</g>
	</g>
	
		<g id="&#x417;&#x430;&#x43B;&#x438;&#x432;&#x43A;&#x430;_&#x446;&#x432;&#x435;&#x442;&#x43E;&#x43C;_6_&#x43A;&#x43E;&#x43F;&#x438;&#x44F;">
		<g>
			<path style="fill-rule:evenodd;clip-rule:evenodd;fill:#FDECE7;" d="M54.694,55.434l31.502-31.619l-59.314,3.562L54.694,55.434z
				 M27.964,485.886l56.753,2.346L55.27,458.579L27.964,485.886z M485.117,26.582l-60.054-2.813l31.376,31.491L485.117,26.582z
				 M425.803,488.971l59.314-3.113l-28.158-28.158L425.803,488.971z"/>
		</g>
	</g>
	<g id="&#x424;&#x438;&#x433;&#x443;&#x440;&#x430;_1">
		<g>
			<path style="fill-rule:evenodd;clip-rule:evenodd;fill:#C7907F;" d="M34.774,487.769l0.093-9.156h-8.417L34.774,487.769z
				 M477.04,477.873l0.093,9.155l8.323-9.155H477.04z M476.393,25.804l-0.092,9.156h8.416L476.393,25.804z M26.451,34.96h8.417
				l-0.093-9.156L26.451,34.96z"/>
		</g>
	</g>
	<g id="&#x424;&#x438;&#x433;&#x443;&#x440;&#x430;_2">
		<g>
			<path style="fill-rule:evenodd;clip-rule:evenodd;fill:#FDECE7;" d="M22.597,480.813L9.026,497.72l-1.627,10.285l22.418-0.296
				l0.532-18.644l-3.492-6.957L22.597,480.813z M508.448,495.817l-18.855-14.581l-4.261,4.043l-3.068,4.209l2.646,16.529
				l23.688,1.353L508.448,495.817z M21.002,31.648l4.26-1.295l3.492-6.956L28.222,4.754L5.803,4.458l1.628,10.284L21.002,31.648z
				 M487.997,31.226l18.856-14.581l0.147-11.553l-23.687,1.353l-2.646,16.53l3.069,4.208L487.997,31.226z"/>
		</g>
	</g>
	<g id="&#x417;&#x430;&#x43B;&#x438;&#x432;&#x43A;&#x430;_&#x446;&#x432;&#x435;&#x442;&#x43E;&#x43C;_2">
		<g>
			<path style="fill-rule:evenodd;clip-rule:evenodd;fill:#2F181B;" d="M0,0v512h512V0H0z M503.121,503.121H8.878V8.879h494.243
				V503.121z"/>
		</g>
	</g>
	<g id="&#x417;&#x430;&#x43B;&#x438;&#x432;&#x43A;&#x430;_&#x446;&#x432;&#x435;&#x442;&#x43E;&#x43C;_3">
		<g>
			<path style="fill-rule:evenodd;clip-rule:evenodd;fill:#40292E;" d="M482.33,20.67H29.346l-9.369,9.369v397.468
				c-0.119,0.585-0.119,1.188,0,1.771v53.925l9.606,9.605h453.025l9.507-9.507V30.455L482.33,20.67z M28.855,34.183l4.633-4.634
				h40.974L28.855,75.156V34.183z M33.726,483.931l-4.871-4.871v-39.857l44.728,44.729H33.726z M483.237,479.158l-4.772,4.772
				H437.63l45.607-45.607V479.158z M483.237,425.769l-58.162,58.162H86.139l-57.283-57.283V87.711l58.162-58.162h338.058
				l58.162,58.162V425.769z M483.237,75.156L437.63,29.549h40.558l5.05,5.05V75.156z"/>
		</g>
	</g>
	
		<g id="&#x417;&#x430;&#x43B;&#x438;&#x432;&#x43A;&#x430;_&#x446;&#x432;&#x435;&#x442;&#x43E;&#x43C;_4_&#x43A;&#x43E;&#x43F;&#x438;&#x44F;" style="opacity:0.502;">
		<g>
			<path style="fill-rule:evenodd;clip-rule:evenodd;fill:#876867;" d="M465.59,92.913l-47.243-47.244
				c-0.685-0.685-1.612-1.068-2.579-1.068H94.545c-0.968,0-1.896,0.384-2.58,1.068L46.409,91.227
				c-0.684,0.684-1.069,1.611-1.069,2.579v324.619c0,0.968,0.385,1.896,1.069,2.579l43.847,43.847
				c0.684,0.684,1.612,1.068,2.579,1.068h323.479c0.968,0,1.896-0.385,2.579-1.068l46.696-46.696
				c0.685-0.685,1.069-1.612,1.069-2.58V95.493C466.659,94.525,466.274,93.598,465.59,92.913z M459.363,414.063l-44.56,44.56H94.346
				l-41.709-41.709V95.316l43.419-43.419h318.201l45.106,45.106V414.063z"/>
		</g>
	</g>
	<g id="&#x417;&#x430;&#x43B;&#x438;&#x432;&#x43A;&#x430;_&#x446;&#x432;&#x435;&#x442;&#x43E;&#x43C;_4">
		<g>
			<path style="fill-rule:evenodd;clip-rule:evenodd;fill:#40292E;" d="M468.534,90.633l-47.907-47.907
				c-0.693-0.694-1.635-1.084-2.615-1.084H92.277c-0.981,0-1.922,0.39-2.616,1.084L43.465,88.922
				c-0.693,0.693-1.083,1.635-1.083,2.615v329.18c0,0.981,0.39,1.922,1.083,2.615l44.463,44.463
				c0.694,0.693,1.634,1.084,2.615,1.084h328.023c0.981,0,1.922-0.391,2.615-1.084l47.353-47.353
				c0.694-0.694,1.084-1.635,1.084-2.616V93.248C469.618,92.268,469.229,91.326,468.534,90.633z M462.22,416.295l-45.186,45.185
				H92.075L49.78,419.185V93.07l44.029-44.03h322.67l45.74,45.741V416.295z"/>
		</g>
	</g>
</g>
<g id="&#x418;&#x437;&#x43E;&#x431;&#x440;&#x430;&#x436;&#x435;&#x43D;&#x438;&#x435;_xA0_199_1_">
	<g id="&#x424;&#x438;&#x433;&#x443;&#x440;&#x430;_43_&#x43A;&#x43E;&#x43F;&#x438;&#x44F;_2" style="opacity:0.502;">
		<g>
			<path style="fill-rule:evenodd;clip-rule:evenodd;fill:#331F32;" d="M448.187,257.047c-0.045-2.594-0.16-5.174-0.342-7.724
				c-0.362-5.1-0.99-10.077-1.848-14.816c-3.427-18.968-10.578-34.077-19.228-38.802c-10.568-5.717-70.633-22.674-122.086-35.282
				c-52.709-13.054-96.808-21.759-104.47-21.246c-15.387,1.264-42.439,19.957-50.535,47.329c-1.08,3.621-1.862,7.321-2.374,11.047
				c-0.256,1.862-0.445,3.731-0.569,5.6c-0.063,0.934-0.108,1.868-0.139,2.801c-0.031,0.933-0.045,1.864-0.045,2.794
				c0.004,6.873,0.849,13.636,2.372,19.923c-44.78,4.567-78.633,23.175-78.648,46.726c-0.293,12.723-0.015,23.233-0.028,45.037
				c-0.019,29.318,50.595,52.236,110.583,50.877c57.426-1.303,101.122-24.54,99.795-51.637c-0.165-6.088-0.48-13.312-0.833-20.303
				c19.958,6.928,39.873,13.904,56.339,19.853c2.313,0.832,4.553,1.641,6.716,2.422c-4.595,0.89-8.104,2.258-9.392,4.549
				c-5.156-2.235-12.414-3.237-20.112-3.309c-13.206-0.292-25.769,3.21-25.349,11.849c0.271,8.418,13.922,16.016,29.206,14.385
				c12.008-1.226,20.92-6.674,23.094-12.175c6.855,4.127,17.626,7.377,28.701,7.503c15.202,0.586,26.663-4.742,25.693-11.774
				c18.179-1.675,38.923-10.091,48.266-37.899c3.146-9.099,4.745-19.499,5.15-29.917
				C448.205,262.25,448.231,259.642,448.187,257.047z M280.8,360.468c-17.933,2.886-33.002,15.023-33.938,27.611
				c-0.135,12.892,16.914,27.473,37.725,27.684c21.542,0.521,38.822-16.164,35.637-32.444
				C317.316,367.17,298.964,358.037,280.8,360.468z"/>
		</g>
	</g>
	<g id="&#x424;&#x438;&#x433;&#x443;&#x440;&#x430;_43">
		<g>
			<path style="fill-rule:evenodd;clip-rule:evenodd;fill:#D4C0CF;" d="M409.853,203.935c-15.701-9.127-180.448-56.23-195.643-56.23
				c-15.195,0-42.667,16.697-49.763,44.472c-7.443,29.137,6.021,64.368,23.657,71.344c9.009,3.563,53.613,16.232,94.837,27.612
				c39.471,10.896,76.785,20.763,82.82,20.597c14.642-0.403,43.116-6.358,54.722-34.859
				C431.24,250.452,422.822,211.474,409.853,203.935z"/>
		</g>
	</g>
	<g id="&#x424;&#x438;&#x433;&#x443;&#x440;&#x430;_43_&#x43A;&#x43E;&#x43F;&#x438;&#x44F;">
		<g>
			<path style="fill-rule:evenodd;clip-rule:evenodd;fill:#8F47CD;" d="M258.69,212.888c8.495-24.335,29.878-36.483,46.413-42.413
				c-42.707-12.139-83.676-22.771-90.894-22.771c-15.195,0-42.667,16.697-49.763,44.472c-7.443,29.137,6.021,64.368,23.657,71.344
				c8.942,3.536,52.947,16.043,93.91,27.356C267.154,275.509,246.846,246.82,258.69,212.888z"/>
		</g>
	</g>
	<g id="&#x424;&#x438;&#x433;&#x443;&#x440;&#x430;_49">
		<g>
			<path style="fill-rule:evenodd;clip-rule:evenodd;fill:#D46BF0;" d="M210.523,180.071c-14.793-3.19-19.488,14.251-7.722,17.387
				c27.079,7.216,44.203,11.849,55.536,13.044c1.411-4.318,6.385-9.04,8.312-15.303
				C252.888,189.716,235.921,185.548,210.523,180.071z"/>
		</g>
	</g>
	<g id="&#x424;&#x438;&#x433;&#x443;&#x440;&#x430;_48">
		<g>
			<path style="fill-rule:evenodd;clip-rule:evenodd;fill:#622E8A;" d="M254.862,237.463c0,0-19.936-5.881-53.664-15.048
				c-14.801-4.022-23.771-15.613-16.482-33.882c7.729-19.971,22.382-22.573,41.578-17.736c36.502,9.197,49.288,13.521,51.994,14.488
				c8.626-7.094,18.351-11.775,26.815-14.811c-42.707-12.139-83.676-22.771-90.894-22.771c-15.195,0-42.667,16.697-49.763,44.472
				c-7.443,29.137,6.021,64.368,23.657,71.344c8.942,3.536,52.947,16.043,93.91,27.356
				C249.166,253.714,254.862,237.463,254.862,237.463z"/>
		</g>
	</g>
	<g id="&#x424;&#x438;&#x433;&#x443;&#x440;&#x430;_50">
		<g>
			<path style="fill-rule:evenodd;clip-rule:evenodd;fill:#4C2667;" d="M268.183,274.528c-8.956-12.683-15.064-28.098-15.064-28.098
				s-32.791-8.413-59.928-16.906c-25.259-7.905-29.499-34.01-29.499-34.01s-4.758,25.866,3.847,42.358
				c5.895,11.297,14.835,22.109,14.835,22.109l102.829,31.884C285.203,291.866,274.962,284.13,268.183,274.528z"/>
		</g>
	</g>
	<g id="&#x424;&#x438;&#x433;&#x443;&#x440;&#x430;_51">
		<g>
			<path style="fill-rule:evenodd;clip-rule:evenodd;fill:#8A45CB;" d="M210.85,147.227c-20.327,2.74-30.866,19.492-30.866,19.492
				s27.786-13.053,40.422-9.524c34.77,9.708,74.114,18.492,74.114,18.492l17.536-3.886
				C312.056,171.801,219.821,146.018,210.85,147.227z"/>
		</g>
	</g>
	<g id="&#x424;&#x438;&#x433;&#x443;&#x440;&#x430;_54">
		<g>
			<path style="fill-rule:evenodd;clip-rule:evenodd;fill:#DDAAEC;" d="M410.151,206.658c0,0-35.626-8.272-50.622,34.772
				c-19.551,56.114,15.897,71.609,15.897,71.609s35.085-5.461,48.735-44.47C437.813,229.562,410.151,206.658,410.151,206.658z"/>
		</g>
	</g>
	<g id="&#x424;&#x438;&#x433;&#x443;&#x440;&#x430;_52" style="opacity:0.502;">
		<g>
			<path style="fill-rule:evenodd;clip-rule:evenodd;fill:#BF77EF;" d="M372.917,276.443
				c-50.481-5.661-118.005-30.013-118.005-30.013s0.698,6.847,7.037,18.213c5.078,9.106,9.504,13.522,9.504,13.522
				s30.289,6.63,51.512,12.41c28.054,7.642,59.441,15.706,63.291,15.085c27.051-4.366,39.239-40.1,39.239-40.1
				S399.733,279.451,372.917,276.443z M424.051,239.257c0,0-5.541-25.646-22.219-31.924c-31.515-11.865-98.195-29.803-98.195-29.803
				s-16.641-1.146-23.217,6.726c0,0,67.825,17.513,110.241,31.573C408.832,221.853,424.051,239.257,424.051,239.257z"/>
		</g>
	</g>
	<g id="&#x424;&#x438;&#x433;&#x443;&#x440;&#x430;_53">
		<g>
			<path style="fill-rule:evenodd;clip-rule:evenodd;fill:#DE6DFF;" d="M406.364,200.995c-10.86,11.359,15.242,22.73,5.476,60.648
				c-12.104,44.084-48.42,38.892-41.495,50.4c4.136,0.548,39.08-0.902,53.328-41.506
				C437.922,229.936,414.386,205.18,406.364,200.995z"/>
		</g>
	</g>
	<g id="&#x424;&#x438;&#x433;&#x443;&#x440;&#x430;_56" style="opacity:0.502;">
		<g>
			<polygon style="fill-rule:evenodd;clip-rule:evenodd;fill:#F3EAF3;" points="268.463,196.213 258.6,211.357 360.032,237.264 
				367.505,222.518 			"/>
		</g>
	</g>
	<g id="&#x424;&#x438;&#x433;&#x443;&#x440;&#x430;_55">
		<g>
			<path style="fill-rule:evenodd;clip-rule:evenodd;fill:#F5E1F5;" d="M377.636,216.561c-2.679-0.802-14.567-1.604-22.671,17.35
				c-7.676,17.951-2.109,30.469,0.881,31.767c4.786,2.077,3.883-9.012,11.043-25.777
				C375.723,219.212,382.05,217.881,377.636,216.561z M277.764,185.982c-3.986,2.989-14.717,13.757-20.319,29.829
				c-2.268,6.505-4.359,16.122-2.167,23.13c1.561,15.843,9.453,10.875,9.254,4.054c-0.315-10.893,0.952-17.978,4.554-26.695
				c5.299-12.823,10.523-17.463,19.752-24.886C297.006,184.847,287.063,178.41,277.764,185.982z"/>
		</g>
	</g>
	<g id="&#x417;&#x430;&#x43B;&#x438;&#x432;&#x43A;&#x430;_&#x446;&#x432;&#x435;&#x442;&#x43E;&#x43C;_37">
		<g>
			<path style="fill-rule:evenodd;clip-rule:evenodd;fill:#522974;" d="M400.295,194.18
				c-17.896-6.588-169.769-50.763-185.861-50.763c-16.689,0-45.812,19.101-53.458,49.031c-7.55,29.556,5.03,65.298,25.887,73.546
				c18.672,7.385,163.625,46.815,175.604,49.364c1.893,0.403,4.067,0.607,6.467,0.607c15.585,0,47.851-9.396,58.425-44.955
				C438.078,234.96,422.019,202.179,400.295,194.18z M189.794,258.581c-15.326-6.062-28.07-36.856-21.095-64.16
				c6.609-25.869,31.903-43.032,45.734-43.032c6.621,0,44.375,9.885,84.064,20.967c-15.701,3.846-35.602,14.803-45.063,44.723
				c-9.607,30.387,5.127,53.014,16.771,65.238C233.185,271.972,197.714,261.714,189.794,258.581z M419.717,268.737
				c-9.234,31.052-37.257,39.257-50.784,39.257c-1.815,0-3.478-0.149-4.808-0.433c-7.197-1.531-40.682-10.494-76.541-20.414
				c-0.3-0.481-0.697-0.912-1.207-1.24c-0.385-0.249-38.331-25.343-25.341-66.426c14.741-46.624,56.638-41.145,58.427-40.887
				c0.381,0.057,0.752,0.038,1.115-0.012c35.867,10.219,68.86,20.095,76.961,23.077
				C415.876,208.411,429.162,236.976,419.717,268.737z"/>
		</g>
	</g>
	<g id="&#x424;&#x438;&#x433;&#x443;&#x440;&#x430;_44_&#x43A;&#x43E;&#x43F;&#x438;&#x44F;">
		<g>
			<path style="fill-rule:evenodd;clip-rule:evenodd;fill:#D3B2E9;" d="M268.463,283.422c0-7.647-3.789-14.844-10.463-21.123
				c-1.334-1.256-2.784-2.475-4.341-3.653c-1.558-1.179-3.224-2.317-4.99-3.411c-3.534-2.189-7.47-4.201-11.751-6.008
				c-2.141-0.903-4.368-1.755-6.673-2.551c-8.071-2.787-17.109-4.898-26.803-6.173c-6.924-0.911-14.184-1.396-21.664-1.396
				c-47.876,0-86.687,19.841-86.687,44.314c-0.219,10.894,0,19.841,0,38.262c0,24.475,38.811,44.315,86.687,44.315
				c47.875,0,86.686-19.841,86.686-44.315C268.723,309.636,268.583,292.569,268.463,283.422z"/>
		</g>
	</g>
	<g id="&#x424;&#x438;&#x433;&#x443;&#x440;&#x430;_44">
		<g>
			<ellipse style="fill-rule:evenodd;clip-rule:evenodd;fill:#D4C0CF;" cx="181.777" cy="283.422" rx="86.687" ry="44.315"/>
		</g>
	</g>
	<g id="&#x424;&#x438;&#x433;&#x443;&#x440;&#x430;_59">
		<g>
			<path style="fill-rule:evenodd;clip-rule:evenodd;fill:#BD8BDE;" d="M104.08,304.588c-0.066-0.062-0.101-0.073-0.101-0.073
				L104.08,304.588z M118.705,315.332l-14.625-10.744c0.437,0.413,2.278,3.111,4.853,20.263c1.323,8.813-6.802,11.888-6.802,11.888
				l1.433,4.44l19.724,14.557c0,0-8.806-12.479-9.123-24.04C113.906,322.219,118.705,315.332,118.705,315.332z M268.443,283.789
				c-0.055-21.035-26.285-33.372-26.285-33.372s17.559,17.281,14.832,35.35c-2.316,15.348-25.194,24.434-25.194,24.434l1.594,7.174
				c0,0,12.772-3.494,22.899-11.528c-4.158,3.568-9.336,7.333-15.204,10.128c-18.071,8.605-41.174,10.966-41.174,10.966
				s9.276,10.388,9.561,19.675c0.34,11.078-16.038,21.078-16.038,21.078s29.308-3.839,50.21-13.932
				c8.42-4.065,14.602-11.109,18.438-16.568c-2.112-0.833-8.632-3.991-8.632-11.315c0-8.802,3.687-18.732,3.687-18.732l9.333-9.565
				l0.305,18.921l0.094-21.445c0,0-2.15,2.763-5.875,6.452C265.355,296.79,268.463,290.933,268.443,283.789z"/>
		</g>
	</g>
	
		<g id="&#x418;&#x437;&#x43E;&#x431;&#x440;&#x430;&#x436;&#x435;&#x43D;&#x438;&#x435;_xA0_180" style="display:none;opacity:0.502;">
		<g style="display:inline;">
			<path style="fill-rule:evenodd;clip-rule:evenodd;fill:#F0DDF0;" d="M158.686,294.334
				c-28.886-14.736-41.708-39.782-41.708-39.782l-13.866,10.811c0,0,34.536,18.801,55.813,34.831
				c20.559,15.488,27.884,28.225,27.884,28.225s8.575,1.318,21.833-2.732c15.818-4.833,19.168-4.99,19.168-4.99
				S189.458,310.032,158.686,294.334z"/>
		</g>
	</g>
	<g id="&#x424;&#x438;&#x433;&#x443;&#x440;&#x430;_62" style="opacity:0.502;">
		<g>
			<path style="fill-rule:evenodd;clip-rule:evenodd;fill:#BD8BDE;" d="M133.285,248.357c0,0-23.259,7.53-32.768,20.118
				c-9.012,11.931-9.589,33.622,18.944,46.229c58.001,25.627,110.441,7.236,115.971-0.336c-24.91-3.654-52.978,3.784-93.151-18.009
				C100.903,273.913,133.285,248.357,133.285,248.357z M134.879,247.727l100.105,65.131
				C234.984,312.857,280.652,247.096,134.879,247.727z"/>
		</g>
	</g>
	<g id="&#x424;&#x438;&#x433;&#x443;&#x440;&#x430;_60">
		<g>
			<path style="fill-rule:evenodd;clip-rule:evenodd;fill:#F0DDF0;" d="M234.187,311.795l-105.219-62.176
				C138.732,289.525,234.187,311.795,234.187,311.795z M133.75,248.025l102.031,64.566
				C220.586,267.903,133.75,248.025,133.75,248.025z M133.991,308.868c-38.76-15.444-35.015-39.869-35.015-39.869
				s-23.685,29.328,36.604,52.255c3.801,1.445,7.757,2.609,11.802,3.535c2.568,4.313,7.113,13.188,6.391,20.987
				c-0.995,10.742-11.802,16.286-11.802,16.286s10.871,2.656,18.906,3.774c8.931,1.242,19.604,0.461,19.604,0.461
				s-15.055-7.738-14.407-19.097c0.647-11.359,15.901-19.314,15.901-19.314l-0.429-0.067c27.375-0.616,50.846-7.106,50.846-7.106
				S172.751,324.313,133.991,308.868z"/>
		</g>
	</g>
	<g id="&#x417;&#x430;&#x43B;&#x438;&#x432;&#x43A;&#x430;_&#x446;&#x432;&#x435;&#x442;&#x43E;&#x43C;_38">
		<g>
			<path style="fill-rule:evenodd;clip-rule:evenodd;fill:#8E6BA5;" d="M272.226,283.896c0-27.085-39.828-48.301-90.672-48.301
				s-90.672,21.216-90.671,48.22c-0.138,6.838-0.105,12.76-0.059,20.955c0.027,4.858,0.058,10.45,0.058,17.388
				c0,27.085,39.828,48.3,90.672,48.3s90.672-21.215,90.67-48.214C272.516,308.717,272.299,289.432,272.226,283.896z
				 M181.553,243.566c44.811,0,82.669,18.454,82.7,40.355c-0.016,11.15-9.898,21.41-25.516,28.79l0.009-1.212
				c0.011-1.413-0.729-2.728-1.943-3.451l-97.973-58.479C151.389,245.776,166.054,243.566,181.553,243.566z M129.176,252.961
				c0.214,0.205,0.448,0.396,0.714,0.554l100.868,60.209l-0.018,2.34c-13.855,5.102-30.944,8.161-49.187,8.161
				c-44.829,0-82.701-18.469-82.701-40.329C98.852,271.627,110.784,260.428,129.176,252.961z M264.254,322.157
				c0,21.86-37.872,40.329-82.701,40.329s-82.701-18.469-82.701-40.329c0-6.955-0.031-12.561-0.058-17.433
				c-0.001-0.271-0.003-0.522-0.004-0.79c14.043,16.81,45.42,28.262,82.764,28.262c37.416,0,68.843-11.497,82.845-28.359
				C264.406,310.007,264.373,316.567,264.254,322.157z"/>
		</g>
	</g>
	<g id="&#x424;&#x438;&#x433;&#x443;&#x440;&#x430;_45">
		<g>
			<circle style="fill-rule:evenodd;clip-rule:evenodd;fill:#4D279C;" cx="356.396" cy="313.787" r="25.109"/>
		</g>
	</g>
	<g id="&#x424;&#x438;&#x433;&#x443;&#x440;&#x430;_57">
		<g>
			<path style="fill-rule:evenodd;clip-rule:evenodd;fill:#5049EB;" d="M357.799,291.385c-10.992,0-17.877,9.135-17.877,18.642
				c0,9.506,7.814,17.877,18.807,17.877s18.939-8.637,18.939-18.143C377.668,300.254,368.791,291.385,357.799,291.385z"/>
		</g>
	</g>
	<g id="&#x424;&#x438;&#x433;&#x443;&#x440;&#x430;_58">
		<g>
			<ellipse style="fill-rule:evenodd;clip-rule:evenodd;fill:#D4C0CF;" cx="351.114" cy="307.752" rx="5.487" ry="5.637"/>
		</g>
	</g>
	<g id="&#x417;&#x430;&#x43B;&#x438;&#x432;&#x43A;&#x430;_&#x446;&#x432;&#x435;&#x442;&#x43E;&#x43C;_42">
		<g>
			<path style="fill-rule:evenodd;clip-rule:evenodd;fill:#7966DA;" d="M375.755,300.062c-12.604-17.288-32.562-7.627-32.781-5.595
				c43.854-0.781,30.609,34.347,18.175,42.976c-1.734,4.085,12.926-4.608,16.797-12.042
				C381.804,317.99,381.14,307.446,375.755,300.062z"/>
		</g>
	</g>
	<g id="&#x417;&#x430;&#x43B;&#x438;&#x432;&#x43A;&#x430;_&#x446;&#x432;&#x435;&#x442;&#x43E;&#x43C;_39">
		<g>
			<path style="fill-rule:evenodd;clip-rule:evenodd;fill:#3D2179;" d="M355.35,285.091c-16.044,0-29.096,13.052-29.096,29.095
				c0,16.044,13.052,29.096,29.096,29.096c16.043,0,29.095-13.052,29.095-29.096C384.444,298.143,371.393,285.091,355.35,285.091z
				 M355.35,335.31c-11.647,0-21.124-9.477-21.124-21.124c0-11.646,9.477-21.123,21.124-21.123c11.646,0,21.123,9.477,21.123,21.123
				C376.473,325.833,366.996,335.31,355.35,335.31z"/>
		</g>
	</g>
	<g id="&#x424;&#x438;&#x433;&#x443;&#x440;&#x430;_45_&#x43A;&#x43E;&#x43F;&#x438;&#x44F;">
		<g>
			<circle style="fill-rule:evenodd;clip-rule:evenodd;fill:#95279C;" cx="314.414" cy="320.164" r="22.303"/>
		</g>
	</g>
	<g id="&#x424;&#x438;&#x433;&#x443;&#x440;&#x430;_57_&#x43A;&#x43E;&#x43F;&#x438;&#x44F;">
		<g>
			<path style="fill-rule:evenodd;clip-rule:evenodd;fill:#E14499;" d="M315.66,300.266c-9.764,0-15.879,8.114-15.879,16.558
				c0,8.444,6.941,15.879,16.705,15.879s16.822-7.671,16.822-16.114C333.309,308.144,325.424,300.266,315.66,300.266z"/>
		</g>
	</g>
	<g id="&#x424;&#x438;&#x433;&#x443;&#x440;&#x430;_58_&#x43A;&#x43E;&#x43F;&#x438;&#x44F;">
		<g>
			<ellipse style="fill-rule:evenodd;clip-rule:evenodd;fill:#EEAAFD;" cx="309.723" cy="314.804" rx="4.873" ry="5.007"/>
		</g>
	</g>
	
		<g id="&#x417;&#x430;&#x43B;&#x438;&#x432;&#x43A;&#x430;_&#x446;&#x432;&#x435;&#x442;&#x43E;&#x43C;_42_&#x43A;&#x43E;&#x43F;&#x438;&#x44F;">
		<g>
			<path style="fill-rule:evenodd;clip-rule:evenodd;fill:#E98BDC;" d="M331.609,307.973c-11.195-15.355-28.922-6.774-29.117-4.969
				c38.952-0.695,27.188,30.507,16.143,38.171c-1.539,3.629,11.482-4.093,14.92-10.695
				C336.982,323.896,336.393,314.532,331.609,307.973z"/>
		</g>
	</g>
	<g id="&#x417;&#x430;&#x43B;&#x438;&#x432;&#x43A;&#x430;_&#x446;&#x432;&#x435;&#x442;&#x43E;&#x43C;_40">
		<g>
			<path style="fill-rule:evenodd;clip-rule:evenodd;fill:#A42B6D;" d="M313.102,293.511c-14.916,0-27.052,12.136-27.052,27.052
				c0,14.917,12.136,27.053,27.052,27.053s27.053-12.136,27.053-27.053C340.154,305.646,328.018,293.511,313.102,293.511z
				 M313.102,339.644c-10.521,0-19.08-8.56-19.08-19.081c0-10.521,8.559-19.08,19.08-19.08s19.082,8.56,19.082,19.08
				C332.184,331.084,323.623,339.644,313.102,339.644z"/>
		</g>
	</g>
	<g id="&#x424;&#x438;&#x433;&#x443;&#x440;&#x430;_45_&#x43A;&#x43E;&#x43F;&#x438;&#x44F;_2">
		<g>
			<circle style="fill-rule:evenodd;clip-rule:evenodd;fill:#E17F44;" cx="283.592" cy="377.557" r="27.534"/>
		</g>
	</g>
	<g id="&#x424;&#x438;&#x433;&#x443;&#x440;&#x430;_57_&#x43A;&#x43E;&#x43F;&#x438;&#x44F;_2">
		<g>
			<path style="fill-rule:evenodd;clip-rule:evenodd;fill:#E0BA4B;" d="M304.377,371.78c-0.533-9.221-9.4-17.312-20.018-17.082
				c-10.881,0.235-18.07,9.301-18.323,18.972c-0.265,10.098,8.062,18.816,19.842,18.063
				C297.35,390.998,304.932,381.391,304.377,371.78z"/>
		</g>
	</g>
	<g id="&#x424;&#x438;&#x433;&#x443;&#x440;&#x430;_58_&#x43A;&#x43E;&#x43F;&#x438;&#x44F;_2">
		<g>
			<ellipse style="fill-rule:evenodd;clip-rule:evenodd;fill:#F3DEBC;" cx="277.801" cy="370.939" rx="6.018" ry="6.181"/>
		</g>
	</g>
	
		<g id="&#x417;&#x430;&#x43B;&#x438;&#x432;&#x43A;&#x430;_&#x446;&#x432;&#x435;&#x442;&#x43E;&#x43C;_42_&#x43A;&#x43E;&#x43F;&#x438;&#x44F;_2">
		<g>
			<path style="fill-rule:evenodd;clip-rule:evenodd;fill:#EA8BFF;" d="M304.82,362.506c-13.82-18.957-35.705-8.363-35.945-6.135
				c48.088-0.857,33.564,37.662,19.929,47.124c-1.901,4.48,14.175-5.053,18.419-13.204
				C311.453,382.165,310.726,370.604,304.82,362.506z"/>
		</g>
	</g>
	<g id="&#x417;&#x430;&#x43B;&#x438;&#x432;&#x43A;&#x430;_&#x446;&#x432;&#x435;&#x442;&#x43E;&#x43C;_41">
		<g>
			<path style="fill-rule:evenodd;clip-rule:evenodd;fill:#A95024;" d="M282.812,346.669c-17.252,0-31.287,14.035-31.287,31.286
				c0,17.252,14.035,31.287,31.287,31.287c17.251,0,31.286-14.035,31.286-31.287C314.098,360.704,300.063,346.669,282.812,346.669z
				 M282.812,401.271c-12.856,0-23.315-10.459-23.315-23.316c0-12.856,10.459-23.315,23.315-23.315s23.315,10.459,23.315,23.315
				C306.127,390.813,295.668,401.271,282.812,401.271z"/>
		</g>
	</g>
</g>
</svg>
