<?xml version="1.0" encoding="iso-8859-1"?>
<!-- Generator: Adobe Illustrator 15.0.0, SVG Export Plug-In . SVG Version: 6.00 Build 0)  -->
<!DOCTYPE svg PUBLIC "-//W3C//DTD SVG 1.1//EN" "http://www.w3.org/Graphics/SVG/1.1/DTD/svg11.dtd" [
	<!ENTITY ns_extend "http://ns.adobe.com/Extensibility/1.0/">
	<!ENTITY ns_ai "http://ns.adobe.com/AdobeIllustrator/10.0/">
	<!ENTITY ns_graphs "http://ns.adobe.com/Graphs/1.0/">
	<!ENTITY ns_vars "http://ns.adobe.com/Variables/1.0/">
	<!ENTITY ns_imrep "http://ns.adobe.com/ImageReplacement/1.0/">
	<!ENTITY ns_sfw "http://ns.adobe.com/SaveForWeb/1.0/">
	<!ENTITY ns_custom "http://ns.adobe.com/GenericCustomNamespace/1.0/">
	<!ENTITY ns_adobe_xpath "http://ns.adobe.com/XPath/1.0/">
]>
<svg version="1.1" xmlns:x="&ns_extend;" xmlns:i="&ns_ai;" xmlns:graph="&ns_graphs;"
	 xmlns="http://www.w3.org/2000/svg" xmlns:xlink="http://www.w3.org/1999/xlink" x="0px" y="0px" width="512px" height="512px"
	 viewBox="0 0 512 512" style="enable-background:new 0 0 512 512;" xml:space="preserve">
<metadata>
	<sfw  xmlns="&ns_sfw;">
		<slices></slices>
		<sliceSourceBounds  height="512" width="512" x="94" y="94" bottomLeftOrigin="true"></sliceSourceBounds>
	</sfw>
</metadata>
<g id="&#x438;&#x433;&#x440;&#x43E;&#x432;&#x44B;&#x435;_1_">
	<g id="&#x417;&#x430;&#x43B;&#x438;&#x432;&#x43A;&#x430;_&#x446;&#x432;&#x435;&#x442;&#x43E;&#x43C;_1">
		<g>
			<rect x="3.699" y="4.439" style="fill-rule:evenodd;clip-rule:evenodd;fill:#B17D7B;" width="503.121" height="503.121"/>
		</g>
	</g>
	<g id="&#x417;&#x430;&#x43B;&#x438;&#x432;&#x43A;&#x430;_&#x446;&#x432;&#x435;&#x442;&#x43E;&#x43C;_5">
		<g>
			<path style="fill-rule:evenodd;clip-rule:evenodd;fill:#F3D4C3;" d="M484.624,25.156l20.717-20.717H3.699l20.717,20.717H484.624z
				 M24.416,486.844L3.699,507.561h501.642l-20.717-20.717H24.416z"/>
		</g>
	</g>
	
		<g id="&#x417;&#x430;&#x43B;&#x438;&#x432;&#x43A;&#x430;_&#x446;&#x432;&#x435;&#x442;&#x43E;&#x43C;_1_&#x43A;&#x43E;&#x43F;&#x438;&#x44F;_2">
		<g>
			<radialGradient id="SVGID_1_" cx="256.7402" cy="256" r="228.0762" gradientUnits="userSpaceOnUse">
				<stop  offset="0" style="stop-color:#99708E"/>
				<stop  offset="0.2" style="stop-color:#956D8B"/>
				<stop  offset="0.4182" style="stop-color:#886080"/>
				<stop  offset="0.6121" style="stop-color:#734E6D"/>
				<stop  offset="0.7636" style="stop-color:#573A54"/>
				<stop  offset="0.897" style="stop-color:#40293F"/>
				<stop  offset="1" style="stop-color:#331F32"/>
			</radialGradient>
			<polygon style="fill-rule:evenodd;clip-rule:evenodd;fill:url(#SVGID_1_);" points="432.765,27.924 78.856,27.924 28.664,78.116 
				28.664,435.769 76.972,484.076 433.367,484.076 484.816,432.627 484.816,79.976 			"/>
		</g>
	</g>
	
		<g id="&#x417;&#x430;&#x43B;&#x438;&#x432;&#x43A;&#x430;_&#x446;&#x432;&#x435;&#x442;&#x43E;&#x43C;_1_&#x43A;&#x43E;&#x43F;&#x438;&#x44F;">
		<g>
			<path style="fill-rule:evenodd;clip-rule:evenodd;fill:#F2D2C0;" d="M25.109,24.37v463.26h463.26V24.37H25.109z M466.659,418.566
				l-47.353,47.353H91.283l-44.462-44.462V92.277l46.196-46.196h325.734l47.908,47.907V418.566z"/>
		</g>
	</g>
	<g id="&#x424;&#x438;&#x433;&#x443;&#x440;&#x430;_3">
		<g>
			<path style="fill-rule:evenodd;clip-rule:evenodd;fill:#A18180;" d="M429.873,25.156l-344.047-1.48l-62.15,62.891v342.566
				l59.931,59.19l344.046-0.739l59.931-59.191V84.347L429.873,25.156z M477.226,423.954l-56.231,54.751H91.006l-56.231-54.751
				V88.046l54.012-54.012h334.428l54.751,56.231L477.226,423.954z"/>
		</g>
	</g>
	<g id="&#x417;&#x430;&#x43B;&#x438;&#x432;&#x43A;&#x430;_&#x446;&#x432;&#x435;&#x442;&#x43E;&#x43C;_6">
		<g>
			<path style="fill-rule:evenodd;clip-rule:evenodd;fill:#C7907F;" d="M23.676,86.566l62.52-62.752l-62.52-0.139V86.566z
				 M487.584,23.63l-62.521,0.139l62.521,62.752V23.63z M22.196,488.37l62.521-0.139l-62.521-62.752V488.37z M425.803,488.971
				l62.521,0.139v-62.89L425.803,488.971z"/>
		</g>
	</g>
	
		<g id="&#x417;&#x430;&#x43B;&#x438;&#x432;&#x43A;&#x430;_&#x446;&#x432;&#x435;&#x442;&#x43E;&#x43C;_6_&#x43A;&#x43E;&#x43F;&#x438;&#x44F;">
		<g>
			<path style="fill-rule:evenodd;clip-rule:evenodd;fill:#FDECE7;" d="M54.694,55.434l31.502-31.619l-59.314,3.562L54.694,55.434z
				 M27.964,485.886l56.753,2.346L55.27,458.579L27.964,485.886z M485.117,26.582l-60.054-2.813l31.376,31.491L485.117,26.582z
				 M425.803,488.971l59.314-3.113l-28.158-28.158L425.803,488.971z"/>
		</g>
	</g>
	<g id="&#x424;&#x438;&#x433;&#x443;&#x440;&#x430;_1">
		<g>
			<path style="fill-rule:evenodd;clip-rule:evenodd;fill:#C7907F;" d="M34.774,487.769l0.093-9.156h-8.417L34.774,487.769z
				 M477.04,477.873l0.093,9.155l8.323-9.155H477.04z M476.393,25.804l-0.092,9.156h8.416L476.393,25.804z M26.451,34.96h8.417
				l-0.093-9.156L26.451,34.96z"/>
		</g>
	</g>
	<g id="&#x424;&#x438;&#x433;&#x443;&#x440;&#x430;_2">
		<g>
			<path style="fill-rule:evenodd;clip-rule:evenodd;fill:#FDECE7;" d="M22.597,480.813L9.026,497.72l-1.627,10.285l22.418-0.296
				l0.532-18.644l-3.492-6.957L22.597,480.813z M508.448,495.817l-18.855-14.581l-4.261,4.043l-3.068,4.209l2.646,16.529
				l23.688,1.353L508.448,495.817z M21.002,31.648l4.26-1.295l3.492-6.956L28.222,4.754L5.803,4.458l1.628,10.284L21.002,31.648z
				 M487.997,31.226l18.856-14.581l0.147-11.553l-23.687,1.353l-2.646,16.53l3.069,4.208L487.997,31.226z"/>
		</g>
	</g>
	<g id="&#x417;&#x430;&#x43B;&#x438;&#x432;&#x43A;&#x430;_&#x446;&#x432;&#x435;&#x442;&#x43E;&#x43C;_2">
		<g>
			<path style="fill-rule:evenodd;clip-rule:evenodd;fill:#2F181B;" d="M0,0v512h512V0H0z M503.121,503.121H8.878V8.879h494.243
				V503.121z"/>
		</g>
	</g>
	<g id="&#x417;&#x430;&#x43B;&#x438;&#x432;&#x43A;&#x430;_&#x446;&#x432;&#x435;&#x442;&#x43E;&#x43C;_3">
		<g>
			<path style="fill-rule:evenodd;clip-rule:evenodd;fill:#40292E;" d="M482.33,20.67H29.346l-9.369,9.369v397.468
				c-0.119,0.585-0.119,1.188,0,1.771v53.925l9.606,9.605h453.025l9.507-9.507V30.455L482.33,20.67z M28.855,34.183l4.633-4.634
				h40.974L28.855,75.156V34.183z M33.726,483.931l-4.871-4.871v-39.857l44.728,44.729H33.726z M483.237,479.158l-4.772,4.772
				H437.63l45.607-45.607V479.158z M483.237,425.769l-58.162,58.162H86.139l-57.283-57.283V87.711l58.162-58.162h338.058
				l58.162,58.162V425.769z M483.237,75.156L437.63,29.549h40.558l5.05,5.05V75.156z"/>
		</g>
	</g>
	
		<g id="&#x417;&#x430;&#x43B;&#x438;&#x432;&#x43A;&#x430;_&#x446;&#x432;&#x435;&#x442;&#x43E;&#x43C;_4_&#x43A;&#x43E;&#x43F;&#x438;&#x44F;" style="opacity:0.502;">
		<g>
			<path style="fill-rule:evenodd;clip-rule:evenodd;fill:#876867;" d="M465.59,92.913l-47.243-47.244
				c-0.685-0.685-1.612-1.068-2.579-1.068H94.545c-0.968,0-1.896,0.384-2.58,1.068L46.409,91.227
				c-0.684,0.684-1.069,1.611-1.069,2.579v324.619c0,0.968,0.385,1.896,1.069,2.579l43.847,43.847
				c0.684,0.684,1.612,1.068,2.579,1.068h323.479c0.968,0,1.896-0.385,2.579-1.068l46.696-46.696
				c0.685-0.685,1.069-1.612,1.069-2.58V95.493C466.659,94.525,466.274,93.598,465.59,92.913z M459.363,414.063l-44.56,44.56H94.346
				l-41.709-41.709V95.316l43.419-43.419h318.201l45.106,45.106V414.063z"/>
		</g>
	</g>
	<g id="&#x417;&#x430;&#x43B;&#x438;&#x432;&#x43A;&#x430;_&#x446;&#x432;&#x435;&#x442;&#x43E;&#x43C;_4">
		<g>
			<path style="fill-rule:evenodd;clip-rule:evenodd;fill:#40292E;" d="M468.534,90.633l-47.907-47.907
				c-0.693-0.694-1.635-1.084-2.615-1.084H92.277c-0.981,0-1.922,0.39-2.616,1.084L43.465,88.922
				c-0.693,0.693-1.083,1.635-1.083,2.615v329.18c0,0.981,0.39,1.922,1.083,2.615l44.463,44.463
				c0.694,0.693,1.634,1.084,2.615,1.084h328.023c0.981,0,1.922-0.391,2.615-1.084l47.353-47.353
				c0.694-0.694,1.084-1.635,1.084-2.616V93.248C469.618,92.268,469.229,91.326,468.534,90.633z M462.22,416.295l-45.186,45.185
				H92.075L49.78,419.185V93.07l44.029-44.03h322.67l45.74,45.741V416.295z"/>
		</g>
	</g>
</g>
<g id="&#x43A;&#x430;&#x434;&#x443;&#x446;&#x435;&#x439;_1_">
	
		<g id="&#x417;&#x430;&#x43B;&#x438;&#x432;&#x43A;&#x430;_&#x446;&#x432;&#x435;&#x442;&#x43E;&#x43C;_43_&#x43A;&#x43E;&#x43F;&#x438;&#x44F;" style="opacity:0.502;">
		<g>
			<path style="fill-rule:evenodd;clip-rule:evenodd;fill:#331F32;" d="M444.7,174.55c-0.067,0.003-6.533,0.572-14.991,0.405
				c-5.371-0.109-10.346-0.502-14.763-1.193c-7.257-1.13-14.312-3.666-18.872-5.589c-0.163-0.202-0.327-0.404-0.49-0.607
				c1.699-2.122,3.396-4.233,5.088-6.331c-2.319-0.275-4.646-0.55-6.977-0.823c-0.145-0.03-16.191-1.894-28.706-5.846
				c-6.995-2.219-13.07-5.113-17.177-7.333c2.066-1.374,4.127-2.74,6.184-4.098c-2.173-1.079-4.35-2.164-6.529-3.255
				c-0.945-0.407-23.877-12.051-39.439-12.52c-7.959-0.212-13.029,2.608-15.047,8.23c-6.352,17.714-20.441,29.956-25.957,34.282
				c-0.232-9.496-0.394-15.134-0.393-15.125c6.545-7.686,13-15.449,19.377-23.256c0.592-3.523,1.178-7.07,1.759-10.643
				c-10.279-19.804-20.612-40.648-31.077-62.431c-8.513,21.712-17.329,42.546-26.514,62.502c1.131,3.976,2.257,7.921,3.38,11.835
				c6.486,7.616,12.975,15.15,19.47,22.566c-0.001-0.008,0.118,5.387,0.279,14.512c-5.828-4.344-20.377-16.382-27.87-34.138
				c-2.394-5.665-7.74-8.511-15.908-8.302c-15.899,0.446-39.294,12.277-40.318,12.709c-2.24,1.113-4.483,2.223-6.729,3.326
				c2.247,1.398,4.495,2.803,6.744,4.212c-4.212,2.271-10.492,5.246-17.889,7.54c-13.159,4.083-30.548,5.962-30.717,5.985
				c-2.53,0.273-5.06,0.546-7.589,0.817c2.012,2.305,4.024,4.622,6.039,6.949c-4.866,2.015-12.963,4.876-21.414,6.066
				c-4.883,0.692-10.42,1.061-16.443,1.107c-9.454,0.069-16.841-0.662-16.915-0.666c-2.638-0.262-5.274-0.521-7.906-0.777
				c1.305,2.024,2.608,4.063,3.912,6.115c0.447,0.618,10.637,16.683,29.282,23.896c10.297,3.936,22.211,5.187,30.89,5.439
				c-0.511,0.586-1.014,1.212-1.5,1.882c-9.293,12.79-19.85,18.39-19.937,18.455c-2.607,1.373-5.218,2.734-7.831,4.082
				c2.859,0.826,5.723,1.649,8.591,2.47c0.334,0.092,8.342,2.37,18.76,2.738c7.667,0.27,14.641-0.568,20.691-2.495
				c4.316-1.373,8.183-3.188,11.552-5.145c-4.273,6.02-9.532,11.305-9.593,11.365c-1.458,1.462-2.92,2.919-4.385,4.369
				c2.075,0.527,4.152,1.053,6.23,1.575c0.265,0.065,6.596,1.644,14.811,1.805c1.011,0.021,1.995-0.002,2.976-0.027
				c1.163,1.921,2.499,3.813,4.073,5.649c13.407,15.646,32.726,20.956,51.339,24.009c-4.121,8.834-4.964,21.374,1.833,33.919
				c3.22,5.939,7.78,10.762,12.835,14.919c-10.676,12.022-21.361,24.739-13.524,49.071c4.66,14.4,13.715,21.806,23.442,27.692
				c-0.33,0.266-0.658,0.51-0.989,0.78c-16.576,13.486-7.15,32.012-6.683,32.814c0.651,1.225,2.178,1.956,3.863,1.901
				c0.208-0.007,0.417-0.025,0.628-0.057c1.925-0.283,3.466-1.541,3.775-3.07c0.013-0.095,1.745-8.134,8.83-15.405
				c-0.474,13.381-0.802,22.2-0.857,23.85c-0.087,2.498,0.871,4.297,2.36,5.452c0.745,0.577,1.622,0.993,2.568,1.255
				c0.473,0.131,0.963,0.223,1.463,0.277c0.5,0.054,1.008,0.07,1.518,0.05c4.079-0.159,8.211-2.689,8.324-7.07
				c0.038-1.481,0.284-10.617,0.633-24.533c6.729,6.762,7.979,14.789,7.989,14.884c0.217,1.514,1.674,2.664,3.566,2.805
				c0.207,0.015,0.414,0.019,0.619,0.01c1.668-0.072,3.223-0.923,3.939-2.206c0.511-0.838,10.916-20.244-4.766-32.456
				c-0.312-0.244-0.623-0.464-0.936-0.701c9.957-6.67,19.227-14.823,24.41-29.545c8.67-24.829-1.304-36.586-11.41-47.821
				c5.072-4.472,9.628-9.559,12.881-15.624c6.864-12.81,6.189-25.051,2.26-33.541c18.063-3.944,36.399-10.019,48.881-25.559
				c1.476-1.838,2.724-3.717,3.804-5.617c1.145,0.012,2.303,0,3.491-0.062c7.629-0.4,13.43-2.071,13.674-2.141
				c1.908-0.554,3.812-1.106,5.708-1.659c-1.347-1.354-2.695-2.713-4.045-4.079c-0.055-0.055-4.843-4.915-8.854-10.568
				c3.101,1.742,6.654,3.354,10.612,4.574c5.563,1.719,11.926,2.381,18.849,2.003c9.407-0.517,16.516-2.738,16.815-2.828
				c2.553-0.802,5.093-1.601,7.621-2.396c-2.318-1.258-4.644-2.526-6.975-3.808c-0.088-0.072-9.427-5.171-18.099-17.361
				c-0.602-0.849-1.271-1.643-1.978-2.383c0.75-0.006,1.521-0.02,2.308-0.042c10.522-0.293,19.223-1.88,25.978-4.616
				c16.482-6.781,25.231-21.715,25.643-22.302c1.13-1.916,2.261-3.818,3.393-5.705C449.343,174.143,447.025,174.344,444.7,174.55z"
				/>
		</g>
	</g>
	<g id="&#x417;&#x430;&#x43B;&#x438;&#x432;&#x43A;&#x430;_&#x446;&#x432;&#x435;&#x442;&#x43E;&#x43C;_43">
		<g>
			<path style="fill-rule:evenodd;clip-rule:evenodd;fill:#A68293;" d="M222.808,126.782c-6.049-13.734-47.639,4.389-47.639,4.389
				l5.732,3.582c0,0-9.487,5.815-22.684,9.48c-12.583,3.496-28.906,4.851-28.906,4.851l4.299,5.015c0,0-11.816,5.911-24.899,7.733
				c-15.077,2.099-31.706,0.148-31.706,0.148s9.854,15.893,26.268,22.137c16.546,6.295,39.652,2.941,39.652,2.941
				s-7.275,3.104-10.876,8.839c-8.494,13.526-18.277,19.822-18.277,19.822s18.085,4.773,33.188-0.957
				c14.13-5.362,23.506-20.539,23.506-20.539s-2.588,8.885-7.299,17.56c-3.982,7.334-10.21,14.684-10.21,14.684
				s12.315,3.032,23.635-0.038c9.691-2.628,18.64-11.426,18.64-11.426s-3.806,6.447-3.806,15.047c0,6.998,3.806,16.479,3.806,16.479
				s5.51-5.113,9.603-10.848c3.441-4.821,7.907-10.289,7.907-10.289s-0.979,6.969,0.959,12.835c1.527,4.62,3.743,8.302,3.743,8.302
				s3.542-3.687,6.444-7.169c2.43-2.915,6.453-7.922,6.453-7.922s0.461,11.17,7.303,17.815c5.565,5.406,13.924,5.471,13.924,5.471
				l0.269-94.894C251.837,159.831,231.768,147.122,222.808,126.782z M407.142,161.832c-13.083-1.822-24.899-7.733-24.899-7.733
				l4.3-5.015c0,0-16.322-1.354-28.906-4.851c-13.196-3.665-22.683-9.48-22.683-9.48l5.731-3.582c0,0-41.589-18.123-47.639-4.389
				c-8.959,20.34-29.028,33.049-29.028,33.049l0.269,94.894c0,0,8.359-0.064,13.925-5.471c6.841-6.646,7.302-17.815,7.302-17.815
				s4.023,5.007,6.453,7.922c2.902,3.482,6.444,7.169,6.444,7.169s2.217-3.682,3.743-8.302c1.938-5.866,0.959-12.835,0.959-12.835
				s4.466,5.468,7.907,10.289c4.092,5.734,9.603,10.848,9.603,10.848s3.807-9.481,3.807-16.479c0-8.6-3.807-15.047-3.807-15.047
				s8.949,8.798,18.64,11.426c11.319,3.07,23.635,0.038,23.635,0.038s-6.228-7.35-10.21-14.684c-4.711-8.675-7.3-17.56-7.3-17.56
				s9.376,15.177,23.506,20.539c15.104,5.73,33.188,0.957,33.188,0.957s-9.783-6.296-18.277-19.822
				c-3.601-5.734-10.876-8.839-10.876-8.839s23.106,3.354,39.652-2.941c16.413-6.244,26.268-22.137,26.268-22.137
				S422.219,163.931,407.142,161.832z"/>
		</g>
	</g>
	<g id="&#x417;&#x430;&#x43B;&#x438;&#x432;&#x43A;&#x430;_&#x446;&#x432;&#x435;&#x442;&#x43E;&#x43C;_49">
		<g>
			<path style="fill-rule:evenodd;clip-rule:evenodd;fill:#E8D3C1;" d="M166.706,165.832c0,0-10.314-2.093-19.068-5.612
				c-8.506-3.421-15.459-8.271-15.459-8.271s-4.913,6.371-16.089,8.905c-14.388,3.262-35.858,2.873-35.858,2.873
				s20.487,9.734,40.504,10.719C144.158,175.599,166.706,165.832,166.706,165.832z M226.962,193.412
				c-1.369,2.364-11.467,19.808-12.761,30.644c-1.442,12.074,4.676,21.041,4.676,21.041s0.819-15.539,5.146-25.637
				c3.634-8.479,10.86-16.923,12.619-18.087C236.642,201.373,225.899,204.787,226.962,193.412z M232.339,141.606
				c-6.279-7.329-9.163-13.302-9.163-13.302s-9.395-5.071-11.186,1.825c-1.791,6.896,4.311,16.614,14.403,24.221
				c9.624,7.253,22.025,5.783,23.645,5.553c-0.823,2.989,1.531,9.284-3.705,11.597c-8.15,3.602-24.051-5.813-24.051-5.813
				l-0.561-0.341c-1.617-4.216-5.827-13.471-14.424-22.694c-6.714-7.203-27.112-9.331-27.112-9.331s-7.364,6.306-18.235,9.817
				c-12.324,3.982-27.204,5.966-27.204,5.966s11.957,6.499,30.4,6.154c19.839-0.371,30.442-1.58,30.442-1.58
				s-6.379,3.833-13.589,7.239c-6.582,3.11-11.98,2.542-11.98,2.542l-9.52,14.666c0,0,16.131-3.778,25.6-6.573
				c20.079-5.927,24.987-9.514,24.987-9.514c-0.824,2.959-3.204,6.271-16.336,14.119c-4.647,2.777-9.789,4.095-13.381,4.894
				l-17.038,0.366l-27.227,7.121l-18.23,25.713c0,0,15.374-4.687,30.314-12.499c8.955-4.684,19.384-11.622,25.925-16.151
				c-1.606,4.264-4.474,11.525-7.688,18.014c-5.973,12.057-12.946,22.675-12.946,22.675s13.096-5.512,24.302-16.35
				c11.857-11.468,23.545-20.426,35.929-24.915c11.943-4.33,38.072-8.166,34.952,7.34c-6.101,30.324-13.021,9.01-13.021,9.01
				c0.458,4.78,1.113,24.42,4.828,35.24c3.758,10.947,9.65,16.365,9.65,16.365l0.716-94.688
				C251.837,158.291,244.153,155.396,232.339,141.606z M214.578,185.626c0,0-10.235,13.131-19.493,29.089
				c-7.345,12.66,0.147,31.814,0.147,31.814s4.32-19.094,12.042-31.379c5.941-9.453,14.281-18.065,19.688-21.738
				C211.649,193.537,214.578,185.626,214.578,185.626z M352.463,180.297l-17.619,0.754c-3.594-0.799-8.734-2.116-13.382-4.894
				c-13.132-7.849-15.145-11.149-15.969-14.108c0,0,4.542,3.576,24.62,9.503C339.582,174.347,356,176.5,356,176.5l-9.807-13.041
				c0,0-3.865-0.003-10.776-2.292c-7.527-2.494-14.438-7.489-14.438-7.489s10.247,1.209,30.087,1.58
				c18.442,0.345,32.35-5.424,32.35-5.424s-16.829-2.713-29.153-6.696c-10.871-3.512-18.235-9.817-18.235-9.817
				s-20.398,2.128-27.112,9.331c-8.597,9.224-12.807,18.479-14.424,22.694l-0.561,0.341c0,0-15.53,8.749-23.681,5.147
				c-5.235-2.313-3.252-7.941-4.076-10.93c1.621,0.23,14.021,1.7,23.646-5.553c10.092-7.606,16.193-17.324,14.402-24.221
				s-11.186-1.825-11.186-1.825s-2.885,5.973-9.164,13.302c-11.813,13.79-19.497,16.685-19.497,16.685l0.716,94.688
				c0,0,5.893-5.418,9.65-16.365c3.715-10.82,3.94-28.243,4.398-33.023c-1.094,5.344-10.311,23.632-12.592-11.227
				c10.349-11.962,23.01-11.67,34.953-7.34c12.384,4.489,24.072,13.447,35.929,24.915c11.206,10.838,24.302,16.35,24.302,16.35
				s-6.973-10.618-12.945-22.675c-3.216-6.488-5.517-14.765-7.123-19.028c6.541,4.529,16.404,12.482,25.359,17.166
				c14.94,7.813,29.894,12.249,29.894,12.249l-17.809-25.463L352.463,180.297z M348.504,165.698c0,0,23.551,9.9,46.973,8.748
				c20.018-0.984,40.505-10.719,40.505-10.719s-21.471,0.389-35.858-2.873c-11.176-2.534-16.089-8.905-16.089-8.905
				s-6.953,4.85-15.46,8.271C359.821,163.739,348.504,165.698,348.504,165.698z M279.546,203.873
				c2.312,1.682,9.239,7.646,12.644,15.587c4.328,10.098,5.146,25.637,5.146,25.637s6.117-8.967,4.676-21.041
				c-1.293-10.836-6.563-24.285-7.933-26.649C293.351,210.521,282.41,205.745,279.546,203.873z M301.635,185.626
				c0,0-2.854,11.437-7.556,11.78c5.407,3.673,8.918,8.291,14.859,17.744c7.722,12.285,12.042,31.379,12.042,31.379
				s7.492-19.154,0.146-31.814C311.869,198.757,301.635,185.626,301.635,185.626z"/>
		</g>
	</g>
	<g id="&#x417;&#x430;&#x43B;&#x438;&#x432;&#x43A;&#x430;_&#x446;&#x432;&#x435;&#x442;&#x43E;&#x43C;_47">
		<g>
			<path style="fill-rule:evenodd;clip-rule:evenodd;fill:#765351;" d="M438.787,158.002c-0.068,0.008-6.923,0.8-15.675,0.8
				c-5.559,0-10.646-0.315-15.12-0.938c-7.353-1.024-14.336-3.433-18.818-5.226l-0.46-0.587l5.465-6.377l-6.983-0.581
				c-0.159-0.014-16.143-1.371-28.243-4.732c-6.78-1.884-12.581-4.377-16.485-6.276l6.241-3.901l-6.234-2.718
				c-0.921-0.4-22.729-9.829-37.633-9.829c-7.636,0-12.588,2.449-14.716,7.281c-8.395,19.056-27.477,31.347-27.668,31.466
				l-1.67,1.06l0.283,100.472l3.602-0.027c0.4-0.003,9.87-0.148,16.393-6.484c3.432-3.333,5.148-8.827,5.981-14.118
				c0.938,1.681,1.823,3.107,2.526,3.95c2.947,3.539,6.464,7.203,6.611,7.357l3.242,3.372l2.412-4.008
				c0.098-0.165,2.439-4.081,4.075-9.025c0.409-1.238,0.661-2.676,0.798-4.201c0.617,0.966,1.211,1.856,1.749,2.611
				c4.256,5.964,9.847,11.175,10.083,11.395l3.819,3.544l1.942-4.836c0.165-0.414,4.064-10.211,4.064-17.814
				c0-2.09-0.203-4.278-0.518-6.414c3.188,2.733,6.916,5.189,10.829,6.252c3.669,0.993,7.767,1.498,12.184,1.498
				c7.312,0,13.007-1.381,13.246-1.439l5.616-1.383l-3.739-4.412c-0.052-0.061-4.473-5.3-8.104-11.172
				c2.924,1.891,6.297,3.69,10.096,5.132c5.341,2.027,11.536,3.057,18.413,3.055c9.34,0,16.653-1.902,16.96-1.982l7.863-2.076
				l-6.839-4.401c-0.092-0.059-9.205-6.011-17.182-18.714c-0.554-0.883-1.178-1.71-1.843-2.481c0.747,0.015,1.517,0.022,2.305,0.022
				c10.525,0,19.46-1.368,26.553-4.067c17.347-6.6,27.61-22.906,28.04-23.597l3.913-6.312L438.787,158.002z M296.682,127.805
				c1.094-2.482,5.041-3.003,8.159-3.003c8.56,0,20.265,3.723,27.673,6.441c-3.453,0.451-6.748,1.064-10.096,1.877
				c-3.626,0.906-7.243,1.998-10.777,3.771c-1.755,0.91-3.52,1.977-5.088,3.601c-1.418,1.545-2.505,3.243-3.418,4.875
				c-1.827,3.311-3.215,6.61-4.755,9.824c-1.521,3.214-3.136,6.354-4.972,9.375c-0.914,1.498-1.886,3.021-2.896,4.412
				c-1.006,1.351-2.211,2.609-3.539,3.709c-2.667,2.207-5.854,3.831-9.219,4.935c-3.131,1.012-6.416,1.632-9.74,1.8l-0.051-18.11
				C273.137,157.689,288.824,145.645,296.682,127.805z M350.864,223.8c-3.782,0-7.25-0.421-10.308-1.249
				c-6.875-1.864-14.329-10.948-16.619-14.289l-15.467-22.634l9.132,25.851c0.035,0.101,3.601,10.285,3.601,18.15
				c0,3.089-0.869,6.831-1.748,9.821c-1.637-1.778-3.53-3.983-5.162-6.271c-3.273-4.586-9.051-15.209-9.107-15.315l-11.106-20.457
				l4.44,22.851c0.862,4.434,1.783,12.812,0.591,16.425c-0.378,1.143-0.805,2.227-1.225,3.199c-0.913-1.016-1.897-2.138-2.81-3.232
				c-1.46-1.754-5.4-9.795-7.734-14.946l-8.201-18.112l1.364,19.838c0.462,6.715-0.333,18.853-4.434,22.836
				c-2.372,2.304-5.476,3.419-7.856,3.956l-0.201-70.734c3.336,0.11,6.697-0.233,9.983-1.002c3.532-0.841,6.994-2.238,10.06-4.368
				c1.529-1.068,2.938-2.306,4.202-3.734c1.22-1.419,2.302-2.845,3.386-4.327c2.148-2.95,4.088-6.057,5.905-9.193
				c1.826-3.124,3.511-6.322,5.404-9.153c0.96-1.425,1.951-2.684,3.051-3.7c1.009-0.889,2.41-1.632,3.896-2.238
				c3.004-1.212,6.378-1.959,9.77-2.506c3.383-0.533,6.926-0.878,10.277-0.998l0.95-0.034c3.21,1.795,11.46,6.068,22.138,9.033
				c7.381,2.051,15.856,3.366,21.849,4.127c-1.148,0.851-2.342,1.68-3.529,2.457c-2.281,1.489-4.645,2.856-7.081,4.059
				c-4.865,2.392-10.064,4.179-15.403,4.534c-5.353,0.352-10.927-0.649-16.284-2.239c-5.368-1.621-10.623-3.806-15.606-6.523
				c4.665,3.248,9.686,6.019,14.978,8.271c2.919,1.219,5.943,2.275,9.073,3.036c0.571,1.06,1.163,2.101,1.78,3.12
				c0.871,1.429,1.765,2.839,2.702,4.21c0.82,1.227,1.67,2.427,2.531,3.616c-0.71,0.158-1.423,0.317-2.117,0.475
				c-2.282,0.517-4.562,1.038-6.854,1.461c-4.577,0.846-9.293,0.891-13.587-0.27c-4.331-1.196-8.624-3.529-12.633-6.225
				c-4.024-2.716-7.813-5.901-11.359-9.324l-0.554,0.455c2.893,4.105,6.266,7.835,9.98,11.304c1.863,1.731,3.855,3.347,5.998,4.81
				c2.136,1.455,4.438,2.807,6.978,3.776c3.983,1.496,8.12,2.028,12.218,2.157l3.624,14.521c0.05,0.201,1.286,5.029,6.157,14.002
				c2.067,3.804,4.673,7.568,6.789,10.41C354.98,223.664,352.996,223.8,350.864,223.8z M394.084,213.124
				c-2.249,0.26-4.877,0.456-7.691,0.456c-6.005,0.001-11.346-0.87-15.871-2.588c-12.897-4.895-20.352-14.815-20.42-14.908
				l-8.438-11.499c0.688,0.006,1.373,0.004,2.057-0.007c2.638-0.054,5.256-0.343,7.812-0.889c1.195-0.263,2.35-0.578,3.5-0.943
				l16.847,7.187c0.063,0.027,6.326,2.794,9.249,7.449C385.585,204.48,390.378,209.682,394.084,213.124z M411.663,180.348
				c-6.189,2.354-14.491,3.6-24.006,3.6c-7.84,0-13.8-0.847-13.858-0.854l-14.258-2.058l4.43-1.902l-3.566-3.39
				c-2.389-2.271-4.857-4.472-7.434-6.573c-1.276-1.063-2.596-2.085-3.936-3.089c-0.175-0.13-0.355-0.254-0.531-0.383
				c1.447,0.231,2.917,0.389,4.411,0.457c6.041,0.216,11.97-1.195,17.506-3.248c2.774-1.035,5.473-2.251,8.098-3.608
				c1.193-0.622,2.352-1.259,3.503-1.928c3.199,1.492,13.532,5.994,24.983,7.589c4.8,0.668,10.22,1.008,16.107,1.008
				c3.103,0,5.962-0.094,8.398-0.219C427.327,170.554,420.485,176.991,411.663,180.348z M226.444,124.917
				c-2.128-4.832-7.08-7.281-14.717-7.281c-14.904,0-36.711,9.429-37.632,9.829l-6.236,2.718l6.247,3.904
				c-3.896,1.895-9.687,4.384-16.49,6.273c-12.102,3.361-28.083,4.719-28.244,4.732l-6.984,0.581l5.725,6.679
				c-4.432,1.812-11.798,4.433-19.538,5.511c-4.474,0.623-9.562,0.938-15.121,0.938c-8.724,0-15.606-0.792-15.675-0.8l-7.372-0.861
				l3.912,6.308c0.428,0.69,10.692,16.997,28.038,23.597c9.577,3.643,20.431,4.576,28.303,4.674
				c-0.441,0.576-0.873,1.193-1.287,1.853c-7.917,12.607-17.097,18.66-17.183,18.714l-6.838,4.401l7.863,2.076
				c0.307,0.08,7.62,1.982,16.961,1.982c6.877,0,13.072-1.027,18.414-3.055c3.81-1.446,7.208-3.292,10.166-5.248
				c-3.638,5.907-8.124,11.228-8.175,11.289l-3.735,4.413l5.612,1.381c0.24,0.059,5.936,1.439,13.246,1.439
				c4.416,0,8.514-0.505,12.182-1.498c3.76-1.021,7.58-3.27,10.968-5.774c-0.402,1.958-0.654,3.972-0.654,5.937
				c0,7.604,3.898,17.4,4.064,17.814l1.942,4.836l3.819-3.544c0.236-0.22,5.827-5.431,10.083-11.395
				c0.542-0.758,1.175-1.688,1.86-2.72c0.063,1.582,0.272,3.058,0.687,4.31c1.634,4.944,3.977,8.861,4.076,9.025l2.412,4.007
				l3.241-3.371c0.149-0.154,3.664-3.818,6.614-7.358c0.695-0.834,1.539-2.266,2.422-3.966c0.928,5.356,2.71,10.859,6.083,14.135
				c6.52,6.336,15.993,6.481,16.393,6.484l3.601,0.027l0.284-100.472l-1.671-1.06C253.919,156.263,234.866,144.037,226.444,124.917z
				 M104.906,180.348c-8.785-3.342-15.636-9.787-19.832-14.598c2.434,0.124,5.287,0.218,8.382,0.218
				c5.888,0,11.309-0.34,16.108-1.008c13.511-1.882,25.504-7.826,26.008-8.078l0.206-0.103c0.712,0.419,1.43,0.832,2.16,1.24
				c2.595,1.437,5.258,2.753,8,3.911c5.474,2.289,11.314,4.063,17.438,4.236c1.654,0.022,3.281-0.09,4.883-0.296
				c-0.367,0.325-0.737,0.647-1.098,0.978c-1.212,1.118-2.402,2.252-3.543,3.421c-2.31,2.32-4.502,4.725-6.608,7.193l-3.016,3.535
				l3.802,1.394l-17.101,1.808c-0.034,0.003-3.499,0.362-8.603,0.362C124.744,184.562,114.061,183.831,104.906,180.348z
				 M146.048,210.992c-4.526,1.718-9.866,2.588-15.871,2.588c-2.816,0-5.443-0.196-7.692-0.456
				c3.706-3.442,8.499-8.644,12.957-15.742c2.875-4.579,6.924-6.278,6.938-6.284l19.101-7.47c1.597,0.464,3.171,0.822,4.814,1.08
				c2.538,0.374,5.119,0.478,7.7,0.367c0.068-0.004,0.136-0.009,0.205-0.013l-7.476,10.418
				C166.648,195.587,159.018,206.069,146.048,210.992z M248.354,250.22c-2.38-0.537-5.484-1.65-7.856-3.956
				c-4.127-4.009-5.154-16.626-4.833-23.638l0.977-21.253l-7.883,19.758c-2.557,6.408-5.973,13.966-7.265,15.517
				c-0.914,1.094-1.897,2.218-2.812,3.233c-0.419-0.973-0.847-2.057-1.223-3.197c-1.094-3.312,0.559-12.241,2.083-17.525
				l7.42-25.746l-13.923,22.892c-0.074,0.121-7.438,12.217-10.763,16.875c-1.632,2.288-3.525,4.493-5.163,6.271
				c-0.879-2.99-1.748-6.732-1.748-9.821c0-7.54,5.094-16.793,5.143-16.885l16.923-30.325l-22.758,26.232
				c-2.788,3.214-11.577,11.978-18.663,13.899c-3.057,0.828-6.524,1.249-10.307,1.249c-2.131,0-4.117-0.136-5.819-0.316
				c2.115-2.842,4.722-6.606,6.788-10.41c4.853-8.937,6.356-14.334,6.418-14.559l3.725-13.627c4.223-0.348,8.461-1.076,12.489-2.743
				c2.444-1.012,4.655-2.354,6.738-3.799c2.083-1.449,4.018-3.048,5.833-4.751c3.623-3.41,6.919-7.069,9.753-11.091
				c0.096-0.138,0.086-0.33-0.035-0.456c-0.139-0.143-0.365-0.146-0.508-0.01l-0.011,0.011c-3.474,3.354-7.179,6.478-11.112,9.156
				c-3.932,2.654-8.087,4.979-12.361,6.244c-4.23,1.262-8.84,1.504-13.372,0.932c-2.269-0.279-4.524-0.671-6.781-1.044
				c-0.731-0.118-1.483-0.238-2.23-0.357c0.744-1.3,1.473-2.611,2.171-3.945c0.771-1.44,1.496-2.915,2.198-4.407
				c0.49-1.054,0.954-2.126,1.396-3.214c3.356-0.679,6.589-1.759,9.673-3.052c5.352-2.29,10.367-5.213,14.932-8.684
				c-4.92,2.928-10.189,5.23-15.591,6.847c-5.39,1.592-11.033,2.42-16.357,1.77c-5.328-0.66-10.487-2.752-15.324-5.348
				c-3.113-1.69-6.16-3.659-9.034-5.763c5.844-0.785,13.514-2.049,20.25-3.92c10.677-2.965,18.927-7.238,22.137-9.033l0.951,0.034
				c3.35,0.12,6.894,0.465,10.276,0.998c3.392,0.547,6.766,1.294,9.771,2.506c1.485,0.606,2.886,1.35,3.895,2.238
				c1.1,1.017,2.09,2.275,3.05,3.7c1.894,2.831,3.579,6.029,5.405,9.153c1.818,3.137,3.756,6.243,5.906,9.193
				c1.083,1.482,2.165,2.908,3.385,4.327c1.264,1.429,2.673,2.666,4.203,3.734c3.065,2.13,6.527,3.527,10.059,4.368
				c3.285,0.769,6.647,1.112,9.982,1.002L248.354,250.22z M248.555,179.422c-3.324-0.168-6.61-0.788-9.739-1.8
				c-3.366-1.104-6.552-2.728-9.22-4.935c-1.328-1.1-2.533-2.358-3.539-3.709c-1.01-1.392-1.982-2.914-2.896-4.412
				c-1.836-3.021-3.451-6.161-4.972-9.375c-1.54-3.214-2.928-6.514-4.755-9.824c-0.913-1.632-2-3.33-3.417-4.875
				c-1.569-1.624-3.333-2.69-5.088-3.601c-3.534-1.773-7.151-2.865-10.777-3.771c-3.349-0.813-6.642-1.426-10.097-1.877
				c7.409-2.719,19.114-6.441,27.673-6.441c3.118,0,7.066,0.521,8.159,3.003c7.857,17.84,23.545,29.885,28.719,33.507
				L248.555,179.422z"/>
		</g>
	</g>
	<g id="&#x417;&#x430;&#x43B;&#x438;&#x432;&#x43A;&#x430;_&#x446;&#x432;&#x435;&#x442;&#x43E;&#x43C;_44">
		<g>
			<path style="fill-rule:evenodd;clip-rule:evenodd;fill:#C2835E;" d="M258.51,63.28l-27.308,49.308l2.901,9.939l17.734,19.48
				c0,0-0.717,282.308-0.717,292.696c0,10.39,13.479,9.673,13.479,0.583c0-9.091,0-293.727,0-293.727l19.032-20.063l2.066-8.985
				L258.51,63.28z"/>
		</g>
	</g>
	
		<g id="&#x417;&#x430;&#x43B;&#x438;&#x432;&#x43A;&#x430;_&#x446;&#x432;&#x435;&#x442;&#x43E;&#x43C;_44_&#x43A;&#x43E;&#x43F;&#x438;&#x44F;" style="opacity:0.502;">
		<g>
			<path style="fill-rule:evenodd;clip-rule:evenodd;fill:#7C3D6D;" d="M251.05,366.2c-0.089,36.717-0.153,63.983-0.153,67.079
				c0,10.39,13.479,9.673,13.479,0.583v-67.914c-2.152,0.396-4.588,0.695-7.031,0.695C255.208,366.644,253.059,366.464,251.05,366.2
				z M251.688,140.386l-0.074,0.197c0,0-0.014,5.25-0.036,14.292c2.115-1.114,4.568-1.932,7.18-1.876
				c1.842,0.039,3.75,0.419,5.619,0.992v-13.452L251.688,140.386z M251.412,220.328c-0.094,37.173-0.205,81.632-0.3,120.317
				c2.15-0.864,4.545-1.498,6.949-1.498c2.159,0,4.324,0.524,6.314,1.268V221.337c-1.828,0.58-3.723,0.938-5.612,0.92
				C256.235,222.232,253.721,221.445,251.412,220.328z"/>
		</g>
	</g>
	<g id="&#x424;&#x438;&#x433;&#x443;&#x440;&#x430;_66">
		<g>
			<polygon style="fill-rule:evenodd;clip-rule:evenodd;fill:#D49D7D;" points="248.236,121.784 252.195,140.342 263.893,140.539 
				268.03,121.426 			"/>
		</g>
	</g>
	<g id="&#x424;&#x438;&#x433;&#x443;&#x440;&#x430;_65">
		<g>
			<path style="fill-rule:evenodd;clip-rule:evenodd;fill:#9B6C90;" d="M246.388,111.869l-12.837-1.334l-0.776,11.127l21.898,20.436
				l-1.843-19.477L246.388,111.869z M271.332,112.403l-6.702,10.124l-3.194,18.868l21.211-20.018l1.672-10.22L271.332,112.403z"/>
		</g>
	</g>
	<g id="&#x424;&#x438;&#x433;&#x443;&#x440;&#x430;_64">
		<g>
			<polygon style="fill-rule:evenodd;clip-rule:evenodd;fill:#E9C59C;" points="258.285,90.568 246.388,111.869 252.83,122.621 
				264.63,122.527 271.332,112.403 			"/>
		</g>
	</g>
	<g id="&#x424;&#x438;&#x433;&#x443;&#x440;&#x430;_63">
		<g>
			<path style="fill-rule:evenodd;clip-rule:evenodd;fill:#E8D3C1;" d="M250.986,77.566l7.299,13.002l8.185-13.338l-8.251-13.502
				L250.986,77.566z M235.219,122.022l11.169-10.153l-16.241-1.672L235.219,122.022z M271.332,112.403l11.996,9.236l2.453-10.627
				L271.332,112.403z"/>
		</g>
	</g>
	<g id="&#x417;&#x430;&#x43B;&#x438;&#x432;&#x43A;&#x430;_&#x446;&#x432;&#x435;&#x442;&#x43E;&#x43C;_46">
		<g>
			<path style="fill-rule:evenodd;clip-rule:evenodd;fill:#724644;" d="M288.67,110.252L261.48,61.02
				c-0.629-1.141-1.83-1.85-3.133-1.851c-0.002,0-0.002,0-0.003,0c-1.303,0-2.502,0.708-3.134,1.847l-27.306,49.307
				c-0.463,0.836-0.574,1.822-0.305,2.739l2.901,9.94c0.153,0.523,0.423,1.006,0.79,1.408l16.796,18.451
				c-0.053,21.516-0.712,281.414-0.712,291.314c0,7.338,5.175,11.179,10.287,11.179c0,0,0,0,0.002,0
				c2.666,0,5.186-0.979,7.096-2.757c2.103-1.958,3.26-4.741,3.26-7.84V142.46l18.049-19.025c0.441-0.465,0.748-1.039,0.893-1.663
				l2.066-8.984C289.223,111.927,289.096,111.024,288.67,110.252z M280.195,119.212l-18.359,19.354
				c-0.631,0.666-0.982,1.548-0.982,2.466v293.727c0,1.118-0.33,1.991-0.979,2.596c-0.57,0.53-1.377,0.836-2.213,0.836h-0.002
				c-0.938,0-3.122-0.393-3.122-4.014c0-10.267,0.709-289.864,0.716-292.688c0.003-0.896-0.33-1.76-0.934-2.421l-17.175-18.868
				l-2.252-7.711l23.446-42.334l23.394,42.362L280.195,119.212z"/>
		</g>
	</g>
	
		<g id="&#x417;&#x430;&#x43B;&#x438;&#x432;&#x43A;&#x430;_&#x446;&#x432;&#x435;&#x442;&#x43E;&#x43C;_45_&#x43A;&#x43E;&#x43F;&#x438;&#x44F;" style="opacity:0.502;">
		<g>
			<path style="fill-rule:evenodd;clip-rule:evenodd;fill:#442625;" d="M327.253,211.127c-0.021-0.384-0.056-0.763-0.103-1.138
				c-0.094-0.748-0.238-1.479-0.43-2.189c-1.55-5.688-5.998-10.202-11.869-13.838c-5.986-3.688-11.562-6.049-16.747-8.317
				c-3.296-1.447-6.541-2.26-9.483-2.634c-1.47-0.188-2.863-0.267-4.146-0.265c-0.321,0-0.634,0.006-0.94,0.016
				s-0.604,0.023-0.896,0.042c-0.581,0.037-1.131,0.09-1.645,0.154c-7.333,0.921-16.905,1.626-16.327,5.878
				c0.574,4.248,5.281,8.548,12.283,10.708c12.529,4.169,31.647,2.784,22.806,18.911c-5.96,10.888-24.24,10.958-39.382,16.123
				c-0.512,0.179-0.992,0.354-1.486,0.531c-0.491-0.174-0.971-0.349-1.482-0.523c-15.101-5.168-34.017-4.407-40.486-14.103
				c-9.721-14.416,10.481-14.975,23.127-19.772c7.08-2.563,11.579-7.122,11.852-11.371c0.274-4.254-9.431-4.129-17.034-4.313
				c-0.532-0.015-1.1-0.013-1.7,0.008c-0.3,0.011-0.608,0.025-0.923,0.046c-0.316,0.02-0.639,0.045-0.969,0.076
				c-1.319,0.123-2.75,0.336-4.257,0.662c-3.014,0.652-6.325,1.761-9.682,3.484c-5.28,2.705-11.046,5.563-17.263,9.813
				c-6.098,4.183-10.674,9.103-12.064,14.638c-0.172,0.692-0.293,1.395-0.36,2.105c-0.033,0.355-0.053,0.714-0.059,1.073
				c-0.006,0.36,0.002,0.723,0.025,1.088c0.09,1.458,0.411,2.952,0.982,4.477c1.139,3.047,3.297,6.217,6.514,9.441
				c11.29,11.309,25.551,15.778,37.67,18.593c7.218-3.618,16.429-6.698,26.066-5.908c8.67,0.71,17.367,3.328,24.77,6.263
				c12.113-3.007,26.473-8.637,37.125-22.627c2.959-3.875,4.867-7.598,5.811-11.03c0.473-1.718,0.708-3.365,0.728-4.937
				C327.283,211.898,327.274,211.51,327.253,211.127z"/>
		</g>
	</g>
	<g id="&#x417;&#x430;&#x43B;&#x438;&#x432;&#x43A;&#x430;_&#x446;&#x432;&#x435;&#x442;&#x43E;&#x43C;_45">
		<g>
			<path style="fill-rule:evenodd;clip-rule:evenodd;fill:#E9C59C;" d="M333.233,186.899c-7.869-6.192-15.527-10.003-22.601-13.539
				c-9.017-4.509-17.4-5.021-22.746-4.394c-9.539,1.119-22.123,1.657-21.451,7.657c0.672,6.001,7.111,12.083,16.899,15.382
				c17.711,5.971,42.979,6.83,31.722,27.048c-7.318,13.144-32.656,11.368-54.974,17.962c-0.743,0.22-1.44,0.438-2.155,0.658
				c-0.717-0.22-1.412-0.438-2.156-0.658c-22.318-6.594-47.655-4.818-54.974-17.962c-11.258-20.218,14.011-21.077,31.722-27.048
				c9.788-3.299,16.227-9.381,16.899-15.382c0.672-6-11.912-6.538-21.451-7.657c-5.346-0.627-13.73-0.115-22.747,4.394
				c-7.073,3.536-14.73,7.347-22.6,13.539c-15.458,12.164-21.358,30.599-7.361,47.718c12.648,15.471,30.979,20.047,48.033,23.101
				c-4.759,7.583-6.664,21.417,0.242,35.787c3.333,6.935,8.157,12.408,13.474,17.219c-0.211,0.261-0.427,0.521-0.621,0.785
				c-9.18,12.494-17.936,24.356-10.592,49.497c4.693,16.066,13.128,23.49,22.404,30.396c-1.338,1.263-2.68,2.554-4.013,3.908
				c-11.948,12.142-3.813,30.349-3.813,30.349s1.516-11.986,10.596-20.923c2.281-2.245,4.616-4.214,6.959-6.063
				c2.342,1.849,4.677,3.817,6.958,6.063c9.08,8.937,10.597,20.923,10.597,20.923s8.134-18.207-3.814-30.349
				c-1.332-1.354-2.675-2.646-4.012-3.908c9.275-6.905,17.71-14.329,22.402-30.396c7.344-25.141-1.41-37.003-10.592-49.497
				c-0.193-0.264-0.408-0.524-0.621-0.785c5.316-4.811,10.142-10.284,13.475-17.219c6.906-14.37,5.001-28.204,0.242-35.787
				c17.053-3.054,35.385-7.63,48.033-23.101C354.592,217.498,348.691,199.063,333.233,186.899z M250.89,273.537
				c1.749-2.817,4.15-5.004,7.038-6.769c2.887,1.765,5.289,3.951,7.037,6.769c5.128,8.264,0.257,14.64-7.037,20.515
				C250.633,288.177,245.762,281.801,250.89,273.537z M271.451,355.933c-0.546,11.699-6.215,19.172-13.523,26.355
				c-7.31-7.184-12.979-14.656-13.525-26.355c-0.594-12.719,5.399-20.938,13.525-28.196
				C266.053,334.995,272.045,343.214,271.451,355.933z"/>
		</g>
	</g>
	<g id="&#x424;&#x438;&#x433;&#x443;&#x440;&#x430;_67" style="opacity:0.502;">
		<g>
			<path style="fill-rule:evenodd;clip-rule:evenodd;fill:#572477;" d="M311.621,224.899c0,0,12.309-5.015,14.088-11.418
				c4.37-15.728-1.675-27.585-43.689-23.243c0,0,22.633,2.716,34.938,12.687C323.408,208.152,311.621,224.899,311.621,224.899z
				 M334.191,187.775c0,0,13.37,18.864,7.35,32.629c-1.782,4.074-7.102,12.039-15.273,16.576
				c-4.881,2.709-18.156,6.719-27.362,7.151c-38.043,1.789-42.396,5.015-50.733,11.772c-9.116,7.39-13.326,18.763-7.89,30.384
				c3.895,8.325,12.45,11.473,12.45,11.473l3.852-4.523c0,0-16.892-19.513,2-29.245c1.435,1.698,3.307,4.16,4.801,6.994
				c2.836,5.379,4.305,12.056,4.305,12.056s3.383-13.047,12.811-11.685c15.786,2.28,4.693,29.234,3.405,32.238
				c-36.781,9.297-47.251,32.681-44.723,47.306c1.369,7.921,5.877,15.973,5.877,15.973s-1.54-21.215,5.197-31.096
				c8.579-12.58,35.226-32.584,35.226-32.584c-0.506,0.12-0.987,0.253-1.484,0.378c1.677-2.391,12.818-18.569,12.954-26.719
				c0.13-7.859-1.672-16.728-2.838-21.602c12.999-2.5,24.33-4.65,28.522-6.842c9.853-5.149,21.564-11.221,25.781-30.575
				C351.351,204.382,334.191,187.775,334.191,187.775z M275.051,326.808c5.191-3.247,10.552,1.181,15.299,5.659
				c-0.135-10.927-12.226-22.392-12.226-22.392l-19.122,16.704l11.15,14.644C270.152,341.423,268.752,330.748,275.051,326.808z
				 M270.191,379.392c-21.569,15.641-29.972,33.423-29.972,33.423l0.258,6.53c0,0,8.354-14.589,20.406-23.197
				c13.479-9.629,23.282-18.188,28.758-30.433c5.693-12.735,1.022-25.143,1.022-25.143S290.004,365.026,270.191,379.392z
				 M203.711,224.899c0,0-11.787-16.747-5.335-21.975c12.304-9.971,34.937-12.687,34.937-12.687
				c-42.014-4.342-48.059,7.516-43.689,23.243C191.402,219.885,203.711,224.899,203.711,224.899z M216.531,244.132
				c-9.206-0.433-22.481-4.442-27.362-7.151c-8.171-4.537-13.491-12.502-15.273-16.576c-6.021-13.765,7.35-32.629,7.35-32.629
				s-17.159,16.606-14.228,30.06c4.217,19.354,15.929,25.426,25.781,30.575c3.395,1.774,29.042,7.367,29.042,7.367l12.476-10.523
				C234.316,245.254,223.316,244.451,216.531,244.132z M255.897,379.563l-7.527-8.093c0,0,0.762,7.556-4.62,6.786
				c-8.125-1.16-16.991-12.546-16.991-12.546s3.286,6.209,8.26,13.016c3.993,5.465,9.892,11.823,9.892,11.823L255.897,379.563z"/>
		</g>
	</g>
	<g id="&#x424;&#x438;&#x433;&#x443;&#x440;&#x430;_68">
		<g>
			<path style="fill-rule:evenodd;clip-rule:evenodd;fill:#FFEEDA;" d="M248.792,237.977c0,0-13.926,3.714-38.824-4.684
				c-10.673-3.601-28.727-10.781-25.1-30.889c2.942-16.309,22.55-22.04,35.986-23.046c30.221,0.536,27.4-6.63,27.4-6.63
				s-11.253-5.439-22.888-5.093c-12.348,0.369-25.297,6.66-38.732,17.587c-13.435,10.927-10.837,24.586-10.837,24.586
				s0.308,14.022,17.425,21.896c12.626,5.809,52.569,9.442,52.569,9.442L248.792,237.977z M329.012,185.223
				c-13.435-10.927-26.385-17.218-38.732-17.587c-11.635-0.347-22.889,5.093-22.889,5.093s-2.82,7.166,27.4,6.63
				c13.436,1.006,33.044,6.737,35.986,23.046c3.627,20.107-14.427,27.288-25.1,30.889c-10.117,3.412-67.67,5.052-77.727,19.947
				c-21.521,31.875,14.93,50.088,14.93,50.088l4.602-1.923c0,0-22.102-13.193-13.55-36.83c5.903-16.317,25.384-20.711,34.758-22.413
				c9.374-1.701,41.107-4.648,53.733-10.457c17.117-7.874,17.426-21.896,17.426-21.896S342.446,196.149,329.012,185.223z
				 M277.363,274.981c-3.255,0.896,4.117,7.166-13.049,18.719c-8.33,5.606-20.293,9.591-30.063,20.188
				c-26.388,28.623,2.389,59.673,5.614,59.673c1.949,0-7.515-12.045-8.077-27.854c-0.368-10.339,7.329-25.68,15.922-30.842
				c8.649-5.196,18.981-11.511,23.805-15.719C291.944,281.328,280.617,274.086,277.363,274.981z M277.9,329.556
				c-2.747,0.776,3.475,12.813,0.676,22.958c-2.931,10.623-11.961,24.721-11.961,24.721s13.58-12.175,17.277-25.257
				C285.838,345.099,280.646,328.779,277.9,329.556z"/>
		</g>
	</g>
	<g id="&#x417;&#x430;&#x43B;&#x438;&#x432;&#x43A;&#x430;_&#x446;&#x432;&#x435;&#x442;&#x43E;&#x43C;_48">
		<g>
			<path style="fill-rule:evenodd;clip-rule:evenodd;fill:#5D3840;" d="M352.229,210.452c-1.08-9.837-6.923-19.385-16.453-26.885
				c-8.093-6.366-16.034-10.337-23.04-13.84l-0.174-0.087c-8.248-4.124-15.688-4.99-20.476-4.99c-1.476,0-2.919,0.082-4.291,0.242
				c-1.099,0.129-2.237,0.25-3.392,0.373c-8.381,0.891-16.294,1.732-19.671,5.936c-1.22,1.52-1.749,3.354-1.531,5.307
				c0.851,7.606,8.253,14.649,19.315,18.378c3.611,1.218,7.498,2.223,11.258,3.194c9.043,2.338,18.393,4.755,20.391,9.42
				c0.941,2.197,0.298,5.324-1.913,9.295c-4.05,7.272-16.073,9.242-29.995,11.523c-7.497,1.227-15.249,2.496-22.863,4.746
				c-0.505,0.149-0.979,0.3-1.474,0.449c-0.492-0.149-0.956-0.3-1.461-0.449c-7.615-2.25-15.366-3.52-22.863-4.746
				c-13.923-2.281-25.946-4.251-29.996-11.523c-2.211-3.971-2.855-7.098-1.913-9.295c1.998-4.665,11.348-7.082,20.39-9.42
				c3.761-0.972,7.646-1.977,11.259-3.194c11.063-3.729,18.464-10.771,19.315-18.378c0.218-1.952-0.311-3.787-1.531-5.307
				c-3.377-4.203-11.291-5.045-19.671-5.936c-1.154-0.123-2.293-0.244-3.392-0.373c-1.372-0.16-2.816-0.242-4.291-0.242
				c-4.788,0-12.227,0.866-20.476,4.99l-0.175,0.087c-7.006,3.503-14.946,7.474-23.039,13.84c-9.53,7.5-15.373,17.048-16.453,26.885
				c-0.981,8.928,1.97,17.89,8.534,25.917c12.428,15.199,29.568,20.395,46.087,23.597c-3.475,8.853-3.871,21.557,2.387,34.575
				c2.962,6.164,7.053,11.245,11.545,15.688c-9.014,12.313-17.699,25.415-10.148,51.266c4.475,15.321,12.369,23.424,20.74,29.996
				c-0.271,0.27-0.54,0.517-0.81,0.791c-13.508,13.727-4.904,33.488-4.53,34.322c0.583,1.303,1.873,2.117,3.268,2.117
				c0.172,0,0.346-0.013,0.52-0.037c1.587-0.231,2.827-1.492,3.037-3.082c0.014-0.107,1.522-10.924,9.557-18.828
				c1.343-1.322,2.721-2.537,4.108-3.711c1.395,1.173,2.779,2.384,4.127,3.711c8.034,7.904,9.543,18.721,9.557,18.828
				c0.21,1.59,1.45,2.851,3.037,3.082c0.174,0.024,0.347,0.037,0.52,0.037c1.395,0,2.686-0.814,3.268-2.117
				c0.373-0.834,8.977-20.596-4.53-34.322c-0.269-0.273-0.538-0.521-0.808-0.788c8.37-6.572,16.263-14.679,20.737-29.999
				c7.548-25.841-1.128-38.941-10.139-51.252c4.491-4.442,8.573-9.537,11.535-15.701c6.259-13.021,5.86-25.723,2.382-34.571
				c16.52-3.203,33.664-8.4,46.092-23.601C350.259,228.342,353.211,219.38,352.229,210.452z M177.706,231.835
				c-5.394-6.599-7.736-13.529-6.959-20.6c0.869-7.91,5.756-15.736,13.762-22.036c7.519-5.916,14.785-9.549,21.813-13.063
				l0.175-0.087c6.997-3.499,13.254-4.233,17.271-4.233c1.198,0,2.36,0.064,3.456,0.193c1.123,0.133,2.289,0.257,3.47,0.382
				c4.478,0.477,13.795,1.467,14.863,3.329c-0.46,3.871-5.106,9.207-14.509,12.376c-3.366,1.135-7.126,2.106-10.762,3.047
				c-11.211,2.898-21.799,5.636-25.185,13.536c-1.886,4.403-1.154,9.508,2.239,15.603c5.735,10.297,19.343,12.526,35.098,15.106
				c4.305,0.705,8.689,1.458,13.042,2.378c-11.522,4.521-18.891,9.463-23.555,15.604
				C205.925,250.41,189.162,245.847,177.706,231.835z M274.277,411.485c-1.703-3.252-4.031-6.696-7.205-9.819
				c-1.137-1.119-2.283-2.143-3.433-3.136c1.12-0.836,2.238-1.654,3.347-2.464c0.102-0.073,0.202-0.148,0.303-0.222
				c0.5,0.488,1.004,0.959,1.498,1.462C272.982,401.57,274.244,406.806,274.277,411.485z M286.948,359.485
				c-4.873,16.678-13.823,23.221-24.189,30.796c-4.601,3.361-9.355,6.838-13.977,11.385c-3.174,3.123-5.502,6.567-7.206,9.819
				c0.034-4.68,1.294-9.915,5.49-14.179c2.584-2.627,5.244-5.074,7.814-7.441c10.143-9.335,19.722-18.153,20.475-34.282
				c0.591-12.637-4.767-21.309-12.058-28.52c2.018-1.652,4.141-3.295,6.321-4.979c2.853-2.203,5.823-4.498,8.741-6.981
				C286.76,326.618,293.422,337.317,286.948,359.485z M247.655,355.25c-0.477-10.2,3.846-17.197,10.279-23.443
				c6.432,6.245,10.742,13.245,10.266,23.443c-0.437,9.353-4.471,15.658-10.273,21.756
				C252.122,370.908,248.091,364.603,247.655,355.25z M288.765,291.437c-5.208,10.834-14.52,18.024-23.523,24.978
				c-12.609,9.736-25.647,19.805-24.744,39.169c0.543,11.638,5.687,19.466,12.317,26.431c-0.909,0.849-1.834,1.704-2.787,2.58
				c-0.669,0.616-1.356,1.261-2.035,1.891c-8.159-6.273-15.035-13.132-19.086-26.999c-6.835-23.403,0.965-34.021,9.999-46.313
				c2.771-3.771,8-7.463,13.058-11.033c10.832-7.646,24.311-17.16,15.718-31.008c-0.918-1.479-1.989-2.799-3.178-3.995
				c6.164-2.499,14.084-3.853,22.697-5.313c1.05-0.178,2.109-0.358,3.174-0.541C293.652,268.328,294.393,279.726,288.765,291.437z
				 M254.26,274.909c0.961-1.548,2.188-2.883,3.635-4.049c1.467,1.169,2.732,2.489,3.699,4.049
				c3.052,4.917,1.534,8.814-3.664,13.582C252.733,283.725,251.209,279.825,254.26,274.909z M338.148,231.835
				c-13.369,16.351-33.971,19.844-52.145,22.924c-15.904,2.697-30.925,5.244-37.832,16.372c-5.5,8.864-1.948,15.948,4.156,21.907
				c-1.379,1.027-2.878,2.104-4.497,3.247c-3.853,2.719-7.779,5.508-10.973,8.521c-3.869-3.876-7.288-8.206-9.77-13.369
				c-6.492-13.509-4.523-26.627,0.054-33.1c5.187-7.331,15.438-12.834,34.28-18.401c7.185-2.122,14.713-3.355,21.992-4.548
				c15.755-2.58,29.363-4.81,35.098-15.106c3.395-6.095,4.126-11.199,2.239-15.603c-3.386-7.9-13.974-10.638-25.185-13.536
				c-3.635-0.94-7.396-1.912-10.762-3.047c-9.402-3.169-14.049-8.505-14.51-12.376c1.068-1.862,10.387-2.853,14.864-3.329
				c1.181-0.125,2.347-0.249,3.47-0.382c1.096-0.129,2.258-0.193,3.456-0.193c4.017,0,10.273,0.734,17.271,4.233l0.175,0.087
				c7.028,3.515,14.294,7.147,21.813,13.063c8.006,6.3,12.893,14.126,13.762,22.036
				C345.885,218.306,343.541,225.236,338.148,231.835z M223.232,186.343c2.604,0,4.713-1.104,4.713-2.464s-2.11-2.463-4.713-2.463
				c-2.603,0-4.713,1.103-4.713,2.463S220.629,186.343,223.232,186.343z M292.622,181.416c-2.603,0-4.714,1.103-4.714,2.463
				s2.111,2.464,4.714,2.464c2.604,0,4.714-1.104,4.714-2.464S295.226,181.416,292.622,181.416z"/>
		</g>
	</g>
</g>
</svg>
