<?xml version="1.0" encoding="iso-8859-1"?>
<!-- Generator: Adobe Illustrator 15.0.0, SVG Export Plug-In . SVG Version: 6.00 Build 0)  -->
<!DOCTYPE svg PUBLIC "-//W3C//DTD SVG 1.1//EN" "http://www.w3.org/Graphics/SVG/1.1/DTD/svg11.dtd" [
	<!ENTITY ns_extend "http://ns.adobe.com/Extensibility/1.0/">
	<!ENTITY ns_ai "http://ns.adobe.com/AdobeIllustrator/10.0/">
	<!ENTITY ns_graphs "http://ns.adobe.com/Graphs/1.0/">
	<!ENTITY ns_vars "http://ns.adobe.com/Variables/1.0/">
	<!ENTITY ns_imrep "http://ns.adobe.com/ImageReplacement/1.0/">
	<!ENTITY ns_sfw "http://ns.adobe.com/SaveForWeb/1.0/">
	<!ENTITY ns_custom "http://ns.adobe.com/GenericCustomNamespace/1.0/">
	<!ENTITY ns_adobe_xpath "http://ns.adobe.com/XPath/1.0/">
]>
<svg version="1.1" xmlns:x="&ns_extend;" xmlns:i="&ns_ai;" xmlns:graph="&ns_graphs;"
	 xmlns="http://www.w3.org/2000/svg" xmlns:xlink="http://www.w3.org/1999/xlink" x="0px" y="0px" width="512px" height="512px"
	 viewBox="0 0 512 512" style="enable-background:new 0 0 512 512;" xml:space="preserve">
<metadata>
	<sfw  xmlns="&ns_sfw;">
		<slices></slices>
		<sliceSourceBounds  height="512" width="512" x="94" y="94" bottomLeftOrigin="true"></sliceSourceBounds>
	</sfw>
</metadata>
<g id="&#x438;&#x433;&#x440;&#x43E;&#x432;&#x44B;&#x435;_1_">
	<g id="&#x417;&#x430;&#x43B;&#x438;&#x432;&#x43A;&#x430;_&#x446;&#x432;&#x435;&#x442;&#x43E;&#x43C;_1">
		<g>
			<rect x="3.699" y="4.439" style="fill-rule:evenodd;clip-rule:evenodd;fill:#B17D7B;" width="503.121" height="503.121"/>
		</g>
	</g>
	<g id="&#x417;&#x430;&#x43B;&#x438;&#x432;&#x43A;&#x430;_&#x446;&#x432;&#x435;&#x442;&#x43E;&#x43C;_5">
		<g>
			<path style="fill-rule:evenodd;clip-rule:evenodd;fill:#F3D4C3;" d="M484.624,25.156l20.717-20.717H3.699l20.717,20.717H484.624z
				 M24.416,486.844L3.699,507.561h501.642l-20.717-20.717H24.416z"/>
		</g>
	</g>
	
		<g id="&#x417;&#x430;&#x43B;&#x438;&#x432;&#x43A;&#x430;_&#x446;&#x432;&#x435;&#x442;&#x43E;&#x43C;_1_&#x43A;&#x43E;&#x43F;&#x438;&#x44F;_2">
		<g>
			<radialGradient id="SVGID_1_" cx="256.7402" cy="256" r="228.0762" gradientUnits="userSpaceOnUse">
				<stop  offset="0" style="stop-color:#99708E"/>
				<stop  offset="0.2" style="stop-color:#956D8B"/>
				<stop  offset="0.4182" style="stop-color:#886080"/>
				<stop  offset="0.6121" style="stop-color:#734E6D"/>
				<stop  offset="0.7636" style="stop-color:#573A54"/>
				<stop  offset="0.897" style="stop-color:#40293F"/>
				<stop  offset="1" style="stop-color:#331F32"/>
			</radialGradient>
			<polygon style="fill-rule:evenodd;clip-rule:evenodd;fill:url(#SVGID_1_);" points="432.765,27.924 78.856,27.924 28.664,78.116 
				28.664,435.769 76.972,484.076 433.367,484.076 484.816,432.627 484.816,79.976 			"/>
		</g>
	</g>
	
		<g id="&#x417;&#x430;&#x43B;&#x438;&#x432;&#x43A;&#x430;_&#x446;&#x432;&#x435;&#x442;&#x43E;&#x43C;_1_&#x43A;&#x43E;&#x43F;&#x438;&#x44F;">
		<g>
			<path style="fill-rule:evenodd;clip-rule:evenodd;fill:#F2D2C0;" d="M25.109,24.37v463.26h463.26V24.37H25.109z M466.659,418.566
				l-47.353,47.353H91.283l-44.462-44.462V92.277l46.196-46.196h325.734l47.908,47.907V418.566z"/>
		</g>
	</g>
	<g id="&#x424;&#x438;&#x433;&#x443;&#x440;&#x430;_3">
		<g>
			<path style="fill-rule:evenodd;clip-rule:evenodd;fill:#A18180;" d="M429.873,25.156l-344.047-1.48l-62.15,62.891v342.566
				l59.931,59.19l344.046-0.739l59.931-59.191V84.347L429.873,25.156z M477.226,423.954l-56.231,54.751H91.006l-56.231-54.751
				V88.046l54.012-54.012h334.428l54.751,56.231L477.226,423.954z"/>
		</g>
	</g>
	<g id="&#x417;&#x430;&#x43B;&#x438;&#x432;&#x43A;&#x430;_&#x446;&#x432;&#x435;&#x442;&#x43E;&#x43C;_6">
		<g>
			<path style="fill-rule:evenodd;clip-rule:evenodd;fill:#C7907F;" d="M23.676,86.566l62.52-62.752l-62.52-0.139V86.566z
				 M487.584,23.63l-62.521,0.139l62.521,62.752V23.63z M22.196,488.37l62.521-0.139l-62.521-62.752V488.37z M425.803,488.971
				l62.521,0.139v-62.89L425.803,488.971z"/>
		</g>
	</g>
	
		<g id="&#x417;&#x430;&#x43B;&#x438;&#x432;&#x43A;&#x430;_&#x446;&#x432;&#x435;&#x442;&#x43E;&#x43C;_6_&#x43A;&#x43E;&#x43F;&#x438;&#x44F;">
		<g>
			<path style="fill-rule:evenodd;clip-rule:evenodd;fill:#FDECE7;" d="M27.964,485.886l56.753,2.346L55.27,458.579L27.964,485.886z
				 M54.694,55.434l31.502-31.619l-59.314,3.562L54.694,55.434z M425.803,488.971l59.314-3.113l-28.158-28.158L425.803,488.971z
				 M485.117,26.582l-60.054-2.813l31.376,31.491L485.117,26.582z"/>
		</g>
	</g>
	<g id="&#x424;&#x438;&#x433;&#x443;&#x440;&#x430;_1">
		<g>
			<path style="fill-rule:evenodd;clip-rule:evenodd;fill:#C7907F;" d="M34.774,487.769l0.093-9.156h-8.417L34.774,487.769z
				 M477.04,477.873l0.093,9.155l8.323-9.155H477.04z M476.393,25.804l-0.092,9.156h8.416L476.393,25.804z M26.451,34.96h8.417
				l-0.093-9.156L26.451,34.96z"/>
		</g>
	</g>
	<g id="&#x424;&#x438;&#x433;&#x443;&#x440;&#x430;_2">
		<g>
			<path style="fill-rule:evenodd;clip-rule:evenodd;fill:#FDECE7;" d="M22.597,480.813L9.026,497.72l-1.627,10.285l22.418-0.296
				l0.532-18.644l-3.492-6.957L22.597,480.813z M508.448,495.817l-18.855-14.581l-4.261,4.043l-3.068,4.209l2.646,16.529
				l23.688,1.353L508.448,495.817z M21.002,31.648l4.26-1.295l3.492-6.956L28.222,4.754L5.803,4.458l1.628,10.284L21.002,31.648z
				 M487.997,31.226l18.856-14.581l0.147-11.553l-23.687,1.353l-2.646,16.53l3.069,4.208L487.997,31.226z"/>
		</g>
	</g>
	<g id="&#x417;&#x430;&#x43B;&#x438;&#x432;&#x43A;&#x430;_&#x446;&#x432;&#x435;&#x442;&#x43E;&#x43C;_2">
		<g>
			<path style="fill-rule:evenodd;clip-rule:evenodd;fill:#2F181B;" d="M0,0v512h512V0H0z M503.121,503.121H8.878V8.879h494.243
				V503.121z"/>
		</g>
	</g>
	<g id="&#x417;&#x430;&#x43B;&#x438;&#x432;&#x43A;&#x430;_&#x446;&#x432;&#x435;&#x442;&#x43E;&#x43C;_3">
		<g>
			<path style="fill-rule:evenodd;clip-rule:evenodd;fill:#40292E;" d="M482.33,20.67H29.346l-9.369,9.369v397.468
				c-0.119,0.585-0.119,1.188,0,1.771v53.925l9.606,9.605h453.025l9.507-9.507V30.455L482.33,20.67z M28.855,34.183l4.633-4.634
				h40.974L28.855,75.156V34.183z M33.726,483.931l-4.871-4.871v-39.857l44.728,44.729H33.726z M483.237,479.158l-4.772,4.772
				H437.63l45.607-45.607V479.158z M483.237,425.769l-58.162,58.162H86.139l-57.283-57.283V87.711l58.162-58.162h338.058
				l58.162,58.162V425.769z M483.237,75.156L437.63,29.549h40.558l5.05,5.05V75.156z"/>
		</g>
	</g>
	
		<g id="&#x417;&#x430;&#x43B;&#x438;&#x432;&#x43A;&#x430;_&#x446;&#x432;&#x435;&#x442;&#x43E;&#x43C;_4_&#x43A;&#x43E;&#x43F;&#x438;&#x44F;" style="opacity:0.502;">
		<g>
			<path style="fill-rule:evenodd;clip-rule:evenodd;fill:#876867;" d="M465.59,92.913l-47.243-47.244
				c-0.685-0.685-1.612-1.068-2.579-1.068H94.545c-0.968,0-1.896,0.384-2.58,1.068L46.409,91.227
				c-0.684,0.684-1.069,1.611-1.069,2.579v324.619c0,0.968,0.385,1.896,1.069,2.579l43.847,43.847
				c0.684,0.684,1.612,1.068,2.579,1.068h323.479c0.968,0,1.896-0.385,2.579-1.068l46.696-46.696
				c0.685-0.685,1.069-1.612,1.069-2.58V95.493C466.659,94.525,466.274,93.598,465.59,92.913z M459.363,414.063l-44.56,44.56H94.346
				l-41.709-41.709V95.316l43.419-43.419h318.201l45.106,45.106V414.063z"/>
		</g>
	</g>
	<g id="&#x417;&#x430;&#x43B;&#x438;&#x432;&#x43A;&#x430;_&#x446;&#x432;&#x435;&#x442;&#x43E;&#x43C;_4">
		<g>
			<path style="fill-rule:evenodd;clip-rule:evenodd;fill:#40292E;" d="M468.534,90.633l-47.907-47.907
				c-0.693-0.694-1.635-1.084-2.615-1.084H92.277c-0.981,0-1.922,0.39-2.616,1.084L43.465,88.922
				c-0.693,0.693-1.083,1.635-1.083,2.615v329.18c0,0.981,0.39,1.922,1.083,2.615l44.463,44.463
				c0.694,0.693,1.634,1.084,2.615,1.084h328.023c0.981,0,1.922-0.391,2.615-1.084l47.353-47.353
				c0.694-0.694,1.084-1.635,1.084-2.616V93.248C469.618,92.268,469.229,91.326,468.534,90.633z M462.22,416.295l-45.186,45.185
				H92.075L49.78,419.185V93.07l44.029-44.03h322.67l45.74,45.741V416.295z"/>
		</g>
	</g>
</g>
<g id="&#x418;&#x437;&#x43E;&#x431;&#x440;&#x430;&#x436;&#x435;&#x43D;&#x438;&#x435;_xA0_237_1_">
	<g id="&#x424;&#x438;&#x433;&#x443;&#x440;&#x430;_78" style="opacity:0.502;">
		<g>
			<path style="fill-rule:evenodd;clip-rule:evenodd;fill:#331F32;" d="M463.471,213.321
				c-9.184-46.591-27.241-17.879-128.717-79.405c-101.475-61.527-93.353-93.435-135.047-73.833
				c-28.372,13.339-25.004,28.711-25.004,28.711s-2.449,9.586-4.305,15.838c-1.903,0.043-3.793,0.095-5.654,0.164
				c0.727,3.465,1.477,6.957,2.222,10.443c-0.737,2.1-1.545,4.301-2.432,6.605c-3.647,0.379-7.243,0.79-10.735,1.265
				c1.19,5.088,2.413,10.214,3.667,15.376c-0.102,0.22-0.204,0.44-0.307,0.661c-4.053,0.238-8.014,0.534-11.866,0.898
				c1.336,4.35,2.712,8.742,4.134,13.182c-0.117,0.201-0.233,0.399-0.35,0.601c-4.558,0.336-8.991,0.751-13.29,1.25
				c1.109,5.101,2.266,10.255,3.478,15.47c-4.434,0.314-8.748,0.704-12.931,1.176c1.625,3.809,3.327,7.688,5.106,11.639
				c-3.288,0.735-6.521,1.504-9.695,2.306c0.673,3.236,1.376,6.504,2.109,9.805c-3.121,0.218-6.183,0.473-9.183,0.767
				c0.222,3.755,0.466,7.54,0.736,11.357c-3.239-0.254-6.4-0.458-9.48-0.607c1.099,3.292,2.262,6.643,3.491,10.055
				c-3.825,0.765-7.581,1.57-11.264,2.418c0.74,2.614,1.553,5.297,2.374,7.986c-0.765,0.842-1.521,1.66-2.267,2.455
				c-2.953,0.271-5.872,0.561-8.723,0.893c0.436,2.15,0.901,4.329,1.388,6.528c-2.676,2.565-5.203,4.844-7.584,6.907
				c-1.668,0.248-3.338,0.494-4.977,0.76c0.189,0.969,0.406,1.962,0.608,2.942c-15.869,13.172-24.092,17.65-24.836,41.45
				c-1.382,44.229,37.719,34.286,135.182,92.604c97.463,58.316,80.406,89.964,133.889,75.883
				c34.563-9.099,34.507-27.573,39.525-58.256c1.065-0.184,2.145-0.363,3.202-0.549c-0.782-1.483-1.565-2.984-2.349-4.473
				c0.571-3.223,1.219-6.572,1.977-10.049c3.274,0.048,6.521,0.087,9.718,0.108c-2.293-3.766-4.613-7.577-6.935-11.388
				c0.319-1.15,0.647-2.309,0.997-3.483c3.694,0.608,7.355,1.203,10.944,1.77c-2.376-4.325-4.777-8.688-7.194-13.068
				c0.187-0.508,0.374-1.018,0.566-1.529c4.894,0.146,9.716,0.27,14.44,0.357c-2.502-4.97-5.034-9.978-7.603-15.022
				c5.173-0.299,10.267-0.623,15.274-0.976c-1.938-4.773-3.902-9.578-5.898-14.414c5.037-0.286,10.005-0.596,14.896-0.932
				c-1.653-5.673-3.334-11.385-5.054-17.136c5.771,0.352,11.439,0.666,16.992,0.939c-1.704-5.438-3.462-10.922-5.282-16.452
				c4.414,0.713,8.759,1.4,13.026,2.059c-1.293-4.522-2.632-9.081-4.019-13.672c0.044-0.047,0.088-0.097,0.132-0.145
				c4.936,0.461,9.8,0.895,14.581,1.297c-1.651-3.601-3.383-7.245-5.151-10.908c1.997-1.909,3.928-3.684,5.788-5.35
				c3.063,0.183,6.102,0.356,9.11,0.519c-1.023-1.746-2.082-3.509-3.146-5.273c-0.801,0.454-0.961,0.366-0.181-0.304
				c0.062,0.102,0.12,0.202,0.181,0.304C446.062,259.396,468.967,241.196,463.471,213.321z"/>
		</g>
	</g>
	<g id="&#x424;&#x438;&#x433;&#x443;&#x440;&#x430;_69_&#x43A;&#x43E;&#x43F;&#x438;&#x44F;_2">
		<g>
			<path style="fill-rule:evenodd;clip-rule:evenodd;fill:#B78877;" d="M438.994,223.234l18.547-6.436l-15.292-10.031
				c0,0-6.825-3.7-19.243-11.175c-13.981-8.416-35.148-21.378-57.222-34.665c-34.69-20.881-72.856-44.188-101.813-61.618
				c-13.112-7.893-31.469-17.729-44.3-24.461c-8.895-4.666-17.334-9.118-17.334-9.118l1.248,19.588l-14.98-0.951l4.483,21.174
				c-0.223,0.349-0.456,0.713-0.681,1.066l-14.532-1.286l3.812,18.144c-0.141,0.224-0.282,0.445-0.424,0.67l-16.199-0.058
				l5.287,17.398c-0.219,0.349-0.436,0.696-0.655,1.047l-14.515-0.626l5.248,15.516c-0.132,0.213-0.263,0.423-0.395,0.637
				l-15.896-0.443l5.316,17.654c-0.13,0.212-0.259,0.425-0.389,0.638l-15.628-0.458l7.015,14.267l-11.562,1.427l3.358,11.741
				l-11.086-0.268l2.051,13.494l-11.667-1.925l5.484,12.388l-13.167-0.646l4.845,14.676l-13.948,0.118l5.149,14.862l-16.333,1.048
				l5.596,15.582l-15.122-0.23l6.064,17.997l-17.196,3.798l12.752,8.883c4.786,4.414,11.918,5.781,47.157,27.128
				c91.842,55.635,155.194,95.113,182.606,112.311c1.396,0.876,2.689,1.688,3.898,2.448l-0.305,0.537c0,0,0.125-0.206,0.321-0.527
				c7.497,4.711,11.374,7.17,11.374,7.17l-2.351-22.038c0.256-0.424,0.5-0.828,0.765-1.267l16.418-0.444l-6.182-16.407l16.883-0.713
				l-8.309-13.816c0.137-0.23,0.271-0.456,0.409-0.688l17.173-3.568l-6.645-14.204c0.107-0.183,0.215-0.363,0.322-0.546l17.735-0.23
				l-8.798-14.98l15.219,1.427l-7.914-13.965c0.063-0.105,0.123-0.211,0.185-0.316l17.003-0.699l-7.609-14.743l16.407-2.14
				l-6.183-14.268l15.932-2.14l-5.706-17.121l18.071-0.476l-6.42-16.407l13.791,0.951l-5.23-13.791h15.456l-9.72-16.378
				l18.161-0.624l-9.868-13.197l17.194-2.065L438.994,223.234z M318.279,428.793l-0.038-0.357l0.245-0.006L318.279,428.793z"/>
		</g>
	</g>
	<g id="&#x417;&#x430;&#x43B;&#x438;&#x432;&#x43A;&#x430;_&#x446;&#x432;&#x435;&#x442;&#x43E;&#x43C;_66">
		<g>
			<path style="fill-rule:evenodd;clip-rule:evenodd;fill:#CAA895;" d="M104.417,231.917l271.237-65.234
				c-3.284-1.985-6.605-3.99-9.953-6.006c-1.305-0.785-2.623-1.58-3.938-2.372l-248.28,60.181l3.465,7.827l-13.031,0.021
				L104.417,231.917z M78.25,282.418l349.41-84.244c-1.478-0.877-3.051-1.815-4.737-2.831c-2.789-1.679-5.875-3.546-9.187-5.553
				L87.804,268.371l1.287,3.582l-14.673,0.631L78.25,282.418z M400.931,182.015c-4.382-2.663-9.006-5.472-13.78-8.368
				L96.278,245.077l2.028,11.255L400.931,182.015z M122.806,206.079l224.953-56.228c-4.574-2.766-9.166-5.545-13.757-8.326
				l-204.678,51.16l2.843,9.938l-10.287-0.249L122.806,206.079z M155.098,141.646l3.081,9.107l134.735-34.146
				c-4.689-2.843-9.261-5.611-13.707-8.301L168.77,136.295l1.499,4.931c-0.219,0.349-0.436,0.696-0.655,1.047L155.098,141.646z
				 M263.326,98.725c-4.479-2.685-9.532-5.58-14.758-8.497l-56.19,12.103l0.627,2.961c-0.223,0.349-0.456,0.713-0.681,1.066
				l-13.217-1.169l-1.234,0.266l2.347,11.17L263.326,98.725z M189.977,90.987l41.92-9.864c-4.391-2.353-8.585-4.571-12.309-6.524
				c-1.021-0.536-2.034-1.067-3.031-1.591l-13.62,3.204l0.729,9.873l-15.145-1.967L189.977,90.987z M148.641,175.638l-15.286-0.448
				l1.813,3.687L148.641,175.638z M443.796,207.587L66.198,295.858l9.391,6.542c0.881,0.813,1.844,1.522,3.045,2.272l378.335-88.444
				L443.796,207.587z M149.049,175.539l172.62-41.49c-4.661-2.827-9.289-5.635-13.859-8.407l-161.606,38.843l3.169,10.525
				C149.265,175.187,149.157,175.362,149.049,175.539z M389.671,328.245l-195.649,44.689c4.762,2.917,9.399,5.76,13.913,8.53
				l171.19-39.103l-4.178-8.095l16.407-2.14L389.671,328.245z M411.518,293.14l-252.489,58.426c4.736,2.885,9.383,5.718,13.93,8.492
				l225.528-52.188l-3.09-9.271l18.071-0.476L411.518,293.14z M425.813,260.027l-303.354,69.327c0.098,0.06,0.189,0.114,0.287,0.174
				c4.659,2.822,9.225,5.592,13.736,8.33l280.938-64.205l-1.812-4.776h15.456L425.813,260.027z M444.166,232.025L93.802,312.837
				c3.942,2.13,8.786,4.817,14.798,8.3l326.402-75.284l-5.364-7.175l17.194-2.065L444.166,232.025z M226.399,392.816
				c4.815,2.965,9.438,5.816,13.907,8.575l124.183-27.886l-6.069-10.336L226.399,392.816z M260.819,414.082
				c4.902,3.038,9.52,5.905,13.844,8.595l69.422-15.555l-6.199-10.308L260.819,414.082z M319.68,428.145l15.794-0.427l-1.44-3.824
				L319.68,428.145z M318.933,428.366l-23.826,7.057c3.826,2.392,7.262,4.544,10.246,6.416c0.935,0.586,1.808,1.135,2.654,1.667
				l11.425-3.384l-1.141-10.693C318.506,429.073,318.716,428.726,318.933,428.366z M360.218,362.767l13.064,1.225l-2.091-3.688
				L360.218,362.767z"/>
		</g>
	</g>
	<g id="&#x424;&#x438;&#x433;&#x443;&#x440;&#x430;_70">
		<g>
			<path style="fill-rule:evenodd;clip-rule:evenodd;fill:#BA8B78;" d="M409.746,224.423c-1.649-25.146-41.935-34.669-96.585-66.54
				c-42.911-25.025-59.908-43.896-84.652-39.037c-24.745,4.86-36.754,42.641-61.909,81.3c-24.257,37.28-51.561,73.943-47.904,89.193
				c4.603,19.191,44.62,39.246,85.539,63.836c45.914,27.592,74.667,53.274,96.457,51.639c9.918-0.744,15.525-10.97,22.525-22.834
				c8.516-14.432,18.684-32.828,36.021-59.052c14.013-21.192,25.778-42.532,35.232-59.119
				C403.495,247.974,410.552,236.704,409.746,224.423z"/>
		</g>
	</g>
	<g id="&#x424;&#x438;&#x433;&#x443;&#x440;&#x430;_73">
		<g>
			<path style="fill-rule:evenodd;clip-rule:evenodd;fill:#9F5B58;" d="M408.292,218.728c-2.624-6.314-9.023-14.189-9.023-14.189
				s-2.901,21.229-24.65,18.819c-11.472-1.271-32.396-17.54-43.811-20.283c-10.545-2.534-20.167-5.814-27.201-10.06
				c-7.446-4.493-15.569-12.386-23.401-21.409c-7.604-8.761-33.568-12.212-39.731-21.028c-10.051-14.378,1.633-32.444,1.633-32.444
				s-8.851-1.551-14.832-0.099c-6.982,1.694-11.25,6.43-11.25,6.43s16.292,9.189,16.694,25.077
				c0.276,10.938-13.757,25.99-18.423,39.611c-3.324,9.704-7.618,19.173-13.163,27.452c-5.288,7.896-11.514,14.928-18.115,21.132
				c-12.248,11.513-21.598,33.02-32.846,39.091c-13.989,7.55-28.623-1.756-28.623-1.756c-10.611,10.255,1.694,23.987,1.694,23.987
				s10.996-14.217,27.565-14.407c12.099-0.14,27.378,12.674,42.485,16.853c12.556,3.473,24.917,8.324,35.403,15.094
				c10.388,6.706,19.244,15.01,26.71,23.782c9.405,11.05,31.231,16.869,36.52,27.152c8.295,16.129-2.739,34.517-2.739,34.517
				s8.37,4.8,15.614,1.939c6.232-2.46,11.494-12.64,11.494-12.64s-17.209-5.695-17.715-23.937
				c-0.294-10.549,14.079-30.19,17.113-42.689c2.416-9.953,6.293-20.042,12.278-29.499c4.657-7.358,11.243-14.695,18.677-21.661
				c9.762-9.146,18.22-32.675,28.455-39.744c17.205-11.883,32.691,5.213,32.691,5.213S410.775,224.701,408.292,218.728z"/>
		</g>
	</g>
	<g id="&#x424;&#x438;&#x433;&#x443;&#x440;&#x430;_72">
		<g>
			<path style="fill-rule:evenodd;clip-rule:evenodd;fill:#CCA893;" d="M183.601,204.356c18.414-31.968,30.908-78.867,30.908-78.867
				s-14.883,17.311-25.204,34.585c-6.529,10.928-14.015,26.578-21.932,39.378c-9.355,15.128-20.263,28.563-28.053,40.722
				c-9.933,15.504-15.631,27.897-15.631,27.897S165.188,236.324,183.601,204.356z M210.174,338.398
				c-34.955-21.267-77.211-31.806-77.211-31.806s37.555,24.725,72.516,48.032c34.59,23.06,77.558,45.686,77.558,45.686
				S245.128,359.666,210.174,338.398z M316.293,159.514c-29.473-17.12-68.97-39.107-68.97-39.107s25.261,30.746,66.636,53.707
				c41.375,22.962,80.495,29.132,80.495,29.132S350.55,179.412,316.293,159.514z M352.175,303.825
				c-18.146,30.273-34.273,84.136-34.273,84.136s24.929-39.969,45.053-73.906c21.89-36.917,43.983-73.626,43.983-73.626
				S370.32,273.552,352.175,303.825z"/>
		</g>
	</g>
	<g id="&#x417;&#x430;&#x43B;&#x438;&#x432;&#x43A;&#x430;_&#x446;&#x432;&#x435;&#x442;&#x43E;&#x43C;_55">
		<g>
			<ellipse style="fill-rule:evenodd;clip-rule:evenodd;fill:#BA8B78;" cx="266.094" cy="256.368" rx="81.59" ry="84.332"/>
		</g>
	</g>
	<g id="&#x424;&#x438;&#x433;&#x443;&#x440;&#x430;_74">
		<g>
			<path style="fill-rule:evenodd;clip-rule:evenodd;fill:#783741;" d="M291.293,335.448c-20.253,7.295-48.689,8.22-71.255-9.113
				c-19.589-15.046-30.624-35.453-34.375-51.957c-5.085-22.374,0.4-36.49,0.4-36.49s-27.435,58.314,29.633,96.568
				c53.232,35.683,102.204-13.503,108.548-20.278C321.355,317.24,309.559,328.869,291.293,335.448z M324.245,314.178
				c0.458-0.485,0.7-0.764,0.7-0.764S324.702,313.689,324.245,314.178z"/>
		</g>
	</g>
	
		<g id="&#x417;&#x430;&#x43B;&#x438;&#x432;&#x43A;&#x430;_&#x446;&#x432;&#x435;&#x442;&#x43E;&#x43C;_55_&#x43A;&#x43E;&#x43F;&#x438;&#x44F;">
		<g>
			<ellipse style="fill-rule:evenodd;clip-rule:evenodd;fill:#B88978;" cx="266.094" cy="256.368" rx="52.479" ry="54.242"/>
		</g>
	</g>
	<g id="&#x424;&#x438;&#x433;&#x443;&#x440;&#x430;_75">
		<g>
			<path style="fill-rule:evenodd;clip-rule:evenodd;fill:#99535A;" d="M282.359,218.513c27.494,14.446,32.986,52.486,32.986,52.486
				s12.969-43.196-24.268-63.385c-37.006-20.063-66.805,13.063-66.805,13.063S254.866,204.067,282.359,218.513z M296.398,320.373
				c-28.973,12.354-56.237,6.4-73.595-8.134c-17.358-14.535-30.521-38.979-28.933-66.71c0.569-9.93,3.304-20.615,7.11-29.548
				c7.382-17.323,18.944-30.153,18.944-30.153s-15.591,11.967-23.754,25.586c-5.73,9.561-11.008,23.181-12.296,36.385
				c-3.043,31.182,8.569,59.262,33.894,77.162s57.475,20.902,83.428,6.077c12.896-7.366,25.888-18.713,33.108-30.479
				c10.232-16.673,11.954-33.334,11.954-33.334S327.602,307.068,296.398,320.373z"/>
		</g>
	</g>
	<g id="&#x424;&#x438;&#x433;&#x443;&#x440;&#x430;_75_&#x43A;&#x43E;&#x43F;&#x438;&#x44F;">
		<g>
			<path style="fill-rule:evenodd;clip-rule:evenodd;fill:#A66760;" d="M295.244,196.532
				c-45.164-20.063-70.971,24.146-70.971,24.146s29.799-33.127,66.805-13.063c37.236,20.188,24.268,63.385,24.268,63.385
				S340.409,216.596,295.244,196.532z"/>
		</g>
	</g>
	<g id="&#x424;&#x438;&#x433;&#x443;&#x440;&#x430;_77">
		<g>
			<path style="fill-rule:evenodd;clip-rule:evenodd;fill:#CBA996;" d="M225.462,183.037c0,0-20.579,16.176-27.898,34.65
				c-8.828,22.282-2.675,44.962-2.675,44.962s-0.206-24.582,8.153-43.343C209.958,203.783,225.462,183.037,225.462,183.037z
				 M240.693,304.688c-27.954-12.168-26.407-39.723-28.785-46.737c-7.401,9.838-4.189,41.635,24.224,56.27
				c28.946,14.91,63.043-2.055,65.184-16.322C301.554,295.67,275.972,320.045,240.693,304.688z M336.609,274.89
				c-7.083,17.249-18.173,30.143-18.173,30.143s14.532-9.263,22.675-26.233c5.615-11.705,3.481-30.835,3.481-30.835
				S342.22,261.225,336.609,274.89z M345.068,233.696c-0.922-2.11-2.881-12.088-13.025-26.502
				c-5.961-8.47-15.891-19.416-25.314-24.708c-11.094-6.231-24.625-10.463-36.352-11.027c-16.377-0.788-25.298,0.978-29.459,3.742
				c15.872,8.59,32.727-0.452,57.544,13.486C325.614,203.938,328.394,225.82,345.068,233.696z"/>
		</g>
	</g>
	<g id="&#x417;&#x430;&#x43B;&#x438;&#x432;&#x43A;&#x430;_&#x446;&#x432;&#x435;&#x442;&#x43E;&#x43C;_59">
		<g>
			<path style="fill-rule:evenodd;clip-rule:evenodd;fill:#783741;" d="M265.648,169.338c-46.17,0-83.731,38.792-83.731,86.473
				s37.561,86.473,83.731,86.473c46.168,0,83.73-38.792,83.73-86.473S311.816,169.338,265.648,169.338z M265.648,338.003
				c-43.81,0-79.451-36.872-79.451-82.192c0-45.321,35.642-82.192,79.451-82.192c43.809,0,79.449,36.871,79.449,82.192
				C345.098,301.131,309.457,338.003,265.648,338.003z"/>
		</g>
	</g>
	<g id="&#x417;&#x430;&#x43B;&#x438;&#x432;&#x43A;&#x430;_&#x446;&#x432;&#x435;&#x442;&#x43E;&#x43C;_60">
		<g>
			<path style="fill-rule:evenodd;clip-rule:evenodd;fill:#91454C;" d="M265.648,199.429c-30.117,0-54.619,25.292-54.619,56.382
				s24.502,56.382,54.619,56.382c30.116,0,54.617-25.292,54.617-56.382S295.765,199.429,265.648,199.429z M265.648,307.912
				c-27.757,0-50.339-23.372-50.339-52.102s22.582-52.102,50.339-52.102c27.756,0,50.338,23.372,50.338,52.102
				S293.404,307.912,265.648,307.912z"/>
		</g>
	</g>
	<g id="&#x417;&#x430;&#x43B;&#x438;&#x432;&#x43A;&#x430;_&#x446;&#x432;&#x435;&#x442;&#x43E;&#x43C;_58">
		<g>
			<path style="fill-rule:evenodd;clip-rule:evenodd;fill:#824749;" d="M413.43,224.224c-1.283-19.567-22.053-29.932-53.49-45.619
				c-13.309-6.641-28.392-14.167-44.855-23.769c-11.57-6.747-21.22-13.029-29.733-18.57c-20.092-13.079-33.366-21.719-49.027-21.719
				c-2.744,0-5.562,0.28-8.377,0.833c-19.201,3.771-30.655,24.378-45.157,50.469c-5.818,10.467-11.834,21.29-19.054,32.386
				c-4.154,6.384-8.431,12.801-12.568,19.007c-21.038,31.561-39.207,58.817-35.814,72.963c4.183,17.444,31.82,33.598,66.81,54.049
				c6.637,3.879,13.5,7.89,20.36,12.013c13.415,8.062,25.483,16.042,36.131,23.084c25.58,16.917,44.062,29.139,60.158,29.139
				c0.764,0,1.522-0.028,2.272-0.084c11.368-0.853,17.438-11.171,24.469-23.118l0.861-1.46c1.694-2.872,3.452-5.899,5.32-9.113
				c7.469-12.854,16.765-28.851,30.604-49.783c12.118-18.326,22.728-37.049,31.253-52.093c1.413-2.493,2.781-4.908,4.104-7.228
				l1.882-3.291C407.774,248.009,414.249,236.707,413.43,224.224z M393.388,258.771l-1.891,3.305
				c-1.327,2.327-2.697,4.746-4.113,7.245c-8.471,14.949-19.014,33.554-30.995,51.674c-13.955,21.105-23.308,37.201-30.822,50.135
				c-1.859,3.2-3.611,6.214-5.297,9.071l-0.863,1.468c-6.264,10.643-11.211,19.049-18.857,19.623
				c-14.225,1.059-32.391-10.982-57.961-27.891c-10.708-7.082-22.845-15.107-36.392-23.249c-6.897-4.145-13.779-8.167-20.435-12.057
				c-30.855-18.035-59.999-35.069-63.472-49.554c-2.667-11.117,16.387-39.7,34.813-67.343c4.148-6.223,8.437-12.656,12.612-19.073
				c7.354-11.303,13.706-22.729,19.309-32.811c13.602-24.472,24.346-43.802,40.297-46.935c2.396-0.471,4.687-0.699,7.002-0.699
				c13.545,0,26.112,8.181,45.136,20.563c8.582,5.587,18.311,11.919,30.03,18.754c16.666,9.719,31.858,17.301,45.265,23.989
				c29.231,14.587,48.543,24.224,49.558,39.703C406.99,235.028,401.284,244.987,393.388,258.771z"/>
		</g>
	</g>
	<g id="&#x424;&#x438;&#x433;&#x443;&#x440;&#x430;_79">
		<g>
			<path style="fill-rule:evenodd;clip-rule:evenodd;fill:#783741;" d="M178.167,130.751l36.207,86.917l-30.108-96.396
				L178.167,130.751z M147.125,343.875l30.5,18.5l-54.071-140.947L147.125,343.875z M278.53,359.745l24.21,41.568l-34.196-94.119
				L278.53,359.745z M385.287,172.174l-27.412-16.049l40.5,132.908L385.287,172.174z M243.75,87.001l12.667,53.268l-7.601-51.134
				L243.75,87.001z"/>
		</g>
	</g>
	<g id="&#x424;&#x438;&#x433;&#x443;&#x440;&#x430;_80">
		<g>
			<path style="fill-rule:evenodd;clip-rule:evenodd;fill:#C6A491;" d="M123.625,221.521l19,119.739l7.371,3.894L124.75,225.5
				l47.806,133.386l6.48,3.864c0,0-16.898-46.839-31.968-84.708C137.153,253.123,123.625,221.521,123.625,221.521z M390.854,177.537
				l-8.052-5.764l16.107,118.375L390.854,177.537z M182.127,124.25l31.209,90.418l-25.502-99.691L182.127,124.25z M374.273,196.013
				c-5.852-21.619-10.351-34.76-10.351-34.76l-7.982-4.813l43.048,134.409C398.988,290.849,384.342,233.208,374.273,196.013z
				 M302.989,402.126c0,0-5.833-57.002-33.832-93.116L302.989,402.126z M247.043,87.868l9.511,52.789l-2.853-48.033L247.043,87.868z
				"/>
		</g>
	</g>
	<g id="&#x417;&#x430;&#x43B;&#x438;&#x432;&#x43A;&#x430;_&#x446;&#x432;&#x435;&#x442;&#x43E;&#x43C;_65">
		<g>
			<path style="fill-rule:evenodd;clip-rule:evenodd;fill:#9D696A;" d="M458.668,215.381l-15.293-10.031
				c-0.049-0.033-0.101-0.064-0.153-0.093c-0.068-0.037-6.937-3.77-19.16-11.126c-6.188-3.726-13.786-8.342-22.246-13.483
				c-10.653-6.474-22.673-13.777-34.975-21.183c-18.122-10.908-37.076-22.408-55.407-33.529
				c-16.647-10.101-32.576-19.764-46.405-28.088c-13.098-7.886-31.381-17.688-44.409-24.523c-8.758-4.594-18.068-9.891-18.161-9.944
				c-0.719-0.41-1.614-0.365-2.292,0.11c-0.678,0.479-1.018,1.305-0.875,2.122l3.469,19.617l-13.806-2.595
				c-0.718-0.139-1.443,0.103-1.944,0.625c-0.5,0.523-0.701,1.265-0.535,1.97l4.588,19.467l-14.114-1.868
				c-0.722-0.092-1.43,0.177-1.899,0.722c-0.472,0.544-0.638,1.289-0.441,1.982l5.102,18.038l-14.509-1.254
				c-0.719-0.053-1.436,0.249-1.88,0.826c-0.444,0.578-0.564,1.342-0.319,2.028l5.783,16.127l-13.469-1.163
				c-0.751-0.064-1.485,0.272-1.925,0.889c-0.44,0.615-0.521,1.418-0.216,2.109l6.042,13.657l-14.992-0.949
				c-0.736-0.047-1.423,0.278-1.854,0.861c-0.433,0.583-0.539,1.346-0.284,2.025l6.137,16.369l-14.627-1.417
				c-0.802-0.072-1.582,0.304-2.015,0.986c-0.432,0.683-0.442,1.55-0.028,2.243l7.152,11.959l-11.191-1.622
				c-0.781-0.115-1.564,0.215-2.033,0.854c-0.468,0.638-0.545,1.481-0.201,2.195l5.601,11.601l-10.353-2.257
				c-0.705-0.149-1.447,0.06-1.963,0.572c-0.515,0.51-0.736,1.248-0.587,1.957l2.321,11.071l-9.049-3.073
				c-0.802-0.273-1.69-0.049-2.263,0.577c-0.574,0.624-0.725,1.526-0.387,2.303l5.173,11.881l-11.289,0.472
				c-0.711,0.031-1.36,0.411-1.733,1.018c-0.373,0.605-0.421,1.356-0.127,2.005l4.63,10.214l-11.638-0.638
				c-0.724-0.034-1.432,0.296-1.857,0.892c-0.426,0.595-0.519,1.365-0.246,2.044l5.299,13.167l-14.417,1.452
				c-0.681,0.068-1.288,0.459-1.633,1.049c-0.345,0.591-0.387,1.312-0.113,1.938l5.205,11.898l-12.388,0.012
				c-0.7,0-1.356,0.344-1.755,0.919c-0.4,0.576-0.493,1.31-0.248,1.966l5.74,15.442l-15.274,3.339
				c-0.839,0.185-1.487,0.852-1.646,1.696c-0.159,0.844,0.202,1.701,0.917,2.178l13.103,8.722c2.321,2.103,5.075,3.543,10.465,6.36
				c6.54,3.421,17.485,9.144,36.905,20.909c90.699,54.942,153.321,93.938,182.579,112.293c10.061,6.312,15.277,9.62,15.28,9.621
				c0.35,0.222,0.748,0.333,1.146,0.333c0.372,0,0.743-0.096,1.077-0.289c0.689-0.403,1.1-1.155,1.061-1.954l-0.961-19.862
				l13.908-1.658c0.654-0.078,1.234-0.451,1.576-1.013c0.342-0.563,0.405-1.251,0.172-1.867l-5.138-13.639l13.927-0.588
				c0.727-0.03,1.387-0.428,1.755-1.054c0.368-0.625,0.394-1.396,0.067-2.045l-5.975-11.907l13.807-3.118
				c0.603-0.135,1.116-0.525,1.41-1.067c0.294-0.541,0.34-1.186,0.126-1.764l-4.414-11.901l13.852-0.195
				c0.763-0.011,1.46-0.426,1.834-1.089c0.374-0.665,0.366-1.477-0.02-2.135l-6.681-11.376l11.057,1.036
				c0.809,0.09,1.563-0.299,1.996-0.968s0.457-1.523,0.064-2.217l-6.356-11.219l13.856-0.568c0.73-0.031,1.395-0.431,1.763-1.063
				c0.368-0.631,0.388-1.407,0.052-2.057l-6.21-12.033l13.384-1.746c0.666-0.086,1.253-0.481,1.584-1.065
				c0.332-0.584,0.369-1.29,0.102-1.907l-5.058-11.672l13.128-1.764c0.632-0.085,1.193-0.447,1.531-0.988
				c0.337-0.54,0.416-1.205,0.214-1.81l-4.792-14.38l15.184-0.398c0.698-0.02,1.342-0.377,1.728-0.957
				c0.386-0.581,0.464-1.314,0.209-1.964l-5.188-13.26l10.419,0.718c0.738,0.053,1.431-0.274,1.865-0.859
				c0.435-0.586,0.542-1.352,0.283-2.034l-4.131-10.892h12.355c0.773,0,1.485-0.417,1.864-1.09s0.366-1.499-0.033-2.159
				l-8.554-14.115l15.113,0.362h0.051c0.01-0.002,0.017-0.002,0.028,0c1.183,0,2.14-0.959,2.14-2.141
				c0-0.593-0.241-1.13-0.631-1.517l-7.475-9.997l13.519-1.625c0.715-0.086,1.339-0.525,1.661-1.17
				c0.32-0.644,0.297-1.407-0.065-2.03l-6.615-11.382l16.094-5.584c0.771-0.268,1.32-0.948,1.421-1.758
				S459.351,215.828,458.668,215.381z M211.586,73.345c-0.884,1.487-2.62,4.405-5.074,8.524l-2.219-12.545
				C206.259,70.421,208.813,71.835,211.586,73.345z M201.996,89.441c-2.15,3.603-4.586,7.68-7.265,12.156l-3.334-14.149
				L201.996,89.441z M179.614,107.498l10.734,1.421c-2.222,3.709-4.571,7.626-7.021,11.706L179.614,107.498z M168.158,126.868
				l10.853,0.938c-2.139,3.557-4.337,7.208-6.59,10.947L168.158,126.868z M158.556,144.71l9.764,0.844
				c-1.784,2.955-3.591,5.947-5.421,8.973L158.556,144.71z M147.257,160.321l11.686,0.74c-2.33,3.846-4.683,7.725-7.052,11.623
				L147.257,160.321z M137.403,178.349l10.428,1.011c-1.651,2.713-3.305,5.425-4.959,8.135L137.403,178.349z M139.335,193.285
				c-1.467,2.399-2.932,4.793-4.391,7.176l-4.057-8.4L139.335,193.285z M131.323,206.371c-2.034,3.315-4.05,6.598-6.047,9.848
				c-0.007-0.063,0-0.124-0.014-0.186l-2.413-11.509L131.323,206.371z M122.479,218.498c0.469,0.159,0.964,0.132,1.415-0.032
				c-1.638,2.664-3.259,5.297-4.862,7.899c-0.026-0.096-0.044-0.193-0.084-0.285l-4.488-10.307L122.479,218.498z M117.073,229.072
				c0.111-0.005,0.216-0.032,0.323-0.054c-2.318,3.761-4.587,7.437-6.802,11.023l-4.759-10.5L117.073,229.072z M96.742,242.455
				l11.803,0.646c0.056,0.003,0.11-0.012,0.166-0.013c-2.453,3.968-4.817,7.788-7.098,11.472L96.742,242.455z M85.75,259.516
				l13.644-1.373c-2.983,4.813-5.779,9.317-8.355,13.464L85.75,259.516z M76.548,274.727l12.559-0.012
				c-3,4.826-5.646,9.075-7.865,12.637L76.548,274.727z M73.818,299.246l-6.047-4.026l9.915-2.167
				C75.615,296.372,74.277,298.511,73.818,299.246z M312.229,444.229c1.175-1.928,3.033-4.985,5.489-9.042l0.623,12.892
				C316.807,447.11,314.758,445.819,312.229,444.229z M332.544,426.538l-10.345,1.232c2.008-3.329,4.234-7.027,6.646-11.049
				L332.544,426.538z M342.814,409.221l-9.721,0.41c1.73-2.892,3.529-5.906,5.393-9.032L342.814,409.221z M342.477,393.89
				c2.193-3.694,4.449-7.501,6.764-11.421l3.387,9.129L342.477,393.89z M363.189,376.077l-10.266,0.146
				c1.705-2.896,3.431-5.833,5.176-8.811L363.189,376.077z M369.434,362.099l-7.797-0.73c1.242-2.126,2.491-4.269,3.744-6.423
				L369.434,362.099z M379.15,347.631l-9.756,0.401c1.752-3.022,3.507-6.059,5.263-9.108L379.15,347.631z M388.298,330.995
				l-9.821,1.28c1.974-3.444,3.942-6.892,5.898-10.332L388.298,330.995z M387.753,315.981c2.329-4.122,4.634-8.228,6.91-12.301
				l3.628,10.885L387.753,315.981z M380.89,319.416c-5.532,9.735-11.14,19.504-16.662,29.054c-0.356,0.191-0.663,0.471-0.865,0.836
				c-0.191,0.345-0.274,0.729-0.261,1.11c-2.225,3.843-4.432,7.644-6.612,11.392c-0.065,0.076-0.141,0.144-0.195,0.229
				c-0.098,0.153-0.167,0.318-0.222,0.486c-10.387,17.84-20.137,34.364-28.092,47.762c-0.165,0.135-0.317,0.285-0.438,0.467
				c-0.158,0.239-0.251,0.506-0.304,0.78c-9.521,16.027-16.321,27.326-18.312,30.623c-0.771-0.484-1.563-0.981-2.402-1.508
				c-29.267-18.362-91.911-57.371-182.634-112.329c-19.535-11.833-30.556-17.597-37.14-21.039c-5.08-2.656-7.514-3.938-9.407-5.601
				c1.701-2.719,38.9-62.194,74.521-120.714c22.264-36.579,43.809-72.571,55.366-91.943c0.001-0.002,0.002-0.005,0.004-0.007
				c4.127-6.918,6.968-11.695,8.122-13.636c1.087,0.581,2.183,1.164,3.272,1.735c12.98,6.809,31.182,16.568,44.193,24.4
				c13.823,8.321,29.748,17.983,46.392,28.08c18.334,11.123,37.291,22.625,55.42,33.537c12.296,7.402,24.312,14.703,34.958,21.174
				c8.467,5.145,16.069,9.764,22.263,13.492c11.189,6.733,17.925,10.453,19.12,11.108
				C436.681,217.152,410.101,268.001,380.89,319.416z M410.4,296.688l-12.018,0.316c2.418-4.353,4.791-8.646,7.109-12.861
				L410.4,296.688z M407.64,280.232c2.012-3.668,3.972-7.257,5.881-10.766c-0.004,0.267,0.026,0.535,0.123,0.791l4.047,10.667
				L407.64,280.232z M427.301,267.358h-11.656c-0.43,0-0.834,0.142-1.181,0.374c2.132-3.922,4.19-7.726,6.165-11.386
				L427.301,267.358z M435.191,250.252l-11.139-0.268c1.591-2.961,3.117-5.811,4.565-8.522L435.191,250.252z M443.384,235.497
				l-12.378,1.486c2.358-4.428,4.476-8.423,6.318-11.912L443.384,235.497z M439.368,221.194c2.457-4.666,4.248-8.095,5.209-9.938
				l8.106,5.317L439.368,221.194z"/>
		</g>
	</g>
</g>
</svg>
