<?xml version="1.0" encoding="iso-8859-1"?>
<!-- Generator: Adobe Illustrator 15.0.0, SVG Export Plug-In . SVG Version: 6.00 Build 0)  -->
<!DOCTYPE svg PUBLIC "-//W3C//DTD SVG 1.1//EN" "http://www.w3.org/Graphics/SVG/1.1/DTD/svg11.dtd" [
	<!ENTITY ns_extend "http://ns.adobe.com/Extensibility/1.0/">
	<!ENTITY ns_ai "http://ns.adobe.com/AdobeIllustrator/10.0/">
	<!ENTITY ns_graphs "http://ns.adobe.com/Graphs/1.0/">
	<!ENTITY ns_vars "http://ns.adobe.com/Variables/1.0/">
	<!ENTITY ns_imrep "http://ns.adobe.com/ImageReplacement/1.0/">
	<!ENTITY ns_sfw "http://ns.adobe.com/SaveForWeb/1.0/">
	<!ENTITY ns_custom "http://ns.adobe.com/GenericCustomNamespace/1.0/">
	<!ENTITY ns_adobe_xpath "http://ns.adobe.com/XPath/1.0/">
]>
<svg version="1.1" xmlns:x="&ns_extend;" xmlns:i="&ns_ai;" xmlns:graph="&ns_graphs;"
	 xmlns="http://www.w3.org/2000/svg" xmlns:xlink="http://www.w3.org/1999/xlink" x="0px" y="0px" width="512px" height="512px"
	 viewBox="0 0 512 512" style="enable-background:new 0 0 512 512;" xml:space="preserve">
<metadata>
	<sfw  xmlns="&ns_sfw;">
		<slices></slices>
		<sliceSourceBounds  height="512" width="512" x="94" y="94" bottomLeftOrigin="true"></sliceSourceBounds>
	</sfw>
</metadata>
<g id="&#x438;&#x433;&#x440;&#x43E;&#x432;&#x44B;&#x435;_1_">
	<g id="&#x417;&#x430;&#x43B;&#x438;&#x432;&#x43A;&#x430;_&#x446;&#x432;&#x435;&#x442;&#x43E;&#x43C;_1">
		<g>
			<rect x="3.699" y="4.439" style="fill-rule:evenodd;clip-rule:evenodd;fill:#B17D7B;" width="503.121" height="503.121"/>
		</g>
	</g>
	<g id="&#x417;&#x430;&#x43B;&#x438;&#x432;&#x43A;&#x430;_&#x446;&#x432;&#x435;&#x442;&#x43E;&#x43C;_5">
		<g>
			<path style="fill-rule:evenodd;clip-rule:evenodd;fill:#F3D4C3;" d="M484.624,25.156l20.717-20.717H3.699l20.717,20.717H484.624z
				 M24.416,486.844L3.699,507.561h501.642l-20.717-20.717H24.416z"/>
		</g>
	</g>
	
		<g id="&#x417;&#x430;&#x43B;&#x438;&#x432;&#x43A;&#x430;_&#x446;&#x432;&#x435;&#x442;&#x43E;&#x43C;_1_&#x43A;&#x43E;&#x43F;&#x438;&#x44F;_2">
		<g>
			<radialGradient id="SVGID_1_" cx="256.7402" cy="256" r="228.0762" gradientUnits="userSpaceOnUse">
				<stop  offset="0" style="stop-color:#99708E"/>
				<stop  offset="0.2" style="stop-color:#956D8B"/>
				<stop  offset="0.4182" style="stop-color:#886080"/>
				<stop  offset="0.6121" style="stop-color:#734E6D"/>
				<stop  offset="0.7636" style="stop-color:#573A54"/>
				<stop  offset="0.897" style="stop-color:#40293F"/>
				<stop  offset="1" style="stop-color:#331F32"/>
			</radialGradient>
			<polygon style="fill-rule:evenodd;clip-rule:evenodd;fill:url(#SVGID_1_);" points="432.765,27.924 78.856,27.924 28.664,78.116 
				28.664,435.769 76.972,484.076 433.367,484.076 484.816,432.627 484.816,79.976 			"/>
		</g>
	</g>
	
		<g id="&#x417;&#x430;&#x43B;&#x438;&#x432;&#x43A;&#x430;_&#x446;&#x432;&#x435;&#x442;&#x43E;&#x43C;_1_&#x43A;&#x43E;&#x43F;&#x438;&#x44F;">
		<g>
			<path style="fill-rule:evenodd;clip-rule:evenodd;fill:#F2D2C0;" d="M25.109,24.37v463.26h463.26V24.37H25.109z M466.659,418.566
				l-47.353,47.353H91.283l-44.462-44.462V92.277l46.196-46.196h325.734l47.908,47.907V418.566z"/>
		</g>
	</g>
	<g id="&#x424;&#x438;&#x433;&#x443;&#x440;&#x430;_3">
		<g>
			<path style="fill-rule:evenodd;clip-rule:evenodd;fill:#A18180;" d="M429.873,25.156l-344.047-1.48l-62.15,62.891v342.566
				l59.931,59.19l344.046-0.739l59.931-59.191V84.347L429.873,25.156z M477.226,423.954l-56.231,54.751H91.006l-56.231-54.751
				V88.046l54.012-54.012h334.428l54.751,56.231L477.226,423.954z"/>
		</g>
	</g>
	<g id="&#x417;&#x430;&#x43B;&#x438;&#x432;&#x43A;&#x430;_&#x446;&#x432;&#x435;&#x442;&#x43E;&#x43C;_6">
		<g>
			<path style="fill-rule:evenodd;clip-rule:evenodd;fill:#C7907F;" d="M23.676,86.566l62.52-62.752l-62.52-0.139V86.566z
				 M487.584,23.63l-62.521,0.139l62.521,62.752V23.63z M22.196,488.37l62.521-0.139l-62.521-62.752V488.37z M425.803,488.971
				l62.521,0.139v-62.89L425.803,488.971z"/>
		</g>
	</g>
	
		<g id="&#x417;&#x430;&#x43B;&#x438;&#x432;&#x43A;&#x430;_&#x446;&#x432;&#x435;&#x442;&#x43E;&#x43C;_6_&#x43A;&#x43E;&#x43F;&#x438;&#x44F;">
		<g>
			<path style="fill-rule:evenodd;clip-rule:evenodd;fill:#FDECE7;" d="M27.964,485.886l56.753,2.346L55.27,458.579L27.964,485.886z
				 M54.694,55.434l31.502-31.619l-59.314,3.562L54.694,55.434z M425.803,488.971l59.314-3.113l-28.158-28.158L425.803,488.971z
				 M485.117,26.582l-60.054-2.813l31.376,31.491L485.117,26.582z"/>
		</g>
	</g>
	<g id="&#x424;&#x438;&#x433;&#x443;&#x440;&#x430;_1">
		<g>
			<path style="fill-rule:evenodd;clip-rule:evenodd;fill:#C7907F;" d="M34.774,487.769l0.093-9.156h-8.417L34.774,487.769z
				 M477.04,477.873l0.093,9.155l8.323-9.155H477.04z M476.393,25.804l-0.092,9.156h8.416L476.393,25.804z M26.451,34.96h8.417
				l-0.093-9.156L26.451,34.96z"/>
		</g>
	</g>
	<g id="&#x424;&#x438;&#x433;&#x443;&#x440;&#x430;_2">
		<g>
			<path style="fill-rule:evenodd;clip-rule:evenodd;fill:#FDECE7;" d="M22.597,480.813L9.026,497.72l-1.627,10.285l22.418-0.296
				l0.532-18.644l-3.492-6.957L22.597,480.813z M508.448,495.817l-18.855-14.581l-4.261,4.043l-3.068,4.209l2.646,16.529
				l23.688,1.353L508.448,495.817z M21.002,31.648l4.26-1.295l3.492-6.956L28.222,4.754L5.803,4.458l1.628,10.284L21.002,31.648z
				 M487.997,31.226l18.856-14.581l0.147-11.553l-23.687,1.353l-2.646,16.53l3.069,4.208L487.997,31.226z"/>
		</g>
	</g>
	<g id="&#x417;&#x430;&#x43B;&#x438;&#x432;&#x43A;&#x430;_&#x446;&#x432;&#x435;&#x442;&#x43E;&#x43C;_2">
		<g>
			<path style="fill-rule:evenodd;clip-rule:evenodd;fill:#2F181B;" d="M0,0v512h512V0H0z M503.121,503.121H8.878V8.879h494.243
				V503.121z"/>
		</g>
	</g>
	<g id="&#x417;&#x430;&#x43B;&#x438;&#x432;&#x43A;&#x430;_&#x446;&#x432;&#x435;&#x442;&#x43E;&#x43C;_3">
		<g>
			<path style="fill-rule:evenodd;clip-rule:evenodd;fill:#40292E;" d="M482.33,20.67H29.346l-9.369,9.369v397.468
				c-0.119,0.585-0.119,1.188,0,1.771v53.925l9.606,9.605h453.025l9.507-9.507V30.455L482.33,20.67z M28.855,34.183l4.633-4.634
				h40.974L28.855,75.156V34.183z M33.726,483.931l-4.871-4.871v-39.857l44.728,44.729H33.726z M483.237,479.158l-4.772,4.772
				H437.63l45.607-45.607V479.158z M483.237,425.769l-58.162,58.162H86.139l-57.283-57.283V87.711l58.162-58.162h338.058
				l58.162,58.162V425.769z M483.237,75.156L437.63,29.549h40.558l5.05,5.05V75.156z"/>
		</g>
	</g>
	
		<g id="&#x417;&#x430;&#x43B;&#x438;&#x432;&#x43A;&#x430;_&#x446;&#x432;&#x435;&#x442;&#x43E;&#x43C;_4_&#x43A;&#x43E;&#x43F;&#x438;&#x44F;" style="opacity:0.502;">
		<g>
			<path style="fill-rule:evenodd;clip-rule:evenodd;fill:#876867;" d="M465.59,92.913l-47.243-47.244
				c-0.685-0.685-1.612-1.068-2.579-1.068H94.545c-0.968,0-1.896,0.384-2.58,1.068L46.409,91.227
				c-0.684,0.684-1.069,1.611-1.069,2.579v324.619c0,0.968,0.385,1.896,1.069,2.579l43.847,43.847
				c0.684,0.684,1.612,1.068,2.579,1.068h323.479c0.968,0,1.896-0.385,2.579-1.068l46.696-46.696
				c0.685-0.685,1.069-1.612,1.069-2.58V95.493C466.659,94.525,466.274,93.598,465.59,92.913z M459.363,414.063l-44.56,44.56H94.346
				l-41.709-41.709V95.316l43.419-43.419h318.201l45.106,45.106V414.063z"/>
		</g>
	</g>
	<g id="&#x417;&#x430;&#x43B;&#x438;&#x432;&#x43A;&#x430;_&#x446;&#x432;&#x435;&#x442;&#x43E;&#x43C;_4">
		<g>
			<path style="fill-rule:evenodd;clip-rule:evenodd;fill:#40292E;" d="M468.534,90.633l-47.907-47.907
				c-0.693-0.694-1.635-1.084-2.615-1.084H92.277c-0.981,0-1.922,0.39-2.616,1.084L43.465,88.922
				c-0.693,0.693-1.083,1.635-1.083,2.615v329.18c0,0.981,0.39,1.922,1.083,2.615l44.463,44.463
				c0.694,0.693,1.634,1.084,2.615,1.084h328.023c0.981,0,1.922-0.391,2.615-1.084l47.353-47.353
				c0.694-0.694,1.084-1.635,1.084-2.616V93.248C469.618,92.268,469.229,91.326,468.534,90.633z M462.22,416.295l-45.186,45.185
				H92.075L49.78,419.185V93.07l44.029-44.03h322.67l45.74,45.741V416.295z"/>
		</g>
	</g>
</g>
<g id="&#x418;&#x437;&#x43E;&#x431;&#x440;&#x430;&#x436;&#x435;&#x43D;&#x438;&#x435;_xA0_260_1_">
	<g id="&#x424;&#x438;&#x433;&#x443;&#x440;&#x430;_78_1_" style="opacity:0.502;">
		<g>
			<path style="fill-rule:evenodd;clip-rule:evenodd;fill:#331F32;" d="M462.044,213.321
				c-1.025-69.463-27.241-17.879-128.716-79.405c-101.476-61.527-76.151-91.177-128.762-75.84
				c-47.672,13.898-36.872,71.111-68.057,122.416c-41.451,68.195-81.993,51.088-83.8,108.891
				c-1.382,44.229,37.719,34.286,135.182,92.604c97.463,58.316,68.743,91.487,133.889,75.883
				c38.343-9.184,26.019-66.803,61.175-128.097C417.93,268.793,463.07,282.784,462.044,213.321z"/>
		</g>
	</g>
	<g id="&#x424;&#x438;&#x433;&#x443;&#x440;&#x430;_69_&#x43A;&#x43E;&#x43F;&#x438;&#x44F;_2_1_">
		<g>
			<path style="fill-rule:evenodd;clip-rule:evenodd;fill:#9D88A7;" d="M421.579,195.593c-13.981-8.416-35.148-21.378-57.222-34.665
				c-34.69-20.881-72.856-44.188-101.813-61.618c-13.112-7.893-48.789-27.314-48.789-27.314s-29.539,51.514-64.977,107.575
				c-37.975,60.075-76.139,122.307-76.139,122.307c4.786,4.415,13.523,6.555,48.762,27.901
				c91.842,55.635,185.995,114.6,185.995,114.6s39.085-65.86,74.949-127.549c32.361-55.662,59.367-109.705,59.367-109.705
				S433.997,203.067,421.579,195.593z"/>
		</g>
	</g>
	<g id="&#x424;&#x438;&#x433;&#x443;&#x440;&#x430;_81">
		<g>
			<path style="fill-rule:evenodd;clip-rule:evenodd;fill:#6E5979;" d="M421.873,213.723c-2.353-13.519-50.902-33.221-99.752-60.845
				c-45.561-25.765-91.19-60.13-104.981-56.859c-13.703,3.249-32.808,53.313-59.589,96.065
				c-29.076,46.415-65.199,86.274-60.256,102.962c4.621,15.597,53.428,36.861,98.366,65.04
				c47.422,29.736,91.381,65.951,107.795,63.364c15.605-2.46,32.038-55.307,62.298-99.803
				C397.62,276.789,424.201,227.095,421.873,213.723z"/>
		</g>
	</g>
	<g id="&#x424;&#x438;&#x433;&#x443;&#x440;&#x430;_82">
		<g>
			<path style="fill-rule:evenodd;clip-rule:evenodd;fill:#CFB7DE;" d="M125.251,301.964c-3.228-2.95-11.308-11.99-8.244-19.924
				c1.981-5.13,4.331-10.377,6.861-15.56l81.144-131.94c-10.832,6.133-28.084,32.592-42.614,57.091
				c-4.709,7.939-14.316,19.668-18.318,27.292c-5.794,7.77-36.866,50.239-36.887,67.474c-0.02,16.279,19.382,30.427,61.641,54.266
				c48.828,27.545,93.068,48.234,93.068,48.234s-25.158-17.08-57.408-36.642C175.149,334.456,139.195,314.703,125.251,301.964z
				 M303.443,428.838c-9.777,2.428-40.069-12.923-40.069-12.923l43.56,27.821l23.273-39.636
				C330.207,404.101,312.783,426.52,303.443,428.838z M391.764,199.158c0,0-23.528-17.731-67.734-41.824
				c-25.237-13.756-42.27-25.137-68.369-34.208c0,0,30.589,20.577,63.214,39.51C354.918,183.552,391.764,199.158,391.764,199.158z
				 M368.88,320.73c18.251-29.826,34.248-69.208,36.051-79.722L317.01,390.636C317.01,390.636,344.719,360.215,368.88,320.73z
				 M440.421,207.303l-13.175-8.404c2.524,1.124,3.901,1.716,3.901,1.716s-66.651-41.225-123.083-74.7
				c-21.348-12.665-41.639-24.462-57.62-33.677c2.173,0.643,3.522,1.062,3.522,1.062l-21.02-11.109
				c-9.893-5.657-15.808-8.999-15.808-8.999c0.333,0.393,0.714,0.809,1.115,1.234l-5.208-2.753l-18.908,32.546L88.735,272.932
				c5.535,0.859,40.893-43.237,66.314-86.043c20.901-35.194,36.494-70.054,43.4-86.335c5.704-5.621,14.501-13.801,18.546-14.985
				c2.657-0.778,9.752,0.508,17.024,2.241c22.811,17.281,61.252,41.703,88.795,57.563c37.687,21.701,71.02,38.041,90.443,47.127
				c5.706,5.812,12.845,13.686,14.302,18.063c2.333,7.009-4.839,31.74-4.839,31.74L440.421,207.303z"/>
		</g>
	</g>
	<g id="&#x417;&#x430;&#x43B;&#x438;&#x432;&#x43A;&#x430;_&#x446;&#x432;&#x435;&#x442;&#x43E;&#x43C;_67">
		<g>
			<path style="fill-rule:evenodd;clip-rule:evenodd;fill:#6E5979;" d="M443.283,203.019c-0.076-0.04-7.787-4.105-19.956-11.431
				c-6.175-3.716-13.753-8.321-22.191-13.45c-10.666-6.48-22.706-13.797-35.03-21.214c-18.098-10.895-37.027-22.38-55.336-33.487
				c-16.673-10.116-32.627-19.795-46.475-28.131c-13.027-7.842-48.564-27.197-48.922-27.392c-1.7-0.927-3.833-0.324-4.8,1.358
				c-0.295,0.515-29.906,52.088-64.898,107.443c-37.554,59.41-75.783,121.728-76.165,122.35c-0.89,1.452-0.629,3.332,0.623,4.486
				c2.476,2.284,5.479,3.847,11.466,6.961c6.875,3.578,18.38,9.565,37.866,21.369c90.768,54.982,185.01,113.981,185.949,114.57
				c0.572,0.358,1.229,0.544,1.895,0.544c0.281,0,0.563-0.034,0.84-0.101c0.934-0.228,1.736-0.82,2.228-1.646
				c0.39-0.658,39.502-66.578,74.964-127.574c32.048-55.124,59.205-109.363,59.475-109.904
				C445.683,206.034,445.001,203.922,443.283,203.019z M379.173,314.088c-31.034,53.382-64.868,110.539-73.07,124.38
				c-17.04-10.649-101.39-63.286-182.943-112.688c-19.683-11.924-31.317-17.978-38.269-21.595c-3.505-1.823-5.882-3.061-7.605-4.149
				c7.818-12.722,41.381-67.242,74.419-119.508c30.223-47.81,56.446-92.816,63.311-104.681c8.918,4.876,34.943,19.156,45.601,25.571
				c13.841,8.332,29.788,18.007,46.454,28.118c18.313,11.109,37.248,22.599,55.357,33.5c12.313,7.411,24.346,14.723,35.003,21.198
				c8.449,5.135,16.037,9.745,22.219,13.466c7.898,4.755,13.867,8.114,17.229,9.964
				C430.682,219.901,406.746,266.662,379.173,314.088z"/>
		</g>
	</g>
	<g id="&#x424;&#x438;&#x433;&#x443;&#x440;&#x430;_70_1_">
		<g>
			<path style="fill-rule:evenodd;clip-rule:evenodd;fill:#973F1F;" d="M408.319,224.423c-1.649-25.146-41.935-34.669-96.585-66.54
				c-42.911-25.025-59.908-43.896-84.652-39.037c-24.745,4.86-36.754,42.641-61.909,81.3c-24.257,37.28-51.561,73.943-47.904,89.193
				c4.603,19.191,44.62,39.246,85.539,63.836c45.914,27.592,74.667,53.274,96.457,51.639c9.917-0.744,15.525-10.97,22.526-22.834
				c8.514-14.432,18.682-32.828,36.021-59.052c14.013-21.192,25.778-42.532,35.232-59.119
				C402.069,247.974,409.125,236.704,408.319,224.423z"/>
		</g>
	</g>
	<g id="&#x424;&#x438;&#x433;&#x443;&#x440;&#x430;_73_1_">
		<g>
			<path style="fill-rule:evenodd;clip-rule:evenodd;fill:#722C19;" d="M406.865,218.728c-2.624-6.314-9.023-14.189-9.023-14.189
				s-2.901,21.229-24.65,18.819c-11.472-1.271-32.396-17.54-43.811-20.283c-10.545-2.534-20.166-5.814-27.201-10.06
				c-7.445-4.493-15.57-12.386-23.401-21.409c-7.604-8.761-33.568-12.212-39.731-21.028c-10.051-14.378,1.633-32.444,1.633-32.444
				s-8.851-1.551-14.832-0.099c-6.982,1.694-11.25,6.43-11.25,6.43s16.292,9.189,16.694,25.077
				c0.276,10.938-13.757,25.99-18.423,39.611c-3.324,9.704-7.618,19.173-13.163,27.452c-5.288,7.896-11.514,14.928-18.115,21.132
				c-12.248,11.513-21.598,33.02-32.846,39.091c-13.989,7.55-28.623-1.756-28.623-1.756c-10.611,10.255,1.694,23.987,1.694,23.987
				s10.996-14.217,27.565-14.407c12.099-0.14,27.378,12.674,42.485,16.853c12.556,3.473,24.917,8.324,35.403,15.094
				c10.388,6.706,19.244,15.01,26.71,23.782c9.405,11.05,31.231,16.869,36.52,27.152c8.296,16.129-2.739,34.517-2.739,34.517
				s8.369,4.8,15.615,1.939c6.231-2.46,11.492-12.64,11.492-12.64s-17.207-5.695-17.715-23.937
				c-0.293-10.549,14.08-30.19,17.113-42.689c2.416-9.953,6.294-20.042,12.279-29.499c4.657-7.358,11.244-14.695,18.678-21.661
				c9.761-9.146,18.219-32.675,28.454-39.744c17.205-11.883,32.691,5.213,32.691,5.213S409.349,224.701,406.865,218.728z"/>
		</g>
	</g>
	<g id="&#x424;&#x438;&#x433;&#x443;&#x440;&#x430;_72_1_">
		<g>
			<path style="fill-rule:evenodd;clip-rule:evenodd;fill:#BB5D38;" d="M182.174,204.356c18.414-31.968,30.908-78.867,30.908-78.867
				s-14.883,17.311-25.204,34.585c-6.529,10.928-14.015,26.578-21.931,39.378c-9.355,15.128-20.264,28.563-28.053,40.722
				c-9.933,15.504-15.631,27.897-15.631,27.897S163.761,236.324,182.174,204.356z M208.747,338.398
				c-34.954-21.267-77.211-31.806-77.211-31.806s37.556,24.725,72.516,48.032c34.59,23.06,77.558,45.686,77.558,45.686
				S243.702,359.666,208.747,338.398z M314.865,159.514c-29.472-17.12-68.969-39.107-68.969-39.107s25.262,30.746,66.637,53.707
				c41.374,22.962,80.494,29.132,80.494,29.132S349.123,179.412,314.865,159.514z M350.748,303.825
				c-18.146,30.273-34.273,84.136-34.273,84.136s24.93-39.969,45.053-73.906c21.891-36.917,43.983-73.626,43.983-73.626
				S368.894,273.552,350.748,303.825z"/>
		</g>
	</g>
	<g id="&#x417;&#x430;&#x43B;&#x438;&#x432;&#x43A;&#x430;_&#x446;&#x432;&#x435;&#x442;&#x43E;&#x43C;_55_1_">
		<g>
			<ellipse style="fill-rule:evenodd;clip-rule:evenodd;fill:#943E1E;" cx="264.667" cy="256.368" rx="81.59" ry="84.332"/>
		</g>
	</g>
	<g id="&#x424;&#x438;&#x433;&#x443;&#x440;&#x430;_74_1_">
		<g>
			<path style="fill-rule:evenodd;clip-rule:evenodd;fill:#602413;" d="M322.813,314.184c0.462-0.489,0.706-0.77,0.706-0.77
				S323.274,313.691,322.813,314.184z M289.866,335.448c-20.253,7.295-48.689,8.22-71.255-9.113
				c-19.588-15.046-30.624-35.453-34.375-51.957c-5.085-22.374,0.401-36.49,0.401-36.49s-27.436,58.314,29.633,96.568
				c53.218,35.673,102.178-13.478,108.543-20.272C319.915,317.254,308.121,328.873,289.866,335.448z"/>
		</g>
	</g>
	
		<g id="&#x417;&#x430;&#x43B;&#x438;&#x432;&#x43A;&#x430;_&#x446;&#x432;&#x435;&#x442;&#x43E;&#x43C;_52_&#x43A;&#x43E;&#x43F;&#x438;&#x44F;" style="opacity:0.502;">
		<g>
			<path style="fill-rule:evenodd;clip-rule:evenodd;fill:#C69DAD;" d="M152.704,292.191c0.738-7.056-6.939-9.598-10.673-3.015
				c-2.051,3.616,0.52,6.83,1.925,9.518c1.363,2.606,1.818,5.385,1.6,6.338c0.653-0.688,3.461-1.717,6.236-2.016
				c3.034-0.327,7.11,0.286,9.111-3.358C164.555,293.008,158.083,288.023,152.704,292.191z M150.192,258.796l-6.048-5.082
				l0.041-7.898l-6.701,4.182l-4.079-1.349c-0.761,1.234-1.506,2.455-2.23,3.659l0.715,2.876l-4.675,6.366l7.879,0.556l4.61,6.415
				l2.964-7.322L150.192,258.796z M119.568,294.924l0.007-1.482l-0.594,0.37C119.171,294.183,119.355,294.553,119.568,294.924z
				 M164.326,324.747c1.593,1.939,2.127,4.429,1.735,6.768c1.911,1.142,3.855,2.293,5.823,3.453
				c0.005-2.386-0.739-4.787-2.372-6.774C168.111,326.488,166.292,325.332,164.326,324.747z M177.313,244.566
				c0.738-7.057-6.939-9.599-10.673-3.015c-2.051,3.615,0.519,6.829,1.925,9.518c1.363,2.606,1.818,5.385,1.6,6.338
				c0.653-0.688,3.461-1.718,6.236-2.017c1.485-0.159,4.839-0.414,4.839-0.414l1.989-11.635
				C183.229,243.342,179.328,243.005,177.313,244.566z M208.198,262.876c3.034-0.326,7.11,0.286,9.111-3.357
				c3.652-6.651-2.821-11.635-8.2-7.467c0.738-7.057-6.938-9.599-10.673-3.015c-2.051,3.615,0.52,6.829,1.925,9.518
				c1.363,2.605,1.818,5.385,1.6,6.338C202.615,264.204,205.422,263.175,208.198,262.876z M201.95,199.406
				c-1.594-4.256-7.253-4.949-10.295,0.414c-2.051,3.616,0.52,6.83,1.925,9.518C199.831,207.06,199.063,205.062,201.95,199.406z
				 M200.813,172.953l-6.047-5.082l0.041-7.898l-6.701,4.181l-1.571-0.52c-2.197,3.939-4.453,8.021-6.809,12.206l5.989,0.423
				l4.61,6.414l2.964-7.321L200.813,172.953z M160.109,220.375l4.61,6.414l2.963-7.321l7.525-2.402l-6.047-5.082l0.04-7.898
				l-6.701,4.181l-2.18-0.721c-1.184,1.792-2.368,3.577-3.551,5.356l0.137,0.551l-4.676,6.366L160.109,220.375z M296.29,148.504
				l-1.112,1.516l3.987,0.281C298.194,149.697,297.232,149.097,296.29,148.504z M308.158,155.774
				c-0.813-0.483-1.605-0.961-2.399-1.439l1.908,2.654L308.158,155.774z M309.69,183.21c1.363,2.605,1.817,5.385,1.601,6.338
				c0.652-0.688,3.461-1.718,6.236-2.017c3.033-0.326,7.11,0.286,9.11-3.357c3.652-6.651-2.82-11.635-8.199-7.467
				c0.737-7.057-6.938-9.599-10.673-3.015C305.715,177.308,308.285,180.521,309.69,183.21z M270.041,159.104
				c4.544-3.734,5.201-10.445,1.468-14.989c-1.4-1.704-3.22-2.861-5.186-3.446c2.91,3.542,2.405,8.938-1.137,11.849
				s-8.772,2.398-11.683-1.145c-0.326-0.396-0.603-0.871-0.843-1.305c-0.201,2.641,0.576,5.36,2.39,7.568
				C258.785,162.18,265.496,162.837,270.041,159.104z M292.795,204.971c0.654-0.688,3.462-1.718,6.236-2.017
				c3.035-0.326,7.111,0.286,9.111-3.357c3.652-6.651-2.82-11.636-8.199-7.467c0.738-7.057-6.938-9.599-10.673-3.015
				c-2.052,3.615,0.52,6.829,1.925,9.517C292.559,201.238,293.014,204.017,292.795,204.971z M403.68,211.975
				c-0.51-0.707-1.054-1.405-1.643-2.094c0.32,1.284,0.41,2.356,0.292,2.877C402.552,212.522,403.041,212.247,403.68,211.975z
				 M216.628,133.779l2.964-7.321l7.525-2.402l-4.621-3.883c-3.974,1.528-7.62,3.975-11.075,7.15l0.597,0.042L216.628,133.779z
				 M247.09,122.667c0.416-0.438,1.704-1.012,3.298-1.449c-1.187-0.456-2.368-0.878-3.541-1.238
				C247.13,121.18,247.203,122.172,247.09,122.667z M328.117,279.492c3.652-6.65-2.82-11.635-8.199-7.467
				c0.738-7.056-6.939-9.598-10.674-3.015c-2.051,3.616,0.52,6.83,1.926,9.518c1.363,2.606,1.817,5.385,1.6,6.338
				c0.653-0.688,3.461-1.717,6.236-2.016C322.041,282.523,326.117,283.136,328.117,279.492z M359.743,183.235
				c-5.041-2.52-10.39-5.179-16.012-8.038c0.209,2.005,0.982,3.974,2.358,5.648C349.474,184.964,355.298,185.877,359.743,183.235z
				 M333.783,335.099c0.738-7.057-6.938-9.599-10.673-3.015c-2.052,3.615,0.52,6.829,1.925,9.518
				c1.363,2.605,1.818,5.385,1.601,6.338c0.653-0.688,3.461-1.718,6.236-2.017c3.034-0.326,7.11,0.286,9.11-3.357
				C345.635,335.914,339.162,330.931,333.783,335.099z M356.751,258.259l-6.048-5.082l0.04-7.898l-5.327,3.682l-0.527,19.184
				l4.337-7.482L356.751,258.259z M383.871,244.029c0.738-7.057-6.938-9.599-10.673-3.015c-2.051,3.615,0.52,6.829,1.925,9.518
				c1.363,2.606,1.818,5.385,1.601,6.338c0.653-0.688,3.461-1.718,6.236-2.017c3.034-0.326,7.11,0.286,9.11-3.357
				C395.723,244.845,389.25,239.861,383.871,244.029z M358.855,285.76c0.738-7.056-6.938-9.598-10.673-3.015
				c-2.051,3.616,0.519,6.83,1.925,9.518c1.363,2.606,1.818,5.385,1.601,6.338c0.653-0.688,3.461-1.717,6.236-2.016
				c3.034-0.327,7.11,0.285,9.111-3.358C370.707,286.576,364.234,281.592,358.855,285.76z M382.355,214.146l-6.047-5.082l0.04-7.898
				l-6.701,4.182l-7.5-2.479l1.906,7.666l-4.676,6.366l7.879,0.556l4.61,6.415l2.964-7.322L382.355,214.146z M273.818,380.019
				l-6.701,4.182l-7.5-2.479l1.905,7.666l-0.733,0.998c3.834,2.354,7.486,4.483,10.976,6.34l0.536-1.323l7.524-2.402l-6.048-5.081
				L273.818,380.019z M227.933,158.723c0.738-7.056-6.938-9.598-10.673-3.014c-2.051,3.615,0.52,6.829,1.925,9.517
				c1.363,2.606,1.818,5.385,1.6,6.338c0.653-0.688,3.461-1.717,6.236-2.016c3.034-0.327,7.11,0.286,9.111-3.358
				C239.785,159.539,233.312,154.555,227.933,158.723z M217.194,206.396c0.738-7.056-6.938-9.598-10.673-3.015
				c-2.051,3.616,0.52,6.83,1.926,9.518c1.363,2.606,1.817,5.385,1.6,6.338c0.653-0.688,3.461-1.717,6.236-2.016
				c3.034-0.327,7.111,0.285,9.111-3.358C229.045,207.212,222.573,202.229,217.194,206.396z M306.945,378.77
				c0.738-7.056-6.938-9.599-10.672-3.015c-2.052,3.615,0.519,6.83,1.924,9.518c1.363,2.606,1.818,5.385,1.601,6.338
				c0.653-0.688,3.462-1.718,6.236-2.017c3.034-0.326,7.11,0.286,9.111-3.357C318.797,379.585,312.324,374.602,306.945,378.77z
				 M262.488,191.036c3.652-6.651-2.82-11.635-8.2-7.467c0.738-7.057-6.939-9.599-10.673-3.015c-2.051,3.615,0.52,6.829,1.926,9.518
				c1.363,2.605,1.817,5.385,1.6,6.338c0.653-0.688,3.461-1.718,6.236-2.017C256.411,194.067,260.488,194.68,262.488,191.036z
				 M216.441,360.785c0.652-6.235-5.263-8.934-9.226-4.936c6.3,3.857,12.258,7.657,17.92,11.336
				C227.578,361.089,221.527,356.845,216.441,360.785z M299.139,351.73l7.523-2.402l-6.047-5.082l0.041-7.898l-6.702,4.182
				l-7.499-2.479l1.904,7.666l-4.675,6.366l7.88,0.556l4.609,6.414L299.139,351.73z M289.045,312.812
				c3.034-0.327,7.11,0.286,9.111-3.358c3.652-6.65-2.82-11.635-8.199-7.467c0.737-7.056-6.939-9.598-10.674-3.015
				c-2.051,3.616,0.52,6.83,1.926,9.518c1.363,2.606,1.817,5.385,1.6,6.338C283.462,314.139,286.27,313.11,289.045,312.812z"/>
		</g>
	</g>
	<g id="&#x417;&#x430;&#x43B;&#x438;&#x432;&#x43A;&#x430;_&#x446;&#x432;&#x435;&#x442;&#x43E;&#x43C;_58_1_">
		<g>
			<path style="fill-rule:evenodd;clip-rule:evenodd;fill:#542012;" d="M412.003,224.224c-1.283-19.567-22.053-29.932-53.49-45.619
				c-13.31-6.641-28.392-14.167-44.855-23.769c-11.569-6.747-21.22-13.029-29.733-18.57c-20.092-13.079-33.366-21.719-49.027-21.719
				c-2.744,0-5.562,0.28-8.377,0.833c-19.202,3.771-30.656,24.378-45.158,50.469c-5.818,10.467-11.834,21.29-19.054,32.386
				c-4.154,6.384-8.431,12.801-12.568,19.007c-21.038,31.561-39.207,58.817-35.814,72.963c4.183,17.444,31.82,33.598,66.81,54.049
				c6.637,3.879,13.5,7.89,20.36,12.013c13.414,8.062,25.483,16.042,36.131,23.084c25.58,16.917,44.063,29.139,60.158,29.139
				c0.764,0,1.523-0.028,2.272-0.084c11.368-0.853,17.438-11.171,24.469-23.118l0.861-1.46c1.694-2.872,3.452-5.899,5.321-9.113
				c7.468-12.854,16.764-28.851,30.603-49.783c12.118-18.326,22.728-37.049,31.253-52.093c1.413-2.493,2.781-4.908,4.104-7.228
				l1.882-3.291C406.348,248.009,412.822,236.707,412.003,224.224z M391.961,258.771l-1.891,3.305
				c-1.326,2.327-2.697,4.746-4.113,7.245c-8.471,14.949-19.014,33.554-30.995,51.674c-13.954,21.105-23.308,37.201-30.821,50.135
				c-1.861,3.2-3.611,6.214-5.298,9.071l-0.864,1.468c-6.262,10.643-11.21,19.049-18.855,19.623
				c-14.226,1.059-32.392-10.982-57.962-27.891c-10.708-7.082-22.845-15.107-36.392-23.249c-6.897-4.145-13.779-8.167-20.435-12.057
				c-30.855-18.035-59.999-35.069-63.472-49.554c-2.667-11.117,16.387-39.7,34.813-67.343c4.148-6.223,8.437-12.656,12.612-19.073
				c7.354-11.303,13.706-22.729,19.31-32.811c13.602-24.472,24.346-43.802,40.297-46.935c2.396-0.471,4.687-0.699,7.002-0.699
				c13.545,0,26.111,8.181,45.135,20.563c8.583,5.587,18.311,11.919,30.031,18.754c16.666,9.719,31.858,17.301,45.265,23.989
				c29.231,14.587,48.543,24.224,49.558,39.703C405.563,235.028,399.857,244.987,391.961,258.771z"/>
		</g>
	</g>
	<g id="&#x424;&#x438;&#x433;&#x443;&#x440;&#x430;_75_1_">
		<g>
			<path style="fill-rule:evenodd;clip-rule:evenodd;fill:#7A2F1B;" d="M294.973,320.373c-28.974,12.354-56.238,6.4-73.596-8.134
				c-17.358-14.535-30.521-38.979-28.933-66.71c0.568-9.93,3.304-20.615,7.11-29.548c7.382-17.323,18.944-30.153,18.944-30.153
				s-15.591,11.967-23.754,25.586c-5.73,9.561-11.008,23.181-12.296,36.385c-3.043,31.182,8.569,59.262,33.894,77.162
				s57.474,20.902,83.428,6.077c12.896-7.366,25.888-18.713,33.108-30.479c10.232-16.673,11.953-33.334,11.953-33.334
				S326.176,307.068,294.973,320.373z"/>
		</g>
	</g>
	<g id="&#x424;&#x438;&#x433;&#x443;&#x440;&#x430;_77_1_">
		<g>
			<path style="fill-rule:evenodd;clip-rule:evenodd;fill:#BB5D38;" d="M343.642,233.696c-0.921-2.11-2.88-12.088-13.025-26.502
				c-5.962-8.47-15.891-19.416-25.313-24.708c-11.095-6.231-24.626-10.463-36.352-11.027c-16.378-0.788-25.299,0.978-29.46,3.742
				c20.718,3.358,32.727-0.452,57.544,13.486C324.188,203.938,328.84,217.646,343.642,233.696z M201.615,219.307
				c6.917-15.523,22.42-36.27,22.42-36.27s-20.579,16.176-27.898,34.65c-8.828,22.282-2.675,44.962-2.675,44.962
				S193.256,238.067,201.615,219.307z M238.464,311.198c-18.188-7.22-33.882-22.291-42.621-37.896
				c0.297,12.454,18.203,37.177,38.461,46.893c26.575,12.745,59.877,4.93,69.107-4.521
				C290.526,320.429,264.609,321.576,238.464,311.198z M335.183,274.89c-7.083,17.249-18.173,30.143-18.173,30.143
				s14.533-9.263,22.675-26.233c5.616-11.705,3.481-30.835,3.481-30.835S340.793,261.225,335.183,274.89z"/>
		</g>
	</g>
	<g id="&#x417;&#x430;&#x43B;&#x438;&#x432;&#x43A;&#x430;_&#x446;&#x432;&#x435;&#x442;&#x43E;&#x43C;_70" style="opacity:0.502;">
		<g>
			<path style="fill-rule:evenodd;clip-rule:evenodd;fill:#AF6E66;" d="M333.424,217.229c-0.723-1.402-2.16-2.295-3.74-2.318h-0.195
				c-1.81,0-11.268,0.201-19.693,4.179c-6.278,2.965-12.439,7.118-17.011,10.514c-0.255-3.955-1.036-8.793-2.925-13.968
				c-1.693-4.634-4.578-9.209-7.123-13.244c-1.103-1.747-2.144-3.397-2.947-4.836c-2.564-4.589-4.01-8.97-4.023-9.01
				c-0.499-1.532-1.816-2.654-3.407-2.904c-1.591-0.247-3.188,0.416-4.132,1.723c-0.291,0.402-7.114,9.975-6.602,20.343
				c0.371,7.49,2.899,15.344,5.101,20.896c-1.488-0.155-3.054-0.26-4.583-0.26c-2.888,0-5.207,0.358-7.091,1.096
				c-4.099,1.604-5.062,4.984-5.699,7.223c-0.285,1.002-0.531,1.865-0.99,2.548c-0.34,0.505-0.597,0.643-1.194,0.643
				c-2.016,0-5.128-1.788-7.55-3.608c0.081-0.931-0.015-1.962-0.444-3.022c-0.642-1.588-2.207-3.635-6.013-4.369
				c-0.595-0.114-1.186-0.172-1.756-0.172c-5.264,0-8.096,4.675-8.252,9.416c-0.226,1.521-0.613,6.147,2.143,10.222
				c-0.145,4.245,1.683,7.517,3.792,10.146c-0.286-0.102-0.585-0.174-0.895-0.214c-1.673-0.218-3.323,0.576-4.201,2.02
				l-13.134,21.588c-0.862,1.417-0.828,3.203,0.086,4.585c0.914,1.384,2.545,2.121,4.185,1.876l12.69-1.84l3.603,13.545
				c0.423,1.592,1.725,2.8,3.344,3.105c0.265,0.05,0.529,0.073,0.792,0.073c1.349,0,2.638-0.638,3.453-1.75l8.543-11.654
				c1.926,3.126,4.984,4.212,5.369,4.339c1.525,0.497,3.203,0.104,4.346-1.024c0.932-0.921,3.156-2.948,5.607-4.743
				c-0.174,1.894,0.092,3.975,0.97,6.212c0.473,1.206,1.468,2.135,2.704,2.521c1.239,0.392,2.584,0.192,3.66-0.525
				c1.154-0.771,3.042-1.729,5.227-2.836c6.08-3.081,14.406-7.301,19.848-14.031c2.981-3.834,3.73-11.476,3.909-15.883
				c3.2-1.54,8.421-4.81,13.89-11.393c4.988-6.007,9.583-13.769,13.273-20.007l1.332-2.246c2.834-4.756,5.429-8.522,5.453-8.56
				C334.041,220.323,334.148,218.634,333.424,217.229z M222.895,278.544l3.413-5.609l1.469,4.903L222.895,278.544z M235.342,273.264
				l-3.517-11.741c0.029,0.031,0.059,0.063,0.088,0.093c0.403,0.423,0.801,0.84,1.187,1.261c2.593,2.83,5.335,5.041,7.699,6.682
				L235.342,273.264z M320.336,225.803l-1.344,2.267c-3.538,5.976-7.939,13.413-12.492,18.896c-6.63,7.982-12.633,9.816-12.646,9.82
				c-1.886,0.506-3.191,2.227-3.17,4.18c0.054,5.106-0.799,11.747-2.105,13.427c-2.876,3.558-7.199,6.423-11.365,8.751
				c0.439-0.729,0.664-1.594,0.607-2.488c-0.119-1.835-1.396-3.39-3.174-3.86c-0.258-0.068-1.646-0.41-3.662-0.41
				c-2.65,0-5.309,0.596-7.681,1.72c-3.213,1.521-6.517,4.048-8.852,6.026c-0.252-1.164-0.395-2.849-0.369-4.576
				c0.026-1.861-1.155-3.526-2.92-4.118c-1.763-0.588-3.71,0.025-4.813,1.528l-8.955,12.215l-1.616-6.076
				c0.389-0.124,0.759-0.304,1.101-0.536l14.34-9.737c1.29-0.877,2.002-2.386,1.857-3.939c-0.146-1.554-1.125-2.905-2.556-3.526
				c-0.058-0.026-6.01-2.707-11.111-8.271c-0.421-0.46-0.858-0.92-1.298-1.382c-3-3.149-4.673-5.071-4.169-7.96
				c0.236-1.343-0.184-2.719-1.128-3.702c-0.96-0.999-1.212-2.394-1.252-3.406c0.065,0.066,0.132,0.132,0.202,0.197
				c0.836,0.775,8.364,7.573,15.404,7.573c2.714,0,5.115-0.998,6.954-2.821c0.245,3.681,4.093,6.316,9.346,6.316
				c5.518,0,9.372-2.749,9.372-6.687c0-3.874-3.942-6.688-9.372-6.688c-2.446,0-4.585,0.575-6.202,1.557
				c0.121-0.387,0.225-0.752,0.32-1.086c0.158-0.557,0.398-1.401,0.584-1.594c0.482-0.189,1.643-0.507,3.973-0.507
				c4.914,0,10.678,1.388,10.734,1.401c1.629,0.398,3.347-0.196,4.383-1.52c1.037-1.324,1.203-3.13,0.426-4.619
				c-0.07-0.134-6.941-13.407-7.512-24.884c-0.124-2.521,0.422-5.064,1.193-7.319c0.301,0.58,0.617,1.171,0.948,1.767
				c0.917,1.639,2.017,3.382,3.179,5.227c2.317,3.674,4.945,7.839,6.323,11.614c3.808,10.435,2.145,19.277,2.13,19.351
				c-0.367,1.8,0.456,3.633,2.045,4.556c1.59,0.924,3.592,0.728,4.971-0.482c0.113-0.099,11.376-9.917,22.486-15.164
				c2.554-1.205,5.281-1.979,7.758-2.475C320.922,224.826,320.631,225.308,320.336,225.803z"/>
		</g>
	</g>
	<g id="&#x424;&#x438;&#x433;&#x443;&#x440;&#x430;_83">
		<g>
			<path style="fill-rule:evenodd;clip-rule:evenodd;fill:#B77B74;" d="M311.436,223.827c-11.814,5.579-23.482,15.816-23.482,15.816
				s2.012-9.853-2.303-21.673c-2.245-6.152-7.065-12.594-9.785-17.462c-2.819-5.046-4.357-9.772-4.357-9.772
				s-6.24,8.639-5.795,17.624c0.622,12.548,7.991,26.653,7.991,26.653s-11.771-2.878-17.28-0.723c-3.474,1.359-2.538,4.97-4.7,8.177
				c-5.015,7.441-17.236-3.899-17.236-3.899s2.595-3.698-2.324-4.646c-4.91-0.946-4.925,5.433-4.925,5.433s-1.016,5.073,2.3,8.524
				c-1.026,5.877,3.247,9.39,6.528,12.97c5.858,6.392,12.561,9.305,12.561,9.305l-14.341,9.737l-1.865,0.026l-4.961-16.556
				l-13.134,21.588l16.462-2.387l4.582,17.227l14.244-19.43c-0.018,1.281,0.022,4.972,0.995,7.278
				c1.058,2.508,3.463,3.298,3.463,3.298s5.714-5.654,10.875-8.1c4.427-2.098,8.413-1.04,8.413-1.04s-9.012,3.684-5.717,12.089
				c4.804-3.213,17.344-7.611,24.074-15.937c3.185-4.097,3.058-16.165,3.058-16.165s7.091-1.902,14.828-11.219
				c5.366-6.461,10.321-15.157,14.222-21.706c2.949-4.95,5.607-8.802,5.607-8.802S319.723,219.914,311.436,223.827z
				 M263.281,248.495c-2.812,0-5.091-1.078-5.091-2.407s2.279-2.407,5.091-2.407s5.09,1.078,5.09,2.407
				S266.093,248.495,263.281,248.495z"/>
		</g>
	</g>
	<g id="&#x424;&#x438;&#x433;&#x443;&#x440;&#x430;_83_&#x43A;&#x43E;&#x43F;&#x438;&#x44F;" style="opacity:0.651;">
		<g>
			<path style="fill-rule:evenodd;clip-rule:evenodd;fill:#D0B7DF;" d="M275.865,200.509c-2.819-5.046-4.357-9.772-4.357-9.772
				s-6.24,8.639-5.795,17.624c0.622,12.548,7.991,26.653,7.991,26.653s-4.16-1.011-8.69-1.384l1.008,10.436
				c1.41,0.428,2.35,1.171,2.35,2.022c0,0.771-0.779,1.449-1.971,1.89l3.246,33.603c2.198-0.183,3.715,0.217,3.715,0.217
				s-1.783,0.734-3.473,2.284l0.779,8.069c3.029-1.592,7.069-3.493,11.04-5.916l-3.508-81.85
				C277.341,203.016,276.538,201.713,275.865,200.509z M312.596,223.319l3.878,17.653c2.699-4.201,5.191-8.485,7.353-12.113
				c2.949-4.95,5.607-8.802,5.607-8.802S320.602,219.937,312.596,223.319z M251.724,242.468c-5.015,7.441-17.236-3.899-17.236-3.899
				s2.595-3.698-2.324-4.646c-4.91-0.946-4.925,5.433-4.925,5.433s-1.016,5.073,2.3,8.524c-1.026,5.877,3.247,9.39,6.528,12.97
				c5.858,6.392,12.561,9.305,12.561,9.305l-14.341,9.737l-1.865,0.026l-4.961-16.556l-13.134,21.588l16.462-2.387l4.582,17.227
				l14.244-19.43c-0.018,1.281,0.022,4.972,0.995,7.278c1.058,2.508,3.463,3.298,3.463,3.298s0.309-0.304,0.829-0.787l2.289-56.101
				c-0.262,0.076-0.528,0.148-0.768,0.242C252.95,235.65,253.886,239.261,251.724,242.468z M287.953,239.644
				c0,0,2.012-9.853-2.303-21.673c-0.314-0.86-0.688-1.728-1.09-2.595l7.541,61.986c2.783-4.538,2.675-15.578,2.675-15.578
				s6.785-1.84,14.321-10.636l-1.063-25.58C297.482,231.295,287.953,239.644,287.953,239.644z"/>
		</g>
	</g>
	<g id="&#x417;&#x430;&#x43B;&#x438;&#x432;&#x43A;&#x430;_&#x446;&#x432;&#x435;&#x442;&#x43E;&#x43C;_68">
		<g>
			<path style="fill-rule:evenodd;clip-rule:evenodd;fill:#722C19;" d="M330.723,219.3c-0.307-0.596-0.918-0.975-1.588-0.985
				l-0.158-0.001c-1.703,0-10.6,0.189-18.482,3.91c-8.038,3.796-15.895,9.625-20.238,13.091c0.162-4.124-0.185-10.624-2.83-17.874
				c-1.588-4.351-4.375-8.767-6.832-12.663c-1.109-1.76-2.158-3.422-2.987-4.905c-2.667-4.772-4.161-9.315-4.177-9.36
				c-0.211-0.649-0.771-1.126-1.446-1.231c-0.673-0.112-1.354,0.175-1.753,0.731c-0.268,0.37-6.553,9.186-6.086,18.619
				c0.452,9.107,4.285,18.838,6.523,23.817c-2.33-0.403-5.459-0.822-8.43-0.822c-2.521,0-4.588,0.309-6.146,0.92
				c-2.945,1.15-3.641,3.598-4.2,5.563c-0.326,1.143-0.632,2.22-1.303,3.216c-0.785,1.163-1.798,1.705-3.192,1.705
				c-3.352,0-9.247-3.876-11.582-5.801c0.279-0.846,0.729-1.764,0.279-2.875c-0.599-1.479-0.87-1.85-3.039-2.267
				c-0.44-0.086-0.872-0.128-1.284-0.128c-4.444,0-5.255,4.622-5.312,7.182c-0.161,0.993-1.143,5.516,1.739,9.134
				c-0.556,5.521,2.972,9.224,5.836,12.229c0.408,0.43,0.814,0.854,1.206,1.281c3.683,4.02,7.662,6.699,10.25,8.196l-11.189,7.597
				l-4.511-15.052c-0.204-0.68-0.782-1.178-1.483-1.278c-0.703-0.095-1.397,0.218-1.782,0.812l-13.015,20.098
				c-0.374,0.577-0.391,1.315-0.043,1.908c0.348,0.591,1.001,0.935,1.686,0.893l14.824-0.973l4.157,15.629
				c0.18,0.675,0.731,1.188,1.419,1.317c0.112,0.021,0.226,0.032,0.337,0.032c0.573,0,1.119-0.271,1.466-0.743l11.195-15.271
				c0.17,1.001,0.402,2,0.766,2.861c1.354,3.212,4.41,4.247,4.54,4.289c0.645,0.212,1.359,0.046,1.844-0.434
				c0.055-0.055,5.498-5.412,10.277-7.677c0.622-0.295,1.232-0.516,1.816-0.679c-2.117,2.491-3.41,6.069-1.615,10.649
				c0.201,0.512,0.624,0.906,1.149,1.07c0.178,0.056,0.36,0.083,0.543,0.083c0.356,0,0.708-0.104,1.011-0.307
				c1.264-0.846,3.195-1.824,5.432-2.958c5.829-2.954,13.813-7,18.85-13.23c2.902-3.733,3.346-12.429,3.405-15.852
				c2.521-1.022,8.234-3.957,14.284-11.241c4.816-5.799,9.313-13.395,12.926-19.498l1.33-2.242c2.854-4.792,5.466-8.584,5.492-8.62
				C330.984,220.612,331.029,219.896,330.723,219.3z M231.232,280.262l-12.703,0.832l8.911-13.758l3.787,12.639
				c0.03,0.099,0.066,0.193,0.111,0.283C231.303,280.258,231.268,280.259,231.232,280.262z M236.671,295.009l-3.565-13.401
				c-0.031-0.118-0.073-0.23-0.126-0.337l11.353-0.019l2.423,0.002L236.671,295.009z M321.988,227.926l-1.334,2.25
				c-3.549,5.992-7.963,13.451-12.596,19.028c-5.246,6.317-10.172,9.017-12.446,10.015c-0.084-1.596,0.086-4.016,1.157-7.275
				c2.525-7.689,11.143-16.513,11.143-16.513s-10.3,6.849-13.088,12.52c-2.209,4.494-2.106,10.782-1.881,13.932
				c0.005,4.443-0.689,11.987-2.625,14.478c-4.527,5.599-12.109,9.441-17.646,12.248c-1.335,0.677-2.568,1.301-3.648,1.893
				c-0.532-4.941,4.553-7.231,5.202-7.502c0.723-0.296,1.176-1.02,1.126-1.8c-0.051-0.778-0.593-1.438-1.347-1.64
				c-0.126-0.033-1.275-0.324-3.008-0.324c-2.271,0-4.545,0.509-6.575,1.471c-4.103,1.943-8.425,5.716-10.31,7.46
				c-0.498-0.353-1.087-0.919-1.446-1.767c-0.675-1.602-0.834-4.281-0.844-5.914c0.396-0.551,0.455-1.276,0.147-1.883
				c-0.31-0.609-0.938-0.994-1.621-0.994c-0.001,0-0.003,0-0.003,0l-6.026,0.01l-3.599-0.003l9.328-6.333
				c0.548-0.371,0.849-1.013,0.788-1.672c-0.062-0.657-0.477-1.232-1.083-1.498c-0.063-0.027-6.382-2.833-11.833-8.782
				c-0.406-0.443-0.829-0.886-1.253-1.332c-2.162-2.268-4.218-4.445-4.747-7.221c1.489,0.8,3.489,1.589,5.937,1.813
				c2.211,0.2,6.155,3.774,8.765,6.139l0.982,0.887c3.836,3.438,8.437,4.536,12.226,4.536c3.779,0,6.754-1.093,6.988-1.166
				c0.957-0.299,1.488-1.314,1.193-2.271c-0.296-0.958-1.316-1.498-2.271-1.199c-0.061,0.017-2.936,1.559-7.119,1.124
				c-2.636-0.274-6.23-1.615-8.591-3.73l-0.967-0.873c-3.321-3.01-7.454-6.755-10.876-7.065c-2.572-0.234-6.117-2.354-7.427-4.897
				c-1.627-3.161-0.701-6.847-0.701-6.847s3.356,2.19,3.721,2.584c0.302,0.28,7.461,6.856,13.618,6.856
				c2.602,0,4.748-1.145,6.207-3.31c0.994-1.475,1.414-2.949,1.784-4.251c0.528-1.858,0.813-2.699,2.027-3.174
				c1.134-0.445,2.758-0.67,4.822-0.67c5.176,0,11.149,1.443,11.21,1.458c0.69,0.17,1.421-0.083,1.86-0.646
				c0.44-0.562,0.512-1.329,0.18-1.961c-0.07-0.137-7.123-13.764-7.713-25.661c-0.252-5.078,1.891-10.138,3.551-13.244
				c0.744,1.786,1.785,4.071,3.107,6.438c0.877,1.568,1.949,3.27,3.087,5.072c2.36,3.742,5.035,7.984,6.49,11.971
				c4.031,11.047,2.228,20.4,2.209,20.49c-0.156,0.765,0.194,1.543,0.868,1.935c0.674,0.394,1.524,0.309,2.111-0.204
				c0.113-0.101,11.514-10.046,22.848-15.397c4.785-2.26,10.125-3.087,13.555-3.389C324.607,223.655,323.332,225.67,321.988,227.926
				z M258.08,243.097c-1.603-1.234-1.035,4.396,2.184,5.585c3.221,1.19,9.485,1.28,11.598-4.62
				C272.537,242.172,260.601,245.037,258.08,243.097z"/>
		</g>
	</g>
	<g id="&#x417;&#x430;&#x43B;&#x438;&#x432;&#x43A;&#x430;_&#x446;&#x432;&#x435;&#x442;&#x43E;&#x43C;_59_1_">
		<g>
			<path style="fill-rule:evenodd;clip-rule:evenodd;fill:#542012;" d="M264.221,169.338c-46.169,0-83.73,38.792-83.73,86.473
				s37.561,86.473,83.73,86.473c46.17,0,83.73-38.792,83.73-86.473S310.391,169.338,264.221,169.338z M264.221,338.003
				c-43.809,0-79.45-36.872-79.45-82.192c0-45.321,35.642-82.192,79.45-82.192c43.81,0,79.451,36.871,79.451,82.192
				C343.672,301.131,308.03,338.003,264.221,338.003z"/>
		</g>
	</g>
	<g id="&#x417;&#x430;&#x43B;&#x438;&#x432;&#x43A;&#x430;_&#x446;&#x432;&#x435;&#x442;&#x43E;&#x43C;_69">
		<g>
			<path style="fill-rule:evenodd;clip-rule:evenodd;fill:#722C19;" d="M257.605,355.503c-0.162-0.605-0.436-1.176-0.813-1.694
				c-0.395-0.541-0.874-0.985-1.424-1.318c-1.185-0.719-2.539-0.889-3.867-0.46c-0.092-0.498-0.255-0.967-0.487-1.406
				c-0.406-0.759-0.976-1.362-1.684-1.789c-0.605-0.368-1.264-0.594-1.958-0.673c-0.607-0.067-1.213-0.035-1.804,0.098
				c-0.367,0.084-0.714,0.217-1.049,0.374c-0.336-0.94-0.802-1.836-1.401-2.673c-0.838-1.166-1.908-2.148-3.182-2.92
				c-1.275-0.772-2.642-1.264-4.063-1.461c-1.085-0.148-2.168-0.133-3.228,0.035c0.006-0.328-0.014-0.659-0.074-0.99
				c-0.168-0.937-0.704-2.255-2.301-3.225l-6.396-3.872c-0.891-0.54-1.796-0.813-2.693-0.813c-0.071,0-0.154,0.006-0.234,0.011
				c-0.151-0.335-0.325-0.662-0.549-0.969c-0.387-0.528-0.863-0.963-1.397-1.285c-0.678-0.412-1.444-0.646-2.284-0.692
				c-0.047-0.002-0.191-0.005-0.238-0.005c-0.596,0-1.185,0.114-1.762,0.343c-0.074-0.733-0.304-1.411-0.692-2.027
				c-0.433-0.682-0.97-1.218-1.59-1.593c-0.562-0.342-1.173-0.565-1.827-0.664c-0.62-0.092-1.24-0.068-1.86,0.069
				c-0.277,0.063-0.546,0.155-0.809,0.264c-0.022-0.484-0.094-0.958-0.252-1.41c-0.34-0.958-1.036-1.76-2.067-2.385
				c-1.07-0.65-2.106-0.903-3.15-0.741c-0.762,0.121-1.496,0.417-2.188,0.885l-8.182,5.582c-0.286-0.354-0.609-0.687-1.006-0.964
				l3.488-5.759c0.975-1.612,0.821-3.039,0.521-3.952c-0.382-1.16-1.141-2.11-2.192-2.746c-1.062-0.645-2.255-0.872-3.47-0.662
				c-0.149,0.026-0.311,0.066-0.477,0.114c-0.277-0.637-0.62-1.257-1.103-1.837c-0.665-0.796-1.541-1.526-2.604-2.172l-3.833-2.32
				c-0.87-0.527-1.76-0.794-2.643-0.794c-0.938,0-2.708,0.325-4.026,2.499l-6,9.911c-0.952,1.57-0.908,2.9-0.704,3.74
				c0.205,0.844,0.779,2.049,2.352,3.001c0.884,0.534,1.785,0.805,2.678,0.805c0.946,0,2.733-0.327,4.061-2.521l0.421-0.695
				l0.56,0.338c0.895,0.543,1.834,0.867,2.794,0.979l-0.714,1.179c-1.545,2.551-0.906,5.191,1.628,6.728l3.882,2.351
				c0.779,0.471,1.593,0.712,2.42,0.726c0.159,0.291,0.339,0.57,0.551,0.827c0.383,0.467,0.841,0.862,1.352,1.17
				c0.788,0.48,1.734,0.7,2.641,0.652c0.935-0.046,1.843-0.374,2.759-1.022l0.047-0.035l0.854,0.519
				c-0.21,1.044-0.113,2.022,0.284,2.905c0.39,0.868,1.044,1.6,1.902,2.121c0.517,0.312,1.088,0.529,1.696,0.646
				c0.343,0.066,0.688,0.1,1.028,0.1c0.251,0,0.499-0.018,0.756-0.055c0.103-0.016,0.199-0.054,0.3-0.075
				c0.027,0.109,0.057,0.217,0.089,0.314c0.375,1.151,1.138,2.102,2.202,2.746c0.813,0.493,1.694,0.743,2.617,0.743
				c0.265,0,0.536-0.021,0.799-0.063c0.786-0.123,1.838-0.513,2.748-1.576c-0.468,1.243-0.335,2.309-0.094,3.033
				c0.377,1.149,1.135,2.094,2.187,2.728c0.817,0.497,1.703,0.748,2.631,0.748c0.261,0,0.524-0.02,0.791-0.061
				c0.956-0.149,2.304-0.674,3.305-2.329l0.434-0.716l1.371,0.831c0.718,0.436,1.475,0.658,2.229,0.712
				c-0.169,1.344-0.1,2.681,0.218,3.973c0.33,1.343,0.909,2.604,1.724,3.746c0.831,1.165,1.899,2.149,3.178,2.923
				c1.276,0.773,2.644,1.266,4.064,1.466c0.515,0.072,1.035,0.109,1.544,0.109c0.492,0,0.982-0.043,1.469-0.111
				c0.025,0.456,0.09,0.91,0.233,1.357c0.188,0.586,0.471,1.129,0.845,1.622c0.39,0.512,0.853,0.931,1.377,1.25
				c0.707,0.427,1.494,0.645,2.351,0.646c0.473,0,0.948-0.075,1.424-0.229c0.231,1.351,0.964,2.449,2.126,3.154
				c0.535,0.324,1.13,0.543,1.767,0.651c0.297,0.051,0.6,0.076,0.901,0.076c0.306,0,0.617-0.026,0.92-0.079
				c0.622-0.107,1.211-0.321,1.751-0.638c0.65-0.38,1.177-0.899,1.569-1.546c0.489-0.811,0.718-1.747,0.662-2.688l-0.199-3.854
				l3.476-1.598c0.886-0.394,1.619-1.04,2.119-1.868c0.371-0.612,0.586-1.29,0.637-2.016
				C257.814,356.666,257.757,356.075,257.605,355.503z M235.208,352.886c-0.095,0.156-0.181,0.227-0.234,0.263
				c-0.115,0.08-0.228,0.132-0.355,0.161c-0.138,0.033-0.271,0.037-0.414,0.016c-0.119-0.018-0.236-0.063-0.364-0.141
				c-0.131-0.079-0.227-0.163-0.3-0.264c-0.08-0.109-0.13-0.216-0.16-0.336c-0.033-0.13-0.038-0.261-0.019-0.41
				c0.009-0.067,0.031-0.175,0.125-0.331c0.071-0.12,0.151-0.208,0.25-0.277c0.124-0.089,0.239-0.144,0.369-0.175
				c0.08-0.02,0.161-0.029,0.247-0.029c0.056,0,0.111,0.004,0.167,0.012c0.069,0.009,0.178,0.031,0.338,0.129
				c0.155,0.094,0.228,0.181,0.268,0.239c0.093,0.133,0.156,0.264,0.193,0.41c0.032,0.121,0.037,0.243,0.018,0.381
				C235.321,352.655,235.279,352.768,235.208,352.886z"/>
		</g>
	</g>
	<g id="playfox">
		<g>
			<path style="fill-rule:evenodd;clip-rule:evenodd;fill:#B77B74;" d="M190.427,330.348c-0.081-0.551-0.411-1.003-0.992-1.354
				l-1.994-1.207l4.875-8.053c0.359-0.594,0.449-1.166,0.268-1.716c-0.181-0.551-0.524-0.979-1.03-1.285
				c-0.506-0.307-1.042-0.41-1.606-0.312s-1.027,0.445-1.387,1.039l-6.013,9.931c-0.766,1.265-0.526,2.273,0.72,3.027l3.881,2.351
				c0.581,0.352,1.136,0.432,1.666,0.241s0.951-0.544,1.264-1.061C190.392,331.434,190.507,330.899,190.427,330.348z
				 M184.674,321.019c0.498-0.43,0.935-0.955,1.31-1.574c0.406-0.671,0.68-1.335,0.821-1.99c0.141-0.655,0.133-1.29-0.023-1.905
				c-0.157-0.615-0.473-1.207-0.948-1.777c-0.475-0.569-1.119-1.101-1.932-1.593l-3.833-2.321c-1.213-0.734-2.203-0.469-2.968,0.796
				l-6,9.911c-0.766,1.265-0.52,2.277,0.739,3.04c1.245,0.754,2.258,0.485,3.04-0.805l4.946-8.17l2.045,1.238
				c0.402,0.243,0.661,0.52,0.776,0.827s0.056,0.655-0.179,1.043c-0.211,0.348-0.458,0.552-0.74,0.609
				c-0.283,0.059-0.585-0.01-0.907-0.205l-0.31-0.188c-0.414-0.25-0.826-0.341-1.237-0.272s-0.766,0.348-1.063,0.838
				c-0.297,0.49-0.411,0.955-0.341,1.394c0.069,0.438,0.414,0.846,1.033,1.221l0.658,0.398c0.593,0.359,1.191,0.567,1.792,0.623
				c0.601,0.056,1.18-0.014,1.737-0.205S184.176,321.448,184.674,321.019z M205.188,325.41c-0.126-0.358-0.435-0.687-0.925-0.983
				c-0.517-0.313-0.96-0.44-1.33-0.382c-0.371,0.058-0.734,0.208-1.093,0.449l-10.725,7.315c-0.208,0.139-0.405,0.363-0.593,0.673
				c-0.164,0.271-0.254,0.552-0.271,0.842c-0.017,0.289,0.025,0.57,0.125,0.842c0.1,0.272,0.244,0.522,0.432,0.751
				c0.188,0.229,0.411,0.421,0.669,0.577c0.322,0.195,0.692,0.283,1.111,0.263c0.417-0.021,0.842-0.183,1.273-0.485l1.502-1.128
				l4.026,2.438l-0.36,1.818c-0.108,0.499-0.078,0.937,0.092,1.313c0.169,0.376,0.447,0.681,0.834,0.915
				c0.245,0.148,0.518,0.251,0.818,0.31c0.299,0.059,0.59,0.066,0.871,0.025c0.281-0.042,0.546-0.137,0.795-0.286
				s0.451-0.353,0.608-0.611c0.164-0.271,0.271-0.55,0.321-0.837l1.906-12.629C205.344,326.166,205.315,325.77,205.188,325.41z
				 M200.158,332.999l-1.82-1.103l2.476-1.86L200.158,332.999z M255.042,355.951c-0.076-0.284-0.205-0.551-0.387-0.803
				c-0.183-0.252-0.397-0.452-0.642-0.601c-0.671-0.406-1.389-0.4-2.154,0.019l-3.054,1.723l0.13-3.492
				c0.002-0.439-0.084-0.822-0.257-1.148c-0.173-0.325-0.408-0.577-0.705-0.757c-0.271-0.164-0.56-0.264-0.864-0.299
				c-0.306-0.035-0.606-0.019-0.902,0.049c-0.297,0.067-0.57,0.184-0.82,0.35c-0.25,0.166-0.454,0.378-0.61,0.636
				c-0.115,0.16-0.185,0.334-0.21,0.521c-0.025,0.188-0.03,0.384-0.012,0.588l0.272,5.668l-5.148,2.385
				c-0.423,0.203-0.728,0.459-0.915,0.769c-0.157,0.259-0.239,0.54-0.246,0.844c-0.008,0.304,0.036,0.604,0.13,0.898
				c0.094,0.296,0.235,0.565,0.422,0.812c0.186,0.245,0.396,0.438,0.628,0.578c0.284,0.172,0.602,0.259,0.954,0.261
				c0.352,0.001,0.726-0.107,1.123-0.326l3.022-1.715l-0.099,3.485c-0.017,0.872,0.285,1.495,0.904,1.87
				c0.245,0.148,0.52,0.248,0.824,0.3c0.303,0.052,0.608,0.051,0.914-0.002c0.305-0.053,0.587-0.155,0.847-0.307
				c0.259-0.151,0.467-0.356,0.624-0.615c0.211-0.348,0.303-0.733,0.276-1.155l-0.292-5.679l5.167-2.374
				c0.386-0.172,0.688-0.438,0.907-0.8c0.148-0.245,0.233-0.516,0.254-0.812C255.144,356.524,255.117,356.234,255.042,355.951z
				 M241.334,356.263c0.586-0.968,0.949-1.982,1.09-3.044c0.141-1.061,0.089-2.097-0.152-3.107
				c-0.242-1.011-0.676-1.952-1.301-2.825c-0.626-0.872-1.421-1.601-2.388-2.187c-0.967-0.585-1.979-0.95-3.035-1.097
				c-1.057-0.146-2.092-0.093-3.106,0.156c-1.015,0.25-1.956,0.686-2.825,1.306c-0.869,0.621-1.596,1.415-2.182,2.383
				c-0.586,0.968-0.953,1.98-1.1,3.038s-0.096,2.093,0.152,3.107s0.682,1.957,1.301,2.825s1.412,1.596,2.378,2.181
				c0.966,0.585,1.981,0.952,3.044,1.103c1.063,0.149,2.099,0.098,3.106-0.156s1.949-0.689,2.825-1.306
				C240.018,358.023,240.749,357.23,241.334,356.263z M238.046,352.65c-0.066,0.487-0.231,0.95-0.496,1.387
				c-0.265,0.438-0.597,0.796-0.994,1.073c-0.397,0.278-0.827,0.471-1.289,0.578c-0.462,0.107-0.932,0.126-1.41,0.057
				c-0.479-0.07-0.937-0.238-1.375-0.503c-0.439-0.267-0.8-0.595-1.083-0.985c-0.284-0.392-0.482-0.814-0.594-1.27
				s-0.138-0.923-0.076-1.404s0.226-0.94,0.491-1.378c0.265-0.438,0.598-0.799,1-1.083c0.401-0.284,0.83-0.481,1.285-0.593
				c0.456-0.111,0.924-0.136,1.406-0.072c0.481,0.063,0.942,0.228,1.381,0.493c0.439,0.266,0.798,0.598,1.078,0.995
				c0.279,0.398,0.479,0.826,0.598,1.285C238.085,351.689,238.112,352.162,238.046,352.65z M225.002,344.046l-3.678-2.227
				l0.797-1.316l4.511,2.731c0.593,0.358,1.167,0.452,1.722,0.279c0.554-0.173,0.987-0.517,1.298-1.03
				c0.311-0.514,0.415-1.056,0.311-1.628c-0.104-0.571-0.452-1.037-1.046-1.396l-6.397-3.873c-1.246-0.755-2.25-0.5-3.015,0.763
				l-5.946,9.82c-0.375,0.618-0.472,1.197-0.294,1.736c0.179,0.54,0.521,0.963,1.027,1.27c0.506,0.306,1.042,0.415,1.61,0.327
				c0.567-0.089,1.039-0.442,1.414-1.063l1.828-3.02l3.678,2.227c0.581,0.352,1.133,0.444,1.658,0.276
				c0.524-0.167,0.935-0.496,1.232-0.986s0.398-1.007,0.303-1.549C225.92,344.845,225.583,344.397,225.002,344.046z
				 M218.462,335.536c0.156-0.258,0.248-0.533,0.275-0.825c0.027-0.292-0.001-0.574-0.084-0.845
				c-0.083-0.271-0.211-0.524-0.385-0.762s-0.383-0.431-0.628-0.579c-0.297-0.18-0.637-0.28-1.021-0.301
				c-0.384-0.021-0.774,0.077-1.171,0.296l-3.454,1.903l0.097-3.962c0.01-0.453-0.089-0.844-0.296-1.172
				c-0.208-0.328-0.446-0.574-0.717-0.738c-0.258-0.156-0.533-0.256-0.824-0.3s-0.58-0.033-0.866,0.031s-0.554,0.181-0.805,0.347
				c-0.25,0.165-0.454,0.378-0.61,0.636c-0.188,0.31-0.276,0.688-0.265,1.136l0.07,6.788l-2.484,4.104
				c-0.375,0.62-0.475,1.199-0.298,1.738s0.522,0.964,1.039,1.276c0.503,0.306,1.038,0.413,1.604,0.323
				c0.565-0.09,1.036-0.444,1.411-1.063l2.485-4.104l5.997-3.088C217.94,336.164,218.25,335.885,218.462,335.536z"/>
		</g>
	</g>
</g>
</svg>
